ISO-10303-21;
HEADER;
/* Generated by software containing ST-Developer
 * from STEP Tools, Inc. (www.steptools.com) 
 */
/* OPTION: using custom renumber hook */

FILE_DESCRIPTION(
/* description */ ('STEP AP214'),
/* implementation_level */ '2;1');

FILE_NAME(
/* name */ '654cf5997f9aa566be17221b',
/* time_stamp */ '2023-11-09T15:07:06Z',
/* author */ (''),
/* organization */ (''),
/* preprocessor_version */ 'ST-DEVELOPER v19.4',
/* originating_system */ '  ',
/* authorisation */ '  ');

FILE_SCHEMA (('AUTOMOTIVE_DESIGN {1 0 10303 214 3 1 1}'));
ENDSEC;

DATA;
#10=PROPERTY_DEFINITION_REPRESENTATION(#14,#12);
#11=PROPERTY_DEFINITION_REPRESENTATION(#15,#13);
#12=REPRESENTATION('',(#16),#1068);
#13=REPRESENTATION('',(#17),#1068);
#14=PROPERTY_DEFINITION('pmi validation property','',#1073);
#15=PROPERTY_DEFINITION('pmi validation property','',#1073);
#16=VALUE_REPRESENTATION_ITEM('number of annotations',COUNT_MEASURE(0.));
#17=VALUE_REPRESENTATION_ITEM('number of views',COUNT_MEASURE(0.));
#18=SHAPE_REPRESENTATION_RELATIONSHIP('','',#628,#19);
#19=ADVANCED_BREP_SHAPE_REPRESENTATION('',(#626),#1068);
#20=LINE('',#1042,#32);
#21=LINE('',#1045,#33);
#22=LINE('',#1047,#34);
#23=LINE('',#1049,#35);
#24=LINE('',#1051,#36);
#25=LINE('',#1054,#37);
#26=LINE('',#1056,#38);
#27=LINE('',#1058,#39);
#28=LINE('',#1060,#40);
#29=LINE('',#1061,#41);
#30=LINE('',#1063,#42);
#31=LINE('',#1065,#43);
#32=VECTOR('',#892,1.);
#33=VECTOR('',#893,1.);
#34=VECTOR('',#894,1.);
#35=VECTOR('',#895,1.);
#36=VECTOR('',#898,1.);
#37=VECTOR('',#899,1.);
#38=VECTOR('',#900,1.);
#39=VECTOR('',#901,1.);
#40=VECTOR('',#904,1.);
#41=VECTOR('',#905,1.);
#42=VECTOR('',#908,1.);
#43=VECTOR('',#911,1.);
#44=OVER_RIDING_STYLED_ITEM('',(#584),#575,#582);
#45=OVER_RIDING_STYLED_ITEM('',(#585),#576,#582);
#46=OVER_RIDING_STYLED_ITEM('',(#586),#577,#582);
#47=OVER_RIDING_STYLED_ITEM('',(#587),#578,#582);
#48=OVER_RIDING_STYLED_ITEM('',(#588),#579,#582);
#49=OVER_RIDING_STYLED_ITEM('',(#589),#580,#582);
#50=DRAUGHTING_PRE_DEFINED_COLOUR('white');
#51=CYLINDRICAL_SURFACE('',#632,0.00375);
#52=CYLINDRICAL_SURFACE('',#636,0.00375);
#53=CYLINDRICAL_SURFACE('',#640,0.00375);
#54=CYLINDRICAL_SURFACE('',#644,0.00375);
#55=CYLINDRICAL_SURFACE('',#648,0.00375);
#56=CYLINDRICAL_SURFACE('',#652,0.00375);
#57=CYLINDRICAL_SURFACE('',#656,0.00375);
#58=CYLINDRICAL_SURFACE('',#660,0.00375);
#59=CYLINDRICAL_SURFACE('',#664,0.00375);
#60=CYLINDRICAL_SURFACE('',#668,0.00375);
#61=CYLINDRICAL_SURFACE('',#672,0.00375);
#62=CYLINDRICAL_SURFACE('',#676,0.00375);
#63=CYLINDRICAL_SURFACE('',#680,0.00375);
#64=CYLINDRICAL_SURFACE('',#684,0.00375);
#65=CYLINDRICAL_SURFACE('',#688,0.00375);
#66=CYLINDRICAL_SURFACE('',#692,0.00375);
#67=CYLINDRICAL_SURFACE('',#696,0.00375);
#68=CYLINDRICAL_SURFACE('',#700,0.00375);
#69=CYLINDRICAL_SURFACE('',#704,0.00375);
#70=CYLINDRICAL_SURFACE('',#708,0.00375);
#71=CYLINDRICAL_SURFACE('',#712,0.00375);
#72=ORIENTED_EDGE('',*,*,#180,.T.);
#73=ORIENTED_EDGE('',*,*,#180,.F.);
#74=ORIENTED_EDGE('',*,*,#181,.T.);
#75=ORIENTED_EDGE('',*,*,#182,.T.);
#76=ORIENTED_EDGE('',*,*,#182,.F.);
#77=ORIENTED_EDGE('',*,*,#183,.T.);
#78=ORIENTED_EDGE('',*,*,#184,.T.);
#79=ORIENTED_EDGE('',*,*,#184,.F.);
#80=ORIENTED_EDGE('',*,*,#185,.T.);
#81=ORIENTED_EDGE('',*,*,#186,.T.);
#82=ORIENTED_EDGE('',*,*,#186,.F.);
#83=ORIENTED_EDGE('',*,*,#187,.T.);
#84=ORIENTED_EDGE('',*,*,#188,.T.);
#85=ORIENTED_EDGE('',*,*,#188,.F.);
#86=ORIENTED_EDGE('',*,*,#189,.T.);
#87=ORIENTED_EDGE('',*,*,#190,.T.);
#88=ORIENTED_EDGE('',*,*,#190,.F.);
#89=ORIENTED_EDGE('',*,*,#191,.T.);
#90=ORIENTED_EDGE('',*,*,#192,.T.);
#91=ORIENTED_EDGE('',*,*,#192,.F.);
#92=ORIENTED_EDGE('',*,*,#193,.T.);
#93=ORIENTED_EDGE('',*,*,#194,.T.);
#94=ORIENTED_EDGE('',*,*,#194,.F.);
#95=ORIENTED_EDGE('',*,*,#195,.T.);
#96=ORIENTED_EDGE('',*,*,#196,.T.);
#97=ORIENTED_EDGE('',*,*,#196,.F.);
#98=ORIENTED_EDGE('',*,*,#197,.T.);
#99=ORIENTED_EDGE('',*,*,#198,.T.);
#100=ORIENTED_EDGE('',*,*,#198,.F.);
#101=ORIENTED_EDGE('',*,*,#199,.T.);
#102=ORIENTED_EDGE('',*,*,#200,.T.);
#103=ORIENTED_EDGE('',*,*,#200,.F.);
#104=ORIENTED_EDGE('',*,*,#201,.T.);
#105=ORIENTED_EDGE('',*,*,#202,.T.);
#106=ORIENTED_EDGE('',*,*,#202,.F.);
#107=ORIENTED_EDGE('',*,*,#203,.T.);
#108=ORIENTED_EDGE('',*,*,#204,.T.);
#109=ORIENTED_EDGE('',*,*,#204,.F.);
#110=ORIENTED_EDGE('',*,*,#205,.T.);
#111=ORIENTED_EDGE('',*,*,#206,.T.);
#112=ORIENTED_EDGE('',*,*,#206,.F.);
#113=ORIENTED_EDGE('',*,*,#207,.T.);
#114=ORIENTED_EDGE('',*,*,#208,.T.);
#115=ORIENTED_EDGE('',*,*,#208,.F.);
#116=ORIENTED_EDGE('',*,*,#209,.T.);
#117=ORIENTED_EDGE('',*,*,#210,.T.);
#118=ORIENTED_EDGE('',*,*,#210,.F.);
#119=ORIENTED_EDGE('',*,*,#211,.T.);
#120=ORIENTED_EDGE('',*,*,#212,.T.);
#121=ORIENTED_EDGE('',*,*,#212,.F.);
#122=ORIENTED_EDGE('',*,*,#213,.T.);
#123=ORIENTED_EDGE('',*,*,#214,.T.);
#124=ORIENTED_EDGE('',*,*,#214,.F.);
#125=ORIENTED_EDGE('',*,*,#215,.T.);
#126=ORIENTED_EDGE('',*,*,#216,.T.);
#127=ORIENTED_EDGE('',*,*,#216,.F.);
#128=ORIENTED_EDGE('',*,*,#217,.T.);
#129=ORIENTED_EDGE('',*,*,#218,.T.);
#130=ORIENTED_EDGE('',*,*,#218,.F.);
#131=ORIENTED_EDGE('',*,*,#219,.T.);
#132=ORIENTED_EDGE('',*,*,#220,.T.);
#133=ORIENTED_EDGE('',*,*,#220,.F.);
#134=ORIENTED_EDGE('',*,*,#221,.T.);
#135=ORIENTED_EDGE('',*,*,#222,.F.);
#136=ORIENTED_EDGE('',*,*,#223,.F.);
#137=ORIENTED_EDGE('',*,*,#224,.F.);
#138=ORIENTED_EDGE('',*,*,#225,.F.);
#139=ORIENTED_EDGE('',*,*,#221,.F.);
#140=ORIENTED_EDGE('',*,*,#219,.F.);
#141=ORIENTED_EDGE('',*,*,#217,.F.);
#142=ORIENTED_EDGE('',*,*,#215,.F.);
#143=ORIENTED_EDGE('',*,*,#213,.F.);
#144=ORIENTED_EDGE('',*,*,#211,.F.);
#145=ORIENTED_EDGE('',*,*,#209,.F.);
#146=ORIENTED_EDGE('',*,*,#207,.F.);
#147=ORIENTED_EDGE('',*,*,#205,.F.);
#148=ORIENTED_EDGE('',*,*,#203,.F.);
#149=ORIENTED_EDGE('',*,*,#201,.F.);
#150=ORIENTED_EDGE('',*,*,#199,.F.);
#151=ORIENTED_EDGE('',*,*,#197,.F.);
#152=ORIENTED_EDGE('',*,*,#195,.F.);
#153=ORIENTED_EDGE('',*,*,#193,.F.);
#154=ORIENTED_EDGE('',*,*,#191,.F.);
#155=ORIENTED_EDGE('',*,*,#189,.F.);
#156=ORIENTED_EDGE('',*,*,#187,.F.);
#157=ORIENTED_EDGE('',*,*,#185,.F.);
#158=ORIENTED_EDGE('',*,*,#183,.F.);
#159=ORIENTED_EDGE('',*,*,#181,.F.);
#160=ORIENTED_EDGE('',*,*,#226,.T.);
#161=ORIENTED_EDGE('',*,*,#227,.T.);
#162=ORIENTED_EDGE('',*,*,#228,.T.);
#163=ORIENTED_EDGE('',*,*,#229,.T.);
#164=ORIENTED_EDGE('',*,*,#223,.T.);
#165=ORIENTED_EDGE('',*,*,#230,.F.);
#166=ORIENTED_EDGE('',*,*,#229,.F.);
#167=ORIENTED_EDGE('',*,*,#231,.T.);
#168=ORIENTED_EDGE('',*,*,#224,.T.);
#169=ORIENTED_EDGE('',*,*,#231,.F.);
#170=ORIENTED_EDGE('',*,*,#228,.F.);
#171=ORIENTED_EDGE('',*,*,#232,.T.);
#172=ORIENTED_EDGE('',*,*,#225,.T.);
#173=ORIENTED_EDGE('',*,*,#232,.F.);
#174=ORIENTED_EDGE('',*,*,#227,.F.);
#175=ORIENTED_EDGE('',*,*,#233,.T.);
#176=ORIENTED_EDGE('',*,*,#222,.T.);
#177=ORIENTED_EDGE('',*,*,#233,.F.);
#178=ORIENTED_EDGE('',*,*,#226,.F.);
#179=ORIENTED_EDGE('',*,*,#230,.T.);
#180=EDGE_CURVE('',#234,#234,#284,.T.);
#181=EDGE_CURVE('',#235,#235,#285,.T.);
#182=EDGE_CURVE('',#236,#236,#286,.T.);
#183=EDGE_CURVE('',#237,#237,#287,.T.);
#184=EDGE_CURVE('',#238,#238,#288,.T.);
#185=EDGE_CURVE('',#239,#239,#289,.T.);
#186=EDGE_CURVE('',#240,#240,#290,.T.);
#187=EDGE_CURVE('',#241,#241,#291,.T.);
#188=EDGE_CURVE('',#242,#242,#292,.T.);
#189=EDGE_CURVE('',#243,#243,#293,.T.);
#190=EDGE_CURVE('',#244,#244,#294,.T.);
#191=EDGE_CURVE('',#245,#245,#295,.T.);
#192=EDGE_CURVE('',#246,#246,#296,.T.);
#193=EDGE_CURVE('',#247,#247,#297,.T.);
#194=EDGE_CURVE('',#248,#248,#298,.T.);
#195=EDGE_CURVE('',#249,#249,#299,.T.);
#196=EDGE_CURVE('',#250,#250,#300,.T.);
#197=EDGE_CURVE('',#251,#251,#301,.T.);
#198=EDGE_CURVE('',#252,#252,#302,.T.);
#199=EDGE_CURVE('',#253,#253,#303,.T.);
#200=EDGE_CURVE('',#254,#254,#304,.T.);
#201=EDGE_CURVE('',#255,#255,#305,.T.);
#202=EDGE_CURVE('',#256,#256,#306,.T.);
#203=EDGE_CURVE('',#257,#257,#307,.T.);
#204=EDGE_CURVE('',#258,#258,#308,.T.);
#205=EDGE_CURVE('',#259,#259,#309,.T.);
#206=EDGE_CURVE('',#260,#260,#310,.T.);
#207=EDGE_CURVE('',#261,#261,#311,.T.);
#208=EDGE_CURVE('',#262,#262,#312,.T.);
#209=EDGE_CURVE('',#263,#263,#313,.T.);
#210=EDGE_CURVE('',#264,#264,#314,.T.);
#211=EDGE_CURVE('',#265,#265,#315,.T.);
#212=EDGE_CURVE('',#266,#266,#316,.T.);
#213=EDGE_CURVE('',#267,#267,#317,.T.);
#214=EDGE_CURVE('',#268,#268,#318,.T.);
#215=EDGE_CURVE('',#269,#269,#319,.T.);
#216=EDGE_CURVE('',#270,#270,#320,.T.);
#217=EDGE_CURVE('',#271,#271,#321,.T.);
#218=EDGE_CURVE('',#272,#272,#322,.T.);
#219=EDGE_CURVE('',#273,#273,#323,.T.);
#220=EDGE_CURVE('',#274,#274,#324,.T.);
#221=EDGE_CURVE('',#275,#275,#325,.T.);
#222=EDGE_CURVE('',#276,#277,#20,.T.);
#223=EDGE_CURVE('',#278,#276,#21,.T.);
#224=EDGE_CURVE('',#279,#278,#22,.T.);
#225=EDGE_CURVE('',#277,#279,#23,.T.);
#226=EDGE_CURVE('',#280,#281,#24,.T.);
#227=EDGE_CURVE('',#281,#282,#25,.T.);
#228=EDGE_CURVE('',#282,#283,#26,.T.);
#229=EDGE_CURVE('',#283,#280,#27,.T.);
#230=EDGE_CURVE('',#280,#276,#28,.T.);
#231=EDGE_CURVE('',#283,#278,#29,.T.);
#232=EDGE_CURVE('',#282,#279,#30,.T.);
#233=EDGE_CURVE('',#281,#277,#31,.T.);
#234=VERTEX_POINT('',#917);
#235=VERTEX_POINT('',#920);
#236=VERTEX_POINT('',#923);
#237=VERTEX_POINT('',#926);
#238=VERTEX_POINT('',#929);
#239=VERTEX_POINT('',#932);
#240=VERTEX_POINT('',#935);
#241=VERTEX_POINT('',#938);
#242=VERTEX_POINT('',#941);
#243=VERTEX_POINT('',#944);
#244=VERTEX_POINT('',#947);
#245=VERTEX_POINT('',#950);
#246=VERTEX_POINT('',#953);
#247=VERTEX_POINT('',#956);
#248=VERTEX_POINT('',#959);
#249=VERTEX_POINT('',#962);
#250=VERTEX_POINT('',#965);
#251=VERTEX_POINT('',#968);
#252=VERTEX_POINT('',#971);
#253=VERTEX_POINT('',#974);
#254=VERTEX_POINT('',#977);
#255=VERTEX_POINT('',#980);
#256=VERTEX_POINT('',#983);
#257=VERTEX_POINT('',#986);
#258=VERTEX_POINT('',#989);
#259=VERTEX_POINT('',#992);
#260=VERTEX_POINT('',#995);
#261=VERTEX_POINT('',#998);
#262=VERTEX_POINT('',#1001);
#263=VERTEX_POINT('',#1004);
#264=VERTEX_POINT('',#1007);
#265=VERTEX_POINT('',#1010);
#266=VERTEX_POINT('',#1013);
#267=VERTEX_POINT('',#1016);
#268=VERTEX_POINT('',#1019);
#269=VERTEX_POINT('',#1022);
#270=VERTEX_POINT('',#1025);
#271=VERTEX_POINT('',#1028);
#272=VERTEX_POINT('',#1031);
#273=VERTEX_POINT('',#1034);
#274=VERTEX_POINT('',#1037);
#275=VERTEX_POINT('',#1040);
#276=VERTEX_POINT('',#1043);
#277=VERTEX_POINT('',#1044);
#278=VERTEX_POINT('',#1046);
#279=VERTEX_POINT('',#1048);
#280=VERTEX_POINT('',#1052);
#281=VERTEX_POINT('',#1053);
#282=VERTEX_POINT('',#1055);
#283=VERTEX_POINT('',#1057);
#284=CIRCLE('',#631,0.00375);
#285=CIRCLE('',#633,0.00375);
#286=CIRCLE('',#635,0.00375);
#287=CIRCLE('',#637,0.00375);
#288=CIRCLE('',#639,0.00375);
#289=CIRCLE('',#641,0.00375);
#290=CIRCLE('',#643,0.00375);
#291=CIRCLE('',#645,0.00375);
#292=CIRCLE('',#647,0.00375);
#293=CIRCLE('',#649,0.00375);
#294=CIRCLE('',#651,0.00375);
#295=CIRCLE('',#653,0.00375);
#296=CIRCLE('',#655,0.00375);
#297=CIRCLE('',#657,0.00375);
#298=CIRCLE('',#659,0.00375);
#299=CIRCLE('',#661,0.00375);
#300=CIRCLE('',#663,0.00375);
#301=CIRCLE('',#665,0.00375);
#302=CIRCLE('',#667,0.00375);
#303=CIRCLE('',#669,0.00375);
#304=CIRCLE('',#671,0.00375);
#305=CIRCLE('',#673,0.00375);
#306=CIRCLE('',#675,0.00375);
#307=CIRCLE('',#677,0.00375);
#308=CIRCLE('',#679,0.00375);
#309=CIRCLE('',#681,0.00375);
#310=CIRCLE('',#683,0.00375);
#311=CIRCLE('',#685,0.00375);
#312=CIRCLE('',#687,0.00375);
#313=CIRCLE('',#689,0.00375);
#314=CIRCLE('',#691,0.00375);
#315=CIRCLE('',#693,0.00375);
#316=CIRCLE('',#695,0.00375);
#317=CIRCLE('',#697,0.00375);
#318=CIRCLE('',#699,0.00375);
#319=CIRCLE('',#701,0.00375);
#320=CIRCLE('',#703,0.00375);
#321=CIRCLE('',#705,0.00375);
#322=CIRCLE('',#707,0.00375);
#323=CIRCLE('',#709,0.00375);
#324=CIRCLE('',#711,0.00375);
#325=CIRCLE('',#713,0.00375);
#326=EDGE_LOOP('',(#72));
#327=EDGE_LOOP('',(#73));
#328=EDGE_LOOP('',(#74));
#329=EDGE_LOOP('',(#75));
#330=EDGE_LOOP('',(#76));
#331=EDGE_LOOP('',(#77));
#332=EDGE_LOOP('',(#78));
#333=EDGE_LOOP('',(#79));
#334=EDGE_LOOP('',(#80));
#335=EDGE_LOOP('',(#81));
#336=EDGE_LOOP('',(#82));
#337=EDGE_LOOP('',(#83));
#338=EDGE_LOOP('',(#84));
#339=EDGE_LOOP('',(#85));
#340=EDGE_LOOP('',(#86));
#341=EDGE_LOOP('',(#87));
#342=EDGE_LOOP('',(#88));
#343=EDGE_LOOP('',(#89));
#344=EDGE_LOOP('',(#90));
#345=EDGE_LOOP('',(#91));
#346=EDGE_LOOP('',(#92));
#347=EDGE_LOOP('',(#93));
#348=EDGE_LOOP('',(#94));
#349=EDGE_LOOP('',(#95));
#350=EDGE_LOOP('',(#96));
#351=EDGE_LOOP('',(#97));
#352=EDGE_LOOP('',(#98));
#353=EDGE_LOOP('',(#99));
#354=EDGE_LOOP('',(#100));
#355=EDGE_LOOP('',(#101));
#356=EDGE_LOOP('',(#102));
#357=EDGE_LOOP('',(#103));
#358=EDGE_LOOP('',(#104));
#359=EDGE_LOOP('',(#105));
#360=EDGE_LOOP('',(#106));
#361=EDGE_LOOP('',(#107));
#362=EDGE_LOOP('',(#108));
#363=EDGE_LOOP('',(#109));
#364=EDGE_LOOP('',(#110));
#365=EDGE_LOOP('',(#111));
#366=EDGE_LOOP('',(#112));
#367=EDGE_LOOP('',(#113));
#368=EDGE_LOOP('',(#114));
#369=EDGE_LOOP('',(#115));
#370=EDGE_LOOP('',(#116));
#371=EDGE_LOOP('',(#117));
#372=EDGE_LOOP('',(#118));
#373=EDGE_LOOP('',(#119));
#374=EDGE_LOOP('',(#120));
#375=EDGE_LOOP('',(#121));
#376=EDGE_LOOP('',(#122));
#377=EDGE_LOOP('',(#123));
#378=EDGE_LOOP('',(#124));
#379=EDGE_LOOP('',(#125));
#380=EDGE_LOOP('',(#126));
#381=EDGE_LOOP('',(#127));
#382=EDGE_LOOP('',(#128));
#383=EDGE_LOOP('',(#129));
#384=EDGE_LOOP('',(#130));
#385=EDGE_LOOP('',(#131));
#386=EDGE_LOOP('',(#132));
#387=EDGE_LOOP('',(#133));
#388=EDGE_LOOP('',(#134));
#389=EDGE_LOOP('',(#135,#136,#137,#138));
#390=EDGE_LOOP('',(#139));
#391=EDGE_LOOP('',(#140));
#392=EDGE_LOOP('',(#141));
#393=EDGE_LOOP('',(#142));
#394=EDGE_LOOP('',(#143));
#395=EDGE_LOOP('',(#144));
#396=EDGE_LOOP('',(#145));
#397=EDGE_LOOP('',(#146));
#398=EDGE_LOOP('',(#147));
#399=EDGE_LOOP('',(#148));
#400=EDGE_LOOP('',(#149));
#401=EDGE_LOOP('',(#150));
#402=EDGE_LOOP('',(#151));
#403=EDGE_LOOP('',(#152));
#404=EDGE_LOOP('',(#153));
#405=EDGE_LOOP('',(#154));
#406=EDGE_LOOP('',(#155));
#407=EDGE_LOOP('',(#156));
#408=EDGE_LOOP('',(#157));
#409=EDGE_LOOP('',(#158));
#410=EDGE_LOOP('',(#159));
#411=EDGE_LOOP('',(#160,#161,#162,#163));
#412=EDGE_LOOP('',(#164,#165,#166,#167));
#413=EDGE_LOOP('',(#168,#169,#170,#171));
#414=EDGE_LOOP('',(#172,#173,#174,#175));
#415=EDGE_LOOP('',(#176,#177,#178,#179));
#416=FACE_BOUND('',#326,.T.);
#417=FACE_BOUND('',#327,.T.);
#418=FACE_BOUND('',#328,.T.);
#419=FACE_BOUND('',#329,.T.);
#420=FACE_BOUND('',#330,.T.);
#421=FACE_BOUND('',#331,.T.);
#422=FACE_BOUND('',#332,.T.);
#423=FACE_BOUND('',#333,.T.);
#424=FACE_BOUND('',#334,.T.);
#425=FACE_BOUND('',#335,.T.);
#426=FACE_BOUND('',#336,.T.);
#427=FACE_BOUND('',#337,.T.);
#428=FACE_BOUND('',#338,.T.);
#429=FACE_BOUND('',#339,.T.);
#430=FACE_BOUND('',#340,.T.);
#431=FACE_BOUND('',#341,.T.);
#432=FACE_BOUND('',#342,.T.);
#433=FACE_BOUND('',#343,.T.);
#434=FACE_BOUND('',#344,.T.);
#435=FACE_BOUND('',#345,.T.);
#436=FACE_BOUND('',#346,.T.);
#437=FACE_BOUND('',#347,.T.);
#438=FACE_BOUND('',#348,.T.);
#439=FACE_BOUND('',#349,.T.);
#440=FACE_BOUND('',#350,.T.);
#441=FACE_BOUND('',#351,.T.);
#442=FACE_BOUND('',#352,.T.);
#443=FACE_BOUND('',#353,.T.);
#444=FACE_BOUND('',#354,.T.);
#445=FACE_BOUND('',#355,.T.);
#446=FACE_BOUND('',#356,.T.);
#447=FACE_BOUND('',#357,.T.);
#448=FACE_BOUND('',#358,.T.);
#449=FACE_BOUND('',#359,.T.);
#450=FACE_BOUND('',#360,.T.);
#451=FACE_BOUND('',#361,.T.);
#452=FACE_BOUND('',#362,.T.);
#453=FACE_BOUND('',#363,.T.);
#454=FACE_BOUND('',#364,.T.);
#455=FACE_BOUND('',#365,.T.);
#456=FACE_BOUND('',#366,.T.);
#457=FACE_BOUND('',#367,.T.);
#458=FACE_BOUND('',#368,.T.);
#459=FACE_BOUND('',#369,.T.);
#460=FACE_BOUND('',#370,.T.);
#461=FACE_BOUND('',#371,.T.);
#462=FACE_BOUND('',#372,.T.);
#463=FACE_BOUND('',#373,.T.);
#464=FACE_BOUND('',#374,.T.);
#465=FACE_BOUND('',#375,.T.);
#466=FACE_BOUND('',#376,.T.);
#467=FACE_BOUND('',#377,.T.);
#468=FACE_BOUND('',#378,.T.);
#469=FACE_BOUND('',#379,.T.);
#470=FACE_BOUND('',#380,.T.);
#471=FACE_BOUND('',#381,.T.);
#472=FACE_BOUND('',#382,.T.);
#473=FACE_BOUND('',#383,.T.);
#474=FACE_BOUND('',#384,.T.);
#475=FACE_BOUND('',#385,.T.);
#476=FACE_BOUND('',#386,.T.);
#477=FACE_BOUND('',#387,.T.);
#478=FACE_BOUND('',#388,.T.);
#479=FACE_BOUND('',#389,.T.);
#480=FACE_BOUND('',#390,.T.);
#481=FACE_BOUND('',#391,.T.);
#482=FACE_BOUND('',#392,.T.);
#483=FACE_BOUND('',#393,.T.);
#484=FACE_BOUND('',#394,.T.);
#485=FACE_BOUND('',#395,.T.);
#486=FACE_BOUND('',#396,.T.);
#487=FACE_BOUND('',#397,.T.);
#488=FACE_BOUND('',#398,.T.);
#489=FACE_BOUND('',#399,.T.);
#490=FACE_BOUND('',#400,.T.);
#491=FACE_BOUND('',#401,.T.);
#492=FACE_BOUND('',#402,.T.);
#493=FACE_BOUND('',#403,.T.);
#494=FACE_BOUND('',#404,.T.);
#495=FACE_BOUND('',#405,.T.);
#496=FACE_BOUND('',#406,.T.);
#497=FACE_BOUND('',#407,.T.);
#498=FACE_BOUND('',#408,.T.);
#499=FACE_BOUND('',#409,.T.);
#500=FACE_BOUND('',#410,.T.);
#501=FACE_BOUND('',#411,.T.);
#502=FACE_BOUND('',#412,.T.);
#503=FACE_BOUND('',#413,.T.);
#504=FACE_BOUND('',#414,.T.);
#505=FACE_BOUND('',#415,.T.);
#506=PLANE('',#630);
#507=PLANE('',#634);
#508=PLANE('',#638);
#509=PLANE('',#642);
#510=PLANE('',#646);
#511=PLANE('',#650);
#512=PLANE('',#654);
#513=PLANE('',#658);
#514=PLANE('',#662);
#515=PLANE('',#666);
#516=PLANE('',#670);
#517=PLANE('',#674);
#518=PLANE('',#678);
#519=PLANE('',#682);
#520=PLANE('',#686);
#521=PLANE('',#690);
#522=PLANE('',#694);
#523=PLANE('',#698);
#524=PLANE('',#702);
#525=PLANE('',#706);
#526=PLANE('',#710);
#527=PLANE('',#714);
#528=PLANE('',#715);
#529=PLANE('',#716);
#530=PLANE('',#717);
#531=PLANE('',#718);
#532=PLANE('',#719);
#533=ADVANCED_FACE('',(#416),#506,.T.);
#534=ADVANCED_FACE('',(#417,#418),#51,.T.);
#535=ADVANCED_FACE('',(#419),#507,.T.);
#536=ADVANCED_FACE('',(#420,#421),#52,.T.);
#537=ADVANCED_FACE('',(#422),#508,.T.);
#538=ADVANCED_FACE('',(#423,#424),#53,.T.);
#539=ADVANCED_FACE('',(#425),#509,.T.);
#540=ADVANCED_FACE('',(#426,#427),#54,.T.);
#541=ADVANCED_FACE('',(#428),#510,.T.);
#542=ADVANCED_FACE('',(#429,#430),#55,.T.);
#543=ADVANCED_FACE('',(#431),#511,.T.);
#544=ADVANCED_FACE('',(#432,#433),#56,.T.);
#545=ADVANCED_FACE('',(#434),#512,.T.);
#546=ADVANCED_FACE('',(#435,#436),#57,.T.);
#547=ADVANCED_FACE('',(#437),#513,.T.);
#548=ADVANCED_FACE('',(#438,#439),#58,.T.);
#549=ADVANCED_FACE('',(#440),#514,.T.);
#550=ADVANCED_FACE('',(#441,#442),#59,.T.);
#551=ADVANCED_FACE('',(#443),#515,.T.);
#552=ADVANCED_FACE('',(#444,#445),#60,.T.);
#553=ADVANCED_FACE('',(#446),#516,.T.);
#554=ADVANCED_FACE('',(#447,#448),#61,.T.);
#555=ADVANCED_FACE('',(#449),#517,.T.);
#556=ADVANCED_FACE('',(#450,#451),#62,.T.);
#557=ADVANCED_FACE('',(#452),#518,.T.);
#558=ADVANCED_FACE('',(#453,#454),#63,.T.);
#559=ADVANCED_FACE('',(#455),#519,.T.);
#560=ADVANCED_FACE('',(#456,#457),#64,.T.);
#561=ADVANCED_FACE('',(#458),#520,.T.);
#562=ADVANCED_FACE('',(#459,#460),#65,.T.);
#563=ADVANCED_FACE('',(#461),#521,.T.);
#564=ADVANCED_FACE('',(#462,#463),#66,.T.);
#565=ADVANCED_FACE('',(#464),#522,.T.);
#566=ADVANCED_FACE('',(#465,#466),#67,.T.);
#567=ADVANCED_FACE('',(#467),#523,.T.);
#568=ADVANCED_FACE('',(#468,#469),#68,.T.);
#569=ADVANCED_FACE('',(#470),#524,.T.);
#570=ADVANCED_FACE('',(#471,#472),#69,.T.);
#571=ADVANCED_FACE('',(#473),#525,.T.);
#572=ADVANCED_FACE('',(#474,#475),#70,.T.);
#573=ADVANCED_FACE('',(#476),#526,.T.);
#574=ADVANCED_FACE('',(#477,#478),#71,.T.);
#575=ADVANCED_FACE('',(#479),#527,.F.);
#576=ADVANCED_FACE('',(#480,#481,#482,#483,#484,#485,#486,#487,#488,#489,
#490,#491,#492,#493,#494,#495,#496,#497,#498,#499,#500,#501),#528,.T.);
#577=ADVANCED_FACE('',(#502),#529,.F.);
#578=ADVANCED_FACE('',(#503),#530,.F.);
#579=ADVANCED_FACE('',(#504),#531,.F.);
#580=ADVANCED_FACE('',(#505),#532,.F.);
#581=CLOSED_SHELL('',(#533,#534,#535,#536,#537,#538,#539,#540,#541,#542,
#543,#544,#545,#546,#547,#548,#549,#550,#551,#552,#553,#554,#555,#556,#557,
#558,#559,#560,#561,#562,#563,#564,#565,#566,#567,#568,#569,#570,#571,#572,
#573,#574,#575,#576,#577,#578,#579,#580));
#582=STYLED_ITEM('',(#583),#626);
#583=PRESENTATION_STYLE_ASSIGNMENT((#590));
#584=PRESENTATION_STYLE_ASSIGNMENT((#591));
#585=PRESENTATION_STYLE_ASSIGNMENT((#592));
#586=PRESENTATION_STYLE_ASSIGNMENT((#593));
#587=PRESENTATION_STYLE_ASSIGNMENT((#594));
#588=PRESENTATION_STYLE_ASSIGNMENT((#595));
#589=PRESENTATION_STYLE_ASSIGNMENT((#596));
#590=SURFACE_STYLE_USAGE(.BOTH.,#597);
#591=SURFACE_STYLE_USAGE(.BOTH.,#598);
#592=SURFACE_STYLE_USAGE(.BOTH.,#599);
#593=SURFACE_STYLE_USAGE(.BOTH.,#600);
#594=SURFACE_STYLE_USAGE(.BOTH.,#601);
#595=SURFACE_STYLE_USAGE(.BOTH.,#602);
#596=SURFACE_STYLE_USAGE(.BOTH.,#603);
#597=SURFACE_SIDE_STYLE('',(#604));
#598=SURFACE_SIDE_STYLE('',(#605));
#599=SURFACE_SIDE_STYLE('',(#606));
#600=SURFACE_SIDE_STYLE('',(#607));
#601=SURFACE_SIDE_STYLE('',(#608));
#602=SURFACE_SIDE_STYLE('',(#609));
#603=SURFACE_SIDE_STYLE('',(#610));
#604=SURFACE_STYLE_FILL_AREA(#611);
#605=SURFACE_STYLE_FILL_AREA(#612);
#606=SURFACE_STYLE_FILL_AREA(#613);
#607=SURFACE_STYLE_FILL_AREA(#614);
#608=SURFACE_STYLE_FILL_AREA(#615);
#609=SURFACE_STYLE_FILL_AREA(#616);
#610=SURFACE_STYLE_FILL_AREA(#617);
#611=FILL_AREA_STYLE('',(#618));
#612=FILL_AREA_STYLE('',(#619));
#613=FILL_AREA_STYLE('',(#620));
#614=FILL_AREA_STYLE('',(#621));
#615=FILL_AREA_STYLE('',(#622));
#616=FILL_AREA_STYLE('',(#623));
#617=FILL_AREA_STYLE('',(#624));
#618=FILL_AREA_STYLE_COLOUR('',#625);
#619=FILL_AREA_STYLE_COLOUR('',#50);
#620=FILL_AREA_STYLE_COLOUR('',#50);
#621=FILL_AREA_STYLE_COLOUR('',#50);
#622=FILL_AREA_STYLE_COLOUR('',#50);
#623=FILL_AREA_STYLE_COLOUR('',#50);
#624=FILL_AREA_STYLE_COLOUR('',#50);
#625=COLOUR_RGB('',0.0470588235294118,0.0470588235294118,0.0470588235294118);
#626=MANIFOLD_SOLID_BREP('back_pattern_100x50',#581);
#627=SHAPE_DEFINITION_REPRESENTATION(#1073,#628);
#628=SHAPE_REPRESENTATION('back_pattern_100x50',(#629),#1068);
#629=AXIS2_PLACEMENT_3D('',#914,#720,#721);
#630=AXIS2_PLACEMENT_3D('',#915,#722,#723);
#631=AXIS2_PLACEMENT_3D('',#916,#724,#725);
#632=AXIS2_PLACEMENT_3D('',#918,#726,#727);
#633=AXIS2_PLACEMENT_3D('',#919,#728,#729);
#634=AXIS2_PLACEMENT_3D('',#921,#730,#731);
#635=AXIS2_PLACEMENT_3D('',#922,#732,#733);
#636=AXIS2_PLACEMENT_3D('',#924,#734,#735);
#637=AXIS2_PLACEMENT_3D('',#925,#736,#737);
#638=AXIS2_PLACEMENT_3D('',#927,#738,#739);
#639=AXIS2_PLACEMENT_3D('',#928,#740,#741);
#640=AXIS2_PLACEMENT_3D('',#930,#742,#743);
#641=AXIS2_PLACEMENT_3D('',#931,#744,#745);
#642=AXIS2_PLACEMENT_3D('',#933,#746,#747);
#643=AXIS2_PLACEMENT_3D('',#934,#748,#749);
#644=AXIS2_PLACEMENT_3D('',#936,#750,#751);
#645=AXIS2_PLACEMENT_3D('',#937,#752,#753);
#646=AXIS2_PLACEMENT_3D('',#939,#754,#755);
#647=AXIS2_PLACEMENT_3D('',#940,#756,#757);
#648=AXIS2_PLACEMENT_3D('',#942,#758,#759);
#649=AXIS2_PLACEMENT_3D('',#943,#760,#761);
#650=AXIS2_PLACEMENT_3D('',#945,#762,#763);
#651=AXIS2_PLACEMENT_3D('',#946,#764,#765);
#652=AXIS2_PLACEMENT_3D('',#948,#766,#767);
#653=AXIS2_PLACEMENT_3D('',#949,#768,#769);
#654=AXIS2_PLACEMENT_3D('',#951,#770,#771);
#655=AXIS2_PLACEMENT_3D('',#952,#772,#773);
#656=AXIS2_PLACEMENT_3D('',#954,#774,#775);
#657=AXIS2_PLACEMENT_3D('',#955,#776,#777);
#658=AXIS2_PLACEMENT_3D('',#957,#778,#779);
#659=AXIS2_PLACEMENT_3D('',#958,#780,#781);
#660=AXIS2_PLACEMENT_3D('',#960,#782,#783);
#661=AXIS2_PLACEMENT_3D('',#961,#784,#785);
#662=AXIS2_PLACEMENT_3D('',#963,#786,#787);
#663=AXIS2_PLACEMENT_3D('',#964,#788,#789);
#664=AXIS2_PLACEMENT_3D('',#966,#790,#791);
#665=AXIS2_PLACEMENT_3D('',#967,#792,#793);
#666=AXIS2_PLACEMENT_3D('',#969,#794,#795);
#667=AXIS2_PLACEMENT_3D('',#970,#796,#797);
#668=AXIS2_PLACEMENT_3D('',#972,#798,#799);
#669=AXIS2_PLACEMENT_3D('',#973,#800,#801);
#670=AXIS2_PLACEMENT_3D('',#975,#802,#803);
#671=AXIS2_PLACEMENT_3D('',#976,#804,#805);
#672=AXIS2_PLACEMENT_3D('',#978,#806,#807);
#673=AXIS2_PLACEMENT_3D('',#979,#808,#809);
#674=AXIS2_PLACEMENT_3D('',#981,#810,#811);
#675=AXIS2_PLACEMENT_3D('',#982,#812,#813);
#676=AXIS2_PLACEMENT_3D('',#984,#814,#815);
#677=AXIS2_PLACEMENT_3D('',#985,#816,#817);
#678=AXIS2_PLACEMENT_3D('',#987,#818,#819);
#679=AXIS2_PLACEMENT_3D('',#988,#820,#821);
#680=AXIS2_PLACEMENT_3D('',#990,#822,#823);
#681=AXIS2_PLACEMENT_3D('',#991,#824,#825);
#682=AXIS2_PLACEMENT_3D('',#993,#826,#827);
#683=AXIS2_PLACEMENT_3D('',#994,#828,#829);
#684=AXIS2_PLACEMENT_3D('',#996,#830,#831);
#685=AXIS2_PLACEMENT_3D('',#997,#832,#833);
#686=AXIS2_PLACEMENT_3D('',#999,#834,#835);
#687=AXIS2_PLACEMENT_3D('',#1000,#836,#837);
#688=AXIS2_PLACEMENT_3D('',#1002,#838,#839);
#689=AXIS2_PLACEMENT_3D('',#1003,#840,#841);
#690=AXIS2_PLACEMENT_3D('',#1005,#842,#843);
#691=AXIS2_PLACEMENT_3D('',#1006,#844,#845);
#692=AXIS2_PLACEMENT_3D('',#1008,#846,#847);
#693=AXIS2_PLACEMENT_3D('',#1009,#848,#849);
#694=AXIS2_PLACEMENT_3D('',#1011,#850,#851);
#695=AXIS2_PLACEMENT_3D('',#1012,#852,#853);
#696=AXIS2_PLACEMENT_3D('',#1014,#854,#855);
#697=AXIS2_PLACEMENT_3D('',#1015,#856,#857);
#698=AXIS2_PLACEMENT_3D('',#1017,#858,#859);
#699=AXIS2_PLACEMENT_3D('',#1018,#860,#861);
#700=AXIS2_PLACEMENT_3D('',#1020,#862,#863);
#701=AXIS2_PLACEMENT_3D('',#1021,#864,#865);
#702=AXIS2_PLACEMENT_3D('',#1023,#866,#867);
#703=AXIS2_PLACEMENT_3D('',#1024,#868,#869);
#704=AXIS2_PLACEMENT_3D('',#1026,#870,#871);
#705=AXIS2_PLACEMENT_3D('',#1027,#872,#873);
#706=AXIS2_PLACEMENT_3D('',#1029,#874,#875);
#707=AXIS2_PLACEMENT_3D('',#1030,#876,#877);
#708=AXIS2_PLACEMENT_3D('',#1032,#878,#879);
#709=AXIS2_PLACEMENT_3D('',#1033,#880,#881);
#710=AXIS2_PLACEMENT_3D('',#1035,#882,#883);
#711=AXIS2_PLACEMENT_3D('',#1036,#884,#885);
#712=AXIS2_PLACEMENT_3D('',#1038,#886,#887);
#713=AXIS2_PLACEMENT_3D('',#1039,#888,#889);
#714=AXIS2_PLACEMENT_3D('',#1041,#890,#891);
#715=AXIS2_PLACEMENT_3D('',#1050,#896,#897);
#716=AXIS2_PLACEMENT_3D('',#1059,#902,#903);
#717=AXIS2_PLACEMENT_3D('',#1062,#906,#907);
#718=AXIS2_PLACEMENT_3D('',#1064,#909,#910);
#719=AXIS2_PLACEMENT_3D('',#1066,#912,#913);
#720=DIRECTION('',(0.,0.,1.));
#721=DIRECTION('',(1.,0.,0.));
#722=DIRECTION('',(1.,0.,0.));
#723=DIRECTION('',(0.,0.,-1.));
#724=DIRECTION('',(1.,0.,0.));
#725=DIRECTION('',(0.,1.,0.));
#726=DIRECTION('',(-1.,0.,0.));
#727=DIRECTION('',(0.,0.,1.));
#728=DIRECTION('',(1.,0.,0.));
#729=DIRECTION('',(0.,1.,0.));
#730=DIRECTION('',(1.,0.,0.));
#731=DIRECTION('',(0.,0.,-1.));
#732=DIRECTION('',(1.,0.,0.));
#733=DIRECTION('',(0.,1.,0.));
#734=DIRECTION('',(-1.,0.,0.));
#735=DIRECTION('',(0.,0.,1.));
#736=DIRECTION('',(1.,0.,0.));
#737=DIRECTION('',(0.,1.,0.));
#738=DIRECTION('',(1.,0.,0.));
#739=DIRECTION('',(0.,0.,-1.));
#740=DIRECTION('',(1.,0.,0.));
#741=DIRECTION('',(0.,1.,0.));
#742=DIRECTION('',(-1.,0.,0.));
#743=DIRECTION('',(0.,0.,1.));
#744=DIRECTION('',(1.,0.,0.));
#745=DIRECTION('',(0.,1.,0.));
#746=DIRECTION('',(1.,0.,0.));
#747=DIRECTION('',(0.,0.,-1.));
#748=DIRECTION('',(1.,0.,0.));
#749=DIRECTION('',(0.,1.,0.));
#750=DIRECTION('',(-1.,0.,0.));
#751=DIRECTION('',(0.,0.,1.));
#752=DIRECTION('',(1.,0.,0.));
#753=DIRECTION('',(0.,1.,0.));
#754=DIRECTION('',(1.,0.,0.));
#755=DIRECTION('',(0.,0.,-1.));
#756=DIRECTION('',(1.,0.,0.));
#757=DIRECTION('',(0.,1.,0.));
#758=DIRECTION('',(-1.,0.,0.));
#759=DIRECTION('',(0.,0.,1.));
#760=DIRECTION('',(1.,0.,0.));
#761=DIRECTION('',(0.,1.,0.));
#762=DIRECTION('',(1.,0.,0.));
#763=DIRECTION('',(0.,0.,-1.));
#764=DIRECTION('',(1.,0.,0.));
#765=DIRECTION('',(0.,1.,0.));
#766=DIRECTION('',(-1.,0.,0.));
#767=DIRECTION('',(0.,0.,1.));
#768=DIRECTION('',(1.,0.,0.));
#769=DIRECTION('',(0.,1.,0.));
#770=DIRECTION('',(1.,0.,0.));
#771=DIRECTION('',(0.,0.,-1.));
#772=DIRECTION('',(1.,0.,0.));
#773=DIRECTION('',(0.,1.,0.));
#774=DIRECTION('',(-1.,0.,0.));
#775=DIRECTION('',(0.,0.,1.));
#776=DIRECTION('',(1.,0.,0.));
#777=DIRECTION('',(0.,1.,0.));
#778=DIRECTION('',(1.,0.,0.));
#779=DIRECTION('',(0.,0.,-1.));
#780=DIRECTION('',(1.,0.,0.));
#781=DIRECTION('',(0.,1.,-6.12323399573677E-17));
#782=DIRECTION('',(-1.,0.,0.));
#783=DIRECTION('',(0.,0.,1.));
#784=DIRECTION('',(1.,0.,0.));
#785=DIRECTION('',(0.,1.,-6.12323399573677E-17));
#786=DIRECTION('',(1.,0.,0.));
#787=DIRECTION('',(0.,0.,-1.));
#788=DIRECTION('',(1.,0.,0.));
#789=DIRECTION('',(0.,1.,-6.12323399573677E-17));
#790=DIRECTION('',(-1.,0.,0.));
#791=DIRECTION('',(0.,0.,1.));
#792=DIRECTION('',(1.,0.,0.));
#793=DIRECTION('',(0.,1.,-6.12323399573677E-17));
#794=DIRECTION('',(1.,0.,0.));
#795=DIRECTION('',(0.,0.,-1.));
#796=DIRECTION('',(1.,0.,0.));
#797=DIRECTION('',(0.,1.,-6.12323399573677E-17));
#798=DIRECTION('',(-1.,0.,0.));
#799=DIRECTION('',(0.,0.,1.));
#800=DIRECTION('',(1.,0.,0.));
#801=DIRECTION('',(0.,1.,-6.12323399573677E-17));
#802=DIRECTION('',(1.,0.,0.));
#803=DIRECTION('',(0.,0.,-1.));
#804=DIRECTION('',(1.,0.,0.));
#805=DIRECTION('',(0.,1.,-6.12323399573677E-17));
#806=DIRECTION('',(-1.,0.,0.));
#807=DIRECTION('',(0.,0.,1.));
#808=DIRECTION('',(1.,0.,0.));
#809=DIRECTION('',(0.,1.,-6.12323399573677E-17));
#810=DIRECTION('',(1.,0.,0.));
#811=DIRECTION('',(0.,0.,-1.));
#812=DIRECTION('',(1.,0.,0.));
#813=DIRECTION('',(0.,1.,-6.12323399573677E-17));
#814=DIRECTION('',(-1.,0.,0.));
#815=DIRECTION('',(0.,0.,1.));
#816=DIRECTION('',(1.,0.,0.));
#817=DIRECTION('',(0.,1.,-6.12323399573677E-17));
#818=DIRECTION('',(1.,0.,0.));
#819=DIRECTION('',(0.,0.,-1.));
#820=DIRECTION('',(1.,0.,0.));
#821=DIRECTION('',(0.,1.,-6.12323399573677E-17));
#822=DIRECTION('',(-1.,0.,0.));
#823=DIRECTION('',(0.,0.,1.));
#824=DIRECTION('',(1.,0.,0.));
#825=DIRECTION('',(0.,1.,-6.12323399573677E-17));
#826=DIRECTION('',(1.,0.,0.));
#827=DIRECTION('',(0.,0.,-1.));
#828=DIRECTION('',(1.,0.,0.));
#829=DIRECTION('',(0.,1.,-6.12323399573677E-17));
#830=DIRECTION('',(-1.,0.,0.));
#831=DIRECTION('',(0.,0.,1.));
#832=DIRECTION('',(1.,0.,0.));
#833=DIRECTION('',(0.,1.,-6.12323399573677E-17));
#834=DIRECTION('',(1.,0.,0.));
#835=DIRECTION('',(0.,0.,-1.));
#836=DIRECTION('',(1.,0.,0.));
#837=DIRECTION('',(0.,1.,0.));
#838=DIRECTION('',(-1.,0.,0.));
#839=DIRECTION('',(0.,0.,1.));
#840=DIRECTION('',(1.,0.,0.));
#841=DIRECTION('',(0.,1.,0.));
#842=DIRECTION('',(1.,0.,0.));
#843=DIRECTION('',(0.,0.,-1.));
#844=DIRECTION('',(1.,0.,0.));
#845=DIRECTION('',(0.,1.,0.));
#846=DIRECTION('',(-1.,0.,0.));
#847=DIRECTION('',(0.,0.,1.));
#848=DIRECTION('',(1.,0.,0.));
#849=DIRECTION('',(0.,1.,0.));
#850=DIRECTION('',(1.,0.,0.));
#851=DIRECTION('',(0.,0.,-1.));
#852=DIRECTION('',(1.,0.,0.));
#853=DIRECTION('',(0.,1.,0.));
#854=DIRECTION('',(-1.,0.,0.));
#855=DIRECTION('',(0.,0.,1.));
#856=DIRECTION('',(1.,0.,0.));
#857=DIRECTION('',(0.,1.,0.));
#858=DIRECTION('',(1.,0.,0.));
#859=DIRECTION('',(0.,0.,-1.));
#860=DIRECTION('',(1.,0.,0.));
#861=DIRECTION('',(0.,1.,0.));
#862=DIRECTION('',(-1.,0.,0.));
#863=DIRECTION('',(0.,0.,1.));
#864=DIRECTION('',(1.,0.,0.));
#865=DIRECTION('',(0.,1.,0.));
#866=DIRECTION('',(1.,0.,0.));
#867=DIRECTION('',(0.,0.,-1.));
#868=DIRECTION('',(1.,0.,0.));
#869=DIRECTION('',(0.,1.,0.));
#870=DIRECTION('',(-1.,0.,0.));
#871=DIRECTION('',(0.,0.,1.));
#872=DIRECTION('',(1.,0.,0.));
#873=DIRECTION('',(0.,1.,0.));
#874=DIRECTION('',(1.,0.,0.));
#875=DIRECTION('',(0.,0.,-1.));
#876=DIRECTION('',(1.,0.,0.));
#877=DIRECTION('',(0.,1.,0.));
#878=DIRECTION('',(-1.,0.,0.));
#879=DIRECTION('',(0.,0.,1.));
#880=DIRECTION('',(1.,0.,0.));
#881=DIRECTION('',(0.,1.,0.));
#882=DIRECTION('',(1.,0.,0.));
#883=DIRECTION('',(0.,0.,-1.));
#884=DIRECTION('',(1.,0.,0.));
#885=DIRECTION('',(0.,1.,0.));
#886=DIRECTION('',(-1.,0.,0.));
#887=DIRECTION('',(0.,0.,1.));
#888=DIRECTION('',(1.,0.,0.));
#889=DIRECTION('',(0.,1.,0.));
#890=DIRECTION('',(1.,0.,0.));
#891=DIRECTION('',(0.,0.,-1.));
#892=DIRECTION('',(0.,0.,-1.));
#893=DIRECTION('',(0.,-1.,0.));
#894=DIRECTION('',(0.,0.,1.));
#895=DIRECTION('',(0.,1.,0.));
#896=DIRECTION('',(1.,0.,0.));
#897=DIRECTION('',(0.,0.,-1.));
#898=DIRECTION('',(0.,0.,-1.));
#899=DIRECTION('',(0.,1.,0.));
#900=DIRECTION('',(0.,0.,1.));
#901=DIRECTION('',(0.,-1.,0.));
#902=DIRECTION('',(0.,0.,-1.));
#903=DIRECTION('',(-1.,0.,0.));
#904=DIRECTION('',(-1.,0.,0.));
#905=DIRECTION('',(-1.,0.,0.));
#906=DIRECTION('',(0.,-1.,0.));
#907=DIRECTION('',(0.,0.,-1.));
#908=DIRECTION('',(-1.,0.,0.));
#909=DIRECTION('',(0.,0.,1.));
#910=DIRECTION('',(1.,0.,0.));
#911=DIRECTION('',(-1.,0.,0.));
#912=DIRECTION('',(0.,1.,0.));
#913=DIRECTION('',(0.,0.,1.));
#914=CARTESIAN_POINT('',(0.,0.,0.));
#915=CARTESIAN_POINT('',(0.00025,0.0375,-0.0125));
#916=CARTESIAN_POINT('',(0.00025,0.0375,-0.0125));
#917=CARTESIAN_POINT('',(0.00025,0.04125,-0.0125));
#918=CARTESIAN_POINT('',(0.00025,0.0375,-0.0125));
#919=CARTESIAN_POINT('',(0.0002,0.0375,-0.0125));
#920=CARTESIAN_POINT('',(0.0002,0.04125,-0.0125));
#921=CARTESIAN_POINT('',(0.00025,0.025,-0.0125));
#922=CARTESIAN_POINT('',(0.00025,0.025,-0.0125));
#923=CARTESIAN_POINT('',(0.00025,0.02875,-0.0125));
#924=CARTESIAN_POINT('',(0.00025,0.025,-0.0125));
#925=CARTESIAN_POINT('',(0.0002,0.025,-0.0125));
#926=CARTESIAN_POINT('',(0.0002,0.02875,-0.0125));
#927=CARTESIAN_POINT('',(0.00025,0.0125,-0.0125));
#928=CARTESIAN_POINT('',(0.00025,0.0125,-0.0125));
#929=CARTESIAN_POINT('',(0.00025,0.01625,-0.0125));
#930=CARTESIAN_POINT('',(0.00025,0.0125,-0.0125));
#931=CARTESIAN_POINT('',(0.0002,0.0125,-0.0125));
#932=CARTESIAN_POINT('',(0.0002,0.01625,-0.0125));
#933=CARTESIAN_POINT('',(0.00025,0.,-0.0125));
#934=CARTESIAN_POINT('',(0.00025,0.,-0.0125));
#935=CARTESIAN_POINT('',(0.00025,0.00375,-0.0125));
#936=CARTESIAN_POINT('',(0.00025,0.,-0.0125));
#937=CARTESIAN_POINT('',(0.0002,0.,-0.0125));
#938=CARTESIAN_POINT('',(0.0002,0.00375,-0.0125));
#939=CARTESIAN_POINT('',(0.00025,-0.0125,-0.0125));
#940=CARTESIAN_POINT('',(0.00025,-0.0125,-0.0125));
#941=CARTESIAN_POINT('',(0.00025,-0.00875,-0.0125));
#942=CARTESIAN_POINT('',(0.00025,-0.0125,-0.0125));
#943=CARTESIAN_POINT('',(0.0002,-0.0125,-0.0125));
#944=CARTESIAN_POINT('',(0.0002,-0.00875,-0.0125));
#945=CARTESIAN_POINT('',(0.00025,-0.025,-0.0125));
#946=CARTESIAN_POINT('',(0.00025,-0.025,-0.0125));
#947=CARTESIAN_POINT('',(0.00025,-0.02125,-0.0125));
#948=CARTESIAN_POINT('',(0.00025,-0.025,-0.0125));
#949=CARTESIAN_POINT('',(0.0002,-0.025,-0.0125));
#950=CARTESIAN_POINT('',(0.0002,-0.02125,-0.0125));
#951=CARTESIAN_POINT('',(0.00025,-0.0375,-0.0125));
#952=CARTESIAN_POINT('',(0.00025,-0.0375,-0.0125));
#953=CARTESIAN_POINT('',(0.00025,-0.03375,-0.0125));
#954=CARTESIAN_POINT('',(0.00025,-0.0375,-0.0125));
#955=CARTESIAN_POINT('',(0.0002,-0.0375,-0.0125));
#956=CARTESIAN_POINT('',(0.0002,-0.03375,-0.0125));
#957=CARTESIAN_POINT('',(0.00025,0.0375,0.));
#958=CARTESIAN_POINT('',(0.00025,0.0375,0.));
#959=CARTESIAN_POINT('',(0.00025,0.04125,-2.29621274840129E-19));
#960=CARTESIAN_POINT('',(0.00025,0.0375,0.));
#961=CARTESIAN_POINT('',(0.0002,0.0375,0.));
#962=CARTESIAN_POINT('',(0.0002,0.04125,-2.29621274840129E-19));
#963=CARTESIAN_POINT('',(0.00025,0.025,0.));
#964=CARTESIAN_POINT('',(0.00025,0.025,0.));
#965=CARTESIAN_POINT('',(0.00025,0.02875,-2.29621274840129E-19));
#966=CARTESIAN_POINT('',(0.00025,0.025,0.));
#967=CARTESIAN_POINT('',(0.0002,0.025,0.));
#968=CARTESIAN_POINT('',(0.0002,0.02875,-2.29621274840129E-19));
#969=CARTESIAN_POINT('',(0.00025,0.0125,0.));
#970=CARTESIAN_POINT('',(0.00025,0.0125,0.));
#971=CARTESIAN_POINT('',(0.00025,0.01625,-2.29621274840129E-19));
#972=CARTESIAN_POINT('',(0.00025,0.0125,0.));
#973=CARTESIAN_POINT('',(0.0002,0.0125,0.));
#974=CARTESIAN_POINT('',(0.0002,0.01625,-2.29621274840129E-19));
#975=CARTESIAN_POINT('',(0.00025,0.,0.));
#976=CARTESIAN_POINT('',(0.00025,0.,0.));
#977=CARTESIAN_POINT('',(0.00025,0.00375,-2.29621274840129E-19));
#978=CARTESIAN_POINT('',(0.00025,0.,0.));
#979=CARTESIAN_POINT('',(0.0002,0.,0.));
#980=CARTESIAN_POINT('',(0.0002,0.00375,-2.29621274840129E-19));
#981=CARTESIAN_POINT('',(0.00025,-0.0125,0.));
#982=CARTESIAN_POINT('',(0.00025,-0.0125,0.));
#983=CARTESIAN_POINT('',(0.00025,-0.00875,-2.29621274840129E-19));
#984=CARTESIAN_POINT('',(0.00025,-0.0125,0.));
#985=CARTESIAN_POINT('',(0.0002,-0.0125,0.));
#986=CARTESIAN_POINT('',(0.0002,-0.00875,-2.29621274840129E-19));
#987=CARTESIAN_POINT('',(0.00025,-0.025,0.));
#988=CARTESIAN_POINT('',(0.00025,-0.025,0.));
#989=CARTESIAN_POINT('',(0.00025,-0.02125,-2.29621274840129E-19));
#990=CARTESIAN_POINT('',(0.00025,-0.025,0.));
#991=CARTESIAN_POINT('',(0.0002,-0.025,0.));
#992=CARTESIAN_POINT('',(0.0002,-0.02125,-2.29621274840129E-19));
#993=CARTESIAN_POINT('',(0.00025,-0.0375,0.));
#994=CARTESIAN_POINT('',(0.00025,-0.0375,0.));
#995=CARTESIAN_POINT('',(0.00025,-0.03375,-2.29621274840129E-19));
#996=CARTESIAN_POINT('',(0.00025,-0.0375,0.));
#997=CARTESIAN_POINT('',(0.0002,-0.0375,0.));
#998=CARTESIAN_POINT('',(0.0002,-0.03375,-2.29621274840129E-19));
#999=CARTESIAN_POINT('',(0.00025,0.0375,0.0125));
#1000=CARTESIAN_POINT('',(0.00025,0.0375,0.0125));
#1001=CARTESIAN_POINT('',(0.00025,0.04125,0.0125));
#1002=CARTESIAN_POINT('',(0.00025,0.0375,0.0125));
#1003=CARTESIAN_POINT('',(0.0002,0.0375,0.0125));
#1004=CARTESIAN_POINT('',(0.0002,0.04125,0.0125));
#1005=CARTESIAN_POINT('',(0.00025,0.025,0.0125));
#1006=CARTESIAN_POINT('',(0.00025,0.025,0.0125));
#1007=CARTESIAN_POINT('',(0.00025,0.02875,0.0125));
#1008=CARTESIAN_POINT('',(0.00025,0.025,0.0125));
#1009=CARTESIAN_POINT('',(0.0002,0.025,0.0125));
#1010=CARTESIAN_POINT('',(0.0002,0.02875,0.0125));
#1011=CARTESIAN_POINT('',(0.00025,0.0125,0.0125));
#1012=CARTESIAN_POINT('',(0.00025,0.0125,0.0125));
#1013=CARTESIAN_POINT('',(0.00025,0.01625,0.0125));
#1014=CARTESIAN_POINT('',(0.00025,0.0125,0.0125));
#1015=CARTESIAN_POINT('',(0.0002,0.0125,0.0125));
#1016=CARTESIAN_POINT('',(0.0002,0.01625,0.0125));
#1017=CARTESIAN_POINT('',(0.00025,0.,0.0125));
#1018=CARTESIAN_POINT('',(0.00025,0.,0.0125));
#1019=CARTESIAN_POINT('',(0.00025,0.00375,0.0125));
#1020=CARTESIAN_POINT('',(0.00025,0.,0.0125));
#1021=CARTESIAN_POINT('',(0.0002,0.,0.0125));
#1022=CARTESIAN_POINT('',(0.0002,0.00375,0.0125));
#1023=CARTESIAN_POINT('',(0.00025,-0.0125,0.0125));
#1024=CARTESIAN_POINT('',(0.00025,-0.0125,0.0125));
#1025=CARTESIAN_POINT('',(0.00025,-0.00875,0.0125));
#1026=CARTESIAN_POINT('',(0.00025,-0.0125,0.0125));
#1027=CARTESIAN_POINT('',(0.0002,-0.0125,0.0125));
#1028=CARTESIAN_POINT('',(0.0002,-0.00875,0.0125));
#1029=CARTESIAN_POINT('',(0.00025,-0.025,0.0125));
#1030=CARTESIAN_POINT('',(0.00025,-0.025,0.0125));
#1031=CARTESIAN_POINT('',(0.00025,-0.02125,0.0125));
#1032=CARTESIAN_POINT('',(0.00025,-0.025,0.0125));
#1033=CARTESIAN_POINT('',(0.0002,-0.025,0.0125));
#1034=CARTESIAN_POINT('',(0.0002,-0.02125,0.0125));
#1035=CARTESIAN_POINT('',(0.00025,-0.0375,0.0125));
#1036=CARTESIAN_POINT('',(0.00025,-0.0375,0.0125));
#1037=CARTESIAN_POINT('',(0.00025,-0.03375,0.0125));
#1038=CARTESIAN_POINT('',(0.00025,-0.0375,0.0125));
#1039=CARTESIAN_POINT('',(0.0002,-0.0375,0.0125));
#1040=CARTESIAN_POINT('',(0.0002,-0.03375,0.0125));
#1041=CARTESIAN_POINT('',(0.,0.,0.));
#1042=CARTESIAN_POINT('',(0.,-0.05,0.025));
#1043=CARTESIAN_POINT('',(0.,-0.05,0.025));
#1044=CARTESIAN_POINT('',(0.,-0.05,-0.025));
#1045=CARTESIAN_POINT('',(0.,0.05,0.025));
#1046=CARTESIAN_POINT('',(0.,0.05,0.025));
#1047=CARTESIAN_POINT('',(0.,0.05,-0.025));
#1048=CARTESIAN_POINT('',(0.,0.05,-0.025));
#1049=CARTESIAN_POINT('',(0.,-0.05,-0.025));
#1050=CARTESIAN_POINT('',(0.0002,0.,0.));
#1051=CARTESIAN_POINT('',(0.0002,-0.05,0.025));
#1052=CARTESIAN_POINT('',(0.0002,-0.05,0.025));
#1053=CARTESIAN_POINT('',(0.0002,-0.05,-0.025));
#1054=CARTESIAN_POINT('',(0.0002,-0.05,-0.025));
#1055=CARTESIAN_POINT('',(0.0002,0.05,-0.025));
#1056=CARTESIAN_POINT('',(0.0002,0.05,-0.025));
#1057=CARTESIAN_POINT('',(0.0002,0.05,0.025));
#1058=CARTESIAN_POINT('',(0.0002,0.05,0.025));
#1059=CARTESIAN_POINT('',(0.0002,0.05,0.025));
#1060=CARTESIAN_POINT('',(0.0002,-0.05,0.025));
#1061=CARTESIAN_POINT('',(0.0002,0.05,0.025));
#1062=CARTESIAN_POINT('',(0.0002,0.05,-0.025));
#1063=CARTESIAN_POINT('',(0.0002,0.05,-0.025));
#1064=CARTESIAN_POINT('',(0.0002,-0.05,-0.025));
#1065=CARTESIAN_POINT('',(0.0002,-0.05,-0.025));
#1066=CARTESIAN_POINT('',(0.0002,-0.05,0.025));
#1067=MECHANICAL_DESIGN_GEOMETRIC_PRESENTATION_REPRESENTATION('',(#582,
#44,#45,#46,#47,#48,#49),#1068);
#1068=(
GEOMETRIC_REPRESENTATION_CONTEXT(3)
GLOBAL_UNCERTAINTY_ASSIGNED_CONTEXT((#1069))
GLOBAL_UNIT_ASSIGNED_CONTEXT((#1072,#1071,#1070))
REPRESENTATION_CONTEXT('back_pattern_100x50','TOP_LEVEL_ASSEMBLY_PART')
);
#1069=UNCERTAINTY_MEASURE_WITH_UNIT(LENGTH_MEASURE(5.E-6),#1072,
'DISTANCE_ACCURACY_VALUE','Maximum Tolerance applied to model');
#1070=(
NAMED_UNIT(*)
SI_UNIT($,.STERADIAN.)
SOLID_ANGLE_UNIT()
);
#1071=(
NAMED_UNIT(*)
PLANE_ANGLE_UNIT()
SI_UNIT($,.RADIAN.)
);
#1072=(
LENGTH_UNIT()
NAMED_UNIT(*)
SI_UNIT($,.METRE.)
);
#1073=PRODUCT_DEFINITION_SHAPE('','',#1074);
#1074=PRODUCT_DEFINITION('','',#1076,#1075);
#1075=PRODUCT_DEFINITION_CONTEXT('',#1082,'design');
#1076=PRODUCT_DEFINITION_FORMATION_WITH_SPECIFIED_SOURCE('','',#1078,
 .NOT_KNOWN.);
#1077=PRODUCT_RELATED_PRODUCT_CATEGORY('','',(#1078));
#1078=PRODUCT('back_pattern_100x50','back_pattern_100x50',
'back_pattern_100x50',(#1080));
#1079=PRODUCT_CATEGORY('','');
#1080=PRODUCT_CONTEXT('',#1082,'mechanical');
#1081=APPLICATION_PROTOCOL_DEFINITION('international standard',
'automotive_design',2010,#1082);
#1082=APPLICATION_CONTEXT(
'core data for automotive mechanical design processes');
ENDSEC;
END-ISO-10303-21;
