ISO-10303-21;
HEADER;
/* Generated by software containing ST-Developer
 * from STEP Tools, Inc. (www.steptools.com) 
 */
/* OPTION: using custom renumber hook */

FILE_DESCRIPTION(
/* description */ ('STEP AP214'),
/* implementation_level */ '2;1');

FILE_NAME(
/* name */ '654cf5937f9aa566be172202',
/* time_stamp */ '2023-11-09T15:07:00Z',
/* author */ (''),
/* organization */ (''),
/* preprocessor_version */ 'ST-DEVELOPER v19.4',
/* originating_system */ '  ',
/* authorisation */ '  ');

FILE_SCHEMA (('AUTOMOTIVE_DESIGN {1 0 10303 214 3 1 1}'));
ENDSEC;

DATA;
#10=PROPERTY_DEFINITION_REPRESENTATION(#14,#12);
#11=PROPERTY_DEFINITION_REPRESENTATION(#15,#13);
#12=REPRESENTATION('',(#16),#293);
#13=REPRESENTATION('',(#17),#293);
#14=PROPERTY_DEFINITION('pmi validation property','',#298);
#15=PROPERTY_DEFINITION('pmi validation property','',#298);
#16=VALUE_REPRESENTATION_ITEM('number of annotations',COUNT_MEASURE(0.));
#17=VALUE_REPRESENTATION_ITEM('number of views',COUNT_MEASURE(0.));
#18=SHAPE_REPRESENTATION_RELATIONSHIP('','',#185,#19);
#19=ADVANCED_BREP_SHAPE_REPRESENTATION('',(#183),#293);
#20=LINE('',#267,#32);
#21=LINE('',#270,#33);
#22=LINE('',#272,#34);
#23=LINE('',#274,#35);
#24=LINE('',#276,#36);
#25=LINE('',#279,#37);
#26=LINE('',#281,#38);
#27=LINE('',#283,#39);
#28=LINE('',#285,#40);
#29=LINE('',#286,#41);
#30=LINE('',#288,#42);
#31=LINE('',#290,#43);
#32=VECTOR('',#227,1.);
#33=VECTOR('',#228,1.);
#34=VECTOR('',#229,1.);
#35=VECTOR('',#230,1.);
#36=VECTOR('',#233,1.);
#37=VECTOR('',#234,1.);
#38=VECTOR('',#235,1.);
#39=VECTOR('',#236,1.);
#40=VECTOR('',#239,1.);
#41=VECTOR('',#240,1.);
#42=VECTOR('',#243,1.);
#43=VECTOR('',#246,1.);
#44=PLANE('',#197);
#45=PLANE('',#198);
#46=PLANE('',#199);
#47=PLANE('',#200);
#48=PLANE('',#201);
#49=PLANE('',#202);
#50=CYLINDRICAL_SURFACE('',#190,0.0015);
#51=CYLINDRICAL_SURFACE('',#195,0.0015);
#52=ORIENTED_EDGE('',*,*,#88,.F.);
#53=ORIENTED_EDGE('',*,*,#89,.F.);
#54=ORIENTED_EDGE('',*,*,#90,.T.);
#55=ORIENTED_EDGE('',*,*,#89,.T.);
#56=ORIENTED_EDGE('',*,*,#91,.F.);
#57=ORIENTED_EDGE('',*,*,#92,.F.);
#58=ORIENTED_EDGE('',*,*,#93,.T.);
#59=ORIENTED_EDGE('',*,*,#92,.T.);
#60=ORIENTED_EDGE('',*,*,#93,.F.);
#61=ORIENTED_EDGE('',*,*,#90,.F.);
#62=ORIENTED_EDGE('',*,*,#94,.T.);
#63=ORIENTED_EDGE('',*,*,#95,.T.);
#64=ORIENTED_EDGE('',*,*,#96,.T.);
#65=ORIENTED_EDGE('',*,*,#97,.T.);
#66=ORIENTED_EDGE('',*,*,#91,.T.);
#67=ORIENTED_EDGE('',*,*,#88,.T.);
#68=ORIENTED_EDGE('',*,*,#98,.F.);
#69=ORIENTED_EDGE('',*,*,#99,.F.);
#70=ORIENTED_EDGE('',*,*,#100,.F.);
#71=ORIENTED_EDGE('',*,*,#101,.F.);
#72=ORIENTED_EDGE('',*,*,#97,.F.);
#73=ORIENTED_EDGE('',*,*,#102,.F.);
#74=ORIENTED_EDGE('',*,*,#99,.T.);
#75=ORIENTED_EDGE('',*,*,#103,.T.);
#76=ORIENTED_EDGE('',*,*,#96,.F.);
#77=ORIENTED_EDGE('',*,*,#104,.F.);
#78=ORIENTED_EDGE('',*,*,#100,.T.);
#79=ORIENTED_EDGE('',*,*,#102,.T.);
#80=ORIENTED_EDGE('',*,*,#95,.F.);
#81=ORIENTED_EDGE('',*,*,#105,.F.);
#82=ORIENTED_EDGE('',*,*,#101,.T.);
#83=ORIENTED_EDGE('',*,*,#104,.T.);
#84=ORIENTED_EDGE('',*,*,#94,.F.);
#85=ORIENTED_EDGE('',*,*,#103,.F.);
#86=ORIENTED_EDGE('',*,*,#98,.T.);
#87=ORIENTED_EDGE('',*,*,#105,.T.);
#88=EDGE_CURVE('',#106,#106,#120,.T.);
#89=EDGE_CURVE('',#107,#107,#121,.T.);
#90=EDGE_CURVE('',#108,#108,#122,.T.);
#91=EDGE_CURVE('',#109,#109,#123,.T.);
#92=EDGE_CURVE('',#110,#110,#124,.T.);
#93=EDGE_CURVE('',#111,#111,#125,.T.);
#94=EDGE_CURVE('',#112,#113,#20,.T.);
#95=EDGE_CURVE('',#113,#114,#21,.T.);
#96=EDGE_CURVE('',#114,#115,#22,.T.);
#97=EDGE_CURVE('',#115,#112,#23,.T.);
#98=EDGE_CURVE('',#116,#117,#24,.T.);
#99=EDGE_CURVE('',#118,#116,#25,.T.);
#100=EDGE_CURVE('',#119,#118,#26,.T.);
#101=EDGE_CURVE('',#117,#119,#27,.T.);
#102=EDGE_CURVE('',#118,#115,#28,.T.);
#103=EDGE_CURVE('',#116,#112,#29,.T.);
#104=EDGE_CURVE('',#119,#114,#30,.T.);
#105=EDGE_CURVE('',#117,#113,#31,.T.);
#106=VERTEX_POINT('',#252);
#107=VERTEX_POINT('',#254);
#108=VERTEX_POINT('',#257);
#109=VERTEX_POINT('',#260);
#110=VERTEX_POINT('',#262);
#111=VERTEX_POINT('',#265);
#112=VERTEX_POINT('',#268);
#113=VERTEX_POINT('',#269);
#114=VERTEX_POINT('',#271);
#115=VERTEX_POINT('',#273);
#116=VERTEX_POINT('',#277);
#117=VERTEX_POINT('',#278);
#118=VERTEX_POINT('',#280);
#119=VERTEX_POINT('',#282);
#120=CIRCLE('',#188,0.003);
#121=CIRCLE('',#189,0.0015);
#122=CIRCLE('',#191,0.0015);
#123=CIRCLE('',#193,0.003);
#124=CIRCLE('',#194,0.0015);
#125=CIRCLE('',#196,0.0015);
#126=EDGE_LOOP('',(#52));
#127=EDGE_LOOP('',(#53));
#128=EDGE_LOOP('',(#54));
#129=EDGE_LOOP('',(#55));
#130=EDGE_LOOP('',(#56));
#131=EDGE_LOOP('',(#57));
#132=EDGE_LOOP('',(#58));
#133=EDGE_LOOP('',(#59));
#134=EDGE_LOOP('',(#60));
#135=EDGE_LOOP('',(#61));
#136=EDGE_LOOP('',(#62,#63,#64,#65));
#137=EDGE_LOOP('',(#66));
#138=EDGE_LOOP('',(#67));
#139=EDGE_LOOP('',(#68,#69,#70,#71));
#140=EDGE_LOOP('',(#72,#73,#74,#75));
#141=EDGE_LOOP('',(#76,#77,#78,#79));
#142=EDGE_LOOP('',(#80,#81,#82,#83));
#143=EDGE_LOOP('',(#84,#85,#86,#87));
#144=FACE_BOUND('',#126,.T.);
#145=FACE_BOUND('',#127,.T.);
#146=FACE_BOUND('',#128,.T.);
#147=FACE_BOUND('',#129,.T.);
#148=FACE_BOUND('',#130,.T.);
#149=FACE_BOUND('',#131,.T.);
#150=FACE_BOUND('',#132,.T.);
#151=FACE_BOUND('',#133,.T.);
#152=FACE_BOUND('',#134,.T.);
#153=FACE_BOUND('',#135,.T.);
#154=FACE_BOUND('',#136,.T.);
#155=FACE_BOUND('',#137,.T.);
#156=FACE_BOUND('',#138,.T.);
#157=FACE_BOUND('',#139,.T.);
#158=FACE_BOUND('',#140,.T.);
#159=FACE_BOUND('',#141,.T.);
#160=FACE_BOUND('',#142,.T.);
#161=FACE_BOUND('',#143,.T.);
#162=CONICAL_SURFACE('',#187,0.003,0.785398163397448);
#163=CONICAL_SURFACE('',#192,0.003,0.785398163397448);
#164=ADVANCED_FACE('',(#144,#145),#162,.F.);
#165=ADVANCED_FACE('',(#146,#147),#50,.F.);
#166=ADVANCED_FACE('',(#148,#149),#163,.F.);
#167=ADVANCED_FACE('',(#150,#151),#51,.F.);
#168=ADVANCED_FACE('',(#152,#153,#154),#44,.T.);
#169=ADVANCED_FACE('',(#155,#156,#157),#45,.F.);
#170=ADVANCED_FACE('',(#158),#46,.T.);
#171=ADVANCED_FACE('',(#159),#47,.T.);
#172=ADVANCED_FACE('',(#160),#48,.T.);
#173=ADVANCED_FACE('',(#161),#49,.T.);
#174=CLOSED_SHELL('',(#164,#165,#166,#167,#168,#169,#170,#171,#172,#173));
#175=STYLED_ITEM('',(#176),#183);
#176=PRESENTATION_STYLE_ASSIGNMENT((#177));
#177=SURFACE_STYLE_USAGE(.BOTH.,#178);
#178=SURFACE_SIDE_STYLE('',(#179));
#179=SURFACE_STYLE_FILL_AREA(#180);
#180=FILL_AREA_STYLE('',(#181));
#181=FILL_AREA_STYLE_COLOUR('',#182);
#182=COLOUR_RGB('',0.596078431372549,0.666666666666667,0.686274509803922);
#183=MANIFOLD_SOLID_BREP('backpattern_plate',#174);
#184=SHAPE_DEFINITION_REPRESENTATION(#298,#185);
#185=SHAPE_REPRESENTATION('backpattern_plate',(#186),#293);
#186=AXIS2_PLACEMENT_3D('',#249,#203,#204);
#187=AXIS2_PLACEMENT_3D('',#250,#205,#206);
#188=AXIS2_PLACEMENT_3D('',#251,#207,#208);
#189=AXIS2_PLACEMENT_3D('',#253,#209,#210);
#190=AXIS2_PLACEMENT_3D('',#255,#211,#212);
#191=AXIS2_PLACEMENT_3D('',#256,#213,#214);
#192=AXIS2_PLACEMENT_3D('',#258,#215,#216);
#193=AXIS2_PLACEMENT_3D('',#259,#217,#218);
#194=AXIS2_PLACEMENT_3D('',#261,#219,#220);
#195=AXIS2_PLACEMENT_3D('',#263,#221,#222);
#196=AXIS2_PLACEMENT_3D('',#264,#223,#224);
#197=AXIS2_PLACEMENT_3D('',#266,#225,#226);
#198=AXIS2_PLACEMENT_3D('',#275,#231,#232);
#199=AXIS2_PLACEMENT_3D('',#284,#237,#238);
#200=AXIS2_PLACEMENT_3D('',#287,#241,#242);
#201=AXIS2_PLACEMENT_3D('',#289,#244,#245);
#202=AXIS2_PLACEMENT_3D('',#291,#247,#248);
#203=DIRECTION('',(0.,0.,1.));
#204=DIRECTION('',(1.,0.,0.));
#205=DIRECTION('',(0.,0.,1.));
#206=DIRECTION('',(1.,0.,0.));
#207=DIRECTION('',(0.,0.,-1.));
#208=DIRECTION('',(-1.,0.,0.));
#209=DIRECTION('',(0.,0.,1.));
#210=DIRECTION('',(-1.,0.,0.));
#211=DIRECTION('',(0.,0.,-1.));
#212=DIRECTION('',(-1.,0.,0.));
#213=DIRECTION('',(0.,0.,-1.));
#214=DIRECTION('',(-1.,0.,0.));
#215=DIRECTION('',(0.,0.,1.));
#216=DIRECTION('',(1.,0.,0.));
#217=DIRECTION('',(0.,0.,-1.));
#218=DIRECTION('',(-1.,0.,0.));
#219=DIRECTION('',(0.,0.,1.));
#220=DIRECTION('',(-1.,0.,0.));
#221=DIRECTION('',(0.,0.,-1.));
#222=DIRECTION('',(-1.,0.,0.));
#223=DIRECTION('',(0.,0.,-1.));
#224=DIRECTION('',(-1.,0.,0.));
#225=DIRECTION('',(0.,0.,-1.));
#226=DIRECTION('',(-1.,0.,0.));
#227=DIRECTION('',(1.,1.38777878078145E-16,0.));
#228=DIRECTION('',(0.,-1.,0.));
#229=DIRECTION('',(-1.,0.,0.));
#230=DIRECTION('',(0.,1.,0.));
#231=DIRECTION('',(0.,0.,-1.));
#232=DIRECTION('',(-1.,0.,0.));
#233=DIRECTION('',(1.,1.38777878078145E-16,0.));
#234=DIRECTION('',(0.,1.,0.));
#235=DIRECTION('',(-1.,0.,0.));
#236=DIRECTION('',(0.,-1.,0.));
#237=DIRECTION('',(-1.,0.,0.));
#238=DIRECTION('',(0.,0.,1.));
#239=DIRECTION('',(0.,0.,-1.));
#240=DIRECTION('',(0.,0.,-1.));
#241=DIRECTION('',(0.,-1.,0.));
#242=DIRECTION('',(0.,0.,-1.));
#243=DIRECTION('',(0.,0.,-1.));
#244=DIRECTION('',(1.,0.,0.));
#245=DIRECTION('',(0.,0.,-1.));
#246=DIRECTION('',(0.,0.,-1.));
#247=DIRECTION('',(-1.38777878078145E-16,1.,0.));
#248=DIRECTION('',(-1.,-1.38777878078145E-16,0.));
#249=CARTESIAN_POINT('',(0.,0.,0.));
#250=CARTESIAN_POINT('',(0.05625,0.022,0.003));
#251=CARTESIAN_POINT('',(0.05625,0.022,0.003));
#252=CARTESIAN_POINT('',(0.05325,0.022,0.003));
#253=CARTESIAN_POINT('',(0.05625,0.022,0.0015));
#254=CARTESIAN_POINT('',(0.05475,0.022,0.0015));
#255=CARTESIAN_POINT('',(0.05625,0.022,0.));
#256=CARTESIAN_POINT('',(0.05625,0.022,0.));
#257=CARTESIAN_POINT('',(0.05475,0.022,0.));
#258=CARTESIAN_POINT('',(0.05625,0.0345,0.003));
#259=CARTESIAN_POINT('',(0.05625,0.0345,0.003));
#260=CARTESIAN_POINT('',(0.05325,0.0345,0.003));
#261=CARTESIAN_POINT('',(0.05625,0.0345,0.0015));
#262=CARTESIAN_POINT('',(0.05475,0.0345,0.0015));
#263=CARTESIAN_POINT('',(0.05625,0.0345,0.));
#264=CARTESIAN_POINT('',(0.05625,0.0345,0.));
#265=CARTESIAN_POINT('',(0.05475,0.0345,0.));
#266=CARTESIAN_POINT('',(0.,0.,0.));
#267=CARTESIAN_POINT('',(0.,0.05,0.));
#268=CARTESIAN_POINT('',(0.,0.05,0.));
#269=CARTESIAN_POINT('',(0.1,0.05,0.));
#270=CARTESIAN_POINT('',(0.1,0.05,0.));
#271=CARTESIAN_POINT('',(0.1,0.,0.));
#272=CARTESIAN_POINT('',(0.1,0.,0.));
#273=CARTESIAN_POINT('',(0.,0.,0.));
#274=CARTESIAN_POINT('',(0.,0.,0.));
#275=CARTESIAN_POINT('',(0.,0.,0.003));
#276=CARTESIAN_POINT('',(0.,0.05,0.003));
#277=CARTESIAN_POINT('',(0.,0.05,0.003));
#278=CARTESIAN_POINT('',(0.1,0.05,0.003));
#279=CARTESIAN_POINT('',(0.,0.,0.003));
#280=CARTESIAN_POINT('',(0.,0.,0.003));
#281=CARTESIAN_POINT('',(0.1,0.,0.003));
#282=CARTESIAN_POINT('',(0.1,0.,0.003));
#283=CARTESIAN_POINT('',(0.1,0.05,0.003));
#284=CARTESIAN_POINT('',(0.,0.,0.003));
#285=CARTESIAN_POINT('',(0.,0.,0.003));
#286=CARTESIAN_POINT('',(0.,0.05,0.003));
#287=CARTESIAN_POINT('',(0.1,0.,0.003));
#288=CARTESIAN_POINT('',(0.1,0.,0.003));
#289=CARTESIAN_POINT('',(0.1,0.05,0.003));
#290=CARTESIAN_POINT('',(0.1,0.05,0.003));
#291=CARTESIAN_POINT('',(0.,0.05,0.003));
#292=MECHANICAL_DESIGN_GEOMETRIC_PRESENTATION_REPRESENTATION('',(#175),
#293);
#293=(
GEOMETRIC_REPRESENTATION_CONTEXT(3)
GLOBAL_UNCERTAINTY_ASSIGNED_CONTEXT((#294))
GLOBAL_UNIT_ASSIGNED_CONTEXT((#297,#296,#295))
REPRESENTATION_CONTEXT('backpattern_plate','TOP_LEVEL_ASSEMBLY_PART')
);
#294=UNCERTAINTY_MEASURE_WITH_UNIT(LENGTH_MEASURE(5.E-6),#297,
'DISTANCE_ACCURACY_VALUE','Maximum Tolerance applied to model');
#295=(
NAMED_UNIT(*)
SI_UNIT($,.STERADIAN.)
SOLID_ANGLE_UNIT()
);
#296=(
NAMED_UNIT(*)
PLANE_ANGLE_UNIT()
SI_UNIT($,.RADIAN.)
);
#297=(
LENGTH_UNIT()
NAMED_UNIT(*)
SI_UNIT($,.METRE.)
);
#298=PRODUCT_DEFINITION_SHAPE('','',#299);
#299=PRODUCT_DEFINITION('','',#301,#300);
#300=PRODUCT_DEFINITION_CONTEXT('',#307,'design');
#301=PRODUCT_DEFINITION_FORMATION_WITH_SPECIFIED_SOURCE('','',#303,
 .NOT_KNOWN.);
#302=PRODUCT_RELATED_PRODUCT_CATEGORY('','',(#303));
#303=PRODUCT('backpattern_plate','backpattern_plate',
'backpattern_plate',(#305));
#304=PRODUCT_CATEGORY('','');
#305=PRODUCT_CONTEXT('',#307,'mechanical');
#306=APPLICATION_PROTOCOL_DEFINITION('international standard',
'automotive_design',2010,#307);
#307=APPLICATION_CONTEXT(
'core data for automotive mechanical design processes');
ENDSEC;
END-ISO-10303-21;
