ISO-10303-21;
HEADER;
/* Generated by software containing ST-Developer
 * from STEP Tools, Inc. (www.steptools.com) 
 */
/* OPTION: using custom renumber hook */

FILE_DESCRIPTION(
/* description */ ('STEP AP214'),
/* implementation_level */ '2;1');

FILE_NAME(
/* name */ '654cf5cd7f9aa566be17239a',
/* time_stamp */ '2023-11-09T15:07:58Z',
/* author */ (''),
/* organization */ (''),
/* preprocessor_version */ 'ST-DEVELOPER v19.4',
/* originating_system */ '  ',
/* authorisation */ '  ');

FILE_SCHEMA (('AUTOMOTIVE_DESIGN {1 0 10303 214 3 1 1}'));
ENDSEC;

DATA;
#10=PROPERTY_DEFINITION_REPRESENTATION(#14,#12);
#11=PROPERTY_DEFINITION_REPRESENTATION(#15,#13);
#12=REPRESENTATION('',(#16),#1309);
#13=REPRESENTATION('',(#17),#1309);
#14=PROPERTY_DEFINITION('pmi validation property','',#1314);
#15=PROPERTY_DEFINITION('pmi validation property','',#1314);
#16=VALUE_REPRESENTATION_ITEM('number of annotations',COUNT_MEASURE(0.));
#17=VALUE_REPRESENTATION_ITEM('number of views',COUNT_MEASURE(0.));
#18=SHAPE_REPRESENTATION_RELATIONSHIP('','',#791,#19);
#19=ADVANCED_BREP_SHAPE_REPRESENTATION('',(#789),#1309);
#20=PLANE('',#811);
#21=PLANE('',#812);
#22=PLANE('',#813);
#23=PLANE('',#814);
#24=PLANE('',#815);
#25=PLANE('',#816);
#26=PLANE('',#817);
#27=PLANE('',#818);
#28=PLANE('',#819);
#29=PLANE('',#820);
#30=PLANE('',#821);
#31=PLANE('',#822);
#32=PLANE('',#823);
#33=PLANE('',#824);
#34=PLANE('',#825);
#35=PLANE('',#826);
#36=PLANE('',#827);
#37=PLANE('',#852);
#38=PLANE('',#853);
#39=PLANE('',#854);
#40=PLANE('',#855);
#41=PLANE('',#856);
#42=PLANE('',#857);
#43=PLANE('',#858);
#44=PLANE('',#859);
#45=PLANE('',#860);
#46=PLANE('',#861);
#47=PLANE('',#862);
#48=LINE('',#1090,#128);
#49=LINE('',#1094,#129);
#50=LINE('',#1099,#130);
#51=LINE('',#1103,#131);
#52=LINE('',#1108,#132);
#53=LINE('',#1112,#133);
#54=LINE('',#1117,#134);
#55=LINE('',#1121,#135);
#56=LINE('',#1126,#136);
#57=LINE('',#1130,#137);
#58=LINE('',#1135,#138);
#59=LINE('',#1139,#139);
#60=LINE('',#1141,#140);
#61=LINE('',#1142,#141);
#62=LINE('',#1144,#142);
#63=LINE('',#1145,#143);
#64=LINE('',#1147,#144);
#65=LINE('',#1150,#145);
#66=LINE('',#1152,#146);
#67=LINE('',#1154,#147);
#68=LINE('',#1156,#148);
#69=LINE('',#1159,#149);
#70=LINE('',#1160,#150);
#71=LINE('',#1162,#151);
#72=LINE('',#1164,#152);
#73=LINE('',#1166,#153);
#74=LINE('',#1168,#154);
#75=LINE('',#1170,#155);
#76=LINE('',#1172,#156);
#77=LINE('',#1173,#157);
#78=LINE('',#1174,#158);
#79=LINE('',#1175,#159);
#80=LINE('',#1177,#160);
#81=LINE('',#1179,#161);
#82=LINE('',#1181,#162);
#83=LINE('',#1183,#163);
#84=LINE('',#1185,#164);
#85=LINE('',#1188,#165);
#86=LINE('',#1190,#166);
#87=LINE('',#1192,#167);
#88=LINE('',#1194,#168);
#89=LINE('',#1197,#169);
#90=LINE('',#1198,#170);
#91=LINE('',#1200,#171);
#92=LINE('',#1202,#172);
#93=LINE('',#1204,#173);
#94=LINE('',#1206,#174);
#95=LINE('',#1208,#175);
#96=LINE('',#1213,#176);
#97=LINE('',#1217,#177);
#98=LINE('',#1222,#178);
#99=LINE('',#1226,#179);
#100=LINE('',#1231,#180);
#101=LINE('',#1235,#181);
#102=LINE('',#1240,#182);
#103=LINE('',#1244,#183);
#104=LINE('',#1249,#184);
#105=LINE('',#1253,#185);
#106=LINE('',#1258,#186);
#107=LINE('',#1262,#187);
#108=LINE('',#1267,#188);
#109=LINE('',#1271,#189);
#110=LINE('',#1276,#190);
#111=LINE('',#1280,#191);
#112=LINE('',#1282,#192);
#113=LINE('',#1283,#193);
#114=LINE('',#1285,#194);
#115=LINE('',#1286,#195);
#116=LINE('',#1288,#196);
#117=LINE('',#1289,#197);
#118=LINE('',#1291,#198);
#119=LINE('',#1292,#199);
#120=LINE('',#1294,#200);
#121=LINE('',#1295,#201);
#122=LINE('',#1297,#202);
#123=LINE('',#1298,#203);
#124=LINE('',#1300,#204);
#125=LINE('',#1301,#205);
#126=LINE('',#1303,#206);
#127=LINE('',#1305,#207);
#128=VECTOR('',#869,1.);
#129=VECTOR('',#872,1.);
#130=VECTOR('',#877,1.);
#131=VECTOR('',#880,1.);
#132=VECTOR('',#885,1.);
#133=VECTOR('',#888,1.);
#134=VECTOR('',#893,1.);
#135=VECTOR('',#896,1.);
#136=VECTOR('',#901,1.);
#137=VECTOR('',#904,1.);
#138=VECTOR('',#909,1.);
#139=VECTOR('',#912,1.);
#140=VECTOR('',#915,1.);
#141=VECTOR('',#916,1.);
#142=VECTOR('',#919,1.);
#143=VECTOR('',#920,1.);
#144=VECTOR('',#923,1.);
#145=VECTOR('',#924,1.);
#146=VECTOR('',#925,1.);
#147=VECTOR('',#926,1.);
#148=VECTOR('',#929,1.);
#149=VECTOR('',#930,1.);
#150=VECTOR('',#931,1.);
#151=VECTOR('',#934,1.);
#152=VECTOR('',#935,1.);
#153=VECTOR('',#938,1.);
#154=VECTOR('',#939,1.);
#155=VECTOR('',#942,1.);
#156=VECTOR('',#945,1.);
#157=VECTOR('',#946,1.);
#158=VECTOR('',#947,1.);
#159=VECTOR('',#948,1.);
#160=VECTOR('',#951,1.);
#161=VECTOR('',#954,1.);
#162=VECTOR('',#957,1.);
#163=VECTOR('',#960,1.);
#164=VECTOR('',#963,1.);
#165=VECTOR('',#964,1.);
#166=VECTOR('',#965,1.);
#167=VECTOR('',#966,1.);
#168=VECTOR('',#969,1.);
#169=VECTOR('',#970,1.);
#170=VECTOR('',#971,1.);
#171=VECTOR('',#974,1.);
#172=VECTOR('',#975,1.);
#173=VECTOR('',#978,1.);
#174=VECTOR('',#979,1.);
#175=VECTOR('',#982,1.);
#176=VECTOR('',#987,1.);
#177=VECTOR('',#990,1.);
#178=VECTOR('',#995,1.);
#179=VECTOR('',#998,1.);
#180=VECTOR('',#1003,1.);
#181=VECTOR('',#1006,1.);
#182=VECTOR('',#1011,1.);
#183=VECTOR('',#1014,1.);
#184=VECTOR('',#1019,1.);
#185=VECTOR('',#1022,1.);
#186=VECTOR('',#1027,1.);
#187=VECTOR('',#1030,1.);
#188=VECTOR('',#1035,1.);
#189=VECTOR('',#1038,1.);
#190=VECTOR('',#1043,1.);
#191=VECTOR('',#1046,1.);
#192=VECTOR('',#1049,1.);
#193=VECTOR('',#1050,1.);
#194=VECTOR('',#1053,1.);
#195=VECTOR('',#1054,1.);
#196=VECTOR('',#1057,1.);
#197=VECTOR('',#1058,1.);
#198=VECTOR('',#1061,1.);
#199=VECTOR('',#1062,1.);
#200=VECTOR('',#1065,1.);
#201=VECTOR('',#1066,1.);
#202=VECTOR('',#1069,1.);
#203=VECTOR('',#1070,1.);
#204=VECTOR('',#1073,1.);
#205=VECTOR('',#1074,1.);
#206=VECTOR('',#1077,1.);
#207=VECTOR('',#1080,1.);
#208=ORIENTED_EDGE('',*,*,#424,.F.);
#209=ORIENTED_EDGE('',*,*,#425,.F.);
#210=ORIENTED_EDGE('',*,*,#426,.F.);
#211=ORIENTED_EDGE('',*,*,#427,.F.);
#212=ORIENTED_EDGE('',*,*,#428,.F.);
#213=ORIENTED_EDGE('',*,*,#429,.F.);
#214=ORIENTED_EDGE('',*,*,#430,.F.);
#215=ORIENTED_EDGE('',*,*,#431,.F.);
#216=ORIENTED_EDGE('',*,*,#432,.F.);
#217=ORIENTED_EDGE('',*,*,#433,.F.);
#218=ORIENTED_EDGE('',*,*,#434,.F.);
#219=ORIENTED_EDGE('',*,*,#435,.F.);
#220=ORIENTED_EDGE('',*,*,#436,.F.);
#221=ORIENTED_EDGE('',*,*,#437,.F.);
#222=ORIENTED_EDGE('',*,*,#438,.F.);
#223=ORIENTED_EDGE('',*,*,#439,.F.);
#224=ORIENTED_EDGE('',*,*,#440,.F.);
#225=ORIENTED_EDGE('',*,*,#441,.F.);
#226=ORIENTED_EDGE('',*,*,#442,.F.);
#227=ORIENTED_EDGE('',*,*,#443,.F.);
#228=ORIENTED_EDGE('',*,*,#444,.F.);
#229=ORIENTED_EDGE('',*,*,#445,.F.);
#230=ORIENTED_EDGE('',*,*,#446,.F.);
#231=ORIENTED_EDGE('',*,*,#447,.F.);
#232=ORIENTED_EDGE('',*,*,#448,.F.);
#233=ORIENTED_EDGE('',*,*,#433,.T.);
#234=ORIENTED_EDGE('',*,*,#449,.F.);
#235=ORIENTED_EDGE('',*,*,#429,.T.);
#236=ORIENTED_EDGE('',*,*,#450,.F.);
#237=ORIENTED_EDGE('',*,*,#441,.T.);
#238=ORIENTED_EDGE('',*,*,#451,.F.);
#239=ORIENTED_EDGE('',*,*,#437,.T.);
#240=ORIENTED_EDGE('',*,*,#452,.T.);
#241=ORIENTED_EDGE('',*,*,#453,.T.);
#242=ORIENTED_EDGE('',*,*,#454,.T.);
#243=ORIENTED_EDGE('',*,*,#455,.T.);
#244=ORIENTED_EDGE('',*,*,#456,.F.);
#245=ORIENTED_EDGE('',*,*,#457,.T.);
#246=ORIENTED_EDGE('',*,*,#453,.F.);
#247=ORIENTED_EDGE('',*,*,#458,.F.);
#248=ORIENTED_EDGE('',*,*,#459,.F.);
#249=ORIENTED_EDGE('',*,*,#460,.T.);
#250=ORIENTED_EDGE('',*,*,#454,.F.);
#251=ORIENTED_EDGE('',*,*,#457,.F.);
#252=ORIENTED_EDGE('',*,*,#461,.F.);
#253=ORIENTED_EDGE('',*,*,#462,.T.);
#254=ORIENTED_EDGE('',*,*,#455,.F.);
#255=ORIENTED_EDGE('',*,*,#460,.F.);
#256=ORIENTED_EDGE('',*,*,#463,.F.);
#257=ORIENTED_EDGE('',*,*,#458,.T.);
#258=ORIENTED_EDGE('',*,*,#452,.F.);
#259=ORIENTED_EDGE('',*,*,#462,.F.);
#260=ORIENTED_EDGE('',*,*,#464,.T.);
#261=ORIENTED_EDGE('',*,*,#446,.T.);
#262=ORIENTED_EDGE('',*,*,#465,.T.);
#263=ORIENTED_EDGE('',*,*,#442,.T.);
#264=ORIENTED_EDGE('',*,*,#450,.T.);
#265=ORIENTED_EDGE('',*,*,#436,.T.);
#266=ORIENTED_EDGE('',*,*,#466,.T.);
#267=ORIENTED_EDGE('',*,*,#434,.T.);
#268=ORIENTED_EDGE('',*,*,#448,.T.);
#269=ORIENTED_EDGE('',*,*,#428,.T.);
#270=ORIENTED_EDGE('',*,*,#467,.T.);
#271=ORIENTED_EDGE('',*,*,#426,.T.);
#272=ORIENTED_EDGE('',*,*,#468,.F.);
#273=ORIENTED_EDGE('',*,*,#447,.T.);
#274=ORIENTED_EDGE('',*,*,#464,.F.);
#275=ORIENTED_EDGE('',*,*,#425,.T.);
#276=ORIENTED_EDGE('',*,*,#465,.F.);
#277=ORIENTED_EDGE('',*,*,#445,.T.);
#278=ORIENTED_EDGE('',*,*,#469,.F.);
#279=ORIENTED_EDGE('',*,*,#443,.T.);
#280=ORIENTED_EDGE('',*,*,#466,.F.);
#281=ORIENTED_EDGE('',*,*,#439,.T.);
#282=ORIENTED_EDGE('',*,*,#470,.F.);
#283=ORIENTED_EDGE('',*,*,#435,.T.);
#284=ORIENTED_EDGE('',*,*,#467,.F.);
#285=ORIENTED_EDGE('',*,*,#431,.T.);
#286=ORIENTED_EDGE('',*,*,#471,.F.);
#287=ORIENTED_EDGE('',*,*,#427,.T.);
#288=ORIENTED_EDGE('',*,*,#472,.T.);
#289=ORIENTED_EDGE('',*,*,#473,.T.);
#290=ORIENTED_EDGE('',*,*,#474,.T.);
#291=ORIENTED_EDGE('',*,*,#475,.T.);
#292=ORIENTED_EDGE('',*,*,#476,.F.);
#293=ORIENTED_EDGE('',*,*,#477,.T.);
#294=ORIENTED_EDGE('',*,*,#473,.F.);
#295=ORIENTED_EDGE('',*,*,#478,.F.);
#296=ORIENTED_EDGE('',*,*,#479,.F.);
#297=ORIENTED_EDGE('',*,*,#480,.T.);
#298=ORIENTED_EDGE('',*,*,#474,.F.);
#299=ORIENTED_EDGE('',*,*,#477,.F.);
#300=ORIENTED_EDGE('',*,*,#481,.F.);
#301=ORIENTED_EDGE('',*,*,#482,.T.);
#302=ORIENTED_EDGE('',*,*,#475,.F.);
#303=ORIENTED_EDGE('',*,*,#480,.F.);
#304=ORIENTED_EDGE('',*,*,#483,.F.);
#305=ORIENTED_EDGE('',*,*,#478,.T.);
#306=ORIENTED_EDGE('',*,*,#472,.F.);
#307=ORIENTED_EDGE('',*,*,#482,.F.);
#308=ORIENTED_EDGE('',*,*,#484,.F.);
#309=ORIENTED_EDGE('',*,*,#485,.F.);
#310=ORIENTED_EDGE('',*,*,#486,.F.);
#311=ORIENTED_EDGE('',*,*,#487,.F.);
#312=ORIENTED_EDGE('',*,*,#488,.F.);
#313=ORIENTED_EDGE('',*,*,#489,.F.);
#314=ORIENTED_EDGE('',*,*,#490,.F.);
#315=ORIENTED_EDGE('',*,*,#491,.F.);
#316=ORIENTED_EDGE('',*,*,#492,.F.);
#317=ORIENTED_EDGE('',*,*,#493,.F.);
#318=ORIENTED_EDGE('',*,*,#494,.F.);
#319=ORIENTED_EDGE('',*,*,#495,.F.);
#320=ORIENTED_EDGE('',*,*,#496,.F.);
#321=ORIENTED_EDGE('',*,*,#497,.F.);
#322=ORIENTED_EDGE('',*,*,#498,.F.);
#323=ORIENTED_EDGE('',*,*,#499,.F.);
#324=ORIENTED_EDGE('',*,*,#500,.F.);
#325=ORIENTED_EDGE('',*,*,#501,.F.);
#326=ORIENTED_EDGE('',*,*,#502,.F.);
#327=ORIENTED_EDGE('',*,*,#503,.F.);
#328=ORIENTED_EDGE('',*,*,#504,.F.);
#329=ORIENTED_EDGE('',*,*,#505,.F.);
#330=ORIENTED_EDGE('',*,*,#506,.F.);
#331=ORIENTED_EDGE('',*,*,#507,.F.);
#332=ORIENTED_EDGE('',*,*,#508,.F.);
#333=ORIENTED_EDGE('',*,*,#509,.F.);
#334=ORIENTED_EDGE('',*,*,#510,.F.);
#335=ORIENTED_EDGE('',*,*,#511,.F.);
#336=ORIENTED_EDGE('',*,*,#512,.F.);
#337=ORIENTED_EDGE('',*,*,#513,.F.);
#338=ORIENTED_EDGE('',*,*,#514,.F.);
#339=ORIENTED_EDGE('',*,*,#515,.F.);
#340=ORIENTED_EDGE('',*,*,#516,.T.);
#341=ORIENTED_EDGE('',*,*,#515,.T.);
#342=ORIENTED_EDGE('',*,*,#517,.F.);
#343=ORIENTED_EDGE('',*,*,#501,.T.);
#344=ORIENTED_EDGE('',*,*,#518,.T.);
#345=ORIENTED_EDGE('',*,*,#503,.T.);
#346=ORIENTED_EDGE('',*,*,#519,.F.);
#347=ORIENTED_EDGE('',*,*,#497,.T.);
#348=ORIENTED_EDGE('',*,*,#520,.F.);
#349=ORIENTED_EDGE('',*,*,#509,.T.);
#350=ORIENTED_EDGE('',*,*,#521,.T.);
#351=ORIENTED_EDGE('',*,*,#499,.T.);
#352=ORIENTED_EDGE('',*,*,#522,.F.);
#353=ORIENTED_EDGE('',*,*,#513,.T.);
#354=ORIENTED_EDGE('',*,*,#523,.T.);
#355=ORIENTED_EDGE('',*,*,#511,.T.);
#356=ORIENTED_EDGE('',*,*,#524,.F.);
#357=ORIENTED_EDGE('',*,*,#505,.T.);
#358=ORIENTED_EDGE('',*,*,#525,.F.);
#359=ORIENTED_EDGE('',*,*,#493,.T.);
#360=ORIENTED_EDGE('',*,*,#526,.T.);
#361=ORIENTED_EDGE('',*,*,#491,.T.);
#362=ORIENTED_EDGE('',*,*,#527,.T.);
#363=ORIENTED_EDGE('',*,*,#487,.T.);
#364=ORIENTED_EDGE('',*,*,#525,.T.);
#365=ORIENTED_EDGE('',*,*,#504,.T.);
#366=ORIENTED_EDGE('',*,*,#528,.F.);
#367=ORIENTED_EDGE('',*,*,#488,.T.);
#368=ORIENTED_EDGE('',*,*,#526,.F.);
#369=ORIENTED_EDGE('',*,*,#486,.T.);
#370=ORIENTED_EDGE('',*,*,#529,.T.);
#371=ORIENTED_EDGE('',*,*,#494,.T.);
#372=ORIENTED_EDGE('',*,*,#530,.T.);
#373=ORIENTED_EDGE('',*,*,#495,.T.);
#374=ORIENTED_EDGE('',*,*,#529,.F.);
#375=ORIENTED_EDGE('',*,*,#485,.T.);
#376=ORIENTED_EDGE('',*,*,#519,.T.);
#377=ORIENTED_EDGE('',*,*,#502,.T.);
#378=ORIENTED_EDGE('',*,*,#517,.T.);
#379=ORIENTED_EDGE('',*,*,#514,.T.);
#380=ORIENTED_EDGE('',*,*,#522,.T.);
#381=ORIENTED_EDGE('',*,*,#510,.T.);
#382=ORIENTED_EDGE('',*,*,#520,.T.);
#383=ORIENTED_EDGE('',*,*,#498,.T.);
#384=ORIENTED_EDGE('',*,*,#531,.T.);
#385=ORIENTED_EDGE('',*,*,#506,.T.);
#386=ORIENTED_EDGE('',*,*,#524,.T.);
#387=ORIENTED_EDGE('',*,*,#492,.T.);
#388=ORIENTED_EDGE('',*,*,#530,.F.);
#389=ORIENTED_EDGE('',*,*,#484,.T.);
#390=ORIENTED_EDGE('',*,*,#527,.F.);
#391=ORIENTED_EDGE('',*,*,#490,.T.);
#392=ORIENTED_EDGE('',*,*,#528,.T.);
#393=ORIENTED_EDGE('',*,*,#507,.T.);
#394=ORIENTED_EDGE('',*,*,#531,.F.);
#395=ORIENTED_EDGE('',*,*,#489,.T.);
#396=ORIENTED_EDGE('',*,*,#468,.T.);
#397=ORIENTED_EDGE('',*,*,#424,.T.);
#398=ORIENTED_EDGE('',*,*,#471,.T.);
#399=ORIENTED_EDGE('',*,*,#430,.T.);
#400=ORIENTED_EDGE('',*,*,#449,.T.);
#401=ORIENTED_EDGE('',*,*,#432,.T.);
#402=ORIENTED_EDGE('',*,*,#470,.T.);
#403=ORIENTED_EDGE('',*,*,#438,.T.);
#404=ORIENTED_EDGE('',*,*,#451,.T.);
#405=ORIENTED_EDGE('',*,*,#440,.T.);
#406=ORIENTED_EDGE('',*,*,#469,.T.);
#407=ORIENTED_EDGE('',*,*,#444,.T.);
#408=ORIENTED_EDGE('',*,*,#463,.T.);
#409=ORIENTED_EDGE('',*,*,#461,.T.);
#410=ORIENTED_EDGE('',*,*,#459,.T.);
#411=ORIENTED_EDGE('',*,*,#456,.T.);
#412=ORIENTED_EDGE('',*,*,#483,.T.);
#413=ORIENTED_EDGE('',*,*,#481,.T.);
#414=ORIENTED_EDGE('',*,*,#479,.T.);
#415=ORIENTED_EDGE('',*,*,#476,.T.);
#416=ORIENTED_EDGE('',*,*,#523,.F.);
#417=ORIENTED_EDGE('',*,*,#512,.T.);
#418=ORIENTED_EDGE('',*,*,#516,.F.);
#419=ORIENTED_EDGE('',*,*,#500,.T.);
#420=ORIENTED_EDGE('',*,*,#518,.F.);
#421=ORIENTED_EDGE('',*,*,#496,.T.);
#422=ORIENTED_EDGE('',*,*,#521,.F.);
#423=ORIENTED_EDGE('',*,*,#508,.T.);
#424=EDGE_CURVE('',#532,#533,#604,.T.);
#425=EDGE_CURVE('',#534,#532,#48,.T.);
#426=EDGE_CURVE('',#535,#534,#605,.T.);
#427=EDGE_CURVE('',#533,#535,#49,.T.);
#428=EDGE_CURVE('',#536,#537,#606,.T.);
#429=EDGE_CURVE('',#538,#536,#50,.T.);
#430=EDGE_CURVE('',#539,#538,#607,.T.);
#431=EDGE_CURVE('',#537,#539,#51,.T.);
#432=EDGE_CURVE('',#540,#541,#608,.T.);
#433=EDGE_CURVE('',#542,#540,#52,.T.);
#434=EDGE_CURVE('',#543,#542,#609,.T.);
#435=EDGE_CURVE('',#541,#543,#53,.T.);
#436=EDGE_CURVE('',#544,#545,#610,.T.);
#437=EDGE_CURVE('',#546,#544,#54,.T.);
#438=EDGE_CURVE('',#547,#546,#611,.T.);
#439=EDGE_CURVE('',#545,#547,#55,.T.);
#440=EDGE_CURVE('',#548,#549,#612,.T.);
#441=EDGE_CURVE('',#550,#548,#56,.T.);
#442=EDGE_CURVE('',#551,#550,#613,.T.);
#443=EDGE_CURVE('',#549,#551,#57,.T.);
#444=EDGE_CURVE('',#552,#553,#614,.T.);
#445=EDGE_CURVE('',#554,#552,#58,.T.);
#446=EDGE_CURVE('',#555,#554,#615,.T.);
#447=EDGE_CURVE('',#553,#555,#59,.T.);
#448=EDGE_CURVE('',#542,#536,#60,.T.);
#449=EDGE_CURVE('',#538,#540,#61,.T.);
#450=EDGE_CURVE('',#550,#544,#62,.T.);
#451=EDGE_CURVE('',#546,#548,#63,.T.);
#452=EDGE_CURVE('',#556,#557,#64,.T.);
#453=EDGE_CURVE('',#557,#558,#65,.T.);
#454=EDGE_CURVE('',#558,#559,#66,.T.);
#455=EDGE_CURVE('',#559,#556,#67,.T.);
#456=EDGE_CURVE('',#560,#561,#68,.T.);
#457=EDGE_CURVE('',#560,#558,#69,.T.);
#458=EDGE_CURVE('',#561,#557,#70,.T.);
#459=EDGE_CURVE('',#562,#560,#71,.T.);
#460=EDGE_CURVE('',#562,#559,#72,.T.);
#461=EDGE_CURVE('',#563,#562,#73,.T.);
#462=EDGE_CURVE('',#563,#556,#74,.T.);
#463=EDGE_CURVE('',#561,#563,#75,.T.);
#464=EDGE_CURVE('',#534,#555,#76,.T.);
#465=EDGE_CURVE('',#554,#551,#77,.T.);
#466=EDGE_CURVE('',#545,#543,#78,.T.);
#467=EDGE_CURVE('',#537,#535,#79,.T.);
#468=EDGE_CURVE('',#553,#532,#80,.T.);
#469=EDGE_CURVE('',#549,#552,#81,.T.);
#470=EDGE_CURVE('',#541,#547,#82,.T.);
#471=EDGE_CURVE('',#533,#539,#83,.T.);
#472=EDGE_CURVE('',#564,#565,#84,.T.);
#473=EDGE_CURVE('',#565,#566,#85,.T.);
#474=EDGE_CURVE('',#566,#567,#86,.T.);
#475=EDGE_CURVE('',#567,#564,#87,.T.);
#476=EDGE_CURVE('',#568,#569,#88,.T.);
#477=EDGE_CURVE('',#568,#566,#89,.T.);
#478=EDGE_CURVE('',#569,#565,#90,.T.);
#479=EDGE_CURVE('',#570,#568,#91,.T.);
#480=EDGE_CURVE('',#570,#567,#92,.T.);
#481=EDGE_CURVE('',#571,#570,#93,.T.);
#482=EDGE_CURVE('',#571,#564,#94,.T.);
#483=EDGE_CURVE('',#569,#571,#95,.T.);
#484=EDGE_CURVE('',#572,#573,#616,.T.);
#485=EDGE_CURVE('',#574,#572,#96,.T.);
#486=EDGE_CURVE('',#575,#574,#617,.T.);
#487=EDGE_CURVE('',#573,#575,#97,.T.);
#488=EDGE_CURVE('',#576,#577,#618,.T.);
#489=EDGE_CURVE('',#578,#576,#98,.T.);
#490=EDGE_CURVE('',#579,#578,#619,.T.);
#491=EDGE_CURVE('',#577,#579,#99,.T.);
#492=EDGE_CURVE('',#580,#581,#620,.T.);
#493=EDGE_CURVE('',#582,#580,#100,.T.);
#494=EDGE_CURVE('',#583,#582,#621,.T.);
#495=EDGE_CURVE('',#581,#583,#101,.T.);
#496=EDGE_CURVE('',#584,#585,#622,.T.);
#497=EDGE_CURVE('',#586,#584,#102,.T.);
#498=EDGE_CURVE('',#587,#586,#623,.T.);
#499=EDGE_CURVE('',#585,#587,#103,.T.);
#500=EDGE_CURVE('',#588,#589,#624,.T.);
#501=EDGE_CURVE('',#590,#588,#104,.T.);
#502=EDGE_CURVE('',#591,#590,#625,.T.);
#503=EDGE_CURVE('',#589,#591,#105,.T.);
#504=EDGE_CURVE('',#592,#593,#626,.T.);
#505=EDGE_CURVE('',#594,#592,#106,.T.);
#506=EDGE_CURVE('',#595,#594,#627,.T.);
#507=EDGE_CURVE('',#593,#595,#107,.T.);
#508=EDGE_CURVE('',#596,#597,#628,.T.);
#509=EDGE_CURVE('',#598,#596,#108,.T.);
#510=EDGE_CURVE('',#599,#598,#629,.T.);
#511=EDGE_CURVE('',#597,#599,#109,.T.);
#512=EDGE_CURVE('',#600,#601,#630,.T.);
#513=EDGE_CURVE('',#602,#600,#110,.T.);
#514=EDGE_CURVE('',#603,#602,#631,.T.);
#515=EDGE_CURVE('',#601,#603,#111,.T.);
#516=EDGE_CURVE('',#588,#601,#112,.T.);
#517=EDGE_CURVE('',#590,#603,#113,.T.);
#518=EDGE_CURVE('',#584,#589,#114,.T.);
#519=EDGE_CURVE('',#586,#591,#115,.T.);
#520=EDGE_CURVE('',#598,#587,#116,.T.);
#521=EDGE_CURVE('',#596,#585,#117,.T.);
#522=EDGE_CURVE('',#602,#599,#118,.T.);
#523=EDGE_CURVE('',#600,#597,#119,.T.);
#524=EDGE_CURVE('',#594,#580,#120,.T.);
#525=EDGE_CURVE('',#582,#592,#121,.T.);
#526=EDGE_CURVE('',#575,#577,#122,.T.);
#527=EDGE_CURVE('',#579,#573,#123,.T.);
#528=EDGE_CURVE('',#576,#593,#124,.T.);
#529=EDGE_CURVE('',#574,#583,#125,.T.);
#530=EDGE_CURVE('',#572,#581,#126,.T.);
#531=EDGE_CURVE('',#578,#595,#127,.T.);
#532=VERTEX_POINT('',#1088);
#533=VERTEX_POINT('',#1089);
#534=VERTEX_POINT('',#1091);
#535=VERTEX_POINT('',#1093);
#536=VERTEX_POINT('',#1097);
#537=VERTEX_POINT('',#1098);
#538=VERTEX_POINT('',#1100);
#539=VERTEX_POINT('',#1102);
#540=VERTEX_POINT('',#1106);
#541=VERTEX_POINT('',#1107);
#542=VERTEX_POINT('',#1109);
#543=VERTEX_POINT('',#1111);
#544=VERTEX_POINT('',#1115);
#545=VERTEX_POINT('',#1116);
#546=VERTEX_POINT('',#1118);
#547=VERTEX_POINT('',#1120);
#548=VERTEX_POINT('',#1124);
#549=VERTEX_POINT('',#1125);
#550=VERTEX_POINT('',#1127);
#551=VERTEX_POINT('',#1129);
#552=VERTEX_POINT('',#1133);
#553=VERTEX_POINT('',#1134);
#554=VERTEX_POINT('',#1136);
#555=VERTEX_POINT('',#1138);
#556=VERTEX_POINT('',#1148);
#557=VERTEX_POINT('',#1149);
#558=VERTEX_POINT('',#1151);
#559=VERTEX_POINT('',#1153);
#560=VERTEX_POINT('',#1157);
#561=VERTEX_POINT('',#1158);
#562=VERTEX_POINT('',#1163);
#563=VERTEX_POINT('',#1167);
#564=VERTEX_POINT('',#1186);
#565=VERTEX_POINT('',#1187);
#566=VERTEX_POINT('',#1189);
#567=VERTEX_POINT('',#1191);
#568=VERTEX_POINT('',#1195);
#569=VERTEX_POINT('',#1196);
#570=VERTEX_POINT('',#1201);
#571=VERTEX_POINT('',#1205);
#572=VERTEX_POINT('',#1211);
#573=VERTEX_POINT('',#1212);
#574=VERTEX_POINT('',#1214);
#575=VERTEX_POINT('',#1216);
#576=VERTEX_POINT('',#1220);
#577=VERTEX_POINT('',#1221);
#578=VERTEX_POINT('',#1223);
#579=VERTEX_POINT('',#1225);
#580=VERTEX_POINT('',#1229);
#581=VERTEX_POINT('',#1230);
#582=VERTEX_POINT('',#1232);
#583=VERTEX_POINT('',#1234);
#584=VERTEX_POINT('',#1238);
#585=VERTEX_POINT('',#1239);
#586=VERTEX_POINT('',#1241);
#587=VERTEX_POINT('',#1243);
#588=VERTEX_POINT('',#1247);
#589=VERTEX_POINT('',#1248);
#590=VERTEX_POINT('',#1250);
#591=VERTEX_POINT('',#1252);
#592=VERTEX_POINT('',#1256);
#593=VERTEX_POINT('',#1257);
#594=VERTEX_POINT('',#1259);
#595=VERTEX_POINT('',#1261);
#596=VERTEX_POINT('',#1265);
#597=VERTEX_POINT('',#1266);
#598=VERTEX_POINT('',#1268);
#599=VERTEX_POINT('',#1270);
#600=VERTEX_POINT('',#1274);
#601=VERTEX_POINT('',#1275);
#602=VERTEX_POINT('',#1277);
#603=VERTEX_POINT('',#1279);
#604=CIRCLE('',#794,0.0006);
#605=CIRCLE('',#795,0.0006);
#606=CIRCLE('',#797,0.0006);
#607=CIRCLE('',#798,0.0006);
#608=CIRCLE('',#800,0.0006);
#609=CIRCLE('',#801,0.0006);
#610=CIRCLE('',#803,0.0006);
#611=CIRCLE('',#804,0.0006);
#612=CIRCLE('',#806,0.0006);
#613=CIRCLE('',#807,0.0006);
#614=CIRCLE('',#809,0.0006);
#615=CIRCLE('',#810,0.0006);
#616=CIRCLE('',#829,0.006);
#617=CIRCLE('',#830,0.006);
#618=CIRCLE('',#832,0.006);
#619=CIRCLE('',#833,0.006);
#620=CIRCLE('',#835,0.006);
#621=CIRCLE('',#836,0.006);
#622=CIRCLE('',#838,0.006);
#623=CIRCLE('',#839,0.006);
#624=CIRCLE('',#841,0.006);
#625=CIRCLE('',#842,0.006);
#626=CIRCLE('',#844,0.006);
#627=CIRCLE('',#845,0.006);
#628=CIRCLE('',#847,0.006);
#629=CIRCLE('',#848,0.006);
#630=CIRCLE('',#850,0.006);
#631=CIRCLE('',#851,0.006);
#632=EDGE_LOOP('',(#208,#209,#210,#211));
#633=EDGE_LOOP('',(#212,#213,#214,#215));
#634=EDGE_LOOP('',(#216,#217,#218,#219));
#635=EDGE_LOOP('',(#220,#221,#222,#223));
#636=EDGE_LOOP('',(#224,#225,#226,#227));
#637=EDGE_LOOP('',(#228,#229,#230,#231));
#638=EDGE_LOOP('',(#232,#233,#234,#235));
#639=EDGE_LOOP('',(#236,#237,#238,#239));
#640=EDGE_LOOP('',(#240,#241,#242,#243));
#641=EDGE_LOOP('',(#244,#245,#246,#247));
#642=EDGE_LOOP('',(#248,#249,#250,#251));
#643=EDGE_LOOP('',(#252,#253,#254,#255));
#644=EDGE_LOOP('',(#256,#257,#258,#259));
#645=EDGE_LOOP('',(#260,#261,#262,#263,#264,#265,#266,#267,#268,#269,#270,
#271));
#646=EDGE_LOOP('',(#272,#273,#274,#275));
#647=EDGE_LOOP('',(#276,#277,#278,#279));
#648=EDGE_LOOP('',(#280,#281,#282,#283));
#649=EDGE_LOOP('',(#284,#285,#286,#287));
#650=EDGE_LOOP('',(#288,#289,#290,#291));
#651=EDGE_LOOP('',(#292,#293,#294,#295));
#652=EDGE_LOOP('',(#296,#297,#298,#299));
#653=EDGE_LOOP('',(#300,#301,#302,#303));
#654=EDGE_LOOP('',(#304,#305,#306,#307));
#655=EDGE_LOOP('',(#308,#309,#310,#311));
#656=EDGE_LOOP('',(#312,#313,#314,#315));
#657=EDGE_LOOP('',(#316,#317,#318,#319));
#658=EDGE_LOOP('',(#320,#321,#322,#323));
#659=EDGE_LOOP('',(#324,#325,#326,#327));
#660=EDGE_LOOP('',(#328,#329,#330,#331));
#661=EDGE_LOOP('',(#332,#333,#334,#335));
#662=EDGE_LOOP('',(#336,#337,#338,#339));
#663=EDGE_LOOP('',(#340,#341,#342,#343));
#664=EDGE_LOOP('',(#344,#345,#346,#347));
#665=EDGE_LOOP('',(#348,#349,#350,#351));
#666=EDGE_LOOP('',(#352,#353,#354,#355));
#667=EDGE_LOOP('',(#356,#357,#358,#359));
#668=EDGE_LOOP('',(#360,#361,#362,#363));
#669=EDGE_LOOP('',(#364,#365,#366,#367,#368,#369,#370,#371));
#670=EDGE_LOOP('',(#372,#373,#374,#375));
#671=EDGE_LOOP('',(#376,#377,#378,#379,#380,#381,#382,#383));
#672=EDGE_LOOP('',(#384,#385,#386,#387,#388,#389,#390,#391));
#673=EDGE_LOOP('',(#392,#393,#394,#395));
#674=EDGE_LOOP('',(#396,#397,#398,#399,#400,#401,#402,#403,#404,#405,#406,
#407));
#675=EDGE_LOOP('',(#408,#409,#410,#411));
#676=EDGE_LOOP('',(#412,#413,#414,#415));
#677=EDGE_LOOP('',(#416,#417,#418,#419,#420,#421,#422,#423));
#678=FACE_BOUND('',#632,.T.);
#679=FACE_BOUND('',#633,.T.);
#680=FACE_BOUND('',#634,.T.);
#681=FACE_BOUND('',#635,.T.);
#682=FACE_BOUND('',#636,.T.);
#683=FACE_BOUND('',#637,.T.);
#684=FACE_BOUND('',#638,.T.);
#685=FACE_BOUND('',#639,.T.);
#686=FACE_BOUND('',#640,.T.);
#687=FACE_BOUND('',#641,.T.);
#688=FACE_BOUND('',#642,.T.);
#689=FACE_BOUND('',#643,.T.);
#690=FACE_BOUND('',#644,.T.);
#691=FACE_BOUND('',#645,.T.);
#692=FACE_BOUND('',#646,.T.);
#693=FACE_BOUND('',#647,.T.);
#694=FACE_BOUND('',#648,.T.);
#695=FACE_BOUND('',#649,.T.);
#696=FACE_BOUND('',#650,.T.);
#697=FACE_BOUND('',#651,.T.);
#698=FACE_BOUND('',#652,.T.);
#699=FACE_BOUND('',#653,.T.);
#700=FACE_BOUND('',#654,.T.);
#701=FACE_BOUND('',#655,.T.);
#702=FACE_BOUND('',#656,.T.);
#703=FACE_BOUND('',#657,.T.);
#704=FACE_BOUND('',#658,.T.);
#705=FACE_BOUND('',#659,.T.);
#706=FACE_BOUND('',#660,.T.);
#707=FACE_BOUND('',#661,.T.);
#708=FACE_BOUND('',#662,.T.);
#709=FACE_BOUND('',#663,.T.);
#710=FACE_BOUND('',#664,.T.);
#711=FACE_BOUND('',#665,.T.);
#712=FACE_BOUND('',#666,.T.);
#713=FACE_BOUND('',#667,.T.);
#714=FACE_BOUND('',#668,.T.);
#715=FACE_BOUND('',#669,.T.);
#716=FACE_BOUND('',#670,.T.);
#717=FACE_BOUND('',#671,.T.);
#718=FACE_BOUND('',#672,.T.);
#719=FACE_BOUND('',#673,.T.);
#720=FACE_BOUND('',#674,.T.);
#721=FACE_BOUND('',#675,.T.);
#722=FACE_BOUND('',#676,.T.);
#723=FACE_BOUND('',#677,.T.);
#724=CYLINDRICAL_SURFACE('',#793,0.0006);
#725=CYLINDRICAL_SURFACE('',#796,0.0006);
#726=CYLINDRICAL_SURFACE('',#799,0.0006);
#727=CYLINDRICAL_SURFACE('',#802,0.0006);
#728=CYLINDRICAL_SURFACE('',#805,0.0006);
#729=CYLINDRICAL_SURFACE('',#808,0.0006);
#730=CYLINDRICAL_SURFACE('',#828,0.006);
#731=CYLINDRICAL_SURFACE('',#831,0.006);
#732=CYLINDRICAL_SURFACE('',#834,0.006);
#733=CYLINDRICAL_SURFACE('',#837,0.006);
#734=CYLINDRICAL_SURFACE('',#840,0.006);
#735=CYLINDRICAL_SURFACE('',#843,0.006);
#736=CYLINDRICAL_SURFACE('',#846,0.006);
#737=CYLINDRICAL_SURFACE('',#849,0.006);
#738=ADVANCED_FACE('',(#678),#724,.F.);
#739=ADVANCED_FACE('',(#679),#725,.F.);
#740=ADVANCED_FACE('',(#680),#726,.F.);
#741=ADVANCED_FACE('',(#681),#727,.F.);
#742=ADVANCED_FACE('',(#682),#728,.F.);
#743=ADVANCED_FACE('',(#683),#729,.F.);
#744=ADVANCED_FACE('',(#684),#20,.T.);
#745=ADVANCED_FACE('',(#685),#21,.T.);
#746=ADVANCED_FACE('',(#686),#22,.F.);
#747=ADVANCED_FACE('',(#687),#23,.T.);
#748=ADVANCED_FACE('',(#688),#24,.T.);
#749=ADVANCED_FACE('',(#689),#25,.T.);
#750=ADVANCED_FACE('',(#690),#26,.T.);
#751=ADVANCED_FACE('',(#691),#27,.F.);
#752=ADVANCED_FACE('',(#692),#28,.T.);
#753=ADVANCED_FACE('',(#693),#29,.T.);
#754=ADVANCED_FACE('',(#694),#30,.T.);
#755=ADVANCED_FACE('',(#695),#31,.T.);
#756=ADVANCED_FACE('',(#696),#32,.F.);
#757=ADVANCED_FACE('',(#697),#33,.T.);
#758=ADVANCED_FACE('',(#698),#34,.T.);
#759=ADVANCED_FACE('',(#699),#35,.T.);
#760=ADVANCED_FACE('',(#700),#36,.T.);
#761=ADVANCED_FACE('',(#701),#730,.T.);
#762=ADVANCED_FACE('',(#702),#731,.T.);
#763=ADVANCED_FACE('',(#703),#732,.T.);
#764=ADVANCED_FACE('',(#704),#733,.T.);
#765=ADVANCED_FACE('',(#705),#734,.T.);
#766=ADVANCED_FACE('',(#706),#735,.T.);
#767=ADVANCED_FACE('',(#707),#736,.T.);
#768=ADVANCED_FACE('',(#708),#737,.T.);
#769=ADVANCED_FACE('',(#709),#37,.T.);
#770=ADVANCED_FACE('',(#710),#38,.T.);
#771=ADVANCED_FACE('',(#711),#39,.T.);
#772=ADVANCED_FACE('',(#712),#40,.T.);
#773=ADVANCED_FACE('',(#713),#41,.F.);
#774=ADVANCED_FACE('',(#714),#42,.T.);
#775=ADVANCED_FACE('',(#715),#43,.F.);
#776=ADVANCED_FACE('',(#716),#44,.F.);
#777=ADVANCED_FACE('',(#717,#718),#45,.F.);
#778=ADVANCED_FACE('',(#719),#46,.F.);
#779=ADVANCED_FACE('',(#720,#721,#722,#723),#47,.F.);
#780=CLOSED_SHELL('',(#738,#739,#740,#741,#742,#743,#744,#745,#746,#747,
#748,#749,#750,#751,#752,#753,#754,#755,#756,#757,#758,#759,#760,#761,#762,
#763,#764,#765,#766,#767,#768,#769,#770,#771,#772,#773,#774,#775,#776,#777,
#778,#779));
#781=STYLED_ITEM('',(#782),#789);
#782=PRESENTATION_STYLE_ASSIGNMENT((#783));
#783=SURFACE_STYLE_USAGE(.BOTH.,#784);
#784=SURFACE_SIDE_STYLE('',(#785));
#785=SURFACE_STYLE_FILL_AREA(#786);
#786=FILL_AREA_STYLE('',(#787));
#787=FILL_AREA_STYLE_COLOUR('',#788);
#788=COLOUR_RGB('',0.2,0.2,0.2);
#789=MANIFOLD_SOLID_BREP('battery',#780);
#790=SHAPE_DEFINITION_REPRESENTATION(#1314,#791);
#791=SHAPE_REPRESENTATION('battery',(#792),#1309);
#792=AXIS2_PLACEMENT_3D('',#1085,#863,#864);
#793=AXIS2_PLACEMENT_3D('',#1086,#865,#866);
#794=AXIS2_PLACEMENT_3D('',#1087,#867,#868);
#795=AXIS2_PLACEMENT_3D('',#1092,#870,#871);
#796=AXIS2_PLACEMENT_3D('',#1095,#873,#874);
#797=AXIS2_PLACEMENT_3D('',#1096,#875,#876);
#798=AXIS2_PLACEMENT_3D('',#1101,#878,#879);
#799=AXIS2_PLACEMENT_3D('',#1104,#881,#882);
#800=AXIS2_PLACEMENT_3D('',#1105,#883,#884);
#801=AXIS2_PLACEMENT_3D('',#1110,#886,#887);
#802=AXIS2_PLACEMENT_3D('',#1113,#889,#890);
#803=AXIS2_PLACEMENT_3D('',#1114,#891,#892);
#804=AXIS2_PLACEMENT_3D('',#1119,#894,#895);
#805=AXIS2_PLACEMENT_3D('',#1122,#897,#898);
#806=AXIS2_PLACEMENT_3D('',#1123,#899,#900);
#807=AXIS2_PLACEMENT_3D('',#1128,#902,#903);
#808=AXIS2_PLACEMENT_3D('',#1131,#905,#906);
#809=AXIS2_PLACEMENT_3D('',#1132,#907,#908);
#810=AXIS2_PLACEMENT_3D('',#1137,#910,#911);
#811=AXIS2_PLACEMENT_3D('',#1140,#913,#914);
#812=AXIS2_PLACEMENT_3D('',#1143,#917,#918);
#813=AXIS2_PLACEMENT_3D('',#1146,#921,#922);
#814=AXIS2_PLACEMENT_3D('',#1155,#927,#928);
#815=AXIS2_PLACEMENT_3D('',#1161,#932,#933);
#816=AXIS2_PLACEMENT_3D('',#1165,#936,#937);
#817=AXIS2_PLACEMENT_3D('',#1169,#940,#941);
#818=AXIS2_PLACEMENT_3D('',#1171,#943,#944);
#819=AXIS2_PLACEMENT_3D('',#1176,#949,#950);
#820=AXIS2_PLACEMENT_3D('',#1178,#952,#953);
#821=AXIS2_PLACEMENT_3D('',#1180,#955,#956);
#822=AXIS2_PLACEMENT_3D('',#1182,#958,#959);
#823=AXIS2_PLACEMENT_3D('',#1184,#961,#962);
#824=AXIS2_PLACEMENT_3D('',#1193,#967,#968);
#825=AXIS2_PLACEMENT_3D('',#1199,#972,#973);
#826=AXIS2_PLACEMENT_3D('',#1203,#976,#977);
#827=AXIS2_PLACEMENT_3D('',#1207,#980,#981);
#828=AXIS2_PLACEMENT_3D('',#1209,#983,#984);
#829=AXIS2_PLACEMENT_3D('',#1210,#985,#986);
#830=AXIS2_PLACEMENT_3D('',#1215,#988,#989);
#831=AXIS2_PLACEMENT_3D('',#1218,#991,#992);
#832=AXIS2_PLACEMENT_3D('',#1219,#993,#994);
#833=AXIS2_PLACEMENT_3D('',#1224,#996,#997);
#834=AXIS2_PLACEMENT_3D('',#1227,#999,#1000);
#835=AXIS2_PLACEMENT_3D('',#1228,#1001,#1002);
#836=AXIS2_PLACEMENT_3D('',#1233,#1004,#1005);
#837=AXIS2_PLACEMENT_3D('',#1236,#1007,#1008);
#838=AXIS2_PLACEMENT_3D('',#1237,#1009,#1010);
#839=AXIS2_PLACEMENT_3D('',#1242,#1012,#1013);
#840=AXIS2_PLACEMENT_3D('',#1245,#1015,#1016);
#841=AXIS2_PLACEMENT_3D('',#1246,#1017,#1018);
#842=AXIS2_PLACEMENT_3D('',#1251,#1020,#1021);
#843=AXIS2_PLACEMENT_3D('',#1254,#1023,#1024);
#844=AXIS2_PLACEMENT_3D('',#1255,#1025,#1026);
#845=AXIS2_PLACEMENT_3D('',#1260,#1028,#1029);
#846=AXIS2_PLACEMENT_3D('',#1263,#1031,#1032);
#847=AXIS2_PLACEMENT_3D('',#1264,#1033,#1034);
#848=AXIS2_PLACEMENT_3D('',#1269,#1036,#1037);
#849=AXIS2_PLACEMENT_3D('',#1272,#1039,#1040);
#850=AXIS2_PLACEMENT_3D('',#1273,#1041,#1042);
#851=AXIS2_PLACEMENT_3D('',#1278,#1044,#1045);
#852=AXIS2_PLACEMENT_3D('',#1281,#1047,#1048);
#853=AXIS2_PLACEMENT_3D('',#1284,#1051,#1052);
#854=AXIS2_PLACEMENT_3D('',#1287,#1055,#1056);
#855=AXIS2_PLACEMENT_3D('',#1290,#1059,#1060);
#856=AXIS2_PLACEMENT_3D('',#1293,#1063,#1064);
#857=AXIS2_PLACEMENT_3D('',#1296,#1067,#1068);
#858=AXIS2_PLACEMENT_3D('',#1299,#1071,#1072);
#859=AXIS2_PLACEMENT_3D('',#1302,#1075,#1076);
#860=AXIS2_PLACEMENT_3D('',#1304,#1078,#1079);
#861=AXIS2_PLACEMENT_3D('',#1306,#1081,#1082);
#862=AXIS2_PLACEMENT_3D('',#1307,#1083,#1084);
#863=DIRECTION('',(0.,0.,1.));
#864=DIRECTION('',(1.,0.,0.));
#865=DIRECTION('',(0.,-1.,0.));
#866=DIRECTION('',(0.,0.,-1.));
#867=DIRECTION('',(0.,1.,0.));
#868=DIRECTION('',(0.,0.,1.));
#869=DIRECTION('',(0.,-1.,0.));
#870=DIRECTION('',(0.,-1.,0.));
#871=DIRECTION('',(0.,0.,1.));
#872=DIRECTION('',(0.,1.,0.));
#873=DIRECTION('',(0.,1.,0.));
#874=DIRECTION('',(0.,0.,1.));
#875=DIRECTION('',(0.,-1.,0.));
#876=DIRECTION('',(0.,0.,1.));
#877=DIRECTION('',(0.,1.,0.));
#878=DIRECTION('',(0.,1.,0.));
#879=DIRECTION('',(0.,0.,1.));
#880=DIRECTION('',(0.,-1.,0.));
#881=DIRECTION('',(0.,-1.,0.));
#882=DIRECTION('',(0.,0.,-1.));
#883=DIRECTION('',(0.,1.,0.));
#884=DIRECTION('',(0.,0.,1.));
#885=DIRECTION('',(0.,-1.,0.));
#886=DIRECTION('',(0.,-1.,0.));
#887=DIRECTION('',(0.,0.,1.));
#888=DIRECTION('',(0.,1.,0.));
#889=DIRECTION('',(0.,1.,0.));
#890=DIRECTION('',(0.,0.,1.));
#891=DIRECTION('',(0.,-1.,0.));
#892=DIRECTION('',(0.,0.,1.));
#893=DIRECTION('',(0.,1.,0.));
#894=DIRECTION('',(0.,1.,0.));
#895=DIRECTION('',(0.,0.,1.));
#896=DIRECTION('',(0.,-1.,0.));
#897=DIRECTION('',(0.,-1.,0.));
#898=DIRECTION('',(0.,0.,-1.));
#899=DIRECTION('',(0.,1.,0.));
#900=DIRECTION('',(0.,0.,1.));
#901=DIRECTION('',(0.,-1.,0.));
#902=DIRECTION('',(0.,-1.,0.));
#903=DIRECTION('',(0.,0.,1.));
#904=DIRECTION('',(0.,1.,0.));
#905=DIRECTION('',(0.,-1.,0.));
#906=DIRECTION('',(0.,0.,-1.));
#907=DIRECTION('',(0.,1.,0.));
#908=DIRECTION('',(0.,0.,1.));
#909=DIRECTION('',(0.,-1.,0.));
#910=DIRECTION('',(0.,-1.,0.));
#911=DIRECTION('',(0.,0.,1.));
#912=DIRECTION('',(0.,1.,0.));
#913=DIRECTION('',(0.707106781186547,0.,-0.707106781186548));
#914=DIRECTION('',(0.,-1.,0.));
#915=DIRECTION('',(-0.707106781186548,0.,-0.707106781186547));
#916=DIRECTION('',(0.707106781186548,0.,0.707106781186547));
#917=DIRECTION('',(-0.707106781186547,0.,-0.707106781186548));
#918=DIRECTION('',(0.,-1.,0.));
#919=DIRECTION('',(-0.707106781186548,0.,0.707106781186547));
#920=DIRECTION('',(0.707106781186548,0.,-0.707106781186547));
#921=DIRECTION('',(0.,1.,0.));
#922=DIRECTION('',(0.,0.,1.));
#923=DIRECTION('',(1.35525271560688E-15,0.,-1.));
#924=DIRECTION('',(1.,0.,1.252507924893E-16));
#925=DIRECTION('',(0.,0.,1.));
#926=DIRECTION('',(-1.,0.,5.010031699572E-16));
#927=DIRECTION('',(-1.252507924893E-16,0.,1.));
#928=DIRECTION('',(1.,0.,1.252507924893E-16));
#929=DIRECTION('',(-1.,0.,-1.252507924893E-16));
#930=DIRECTION('',(0.,1.,0.));
#931=DIRECTION('',(0.,1.,0.));
#932=DIRECTION('',(-1.,0.,0.));
#933=DIRECTION('',(0.,0.,1.));
#934=DIRECTION('',(0.,0.,-1.));
#935=DIRECTION('',(0.,1.,0.));
#936=DIRECTION('',(-5.010031699572E-16,0.,-1.));
#937=DIRECTION('',(-1.,0.,5.010031699572E-16));
#938=DIRECTION('',(1.,0.,-5.010031699572E-16));
#939=DIRECTION('',(0.,1.,0.));
#940=DIRECTION('',(1.,0.,1.35525271560688E-15));
#941=DIRECTION('',(1.35525271560688E-15,0.,-1.));
#942=DIRECTION('',(-1.35525271560688E-15,0.,1.));
#943=DIRECTION('',(0.,1.,0.));
#944=DIRECTION('',(0.,0.,1.));
#945=DIRECTION('',(1.,0.,0.));
#946=DIRECTION('',(0.,0.,1.));
#947=DIRECTION('',(-1.,0.,0.));
#948=DIRECTION('',(0.,0.,-1.));
#949=DIRECTION('',(0.,0.,1.));
#950=DIRECTION('',(1.,0.,0.));
#951=DIRECTION('',(-1.,0.,0.));
#952=DIRECTION('',(-1.,0.,0.));
#953=DIRECTION('',(0.,0.,1.));
#954=DIRECTION('',(0.,0.,-1.));
#955=DIRECTION('',(0.,0.,-1.));
#956=DIRECTION('',(-1.,0.,0.));
#957=DIRECTION('',(1.,0.,0.));
#958=DIRECTION('',(1.,0.,0.));
#959=DIRECTION('',(0.,0.,-1.));
#960=DIRECTION('',(0.,0.,1.));
#961=DIRECTION('',(0.,1.,0.));
#962=DIRECTION('',(0.,0.,1.));
#963=DIRECTION('',(-1.,0.,-5.01003169957201E-16));
#964=DIRECTION('',(0.,0.,-1.));
#965=DIRECTION('',(1.,0.,-1.252507924893E-16));
#966=DIRECTION('',(0.,0.,1.));
#967=DIRECTION('',(1.,0.,0.));
#968=DIRECTION('',(0.,0.,-1.));
#969=DIRECTION('',(0.,0.,1.));
#970=DIRECTION('',(0.,1.,0.));
#971=DIRECTION('',(0.,1.,0.));
#972=DIRECTION('',(1.252507924893E-16,0.,1.));
#973=DIRECTION('',(1.,0.,-1.252507924893E-16));
#974=DIRECTION('',(-1.,0.,1.252507924893E-16));
#975=DIRECTION('',(0.,1.,0.));
#976=DIRECTION('',(-1.,0.,0.));
#977=DIRECTION('',(0.,0.,1.));
#978=DIRECTION('',(0.,0.,-1.));
#979=DIRECTION('',(0.,1.,0.));
#980=DIRECTION('',(5.01003169957201E-16,0.,-1.));
#981=DIRECTION('',(-1.,0.,-5.01003169957201E-16));
#982=DIRECTION('',(1.,0.,5.01003169957201E-16));
#983=DIRECTION('',(0.,-1.,0.));
#984=DIRECTION('',(0.,0.,-1.));
#985=DIRECTION('',(0.,-1.,0.));
#986=DIRECTION('',(0.,0.,1.));
#987=DIRECTION('',(0.,-1.,0.));
#988=DIRECTION('',(0.,1.,0.));
#989=DIRECTION('',(0.,0.,-1.));
#990=DIRECTION('',(0.,1.,0.));
#991=DIRECTION('',(0.,1.,0.));
#992=DIRECTION('',(0.,0.,1.));
#993=DIRECTION('',(0.,1.,0.));
#994=DIRECTION('',(0.,0.,-1.));
#995=DIRECTION('',(0.,1.,0.));
#996=DIRECTION('',(0.,-1.,0.));
#997=DIRECTION('',(0.,0.,1.));
#998=DIRECTION('',(0.,-1.,0.));
#999=DIRECTION('',(0.,1.,0.));
#1000=DIRECTION('',(0.,0.,1.));
#1001=DIRECTION('',(0.,-1.,0.));
#1002=DIRECTION('',(0.,0.,1.));
#1003=DIRECTION('',(0.,-1.,0.));
#1004=DIRECTION('',(0.,1.,0.));
#1005=DIRECTION('',(0.,0.,-1.));
#1006=DIRECTION('',(0.,1.,0.));
#1007=DIRECTION('',(0.,1.,0.));
#1008=DIRECTION('',(0.,0.,1.));
#1009=DIRECTION('',(0.,-1.,0.));
#1010=DIRECTION('',(0.,0.,1.));
#1011=DIRECTION('',(0.,-1.,0.));
#1012=DIRECTION('',(0.,1.,0.));
#1013=DIRECTION('',(0.,0.,1.));
#1014=DIRECTION('',(0.,1.,0.));
#1015=DIRECTION('',(0.,1.,0.));
#1016=DIRECTION('',(0.,0.,1.));
#1017=DIRECTION('',(0.,-1.,0.));
#1018=DIRECTION('',(0.,0.,1.));
#1019=DIRECTION('',(0.,-1.,0.));
#1020=DIRECTION('',(0.,1.,0.));
#1021=DIRECTION('',(0.,0.,1.));
#1022=DIRECTION('',(0.,1.,0.));
#1023=DIRECTION('',(0.,-1.,0.));
#1024=DIRECTION('',(0.,0.,-1.));
#1025=DIRECTION('',(0.,1.,0.));
#1026=DIRECTION('',(0.,0.,-1.));
#1027=DIRECTION('',(0.,1.,0.));
#1028=DIRECTION('',(0.,-1.,0.));
#1029=DIRECTION('',(0.,0.,1.));
#1030=DIRECTION('',(0.,-1.,0.));
#1031=DIRECTION('',(0.,1.,0.));
#1032=DIRECTION('',(0.,0.,1.));
#1033=DIRECTION('',(0.,-1.,0.));
#1034=DIRECTION('',(0.,0.,1.));
#1035=DIRECTION('',(0.,-1.,0.));
#1036=DIRECTION('',(0.,1.,0.));
#1037=DIRECTION('',(0.,0.,1.));
#1038=DIRECTION('',(0.,1.,0.));
#1039=DIRECTION('',(0.,1.,0.));
#1040=DIRECTION('',(0.,0.,1.));
#1041=DIRECTION('',(0.,-1.,0.));
#1042=DIRECTION('',(0.,0.,1.));
#1043=DIRECTION('',(0.,-1.,0.));
#1044=DIRECTION('',(0.,1.,0.));
#1045=DIRECTION('',(0.,0.,1.));
#1046=DIRECTION('',(0.,1.,0.));
#1047=DIRECTION('',(3.70570593282359E-16,0.,-1.));
#1048=DIRECTION('',(-1.,0.,-3.70570593282359E-16));
#1049=DIRECTION('',(-1.,0.,-3.70570593282359E-16));
#1050=DIRECTION('',(-1.,0.,-3.70570593282359E-16));
#1051=DIRECTION('',(1.,0.,9.91270557701033E-16));
#1052=DIRECTION('',(9.91270557701033E-16,0.,-1.));
#1053=DIRECTION('',(9.91270557701033E-16,0.,-1.));
#1054=DIRECTION('',(9.91270557701033E-16,0.,-1.));
#1055=DIRECTION('',(0.,0.,1.));
#1056=DIRECTION('',(1.,0.,0.));
#1057=DIRECTION('',(1.,0.,0.));
#1058=DIRECTION('',(1.,0.,0.));
#1059=DIRECTION('',(-1.,0.,0.));
#1060=DIRECTION('',(0.,0.,1.));
#1061=DIRECTION('',(0.,0.,1.));
#1062=DIRECTION('',(0.,0.,1.));
#1063=DIRECTION('',(0.,0.,1.));
#1064=DIRECTION('',(1.,0.,0.));
#1065=DIRECTION('',(1.,0.,0.));
#1066=DIRECTION('',(-1.,0.,0.));
#1067=DIRECTION('',(0.,0.,1.));
#1068=DIRECTION('',(1.,0.,0.));
#1069=DIRECTION('',(-1.,0.,0.));
#1070=DIRECTION('',(1.,0.,0.));
#1071=DIRECTION('',(0.,-1.,0.));
#1072=DIRECTION('',(0.,0.,-1.));
#1073=DIRECTION('',(0.,0.,-1.));
#1074=DIRECTION('',(0.,0.,-1.));
#1075=DIRECTION('',(-1.,0.,0.));
#1076=DIRECTION('',(0.,0.,1.));
#1077=DIRECTION('',(0.,0.,-1.));
#1078=DIRECTION('',(0.,1.,0.));
#1079=DIRECTION('',(0.,0.,1.));
#1080=DIRECTION('',(0.,0.,-1.));
#1081=DIRECTION('',(1.,0.,0.));
#1082=DIRECTION('',(0.,0.,-1.));
#1083=DIRECTION('',(0.,1.,0.));
#1084=DIRECTION('',(0.,0.,1.));
#1085=CARTESIAN_POINT('',(0.,0.,0.));
#1086=CARTESIAN_POINT('',(-0.00315,0.01,0.00735));
#1087=CARTESIAN_POINT('',(-0.00315,-0.004,0.00735));
#1088=CARTESIAN_POINT('',(-0.00315,-0.004,0.00675));
#1089=CARTESIAN_POINT('',(-0.00375,-0.004,0.00735));
#1090=CARTESIAN_POINT('',(-0.00315,-0.004,0.00675));
#1091=CARTESIAN_POINT('',(-0.00315,0.01,0.00675));
#1092=CARTESIAN_POINT('',(-0.00315,0.01,0.00735));
#1093=CARTESIAN_POINT('',(-0.00375,0.01,0.00735));
#1094=CARTESIAN_POINT('',(-0.00375,0.01,0.00735));
#1095=CARTESIAN_POINT('',(-0.00315,0.01,0.00770147186257615));
#1096=CARTESIAN_POINT('',(-0.00315,0.01,0.00770147186257615));
#1097=CARTESIAN_POINT('',(-0.00357426406871193,0.01,0.00812573593128808));
#1098=CARTESIAN_POINT('',(-0.00375,0.01,0.00770147186257615));
#1099=CARTESIAN_POINT('',(-0.00357426406871193,0.01,0.00812573593128808));
#1100=CARTESIAN_POINT('',(-0.00357426406871193,-0.004,0.00812573593128808));
#1101=CARTESIAN_POINT('',(-0.00315,-0.004,0.00770147186257615));
#1102=CARTESIAN_POINT('',(-0.00375,-0.004,0.00770147186257615));
#1103=CARTESIAN_POINT('',(-0.00375,0.01,0.00770147186257615));
#1104=CARTESIAN_POINT('',(-0.00225147186257614,0.01,0.0086));
#1105=CARTESIAN_POINT('',(-0.00225147186257614,-0.004,0.0086));
#1106=CARTESIAN_POINT('',(-0.00267573593128807,-0.004,0.00902426406871194));
#1107=CARTESIAN_POINT('',(-0.00225147186257614,-0.004,0.0092));
#1108=CARTESIAN_POINT('',(-0.00267573593128807,0.01,0.00902426406871194));
#1109=CARTESIAN_POINT('',(-0.00267573593128807,0.01,0.00902426406871194));
#1110=CARTESIAN_POINT('',(-0.00225147186257614,0.01,0.0086));
#1111=CARTESIAN_POINT('',(-0.00225147186257614,0.01,0.0092));
#1112=CARTESIAN_POINT('',(-0.00225147186257614,0.01,0.0092));
#1113=CARTESIAN_POINT('',(0.00225147186257614,0.01,0.0086));
#1114=CARTESIAN_POINT('',(0.00225147186257614,0.01,0.0086));
#1115=CARTESIAN_POINT('',(0.00267573593128807,0.01,0.00902426406871194));
#1116=CARTESIAN_POINT('',(0.00225147186257614,0.01,0.0092));
#1117=CARTESIAN_POINT('',(0.00267573593128807,0.01,0.00902426406871194));
#1118=CARTESIAN_POINT('',(0.00267573593128807,-0.004,0.00902426406871194));
#1119=CARTESIAN_POINT('',(0.00225147186257614,-0.004,0.0086));
#1120=CARTESIAN_POINT('',(0.00225147186257614,-0.004,0.0092));
#1121=CARTESIAN_POINT('',(0.00225147186257614,0.01,0.0092));
#1122=CARTESIAN_POINT('',(0.00315,0.01,0.00770147186257615));
#1123=CARTESIAN_POINT('',(0.00315,-0.004,0.00770147186257615));
#1124=CARTESIAN_POINT('',(0.00357426406871193,-0.004,0.00812573593128808));
#1125=CARTESIAN_POINT('',(0.00375,-0.004,0.00770147186257615));
#1126=CARTESIAN_POINT('',(0.00357426406871193,0.01,0.00812573593128808));
#1127=CARTESIAN_POINT('',(0.00357426406871193,0.01,0.00812573593128808));
#1128=CARTESIAN_POINT('',(0.00315,0.01,0.00770147186257615));
#1129=CARTESIAN_POINT('',(0.00375,0.01,0.00770147186257615));
#1130=CARTESIAN_POINT('',(0.00375,0.01,0.00770147186257615));
#1131=CARTESIAN_POINT('',(0.00315,0.01,0.00735));
#1132=CARTESIAN_POINT('',(0.00315,-0.004,0.00735));
#1133=CARTESIAN_POINT('',(0.00375,-0.004,0.00735));
#1134=CARTESIAN_POINT('',(0.00315,-0.004,0.00675));
#1135=CARTESIAN_POINT('',(0.00375,-0.004,0.00735));
#1136=CARTESIAN_POINT('',(0.00375,0.01,0.00735));
#1137=CARTESIAN_POINT('',(0.00315,0.01,0.00735));
#1138=CARTESIAN_POINT('',(0.00315,0.01,0.00675));
#1139=CARTESIAN_POINT('',(0.00315,0.01,0.00675));
#1140=CARTESIAN_POINT('',(-0.0025,0.01,0.0092));
#1141=CARTESIAN_POINT('',(-0.0025,0.01,0.0092));
#1142=CARTESIAN_POINT('',(-0.00585,-0.004,0.00585));
#1143=CARTESIAN_POINT('',(0.00375,0.01,0.00795));
#1144=CARTESIAN_POINT('',(0.00375,0.01,0.00795));
#1145=CARTESIAN_POINT('',(0.00585,-0.004,0.00585));
#1146=CARTESIAN_POINT('',(0.,0.01,0.));
#1147=CARTESIAN_POINT('',(0.009,0.01,0.0043));
#1148=CARTESIAN_POINT('',(0.009,0.01,0.0107));
#1149=CARTESIAN_POINT('',(0.009,0.01,0.0043));
#1150=CARTESIAN_POINT('',(0.02285,0.01,0.0043));
#1151=CARTESIAN_POINT('',(0.02285,0.01,0.0043));
#1152=CARTESIAN_POINT('',(0.02285,0.01,0.0107));
#1153=CARTESIAN_POINT('',(0.02285,0.01,0.0107));
#1154=CARTESIAN_POINT('',(0.009,0.01,0.0107));
#1155=CARTESIAN_POINT('',(0.02285,0.01,0.0043));
#1156=CARTESIAN_POINT('',(0.02285,-0.004,0.0043));
#1157=CARTESIAN_POINT('',(0.02285,-0.004,0.0043));
#1158=CARTESIAN_POINT('',(0.009,-0.004,0.0043));
#1159=CARTESIAN_POINT('',(0.02285,0.01,0.0043));
#1160=CARTESIAN_POINT('',(0.009,0.01,0.0043));
#1161=CARTESIAN_POINT('',(0.02285,0.01,0.0107));
#1162=CARTESIAN_POINT('',(0.02285,-0.004,0.0107));
#1163=CARTESIAN_POINT('',(0.02285,-0.004,0.0107));
#1164=CARTESIAN_POINT('',(0.02285,0.01,0.0107));
#1165=CARTESIAN_POINT('',(0.009,0.01,0.0107));
#1166=CARTESIAN_POINT('',(0.009,-0.004,0.0107));
#1167=CARTESIAN_POINT('',(0.009,-0.004,0.0107));
#1168=CARTESIAN_POINT('',(0.009,0.01,0.0107));
#1169=CARTESIAN_POINT('',(0.009,0.01,0.0043));
#1170=CARTESIAN_POINT('',(0.009,-0.004,0.0043));
#1171=CARTESIAN_POINT('',(0.,0.01,0.));
#1172=CARTESIAN_POINT('',(0.00375,0.01,0.00675));
#1173=CARTESIAN_POINT('',(0.00375,0.01,0.0092));
#1174=CARTESIAN_POINT('',(-0.00375,0.01,0.0092));
#1175=CARTESIAN_POINT('',(-0.00375,0.01,0.00675));
#1176=CARTESIAN_POINT('',(0.00375,0.01,0.00675));
#1177=CARTESIAN_POINT('',(0.00375,-0.004,0.00675));
#1178=CARTESIAN_POINT('',(0.00375,0.01,0.0092));
#1179=CARTESIAN_POINT('',(0.00375,-0.004,0.0092));
#1180=CARTESIAN_POINT('',(-0.00375,0.01,0.0092));
#1181=CARTESIAN_POINT('',(-0.00375,-0.004,0.0092));
#1182=CARTESIAN_POINT('',(-0.00375,0.01,0.00675));
#1183=CARTESIAN_POINT('',(-0.00375,-0.004,0.00675));
#1184=CARTESIAN_POINT('',(0.,0.01,0.));
#1185=CARTESIAN_POINT('',(-0.02285,0.01,0.0107));
#1186=CARTESIAN_POINT('',(-0.009,0.01,0.0107));
#1187=CARTESIAN_POINT('',(-0.02285,0.01,0.0107));
#1188=CARTESIAN_POINT('',(-0.02285,0.01,0.0043));
#1189=CARTESIAN_POINT('',(-0.02285,0.01,0.0043));
#1190=CARTESIAN_POINT('',(-0.009,0.01,0.0043));
#1191=CARTESIAN_POINT('',(-0.009,0.01,0.0043));
#1192=CARTESIAN_POINT('',(-0.009,0.01,0.0107));
#1193=CARTESIAN_POINT('',(-0.02285,0.01,0.0043));
#1194=CARTESIAN_POINT('',(-0.02285,-0.004,0.0043));
#1195=CARTESIAN_POINT('',(-0.02285,-0.004,0.0043));
#1196=CARTESIAN_POINT('',(-0.02285,-0.004,0.0107));
#1197=CARTESIAN_POINT('',(-0.02285,0.01,0.0043));
#1198=CARTESIAN_POINT('',(-0.02285,0.01,0.0107));
#1199=CARTESIAN_POINT('',(-0.009,0.01,0.0043));
#1200=CARTESIAN_POINT('',(-0.009,-0.004,0.0043));
#1201=CARTESIAN_POINT('',(-0.009,-0.004,0.0043));
#1202=CARTESIAN_POINT('',(-0.009,0.01,0.0043));
#1203=CARTESIAN_POINT('',(-0.009,0.01,0.0107));
#1204=CARTESIAN_POINT('',(-0.009,-0.004,0.0107));
#1205=CARTESIAN_POINT('',(-0.009,-0.004,0.0107));
#1206=CARTESIAN_POINT('',(-0.009,0.01,0.0107));
#1207=CARTESIAN_POINT('',(-0.02285,0.01,0.0107));
#1208=CARTESIAN_POINT('',(-0.02285,-0.004,0.0107));
#1209=CARTESIAN_POINT('',(0.028,0.,0.009));
#1210=CARTESIAN_POINT('',(0.028,1.45732969098535E-17,0.009));
#1211=CARTESIAN_POINT('',(0.034,1.45732969098535E-17,0.009));
#1212=CARTESIAN_POINT('',(0.028,1.45732969098535E-17,0.015));
#1213=CARTESIAN_POINT('',(0.034,1.45732969098535E-17,0.009));
#1214=CARTESIAN_POINT('',(0.034,0.135,0.009));
#1215=CARTESIAN_POINT('',(0.028,0.135,0.009));
#1216=CARTESIAN_POINT('',(0.028,0.135,0.015));
#1217=CARTESIAN_POINT('',(0.028,0.135,0.015));
#1218=CARTESIAN_POINT('',(-0.028,0.,0.009));
#1219=CARTESIAN_POINT('',(-0.028,0.135,0.009));
#1220=CARTESIAN_POINT('',(-0.034,0.135,0.009));
#1221=CARTESIAN_POINT('',(-0.028,0.135,0.015));
#1222=CARTESIAN_POINT('',(-0.034,0.135,0.009));
#1223=CARTESIAN_POINT('',(-0.034,2.77555756156289E-17,0.009));
#1224=CARTESIAN_POINT('',(-0.028,1.45732969098535E-17,0.009));
#1225=CARTESIAN_POINT('',(-0.028,1.45732969098535E-17,0.015));
#1226=CARTESIAN_POINT('',(-0.028,2.77555756156289E-17,0.015));
#1227=CARTESIAN_POINT('',(0.028,2.8421709430404E-17,0.006));
#1228=CARTESIAN_POINT('',(0.028,1.45732969098535E-17,0.006));
#1229=CARTESIAN_POINT('',(0.028,1.45732969098535E-17,0.));
#1230=CARTESIAN_POINT('',(0.034,1.45732969098535E-17,0.006));
#1231=CARTESIAN_POINT('',(0.028,0.,0.));
#1232=CARTESIAN_POINT('',(0.028,0.135,0.));
#1233=CARTESIAN_POINT('',(0.028,0.135,0.006));
#1234=CARTESIAN_POINT('',(0.034,0.135,0.006));
#1235=CARTESIAN_POINT('',(0.034,2.8421709430404E-17,0.006));
#1236=CARTESIAN_POINT('',(0.0275,-0.004,0.0085));
#1237=CARTESIAN_POINT('',(0.0275,-0.004,0.0085));
#1238=CARTESIAN_POINT('',(0.0335,-0.004,0.0085));
#1239=CARTESIAN_POINT('',(0.0275,-0.004,0.0145));
#1240=CARTESIAN_POINT('',(0.0335,-0.004,0.0085));
#1241=CARTESIAN_POINT('',(0.0335,1.45732969098535E-17,0.0085));
#1242=CARTESIAN_POINT('',(0.0275,1.47451495458029E-17,0.0085));
#1243=CARTESIAN_POINT('',(0.0275,1.45732969098535E-17,0.0145));
#1244=CARTESIAN_POINT('',(0.0275,-0.004,0.0145));
#1245=CARTESIAN_POINT('',(0.0275,-0.004,0.0065));
#1246=CARTESIAN_POINT('',(0.0275,-0.004,0.0065));
#1247=CARTESIAN_POINT('',(0.0275,-0.004,0.0005));
#1248=CARTESIAN_POINT('',(0.0335,-0.004,0.0065));
#1249=CARTESIAN_POINT('',(0.0275,-0.004,0.0005));
#1250=CARTESIAN_POINT('',(0.0275,1.45732969098535E-17,0.0005));
#1251=CARTESIAN_POINT('',(0.0275,1.47451495458029E-17,0.0065));
#1252=CARTESIAN_POINT('',(0.0335,1.45732969098535E-17,0.0065));
#1253=CARTESIAN_POINT('',(0.0335,-0.004,0.0065));
#1254=CARTESIAN_POINT('',(-0.028,0.135,0.006));
#1255=CARTESIAN_POINT('',(-0.028,0.135,0.006));
#1256=CARTESIAN_POINT('',(-0.028,0.135,0.));
#1257=CARTESIAN_POINT('',(-0.034,0.135,0.006));
#1258=CARTESIAN_POINT('',(-0.028,0.,0.));
#1259=CARTESIAN_POINT('',(-0.028,1.45732969098535E-17,0.));
#1260=CARTESIAN_POINT('',(-0.028,2.77555756156289E-17,0.006));
#1261=CARTESIAN_POINT('',(-0.034,2.77555756156289E-17,0.006));
#1262=CARTESIAN_POINT('',(-0.034,0.135,0.006));
#1263=CARTESIAN_POINT('',(-0.0275,-0.004,0.0085));
#1264=CARTESIAN_POINT('',(-0.0275,-0.004,0.0085));
#1265=CARTESIAN_POINT('',(-0.0275,-0.004,0.0145));
#1266=CARTESIAN_POINT('',(-0.0335,-0.004,0.0085));
#1267=CARTESIAN_POINT('',(-0.0275,-0.004,0.0145));
#1268=CARTESIAN_POINT('',(-0.0275,1.45732969098535E-17,0.0145));
#1269=CARTESIAN_POINT('',(-0.0275,1.47451495458029E-17,0.0085));
#1270=CARTESIAN_POINT('',(-0.0335,1.45732969098535E-17,0.0085));
#1271=CARTESIAN_POINT('',(-0.0335,-0.004,0.0085));
#1272=CARTESIAN_POINT('',(-0.0275,-0.004,0.0065));
#1273=CARTESIAN_POINT('',(-0.0275,-0.004,0.0065));
#1274=CARTESIAN_POINT('',(-0.0335,-0.004,0.0065));
#1275=CARTESIAN_POINT('',(-0.0275,-0.004,0.000499999999999977));
#1276=CARTESIAN_POINT('',(-0.0335,-0.004,0.0065));
#1277=CARTESIAN_POINT('',(-0.0335,1.45732969098535E-17,0.0065));
#1278=CARTESIAN_POINT('',(-0.0275,1.47451495458029E-17,0.0065));
#1279=CARTESIAN_POINT('',(-0.0275,1.45732969098535E-17,0.000499999999999977));
#1280=CARTESIAN_POINT('',(-0.0275,-0.004,0.000499999999999977));
#1281=CARTESIAN_POINT('',(0.0335,-0.004,0.0005));
#1282=CARTESIAN_POINT('',(0.0335,-0.004,0.0005));
#1283=CARTESIAN_POINT('',(0.0335,1.45732969098535E-17,0.0005));
#1284=CARTESIAN_POINT('',(0.0335,-0.004,0.0145));
#1285=CARTESIAN_POINT('',(0.0335,-0.004,0.0145));
#1286=CARTESIAN_POINT('',(0.0335,1.45732969098535E-17,0.0145));
#1287=CARTESIAN_POINT('',(-0.0335,-0.004,0.0145));
#1288=CARTESIAN_POINT('',(-0.0335,1.45732969098535E-17,0.0145));
#1289=CARTESIAN_POINT('',(-0.0335,-0.004,0.0145));
#1290=CARTESIAN_POINT('',(-0.0335,-0.004,0.000499999999999975));
#1291=CARTESIAN_POINT('',(-0.0335,1.45732969098535E-17,0.000499999999999975));
#1292=CARTESIAN_POINT('',(-0.0335,-0.004,0.000499999999999975));
#1293=CARTESIAN_POINT('',(0.,0.,0.));
#1294=CARTESIAN_POINT('',(-0.034,1.45732969098535E-17,0.));
#1295=CARTESIAN_POINT('',(0.034,0.135,0.));
#1296=CARTESIAN_POINT('',(0.,0.,0.015));
#1297=CARTESIAN_POINT('',(0.034,0.135,0.015));
#1298=CARTESIAN_POINT('',(-0.034,1.45732969098535E-17,0.015));
#1299=CARTESIAN_POINT('',(0.034,0.135,0.015));
#1300=CARTESIAN_POINT('',(-0.034,0.135,0.015));
#1301=CARTESIAN_POINT('',(0.034,0.135,0.015));
#1302=CARTESIAN_POINT('',(0.034,2.8421709430404E-17,0.015));
#1303=CARTESIAN_POINT('',(0.034,1.45732969098535E-17,0.015));
#1304=CARTESIAN_POINT('',(-0.034,1.45732969098535E-17,0.015));
#1305=CARTESIAN_POINT('',(-0.034,2.77555756156289E-17,0.015));
#1306=CARTESIAN_POINT('',(-0.034,0.135,0.015));
#1307=CARTESIAN_POINT('',(0.,-0.004,0.));
#1308=MECHANICAL_DESIGN_GEOMETRIC_PRESENTATION_REPRESENTATION('',(#781),
#1309);
#1309=(
GEOMETRIC_REPRESENTATION_CONTEXT(3)
GLOBAL_UNCERTAINTY_ASSIGNED_CONTEXT((#1310))
GLOBAL_UNIT_ASSIGNED_CONTEXT((#1313,#1312,#1311))
REPRESENTATION_CONTEXT('battery','TOP_LEVEL_ASSEMBLY_PART')
);
#1310=UNCERTAINTY_MEASURE_WITH_UNIT(LENGTH_MEASURE(5.E-6),#1313,
'DISTANCE_ACCURACY_VALUE','Maximum Tolerance applied to model');
#1311=(
NAMED_UNIT(*)
SI_UNIT($,.STERADIAN.)
SOLID_ANGLE_UNIT()
);
#1312=(
NAMED_UNIT(*)
PLANE_ANGLE_UNIT()
SI_UNIT($,.RADIAN.)
);
#1313=(
LENGTH_UNIT()
NAMED_UNIT(*)
SI_UNIT($,.METRE.)
);
#1314=PRODUCT_DEFINITION_SHAPE('','',#1315);
#1315=PRODUCT_DEFINITION('','',#1317,#1316);
#1316=PRODUCT_DEFINITION_CONTEXT('',#1323,'design');
#1317=PRODUCT_DEFINITION_FORMATION_WITH_SPECIFIED_SOURCE('','',#1319,
 .NOT_KNOWN.);
#1318=PRODUCT_RELATED_PRODUCT_CATEGORY('','',(#1319));
#1319=PRODUCT('battery','battery','battery',(#1321));
#1320=PRODUCT_CATEGORY('','');
#1321=PRODUCT_CONTEXT('',#1323,'mechanical');
#1322=APPLICATION_PROTOCOL_DEFINITION('international standard',
'automotive_design',2010,#1323);
#1323=APPLICATION_CONTEXT(
'core data for automotive mechanical design processes');
ENDSEC;
END-ISO-10303-21;
