ISO-10303-21;
HEADER;
/* Generated by software containing ST-Developer
 * from STEP Tools, Inc. (www.steptools.com) 
 */
/* OPTION: using custom renumber hook */

FILE_DESCRIPTION(
/* description */ ('STEP AP214'),
/* implementation_level */ '2;1');

FILE_NAME(
/* name */ '654cf5ab7f9aa566be1722c5',
/* time_stamp */ '2023-11-09T15:07:24Z',
/* author */ (''),
/* organization */ (''),
/* preprocessor_version */ 'ST-DEVELOPER v19.4',
/* originating_system */ '  ',
/* authorisation */ '  ');

FILE_SCHEMA (('AUTOMOTIVE_DESIGN {1 0 10303 214 3 1 1}'));
ENDSEC;

DATA;
#10=PROPERTY_DEFINITION_REPRESENTATION(#14,#12);
#11=PROPERTY_DEFINITION_REPRESENTATION(#15,#13);
#12=REPRESENTATION('',(#16),#1783);
#13=REPRESENTATION('',(#17),#1783);
#14=PROPERTY_DEFINITION('pmi validation property','',#1788);
#15=PROPERTY_DEFINITION('pmi validation property','',#1788);
#16=VALUE_REPRESENTATION_ITEM('number of annotations',COUNT_MEASURE(0.));
#17=VALUE_REPRESENTATION_ITEM('number of views',COUNT_MEASURE(0.));
#18=SHAPE_REPRESENTATION_RELATIONSHIP('','',#1117,#19);
#19=ADVANCED_BREP_SHAPE_REPRESENTATION('',(#1115),#1783);
#20=PLANE('',#1131);
#21=PLANE('',#1136);
#22=PLANE('',#1143);
#23=PLANE('',#1145);
#24=PLANE('',#1146);
#25=PLANE('',#1147);
#26=PLANE('',#1148);
#27=PLANE('',#1149);
#28=PLANE('',#1150);
#29=PLANE('',#1151);
#30=PLANE('',#1152);
#31=PLANE('',#1153);
#32=PLANE('',#1154);
#33=PLANE('',#1155);
#34=PLANE('',#1156);
#35=PLANE('',#1157);
#36=PLANE('',#1158);
#37=PLANE('',#1159);
#38=PLANE('',#1160);
#39=PLANE('',#1161);
#40=PLANE('',#1162);
#41=PLANE('',#1163);
#42=PLANE('',#1164);
#43=PLANE('',#1165);
#44=PLANE('',#1166);
#45=PLANE('',#1167);
#46=PLANE('',#1168);
#47=PLANE('',#1169);
#48=PLANE('',#1170);
#49=PLANE('',#1171);
#50=PLANE('',#1172);
#51=PLANE('',#1173);
#52=PLANE('',#1174);
#53=PLANE('',#1175);
#54=PLANE('',#1176);
#55=PLANE('',#1177);
#56=PLANE('',#1178);
#57=PLANE('',#1179);
#58=PLANE('',#1180);
#59=PLANE('',#1181);
#60=PLANE('',#1182);
#61=PLANE('',#1183);
#62=PLANE('',#1184);
#63=PLANE('',#1185);
#64=PLANE('',#1186);
#65=PLANE('',#1187);
#66=LINE('',#1474,#204);
#67=LINE('',#1478,#205);
#68=LINE('',#1483,#206);
#69=LINE('',#1487,#207);
#70=LINE('',#1492,#208);
#71=LINE('',#1496,#209);
#72=LINE('',#1501,#210);
#73=LINE('',#1505,#211);
#74=LINE('',#1511,#212);
#75=LINE('',#1513,#213);
#76=LINE('',#1515,#214);
#77=LINE('',#1518,#215);
#78=LINE('',#1521,#216);
#79=LINE('',#1523,#217);
#80=LINE('',#1524,#218);
#81=LINE('',#1526,#219);
#82=LINE('',#1528,#220);
#83=LINE('',#1530,#221);
#84=LINE('',#1532,#222);
#85=LINE('',#1534,#223);
#86=LINE('',#1536,#224);
#87=LINE('',#1538,#225);
#88=LINE('',#1540,#226);
#89=LINE('',#1542,#227);
#90=LINE('',#1544,#228);
#91=LINE('',#1546,#229);
#92=LINE('',#1548,#230);
#93=LINE('',#1550,#231);
#94=LINE('',#1552,#232);
#95=LINE('',#1554,#233);
#96=LINE('',#1556,#234);
#97=LINE('',#1558,#235);
#98=LINE('',#1560,#236);
#99=LINE('',#1562,#237);
#100=LINE('',#1564,#238);
#101=LINE('',#1566,#239);
#102=LINE('',#1568,#240);
#103=LINE('',#1570,#241);
#104=LINE('',#1572,#242);
#105=LINE('',#1574,#243);
#106=LINE('',#1576,#244);
#107=LINE('',#1578,#245);
#108=LINE('',#1580,#246);
#109=LINE('',#1582,#247);
#110=LINE('',#1584,#248);
#111=LINE('',#1586,#249);
#112=LINE('',#1588,#250);
#113=LINE('',#1590,#251);
#114=LINE('',#1592,#252);
#115=LINE('',#1594,#253);
#116=LINE('',#1596,#254);
#117=LINE('',#1598,#255);
#118=LINE('',#1604,#256);
#119=LINE('',#1606,#257);
#120=LINE('',#1608,#258);
#121=LINE('',#1610,#259);
#122=LINE('',#1612,#260);
#123=LINE('',#1614,#261);
#124=LINE('',#1616,#262);
#125=LINE('',#1618,#263);
#126=LINE('',#1620,#264);
#127=LINE('',#1622,#265);
#128=LINE('',#1624,#266);
#129=LINE('',#1626,#267);
#130=LINE('',#1628,#268);
#131=LINE('',#1630,#269);
#132=LINE('',#1632,#270);
#133=LINE('',#1634,#271);
#134=LINE('',#1636,#272);
#135=LINE('',#1638,#273);
#136=LINE('',#1640,#274);
#137=LINE('',#1642,#275);
#138=LINE('',#1644,#276);
#139=LINE('',#1646,#277);
#140=LINE('',#1648,#278);
#141=LINE('',#1650,#279);
#142=LINE('',#1652,#280);
#143=LINE('',#1654,#281);
#144=LINE('',#1656,#282);
#145=LINE('',#1658,#283);
#146=LINE('',#1660,#284);
#147=LINE('',#1662,#285);
#148=LINE('',#1664,#286);
#149=LINE('',#1666,#287);
#150=LINE('',#1668,#288);
#151=LINE('',#1670,#289);
#152=LINE('',#1672,#290);
#153=LINE('',#1674,#291);
#154=LINE('',#1676,#292);
#155=LINE('',#1678,#293);
#156=LINE('',#1680,#294);
#157=LINE('',#1682,#295);
#158=LINE('',#1683,#296);
#159=LINE('',#1685,#297);
#160=LINE('',#1688,#298);
#161=LINE('',#1691,#299);
#162=LINE('',#1696,#300);
#163=LINE('',#1698,#301);
#164=LINE('',#1701,#302);
#165=LINE('',#1703,#303);
#166=LINE('',#1705,#304);
#167=LINE('',#1707,#305);
#168=LINE('',#1709,#306);
#169=LINE('',#1711,#307);
#170=LINE('',#1713,#308);
#171=LINE('',#1715,#309);
#172=LINE('',#1717,#310);
#173=LINE('',#1719,#311);
#174=LINE('',#1721,#312);
#175=LINE('',#1723,#313);
#176=LINE('',#1725,#314);
#177=LINE('',#1727,#315);
#178=LINE('',#1729,#316);
#179=LINE('',#1731,#317);
#180=LINE('',#1733,#318);
#181=LINE('',#1735,#319);
#182=LINE('',#1737,#320);
#183=LINE('',#1739,#321);
#184=LINE('',#1741,#322);
#185=LINE('',#1743,#323);
#186=LINE('',#1745,#324);
#187=LINE('',#1747,#325);
#188=LINE('',#1749,#326);
#189=LINE('',#1751,#327);
#190=LINE('',#1753,#328);
#191=LINE('',#1755,#329);
#192=LINE('',#1757,#330);
#193=LINE('',#1759,#331);
#194=LINE('',#1761,#332);
#195=LINE('',#1763,#333);
#196=LINE('',#1765,#334);
#197=LINE('',#1767,#335);
#198=LINE('',#1769,#336);
#199=LINE('',#1771,#337);
#200=LINE('',#1773,#338);
#201=LINE('',#1775,#339);
#202=LINE('',#1778,#340);
#203=LINE('',#1780,#341);
#204=VECTOR('',#1195,1.);
#205=VECTOR('',#1198,1.);
#206=VECTOR('',#1203,1.);
#207=VECTOR('',#1206,1.);
#208=VECTOR('',#1211,1.);
#209=VECTOR('',#1214,1.);
#210=VECTOR('',#1219,1.);
#211=VECTOR('',#1222,1.);
#212=VECTOR('',#1229,1.);
#213=VECTOR('',#1230,1.);
#214=VECTOR('',#1231,1.);
#215=VECTOR('',#1234,1.);
#216=VECTOR('',#1237,1.);
#217=VECTOR('',#1238,1.);
#218=VECTOR('',#1239,1.);
#219=VECTOR('',#1240,1.);
#220=VECTOR('',#1241,1.);
#221=VECTOR('',#1242,1.);
#222=VECTOR('',#1243,1.);
#223=VECTOR('',#1244,1.);
#224=VECTOR('',#1245,1.);
#225=VECTOR('',#1246,1.);
#226=VECTOR('',#1247,1.);
#227=VECTOR('',#1248,1.);
#228=VECTOR('',#1249,1.);
#229=VECTOR('',#1250,1.);
#230=VECTOR('',#1251,1.);
#231=VECTOR('',#1252,1.);
#232=VECTOR('',#1253,1.);
#233=VECTOR('',#1254,1.);
#234=VECTOR('',#1255,1.);
#235=VECTOR('',#1256,1.);
#236=VECTOR('',#1257,1.);
#237=VECTOR('',#1258,1.);
#238=VECTOR('',#1259,1.);
#239=VECTOR('',#1260,1.);
#240=VECTOR('',#1261,1.);
#241=VECTOR('',#1262,1.);
#242=VECTOR('',#1263,1.);
#243=VECTOR('',#1264,1.);
#244=VECTOR('',#1265,1.);
#245=VECTOR('',#1266,1.);
#246=VECTOR('',#1267,1.);
#247=VECTOR('',#1268,1.);
#248=VECTOR('',#1269,1.);
#249=VECTOR('',#1270,1.);
#250=VECTOR('',#1271,1.);
#251=VECTOR('',#1272,1.);
#252=VECTOR('',#1273,1.);
#253=VECTOR('',#1274,1.);
#254=VECTOR('',#1275,1.);
#255=VECTOR('',#1276,1.);
#256=VECTOR('',#1283,1.);
#257=VECTOR('',#1284,1.);
#258=VECTOR('',#1285,1.);
#259=VECTOR('',#1286,1.);
#260=VECTOR('',#1287,1.);
#261=VECTOR('',#1288,1.);
#262=VECTOR('',#1289,1.);
#263=VECTOR('',#1290,1.);
#264=VECTOR('',#1291,1.);
#265=VECTOR('',#1292,1.);
#266=VECTOR('',#1293,1.);
#267=VECTOR('',#1294,1.);
#268=VECTOR('',#1295,1.);
#269=VECTOR('',#1296,1.);
#270=VECTOR('',#1297,1.);
#271=VECTOR('',#1298,1.);
#272=VECTOR('',#1299,1.);
#273=VECTOR('',#1300,1.);
#274=VECTOR('',#1301,1.);
#275=VECTOR('',#1302,1.);
#276=VECTOR('',#1303,1.);
#277=VECTOR('',#1304,1.);
#278=VECTOR('',#1305,1.);
#279=VECTOR('',#1306,1.);
#280=VECTOR('',#1307,1.);
#281=VECTOR('',#1308,1.);
#282=VECTOR('',#1309,1.);
#283=VECTOR('',#1310,1.);
#284=VECTOR('',#1311,1.);
#285=VECTOR('',#1312,1.);
#286=VECTOR('',#1313,1.);
#287=VECTOR('',#1314,1.);
#288=VECTOR('',#1315,1.);
#289=VECTOR('',#1316,1.);
#290=VECTOR('',#1317,1.);
#291=VECTOR('',#1318,1.);
#292=VECTOR('',#1319,1.);
#293=VECTOR('',#1320,1.);
#294=VECTOR('',#1321,1.);
#295=VECTOR('',#1322,1.);
#296=VECTOR('',#1323,1.);
#297=VECTOR('',#1324,1.);
#298=VECTOR('',#1327,1.);
#299=VECTOR('',#1330,1.);
#300=VECTOR('',#1339,1.);
#301=VECTOR('',#1342,1.);
#302=VECTOR('',#1347,1.);
#303=VECTOR('',#1350,1.);
#304=VECTOR('',#1353,1.);
#305=VECTOR('',#1356,1.);
#306=VECTOR('',#1359,1.);
#307=VECTOR('',#1362,1.);
#308=VECTOR('',#1365,1.);
#309=VECTOR('',#1368,1.);
#310=VECTOR('',#1371,1.);
#311=VECTOR('',#1374,1.);
#312=VECTOR('',#1377,1.);
#313=VECTOR('',#1380,1.);
#314=VECTOR('',#1383,1.);
#315=VECTOR('',#1386,1.);
#316=VECTOR('',#1389,1.);
#317=VECTOR('',#1392,1.);
#318=VECTOR('',#1395,1.);
#319=VECTOR('',#1398,1.);
#320=VECTOR('',#1401,1.);
#321=VECTOR('',#1404,1.);
#322=VECTOR('',#1407,1.);
#323=VECTOR('',#1410,1.);
#324=VECTOR('',#1413,1.);
#325=VECTOR('',#1416,1.);
#326=VECTOR('',#1419,1.);
#327=VECTOR('',#1422,1.);
#328=VECTOR('',#1425,1.);
#329=VECTOR('',#1428,1.);
#330=VECTOR('',#1431,1.);
#331=VECTOR('',#1434,1.);
#332=VECTOR('',#1437,1.);
#333=VECTOR('',#1440,1.);
#334=VECTOR('',#1443,1.);
#335=VECTOR('',#1446,1.);
#336=VECTOR('',#1449,1.);
#337=VECTOR('',#1452,1.);
#338=VECTOR('',#1455,1.);
#339=VECTOR('',#1458,1.);
#340=VECTOR('',#1463,1.);
#341=VECTOR('',#1466,1.);
#342=ORIENTED_EDGE('',*,*,#650,.F.);
#343=ORIENTED_EDGE('',*,*,#651,.F.);
#344=ORIENTED_EDGE('',*,*,#652,.F.);
#345=ORIENTED_EDGE('',*,*,#653,.F.);
#346=ORIENTED_EDGE('',*,*,#654,.F.);
#347=ORIENTED_EDGE('',*,*,#655,.F.);
#348=ORIENTED_EDGE('',*,*,#656,.F.);
#349=ORIENTED_EDGE('',*,*,#657,.F.);
#350=ORIENTED_EDGE('',*,*,#658,.F.);
#351=ORIENTED_EDGE('',*,*,#659,.F.);
#352=ORIENTED_EDGE('',*,*,#660,.F.);
#353=ORIENTED_EDGE('',*,*,#661,.F.);
#354=ORIENTED_EDGE('',*,*,#662,.F.);
#355=ORIENTED_EDGE('',*,*,#663,.F.);
#356=ORIENTED_EDGE('',*,*,#664,.F.);
#357=ORIENTED_EDGE('',*,*,#665,.F.);
#358=ORIENTED_EDGE('',*,*,#666,.F.);
#359=ORIENTED_EDGE('',*,*,#667,.T.);
#360=ORIENTED_EDGE('',*,*,#668,.F.);
#361=ORIENTED_EDGE('',*,*,#656,.T.);
#362=ORIENTED_EDGE('',*,*,#669,.F.);
#363=ORIENTED_EDGE('',*,*,#670,.F.);
#364=ORIENTED_EDGE('',*,*,#671,.T.);
#365=ORIENTED_EDGE('',*,*,#664,.T.);
#366=ORIENTED_EDGE('',*,*,#672,.F.);
#367=ORIENTED_EDGE('',*,*,#660,.T.);
#368=ORIENTED_EDGE('',*,*,#673,.F.);
#369=ORIENTED_EDGE('',*,*,#674,.T.);
#370=ORIENTED_EDGE('',*,*,#675,.T.);
#371=ORIENTED_EDGE('',*,*,#652,.T.);
#372=ORIENTED_EDGE('',*,*,#676,.T.);
#373=ORIENTED_EDGE('',*,*,#677,.T.);
#374=ORIENTED_EDGE('',*,*,#678,.T.);
#375=ORIENTED_EDGE('',*,*,#679,.F.);
#376=ORIENTED_EDGE('',*,*,#680,.F.);
#377=ORIENTED_EDGE('',*,*,#681,.F.);
#378=ORIENTED_EDGE('',*,*,#682,.F.);
#379=ORIENTED_EDGE('',*,*,#683,.F.);
#380=ORIENTED_EDGE('',*,*,#684,.F.);
#381=ORIENTED_EDGE('',*,*,#685,.F.);
#382=ORIENTED_EDGE('',*,*,#686,.F.);
#383=ORIENTED_EDGE('',*,*,#687,.F.);
#384=ORIENTED_EDGE('',*,*,#688,.F.);
#385=ORIENTED_EDGE('',*,*,#689,.F.);
#386=ORIENTED_EDGE('',*,*,#690,.F.);
#387=ORIENTED_EDGE('',*,*,#691,.T.);
#388=ORIENTED_EDGE('',*,*,#692,.T.);
#389=ORIENTED_EDGE('',*,*,#693,.T.);
#390=ORIENTED_EDGE('',*,*,#694,.F.);
#391=ORIENTED_EDGE('',*,*,#695,.T.);
#392=ORIENTED_EDGE('',*,*,#696,.T.);
#393=ORIENTED_EDGE('',*,*,#697,.F.);
#394=ORIENTED_EDGE('',*,*,#698,.F.);
#395=ORIENTED_EDGE('',*,*,#699,.T.);
#396=ORIENTED_EDGE('',*,*,#700,.T.);
#397=ORIENTED_EDGE('',*,*,#701,.T.);
#398=ORIENTED_EDGE('',*,*,#702,.T.);
#399=ORIENTED_EDGE('',*,*,#703,.T.);
#400=ORIENTED_EDGE('',*,*,#704,.T.);
#401=ORIENTED_EDGE('',*,*,#705,.T.);
#402=ORIENTED_EDGE('',*,*,#706,.T.);
#403=ORIENTED_EDGE('',*,*,#707,.T.);
#404=ORIENTED_EDGE('',*,*,#708,.T.);
#405=ORIENTED_EDGE('',*,*,#709,.T.);
#406=ORIENTED_EDGE('',*,*,#710,.T.);
#407=ORIENTED_EDGE('',*,*,#711,.T.);
#408=ORIENTED_EDGE('',*,*,#712,.F.);
#409=ORIENTED_EDGE('',*,*,#713,.T.);
#410=ORIENTED_EDGE('',*,*,#714,.T.);
#411=ORIENTED_EDGE('',*,*,#715,.F.);
#412=ORIENTED_EDGE('',*,*,#716,.T.);
#413=ORIENTED_EDGE('',*,*,#654,.T.);
#414=ORIENTED_EDGE('',*,*,#717,.T.);
#415=ORIENTED_EDGE('',*,*,#718,.F.);
#416=ORIENTED_EDGE('',*,*,#719,.T.);
#417=ORIENTED_EDGE('',*,*,#720,.F.);
#418=ORIENTED_EDGE('',*,*,#721,.F.);
#419=ORIENTED_EDGE('',*,*,#722,.F.);
#420=ORIENTED_EDGE('',*,*,#723,.F.);
#421=ORIENTED_EDGE('',*,*,#724,.F.);
#422=ORIENTED_EDGE('',*,*,#725,.F.);
#423=ORIENTED_EDGE('',*,*,#726,.F.);
#424=ORIENTED_EDGE('',*,*,#727,.F.);
#425=ORIENTED_EDGE('',*,*,#728,.F.);
#426=ORIENTED_EDGE('',*,*,#729,.F.);
#427=ORIENTED_EDGE('',*,*,#730,.F.);
#428=ORIENTED_EDGE('',*,*,#731,.F.);
#429=ORIENTED_EDGE('',*,*,#732,.F.);
#430=ORIENTED_EDGE('',*,*,#733,.T.);
#431=ORIENTED_EDGE('',*,*,#734,.T.);
#432=ORIENTED_EDGE('',*,*,#735,.F.);
#433=ORIENTED_EDGE('',*,*,#736,.F.);
#434=ORIENTED_EDGE('',*,*,#737,.T.);
#435=ORIENTED_EDGE('',*,*,#738,.F.);
#436=ORIENTED_EDGE('',*,*,#739,.F.);
#437=ORIENTED_EDGE('',*,*,#740,.F.);
#438=ORIENTED_EDGE('',*,*,#741,.T.);
#439=ORIENTED_EDGE('',*,*,#742,.T.);
#440=ORIENTED_EDGE('',*,*,#743,.T.);
#441=ORIENTED_EDGE('',*,*,#744,.T.);
#442=ORIENTED_EDGE('',*,*,#745,.T.);
#443=ORIENTED_EDGE('',*,*,#746,.T.);
#444=ORIENTED_EDGE('',*,*,#747,.T.);
#445=ORIENTED_EDGE('',*,*,#748,.T.);
#446=ORIENTED_EDGE('',*,*,#749,.T.);
#447=ORIENTED_EDGE('',*,*,#750,.T.);
#448=ORIENTED_EDGE('',*,*,#751,.T.);
#449=ORIENTED_EDGE('',*,*,#752,.T.);
#450=ORIENTED_EDGE('',*,*,#753,.F.);
#451=ORIENTED_EDGE('',*,*,#754,.F.);
#452=ORIENTED_EDGE('',*,*,#755,.F.);
#453=ORIENTED_EDGE('',*,*,#650,.T.);
#454=ORIENTED_EDGE('',*,*,#756,.F.);
#455=ORIENTED_EDGE('',*,*,#757,.F.);
#456=ORIENTED_EDGE('',*,*,#758,.T.);
#457=ORIENTED_EDGE('',*,*,#658,.T.);
#458=ORIENTED_EDGE('',*,*,#759,.T.);
#459=ORIENTED_EDGE('',*,*,#662,.T.);
#460=ORIENTED_EDGE('',*,*,#760,.F.);
#461=ORIENTED_EDGE('',*,*,#761,.T.);
#462=ORIENTED_EDGE('',*,*,#714,.F.);
#463=ORIENTED_EDGE('',*,*,#666,.T.);
#464=ORIENTED_EDGE('',*,*,#715,.T.);
#465=ORIENTED_EDGE('',*,*,#667,.F.);
#466=ORIENTED_EDGE('',*,*,#672,.T.);
#467=ORIENTED_EDGE('',*,*,#663,.T.);
#468=ORIENTED_EDGE('',*,*,#759,.F.);
#469=ORIENTED_EDGE('',*,*,#661,.T.);
#470=ORIENTED_EDGE('',*,*,#673,.T.);
#471=ORIENTED_EDGE('',*,*,#659,.T.);
#472=ORIENTED_EDGE('',*,*,#758,.F.);
#473=ORIENTED_EDGE('',*,*,#762,.T.);
#474=ORIENTED_EDGE('',*,*,#674,.F.);
#475=ORIENTED_EDGE('',*,*,#762,.F.);
#476=ORIENTED_EDGE('',*,*,#757,.T.);
#477=ORIENTED_EDGE('',*,*,#763,.T.);
#478=ORIENTED_EDGE('',*,*,#756,.T.);
#479=ORIENTED_EDGE('',*,*,#653,.T.);
#480=ORIENTED_EDGE('',*,*,#675,.F.);
#481=ORIENTED_EDGE('',*,*,#763,.F.);
#482=ORIENTED_EDGE('',*,*,#676,.F.);
#483=ORIENTED_EDGE('',*,*,#651,.T.);
#484=ORIENTED_EDGE('',*,*,#755,.T.);
#485=ORIENTED_EDGE('',*,*,#764,.T.);
#486=ORIENTED_EDGE('',*,*,#677,.F.);
#487=ORIENTED_EDGE('',*,*,#764,.F.);
#488=ORIENTED_EDGE('',*,*,#754,.T.);
#489=ORIENTED_EDGE('',*,*,#765,.T.);
#490=ORIENTED_EDGE('',*,*,#678,.F.);
#491=ORIENTED_EDGE('',*,*,#765,.F.);
#492=ORIENTED_EDGE('',*,*,#753,.T.);
#493=ORIENTED_EDGE('',*,*,#766,.T.);
#494=ORIENTED_EDGE('',*,*,#679,.T.);
#495=ORIENTED_EDGE('',*,*,#766,.F.);
#496=ORIENTED_EDGE('',*,*,#752,.F.);
#497=ORIENTED_EDGE('',*,*,#767,.T.);
#498=ORIENTED_EDGE('',*,*,#680,.T.);
#499=ORIENTED_EDGE('',*,*,#767,.F.);
#500=ORIENTED_EDGE('',*,*,#751,.F.);
#501=ORIENTED_EDGE('',*,*,#768,.T.);
#502=ORIENTED_EDGE('',*,*,#681,.T.);
#503=ORIENTED_EDGE('',*,*,#768,.F.);
#504=ORIENTED_EDGE('',*,*,#750,.F.);
#505=ORIENTED_EDGE('',*,*,#769,.T.);
#506=ORIENTED_EDGE('',*,*,#682,.T.);
#507=ORIENTED_EDGE('',*,*,#769,.F.);
#508=ORIENTED_EDGE('',*,*,#749,.F.);
#509=ORIENTED_EDGE('',*,*,#770,.T.);
#510=ORIENTED_EDGE('',*,*,#683,.T.);
#511=ORIENTED_EDGE('',*,*,#770,.F.);
#512=ORIENTED_EDGE('',*,*,#748,.F.);
#513=ORIENTED_EDGE('',*,*,#771,.T.);
#514=ORIENTED_EDGE('',*,*,#684,.T.);
#515=ORIENTED_EDGE('',*,*,#771,.F.);
#516=ORIENTED_EDGE('',*,*,#747,.F.);
#517=ORIENTED_EDGE('',*,*,#772,.T.);
#518=ORIENTED_EDGE('',*,*,#685,.T.);
#519=ORIENTED_EDGE('',*,*,#772,.F.);
#520=ORIENTED_EDGE('',*,*,#746,.F.);
#521=ORIENTED_EDGE('',*,*,#773,.T.);
#522=ORIENTED_EDGE('',*,*,#686,.T.);
#523=ORIENTED_EDGE('',*,*,#773,.F.);
#524=ORIENTED_EDGE('',*,*,#745,.F.);
#525=ORIENTED_EDGE('',*,*,#774,.T.);
#526=ORIENTED_EDGE('',*,*,#687,.T.);
#527=ORIENTED_EDGE('',*,*,#774,.F.);
#528=ORIENTED_EDGE('',*,*,#744,.F.);
#529=ORIENTED_EDGE('',*,*,#775,.T.);
#530=ORIENTED_EDGE('',*,*,#688,.T.);
#531=ORIENTED_EDGE('',*,*,#775,.F.);
#532=ORIENTED_EDGE('',*,*,#743,.F.);
#533=ORIENTED_EDGE('',*,*,#776,.T.);
#534=ORIENTED_EDGE('',*,*,#689,.T.);
#535=ORIENTED_EDGE('',*,*,#776,.F.);
#536=ORIENTED_EDGE('',*,*,#742,.F.);
#537=ORIENTED_EDGE('',*,*,#777,.T.);
#538=ORIENTED_EDGE('',*,*,#690,.T.);
#539=ORIENTED_EDGE('',*,*,#777,.F.);
#540=ORIENTED_EDGE('',*,*,#741,.F.);
#541=ORIENTED_EDGE('',*,*,#778,.T.);
#542=ORIENTED_EDGE('',*,*,#691,.F.);
#543=ORIENTED_EDGE('',*,*,#778,.F.);
#544=ORIENTED_EDGE('',*,*,#740,.T.);
#545=ORIENTED_EDGE('',*,*,#779,.T.);
#546=ORIENTED_EDGE('',*,*,#692,.F.);
#547=ORIENTED_EDGE('',*,*,#779,.F.);
#548=ORIENTED_EDGE('',*,*,#739,.T.);
#549=ORIENTED_EDGE('',*,*,#780,.T.);
#550=ORIENTED_EDGE('',*,*,#693,.F.);
#551=ORIENTED_EDGE('',*,*,#780,.F.);
#552=ORIENTED_EDGE('',*,*,#738,.T.);
#553=ORIENTED_EDGE('',*,*,#781,.T.);
#554=ORIENTED_EDGE('',*,*,#694,.T.);
#555=ORIENTED_EDGE('',*,*,#781,.F.);
#556=ORIENTED_EDGE('',*,*,#737,.F.);
#557=ORIENTED_EDGE('',*,*,#782,.T.);
#558=ORIENTED_EDGE('',*,*,#695,.F.);
#559=ORIENTED_EDGE('',*,*,#782,.F.);
#560=ORIENTED_EDGE('',*,*,#736,.T.);
#561=ORIENTED_EDGE('',*,*,#783,.T.);
#562=ORIENTED_EDGE('',*,*,#696,.F.);
#563=ORIENTED_EDGE('',*,*,#783,.F.);
#564=ORIENTED_EDGE('',*,*,#735,.T.);
#565=ORIENTED_EDGE('',*,*,#784,.T.);
#566=ORIENTED_EDGE('',*,*,#697,.T.);
#567=ORIENTED_EDGE('',*,*,#784,.F.);
#568=ORIENTED_EDGE('',*,*,#734,.F.);
#569=ORIENTED_EDGE('',*,*,#785,.T.);
#570=ORIENTED_EDGE('',*,*,#698,.T.);
#571=ORIENTED_EDGE('',*,*,#785,.F.);
#572=ORIENTED_EDGE('',*,*,#733,.F.);
#573=ORIENTED_EDGE('',*,*,#786,.T.);
#574=ORIENTED_EDGE('',*,*,#699,.F.);
#575=ORIENTED_EDGE('',*,*,#786,.F.);
#576=ORIENTED_EDGE('',*,*,#732,.T.);
#577=ORIENTED_EDGE('',*,*,#787,.T.);
#578=ORIENTED_EDGE('',*,*,#700,.F.);
#579=ORIENTED_EDGE('',*,*,#787,.F.);
#580=ORIENTED_EDGE('',*,*,#731,.T.);
#581=ORIENTED_EDGE('',*,*,#788,.T.);
#582=ORIENTED_EDGE('',*,*,#701,.F.);
#583=ORIENTED_EDGE('',*,*,#788,.F.);
#584=ORIENTED_EDGE('',*,*,#730,.T.);
#585=ORIENTED_EDGE('',*,*,#789,.T.);
#586=ORIENTED_EDGE('',*,*,#702,.F.);
#587=ORIENTED_EDGE('',*,*,#789,.F.);
#588=ORIENTED_EDGE('',*,*,#729,.T.);
#589=ORIENTED_EDGE('',*,*,#790,.T.);
#590=ORIENTED_EDGE('',*,*,#703,.F.);
#591=ORIENTED_EDGE('',*,*,#790,.F.);
#592=ORIENTED_EDGE('',*,*,#728,.T.);
#593=ORIENTED_EDGE('',*,*,#791,.T.);
#594=ORIENTED_EDGE('',*,*,#704,.F.);
#595=ORIENTED_EDGE('',*,*,#791,.F.);
#596=ORIENTED_EDGE('',*,*,#727,.T.);
#597=ORIENTED_EDGE('',*,*,#792,.T.);
#598=ORIENTED_EDGE('',*,*,#705,.F.);
#599=ORIENTED_EDGE('',*,*,#792,.F.);
#600=ORIENTED_EDGE('',*,*,#726,.T.);
#601=ORIENTED_EDGE('',*,*,#793,.T.);
#602=ORIENTED_EDGE('',*,*,#706,.F.);
#603=ORIENTED_EDGE('',*,*,#793,.F.);
#604=ORIENTED_EDGE('',*,*,#725,.T.);
#605=ORIENTED_EDGE('',*,*,#794,.T.);
#606=ORIENTED_EDGE('',*,*,#707,.F.);
#607=ORIENTED_EDGE('',*,*,#794,.F.);
#608=ORIENTED_EDGE('',*,*,#724,.T.);
#609=ORIENTED_EDGE('',*,*,#795,.T.);
#610=ORIENTED_EDGE('',*,*,#708,.F.);
#611=ORIENTED_EDGE('',*,*,#795,.F.);
#612=ORIENTED_EDGE('',*,*,#723,.T.);
#613=ORIENTED_EDGE('',*,*,#796,.T.);
#614=ORIENTED_EDGE('',*,*,#709,.F.);
#615=ORIENTED_EDGE('',*,*,#796,.F.);
#616=ORIENTED_EDGE('',*,*,#722,.T.);
#617=ORIENTED_EDGE('',*,*,#797,.T.);
#618=ORIENTED_EDGE('',*,*,#710,.F.);
#619=ORIENTED_EDGE('',*,*,#797,.F.);
#620=ORIENTED_EDGE('',*,*,#721,.T.);
#621=ORIENTED_EDGE('',*,*,#798,.T.);
#622=ORIENTED_EDGE('',*,*,#711,.F.);
#623=ORIENTED_EDGE('',*,*,#798,.F.);
#624=ORIENTED_EDGE('',*,*,#720,.T.);
#625=ORIENTED_EDGE('',*,*,#799,.T.);
#626=ORIENTED_EDGE('',*,*,#712,.T.);
#627=ORIENTED_EDGE('',*,*,#799,.F.);
#628=ORIENTED_EDGE('',*,*,#719,.F.);
#629=ORIENTED_EDGE('',*,*,#800,.T.);
#630=ORIENTED_EDGE('',*,*,#713,.F.);
#631=ORIENTED_EDGE('',*,*,#800,.F.);
#632=ORIENTED_EDGE('',*,*,#718,.T.);
#633=ORIENTED_EDGE('',*,*,#801,.T.);
#634=ORIENTED_EDGE('',*,*,#717,.F.);
#635=ORIENTED_EDGE('',*,*,#657,.T.);
#636=ORIENTED_EDGE('',*,*,#668,.T.);
#637=ORIENTED_EDGE('',*,*,#801,.F.);
#638=ORIENTED_EDGE('',*,*,#669,.T.);
#639=ORIENTED_EDGE('',*,*,#655,.T.);
#640=ORIENTED_EDGE('',*,*,#716,.F.);
#641=ORIENTED_EDGE('',*,*,#802,.T.);
#642=ORIENTED_EDGE('',*,*,#670,.T.);
#643=ORIENTED_EDGE('',*,*,#802,.F.);
#644=ORIENTED_EDGE('',*,*,#761,.F.);
#645=ORIENTED_EDGE('',*,*,#803,.T.);
#646=ORIENTED_EDGE('',*,*,#760,.T.);
#647=ORIENTED_EDGE('',*,*,#665,.T.);
#648=ORIENTED_EDGE('',*,*,#671,.F.);
#649=ORIENTED_EDGE('',*,*,#803,.F.);
#650=EDGE_CURVE('',#804,#805,#908,.T.);
#651=EDGE_CURVE('',#806,#804,#66,.T.);
#652=EDGE_CURVE('',#807,#806,#909,.T.);
#653=EDGE_CURVE('',#805,#807,#67,.T.);
#654=EDGE_CURVE('',#808,#809,#910,.T.);
#655=EDGE_CURVE('',#810,#808,#68,.T.);
#656=EDGE_CURVE('',#811,#810,#911,.T.);
#657=EDGE_CURVE('',#809,#811,#69,.T.);
#658=EDGE_CURVE('',#812,#813,#912,.T.);
#659=EDGE_CURVE('',#814,#812,#70,.T.);
#660=EDGE_CURVE('',#815,#814,#913,.T.);
#661=EDGE_CURVE('',#813,#815,#71,.T.);
#662=EDGE_CURVE('',#816,#817,#914,.T.);
#663=EDGE_CURVE('',#818,#816,#72,.T.);
#664=EDGE_CURVE('',#819,#818,#915,.T.);
#665=EDGE_CURVE('',#817,#819,#73,.T.);
#666=EDGE_CURVE('',#820,#820,#916,.T.);
#667=EDGE_CURVE('',#821,#821,#917,.T.);
#668=EDGE_CURVE('',#811,#822,#74,.T.);
#669=EDGE_CURVE('',#823,#810,#75,.T.);
#670=EDGE_CURVE('',#824,#823,#76,.T.);
#671=EDGE_CURVE('',#824,#819,#918,.T.);
#672=EDGE_CURVE('',#815,#818,#77,.T.);
#673=EDGE_CURVE('',#825,#814,#919,.T.);
#674=EDGE_CURVE('',#825,#826,#78,.T.);
#675=EDGE_CURVE('',#826,#807,#79,.T.);
#676=EDGE_CURVE('',#806,#827,#80,.T.);
#677=EDGE_CURVE('',#827,#828,#81,.T.);
#678=EDGE_CURVE('',#828,#829,#82,.T.);
#679=EDGE_CURVE('',#830,#829,#83,.T.);
#680=EDGE_CURVE('',#831,#830,#84,.T.);
#681=EDGE_CURVE('',#832,#831,#85,.T.);
#682=EDGE_CURVE('',#833,#832,#86,.T.);
#683=EDGE_CURVE('',#834,#833,#87,.T.);
#684=EDGE_CURVE('',#835,#834,#88,.T.);
#685=EDGE_CURVE('',#836,#835,#89,.T.);
#686=EDGE_CURVE('',#837,#836,#90,.T.);
#687=EDGE_CURVE('',#838,#837,#91,.T.);
#688=EDGE_CURVE('',#839,#838,#92,.T.);
#689=EDGE_CURVE('',#840,#839,#93,.T.);
#690=EDGE_CURVE('',#841,#840,#94,.T.);
#691=EDGE_CURVE('',#841,#842,#95,.T.);
#692=EDGE_CURVE('',#842,#843,#96,.T.);
#693=EDGE_CURVE('',#843,#844,#97,.T.);
#694=EDGE_CURVE('',#845,#844,#98,.T.);
#695=EDGE_CURVE('',#845,#846,#99,.T.);
#696=EDGE_CURVE('',#846,#847,#100,.T.);
#697=EDGE_CURVE('',#848,#847,#101,.T.);
#698=EDGE_CURVE('',#849,#848,#102,.T.);
#699=EDGE_CURVE('',#849,#850,#103,.T.);
#700=EDGE_CURVE('',#850,#851,#104,.T.);
#701=EDGE_CURVE('',#851,#852,#105,.T.);
#702=EDGE_CURVE('',#852,#853,#106,.T.);
#703=EDGE_CURVE('',#853,#854,#107,.T.);
#704=EDGE_CURVE('',#854,#855,#108,.T.);
#705=EDGE_CURVE('',#855,#856,#109,.T.);
#706=EDGE_CURVE('',#856,#857,#110,.T.);
#707=EDGE_CURVE('',#857,#858,#111,.T.);
#708=EDGE_CURVE('',#858,#859,#112,.T.);
#709=EDGE_CURVE('',#859,#860,#113,.T.);
#710=EDGE_CURVE('',#860,#861,#114,.T.);
#711=EDGE_CURVE('',#861,#862,#115,.T.);
#712=EDGE_CURVE('',#863,#862,#116,.T.);
#713=EDGE_CURVE('',#863,#822,#117,.T.);
#714=EDGE_CURVE('',#864,#864,#920,.T.);
#715=EDGE_CURVE('',#865,#865,#921,.T.);
#716=EDGE_CURVE('',#866,#808,#118,.T.);
#717=EDGE_CURVE('',#809,#867,#119,.T.);
#718=EDGE_CURVE('',#868,#867,#120,.T.);
#719=EDGE_CURVE('',#868,#869,#121,.T.);
#720=EDGE_CURVE('',#870,#869,#122,.T.);
#721=EDGE_CURVE('',#871,#870,#123,.T.);
#722=EDGE_CURVE('',#872,#871,#124,.T.);
#723=EDGE_CURVE('',#873,#872,#125,.T.);
#724=EDGE_CURVE('',#874,#873,#126,.T.);
#725=EDGE_CURVE('',#875,#874,#127,.T.);
#726=EDGE_CURVE('',#876,#875,#128,.T.);
#727=EDGE_CURVE('',#877,#876,#129,.T.);
#728=EDGE_CURVE('',#878,#877,#130,.T.);
#729=EDGE_CURVE('',#879,#878,#131,.T.);
#730=EDGE_CURVE('',#880,#879,#132,.T.);
#731=EDGE_CURVE('',#881,#880,#133,.T.);
#732=EDGE_CURVE('',#882,#881,#134,.T.);
#733=EDGE_CURVE('',#882,#883,#135,.T.);
#734=EDGE_CURVE('',#883,#884,#136,.T.);
#735=EDGE_CURVE('',#885,#884,#137,.T.);
#736=EDGE_CURVE('',#886,#885,#138,.T.);
#737=EDGE_CURVE('',#886,#887,#139,.T.);
#738=EDGE_CURVE('',#888,#887,#140,.T.);
#739=EDGE_CURVE('',#889,#888,#141,.T.);
#740=EDGE_CURVE('',#890,#889,#142,.T.);
#741=EDGE_CURVE('',#890,#891,#143,.T.);
#742=EDGE_CURVE('',#891,#892,#144,.T.);
#743=EDGE_CURVE('',#892,#893,#145,.T.);
#744=EDGE_CURVE('',#893,#894,#146,.T.);
#745=EDGE_CURVE('',#894,#895,#147,.T.);
#746=EDGE_CURVE('',#895,#896,#148,.T.);
#747=EDGE_CURVE('',#896,#897,#149,.T.);
#748=EDGE_CURVE('',#897,#898,#150,.T.);
#749=EDGE_CURVE('',#898,#899,#151,.T.);
#750=EDGE_CURVE('',#899,#900,#152,.T.);
#751=EDGE_CURVE('',#900,#901,#153,.T.);
#752=EDGE_CURVE('',#901,#902,#154,.T.);
#753=EDGE_CURVE('',#903,#902,#155,.T.);
#754=EDGE_CURVE('',#904,#903,#156,.T.);
#755=EDGE_CURVE('',#804,#904,#157,.T.);
#756=EDGE_CURVE('',#905,#805,#158,.T.);
#757=EDGE_CURVE('',#906,#905,#159,.T.);
#758=EDGE_CURVE('',#906,#812,#922,.T.);
#759=EDGE_CURVE('',#813,#816,#160,.T.);
#760=EDGE_CURVE('',#907,#817,#923,.T.);
#761=EDGE_CURVE('',#907,#866,#161,.T.);
#762=EDGE_CURVE('',#906,#825,#162,.T.);
#763=EDGE_CURVE('',#905,#826,#163,.T.);
#764=EDGE_CURVE('',#904,#827,#164,.T.);
#765=EDGE_CURVE('',#903,#828,#165,.T.);
#766=EDGE_CURVE('',#902,#829,#166,.T.);
#767=EDGE_CURVE('',#901,#830,#167,.T.);
#768=EDGE_CURVE('',#900,#831,#168,.T.);
#769=EDGE_CURVE('',#899,#832,#169,.T.);
#770=EDGE_CURVE('',#898,#833,#170,.T.);
#771=EDGE_CURVE('',#897,#834,#171,.T.);
#772=EDGE_CURVE('',#896,#835,#172,.T.);
#773=EDGE_CURVE('',#895,#836,#173,.T.);
#774=EDGE_CURVE('',#894,#837,#174,.T.);
#775=EDGE_CURVE('',#893,#838,#175,.T.);
#776=EDGE_CURVE('',#892,#839,#176,.T.);
#777=EDGE_CURVE('',#891,#840,#177,.T.);
#778=EDGE_CURVE('',#890,#841,#178,.T.);
#779=EDGE_CURVE('',#889,#842,#179,.T.);
#780=EDGE_CURVE('',#888,#843,#180,.T.);
#781=EDGE_CURVE('',#887,#844,#181,.T.);
#782=EDGE_CURVE('',#886,#845,#182,.T.);
#783=EDGE_CURVE('',#885,#846,#183,.T.);
#784=EDGE_CURVE('',#884,#847,#184,.T.);
#785=EDGE_CURVE('',#883,#848,#185,.T.);
#786=EDGE_CURVE('',#882,#849,#186,.T.);
#787=EDGE_CURVE('',#881,#850,#187,.T.);
#788=EDGE_CURVE('',#880,#851,#188,.T.);
#789=EDGE_CURVE('',#879,#852,#189,.T.);
#790=EDGE_CURVE('',#878,#853,#190,.T.);
#791=EDGE_CURVE('',#877,#854,#191,.T.);
#792=EDGE_CURVE('',#876,#855,#192,.T.);
#793=EDGE_CURVE('',#875,#856,#193,.T.);
#794=EDGE_CURVE('',#874,#857,#194,.T.);
#795=EDGE_CURVE('',#873,#858,#195,.T.);
#796=EDGE_CURVE('',#872,#859,#196,.T.);
#797=EDGE_CURVE('',#871,#860,#197,.T.);
#798=EDGE_CURVE('',#870,#861,#198,.T.);
#799=EDGE_CURVE('',#869,#862,#199,.T.);
#800=EDGE_CURVE('',#868,#863,#200,.T.);
#801=EDGE_CURVE('',#867,#822,#201,.T.);
#802=EDGE_CURVE('',#866,#823,#202,.T.);
#803=EDGE_CURVE('',#907,#824,#203,.T.);
#804=VERTEX_POINT('',#1472);
#805=VERTEX_POINT('',#1473);
#806=VERTEX_POINT('',#1475);
#807=VERTEX_POINT('',#1477);
#808=VERTEX_POINT('',#1481);
#809=VERTEX_POINT('',#1482);
#810=VERTEX_POINT('',#1484);
#811=VERTEX_POINT('',#1486);
#812=VERTEX_POINT('',#1490);
#813=VERTEX_POINT('',#1491);
#814=VERTEX_POINT('',#1493);
#815=VERTEX_POINT('',#1495);
#816=VERTEX_POINT('',#1499);
#817=VERTEX_POINT('',#1500);
#818=VERTEX_POINT('',#1502);
#819=VERTEX_POINT('',#1504);
#820=VERTEX_POINT('',#1508);
#821=VERTEX_POINT('',#1510);
#822=VERTEX_POINT('',#1512);
#823=VERTEX_POINT('',#1514);
#824=VERTEX_POINT('',#1516);
#825=VERTEX_POINT('',#1520);
#826=VERTEX_POINT('',#1522);
#827=VERTEX_POINT('',#1525);
#828=VERTEX_POINT('',#1527);
#829=VERTEX_POINT('',#1529);
#830=VERTEX_POINT('',#1531);
#831=VERTEX_POINT('',#1533);
#832=VERTEX_POINT('',#1535);
#833=VERTEX_POINT('',#1537);
#834=VERTEX_POINT('',#1539);
#835=VERTEX_POINT('',#1541);
#836=VERTEX_POINT('',#1543);
#837=VERTEX_POINT('',#1545);
#838=VERTEX_POINT('',#1547);
#839=VERTEX_POINT('',#1549);
#840=VERTEX_POINT('',#1551);
#841=VERTEX_POINT('',#1553);
#842=VERTEX_POINT('',#1555);
#843=VERTEX_POINT('',#1557);
#844=VERTEX_POINT('',#1559);
#845=VERTEX_POINT('',#1561);
#846=VERTEX_POINT('',#1563);
#847=VERTEX_POINT('',#1565);
#848=VERTEX_POINT('',#1567);
#849=VERTEX_POINT('',#1569);
#850=VERTEX_POINT('',#1571);
#851=VERTEX_POINT('',#1573);
#852=VERTEX_POINT('',#1575);
#853=VERTEX_POINT('',#1577);
#854=VERTEX_POINT('',#1579);
#855=VERTEX_POINT('',#1581);
#856=VERTEX_POINT('',#1583);
#857=VERTEX_POINT('',#1585);
#858=VERTEX_POINT('',#1587);
#859=VERTEX_POINT('',#1589);
#860=VERTEX_POINT('',#1591);
#861=VERTEX_POINT('',#1593);
#862=VERTEX_POINT('',#1595);
#863=VERTEX_POINT('',#1597);
#864=VERTEX_POINT('',#1601);
#865=VERTEX_POINT('',#1603);
#866=VERTEX_POINT('',#1605);
#867=VERTEX_POINT('',#1607);
#868=VERTEX_POINT('',#1609);
#869=VERTEX_POINT('',#1611);
#870=VERTEX_POINT('',#1613);
#871=VERTEX_POINT('',#1615);
#872=VERTEX_POINT('',#1617);
#873=VERTEX_POINT('',#1619);
#874=VERTEX_POINT('',#1621);
#875=VERTEX_POINT('',#1623);
#876=VERTEX_POINT('',#1625);
#877=VERTEX_POINT('',#1627);
#878=VERTEX_POINT('',#1629);
#879=VERTEX_POINT('',#1631);
#880=VERTEX_POINT('',#1633);
#881=VERTEX_POINT('',#1635);
#882=VERTEX_POINT('',#1637);
#883=VERTEX_POINT('',#1639);
#884=VERTEX_POINT('',#1641);
#885=VERTEX_POINT('',#1643);
#886=VERTEX_POINT('',#1645);
#887=VERTEX_POINT('',#1647);
#888=VERTEX_POINT('',#1649);
#889=VERTEX_POINT('',#1651);
#890=VERTEX_POINT('',#1653);
#891=VERTEX_POINT('',#1655);
#892=VERTEX_POINT('',#1657);
#893=VERTEX_POINT('',#1659);
#894=VERTEX_POINT('',#1661);
#895=VERTEX_POINT('',#1663);
#896=VERTEX_POINT('',#1665);
#897=VERTEX_POINT('',#1667);
#898=VERTEX_POINT('',#1669);
#899=VERTEX_POINT('',#1671);
#900=VERTEX_POINT('',#1673);
#901=VERTEX_POINT('',#1675);
#902=VERTEX_POINT('',#1677);
#903=VERTEX_POINT('',#1679);
#904=VERTEX_POINT('',#1681);
#905=VERTEX_POINT('',#1684);
#906=VERTEX_POINT('',#1686);
#907=VERTEX_POINT('',#1690);
#908=CIRCLE('',#1120,0.0025);
#909=CIRCLE('',#1121,0.0025);
#910=CIRCLE('',#1123,0.0025);
#911=CIRCLE('',#1124,0.0025);
#912=CIRCLE('',#1126,0.0075);
#913=CIRCLE('',#1127,0.0075);
#914=CIRCLE('',#1129,0.0075);
#915=CIRCLE('',#1130,0.0075);
#916=CIRCLE('',#1132,0.00175);
#917=CIRCLE('',#1133,0.00175);
#918=CIRCLE('',#1134,0.00375);
#919=CIRCLE('',#1135,0.00375);
#920=CIRCLE('',#1137,0.00175);
#921=CIRCLE('',#1138,0.00175);
#922=CIRCLE('',#1139,0.00375);
#923=CIRCLE('',#1140,0.00375);
#924=EDGE_LOOP('',(#342,#343,#344,#345));
#925=EDGE_LOOP('',(#346,#347,#348,#349));
#926=EDGE_LOOP('',(#350,#351,#352,#353));
#927=EDGE_LOOP('',(#354,#355,#356,#357));
#928=EDGE_LOOP('',(#358));
#929=EDGE_LOOP('',(#359));
#930=EDGE_LOOP('',(#360,#361,#362,#363,#364,#365,#366,#367,#368,#369,#370,
#371,#372,#373,#374,#375,#376,#377,#378,#379,#380,#381,#382,#383,#384,#385,
#386,#387,#388,#389,#390,#391,#392,#393,#394,#395,#396,#397,#398,#399,#400,
#401,#402,#403,#404,#405,#406,#407,#408,#409));
#931=EDGE_LOOP('',(#410));
#932=EDGE_LOOP('',(#411));
#933=EDGE_LOOP('',(#412,#413,#414,#415,#416,#417,#418,#419,#420,#421,#422,
#423,#424,#425,#426,#427,#428,#429,#430,#431,#432,#433,#434,#435,#436,#437,
#438,#439,#440,#441,#442,#443,#444,#445,#446,#447,#448,#449,#450,#451,#452,
#453,#454,#455,#456,#457,#458,#459,#460,#461));
#934=EDGE_LOOP('',(#462));
#935=EDGE_LOOP('',(#463));
#936=EDGE_LOOP('',(#464));
#937=EDGE_LOOP('',(#465));
#938=EDGE_LOOP('',(#466,#467,#468,#469));
#939=EDGE_LOOP('',(#470,#471,#472,#473));
#940=EDGE_LOOP('',(#474,#475,#476,#477));
#941=EDGE_LOOP('',(#478,#479,#480,#481));
#942=EDGE_LOOP('',(#482,#483,#484,#485));
#943=EDGE_LOOP('',(#486,#487,#488,#489));
#944=EDGE_LOOP('',(#490,#491,#492,#493));
#945=EDGE_LOOP('',(#494,#495,#496,#497));
#946=EDGE_LOOP('',(#498,#499,#500,#501));
#947=EDGE_LOOP('',(#502,#503,#504,#505));
#948=EDGE_LOOP('',(#506,#507,#508,#509));
#949=EDGE_LOOP('',(#510,#511,#512,#513));
#950=EDGE_LOOP('',(#514,#515,#516,#517));
#951=EDGE_LOOP('',(#518,#519,#520,#521));
#952=EDGE_LOOP('',(#522,#523,#524,#525));
#953=EDGE_LOOP('',(#526,#527,#528,#529));
#954=EDGE_LOOP('',(#530,#531,#532,#533));
#955=EDGE_LOOP('',(#534,#535,#536,#537));
#956=EDGE_LOOP('',(#538,#539,#540,#541));
#957=EDGE_LOOP('',(#542,#543,#544,#545));
#958=EDGE_LOOP('',(#546,#547,#548,#549));
#959=EDGE_LOOP('',(#550,#551,#552,#553));
#960=EDGE_LOOP('',(#554,#555,#556,#557));
#961=EDGE_LOOP('',(#558,#559,#560,#561));
#962=EDGE_LOOP('',(#562,#563,#564,#565));
#963=EDGE_LOOP('',(#566,#567,#568,#569));
#964=EDGE_LOOP('',(#570,#571,#572,#573));
#965=EDGE_LOOP('',(#574,#575,#576,#577));
#966=EDGE_LOOP('',(#578,#579,#580,#581));
#967=EDGE_LOOP('',(#582,#583,#584,#585));
#968=EDGE_LOOP('',(#586,#587,#588,#589));
#969=EDGE_LOOP('',(#590,#591,#592,#593));
#970=EDGE_LOOP('',(#594,#595,#596,#597));
#971=EDGE_LOOP('',(#598,#599,#600,#601));
#972=EDGE_LOOP('',(#602,#603,#604,#605));
#973=EDGE_LOOP('',(#606,#607,#608,#609));
#974=EDGE_LOOP('',(#610,#611,#612,#613));
#975=EDGE_LOOP('',(#614,#615,#616,#617));
#976=EDGE_LOOP('',(#618,#619,#620,#621));
#977=EDGE_LOOP('',(#622,#623,#624,#625));
#978=EDGE_LOOP('',(#626,#627,#628,#629));
#979=EDGE_LOOP('',(#630,#631,#632,#633));
#980=EDGE_LOOP('',(#634,#635,#636,#637));
#981=EDGE_LOOP('',(#638,#639,#640,#641));
#982=EDGE_LOOP('',(#642,#643,#644,#645));
#983=EDGE_LOOP('',(#646,#647,#648,#649));
#984=FACE_BOUND('',#924,.T.);
#985=FACE_BOUND('',#925,.T.);
#986=FACE_BOUND('',#926,.T.);
#987=FACE_BOUND('',#927,.T.);
#988=FACE_BOUND('',#928,.T.);
#989=FACE_BOUND('',#929,.T.);
#990=FACE_BOUND('',#930,.T.);
#991=FACE_BOUND('',#931,.T.);
#992=FACE_BOUND('',#932,.T.);
#993=FACE_BOUND('',#933,.T.);
#994=FACE_BOUND('',#934,.T.);
#995=FACE_BOUND('',#935,.T.);
#996=FACE_BOUND('',#936,.T.);
#997=FACE_BOUND('',#937,.T.);
#998=FACE_BOUND('',#938,.T.);
#999=FACE_BOUND('',#939,.T.);
#1000=FACE_BOUND('',#940,.T.);
#1001=FACE_BOUND('',#941,.T.);
#1002=FACE_BOUND('',#942,.T.);
#1003=FACE_BOUND('',#943,.T.);
#1004=FACE_BOUND('',#944,.T.);
#1005=FACE_BOUND('',#945,.T.);
#1006=FACE_BOUND('',#946,.T.);
#1007=FACE_BOUND('',#947,.T.);
#1008=FACE_BOUND('',#948,.T.);
#1009=FACE_BOUND('',#949,.T.);
#1010=FACE_BOUND('',#950,.T.);
#1011=FACE_BOUND('',#951,.T.);
#1012=FACE_BOUND('',#952,.T.);
#1013=FACE_BOUND('',#953,.T.);
#1014=FACE_BOUND('',#954,.T.);
#1015=FACE_BOUND('',#955,.T.);
#1016=FACE_BOUND('',#956,.T.);
#1017=FACE_BOUND('',#957,.T.);
#1018=FACE_BOUND('',#958,.T.);
#1019=FACE_BOUND('',#959,.T.);
#1020=FACE_BOUND('',#960,.T.);
#1021=FACE_BOUND('',#961,.T.);
#1022=FACE_BOUND('',#962,.T.);
#1023=FACE_BOUND('',#963,.T.);
#1024=FACE_BOUND('',#964,.T.);
#1025=FACE_BOUND('',#965,.T.);
#1026=FACE_BOUND('',#966,.T.);
#1027=FACE_BOUND('',#967,.T.);
#1028=FACE_BOUND('',#968,.T.);
#1029=FACE_BOUND('',#969,.T.);
#1030=FACE_BOUND('',#970,.T.);
#1031=FACE_BOUND('',#971,.T.);
#1032=FACE_BOUND('',#972,.T.);
#1033=FACE_BOUND('',#973,.T.);
#1034=FACE_BOUND('',#974,.T.);
#1035=FACE_BOUND('',#975,.T.);
#1036=FACE_BOUND('',#976,.T.);
#1037=FACE_BOUND('',#977,.T.);
#1038=FACE_BOUND('',#978,.T.);
#1039=FACE_BOUND('',#979,.T.);
#1040=FACE_BOUND('',#980,.T.);
#1041=FACE_BOUND('',#981,.T.);
#1042=FACE_BOUND('',#982,.T.);
#1043=FACE_BOUND('',#983,.T.);
#1044=CYLINDRICAL_SURFACE('',#1119,0.0025);
#1045=CYLINDRICAL_SURFACE('',#1122,0.0025);
#1046=CYLINDRICAL_SURFACE('',#1125,0.0075);
#1047=CYLINDRICAL_SURFACE('',#1128,0.0075);
#1048=CYLINDRICAL_SURFACE('',#1141,0.00175);
#1049=CYLINDRICAL_SURFACE('',#1142,0.00175);
#1050=CYLINDRICAL_SURFACE('',#1144,0.00375);
#1051=CYLINDRICAL_SURFACE('',#1188,0.00375);
#1052=ADVANCED_FACE('',(#984),#1044,.T.);
#1053=ADVANCED_FACE('',(#985),#1045,.T.);
#1054=ADVANCED_FACE('',(#986),#1046,.F.);
#1055=ADVANCED_FACE('',(#987),#1047,.F.);
#1056=ADVANCED_FACE('',(#988,#989,#990),#20,.F.);
#1057=ADVANCED_FACE('',(#991,#992,#993),#21,.T.);
#1058=ADVANCED_FACE('',(#994,#995),#1048,.F.);
#1059=ADVANCED_FACE('',(#996,#997),#1049,.F.);
#1060=ADVANCED_FACE('',(#998),#22,.F.);
#1061=ADVANCED_FACE('',(#999),#1050,.T.);
#1062=ADVANCED_FACE('',(#1000),#23,.T.);
#1063=ADVANCED_FACE('',(#1001),#24,.T.);
#1064=ADVANCED_FACE('',(#1002),#25,.T.);
#1065=ADVANCED_FACE('',(#1003),#26,.T.);
#1066=ADVANCED_FACE('',(#1004),#27,.T.);
#1067=ADVANCED_FACE('',(#1005),#28,.F.);
#1068=ADVANCED_FACE('',(#1006),#29,.F.);
#1069=ADVANCED_FACE('',(#1007),#30,.F.);
#1070=ADVANCED_FACE('',(#1008),#31,.F.);
#1071=ADVANCED_FACE('',(#1009),#32,.F.);
#1072=ADVANCED_FACE('',(#1010),#33,.F.);
#1073=ADVANCED_FACE('',(#1011),#34,.F.);
#1074=ADVANCED_FACE('',(#1012),#35,.F.);
#1075=ADVANCED_FACE('',(#1013),#36,.F.);
#1076=ADVANCED_FACE('',(#1014),#37,.F.);
#1077=ADVANCED_FACE('',(#1015),#38,.F.);
#1078=ADVANCED_FACE('',(#1016),#39,.F.);
#1079=ADVANCED_FACE('',(#1017),#40,.T.);
#1080=ADVANCED_FACE('',(#1018),#41,.T.);
#1081=ADVANCED_FACE('',(#1019),#42,.T.);
#1082=ADVANCED_FACE('',(#1020),#43,.F.);
#1083=ADVANCED_FACE('',(#1021),#44,.T.);
#1084=ADVANCED_FACE('',(#1022),#45,.T.);
#1085=ADVANCED_FACE('',(#1023),#46,.F.);
#1086=ADVANCED_FACE('',(#1024),#47,.F.);
#1087=ADVANCED_FACE('',(#1025),#48,.T.);
#1088=ADVANCED_FACE('',(#1026),#49,.T.);
#1089=ADVANCED_FACE('',(#1027),#50,.T.);
#1090=ADVANCED_FACE('',(#1028),#51,.T.);
#1091=ADVANCED_FACE('',(#1029),#52,.T.);
#1092=ADVANCED_FACE('',(#1030),#53,.T.);
#1093=ADVANCED_FACE('',(#1031),#54,.T.);
#1094=ADVANCED_FACE('',(#1032),#55,.T.);
#1095=ADVANCED_FACE('',(#1033),#56,.T.);
#1096=ADVANCED_FACE('',(#1034),#57,.T.);
#1097=ADVANCED_FACE('',(#1035),#58,.T.);
#1098=ADVANCED_FACE('',(#1036),#59,.T.);
#1099=ADVANCED_FACE('',(#1037),#60,.T.);
#1100=ADVANCED_FACE('',(#1038),#61,.F.);
#1101=ADVANCED_FACE('',(#1039),#62,.T.);
#1102=ADVANCED_FACE('',(#1040),#63,.F.);
#1103=ADVANCED_FACE('',(#1041),#64,.F.);
#1104=ADVANCED_FACE('',(#1042),#65,.F.);
#1105=ADVANCED_FACE('',(#1043),#1051,.T.);
#1106=CLOSED_SHELL('',(#1052,#1053,#1054,#1055,#1056,#1057,#1058,#1059,
#1060,#1061,#1062,#1063,#1064,#1065,#1066,#1067,#1068,#1069,#1070,#1071,
#1072,#1073,#1074,#1075,#1076,#1077,#1078,#1079,#1080,#1081,#1082,#1083,
#1084,#1085,#1086,#1087,#1088,#1089,#1090,#1091,#1092,#1093,#1094,#1095,
#1096,#1097,#1098,#1099,#1100,#1101,#1102,#1103,#1104,#1105));
#1107=STYLED_ITEM('',(#1108),#1115);
#1108=PRESENTATION_STYLE_ASSIGNMENT((#1109));
#1109=SURFACE_STYLE_USAGE(.BOTH.,#1110);
#1110=SURFACE_SIDE_STYLE('',(#1111));
#1111=SURFACE_STYLE_FILL_AREA(#1112);
#1112=FILL_AREA_STYLE('',(#1113));
#1113=FILL_AREA_STYLE_COLOUR('',#1114);
#1114=COLOUR_RGB('',0.8,0.2,0.2);
#1115=MANIFOLD_SOLID_BREP('bumperbrace',#1106);
#1116=SHAPE_DEFINITION_REPRESENTATION(#1788,#1117);
#1117=SHAPE_REPRESENTATION('bumperbrace',(#1118),#1783);
#1118=AXIS2_PLACEMENT_3D('',#1469,#1189,#1190);
#1119=AXIS2_PLACEMENT_3D('',#1470,#1191,#1192);
#1120=AXIS2_PLACEMENT_3D('',#1471,#1193,#1194);
#1121=AXIS2_PLACEMENT_3D('',#1476,#1196,#1197);
#1122=AXIS2_PLACEMENT_3D('',#1479,#1199,#1200);
#1123=AXIS2_PLACEMENT_3D('',#1480,#1201,#1202);
#1124=AXIS2_PLACEMENT_3D('',#1485,#1204,#1205);
#1125=AXIS2_PLACEMENT_3D('',#1488,#1207,#1208);
#1126=AXIS2_PLACEMENT_3D('',#1489,#1209,#1210);
#1127=AXIS2_PLACEMENT_3D('',#1494,#1212,#1213);
#1128=AXIS2_PLACEMENT_3D('',#1497,#1215,#1216);
#1129=AXIS2_PLACEMENT_3D('',#1498,#1217,#1218);
#1130=AXIS2_PLACEMENT_3D('',#1503,#1220,#1221);
#1131=AXIS2_PLACEMENT_3D('',#1506,#1223,#1224);
#1132=AXIS2_PLACEMENT_3D('',#1507,#1225,#1226);
#1133=AXIS2_PLACEMENT_3D('',#1509,#1227,#1228);
#1134=AXIS2_PLACEMENT_3D('',#1517,#1232,#1233);
#1135=AXIS2_PLACEMENT_3D('',#1519,#1235,#1236);
#1136=AXIS2_PLACEMENT_3D('',#1599,#1277,#1278);
#1137=AXIS2_PLACEMENT_3D('',#1600,#1279,#1280);
#1138=AXIS2_PLACEMENT_3D('',#1602,#1281,#1282);
#1139=AXIS2_PLACEMENT_3D('',#1687,#1325,#1326);
#1140=AXIS2_PLACEMENT_3D('',#1689,#1328,#1329);
#1141=AXIS2_PLACEMENT_3D('',#1692,#1331,#1332);
#1142=AXIS2_PLACEMENT_3D('',#1693,#1333,#1334);
#1143=AXIS2_PLACEMENT_3D('',#1694,#1335,#1336);
#1144=AXIS2_PLACEMENT_3D('',#1695,#1337,#1338);
#1145=AXIS2_PLACEMENT_3D('',#1697,#1340,#1341);
#1146=AXIS2_PLACEMENT_3D('',#1699,#1343,#1344);
#1147=AXIS2_PLACEMENT_3D('',#1700,#1345,#1346);
#1148=AXIS2_PLACEMENT_3D('',#1702,#1348,#1349);
#1149=AXIS2_PLACEMENT_3D('',#1704,#1351,#1352);
#1150=AXIS2_PLACEMENT_3D('',#1706,#1354,#1355);
#1151=AXIS2_PLACEMENT_3D('',#1708,#1357,#1358);
#1152=AXIS2_PLACEMENT_3D('',#1710,#1360,#1361);
#1153=AXIS2_PLACEMENT_3D('',#1712,#1363,#1364);
#1154=AXIS2_PLACEMENT_3D('',#1714,#1366,#1367);
#1155=AXIS2_PLACEMENT_3D('',#1716,#1369,#1370);
#1156=AXIS2_PLACEMENT_3D('',#1718,#1372,#1373);
#1157=AXIS2_PLACEMENT_3D('',#1720,#1375,#1376);
#1158=AXIS2_PLACEMENT_3D('',#1722,#1378,#1379);
#1159=AXIS2_PLACEMENT_3D('',#1724,#1381,#1382);
#1160=AXIS2_PLACEMENT_3D('',#1726,#1384,#1385);
#1161=AXIS2_PLACEMENT_3D('',#1728,#1387,#1388);
#1162=AXIS2_PLACEMENT_3D('',#1730,#1390,#1391);
#1163=AXIS2_PLACEMENT_3D('',#1732,#1393,#1394);
#1164=AXIS2_PLACEMENT_3D('',#1734,#1396,#1397);
#1165=AXIS2_PLACEMENT_3D('',#1736,#1399,#1400);
#1166=AXIS2_PLACEMENT_3D('',#1738,#1402,#1403);
#1167=AXIS2_PLACEMENT_3D('',#1740,#1405,#1406);
#1168=AXIS2_PLACEMENT_3D('',#1742,#1408,#1409);
#1169=AXIS2_PLACEMENT_3D('',#1744,#1411,#1412);
#1170=AXIS2_PLACEMENT_3D('',#1746,#1414,#1415);
#1171=AXIS2_PLACEMENT_3D('',#1748,#1417,#1418);
#1172=AXIS2_PLACEMENT_3D('',#1750,#1420,#1421);
#1173=AXIS2_PLACEMENT_3D('',#1752,#1423,#1424);
#1174=AXIS2_PLACEMENT_3D('',#1754,#1426,#1427);
#1175=AXIS2_PLACEMENT_3D('',#1756,#1429,#1430);
#1176=AXIS2_PLACEMENT_3D('',#1758,#1432,#1433);
#1177=AXIS2_PLACEMENT_3D('',#1760,#1435,#1436);
#1178=AXIS2_PLACEMENT_3D('',#1762,#1438,#1439);
#1179=AXIS2_PLACEMENT_3D('',#1764,#1441,#1442);
#1180=AXIS2_PLACEMENT_3D('',#1766,#1444,#1445);
#1181=AXIS2_PLACEMENT_3D('',#1768,#1447,#1448);
#1182=AXIS2_PLACEMENT_3D('',#1770,#1450,#1451);
#1183=AXIS2_PLACEMENT_3D('',#1772,#1453,#1454);
#1184=AXIS2_PLACEMENT_3D('',#1774,#1456,#1457);
#1185=AXIS2_PLACEMENT_3D('',#1776,#1459,#1460);
#1186=AXIS2_PLACEMENT_3D('',#1777,#1461,#1462);
#1187=AXIS2_PLACEMENT_3D('',#1779,#1464,#1465);
#1188=AXIS2_PLACEMENT_3D('',#1781,#1467,#1468);
#1189=DIRECTION('',(0.,0.,1.));
#1190=DIRECTION('',(1.,0.,0.));
#1191=DIRECTION('',(0.,1.,0.));
#1192=DIRECTION('',(0.,0.,-1.));
#1193=DIRECTION('',(0.,1.,0.));
#1194=DIRECTION('',(0.,0.,1.));
#1195=DIRECTION('',(0.,1.,0.));
#1196=DIRECTION('',(0.,-1.,0.));
#1197=DIRECTION('',(0.,0.,1.));
#1198=DIRECTION('',(0.,-1.,0.));
#1199=DIRECTION('',(0.,1.,0.));
#1200=DIRECTION('',(0.,0.,-1.));
#1201=DIRECTION('',(0.,1.,0.));
#1202=DIRECTION('',(0.,0.,1.));
#1203=DIRECTION('',(0.,1.,0.));
#1204=DIRECTION('',(0.,-1.,0.));
#1205=DIRECTION('',(0.,0.,1.));
#1206=DIRECTION('',(0.,-1.,0.));
#1207=DIRECTION('',(0.,1.,0.));
#1208=DIRECTION('',(0.,0.,-1.));
#1209=DIRECTION('',(0.,-1.,0.));
#1210=DIRECTION('',(0.,0.,1.));
#1211=DIRECTION('',(0.,1.,0.));
#1212=DIRECTION('',(0.,1.,0.));
#1213=DIRECTION('',(0.,0.,1.));
#1214=DIRECTION('',(0.,-1.,0.));
#1215=DIRECTION('',(0.,1.,0.));
#1216=DIRECTION('',(0.,0.,-1.));
#1217=DIRECTION('',(0.,-1.,0.));
#1218=DIRECTION('',(0.,0.,1.));
#1219=DIRECTION('',(0.,1.,0.));
#1220=DIRECTION('',(0.,1.,0.));
#1221=DIRECTION('',(0.,0.,1.));
#1222=DIRECTION('',(0.,-1.,0.));
#1223=DIRECTION('',(0.,1.,0.));
#1224=DIRECTION('',(0.,0.,1.));
#1225=DIRECTION('',(0.,-1.,0.));
#1226=DIRECTION('',(0.,0.,1.));
#1227=DIRECTION('',(0.,1.,0.));
#1228=DIRECTION('',(0.,0.,1.));
#1229=DIRECTION('',(0.,0.,1.));
#1230=DIRECTION('',(-1.,0.,0.));
#1231=DIRECTION('',(-0.999687646408123,0.,0.0249921911602026));
#1232=DIRECTION('',(0.,-1.,0.));
#1233=DIRECTION('',(0.,0.,1.));
#1234=DIRECTION('',(-1.,0.,0.));
#1235=DIRECTION('',(0.,1.,0.));
#1236=DIRECTION('',(0.,0.,1.));
#1237=DIRECTION('',(0.999687646408123,0.,0.0249921911602026));
#1238=DIRECTION('',(1.,0.,0.));
#1239=DIRECTION('',(0.,0.,1.));
#1240=DIRECTION('',(-1.,0.,0.));
#1241=DIRECTION('',(0.,0.,1.));
#1242=DIRECTION('',(1.,0.,0.));
#1243=DIRECTION('',(0.,0.,1.));
#1244=DIRECTION('',(-1.,0.,2.77555756156289E-15));
#1245=DIRECTION('',(0.,0.,1.));
#1246=DIRECTION('',(1.,0.,-2.77555756156289E-15));
#1247=DIRECTION('',(0.,0.,1.));
#1248=DIRECTION('',(1.,0.,1.35525271560688E-16));
#1249=DIRECTION('',(0.,0.,-1.));
#1250=DIRECTION('',(1.,0.,2.77555756156289E-15));
#1251=DIRECTION('',(0.,0.,-1.));
#1252=DIRECTION('',(-1.,0.,-2.77555756156289E-15));
#1253=DIRECTION('',(0.,0.,-1.));
#1254=DIRECTION('',(-1.,0.,0.));
#1255=DIRECTION('',(0.,0.,1.));
#1256=DIRECTION('',(-1.,0.,1.7701259958947E-16));
#1257=DIRECTION('',(0.,0.,1.));
#1258=DIRECTION('',(-1.,0.,0.));
#1259=DIRECTION('',(0.,0.,1.));
#1260=DIRECTION('',(1.,0.,1.7701259958947E-16));
#1261=DIRECTION('',(0.,0.,1.));
#1262=DIRECTION('',(-1.,0.,0.));
#1263=DIRECTION('',(0.,0.,-1.));
#1264=DIRECTION('',(1.,0.,-2.77555756156289E-15));
#1265=DIRECTION('',(0.,0.,-1.));
#1266=DIRECTION('',(-1.,0.,2.77555756156289E-15));
#1267=DIRECTION('',(0.,0.,-1.));
#1268=DIRECTION('',(-1.,0.,1.35525271560688E-16));
#1269=DIRECTION('',(0.,0.,1.));
#1270=DIRECTION('',(-1.,0.,-2.77555756156289E-15));
#1271=DIRECTION('',(0.,0.,1.));
#1272=DIRECTION('',(1.,0.,2.77555756156289E-15));
#1273=DIRECTION('',(0.,0.,1.));
#1274=DIRECTION('',(-1.,0.,0.));
#1275=DIRECTION('',(0.,0.,1.));
#1276=DIRECTION('',(-1.,0.,0.));
#1277=DIRECTION('',(0.,1.,0.));
#1278=DIRECTION('',(0.,0.,1.));
#1279=DIRECTION('',(0.,-1.,0.));
#1280=DIRECTION('',(0.,0.,1.));
#1281=DIRECTION('',(0.,1.,0.));
#1282=DIRECTION('',(0.,0.,1.));
#1283=DIRECTION('',(-1.,0.,0.));
#1284=DIRECTION('',(0.,0.,1.));
#1285=DIRECTION('',(-1.,0.,0.));
#1286=DIRECTION('',(0.,0.,1.));
#1287=DIRECTION('',(-1.,0.,0.));
#1288=DIRECTION('',(0.,0.,1.));
#1289=DIRECTION('',(1.,0.,2.77555756156289E-15));
#1290=DIRECTION('',(0.,0.,1.));
#1291=DIRECTION('',(-1.,0.,-2.77555756156289E-15));
#1292=DIRECTION('',(0.,0.,1.));
#1293=DIRECTION('',(-1.,0.,1.35525271560688E-16));
#1294=DIRECTION('',(0.,0.,-1.));
#1295=DIRECTION('',(-1.,0.,2.77555756156289E-15));
#1296=DIRECTION('',(0.,0.,-1.));
#1297=DIRECTION('',(1.,0.,-2.77555756156289E-15));
#1298=DIRECTION('',(0.,0.,-1.));
#1299=DIRECTION('',(-1.,0.,0.));
#1300=DIRECTION('',(0.,0.,1.));
#1301=DIRECTION('',(1.,0.,1.7701259958947E-16));
#1302=DIRECTION('',(0.,0.,1.));
#1303=DIRECTION('',(-1.,0.,0.));
#1304=DIRECTION('',(0.,0.,1.));
#1305=DIRECTION('',(-1.,0.,1.7701259958947E-16));
#1306=DIRECTION('',(0.,0.,1.));
#1307=DIRECTION('',(-1.,0.,0.));
#1308=DIRECTION('',(0.,0.,-1.));
#1309=DIRECTION('',(-1.,0.,-2.77555756156289E-15));
#1310=DIRECTION('',(0.,0.,-1.));
#1311=DIRECTION('',(1.,0.,2.77555756156289E-15));
#1312=DIRECTION('',(0.,0.,-1.));
#1313=DIRECTION('',(1.,0.,1.35525271560688E-16));
#1314=DIRECTION('',(0.,0.,1.));
#1315=DIRECTION('',(1.,0.,-2.77555756156289E-15));
#1316=DIRECTION('',(0.,0.,1.));
#1317=DIRECTION('',(-1.,0.,2.77555756156289E-15));
#1318=DIRECTION('',(0.,0.,1.));
#1319=DIRECTION('',(1.,0.,0.));
#1320=DIRECTION('',(0.,0.,1.));
#1321=DIRECTION('',(-1.,0.,0.));
#1322=DIRECTION('',(0.,0.,1.));
#1323=DIRECTION('',(1.,0.,0.));
#1324=DIRECTION('',(0.999687646408123,0.,0.0249921911602026));
#1325=DIRECTION('',(0.,1.,0.));
#1326=DIRECTION('',(0.,0.,1.));
#1327=DIRECTION('',(-1.,0.,0.));
#1328=DIRECTION('',(0.,-1.,0.));
#1329=DIRECTION('',(0.,0.,1.));
#1330=DIRECTION('',(-0.999687646408123,0.,0.0249921911602026));
#1331=DIRECTION('',(0.,1.,0.));
#1332=DIRECTION('',(0.,0.,-1.));
#1333=DIRECTION('',(0.,1.,0.));
#1334=DIRECTION('',(0.,0.,-1.));
#1335=DIRECTION('',(0.,0.,1.));
#1336=DIRECTION('',(1.,0.,0.));
#1337=DIRECTION('',(0.,1.,0.));
#1338=DIRECTION('',(0.,0.,-1.));
#1339=DIRECTION('',(0.,-1.,0.));
#1340=DIRECTION('',(0.0249921911602025,0.,-0.999687646408123));
#1341=DIRECTION('',(-0.999687646408123,0.,-0.0249921911602025));
#1342=DIRECTION('',(0.,-1.,0.));
#1343=DIRECTION('',(0.,0.,-1.));
#1344=DIRECTION('',(-1.,0.,0.));
#1345=DIRECTION('',(1.,0.,0.));
#1346=DIRECTION('',(0.,0.,-1.));
#1347=DIRECTION('',(0.,-1.,0.));
#1348=DIRECTION('',(0.,0.,1.));
#1349=DIRECTION('',(1.,0.,0.));
#1350=DIRECTION('',(0.,-1.,0.));
#1351=DIRECTION('',(1.,0.,0.));
#1352=DIRECTION('',(0.,0.,-1.));
#1353=DIRECTION('',(0.,-1.,0.));
#1354=DIRECTION('',(0.,0.,-1.));
#1355=DIRECTION('',(-1.,0.,0.));
#1356=DIRECTION('',(0.,-1.,0.));
#1357=DIRECTION('',(1.,0.,0.));
#1358=DIRECTION('',(0.,0.,-1.));
#1359=DIRECTION('',(0.,-1.,0.));
#1360=DIRECTION('',(2.77555756156289E-15,0.,1.));
#1361=DIRECTION('',(1.,0.,-2.77555756156289E-15));
#1362=DIRECTION('',(0.,-1.,0.));
#1363=DIRECTION('',(1.,0.,0.));
#1364=DIRECTION('',(0.,0.,-1.));
#1365=DIRECTION('',(0.,-1.,0.));
#1366=DIRECTION('',(-2.77555756156289E-15,0.,-1.));
#1367=DIRECTION('',(-1.,0.,2.77555756156289E-15));
#1368=DIRECTION('',(0.,-1.,0.));
#1369=DIRECTION('',(1.,0.,0.));
#1370=DIRECTION('',(0.,0.,-1.));
#1371=DIRECTION('',(0.,-1.,0.));
#1372=DIRECTION('',(1.35525271560688E-16,0.,-1.));
#1373=DIRECTION('',(-1.,0.,-1.35525271560688E-16));
#1374=DIRECTION('',(0.,-1.,0.));
#1375=DIRECTION('',(-1.,0.,0.));
#1376=DIRECTION('',(0.,0.,1.));
#1377=DIRECTION('',(0.,-1.,0.));
#1378=DIRECTION('',(2.77555756156289E-15,0.,-1.));
#1379=DIRECTION('',(-1.,0.,-2.77555756156289E-15));
#1380=DIRECTION('',(0.,-1.,0.));
#1381=DIRECTION('',(-1.,0.,0.));
#1382=DIRECTION('',(0.,0.,1.));
#1383=DIRECTION('',(0.,-1.,0.));
#1384=DIRECTION('',(-2.77555756156289E-15,0.,1.));
#1385=DIRECTION('',(1.,0.,2.77555756156289E-15));
#1386=DIRECTION('',(0.,-1.,0.));
#1387=DIRECTION('',(-1.,0.,0.));
#1388=DIRECTION('',(0.,0.,1.));
#1389=DIRECTION('',(0.,-1.,0.));
#1390=DIRECTION('',(0.,0.,1.));
#1391=DIRECTION('',(1.,0.,0.));
#1392=DIRECTION('',(0.,-1.,0.));
#1393=DIRECTION('',(1.,0.,0.));
#1394=DIRECTION('',(0.,0.,-1.));
#1395=DIRECTION('',(0.,-1.,0.));
#1396=DIRECTION('',(1.7701259958947E-16,0.,1.));
#1397=DIRECTION('',(1.,0.,-1.7701259958947E-16));
#1398=DIRECTION('',(0.,-1.,0.));
#1399=DIRECTION('',(1.,0.,0.));
#1400=DIRECTION('',(0.,0.,-1.));
#1401=DIRECTION('',(0.,-1.,0.));
#1402=DIRECTION('',(0.,0.,1.));
#1403=DIRECTION('',(1.,0.,0.));
#1404=DIRECTION('',(0.,-1.,0.));
#1405=DIRECTION('',(1.,0.,0.));
#1406=DIRECTION('',(0.,0.,-1.));
#1407=DIRECTION('',(0.,-1.,0.));
#1408=DIRECTION('',(1.7701259958947E-16,0.,-1.));
#1409=DIRECTION('',(-1.,0.,-1.7701259958947E-16));
#1410=DIRECTION('',(0.,-1.,0.));
#1411=DIRECTION('',(1.,0.,0.));
#1412=DIRECTION('',(0.,0.,-1.));
#1413=DIRECTION('',(0.,-1.,0.));
#1414=DIRECTION('',(0.,0.,1.));
#1415=DIRECTION('',(1.,0.,0.));
#1416=DIRECTION('',(0.,-1.,0.));
#1417=DIRECTION('',(-1.,0.,0.));
#1418=DIRECTION('',(0.,0.,1.));
#1419=DIRECTION('',(0.,-1.,0.));
#1420=DIRECTION('',(-2.77555756156289E-15,0.,-1.));
#1421=DIRECTION('',(-1.,0.,2.77555756156289E-15));
#1422=DIRECTION('',(0.,-1.,0.));
#1423=DIRECTION('',(-1.,0.,0.));
#1424=DIRECTION('',(0.,0.,1.));
#1425=DIRECTION('',(0.,-1.,0.));
#1426=DIRECTION('',(2.77555756156289E-15,0.,1.));
#1427=DIRECTION('',(1.,0.,-2.77555756156289E-15));
#1428=DIRECTION('',(0.,-1.,0.));
#1429=DIRECTION('',(-1.,0.,0.));
#1430=DIRECTION('',(0.,0.,1.));
#1431=DIRECTION('',(0.,-1.,0.));
#1432=DIRECTION('',(1.35525271560688E-16,0.,1.));
#1433=DIRECTION('',(1.,0.,-1.35525271560688E-16));
#1434=DIRECTION('',(0.,-1.,0.));
#1435=DIRECTION('',(1.,0.,0.));
#1436=DIRECTION('',(0.,0.,-1.));
#1437=DIRECTION('',(0.,-1.,0.));
#1438=DIRECTION('',(-2.77555756156289E-15,0.,1.));
#1439=DIRECTION('',(1.,0.,2.77555756156289E-15));
#1440=DIRECTION('',(0.,-1.,0.));
#1441=DIRECTION('',(1.,0.,0.));
#1442=DIRECTION('',(0.,0.,-1.));
#1443=DIRECTION('',(0.,-1.,0.));
#1444=DIRECTION('',(2.77555756156289E-15,0.,-1.));
#1445=DIRECTION('',(-1.,0.,-2.77555756156289E-15));
#1446=DIRECTION('',(0.,-1.,0.));
#1447=DIRECTION('',(1.,0.,0.));
#1448=DIRECTION('',(0.,0.,-1.));
#1449=DIRECTION('',(0.,-1.,0.));
#1450=DIRECTION('',(0.,0.,1.));
#1451=DIRECTION('',(1.,0.,0.));
#1452=DIRECTION('',(0.,-1.,0.));
#1453=DIRECTION('',(1.,0.,0.));
#1454=DIRECTION('',(0.,0.,-1.));
#1455=DIRECTION('',(0.,-1.,0.));
#1456=DIRECTION('',(0.,0.,1.));
#1457=DIRECTION('',(1.,0.,0.));
#1458=DIRECTION('',(0.,-1.,0.));
#1459=DIRECTION('',(1.,0.,0.));
#1460=DIRECTION('',(0.,0.,-1.));
#1461=DIRECTION('',(0.,0.,1.));
#1462=DIRECTION('',(1.,0.,0.));
#1463=DIRECTION('',(0.,-1.,0.));
#1464=DIRECTION('',(0.0249921911602025,0.,0.999687646408123));
#1465=DIRECTION('',(0.999687646408123,0.,-0.0249921911602025));
#1466=DIRECTION('',(0.,-1.,0.));
#1467=DIRECTION('',(0.,1.,0.));
#1468=DIRECTION('',(0.,0.,-1.));
#1469=CARTESIAN_POINT('',(0.,0.,0.));
#1470=CARTESIAN_POINT('',(0.063,0.003175,-0.000825));
#1471=CARTESIAN_POINT('',(0.063,0.003175,-0.000825));
#1472=CARTESIAN_POINT('',(0.0655,0.003175,-0.000825));
#1473=CARTESIAN_POINT('',(0.063,0.003175,-0.003325));
#1474=CARTESIAN_POINT('',(0.0655,0.003175,-0.000825));
#1475=CARTESIAN_POINT('',(0.0655,0.,-0.000825));
#1476=CARTESIAN_POINT('',(0.063,0.,-0.000825));
#1477=CARTESIAN_POINT('',(0.063,0.,-0.003325));
#1478=CARTESIAN_POINT('',(0.063,0.003175,-0.003325));
#1479=CARTESIAN_POINT('',(-0.063,0.003175,-0.000825));
#1480=CARTESIAN_POINT('',(-0.063,0.003175,-0.000825));
#1481=CARTESIAN_POINT('',(-0.063,0.003175,-0.003325));
#1482=CARTESIAN_POINT('',(-0.0655,0.003175,-0.000825));
#1483=CARTESIAN_POINT('',(-0.063,0.003175,-0.003325));
#1484=CARTESIAN_POINT('',(-0.063,0.,-0.003325));
#1485=CARTESIAN_POINT('',(-0.063,0.,-0.000825));
#1486=CARTESIAN_POINT('',(-0.0655,0.,-0.000825));
#1487=CARTESIAN_POINT('',(-0.0655,0.003175,-0.000825));
#1488=CARTESIAN_POINT('',(0.0218933982822018,0.003175,-0.00375));
#1489=CARTESIAN_POINT('',(0.0218933982822018,0.003175,-0.00375));
#1490=CARTESIAN_POINT('',(0.0289644660940672,0.003175,-0.00125));
#1491=CARTESIAN_POINT('',(0.0218933982822018,0.003175,0.00375));
#1492=CARTESIAN_POINT('',(0.0289644660940672,0.003175,-0.00125));
#1493=CARTESIAN_POINT('',(0.0289644660940672,0.,-0.00125));
#1494=CARTESIAN_POINT('',(0.0218933982822018,0.,-0.00375));
#1495=CARTESIAN_POINT('',(0.0218933982822018,0.,0.00375));
#1496=CARTESIAN_POINT('',(0.0218933982822018,0.,0.00375));
#1497=CARTESIAN_POINT('',(-0.0218933982822018,0.003175,-0.00375));
#1498=CARTESIAN_POINT('',(-0.0218933982822018,0.003175,-0.00375));
#1499=CARTESIAN_POINT('',(-0.0218933982822018,0.003175,0.00375));
#1500=CARTESIAN_POINT('',(-0.0289644660940672,0.003175,-0.00125));
#1501=CARTESIAN_POINT('',(-0.0218933982822018,0.003175,0.00375));
#1502=CARTESIAN_POINT('',(-0.0218933982822018,0.,0.00375));
#1503=CARTESIAN_POINT('',(-0.0218933982822018,0.,-0.00375));
#1504=CARTESIAN_POINT('',(-0.0289644660940672,0.,-0.00125));
#1505=CARTESIAN_POINT('',(-0.0289644660940672,0.003175,-0.00125));
#1506=CARTESIAN_POINT('',(0.,0.,0.));
#1507=CARTESIAN_POINT('',(-0.0325,0.,0.));
#1508=CARTESIAN_POINT('',(-0.0325,0.,0.00175));
#1509=CARTESIAN_POINT('',(0.0325,0.,0.));
#1510=CARTESIAN_POINT('',(0.0325,0.,0.00175));
#1511=CARTESIAN_POINT('',(-0.0655,0.,-0.000825));
#1512=CARTESIAN_POINT('',(-0.0655,0.,0.01));
#1513=CARTESIAN_POINT('',(-0.0495,0.,-0.003325));
#1514=CARTESIAN_POINT('',(-0.0495,0.,-0.003325));
#1515=CARTESIAN_POINT('',(-0.0325,0.,-0.00375));
#1516=CARTESIAN_POINT('',(-0.0325,0.,-0.00375));
#1517=CARTESIAN_POINT('',(-0.0325,0.,0.));
#1518=CARTESIAN_POINT('',(0.0218933982822018,0.,0.00375));
#1519=CARTESIAN_POINT('',(0.0325,0.,0.));
#1520=CARTESIAN_POINT('',(0.0325,0.,-0.00375));
#1521=CARTESIAN_POINT('',(0.0325,0.,-0.00375));
#1522=CARTESIAN_POINT('',(0.0495,0.,-0.003325));
#1523=CARTESIAN_POINT('',(0.0495,0.,-0.003325));
#1524=CARTESIAN_POINT('',(0.0655,0.,-0.000825));
#1525=CARTESIAN_POINT('',(0.0655,0.,0.01));
#1526=CARTESIAN_POINT('',(0.0655,0.,0.01));
#1527=CARTESIAN_POINT('',(0.0634,0.,0.01));
#1528=CARTESIAN_POINT('',(0.0634,0.,0.01));
#1529=CARTESIAN_POINT('',(0.0634,0.,0.013175));
#1530=CARTESIAN_POINT('',(0.0591,0.,0.013175));
#1531=CARTESIAN_POINT('',(0.0591,0.,0.013175));
#1532=CARTESIAN_POINT('',(0.0591,0.,0.007));
#1533=CARTESIAN_POINT('',(0.0591,0.,0.007));
#1534=CARTESIAN_POINT('',(0.06035,0.,0.007));
#1535=CARTESIAN_POINT('',(0.06035,0.,0.007));
#1536=CARTESIAN_POINT('',(0.06035,0.,0.0044));
#1537=CARTESIAN_POINT('',(0.06035,0.,0.0044));
#1538=CARTESIAN_POINT('',(0.0591,0.,0.0044));
#1539=CARTESIAN_POINT('',(0.0591,0.,0.0044));
#1540=CARTESIAN_POINT('',(0.0591,0.,0.002675));
#1541=CARTESIAN_POINT('',(0.0591,0.,0.002675));
#1542=CARTESIAN_POINT('',(0.0559,0.,0.002675));
#1543=CARTESIAN_POINT('',(0.0559,0.,0.002675));
#1544=CARTESIAN_POINT('',(0.0559,0.,0.0044));
#1545=CARTESIAN_POINT('',(0.0559,0.,0.0044));
#1546=CARTESIAN_POINT('',(0.05465,0.,0.0044));
#1547=CARTESIAN_POINT('',(0.05465,0.,0.0044));
#1548=CARTESIAN_POINT('',(0.05465,0.,0.007));
#1549=CARTESIAN_POINT('',(0.05465,0.,0.007));
#1550=CARTESIAN_POINT('',(0.0559,0.,0.007));
#1551=CARTESIAN_POINT('',(0.0559,0.,0.007));
#1552=CARTESIAN_POINT('',(0.0559,0.,0.01));
#1553=CARTESIAN_POINT('',(0.0559,0.,0.01));
#1554=CARTESIAN_POINT('',(0.0559,0.,0.01));
#1555=CARTESIAN_POINT('',(0.0534,0.,0.01));
#1556=CARTESIAN_POINT('',(0.0534,0.,0.01));
#1557=CARTESIAN_POINT('',(0.0534,0.,0.013175));
#1558=CARTESIAN_POINT('',(0.0534,0.,0.013175));
#1559=CARTESIAN_POINT('',(0.0436,0.,0.013175));
#1560=CARTESIAN_POINT('',(0.0436,0.,0.01));
#1561=CARTESIAN_POINT('',(0.0436,0.,0.01));
#1562=CARTESIAN_POINT('',(0.0436,0.,0.01));
#1563=CARTESIAN_POINT('',(-0.0436,0.,0.01));
#1564=CARTESIAN_POINT('',(-0.0436,0.,0.01));
#1565=CARTESIAN_POINT('',(-0.0436,0.,0.013175));
#1566=CARTESIAN_POINT('',(-0.0534,0.,0.013175));
#1567=CARTESIAN_POINT('',(-0.0534,0.,0.013175));
#1568=CARTESIAN_POINT('',(-0.0534,0.,0.01));
#1569=CARTESIAN_POINT('',(-0.0534,0.,0.01));
#1570=CARTESIAN_POINT('',(-0.0534,0.,0.01));
#1571=CARTESIAN_POINT('',(-0.0559,0.,0.01));
#1572=CARTESIAN_POINT('',(-0.0559,0.,0.01));
#1573=CARTESIAN_POINT('',(-0.0559,0.,0.007));
#1574=CARTESIAN_POINT('',(-0.0559,0.,0.007));
#1575=CARTESIAN_POINT('',(-0.05465,0.,0.007));
#1576=CARTESIAN_POINT('',(-0.05465,0.,0.007));
#1577=CARTESIAN_POINT('',(-0.05465,0.,0.0044));
#1578=CARTESIAN_POINT('',(-0.05465,0.,0.0044));
#1579=CARTESIAN_POINT('',(-0.0559,0.,0.0044));
#1580=CARTESIAN_POINT('',(-0.0559,0.,0.0044));
#1581=CARTESIAN_POINT('',(-0.0559,0.,0.002675));
#1582=CARTESIAN_POINT('',(-0.0559,0.,0.002675));
#1583=CARTESIAN_POINT('',(-0.0591,0.,0.002675));
#1584=CARTESIAN_POINT('',(-0.0591,0.,0.002675));
#1585=CARTESIAN_POINT('',(-0.0591,0.,0.0044));
#1586=CARTESIAN_POINT('',(-0.0591,0.,0.0044));
#1587=CARTESIAN_POINT('',(-0.06035,0.,0.0044));
#1588=CARTESIAN_POINT('',(-0.06035,0.,0.0044));
#1589=CARTESIAN_POINT('',(-0.06035,0.,0.007));
#1590=CARTESIAN_POINT('',(-0.06035,0.,0.007));
#1591=CARTESIAN_POINT('',(-0.0591,0.,0.007));
#1592=CARTESIAN_POINT('',(-0.0591,0.,0.007));
#1593=CARTESIAN_POINT('',(-0.0591,0.,0.013175));
#1594=CARTESIAN_POINT('',(-0.0591,0.,0.013175));
#1595=CARTESIAN_POINT('',(-0.0634,0.,0.013175));
#1596=CARTESIAN_POINT('',(-0.0634,0.,0.01));
#1597=CARTESIAN_POINT('',(-0.0634,0.,0.01));
#1598=CARTESIAN_POINT('',(-0.0634,0.,0.01));
#1599=CARTESIAN_POINT('',(0.,0.003175,0.));
#1600=CARTESIAN_POINT('',(-0.0325,0.003175,0.));
#1601=CARTESIAN_POINT('',(-0.0325,0.003175,0.00175));
#1602=CARTESIAN_POINT('',(0.0325,0.003175,0.));
#1603=CARTESIAN_POINT('',(0.0325,0.003175,0.00175));
#1604=CARTESIAN_POINT('',(-0.0495,0.003175,-0.003325));
#1605=CARTESIAN_POINT('',(-0.0495,0.003175,-0.003325));
#1606=CARTESIAN_POINT('',(-0.0655,0.003175,-0.000825));
#1607=CARTESIAN_POINT('',(-0.0655,0.003175,0.01));
#1608=CARTESIAN_POINT('',(-0.0634,0.003175,0.01));
#1609=CARTESIAN_POINT('',(-0.0634,0.003175,0.01));
#1610=CARTESIAN_POINT('',(-0.0634,0.003175,0.01));
#1611=CARTESIAN_POINT('',(-0.0634,0.003175,0.013175));
#1612=CARTESIAN_POINT('',(-0.0591,0.003175,0.013175));
#1613=CARTESIAN_POINT('',(-0.0591,0.003175,0.013175));
#1614=CARTESIAN_POINT('',(-0.0591,0.003175,0.007));
#1615=CARTESIAN_POINT('',(-0.0591,0.003175,0.007));
#1616=CARTESIAN_POINT('',(-0.06035,0.003175,0.007));
#1617=CARTESIAN_POINT('',(-0.06035,0.003175,0.007));
#1618=CARTESIAN_POINT('',(-0.06035,0.003175,0.0044));
#1619=CARTESIAN_POINT('',(-0.06035,0.003175,0.0044));
#1620=CARTESIAN_POINT('',(-0.0591,0.003175,0.0044));
#1621=CARTESIAN_POINT('',(-0.0591,0.003175,0.0044));
#1622=CARTESIAN_POINT('',(-0.0591,0.003175,0.002675));
#1623=CARTESIAN_POINT('',(-0.0591,0.003175,0.002675));
#1624=CARTESIAN_POINT('',(-0.0559,0.003175,0.002675));
#1625=CARTESIAN_POINT('',(-0.0559,0.003175,0.002675));
#1626=CARTESIAN_POINT('',(-0.0559,0.003175,0.0044));
#1627=CARTESIAN_POINT('',(-0.0559,0.003175,0.0044));
#1628=CARTESIAN_POINT('',(-0.05465,0.003175,0.0044));
#1629=CARTESIAN_POINT('',(-0.05465,0.003175,0.0044));
#1630=CARTESIAN_POINT('',(-0.05465,0.003175,0.007));
#1631=CARTESIAN_POINT('',(-0.05465,0.003175,0.007));
#1632=CARTESIAN_POINT('',(-0.0559,0.003175,0.007));
#1633=CARTESIAN_POINT('',(-0.0559,0.003175,0.007));
#1634=CARTESIAN_POINT('',(-0.0559,0.003175,0.01));
#1635=CARTESIAN_POINT('',(-0.0559,0.003175,0.01));
#1636=CARTESIAN_POINT('',(-0.0534,0.003175,0.01));
#1637=CARTESIAN_POINT('',(-0.0534,0.003175,0.01));
#1638=CARTESIAN_POINT('',(-0.0534,0.003175,0.01));
#1639=CARTESIAN_POINT('',(-0.0534,0.003175,0.013175));
#1640=CARTESIAN_POINT('',(-0.0534,0.003175,0.013175));
#1641=CARTESIAN_POINT('',(-0.0436,0.003175,0.013175));
#1642=CARTESIAN_POINT('',(-0.0436,0.003175,0.01));
#1643=CARTESIAN_POINT('',(-0.0436,0.003175,0.01));
#1644=CARTESIAN_POINT('',(0.0436,0.003175,0.01));
#1645=CARTESIAN_POINT('',(0.0436,0.003175,0.01));
#1646=CARTESIAN_POINT('',(0.0436,0.003175,0.01));
#1647=CARTESIAN_POINT('',(0.0436,0.003175,0.013175));
#1648=CARTESIAN_POINT('',(0.0534,0.003175,0.013175));
#1649=CARTESIAN_POINT('',(0.0534,0.003175,0.013175));
#1650=CARTESIAN_POINT('',(0.0534,0.003175,0.01));
#1651=CARTESIAN_POINT('',(0.0534,0.003175,0.01));
#1652=CARTESIAN_POINT('',(0.0559,0.003175,0.01));
#1653=CARTESIAN_POINT('',(0.0559,0.003175,0.01));
#1654=CARTESIAN_POINT('',(0.0559,0.003175,0.01));
#1655=CARTESIAN_POINT('',(0.0559,0.003175,0.007));
#1656=CARTESIAN_POINT('',(0.0559,0.003175,0.007));
#1657=CARTESIAN_POINT('',(0.05465,0.003175,0.007));
#1658=CARTESIAN_POINT('',(0.05465,0.003175,0.007));
#1659=CARTESIAN_POINT('',(0.05465,0.003175,0.0044));
#1660=CARTESIAN_POINT('',(0.05465,0.003175,0.0044));
#1661=CARTESIAN_POINT('',(0.0559,0.003175,0.0044));
#1662=CARTESIAN_POINT('',(0.0559,0.003175,0.0044));
#1663=CARTESIAN_POINT('',(0.0559,0.003175,0.002675));
#1664=CARTESIAN_POINT('',(0.0559,0.003175,0.002675));
#1665=CARTESIAN_POINT('',(0.0591,0.003175,0.002675));
#1666=CARTESIAN_POINT('',(0.0591,0.003175,0.002675));
#1667=CARTESIAN_POINT('',(0.0591,0.003175,0.0044));
#1668=CARTESIAN_POINT('',(0.0591,0.003175,0.0044));
#1669=CARTESIAN_POINT('',(0.06035,0.003175,0.0044));
#1670=CARTESIAN_POINT('',(0.06035,0.003175,0.0044));
#1671=CARTESIAN_POINT('',(0.06035,0.003175,0.007));
#1672=CARTESIAN_POINT('',(0.06035,0.003175,0.007));
#1673=CARTESIAN_POINT('',(0.0591,0.003175,0.007));
#1674=CARTESIAN_POINT('',(0.0591,0.003175,0.007));
#1675=CARTESIAN_POINT('',(0.0591,0.003175,0.013175));
#1676=CARTESIAN_POINT('',(0.0591,0.003175,0.013175));
#1677=CARTESIAN_POINT('',(0.0634,0.003175,0.013175));
#1678=CARTESIAN_POINT('',(0.0634,0.003175,0.01));
#1679=CARTESIAN_POINT('',(0.0634,0.003175,0.01));
#1680=CARTESIAN_POINT('',(0.0655,0.003175,0.01));
#1681=CARTESIAN_POINT('',(0.0655,0.003175,0.01));
#1682=CARTESIAN_POINT('',(0.0655,0.003175,-0.000825));
#1683=CARTESIAN_POINT('',(0.0495,0.003175,-0.003325));
#1684=CARTESIAN_POINT('',(0.0495,0.003175,-0.003325));
#1685=CARTESIAN_POINT('',(0.0325,0.003175,-0.00375));
#1686=CARTESIAN_POINT('',(0.0325,0.003175,-0.00375));
#1687=CARTESIAN_POINT('',(0.0325,0.003175,0.));
#1688=CARTESIAN_POINT('',(0.0218933982822018,0.003175,0.00375));
#1689=CARTESIAN_POINT('',(-0.0325,0.003175,0.));
#1690=CARTESIAN_POINT('',(-0.0325,0.003175,-0.00375));
#1691=CARTESIAN_POINT('',(-0.0325,0.003175,-0.00375));
#1692=CARTESIAN_POINT('',(-0.0325,0.003175,0.));
#1693=CARTESIAN_POINT('',(0.0325,0.003175,0.));
#1694=CARTESIAN_POINT('',(0.,0.003175,0.00375));
#1695=CARTESIAN_POINT('',(0.0325,0.003175,0.));
#1696=CARTESIAN_POINT('',(0.0325,0.003175,-0.00375));
#1697=CARTESIAN_POINT('',(0.000113991255465331,0.003175,-0.00455965021861335));
#1698=CARTESIAN_POINT('',(0.0495,0.003175,-0.003325));
#1699=CARTESIAN_POINT('',(0.,0.003175,-0.003325));
#1700=CARTESIAN_POINT('',(0.0655,0.003175,0.));
#1701=CARTESIAN_POINT('',(0.0655,0.003175,0.01));
#1702=CARTESIAN_POINT('',(0.,0.003175,0.01));
#1703=CARTESIAN_POINT('',(0.0634,0.003175,0.01));
#1704=CARTESIAN_POINT('',(0.0634,0.003175,0.));
#1705=CARTESIAN_POINT('',(0.0634,0.003175,0.013175));
#1706=CARTESIAN_POINT('',(0.,0.003175,0.013175));
#1707=CARTESIAN_POINT('',(0.0591,0.003175,0.013175));
#1708=CARTESIAN_POINT('',(0.0591,0.003175,0.));
#1709=CARTESIAN_POINT('',(0.0591,0.003175,0.007));
#1710=CARTESIAN_POINT('',(1.94289029309407E-17,0.003175,0.00700000000000017));
#1711=CARTESIAN_POINT('',(0.06035,0.003175,0.007));
#1712=CARTESIAN_POINT('',(0.06035,0.003175,0.));
#1713=CARTESIAN_POINT('',(0.06035,0.003175,0.0044));
#1714=CARTESIAN_POINT('',(1.22124532708772E-17,0.003175,0.00440000000000017));
#1715=CARTESIAN_POINT('',(0.0591,0.003175,0.0044));
#1716=CARTESIAN_POINT('',(0.0591,0.003175,0.));
#1717=CARTESIAN_POINT('',(0.0591,0.003175,0.002675));
#1718=CARTESIAN_POINT('',(-3.62530101424839E-19,0.003175,0.002675));
#1719=CARTESIAN_POINT('',(0.0559,0.003175,0.002675));
#1720=CARTESIAN_POINT('',(0.0559,0.003175,0.));
#1721=CARTESIAN_POINT('',(0.0559,0.003175,0.0044));
#1722=CARTESIAN_POINT('',(-1.22124532708763E-17,0.003175,0.00439999999999985));
#1723=CARTESIAN_POINT('',(0.05465,0.003175,0.0044));
#1724=CARTESIAN_POINT('',(0.05465,0.003175,0.));
#1725=CARTESIAN_POINT('',(0.05465,0.003175,0.007));
#1726=CARTESIAN_POINT('',(-1.94289029309398E-17,0.003175,0.00699999999999985));
#1727=CARTESIAN_POINT('',(0.0559,0.003175,0.007));
#1728=CARTESIAN_POINT('',(0.0559,0.003175,0.));
#1729=CARTESIAN_POINT('',(0.0559,0.003175,0.01));
#1730=CARTESIAN_POINT('',(0.,0.003175,0.01));
#1731=CARTESIAN_POINT('',(0.0534,0.003175,0.01));
#1732=CARTESIAN_POINT('',(0.0534,0.003175,0.));
#1733=CARTESIAN_POINT('',(0.0534,0.003175,0.013175));
#1734=CARTESIAN_POINT('',(2.33214099959127E-18,0.003175,0.013175));
#1735=CARTESIAN_POINT('',(0.0436,0.003175,0.013175));
#1736=CARTESIAN_POINT('',(0.0436,0.003175,0.));
#1737=CARTESIAN_POINT('',(0.0436,0.003175,0.01));
#1738=CARTESIAN_POINT('',(0.,0.003175,0.01));
#1739=CARTESIAN_POINT('',(-0.0436,0.003175,0.01));
#1740=CARTESIAN_POINT('',(-0.0436,0.003175,0.));
#1741=CARTESIAN_POINT('',(-0.0436,0.003175,0.013175));
#1742=CARTESIAN_POINT('',(-2.33214099959127E-18,0.003175,0.013175));
#1743=CARTESIAN_POINT('',(-0.0534,0.003175,0.013175));
#1744=CARTESIAN_POINT('',(-0.0534,0.003175,0.));
#1745=CARTESIAN_POINT('',(-0.0534,0.003175,0.01));
#1746=CARTESIAN_POINT('',(0.,0.003175,0.01));
#1747=CARTESIAN_POINT('',(-0.0559,0.003175,0.01));
#1748=CARTESIAN_POINT('',(-0.0559,0.003175,0.));
#1749=CARTESIAN_POINT('',(-0.0559,0.003175,0.007));
#1750=CARTESIAN_POINT('',(1.94289029309398E-17,0.003175,0.00699999999999985));
#1751=CARTESIAN_POINT('',(-0.05465,0.003175,0.007));
#1752=CARTESIAN_POINT('',(-0.05465,0.003175,0.));
#1753=CARTESIAN_POINT('',(-0.05465,0.003175,0.0044));
#1754=CARTESIAN_POINT('',(1.22124532708763E-17,0.003175,0.00439999999999985));
#1755=CARTESIAN_POINT('',(-0.0559,0.003175,0.0044));
#1756=CARTESIAN_POINT('',(-0.0559,0.003175,0.));
#1757=CARTESIAN_POINT('',(-0.0559,0.003175,0.002675));
#1758=CARTESIAN_POINT('',(3.62530101424839E-19,0.003175,0.002675));
#1759=CARTESIAN_POINT('',(-0.0591,0.003175,0.002675));
#1760=CARTESIAN_POINT('',(-0.0591,0.003175,0.));
#1761=CARTESIAN_POINT('',(-0.0591,0.003175,0.0044));
#1762=CARTESIAN_POINT('',(-1.22124532708772E-17,0.003175,0.00440000000000017));
#1763=CARTESIAN_POINT('',(-0.06035,0.003175,0.0044));
#1764=CARTESIAN_POINT('',(-0.06035,0.003175,0.));
#1765=CARTESIAN_POINT('',(-0.06035,0.003175,0.007));
#1766=CARTESIAN_POINT('',(-1.94289029309407E-17,0.003175,0.00700000000000017));
#1767=CARTESIAN_POINT('',(-0.0591,0.003175,0.007));
#1768=CARTESIAN_POINT('',(-0.0591,0.003175,0.));
#1769=CARTESIAN_POINT('',(-0.0591,0.003175,0.013175));
#1770=CARTESIAN_POINT('',(0.,0.003175,0.013175));
#1771=CARTESIAN_POINT('',(-0.0634,0.003175,0.013175));
#1772=CARTESIAN_POINT('',(-0.0634,0.003175,0.));
#1773=CARTESIAN_POINT('',(-0.0634,0.003175,0.01));
#1774=CARTESIAN_POINT('',(0.,0.003175,0.01));
#1775=CARTESIAN_POINT('',(-0.0655,0.003175,0.01));
#1776=CARTESIAN_POINT('',(-0.0655,0.003175,0.));
#1777=CARTESIAN_POINT('',(0.,0.003175,-0.003325));
#1778=CARTESIAN_POINT('',(-0.0495,0.003175,-0.003325));
#1779=CARTESIAN_POINT('',(-0.000113991255465331,0.003175,-0.00455965021861335));
#1780=CARTESIAN_POINT('',(-0.0325,0.003175,-0.00375));
#1781=CARTESIAN_POINT('',(-0.0325,0.003175,0.));
#1782=MECHANICAL_DESIGN_GEOMETRIC_PRESENTATION_REPRESENTATION('',(#1107),
#1783);
#1783=(
GEOMETRIC_REPRESENTATION_CONTEXT(3)
GLOBAL_UNCERTAINTY_ASSIGNED_CONTEXT((#1784))
GLOBAL_UNIT_ASSIGNED_CONTEXT((#1787,#1786,#1785))
REPRESENTATION_CONTEXT('bumperbrace','TOP_LEVEL_ASSEMBLY_PART')
);
#1784=UNCERTAINTY_MEASURE_WITH_UNIT(LENGTH_MEASURE(5.E-6),#1787,
'DISTANCE_ACCURACY_VALUE','Maximum Tolerance applied to model');
#1785=(
NAMED_UNIT(*)
SI_UNIT($,.STERADIAN.)
SOLID_ANGLE_UNIT()
);
#1786=(
NAMED_UNIT(*)
PLANE_ANGLE_UNIT()
SI_UNIT($,.RADIAN.)
);
#1787=(
LENGTH_UNIT()
NAMED_UNIT(*)
SI_UNIT($,.METRE.)
);
#1788=PRODUCT_DEFINITION_SHAPE('','',#1789);
#1789=PRODUCT_DEFINITION('','',#1791,#1790);
#1790=PRODUCT_DEFINITION_CONTEXT('',#1797,'design');
#1791=PRODUCT_DEFINITION_FORMATION_WITH_SPECIFIED_SOURCE('','',#1793,
 .NOT_KNOWN.);
#1792=PRODUCT_RELATED_PRODUCT_CATEGORY('','',(#1793));
#1793=PRODUCT('bumperbrace','bumperbrace','bumperbrace',(#1795));
#1794=PRODUCT_CATEGORY('','');
#1795=PRODUCT_CONTEXT('',#1797,'mechanical');
#1796=APPLICATION_PROTOCOL_DEFINITION('international standard',
'automotive_design',2010,#1797);
#1797=APPLICATION_CONTEXT(
'core data for automotive mechanical design processes');
ENDSEC;
END-ISO-10303-21;
