ISO-10303-21;
HEADER;
/* Generated by software containing ST-Developer
 * from STEP Tools, Inc. (www.steptools.com) 
 */
/* OPTION: using custom renumber hook */

FILE_DESCRIPTION(
/* description */ ('STEP AP214'),
/* implementation_level */ '2;1');

FILE_NAME(
/* name */ '654cf5af7f9aa566be1722d9',
/* time_stamp */ '2023-11-09T15:07:27Z',
/* author */ (''),
/* organization */ (''),
/* preprocessor_version */ 'ST-DEVELOPER v19.4',
/* originating_system */ '  ',
/* authorisation */ '  ');

FILE_SCHEMA (('AUTOMOTIVE_DESIGN {1 0 10303 214 3 1 1}'));
ENDSEC;

DATA;
#10=PROPERTY_DEFINITION_REPRESENTATION(#14,#12);
#11=PROPERTY_DEFINITION_REPRESENTATION(#15,#13);
#12=REPRESENTATION('',(#16),#1828);
#13=REPRESENTATION('',(#17),#1828);
#14=PROPERTY_DEFINITION('pmi validation property','',#1833);
#15=PROPERTY_DEFINITION('pmi validation property','',#1833);
#16=VALUE_REPRESENTATION_ITEM('number of annotations',COUNT_MEASURE(0.));
#17=VALUE_REPRESENTATION_ITEM('number of views',COUNT_MEASURE(0.));
#18=SHAPE_REPRESENTATION_RELATIONSHIP('','',#1070,#19);
#19=ADVANCED_BREP_SHAPE_REPRESENTATION('',(#1068),#1828);
#20=OVER_RIDING_STYLED_ITEM('',(#1055),#1050,#1053);
#21=PLANE('',#1103);
#22=PLANE('',#1105);
#23=PLANE('',#1106);
#24=PLANE('',#1108);
#25=PLANE('',#1112);
#26=PLANE('',#1116);
#27=PLANE('',#1117);
#28=PLANE('',#1124);
#29=PLANE('',#1131);
#30=PLANE('',#1138);
#31=PLANE('',#1179);
#32=PLANE('',#1180);
#33=PLANE('',#1181);
#34=PLANE('',#1182);
#35=PLANE('',#1186);
#36=PLANE('',#1187);
#37=PLANE('',#1188);
#38=PLANE('',#1192);
#39=PLANE('',#1193);
#40=PLANE('',#1194);
#41=PLANE('',#1195);
#42=PLANE('',#1196);
#43=PLANE('',#1197);
#44=PLANE('',#1198);
#45=PLANE('',#1199);
#46=PLANE('',#1201);
#47=LINE('',#1548,#114);
#48=LINE('',#1549,#115);
#49=LINE('',#1556,#116);
#50=LINE('',#1557,#117);
#51=LINE('',#1564,#118);
#52=LINE('',#1565,#119);
#53=LINE('',#1567,#120);
#54=LINE('',#1569,#121);
#55=LINE('',#1573,#122);
#56=LINE('',#1578,#123);
#57=LINE('',#1582,#124);
#58=LINE('',#1586,#125);
#59=LINE('',#1594,#126);
#60=LINE('',#1600,#127);
#61=LINE('',#1602,#128);
#62=LINE('',#1604,#129);
#63=LINE('',#1608,#130);
#64=LINE('',#1609,#131);
#65=LINE('',#1614,#132);
#66=LINE('',#1617,#133);
#67=LINE('',#1623,#134);
#68=LINE('',#1627,#135);
#69=LINE('',#1629,#136);
#70=LINE('',#1631,#137);
#71=LINE('',#1633,#138);
#72=LINE('',#1637,#139);
#73=LINE('',#1641,#140);
#74=LINE('',#1642,#141);
#75=LINE('',#1691,#142);
#76=LINE('',#1695,#143);
#77=LINE('',#1700,#144);
#78=LINE('',#1704,#145);
#79=LINE('',#1709,#146);
#80=LINE('',#1713,#147);
#81=LINE('',#1718,#148);
#82=LINE('',#1722,#149);
#83=LINE('',#1727,#150);
#84=LINE('',#1731,#151);
#85=LINE('',#1736,#152);
#86=LINE('',#1740,#153);
#87=LINE('',#1742,#154);
#88=LINE('',#1744,#155);
#89=LINE('',#1748,#156);
#90=LINE('',#1750,#157);
#91=LINE('',#1774,#158);
#92=LINE('',#1775,#159);
#93=LINE('',#1777,#160);
#94=LINE('',#1778,#161);
#95=LINE('',#1780,#162);
#96=LINE('',#1781,#163);
#97=LINE('',#1783,#164);
#98=LINE('',#1785,#165);
#99=LINE('',#1787,#166);
#100=LINE('',#1789,#167);
#101=LINE('',#1791,#168);
#102=LINE('',#1792,#169);
#103=LINE('',#1799,#170);
#104=LINE('',#1800,#171);
#105=LINE('',#1802,#172);
#106=LINE('',#1806,#173);
#107=LINE('',#1807,#174);
#108=LINE('',#1808,#175);
#109=LINE('',#1813,#176);
#110=LINE('',#1815,#177);
#111=LINE('',#1817,#178);
#112=LINE('',#1823,#179);
#113=LINE('',#1825,#180);
#114=VECTOR('',#1222,1.);
#115=VECTOR('',#1223,1.);
#116=VECTOR('',#1230,1.);
#117=VECTOR('',#1231,1.);
#118=VECTOR('',#1238,1.);
#119=VECTOR('',#1239,1.);
#120=VECTOR('',#1242,1.);
#121=VECTOR('',#1243,1.);
#122=VECTOR('',#1248,1.);
#123=VECTOR('',#1251,1.);
#124=VECTOR('',#1256,1.);
#125=VECTOR('',#1259,1.);
#126=VECTOR('',#1270,1.);
#127=VECTOR('',#1275,1.);
#128=VECTOR('',#1278,1.);
#129=VECTOR('',#1279,1.);
#130=VECTOR('',#1284,1.);
#131=VECTOR('',#1285,1.);
#132=VECTOR('',#1292,1.);
#133=VECTOR('',#1295,1.);
#134=VECTOR('',#1302,1.);
#135=VECTOR('',#1305,1.);
#136=VECTOR('',#1308,1.);
#137=VECTOR('',#1309,1.);
#138=VECTOR('',#1310,1.);
#139=VECTOR('',#1315,1.);
#140=VECTOR('',#1320,1.);
#141=VECTOR('',#1321,1.);
#142=VECTOR('',#1382,1.);
#143=VECTOR('',#1385,1.);
#144=VECTOR('',#1390,1.);
#145=VECTOR('',#1393,1.);
#146=VECTOR('',#1398,1.);
#147=VECTOR('',#1401,1.);
#148=VECTOR('',#1406,1.);
#149=VECTOR('',#1409,1.);
#150=VECTOR('',#1414,1.);
#151=VECTOR('',#1417,1.);
#152=VECTOR('',#1422,1.);
#153=VECTOR('',#1425,1.);
#154=VECTOR('',#1428,1.);
#155=VECTOR('',#1429,1.);
#156=VECTOR('',#1434,1.);
#157=VECTOR('',#1435,1.);
#158=VECTOR('',#1464,1.);
#159=VECTOR('',#1465,1.);
#160=VECTOR('',#1468,1.);
#161=VECTOR('',#1469,1.);
#162=VECTOR('',#1472,1.);
#163=VECTOR('',#1473,1.);
#164=VECTOR('',#1474,1.);
#165=VECTOR('',#1475,1.);
#166=VECTOR('',#1476,1.);
#167=VECTOR('',#1477,1.);
#168=VECTOR('',#1480,1.);
#169=VECTOR('',#1481,1.);
#170=VECTOR('',#1490,1.);
#171=VECTOR('',#1491,1.);
#172=VECTOR('',#1494,1.);
#173=VECTOR('',#1499,1.);
#174=VECTOR('',#1500,1.);
#175=VECTOR('',#1501,1.);
#176=VECTOR('',#1508,1.);
#177=VECTOR('',#1511,1.);
#178=VECTOR('',#1514,1.);
#179=VECTOR('',#1525,1.);
#180=VECTOR('',#1528,1.);
#181=ELLIPSE('',#1080,0.00282842712474619,0.002);
#182=ELLIPSE('',#1081,0.00244868717289234,0.002);
#183=ELLIPSE('',#1083,0.00260177519887943,0.002);
#184=ELLIPSE('',#1084,0.00282842712474619,0.002);
#185=ELLIPSE('',#1088,0.00282842712474619,0.002);
#186=ELLIPSE('',#1090,0.00282842712474619,0.002);
#187=ELLIPSE('',#1091,0.00282842712474619,0.002);
#188=ELLIPSE('',#1093,0.00260177519887943,0.002);
#189=ELLIPSE('',#1099,0.00282842712474619,0.002);
#190=ELLIPSE('',#1100,0.00244868717289234,0.002);
#191=ELLIPSE('',#1104,0.00260177519887943,0.002);
#192=ELLIPSE('',#1107,0.00260177519887943,0.002);
#193=ELLIPSE('',#1146,0.00103527618041008,0.001);
#194=ELLIPSE('',#1147,0.00103527618041008,0.001);
#195=ELLIPSE('',#1149,0.00103527618041008,0.001);
#196=ELLIPSE('',#1150,0.00103527618041008,0.001);
#197=ELLIPSE('',#1164,0.00207055236082017,0.002);
#198=ELLIPSE('',#1166,0.00207055236082017,0.002);
#199=SPHERICAL_SURFACE('',#1075,0.002);
#200=SPHERICAL_SURFACE('',#1095,0.002);
#201=ORIENTED_EDGE('',*,*,#471,.T.);
#202=ORIENTED_EDGE('',*,*,#472,.F.);
#203=ORIENTED_EDGE('',*,*,#473,.F.);
#204=ORIENTED_EDGE('',*,*,#474,.T.);
#205=ORIENTED_EDGE('',*,*,#475,.T.);
#206=ORIENTED_EDGE('',*,*,#476,.T.);
#207=ORIENTED_EDGE('',*,*,#477,.F.);
#208=ORIENTED_EDGE('',*,*,#475,.F.);
#209=ORIENTED_EDGE('',*,*,#478,.F.);
#210=ORIENTED_EDGE('',*,*,#479,.F.);
#211=ORIENTED_EDGE('',*,*,#480,.F.);
#212=ORIENTED_EDGE('',*,*,#481,.F.);
#213=ORIENTED_EDGE('',*,*,#474,.F.);
#214=ORIENTED_EDGE('',*,*,#482,.F.);
#215=ORIENTED_EDGE('',*,*,#483,.T.);
#216=ORIENTED_EDGE('',*,*,#484,.F.);
#217=ORIENTED_EDGE('',*,*,#485,.F.);
#218=ORIENTED_EDGE('',*,*,#476,.F.);
#219=ORIENTED_EDGE('',*,*,#486,.F.);
#220=ORIENTED_EDGE('',*,*,#487,.F.);
#221=ORIENTED_EDGE('',*,*,#483,.F.);
#222=ORIENTED_EDGE('',*,*,#488,.F.);
#223=ORIENTED_EDGE('',*,*,#489,.T.);
#224=ORIENTED_EDGE('',*,*,#490,.F.);
#225=ORIENTED_EDGE('',*,*,#491,.F.);
#226=ORIENTED_EDGE('',*,*,#492,.F.);
#227=ORIENTED_EDGE('',*,*,#493,.F.);
#228=ORIENTED_EDGE('',*,*,#494,.F.);
#229=ORIENTED_EDGE('',*,*,#495,.F.);
#230=ORIENTED_EDGE('',*,*,#493,.T.);
#231=ORIENTED_EDGE('',*,*,#496,.F.);
#232=ORIENTED_EDGE('',*,*,#497,.T.);
#233=ORIENTED_EDGE('',*,*,#498,.F.);
#234=ORIENTED_EDGE('',*,*,#499,.T.);
#235=ORIENTED_EDGE('',*,*,#497,.F.);
#236=ORIENTED_EDGE('',*,*,#499,.F.);
#237=ORIENTED_EDGE('',*,*,#500,.F.);
#238=ORIENTED_EDGE('',*,*,#501,.F.);
#239=ORIENTED_EDGE('',*,*,#502,.F.);
#240=ORIENTED_EDGE('',*,*,#503,.F.);
#241=ORIENTED_EDGE('',*,*,#504,.F.);
#242=ORIENTED_EDGE('',*,*,#501,.T.);
#243=ORIENTED_EDGE('',*,*,#505,.F.);
#244=ORIENTED_EDGE('',*,*,#506,.F.);
#245=ORIENTED_EDGE('',*,*,#507,.F.);
#246=ORIENTED_EDGE('',*,*,#502,.T.);
#247=ORIENTED_EDGE('',*,*,#504,.T.);
#248=ORIENTED_EDGE('',*,*,#508,.T.);
#249=ORIENTED_EDGE('',*,*,#509,.T.);
#250=ORIENTED_EDGE('',*,*,#490,.T.);
#251=ORIENTED_EDGE('',*,*,#495,.T.);
#252=ORIENTED_EDGE('',*,*,#507,.T.);
#253=ORIENTED_EDGE('',*,*,#494,.T.);
#254=ORIENTED_EDGE('',*,*,#503,.T.);
#255=ORIENTED_EDGE('',*,*,#510,.T.);
#256=ORIENTED_EDGE('',*,*,#480,.T.);
#257=ORIENTED_EDGE('',*,*,#487,.T.);
#258=ORIENTED_EDGE('',*,*,#511,.T.);
#259=ORIENTED_EDGE('',*,*,#512,.F.);
#260=ORIENTED_EDGE('',*,*,#486,.T.);
#261=ORIENTED_EDGE('',*,*,#479,.T.);
#262=ORIENTED_EDGE('',*,*,#478,.T.);
#263=ORIENTED_EDGE('',*,*,#481,.T.);
#264=ORIENTED_EDGE('',*,*,#510,.F.);
#265=ORIENTED_EDGE('',*,*,#513,.T.);
#266=ORIENTED_EDGE('',*,*,#514,.F.);
#267=ORIENTED_EDGE('',*,*,#515,.T.);
#268=ORIENTED_EDGE('',*,*,#516,.T.);
#269=ORIENTED_EDGE('',*,*,#517,.T.);
#270=ORIENTED_EDGE('',*,*,#518,.F.);
#271=ORIENTED_EDGE('',*,*,#519,.T.);
#272=ORIENTED_EDGE('',*,*,#514,.T.);
#273=ORIENTED_EDGE('',*,*,#520,.T.);
#274=ORIENTED_EDGE('',*,*,#521,.F.);
#275=ORIENTED_EDGE('',*,*,#522,.T.);
#276=ORIENTED_EDGE('',*,*,#518,.T.);
#277=ORIENTED_EDGE('',*,*,#523,.T.);
#278=ORIENTED_EDGE('',*,*,#516,.F.);
#279=ORIENTED_EDGE('',*,*,#524,.T.);
#280=ORIENTED_EDGE('',*,*,#521,.T.);
#281=ORIENTED_EDGE('',*,*,#525,.T.);
#282=ORIENTED_EDGE('',*,*,#526,.F.);
#283=ORIENTED_EDGE('',*,*,#527,.F.);
#284=ORIENTED_EDGE('',*,*,#525,.F.);
#285=ORIENTED_EDGE('',*,*,#526,.T.);
#286=ORIENTED_EDGE('',*,*,#528,.T.);
#287=ORIENTED_EDGE('',*,*,#529,.T.);
#288=ORIENTED_EDGE('',*,*,#530,.F.);
#289=ORIENTED_EDGE('',*,*,#531,.F.);
#290=ORIENTED_EDGE('',*,*,#529,.F.);
#291=ORIENTED_EDGE('',*,*,#530,.T.);
#292=ORIENTED_EDGE('',*,*,#532,.T.);
#293=ORIENTED_EDGE('',*,*,#533,.T.);
#294=ORIENTED_EDGE('',*,*,#534,.F.);
#295=ORIENTED_EDGE('',*,*,#535,.T.);
#296=ORIENTED_EDGE('',*,*,#533,.F.);
#297=ORIENTED_EDGE('',*,*,#534,.T.);
#298=ORIENTED_EDGE('',*,*,#536,.F.);
#299=ORIENTED_EDGE('',*,*,#537,.T.);
#300=ORIENTED_EDGE('',*,*,#538,.F.);
#301=ORIENTED_EDGE('',*,*,#539,.T.);
#302=ORIENTED_EDGE('',*,*,#537,.F.);
#303=ORIENTED_EDGE('',*,*,#538,.T.);
#304=ORIENTED_EDGE('',*,*,#540,.F.);
#305=ORIENTED_EDGE('',*,*,#541,.F.);
#306=ORIENTED_EDGE('',*,*,#542,.F.);
#307=ORIENTED_EDGE('',*,*,#543,.F.);
#308=ORIENTED_EDGE('',*,*,#544,.F.);
#309=ORIENTED_EDGE('',*,*,#545,.F.);
#310=ORIENTED_EDGE('',*,*,#546,.F.);
#311=ORIENTED_EDGE('',*,*,#547,.F.);
#312=ORIENTED_EDGE('',*,*,#548,.F.);
#313=ORIENTED_EDGE('',*,*,#549,.F.);
#314=ORIENTED_EDGE('',*,*,#550,.F.);
#315=ORIENTED_EDGE('',*,*,#551,.F.);
#316=ORIENTED_EDGE('',*,*,#552,.F.);
#317=ORIENTED_EDGE('',*,*,#553,.F.);
#318=ORIENTED_EDGE('',*,*,#554,.F.);
#319=ORIENTED_EDGE('',*,*,#555,.F.);
#320=ORIENTED_EDGE('',*,*,#556,.F.);
#321=ORIENTED_EDGE('',*,*,#557,.F.);
#322=ORIENTED_EDGE('',*,*,#558,.F.);
#323=ORIENTED_EDGE('',*,*,#559,.F.);
#324=ORIENTED_EDGE('',*,*,#560,.F.);
#325=ORIENTED_EDGE('',*,*,#561,.F.);
#326=ORIENTED_EDGE('',*,*,#562,.F.);
#327=ORIENTED_EDGE('',*,*,#563,.F.);
#328=ORIENTED_EDGE('',*,*,#564,.F.);
#329=ORIENTED_EDGE('',*,*,#565,.F.);
#330=ORIENTED_EDGE('',*,*,#491,.T.);
#331=ORIENTED_EDGE('',*,*,#509,.F.);
#332=ORIENTED_EDGE('',*,*,#566,.F.);
#333=ORIENTED_EDGE('',*,*,#567,.F.);
#334=ORIENTED_EDGE('',*,*,#568,.F.);
#335=ORIENTED_EDGE('',*,*,#511,.F.);
#336=ORIENTED_EDGE('',*,*,#489,.F.);
#337=ORIENTED_EDGE('',*,*,#569,.F.);
#338=ORIENTED_EDGE('',*,*,#570,.F.);
#339=ORIENTED_EDGE('',*,*,#571,.T.);
#340=ORIENTED_EDGE('',*,*,#572,.T.);
#341=ORIENTED_EDGE('',*,*,#573,.T.);
#342=ORIENTED_EDGE('',*,*,#574,.T.);
#343=ORIENTED_EDGE('',*,*,#575,.T.);
#344=ORIENTED_EDGE('',*,*,#576,.T.);
#345=ORIENTED_EDGE('',*,*,#577,.T.);
#346=ORIENTED_EDGE('',*,*,#578,.T.);
#347=ORIENTED_EDGE('',*,*,#566,.T.);
#348=ORIENTED_EDGE('',*,*,#508,.F.);
#349=ORIENTED_EDGE('',*,*,#506,.T.);
#350=ORIENTED_EDGE('',*,*,#579,.F.);
#351=ORIENTED_EDGE('',*,*,#542,.T.);
#352=ORIENTED_EDGE('',*,*,#580,.F.);
#353=ORIENTED_EDGE('',*,*,#581,.T.);
#354=ORIENTED_EDGE('',*,*,#546,.T.);
#355=ORIENTED_EDGE('',*,*,#582,.F.);
#356=ORIENTED_EDGE('',*,*,#544,.T.);
#357=ORIENTED_EDGE('',*,*,#524,.F.);
#358=ORIENTED_EDGE('',*,*,#515,.F.);
#359=ORIENTED_EDGE('',*,*,#519,.F.);
#360=ORIENTED_EDGE('',*,*,#522,.F.);
#361=ORIENTED_EDGE('',*,*,#571,.F.);
#362=ORIENTED_EDGE('',*,*,#575,.F.);
#363=ORIENTED_EDGE('',*,*,#573,.F.);
#364=ORIENTED_EDGE('',*,*,#577,.F.);
#365=ORIENTED_EDGE('',*,*,#582,.T.);
#366=ORIENTED_EDGE('',*,*,#545,.T.);
#367=ORIENTED_EDGE('',*,*,#583,.F.);
#368=ORIENTED_EDGE('',*,*,#570,.T.);
#369=ORIENTED_EDGE('',*,*,#584,.T.);
#370=ORIENTED_EDGE('',*,*,#585,.T.);
#371=ORIENTED_EDGE('',*,*,#586,.F.);
#372=ORIENTED_EDGE('',*,*,#587,.T.);
#373=ORIENTED_EDGE('',*,*,#588,.T.);
#374=ORIENTED_EDGE('',*,*,#567,.T.);
#375=ORIENTED_EDGE('',*,*,#580,.T.);
#376=ORIENTED_EDGE('',*,*,#541,.T.);
#377=ORIENTED_EDGE('',*,*,#589,.F.);
#378=ORIENTED_EDGE('',*,*,#562,.T.);
#379=ORIENTED_EDGE('',*,*,#590,.T.);
#380=ORIENTED_EDGE('',*,*,#554,.T.);
#381=ORIENTED_EDGE('',*,*,#591,.T.);
#382=ORIENTED_EDGE('',*,*,#592,.F.);
#383=ORIENTED_EDGE('',*,*,#593,.T.);
#384=ORIENTED_EDGE('',*,*,#564,.T.);
#385=ORIENTED_EDGE('',*,*,#594,.F.);
#386=ORIENTED_EDGE('',*,*,#558,.T.);
#387=ORIENTED_EDGE('',*,*,#512,.T.);
#388=ORIENTED_EDGE('',*,*,#568,.T.);
#389=ORIENTED_EDGE('',*,*,#583,.T.);
#390=ORIENTED_EDGE('',*,*,#548,.T.);
#391=ORIENTED_EDGE('',*,*,#595,.T.);
#392=ORIENTED_EDGE('',*,*,#484,.T.);
#393=ORIENTED_EDGE('',*,*,#471,.F.);
#394=ORIENTED_EDGE('',*,*,#591,.F.);
#395=ORIENTED_EDGE('',*,*,#596,.F.);
#396=ORIENTED_EDGE('',*,*,#590,.F.);
#397=ORIENTED_EDGE('',*,*,#561,.T.);
#398=ORIENTED_EDGE('',*,*,#593,.F.);
#399=ORIENTED_EDGE('',*,*,#557,.T.);
#400=ORIENTED_EDGE('',*,*,#597,.F.);
#401=ORIENTED_EDGE('',*,*,#586,.T.);
#402=ORIENTED_EDGE('',*,*,#598,.F.);
#403=ORIENTED_EDGE('',*,*,#551,.T.);
#404=ORIENTED_EDGE('',*,*,#599,.F.);
#405=ORIENTED_EDGE('',*,*,#555,.T.);
#406=ORIENTED_EDGE('',*,*,#596,.T.);
#407=ORIENTED_EDGE('',*,*,#600,.F.);
#408=ORIENTED_EDGE('',*,*,#601,.F.);
#409=ORIENTED_EDGE('',*,*,#556,.T.);
#410=ORIENTED_EDGE('',*,*,#599,.T.);
#411=ORIENTED_EDGE('',*,*,#550,.T.);
#412=ORIENTED_EDGE('',*,*,#597,.T.);
#413=ORIENTED_EDGE('',*,*,#560,.T.);
#414=ORIENTED_EDGE('',*,*,#602,.F.);
#415=ORIENTED_EDGE('',*,*,#587,.F.);
#416=ORIENTED_EDGE('',*,*,#603,.F.);
#417=ORIENTED_EDGE('',*,*,#552,.T.);
#418=ORIENTED_EDGE('',*,*,#598,.T.);
#419=ORIENTED_EDGE('',*,*,#585,.F.);
#420=ORIENTED_EDGE('',*,*,#578,.F.);
#421=ORIENTED_EDGE('',*,*,#539,.F.);
#422=ORIENTED_EDGE('',*,*,#574,.F.);
#423=ORIENTED_EDGE('',*,*,#535,.F.);
#424=ORIENTED_EDGE('',*,*,#576,.F.);
#425=ORIENTED_EDGE('',*,*,#531,.T.);
#426=ORIENTED_EDGE('',*,*,#572,.F.);
#427=ORIENTED_EDGE('',*,*,#527,.T.);
#428=ORIENTED_EDGE('',*,*,#540,.T.);
#429=ORIENTED_EDGE('',*,*,#536,.T.);
#430=ORIENTED_EDGE('',*,*,#532,.F.);
#431=ORIENTED_EDGE('',*,*,#528,.F.);
#432=ORIENTED_EDGE('',*,*,#523,.F.);
#433=ORIENTED_EDGE('',*,*,#520,.F.);
#434=ORIENTED_EDGE('',*,*,#517,.F.);
#435=ORIENTED_EDGE('',*,*,#513,.F.);
#436=ORIENTED_EDGE('',*,*,#579,.T.);
#437=ORIENTED_EDGE('',*,*,#505,.T.);
#438=ORIENTED_EDGE('',*,*,#500,.T.);
#439=ORIENTED_EDGE('',*,*,#604,.T.);
#440=ORIENTED_EDGE('',*,*,#477,.T.);
#441=ORIENTED_EDGE('',*,*,#485,.T.);
#442=ORIENTED_EDGE('',*,*,#595,.F.);
#443=ORIENTED_EDGE('',*,*,#547,.T.);
#444=ORIENTED_EDGE('',*,*,#581,.F.);
#445=ORIENTED_EDGE('',*,*,#543,.T.);
#446=ORIENTED_EDGE('',*,*,#604,.F.);
#447=ORIENTED_EDGE('',*,*,#498,.T.);
#448=ORIENTED_EDGE('',*,*,#605,.F.);
#449=ORIENTED_EDGE('',*,*,#473,.T.);
#450=ORIENTED_EDGE('',*,*,#600,.T.);
#451=ORIENTED_EDGE('',*,*,#592,.T.);
#452=ORIENTED_EDGE('',*,*,#472,.T.);
#453=ORIENTED_EDGE('',*,*,#492,.T.);
#454=ORIENTED_EDGE('',*,*,#565,.T.);
#455=ORIENTED_EDGE('',*,*,#588,.F.);
#456=ORIENTED_EDGE('',*,*,#602,.T.);
#457=ORIENTED_EDGE('',*,*,#559,.T.);
#458=ORIENTED_EDGE('',*,*,#594,.T.);
#459=ORIENTED_EDGE('',*,*,#563,.T.);
#460=ORIENTED_EDGE('',*,*,#589,.T.);
#461=ORIENTED_EDGE('',*,*,#553,.T.);
#462=ORIENTED_EDGE('',*,*,#601,.T.);
#463=ORIENTED_EDGE('',*,*,#549,.T.);
#464=ORIENTED_EDGE('',*,*,#603,.T.);
#465=ORIENTED_EDGE('',*,*,#584,.F.);
#466=ORIENTED_EDGE('',*,*,#569,.T.);
#467=ORIENTED_EDGE('',*,*,#488,.T.);
#468=ORIENTED_EDGE('',*,*,#482,.T.);
#469=ORIENTED_EDGE('',*,*,#605,.T.);
#470=ORIENTED_EDGE('',*,*,#496,.T.);
#471=EDGE_CURVE('',#606,#606,#704,.T.);
#472=EDGE_CURVE('',#607,#607,#705,.T.);
#473=EDGE_CURVE('',#608,#609,#706,.T.);
#474=EDGE_CURVE('',#608,#610,#707,.T.);
#475=EDGE_CURVE('',#610,#609,#708,.T.);
#476=EDGE_CURVE('',#611,#612,#181,.T.);
#477=EDGE_CURVE('',#609,#612,#47,.T.);
#478=EDGE_CURVE('',#613,#610,#48,.T.);
#479=EDGE_CURVE('',#611,#613,#182,.T.);
#480=EDGE_CURVE('',#614,#615,#183,.T.);
#481=EDGE_CURVE('',#610,#614,#49,.T.);
#482=EDGE_CURVE('',#616,#608,#50,.T.);
#483=EDGE_CURVE('',#616,#615,#184,.T.);
#484=EDGE_CURVE('',#617,#618,#709,.T.);
#485=EDGE_CURVE('',#612,#617,#51,.T.);
#486=EDGE_CURVE('',#618,#611,#52,.T.);
#487=EDGE_CURVE('',#615,#619,#53,.T.);
#488=EDGE_CURVE('',#620,#616,#54,.T.);
#489=EDGE_CURVE('',#620,#619,#185,.T.);
#490=EDGE_CURVE('',#621,#622,#55,.T.);
#491=EDGE_CURVE('',#623,#621,#186,.T.);
#492=EDGE_CURVE('',#624,#623,#56,.T.);
#493=EDGE_CURVE('',#622,#624,#187,.T.);
#494=EDGE_CURVE('',#625,#626,#57,.T.);
#495=EDGE_CURVE('',#622,#625,#188,.T.);
#496=EDGE_CURVE('',#627,#624,#58,.T.);
#497=EDGE_CURVE('',#627,#626,#710,.T.);
#498=EDGE_CURVE('',#628,#627,#711,.T.);
#499=EDGE_CURVE('',#628,#626,#712,.T.);
#500=EDGE_CURVE('',#629,#628,#59,.T.);
#501=EDGE_CURVE('',#630,#629,#189,.T.);
#502=EDGE_CURVE('',#631,#630,#190,.T.);
#503=EDGE_CURVE('',#626,#631,#60,.T.);
#504=EDGE_CURVE('',#630,#632,#61,.T.);
#505=EDGE_CURVE('',#633,#629,#62,.T.);
#506=EDGE_CURVE('',#632,#633,#713,.T.);
#507=EDGE_CURVE('',#631,#625,#63,.T.);
#508=EDGE_CURVE('',#632,#634,#64,.T.);
#509=EDGE_CURVE('',#634,#621,#191,.T.);
#510=EDGE_CURVE('',#613,#614,#65,.T.);
#511=EDGE_CURVE('',#619,#635,#192,.T.);
#512=EDGE_CURVE('',#618,#635,#66,.T.);
#513=EDGE_CURVE('',#636,#637,#714,.T.);
#514=EDGE_CURVE('',#638,#637,#67,.T.);
#515=EDGE_CURVE('',#638,#639,#715,.T.);
#516=EDGE_CURVE('',#639,#636,#68,.T.);
#517=EDGE_CURVE('',#637,#640,#69,.T.);
#518=EDGE_CURVE('',#641,#640,#70,.T.);
#519=EDGE_CURVE('',#641,#638,#71,.T.);
#520=EDGE_CURVE('',#640,#642,#716,.T.);
#521=EDGE_CURVE('',#643,#642,#72,.T.);
#522=EDGE_CURVE('',#643,#641,#717,.T.);
#523=EDGE_CURVE('',#642,#636,#73,.T.);
#524=EDGE_CURVE('',#639,#643,#74,.T.);
#525=EDGE_CURVE('',#644,#644,#718,.T.);
#526=EDGE_CURVE('',#645,#645,#719,.T.);
#527=EDGE_CURVE('',#646,#646,#720,.T.);
#528=EDGE_CURVE('',#647,#647,#721,.T.);
#529=EDGE_CURVE('',#648,#648,#722,.T.);
#530=EDGE_CURVE('',#649,#649,#723,.T.);
#531=EDGE_CURVE('',#650,#650,#724,.T.);
#532=EDGE_CURVE('',#651,#651,#725,.T.);
#533=EDGE_CURVE('',#652,#652,#726,.T.);
#534=EDGE_CURVE('',#653,#653,#727,.T.);
#535=EDGE_CURVE('',#654,#654,#728,.T.);
#536=EDGE_CURVE('',#655,#655,#729,.T.);
#537=EDGE_CURVE('',#656,#656,#730,.T.);
#538=EDGE_CURVE('',#657,#657,#731,.T.);
#539=EDGE_CURVE('',#658,#658,#732,.T.);
#540=EDGE_CURVE('',#659,#659,#733,.T.);
#541=EDGE_CURVE('',#660,#661,#193,.T.);
#542=EDGE_CURVE('',#662,#660,#75,.T.);
#543=EDGE_CURVE('',#663,#662,#194,.T.);
#544=EDGE_CURVE('',#661,#663,#76,.T.);
#545=EDGE_CURVE('',#664,#665,#195,.T.);
#546=EDGE_CURVE('',#666,#664,#77,.T.);
#547=EDGE_CURVE('',#667,#666,#196,.T.);
#548=EDGE_CURVE('',#665,#667,#78,.T.);
#549=EDGE_CURVE('',#668,#669,#734,.T.);
#550=EDGE_CURVE('',#670,#668,#79,.T.);
#551=EDGE_CURVE('',#671,#670,#735,.T.);
#552=EDGE_CURVE('',#669,#671,#80,.T.);
#553=EDGE_CURVE('',#672,#673,#736,.T.);
#554=EDGE_CURVE('',#674,#672,#81,.T.);
#555=EDGE_CURVE('',#675,#674,#737,.T.);
#556=EDGE_CURVE('',#673,#675,#82,.T.);
#557=EDGE_CURVE('',#676,#677,#738,.T.);
#558=EDGE_CURVE('',#678,#676,#83,.T.);
#559=EDGE_CURVE('',#679,#678,#739,.T.);
#560=EDGE_CURVE('',#677,#679,#84,.T.);
#561=EDGE_CURVE('',#680,#681,#740,.T.);
#562=EDGE_CURVE('',#682,#680,#85,.T.);
#563=EDGE_CURVE('',#683,#682,#741,.T.);
#564=EDGE_CURVE('',#681,#683,#86,.T.);
#565=EDGE_CURVE('',#623,#684,#87,.T.);
#566=EDGE_CURVE('',#685,#634,#88,.T.);
#567=EDGE_CURVE('',#684,#685,#197,.T.);
#568=EDGE_CURVE('',#635,#686,#89,.T.);
#569=EDGE_CURVE('',#687,#620,#90,.T.);
#570=EDGE_CURVE('',#686,#687,#198,.T.);
#571=EDGE_CURVE('',#688,#688,#742,.T.);
#572=EDGE_CURVE('',#689,#689,#743,.T.);
#573=EDGE_CURVE('',#690,#690,#744,.T.);
#574=EDGE_CURVE('',#691,#691,#745,.T.);
#575=EDGE_CURVE('',#692,#692,#746,.T.);
#576=EDGE_CURVE('',#693,#693,#747,.T.);
#577=EDGE_CURVE('',#694,#694,#748,.T.);
#578=EDGE_CURVE('',#695,#695,#749,.T.);
#579=EDGE_CURVE('',#662,#633,#91,.T.);
#580=EDGE_CURVE('',#685,#660,#92,.T.);
#581=EDGE_CURVE('',#663,#666,#93,.T.);
#582=EDGE_CURVE('',#661,#664,#94,.T.);
#583=EDGE_CURVE('',#686,#665,#95,.T.);
#584=EDGE_CURVE('',#687,#696,#96,.T.);
#585=EDGE_CURVE('',#696,#697,#97,.T.);
#586=EDGE_CURVE('',#698,#697,#98,.T.);
#587=EDGE_CURVE('',#698,#699,#99,.T.);
#588=EDGE_CURVE('',#699,#684,#100,.T.);
#589=EDGE_CURVE('',#682,#672,#101,.T.);
#590=EDGE_CURVE('',#680,#674,#102,.T.);
#591=EDGE_CURVE('',#700,#700,#750,.T.);
#592=EDGE_CURVE('',#701,#701,#751,.T.);
#593=EDGE_CURVE('',#676,#681,#103,.T.);
#594=EDGE_CURVE('',#678,#683,#104,.T.);
#595=EDGE_CURVE('',#667,#617,#105,.T.);
#596=EDGE_CURVE('',#702,#702,#752,.T.);
#597=EDGE_CURVE('',#698,#677,#106,.T.);
#598=EDGE_CURVE('',#671,#697,#107,.T.);
#599=EDGE_CURVE('',#675,#670,#108,.T.);
#600=EDGE_CURVE('',#703,#703,#753,.T.);
#601=EDGE_CURVE('',#673,#668,#109,.T.);
#602=EDGE_CURVE('',#699,#679,#110,.T.);
#603=EDGE_CURVE('',#669,#696,#111,.T.);
#604=EDGE_CURVE('',#628,#609,#112,.T.);
#605=EDGE_CURVE('',#608,#627,#113,.T.);
#606=VERTEX_POINT('',#1534);
#607=VERTEX_POINT('',#1536);
#608=VERTEX_POINT('',#1539);
#609=VERTEX_POINT('',#1540);
#610=VERTEX_POINT('',#1542);
#611=VERTEX_POINT('',#1546);
#612=VERTEX_POINT('',#1547);
#613=VERTEX_POINT('',#1550);
#614=VERTEX_POINT('',#1554);
#615=VERTEX_POINT('',#1555);
#616=VERTEX_POINT('',#1558);
#617=VERTEX_POINT('',#1562);
#618=VERTEX_POINT('',#1563);
#619=VERTEX_POINT('',#1568);
#620=VERTEX_POINT('',#1570);
#621=VERTEX_POINT('',#1574);
#622=VERTEX_POINT('',#1575);
#623=VERTEX_POINT('',#1577);
#624=VERTEX_POINT('',#1579);
#625=VERTEX_POINT('',#1583);
#626=VERTEX_POINT('',#1584);
#627=VERTEX_POINT('',#1587);
#628=VERTEX_POINT('',#1591);
#629=VERTEX_POINT('',#1595);
#630=VERTEX_POINT('',#1597);
#631=VERTEX_POINT('',#1599);
#632=VERTEX_POINT('',#1603);
#633=VERTEX_POINT('',#1605);
#634=VERTEX_POINT('',#1610);
#635=VERTEX_POINT('',#1616);
#636=VERTEX_POINT('',#1621);
#637=VERTEX_POINT('',#1622);
#638=VERTEX_POINT('',#1624);
#639=VERTEX_POINT('',#1626);
#640=VERTEX_POINT('',#1630);
#641=VERTEX_POINT('',#1632);
#642=VERTEX_POINT('',#1636);
#643=VERTEX_POINT('',#1638);
#644=VERTEX_POINT('',#1645);
#645=VERTEX_POINT('',#1647);
#646=VERTEX_POINT('',#1650);
#647=VERTEX_POINT('',#1653);
#648=VERTEX_POINT('',#1656);
#649=VERTEX_POINT('',#1658);
#650=VERTEX_POINT('',#1661);
#651=VERTEX_POINT('',#1664);
#652=VERTEX_POINT('',#1667);
#653=VERTEX_POINT('',#1669);
#654=VERTEX_POINT('',#1672);
#655=VERTEX_POINT('',#1675);
#656=VERTEX_POINT('',#1678);
#657=VERTEX_POINT('',#1680);
#658=VERTEX_POINT('',#1683);
#659=VERTEX_POINT('',#1686);
#660=VERTEX_POINT('',#1689);
#661=VERTEX_POINT('',#1690);
#662=VERTEX_POINT('',#1692);
#663=VERTEX_POINT('',#1694);
#664=VERTEX_POINT('',#1698);
#665=VERTEX_POINT('',#1699);
#666=VERTEX_POINT('',#1701);
#667=VERTEX_POINT('',#1703);
#668=VERTEX_POINT('',#1707);
#669=VERTEX_POINT('',#1708);
#670=VERTEX_POINT('',#1710);
#671=VERTEX_POINT('',#1712);
#672=VERTEX_POINT('',#1716);
#673=VERTEX_POINT('',#1717);
#674=VERTEX_POINT('',#1719);
#675=VERTEX_POINT('',#1721);
#676=VERTEX_POINT('',#1725);
#677=VERTEX_POINT('',#1726);
#678=VERTEX_POINT('',#1728);
#679=VERTEX_POINT('',#1730);
#680=VERTEX_POINT('',#1734);
#681=VERTEX_POINT('',#1735);
#682=VERTEX_POINT('',#1737);
#683=VERTEX_POINT('',#1739);
#684=VERTEX_POINT('',#1743);
#685=VERTEX_POINT('',#1745);
#686=VERTEX_POINT('',#1749);
#687=VERTEX_POINT('',#1751);
#688=VERTEX_POINT('',#1755);
#689=VERTEX_POINT('',#1757);
#690=VERTEX_POINT('',#1760);
#691=VERTEX_POINT('',#1762);
#692=VERTEX_POINT('',#1765);
#693=VERTEX_POINT('',#1767);
#694=VERTEX_POINT('',#1770);
#695=VERTEX_POINT('',#1772);
#696=VERTEX_POINT('',#1782);
#697=VERTEX_POINT('',#1784);
#698=VERTEX_POINT('',#1786);
#699=VERTEX_POINT('',#1788);
#700=VERTEX_POINT('',#1795);
#701=VERTEX_POINT('',#1797);
#702=VERTEX_POINT('',#1805);
#703=VERTEX_POINT('',#1811);
#704=CIRCLE('',#1073,0.00185);
#705=CIRCLE('',#1074,0.00185);
#706=CIRCLE('',#1076,0.002);
#707=CIRCLE('',#1077,0.002);
#708=CIRCLE('',#1078,0.002);
#709=CIRCLE('',#1086,0.002);
#710=CIRCLE('',#1094,0.002);
#711=CIRCLE('',#1096,0.002);
#712=CIRCLE('',#1097,0.002);
#713=CIRCLE('',#1102,0.002);
#714=CIRCLE('',#1110,0.00135);
#715=CIRCLE('',#1111,0.00135);
#716=CIRCLE('',#1114,0.00135);
#717=CIRCLE('',#1115,0.00135);
#718=CIRCLE('',#1118,0.00175);
#719=CIRCLE('',#1119,0.00275);
#720=CIRCLE('',#1121,0.00175);
#721=CIRCLE('',#1123,0.00275);
#722=CIRCLE('',#1125,0.00175);
#723=CIRCLE('',#1126,0.00275);
#724=CIRCLE('',#1128,0.00175);
#725=CIRCLE('',#1130,0.00275);
#726=CIRCLE('',#1132,0.00175);
#727=CIRCLE('',#1133,0.00275);
#728=CIRCLE('',#1135,0.00175);
#729=CIRCLE('',#1137,0.00275);
#730=CIRCLE('',#1139,0.00175);
#731=CIRCLE('',#1140,0.00275);
#732=CIRCLE('',#1142,0.00175);
#733=CIRCLE('',#1144,0.00275);
#734=CIRCLE('',#1152,0.001);
#735=CIRCLE('',#1153,0.001);
#736=CIRCLE('',#1155,0.001);
#737=CIRCLE('',#1156,0.001);
#738=CIRCLE('',#1158,0.001);
#739=CIRCLE('',#1159,0.001);
#740=CIRCLE('',#1161,0.001);
#741=CIRCLE('',#1162,0.001);
#742=CIRCLE('',#1168,0.00125);
#743=CIRCLE('',#1169,0.00125);
#744=CIRCLE('',#1171,0.00125);
#745=CIRCLE('',#1172,0.00125);
#746=CIRCLE('',#1174,0.00125);
#747=CIRCLE('',#1175,0.00125);
#748=CIRCLE('',#1177,0.00125);
#749=CIRCLE('',#1178,0.00125);
#750=CIRCLE('',#1184,0.00185);
#751=CIRCLE('',#1185,0.00185);
#752=CIRCLE('',#1189,0.00185);
#753=CIRCLE('',#1191,0.00185);
#754=EDGE_LOOP('',(#201));
#755=EDGE_LOOP('',(#202));
#756=EDGE_LOOP('',(#203,#204,#205));
#757=EDGE_LOOP('',(#206,#207,#208,#209,#210));
#758=EDGE_LOOP('',(#211,#212,#213,#214,#215));
#759=EDGE_LOOP('',(#216,#217,#218,#219));
#760=EDGE_LOOP('',(#220,#221,#222,#223));
#761=EDGE_LOOP('',(#224,#225,#226,#227));
#762=EDGE_LOOP('',(#228,#229,#230,#231,#232));
#763=EDGE_LOOP('',(#233,#234,#235));
#764=EDGE_LOOP('',(#236,#237,#238,#239,#240));
#765=EDGE_LOOP('',(#241,#242,#243,#244));
#766=EDGE_LOOP('',(#245,#246,#247,#248,#249,#250,#251));
#767=EDGE_LOOP('',(#252,#253,#254));
#768=EDGE_LOOP('',(#255,#256,#257,#258,#259,#260,#261));
#769=EDGE_LOOP('',(#262,#263,#264));
#770=EDGE_LOOP('',(#265,#266,#267,#268));
#771=EDGE_LOOP('',(#269,#270,#271,#272));
#772=EDGE_LOOP('',(#273,#274,#275,#276));
#773=EDGE_LOOP('',(#277,#278,#279,#280));
#774=EDGE_LOOP('',(#281));
#775=EDGE_LOOP('',(#282));
#776=EDGE_LOOP('',(#283));
#777=EDGE_LOOP('',(#284));
#778=EDGE_LOOP('',(#285));
#779=EDGE_LOOP('',(#286));
#780=EDGE_LOOP('',(#287));
#781=EDGE_LOOP('',(#288));
#782=EDGE_LOOP('',(#289));
#783=EDGE_LOOP('',(#290));
#784=EDGE_LOOP('',(#291));
#785=EDGE_LOOP('',(#292));
#786=EDGE_LOOP('',(#293));
#787=EDGE_LOOP('',(#294));
#788=EDGE_LOOP('',(#295));
#789=EDGE_LOOP('',(#296));
#790=EDGE_LOOP('',(#297));
#791=EDGE_LOOP('',(#298));
#792=EDGE_LOOP('',(#299));
#793=EDGE_LOOP('',(#300));
#794=EDGE_LOOP('',(#301));
#795=EDGE_LOOP('',(#302));
#796=EDGE_LOOP('',(#303));
#797=EDGE_LOOP('',(#304));
#798=EDGE_LOOP('',(#305,#306,#307,#308));
#799=EDGE_LOOP('',(#309,#310,#311,#312));
#800=EDGE_LOOP('',(#313,#314,#315,#316));
#801=EDGE_LOOP('',(#317,#318,#319,#320));
#802=EDGE_LOOP('',(#321,#322,#323,#324));
#803=EDGE_LOOP('',(#325,#326,#327,#328));
#804=EDGE_LOOP('',(#329,#330,#331,#332,#333));
#805=EDGE_LOOP('',(#334,#335,#336,#337,#338));
#806=EDGE_LOOP('',(#339));
#807=EDGE_LOOP('',(#340));
#808=EDGE_LOOP('',(#341));
#809=EDGE_LOOP('',(#342));
#810=EDGE_LOOP('',(#343));
#811=EDGE_LOOP('',(#344));
#812=EDGE_LOOP('',(#345));
#813=EDGE_LOOP('',(#346));
#814=EDGE_LOOP('',(#347,#348,#349,#350,#351,#352));
#815=EDGE_LOOP('',(#353,#354,#355,#356));
#816=EDGE_LOOP('',(#357,#358,#359,#360));
#817=EDGE_LOOP('',(#361));
#818=EDGE_LOOP('',(#362));
#819=EDGE_LOOP('',(#363));
#820=EDGE_LOOP('',(#364));
#821=EDGE_LOOP('',(#365,#366,#367,#368,#369,#370,#371,#372,#373,#374,#375,
#376));
#822=EDGE_LOOP('',(#377,#378,#379,#380));
#823=EDGE_LOOP('',(#381));
#824=EDGE_LOOP('',(#382));
#825=EDGE_LOOP('',(#383,#384,#385,#386));
#826=EDGE_LOOP('',(#387,#388,#389,#390,#391,#392));
#827=EDGE_LOOP('',(#393));
#828=EDGE_LOOP('',(#394));
#829=EDGE_LOOP('',(#395));
#830=EDGE_LOOP('',(#396,#397,#398,#399,#400,#401,#402,#403,#404,#405));
#831=EDGE_LOOP('',(#406));
#832=EDGE_LOOP('',(#407));
#833=EDGE_LOOP('',(#408,#409,#410,#411));
#834=EDGE_LOOP('',(#412,#413,#414,#415));
#835=EDGE_LOOP('',(#416,#417,#418,#419));
#836=EDGE_LOOP('',(#420));
#837=EDGE_LOOP('',(#421));
#838=EDGE_LOOP('',(#422));
#839=EDGE_LOOP('',(#423));
#840=EDGE_LOOP('',(#424));
#841=EDGE_LOOP('',(#425));
#842=EDGE_LOOP('',(#426));
#843=EDGE_LOOP('',(#427));
#844=EDGE_LOOP('',(#428));
#845=EDGE_LOOP('',(#429));
#846=EDGE_LOOP('',(#430));
#847=EDGE_LOOP('',(#431));
#848=EDGE_LOOP('',(#432,#433,#434,#435));
#849=EDGE_LOOP('',(#436,#437,#438,#439,#440,#441,#442,#443,#444,#445));
#850=EDGE_LOOP('',(#446,#447,#448,#449));
#851=EDGE_LOOP('',(#450));
#852=EDGE_LOOP('',(#451));
#853=EDGE_LOOP('',(#452));
#854=EDGE_LOOP('',(#453,#454,#455,#456,#457,#458,#459,#460,#461,#462,#463,
#464,#465,#466,#467,#468,#469,#470));
#855=FACE_BOUND('',#754,.T.);
#856=FACE_BOUND('',#755,.T.);
#857=FACE_BOUND('',#756,.T.);
#858=FACE_BOUND('',#757,.T.);
#859=FACE_BOUND('',#758,.T.);
#860=FACE_BOUND('',#759,.T.);
#861=FACE_BOUND('',#760,.T.);
#862=FACE_BOUND('',#761,.T.);
#863=FACE_BOUND('',#762,.T.);
#864=FACE_BOUND('',#763,.T.);
#865=FACE_BOUND('',#764,.T.);
#866=FACE_BOUND('',#765,.T.);
#867=FACE_BOUND('',#766,.T.);
#868=FACE_BOUND('',#767,.T.);
#869=FACE_BOUND('',#768,.T.);
#870=FACE_BOUND('',#769,.T.);
#871=FACE_BOUND('',#770,.T.);
#872=FACE_BOUND('',#771,.T.);
#873=FACE_BOUND('',#772,.T.);
#874=FACE_BOUND('',#773,.T.);
#875=FACE_BOUND('',#774,.T.);
#876=FACE_BOUND('',#775,.T.);
#877=FACE_BOUND('',#776,.T.);
#878=FACE_BOUND('',#777,.T.);
#879=FACE_BOUND('',#778,.T.);
#880=FACE_BOUND('',#779,.T.);
#881=FACE_BOUND('',#780,.T.);
#882=FACE_BOUND('',#781,.T.);
#883=FACE_BOUND('',#782,.T.);
#884=FACE_BOUND('',#783,.T.);
#885=FACE_BOUND('',#784,.T.);
#886=FACE_BOUND('',#785,.T.);
#887=FACE_BOUND('',#786,.T.);
#888=FACE_BOUND('',#787,.T.);
#889=FACE_BOUND('',#788,.T.);
#890=FACE_BOUND('',#789,.T.);
#891=FACE_BOUND('',#790,.T.);
#892=FACE_BOUND('',#791,.T.);
#893=FACE_BOUND('',#792,.T.);
#894=FACE_BOUND('',#793,.T.);
#895=FACE_BOUND('',#794,.T.);
#896=FACE_BOUND('',#795,.T.);
#897=FACE_BOUND('',#796,.T.);
#898=FACE_BOUND('',#797,.T.);
#899=FACE_BOUND('',#798,.T.);
#900=FACE_BOUND('',#799,.T.);
#901=FACE_BOUND('',#800,.T.);
#902=FACE_BOUND('',#801,.T.);
#903=FACE_BOUND('',#802,.T.);
#904=FACE_BOUND('',#803,.T.);
#905=FACE_BOUND('',#804,.T.);
#906=FACE_BOUND('',#805,.T.);
#907=FACE_BOUND('',#806,.T.);
#908=FACE_BOUND('',#807,.T.);
#909=FACE_BOUND('',#808,.T.);
#910=FACE_BOUND('',#809,.T.);
#911=FACE_BOUND('',#810,.T.);
#912=FACE_BOUND('',#811,.T.);
#913=FACE_BOUND('',#812,.T.);
#914=FACE_BOUND('',#813,.T.);
#915=FACE_BOUND('',#814,.T.);
#916=FACE_BOUND('',#815,.T.);
#917=FACE_BOUND('',#816,.T.);
#918=FACE_BOUND('',#817,.T.);
#919=FACE_BOUND('',#818,.T.);
#920=FACE_BOUND('',#819,.T.);
#921=FACE_BOUND('',#820,.T.);
#922=FACE_BOUND('',#821,.T.);
#923=FACE_BOUND('',#822,.T.);
#924=FACE_BOUND('',#823,.T.);
#925=FACE_BOUND('',#824,.T.);
#926=FACE_BOUND('',#825,.T.);
#927=FACE_BOUND('',#826,.T.);
#928=FACE_BOUND('',#827,.T.);
#929=FACE_BOUND('',#828,.T.);
#930=FACE_BOUND('',#829,.T.);
#931=FACE_BOUND('',#830,.T.);
#932=FACE_BOUND('',#831,.T.);
#933=FACE_BOUND('',#832,.T.);
#934=FACE_BOUND('',#833,.T.);
#935=FACE_BOUND('',#834,.T.);
#936=FACE_BOUND('',#835,.T.);
#937=FACE_BOUND('',#836,.T.);
#938=FACE_BOUND('',#837,.T.);
#939=FACE_BOUND('',#838,.T.);
#940=FACE_BOUND('',#839,.T.);
#941=FACE_BOUND('',#840,.T.);
#942=FACE_BOUND('',#841,.T.);
#943=FACE_BOUND('',#842,.T.);
#944=FACE_BOUND('',#843,.T.);
#945=FACE_BOUND('',#844,.T.);
#946=FACE_BOUND('',#845,.T.);
#947=FACE_BOUND('',#846,.T.);
#948=FACE_BOUND('',#847,.T.);
#949=FACE_BOUND('',#848,.T.);
#950=FACE_BOUND('',#849,.T.);
#951=FACE_BOUND('',#850,.T.);
#952=FACE_BOUND('',#851,.T.);
#953=FACE_BOUND('',#852,.T.);
#954=FACE_BOUND('',#853,.T.);
#955=FACE_BOUND('',#854,.T.);
#956=CYLINDRICAL_SURFACE('',#1072,0.00185);
#957=CYLINDRICAL_SURFACE('',#1079,0.002);
#958=CYLINDRICAL_SURFACE('',#1082,0.002);
#959=CYLINDRICAL_SURFACE('',#1085,0.002);
#960=CYLINDRICAL_SURFACE('',#1087,0.002);
#961=CYLINDRICAL_SURFACE('',#1089,0.002);
#962=CYLINDRICAL_SURFACE('',#1092,0.002);
#963=CYLINDRICAL_SURFACE('',#1098,0.002);
#964=CYLINDRICAL_SURFACE('',#1101,0.002);
#965=CYLINDRICAL_SURFACE('',#1109,0.00135);
#966=CYLINDRICAL_SURFACE('',#1113,0.00135);
#967=CYLINDRICAL_SURFACE('',#1120,0.00175);
#968=CYLINDRICAL_SURFACE('',#1122,0.00275);
#969=CYLINDRICAL_SURFACE('',#1127,0.00175);
#970=CYLINDRICAL_SURFACE('',#1129,0.00275);
#971=CYLINDRICAL_SURFACE('',#1134,0.00175);
#972=CYLINDRICAL_SURFACE('',#1136,0.00275);
#973=CYLINDRICAL_SURFACE('',#1141,0.00175);
#974=CYLINDRICAL_SURFACE('',#1143,0.00275);
#975=CYLINDRICAL_SURFACE('',#1145,0.001);
#976=CYLINDRICAL_SURFACE('',#1148,0.001);
#977=CYLINDRICAL_SURFACE('',#1151,0.001);
#978=CYLINDRICAL_SURFACE('',#1154,0.001);
#979=CYLINDRICAL_SURFACE('',#1157,0.001);
#980=CYLINDRICAL_SURFACE('',#1160,0.001);
#981=CYLINDRICAL_SURFACE('',#1163,0.002);
#982=CYLINDRICAL_SURFACE('',#1165,0.002);
#983=CYLINDRICAL_SURFACE('',#1167,0.00125);
#984=CYLINDRICAL_SURFACE('',#1170,0.00125);
#985=CYLINDRICAL_SURFACE('',#1173,0.00125);
#986=CYLINDRICAL_SURFACE('',#1176,0.00125);
#987=CYLINDRICAL_SURFACE('',#1183,0.00185);
#988=CYLINDRICAL_SURFACE('',#1190,0.00185);
#989=CYLINDRICAL_SURFACE('',#1200,0.002);
#990=ADVANCED_FACE('',(#855,#856),#956,.F.);
#991=ADVANCED_FACE('',(#857),#199,.F.);
#992=ADVANCED_FACE('',(#858),#957,.F.);
#993=ADVANCED_FACE('',(#859),#958,.F.);
#994=ADVANCED_FACE('',(#860),#959,.F.);
#995=ADVANCED_FACE('',(#861),#960,.F.);
#996=ADVANCED_FACE('',(#862),#961,.F.);
#997=ADVANCED_FACE('',(#863),#962,.F.);
#998=ADVANCED_FACE('',(#864),#200,.F.);
#999=ADVANCED_FACE('',(#865),#963,.F.);
#1000=ADVANCED_FACE('',(#866),#964,.F.);
#1001=ADVANCED_FACE('',(#867),#21,.T.);
#1002=ADVANCED_FACE('',(#868),#22,.F.);
#1003=ADVANCED_FACE('',(#869),#23,.F.);
#1004=ADVANCED_FACE('',(#870),#24,.T.);
#1005=ADVANCED_FACE('',(#871),#965,.F.);
#1006=ADVANCED_FACE('',(#872),#25,.F.);
#1007=ADVANCED_FACE('',(#873),#966,.F.);
#1008=ADVANCED_FACE('',(#874),#26,.F.);
#1009=ADVANCED_FACE('',(#875,#876),#27,.F.);
#1010=ADVANCED_FACE('',(#877,#878),#967,.F.);
#1011=ADVANCED_FACE('',(#879,#880),#968,.T.);
#1012=ADVANCED_FACE('',(#881,#882),#28,.F.);
#1013=ADVANCED_FACE('',(#883,#884),#969,.F.);
#1014=ADVANCED_FACE('',(#885,#886),#970,.T.);
#1015=ADVANCED_FACE('',(#887,#888),#29,.F.);
#1016=ADVANCED_FACE('',(#889,#890),#971,.F.);
#1017=ADVANCED_FACE('',(#891,#892),#972,.T.);
#1018=ADVANCED_FACE('',(#893,#894),#30,.F.);
#1019=ADVANCED_FACE('',(#895,#896),#973,.F.);
#1020=ADVANCED_FACE('',(#897,#898),#974,.T.);
#1021=ADVANCED_FACE('',(#899),#975,.T.);
#1022=ADVANCED_FACE('',(#900),#976,.T.);
#1023=ADVANCED_FACE('',(#901),#977,.T.);
#1024=ADVANCED_FACE('',(#902),#978,.T.);
#1025=ADVANCED_FACE('',(#903),#979,.T.);
#1026=ADVANCED_FACE('',(#904),#980,.T.);
#1027=ADVANCED_FACE('',(#905),#981,.F.);
#1028=ADVANCED_FACE('',(#906),#982,.F.);
#1029=ADVANCED_FACE('',(#907,#908),#983,.F.);
#1030=ADVANCED_FACE('',(#909,#910),#984,.F.);
#1031=ADVANCED_FACE('',(#911,#912),#985,.F.);
#1032=ADVANCED_FACE('',(#913,#914),#986,.F.);
#1033=ADVANCED_FACE('',(#915),#31,.F.);
#1034=ADVANCED_FACE('',(#916),#32,.T.);
#1035=ADVANCED_FACE('',(#917,#918,#919,#920,#921,#922),#33,.T.);
#1036=ADVANCED_FACE('',(#923),#34,.T.);
#1037=ADVANCED_FACE('',(#924,#925),#987,.F.);
#1038=ADVANCED_FACE('',(#926),#35,.F.);
#1039=ADVANCED_FACE('',(#927),#36,.T.);
#1040=ADVANCED_FACE('',(#928,#929,#930,#931),#37,.T.);
#1041=ADVANCED_FACE('',(#932,#933),#988,.F.);
#1042=ADVANCED_FACE('',(#934),#38,.F.);
#1043=ADVANCED_FACE('',(#935),#39,.F.);
#1044=ADVANCED_FACE('',(#936),#40,.F.);
#1045=ADVANCED_FACE('',(#937,#938),#41,.T.);
#1046=ADVANCED_FACE('',(#939,#940),#42,.T.);
#1047=ADVANCED_FACE('',(#941,#942),#43,.T.);
#1048=ADVANCED_FACE('',(#943,#944),#44,.T.);
#1049=ADVANCED_FACE('',(#945,#946,#947,#948,#949,#950),#45,.T.);
#1050=ADVANCED_FACE('',(#951),#989,.F.);
#1051=ADVANCED_FACE('',(#952,#953,#954,#955),#46,.F.);
#1052=CLOSED_SHELL('',(#990,#991,#992,#993,#994,#995,#996,#997,#998,#999,
#1000,#1001,#1002,#1003,#1004,#1005,#1006,#1007,#1008,#1009,#1010,#1011,
#1012,#1013,#1014,#1015,#1016,#1017,#1018,#1019,#1020,#1021,#1022,#1023,
#1024,#1025,#1026,#1027,#1028,#1029,#1030,#1031,#1032,#1033,#1034,#1035,
#1036,#1037,#1038,#1039,#1040,#1041,#1042,#1043,#1044,#1045,#1046,#1047,
#1048,#1049,#1050,#1051));
#1053=STYLED_ITEM('',(#1054),#1068);
#1054=PRESENTATION_STYLE_ASSIGNMENT((#1056));
#1055=PRESENTATION_STYLE_ASSIGNMENT((#1057));
#1056=SURFACE_STYLE_USAGE(.BOTH.,#1058);
#1057=SURFACE_STYLE_USAGE(.BOTH.,#1059);
#1058=SURFACE_SIDE_STYLE('',(#1060));
#1059=SURFACE_SIDE_STYLE('',(#1061));
#1060=SURFACE_STYLE_FILL_AREA(#1062);
#1061=SURFACE_STYLE_FILL_AREA(#1063);
#1062=FILL_AREA_STYLE('',(#1064));
#1063=FILL_AREA_STYLE('',(#1065));
#1064=FILL_AREA_STYLE_COLOUR('',#1066);
#1065=FILL_AREA_STYLE_COLOUR('',#1067);
#1066=COLOUR_RGB('',0.298039215686275,0.298039215686275,0.298039215686275);
#1067=COLOUR_RGB('',0.596078431372549,0.666666666666667,0.686274509803922);
#1068=MANIFOLD_SOLID_BREP('cam_holder',#1052);
#1069=SHAPE_DEFINITION_REPRESENTATION(#1833,#1070);
#1070=SHAPE_REPRESENTATION('cam_holder',(#1071),#1828);
#1071=AXIS2_PLACEMENT_3D('',#1531,#1202,#1203);
#1072=AXIS2_PLACEMENT_3D('',#1532,#1204,#1205);
#1073=AXIS2_PLACEMENT_3D('',#1533,#1206,#1207);
#1074=AXIS2_PLACEMENT_3D('',#1535,#1208,#1209);
#1075=AXIS2_PLACEMENT_3D('',#1537,#1210,#1211);
#1076=AXIS2_PLACEMENT_3D('',#1538,#1212,#1213);
#1077=AXIS2_PLACEMENT_3D('',#1541,#1214,#1215);
#1078=AXIS2_PLACEMENT_3D('',#1543,#1216,#1217);
#1079=AXIS2_PLACEMENT_3D('',#1544,#1218,#1219);
#1080=AXIS2_PLACEMENT_3D('',#1545,#1220,#1221);
#1081=AXIS2_PLACEMENT_3D('',#1551,#1224,#1225);
#1082=AXIS2_PLACEMENT_3D('',#1552,#1226,#1227);
#1083=AXIS2_PLACEMENT_3D('',#1553,#1228,#1229);
#1084=AXIS2_PLACEMENT_3D('',#1559,#1232,#1233);
#1085=AXIS2_PLACEMENT_3D('',#1560,#1234,#1235);
#1086=AXIS2_PLACEMENT_3D('',#1561,#1236,#1237);
#1087=AXIS2_PLACEMENT_3D('',#1566,#1240,#1241);
#1088=AXIS2_PLACEMENT_3D('',#1571,#1244,#1245);
#1089=AXIS2_PLACEMENT_3D('',#1572,#1246,#1247);
#1090=AXIS2_PLACEMENT_3D('',#1576,#1249,#1250);
#1091=AXIS2_PLACEMENT_3D('',#1580,#1252,#1253);
#1092=AXIS2_PLACEMENT_3D('',#1581,#1254,#1255);
#1093=AXIS2_PLACEMENT_3D('',#1585,#1257,#1258);
#1094=AXIS2_PLACEMENT_3D('',#1588,#1260,#1261);
#1095=AXIS2_PLACEMENT_3D('',#1589,#1262,#1263);
#1096=AXIS2_PLACEMENT_3D('',#1590,#1264,#1265);
#1097=AXIS2_PLACEMENT_3D('',#1592,#1266,#1267);
#1098=AXIS2_PLACEMENT_3D('',#1593,#1268,#1269);
#1099=AXIS2_PLACEMENT_3D('',#1596,#1271,#1272);
#1100=AXIS2_PLACEMENT_3D('',#1598,#1273,#1274);
#1101=AXIS2_PLACEMENT_3D('',#1601,#1276,#1277);
#1102=AXIS2_PLACEMENT_3D('',#1606,#1280,#1281);
#1103=AXIS2_PLACEMENT_3D('',#1607,#1282,#1283);
#1104=AXIS2_PLACEMENT_3D('',#1611,#1286,#1287);
#1105=AXIS2_PLACEMENT_3D('',#1612,#1288,#1289);
#1106=AXIS2_PLACEMENT_3D('',#1613,#1290,#1291);
#1107=AXIS2_PLACEMENT_3D('',#1615,#1293,#1294);
#1108=AXIS2_PLACEMENT_3D('',#1618,#1296,#1297);
#1109=AXIS2_PLACEMENT_3D('',#1619,#1298,#1299);
#1110=AXIS2_PLACEMENT_3D('',#1620,#1300,#1301);
#1111=AXIS2_PLACEMENT_3D('',#1625,#1303,#1304);
#1112=AXIS2_PLACEMENT_3D('',#1628,#1306,#1307);
#1113=AXIS2_PLACEMENT_3D('',#1634,#1311,#1312);
#1114=AXIS2_PLACEMENT_3D('',#1635,#1313,#1314);
#1115=AXIS2_PLACEMENT_3D('',#1639,#1316,#1317);
#1116=AXIS2_PLACEMENT_3D('',#1640,#1318,#1319);
#1117=AXIS2_PLACEMENT_3D('',#1643,#1322,#1323);
#1118=AXIS2_PLACEMENT_3D('',#1644,#1324,#1325);
#1119=AXIS2_PLACEMENT_3D('',#1646,#1326,#1327);
#1120=AXIS2_PLACEMENT_3D('',#1648,#1328,#1329);
#1121=AXIS2_PLACEMENT_3D('',#1649,#1330,#1331);
#1122=AXIS2_PLACEMENT_3D('',#1651,#1332,#1333);
#1123=AXIS2_PLACEMENT_3D('',#1652,#1334,#1335);
#1124=AXIS2_PLACEMENT_3D('',#1654,#1336,#1337);
#1125=AXIS2_PLACEMENT_3D('',#1655,#1338,#1339);
#1126=AXIS2_PLACEMENT_3D('',#1657,#1340,#1341);
#1127=AXIS2_PLACEMENT_3D('',#1659,#1342,#1343);
#1128=AXIS2_PLACEMENT_3D('',#1660,#1344,#1345);
#1129=AXIS2_PLACEMENT_3D('',#1662,#1346,#1347);
#1130=AXIS2_PLACEMENT_3D('',#1663,#1348,#1349);
#1131=AXIS2_PLACEMENT_3D('',#1665,#1350,#1351);
#1132=AXIS2_PLACEMENT_3D('',#1666,#1352,#1353);
#1133=AXIS2_PLACEMENT_3D('',#1668,#1354,#1355);
#1134=AXIS2_PLACEMENT_3D('',#1670,#1356,#1357);
#1135=AXIS2_PLACEMENT_3D('',#1671,#1358,#1359);
#1136=AXIS2_PLACEMENT_3D('',#1673,#1360,#1361);
#1137=AXIS2_PLACEMENT_3D('',#1674,#1362,#1363);
#1138=AXIS2_PLACEMENT_3D('',#1676,#1364,#1365);
#1139=AXIS2_PLACEMENT_3D('',#1677,#1366,#1367);
#1140=AXIS2_PLACEMENT_3D('',#1679,#1368,#1369);
#1141=AXIS2_PLACEMENT_3D('',#1681,#1370,#1371);
#1142=AXIS2_PLACEMENT_3D('',#1682,#1372,#1373);
#1143=AXIS2_PLACEMENT_3D('',#1684,#1374,#1375);
#1144=AXIS2_PLACEMENT_3D('',#1685,#1376,#1377);
#1145=AXIS2_PLACEMENT_3D('',#1687,#1378,#1379);
#1146=AXIS2_PLACEMENT_3D('',#1688,#1380,#1381);
#1147=AXIS2_PLACEMENT_3D('',#1693,#1383,#1384);
#1148=AXIS2_PLACEMENT_3D('',#1696,#1386,#1387);
#1149=AXIS2_PLACEMENT_3D('',#1697,#1388,#1389);
#1150=AXIS2_PLACEMENT_3D('',#1702,#1391,#1392);
#1151=AXIS2_PLACEMENT_3D('',#1705,#1394,#1395);
#1152=AXIS2_PLACEMENT_3D('',#1706,#1396,#1397);
#1153=AXIS2_PLACEMENT_3D('',#1711,#1399,#1400);
#1154=AXIS2_PLACEMENT_3D('',#1714,#1402,#1403);
#1155=AXIS2_PLACEMENT_3D('',#1715,#1404,#1405);
#1156=AXIS2_PLACEMENT_3D('',#1720,#1407,#1408);
#1157=AXIS2_PLACEMENT_3D('',#1723,#1410,#1411);
#1158=AXIS2_PLACEMENT_3D('',#1724,#1412,#1413);
#1159=AXIS2_PLACEMENT_3D('',#1729,#1415,#1416);
#1160=AXIS2_PLACEMENT_3D('',#1732,#1418,#1419);
#1161=AXIS2_PLACEMENT_3D('',#1733,#1420,#1421);
#1162=AXIS2_PLACEMENT_3D('',#1738,#1423,#1424);
#1163=AXIS2_PLACEMENT_3D('',#1741,#1426,#1427);
#1164=AXIS2_PLACEMENT_3D('',#1746,#1430,#1431);
#1165=AXIS2_PLACEMENT_3D('',#1747,#1432,#1433);
#1166=AXIS2_PLACEMENT_3D('',#1752,#1436,#1437);
#1167=AXIS2_PLACEMENT_3D('',#1753,#1438,#1439);
#1168=AXIS2_PLACEMENT_3D('',#1754,#1440,#1441);
#1169=AXIS2_PLACEMENT_3D('',#1756,#1442,#1443);
#1170=AXIS2_PLACEMENT_3D('',#1758,#1444,#1445);
#1171=AXIS2_PLACEMENT_3D('',#1759,#1446,#1447);
#1172=AXIS2_PLACEMENT_3D('',#1761,#1448,#1449);
#1173=AXIS2_PLACEMENT_3D('',#1763,#1450,#1451);
#1174=AXIS2_PLACEMENT_3D('',#1764,#1452,#1453);
#1175=AXIS2_PLACEMENT_3D('',#1766,#1454,#1455);
#1176=AXIS2_PLACEMENT_3D('',#1768,#1456,#1457);
#1177=AXIS2_PLACEMENT_3D('',#1769,#1458,#1459);
#1178=AXIS2_PLACEMENT_3D('',#1771,#1460,#1461);
#1179=AXIS2_PLACEMENT_3D('',#1773,#1462,#1463);
#1180=AXIS2_PLACEMENT_3D('',#1776,#1466,#1467);
#1181=AXIS2_PLACEMENT_3D('',#1779,#1470,#1471);
#1182=AXIS2_PLACEMENT_3D('',#1790,#1478,#1479);
#1183=AXIS2_PLACEMENT_3D('',#1793,#1482,#1483);
#1184=AXIS2_PLACEMENT_3D('',#1794,#1484,#1485);
#1185=AXIS2_PLACEMENT_3D('',#1796,#1486,#1487);
#1186=AXIS2_PLACEMENT_3D('',#1798,#1488,#1489);
#1187=AXIS2_PLACEMENT_3D('',#1801,#1492,#1493);
#1188=AXIS2_PLACEMENT_3D('',#1803,#1495,#1496);
#1189=AXIS2_PLACEMENT_3D('',#1804,#1497,#1498);
#1190=AXIS2_PLACEMENT_3D('',#1809,#1502,#1503);
#1191=AXIS2_PLACEMENT_3D('',#1810,#1504,#1505);
#1192=AXIS2_PLACEMENT_3D('',#1812,#1506,#1507);
#1193=AXIS2_PLACEMENT_3D('',#1814,#1509,#1510);
#1194=AXIS2_PLACEMENT_3D('',#1816,#1512,#1513);
#1195=AXIS2_PLACEMENT_3D('',#1818,#1515,#1516);
#1196=AXIS2_PLACEMENT_3D('',#1819,#1517,#1518);
#1197=AXIS2_PLACEMENT_3D('',#1820,#1519,#1520);
#1198=AXIS2_PLACEMENT_3D('',#1821,#1521,#1522);
#1199=AXIS2_PLACEMENT_3D('',#1822,#1523,#1524);
#1200=AXIS2_PLACEMENT_3D('',#1824,#1526,#1527);
#1201=AXIS2_PLACEMENT_3D('',#1826,#1529,#1530);
#1202=DIRECTION('',(0.,0.,1.));
#1203=DIRECTION('',(1.,0.,0.));
#1204=DIRECTION('',(0.,0.,-1.));
#1205=DIRECTION('',(-1.,0.,0.));
#1206=DIRECTION('',(0.,0.,-1.));
#1207=DIRECTION('',(-1.,0.,0.));
#1208=DIRECTION('',(0.,0.,-1.));
#1209=DIRECTION('',(-1.,0.,0.));
#1210=DIRECTION('',(0.,1.,0.));
#1211=DIRECTION('',(0.,0.,1.));
#1212=DIRECTION('',(0.,-1.,0.));
#1213=DIRECTION('',(0.,0.,-1.));
#1214=DIRECTION('',(-1.,0.,0.));
#1215=DIRECTION('',(0.,0.,1.));
#1216=DIRECTION('',(-0.258819045102523,0.,0.965925826289068));
#1217=DIRECTION('',(0.965925826289068,0.,0.258819045102523));
#1218=DIRECTION('',(-0.258819045102521,0.,0.965925826289068));
#1219=DIRECTION('',(0.965925826289068,0.,0.258819045102521));
#1220=DIRECTION('',(-0.183012701892219,-0.707106781186548,0.683012701892219));
#1221=DIRECTION('',(-0.183012701892219,0.707106781186547,0.68301270189222));
#1222=DIRECTION('',(-0.258819045102521,0.,0.965925826289068));
#1223=DIRECTION('',(0.258819045102521,0.,-0.965925826289068));
#1224=DIRECTION('',(0.768705920811833,0.,-0.639602382194463));
#1225=DIRECTION('',(0.639602382194463,0.,0.768705920811833));
#1226=DIRECTION('',(1.,0.,0.));
#1227=DIRECTION('',(0.,0.,-1.));
#1228=DIRECTION('',(0.768705920811833,0.,-0.639602382194463));
#1229=DIRECTION('',(0.639602382194463,0.,0.768705920811833));
#1230=DIRECTION('',(-1.,0.,0.));
#1231=DIRECTION('',(1.,0.,0.));
#1232=DIRECTION('',(-0.707106781186548,-0.707106781186548,0.));
#1233=DIRECTION('',(0.707106781186548,-0.707106781186548,0.));
#1234=DIRECTION('',(0.,-1.,0.));
#1235=DIRECTION('',(0.,0.,-1.));
#1236=DIRECTION('',(0.,1.,0.));
#1237=DIRECTION('',(0.,0.,-1.));
#1238=DIRECTION('',(0.,-1.,0.));
#1239=DIRECTION('',(0.,1.,0.));
#1240=DIRECTION('',(0.,1.,0.));
#1241=DIRECTION('',(0.,0.,1.));
#1242=DIRECTION('',(0.,-1.,0.));
#1243=DIRECTION('',(0.,1.,0.));
#1244=DIRECTION('',(0.707106781186548,-0.707106781186548,0.));
#1245=DIRECTION('',(0.707106781186548,0.707106781186548,0.));
#1246=DIRECTION('',(0.,1.,0.));
#1247=DIRECTION('',(0.,0.,1.));
#1248=DIRECTION('',(0.,-1.,0.));
#1249=DIRECTION('',(-0.707106781186548,-0.707106781186548,0.));
#1250=DIRECTION('',(-0.707106781186548,0.707106781186548,0.));
#1251=DIRECTION('',(0.,1.,0.));
#1252=DIRECTION('',(-0.707106781186548,0.707106781186548,0.));
#1253=DIRECTION('',(-0.707106781186548,-0.707106781186548,0.));
#1254=DIRECTION('',(-1.,0.,0.));
#1255=DIRECTION('',(0.,0.,1.));
#1256=DIRECTION('',(1.,0.,0.));
#1257=DIRECTION('',(0.768705920811833,0.,-0.639602382194463));
#1258=DIRECTION('',(-0.639602382194463,0.,-0.768705920811833));
#1259=DIRECTION('',(-1.,0.,0.));
#1260=DIRECTION('',(1.,0.,0.));
#1261=DIRECTION('',(0.,0.,-1.));
#1262=DIRECTION('',(0.,1.,0.));
#1263=DIRECTION('',(0.,0.,1.));
#1264=DIRECTION('',(0.,1.,0.));
#1265=DIRECTION('',(0.,0.,-1.));
#1266=DIRECTION('',(-0.258819045102521,2.09451775864493E-15,0.965925826289068));
#1267=DIRECTION('',(0.965925826289068,-9.86076131526265E-32,0.258819045102521));
#1268=DIRECTION('',(0.258819045102521,0.,-0.965925826289068));
#1269=DIRECTION('',(-0.965925826289068,0.,-0.258819045102521));
#1270=DIRECTION('',(0.258819045102521,0.,-0.965925826289068));
#1271=DIRECTION('',(0.183012701892219,-0.707106781186548,-0.683012701892219));
#1272=DIRECTION('',(0.183012701892219,0.707106781186547,-0.68301270189222));
#1273=DIRECTION('',(0.768705920811833,0.,-0.639602382194463));
#1274=DIRECTION('',(-0.639602382194463,0.,-0.768705920811833));
#1275=DIRECTION('',(-0.258819045102521,0.,0.965925826289068));
#1276=DIRECTION('',(0.,-1.,0.));
#1277=DIRECTION('',(0.,0.,-1.));
#1278=DIRECTION('',(0.,1.,0.));
#1279=DIRECTION('',(0.,-1.,0.));
#1280=DIRECTION('',(0.,-1.,0.));
#1281=DIRECTION('',(0.,0.,-1.));
#1282=DIRECTION('',(-0.768705920811833,0.,0.639602382194463));
#1283=DIRECTION('',(0.639602382194463,0.,0.768705920811833));
#1284=DIRECTION('',(-0.639602382194463,0.,-0.768705920811833));
#1285=DIRECTION('',(-0.639602382194463,0.,-0.768705920811833));
#1286=DIRECTION('',(0.768705920811833,0.,-0.639602382194463));
#1287=DIRECTION('',(-0.639602382194463,0.,-0.768705920811833));
#1288=DIRECTION('',(0.,1.,0.));
#1289=DIRECTION('',(0.,0.,1.));
#1290=DIRECTION('',(0.768705920811833,0.,-0.639602382194463));
#1291=DIRECTION('',(-0.639602382194463,0.,-0.768705920811833));
#1292=DIRECTION('',(-0.639602382194463,0.,-0.768705920811833));
#1293=DIRECTION('',(0.768705920811833,0.,-0.639602382194463));
#1294=DIRECTION('',(0.639602382194463,0.,0.768705920811833));
#1295=DIRECTION('',(-0.639602382194463,0.,-0.768705920811833));
#1296=DIRECTION('',(0.,1.,0.));
#1297=DIRECTION('',(0.,0.,1.));
#1298=DIRECTION('',(0.965925826289068,0.,0.258819045102521));
#1299=DIRECTION('',(0.258819045102521,0.,-0.965925826289068));
#1300=DIRECTION('',(-0.965925826289068,0.,-0.258819045102521));
#1301=DIRECTION('',(-0.258819045102521,0.,0.965925826289068));
#1302=DIRECTION('',(-0.965925826289068,0.,-0.258819045102521));
#1303=DIRECTION('',(0.965925826289068,0.,0.258819045102521));
#1304=DIRECTION('',(0.,1.,0.));
#1305=DIRECTION('',(-0.965925826289068,0.,-0.258819045102521));
#1306=DIRECTION('',(0.258819045102521,-5.61224341961553E-17,-0.965925826289068));
#1307=DIRECTION('',(-0.965925826289068,0.,-0.258819045102521));
#1308=DIRECTION('',(-1.4525554827478E-17,-1.,5.42101086242752E-17));
#1309=DIRECTION('',(-0.965925826289068,0.,-0.258819045102521));
#1310=DIRECTION('',(2.16840434497101E-16,1.,0.));
#1311=DIRECTION('',(0.965925826289068,0.,0.258819045102521));
#1312=DIRECTION('',(0.258819045102521,0.,-0.965925826289068));
#1313=DIRECTION('',(-0.965925826289068,0.,-0.258819045102521));
#1314=DIRECTION('',(-0.258819045102521,0.,0.965925826289068));
#1315=DIRECTION('',(-0.965925826289068,0.,-0.258819045102521));
#1316=DIRECTION('',(0.965925826289068,0.,0.258819045102521));
#1317=DIRECTION('',(0.,1.,0.));
#1318=DIRECTION('',(-0.258819045102521,5.61224341961553E-17,0.965925826289068));
#1319=DIRECTION('',(0.965925826289068,0.,0.258819045102521));
#1320=DIRECTION('',(1.4525554827478E-17,1.,-5.42101086242752E-17));
#1321=DIRECTION('',(-2.16840434497101E-16,-1.,0.));
#1322=DIRECTION('',(0.965925826289068,0.,0.258819045102521));
#1323=DIRECTION('',(0.258819045102521,0.,-0.965925826289068));
#1324=DIRECTION('',(0.965925826289068,0.,0.258819045102521));
#1325=DIRECTION('',(0.,1.,0.));
#1326=DIRECTION('',(0.965925826289068,0.,0.258819045102521));
#1327=DIRECTION('',(0.,1.,0.));
#1328=DIRECTION('',(0.965925826289068,0.,0.258819045102521));
#1329=DIRECTION('',(0.258819045102521,0.,-0.965925826289068));
#1330=DIRECTION('',(-0.965925826289068,0.,-0.258819045102521));
#1331=DIRECTION('',(-0.258819045102521,0.,0.965925826289068));
#1332=DIRECTION('',(0.965925826289068,0.,0.258819045102521));
#1333=DIRECTION('',(0.258819045102521,0.,-0.965925826289068));
#1334=DIRECTION('',(-0.965925826289068,0.,-0.258819045102521));
#1335=DIRECTION('',(-0.258819045102521,0.,0.965925826289068));
#1336=DIRECTION('',(0.965925826289068,0.,0.258819045102521));
#1337=DIRECTION('',(0.258819045102521,0.,-0.965925826289068));
#1338=DIRECTION('',(0.965925826289068,0.,0.258819045102521));
#1339=DIRECTION('',(0.,1.,0.));
#1340=DIRECTION('',(0.965925826289068,0.,0.258819045102521));
#1341=DIRECTION('',(0.,1.,0.));
#1342=DIRECTION('',(0.965925826289068,0.,0.258819045102521));
#1343=DIRECTION('',(0.258819045102521,0.,-0.965925826289068));
#1344=DIRECTION('',(-0.965925826289068,0.,-0.258819045102521));
#1345=DIRECTION('',(-0.258819045102521,0.,0.965925826289068));
#1346=DIRECTION('',(0.965925826289068,0.,0.258819045102521));
#1347=DIRECTION('',(0.258819045102521,0.,-0.965925826289068));
#1348=DIRECTION('',(-0.965925826289068,0.,-0.258819045102521));
#1349=DIRECTION('',(-0.258819045102521,0.,0.965925826289068));
#1350=DIRECTION('',(0.965925826289068,0.,0.258819045102521));
#1351=DIRECTION('',(0.258819045102521,0.,-0.965925826289068));
#1352=DIRECTION('',(0.965925826289068,0.,0.258819045102521));
#1353=DIRECTION('',(0.,1.,0.));
#1354=DIRECTION('',(0.965925826289068,0.,0.258819045102521));
#1355=DIRECTION('',(0.,1.,0.));
#1356=DIRECTION('',(0.965925826289068,0.,0.258819045102521));
#1357=DIRECTION('',(0.258819045102521,0.,-0.965925826289068));
#1358=DIRECTION('',(0.965925826289068,0.,0.258819045102521));
#1359=DIRECTION('',(-0.258819045102521,0.,0.965925826289068));
#1360=DIRECTION('',(0.965925826289068,0.,0.258819045102521));
#1361=DIRECTION('',(0.258819045102521,0.,-0.965925826289068));
#1362=DIRECTION('',(0.965925826289068,0.,0.258819045102521));
#1363=DIRECTION('',(-0.258819045102521,0.,0.965925826289068));
#1364=DIRECTION('',(0.965925826289068,0.,0.258819045102521));
#1365=DIRECTION('',(0.258819045102521,0.,-0.965925826289068));
#1366=DIRECTION('',(0.965925826289068,0.,0.258819045102521));
#1367=DIRECTION('',(0.,1.,0.));
#1368=DIRECTION('',(0.965925826289068,0.,0.258819045102521));
#1369=DIRECTION('',(0.,1.,0.));
#1370=DIRECTION('',(0.965925826289068,0.,0.258819045102521));
#1371=DIRECTION('',(0.258819045102521,0.,-0.965925826289068));
#1372=DIRECTION('',(0.965925826289068,0.,0.258819045102521));
#1373=DIRECTION('',(-0.258819045102521,0.,0.965925826289068));
#1374=DIRECTION('',(0.965925826289068,0.,0.258819045102521));
#1375=DIRECTION('',(0.258819045102521,0.,-0.965925826289068));
#1376=DIRECTION('',(0.965925826289068,0.,0.258819045102521));
#1377=DIRECTION('',(-0.258819045102521,0.,0.965925826289068));
#1378=DIRECTION('',(1.,0.,-4.46830455177584E-15));
#1379=DIRECTION('',(-4.46830455177584E-15,0.,-1.));
#1380=DIRECTION('',(0.965925826289068,0.,0.258819045102521));
#1381=DIRECTION('',(0.258819045102521,0.,-0.965925826289068));
#1382=DIRECTION('',(1.,0.,-4.46830455177584E-15));
#1383=DIRECTION('',(-0.965925826289068,0.,-0.258819045102521));
#1384=DIRECTION('',(0.258819045102521,0.,-0.965925826289068));
#1385=DIRECTION('',(-1.,0.,4.46830455177584E-15));
#1386=DIRECTION('',(-1.,0.,4.46830455177584E-15));
#1387=DIRECTION('',(4.46830455177584E-15,0.,1.));
#1388=DIRECTION('',(0.965925826289068,0.,0.258819045102521));
#1389=DIRECTION('',(-0.258819045102521,0.,0.965925826289068));
#1390=DIRECTION('',(1.,0.,-4.46830455177584E-15));
#1391=DIRECTION('',(-0.965925826289068,0.,-0.258819045102521));
#1392=DIRECTION('',(-0.258819045102521,0.,0.965925826289068));
#1393=DIRECTION('',(-1.,0.,4.46830455177584E-15));
#1394=DIRECTION('',(0.,0.,-1.));
#1395=DIRECTION('',(-1.,0.,0.));
#1396=DIRECTION('',(0.,0.,1.));
#1397=DIRECTION('',(-1.,0.,0.));
#1398=DIRECTION('',(0.,0.,1.));
#1399=DIRECTION('',(0.,0.,-1.));
#1400=DIRECTION('',(-1.,0.,0.));
#1401=DIRECTION('',(0.,0.,-1.));
#1402=DIRECTION('',(1.43188130095956E-15,-2.57738634172722E-15,1.));
#1403=DIRECTION('',(3.53658533123668E-32,-1.,-2.57738634172722E-15));
#1404=DIRECTION('',(0.,0.,1.));
#1405=DIRECTION('',(-1.,0.,0.));
#1406=DIRECTION('',(1.43188130095956E-15,-2.57738634172722E-15,1.));
#1407=DIRECTION('',(0.,0.,-1.));
#1408=DIRECTION('',(-1.,0.,0.));
#1409=DIRECTION('',(-1.43188130095956E-15,2.57738634172722E-15,-1.));
#1410=DIRECTION('',(0.,0.,1.));
#1411=DIRECTION('',(1.,0.,0.));
#1412=DIRECTION('',(0.,0.,-1.));
#1413=DIRECTION('',(-1.,0.,0.));
#1414=DIRECTION('',(0.,0.,-1.));
#1415=DIRECTION('',(0.,0.,1.));
#1416=DIRECTION('',(-1.,0.,0.));
#1417=DIRECTION('',(0.,0.,1.));
#1418=DIRECTION('',(-1.43188130095956E-15,-2.57738634172722E-15,-1.));
#1419=DIRECTION('',(3.53658533123668E-32,1.,-2.57738634172722E-15));
#1420=DIRECTION('',(0.,0.,-1.));
#1421=DIRECTION('',(-1.,0.,0.));
#1422=DIRECTION('',(-1.43188130095956E-15,-2.57738634172722E-15,-1.));
#1423=DIRECTION('',(0.,0.,1.));
#1424=DIRECTION('',(-1.,0.,0.));
#1425=DIRECTION('',(1.43188130095956E-15,2.57738634172722E-15,1.));
#1426=DIRECTION('',(-1.,0.,0.));
#1427=DIRECTION('',(0.,0.,1.));
#1428=DIRECTION('',(1.,0.,0.));
#1429=DIRECTION('',(-1.,0.,0.));
#1430=DIRECTION('',(-0.965925826289068,0.,-0.258819045102521));
#1431=DIRECTION('',(-0.258819045102521,0.,0.965925826289068));
#1432=DIRECTION('',(1.,0.,0.));
#1433=DIRECTION('',(0.,0.,-1.));
#1434=DIRECTION('',(1.,0.,0.));
#1435=DIRECTION('',(-1.,0.,0.));
#1436=DIRECTION('',(-0.965925826289068,0.,-0.258819045102521));
#1437=DIRECTION('',(0.258819045102521,0.,-0.965925826289068));
#1438=DIRECTION('',(0.965925826289068,0.,0.258819045102521));
#1439=DIRECTION('',(0.258819045102521,0.,-0.965925826289068));
#1440=DIRECTION('',(0.965925826289068,0.,0.258819045102521));
#1441=DIRECTION('',(0.258819045102521,0.,-0.965925826289068));
#1442=DIRECTION('',(-0.965925826289068,0.,-0.258819045102521));
#1443=DIRECTION('',(-0.258819045102521,0.,0.965925826289068));
#1444=DIRECTION('',(0.965925826289068,0.,0.258819045102521));
#1445=DIRECTION('',(0.258819045102521,0.,-0.965925826289068));
#1446=DIRECTION('',(0.965925826289068,0.,0.258819045102521));
#1447=DIRECTION('',(0.258819045102521,0.,-0.965925826289068));
#1448=DIRECTION('',(-0.965925826289068,0.,-0.258819045102521));
#1449=DIRECTION('',(-0.258819045102521,0.,0.965925826289068));
#1450=DIRECTION('',(0.965925826289068,0.,0.258819045102521));
#1451=DIRECTION('',(0.258819045102521,0.,-0.965925826289068));
#1452=DIRECTION('',(0.965925826289068,0.,0.258819045102521));
#1453=DIRECTION('',(0.258819045102521,0.,-0.965925826289068));
#1454=DIRECTION('',(-0.965925826289068,0.,-0.258819045102521));
#1455=DIRECTION('',(-0.258819045102521,0.,0.965925826289068));
#1456=DIRECTION('',(0.965925826289068,0.,0.258819045102521));
#1457=DIRECTION('',(0.258819045102521,0.,-0.965925826289068));
#1458=DIRECTION('',(0.965925826289068,0.,0.258819045102521));
#1459=DIRECTION('',(0.258819045102521,0.,-0.965925826289068));
#1460=DIRECTION('',(-0.965925826289068,0.,-0.258819045102521));
#1461=DIRECTION('',(-0.258819045102521,0.,0.965925826289068));
#1462=DIRECTION('',(0.,-1.,0.));
#1463=DIRECTION('',(0.,0.,-1.));
#1464=DIRECTION('',(0.258819045102521,0.,-0.965925826289068));
#1465=DIRECTION('',(-0.258819045102521,0.,0.965925826289068));
#1466=DIRECTION('',(4.46830455177584E-15,0.,1.));
#1467=DIRECTION('',(1.,0.,-4.46830455177584E-15));
#1468=DIRECTION('',(0.,-1.,0.));
#1469=DIRECTION('',(0.,-1.,0.));
#1470=DIRECTION('',(0.965925826289068,0.,0.258819045102521));
#1471=DIRECTION('',(0.258819045102521,0.,-0.965925826289068));
#1472=DIRECTION('',(-0.258819045102521,0.,0.965925826289068));
#1473=DIRECTION('',(0.,-1.,0.));
#1474=DIRECTION('',(0.258819045102519,0.,-0.965925826289069));
#1475=DIRECTION('',(7.70988211545248E-16,-1.,0.));
#1476=DIRECTION('',(-0.258819045102519,0.,0.965925826289069));
#1477=DIRECTION('',(0.,-1.,0.));
#1478=DIRECTION('',(-1.,0.,1.43188130095956E-15));
#1479=DIRECTION('',(1.43188130095956E-15,0.,1.));
#1480=DIRECTION('',(0.,-1.,0.));
#1481=DIRECTION('',(0.,-1.,0.));
#1482=DIRECTION('',(0.,0.,-1.));
#1483=DIRECTION('',(-1.,0.,0.));
#1484=DIRECTION('',(0.,0.,-1.));
#1485=DIRECTION('',(1.,0.,0.));
#1486=DIRECTION('',(0.,0.,-1.));
#1487=DIRECTION('',(1.,0.,0.));
#1488=DIRECTION('',(0.874157276121538,-0.485642931178632,0.));
#1489=DIRECTION('',(-0.485642931178632,-0.874157276121538,0.));
#1490=DIRECTION('',(-0.485642931178632,-0.874157276121538,0.));
#1491=DIRECTION('',(-0.485642931178632,-0.874157276121538,0.));
#1492=DIRECTION('',(0.,-1.,0.));
#1493=DIRECTION('',(0.,0.,-1.));
#1494=DIRECTION('',(0.258819045102521,0.,-0.965925826289068));
#1495=DIRECTION('',(0.,0.,-1.));
#1496=DIRECTION('',(-1.,0.,0.));
#1497=DIRECTION('',(0.,0.,-1.));
#1498=DIRECTION('',(1.,0.,0.));
#1499=DIRECTION('',(-1.,0.,0.));
#1500=DIRECTION('',(1.,0.,0.));
#1501=DIRECTION('',(0.485642931178632,-0.874157276121538,0.));
#1502=DIRECTION('',(0.,0.,-1.));
#1503=DIRECTION('',(-1.,0.,0.));
#1504=DIRECTION('',(0.,0.,-1.));
#1505=DIRECTION('',(1.,0.,0.));
#1506=DIRECTION('',(0.874157276121538,0.485642931178632,0.));
#1507=DIRECTION('',(-0.485642931178632,0.874157276121538,0.));
#1508=DIRECTION('',(0.485642931178632,-0.874157276121538,0.));
#1509=DIRECTION('',(0.,-1.,0.));
#1510=DIRECTION('',(0.,0.,1.));
#1511=DIRECTION('',(-1.,0.,0.));
#1512=DIRECTION('',(0.,1.,0.));
#1513=DIRECTION('',(0.,0.,1.));
#1514=DIRECTION('',(1.,0.,0.));
#1515=DIRECTION('',(-0.965925826289068,0.,-0.258819045102521));
#1516=DIRECTION('',(-0.258819045102521,0.,0.965925826289068));
#1517=DIRECTION('',(-0.965925826289068,0.,-0.258819045102521));
#1518=DIRECTION('',(-0.258819045102521,0.,0.965925826289068));
#1519=DIRECTION('',(-0.965925826289068,0.,-0.258819045102521));
#1520=DIRECTION('',(-0.258819045102521,0.,0.965925826289068));
#1521=DIRECTION('',(-0.965925826289068,0.,-0.258819045102521));
#1522=DIRECTION('',(-0.258819045102521,0.,0.965925826289068));
#1523=DIRECTION('',(-0.965925826289068,0.,-0.258819045102521));
#1524=DIRECTION('',(-0.258819045102521,0.,0.965925826289068));
#1525=DIRECTION('',(0.,-1.,0.));
#1526=DIRECTION('',(0.,-1.,0.));
#1527=DIRECTION('',(0.,0.,-1.));
#1528=DIRECTION('',(0.,1.,0.));
#1529=DIRECTION('',(0.,0.,-1.));
#1530=DIRECTION('',(-1.,0.,0.));
#1531=CARTESIAN_POINT('',(0.,0.,0.));
#1532=CARTESIAN_POINT('',(0.004,0.015,0.007));
#1533=CARTESIAN_POINT('',(0.004,0.015,-8.67361737988404E-19));
#1534=CARTESIAN_POINT('',(0.00215,0.015,-8.67361737988404E-19));
#1535=CARTESIAN_POINT('',(0.004,0.015,0.0025));
#1536=CARTESIAN_POINT('',(0.00215,0.015,0.0025));
#1537=CARTESIAN_POINT('',(0.0176178477320095,0.0055,0.0045));
#1538=CARTESIAN_POINT('',(0.0176178477320095,0.0055,0.0045));
#1539=CARTESIAN_POINT('',(0.0176178477320095,0.0055,0.0025));
#1540=CARTESIAN_POINT('',(0.0195496993845877,0.0055,0.00501763809020504));
#1541=CARTESIAN_POINT('',(0.0176178477320095,0.0055,0.0045));
#1542=CARTESIAN_POINT('',(0.0176178477320095,0.0035,0.0045));
#1543=CARTESIAN_POINT('',(0.0176178477320095,0.0055,0.0045));
#1544=CARTESIAN_POINT('',(0.0175626757139679,0.0055,0.00470590477448739));
#1545=CARTESIAN_POINT('',(0.015344853528507,0.0055,0.0129829298527811));
#1546=CARTESIAN_POINT('',(0.0168822653701306,0.00386647161618637,0.0117037250883922));
#1547=CARTESIAN_POINT('',(0.0172767051810851,0.0055,0.0135005679429862));
#1548=CARTESIAN_POINT('',(0.0175448065533807,0.0055,0.0125));
#1549=CARTESIAN_POINT('',(0.0176178477320095,0.0035,0.0045));
#1550=CARTESIAN_POINT('',(0.0159786204043497,0.0035,0.0106176796719817));
#1551=CARTESIAN_POINT('',(0.0159786204043497,0.0055,0.0106176796719817));
#1552=CARTESIAN_POINT('',(0.013,0.0055,0.0045));
#1553=CARTESIAN_POINT('',(0.0108884000928297,0.0055,0.0045));
#1554=CARTESIAN_POINT('',(0.0108884000928297,0.0035,0.0045));
#1555=CARTESIAN_POINT('',(0.00982403673557393,0.00396258815837633,0.00322079523561107));
#1556=CARTESIAN_POINT('',(0.,0.0035,0.0045));
#1557=CARTESIAN_POINT('',(0.013,0.0055,0.0025));
#1558=CARTESIAN_POINT('',(0.00828662489395026,0.0055,0.0025));
#1559=CARTESIAN_POINT('',(0.00828662489395026,0.0055,0.0045));
#1560=CARTESIAN_POINT('',(0.015344853528507,0.03,0.0129829298527811));
#1561=CARTESIAN_POINT('',(0.015344853528507,0.,0.0129829298527811));
#1562=CARTESIAN_POINT('',(0.0172767051810851,0.,0.0135005679429862));
#1563=CARTESIAN_POINT('',(0.0168822653701306,-4.33680868994202E-19,0.0117037250883922));
#1564=CARTESIAN_POINT('',(0.0172767051810851,0.03,0.0135005679429862));
#1565=CARTESIAN_POINT('',(0.0168822653701306,-4.33680868994202E-19,0.0117037250883922));
#1566=CARTESIAN_POINT('',(0.00828662489395026,-4.33680868994202E-19,0.0045));
#1567=CARTESIAN_POINT('',(0.00982403673557393,-4.33680868994202E-19,0.00322079523561107));
#1568=CARTESIAN_POINT('',(0.00982403673557393,-0.000462588158376334,0.00322079523561107));
#1569=CARTESIAN_POINT('',(0.00828662489395026,0.0035,0.0025));
#1570=CARTESIAN_POINT('',(0.00828662489395026,-0.002,0.0025));
#1571=CARTESIAN_POINT('',(0.00828662489395026,-0.002,0.0045));
#1572=CARTESIAN_POINT('',(0.00828662489395026,-0.005,0.0045));
#1573=CARTESIAN_POINT('',(0.00982403673557393,0.03,0.00322079523561107));
#1574=CARTESIAN_POINT('',(0.00982403673557393,0.0304625881583763,0.00322079523561107));
#1575=CARTESIAN_POINT('',(0.00982403673557393,0.0260374118416237,0.00322079523561107));
#1576=CARTESIAN_POINT('',(0.00828662489395026,0.032,0.0045));
#1577=CARTESIAN_POINT('',(0.00828662489395026,0.032,0.0025));
#1578=CARTESIAN_POINT('',(0.00828662489395026,-0.005,0.0025));
#1579=CARTESIAN_POINT('',(0.00828662489395026,0.0245,0.0025));
#1580=CARTESIAN_POINT('',(0.00828662489395026,0.0245,0.0045));
#1581=CARTESIAN_POINT('',(0.,0.0245,0.0045));
#1582=CARTESIAN_POINT('',(0.0176178477320095,0.0265,0.0045));
#1583=CARTESIAN_POINT('',(0.0108884000928297,0.0265,0.0045));
#1584=CARTESIAN_POINT('',(0.0176178477320095,0.0265,0.0045));
#1585=CARTESIAN_POINT('',(0.0108884000928297,0.0245,0.0045));
#1586=CARTESIAN_POINT('',(0.00922429847769194,0.0245,0.0025));
#1587=CARTESIAN_POINT('',(0.0176178477320095,0.0245,0.0025));
#1588=CARTESIAN_POINT('',(0.0176178477320095,0.0245,0.0045));
#1589=CARTESIAN_POINT('',(0.0176178477320095,0.0245,0.0045));
#1590=CARTESIAN_POINT('',(0.0176178477320095,0.0245,0.0045));
#1591=CARTESIAN_POINT('',(0.0195496993845877,0.0245,0.00501763809020504));
#1592=CARTESIAN_POINT('',(0.0176178477320095,0.0245,0.0045));
#1593=CARTESIAN_POINT('',(0.00860955800209078,0.0245,0.0381193949613577));
#1594=CARTESIAN_POINT('',(0.0105414096546689,0.0245,0.0386370330515627));
#1595=CARTESIAN_POINT('',(0.0172767051810851,0.0245,0.0135005679429862));
#1596=CARTESIAN_POINT('',(0.015344853528507,0.0245,0.0129829298527811));
#1597=CARTESIAN_POINT('',(0.0168822653701306,0.0261335283838136,0.0117037250883922));
#1598=CARTESIAN_POINT('',(0.0159786204043497,0.0245,0.0106176796719817));
#1599=CARTESIAN_POINT('',(0.0159786204043497,0.0265,0.0106176796719817));
#1600=CARTESIAN_POINT('',(0.0175626757139679,0.0265,0.00470590477448739));
#1601=CARTESIAN_POINT('',(0.015344853528507,0.03,0.0129829298527811));
#1602=CARTESIAN_POINT('',(0.0168822653701306,0.03,0.0117037250883922));
#1603=CARTESIAN_POINT('',(0.0168822653701306,0.03,0.0117037250883922));
#1604=CARTESIAN_POINT('',(0.0172767051810851,0.0265,0.0135005679429862));
#1605=CARTESIAN_POINT('',(0.0172767051810851,0.03,0.0135005679429862));
#1606=CARTESIAN_POINT('',(0.015344853528507,0.03,0.0129829298527811));
#1607=CARTESIAN_POINT('',(0.0175448065533807,0.03,0.0125));
#1608=CARTESIAN_POINT('',(0.0175448065533807,0.0265,0.0125));
#1609=CARTESIAN_POINT('',(0.0175448065533807,0.03,0.0125));
#1610=CARTESIAN_POINT('',(0.0108884000928297,0.03,0.0045));
#1611=CARTESIAN_POINT('',(0.0108884000928297,0.032,0.0045));
#1612=CARTESIAN_POINT('',(0.,0.0265,0.));
#1613=CARTESIAN_POINT('',(0.0175448065533807,-4.33680868994202E-19,0.0125));
#1614=CARTESIAN_POINT('',(0.0175448065533807,0.0035,0.0125));
#1615=CARTESIAN_POINT('',(0.0108884000928297,-0.002,0.0045));
#1616=CARTESIAN_POINT('',(0.0108884000928297,-4.33680868994202E-19,0.0045));
#1617=CARTESIAN_POINT('',(0.0175448065533807,-4.33680868994202E-19,0.0125));
#1618=CARTESIAN_POINT('',(0.,0.0035,0.));
#1619=CARTESIAN_POINT('',(0.0138654153748398,0.023,0.00691315829345426));
#1620=CARTESIAN_POINT('',(0.0186950445062851,0.023,0.00820725351896683));
#1621=CARTESIAN_POINT('',(0.0183456387953967,0.023,0.00951125338445707));
#1622=CARTESIAN_POINT('',(0.0190444502171735,0.023,0.00690325365347659));
#1623=CARTESIAN_POINT('',(0.0142148210857282,0.023,0.005609158427964));
#1624=CARTESIAN_POINT('',(0.0219422276960407,0.023,0.00767971078878416));
#1625=CARTESIAN_POINT('',(0.0215928219851524,0.023,0.00898371065427442));
#1626=CARTESIAN_POINT('',(0.0212434162742639,0.023,0.0102877105197646));
#1627=CARTESIAN_POINT('',(0.0135160096639514,0.023,0.00821715815894447));
#1628=CARTESIAN_POINT('',(0.0142148210857282,0.007,0.005609158427964));
#1629=CARTESIAN_POINT('',(0.0190444502171735,0.03,0.00690325365347659));
#1630=CARTESIAN_POINT('',(0.0190444502171735,0.007,0.00690325365347659));
#1631=CARTESIAN_POINT('',(0.0142148210857282,0.007,0.00560915842796402));
#1632=CARTESIAN_POINT('',(0.0219422276960408,0.007,0.00767971078878418));
#1633=CARTESIAN_POINT('',(0.0219422276960407,0.007,0.00767971078878416));
#1634=CARTESIAN_POINT('',(0.0138654153748398,0.007,0.00691315829345426));
#1635=CARTESIAN_POINT('',(0.0186950445062851,0.007,0.00820725351896684));
#1636=CARTESIAN_POINT('',(0.0183456387953967,0.007,0.00951125338445707));
#1637=CARTESIAN_POINT('',(0.0135160096639514,0.007,0.00821715815894447));
#1638=CARTESIAN_POINT('',(0.0212434162742639,0.007,0.0102877105197646));
#1639=CARTESIAN_POINT('',(0.0215928219851524,0.007,0.00898371065427442));
#1640=CARTESIAN_POINT('',(0.0135160096639514,0.023,0.00821715815894447));
#1641=CARTESIAN_POINT('',(0.0183456387953967,0.03,0.00951125338445707));
#1642=CARTESIAN_POINT('',(0.0212434162742639,0.023,0.0102877105197646));
#1643=CARTESIAN_POINT('',(0.0135814386354572,0.0044,0.0214959354810448));
#1644=CARTESIAN_POINT('',(0.0135814386354572,0.0044,0.0214959354810448));
#1645=CARTESIAN_POINT('',(0.0135814386354572,0.00615,0.0214959354810448));
#1646=CARTESIAN_POINT('',(0.0135814386354572,0.0044,0.0214959354810448));
#1647=CARTESIAN_POINT('',(0.0135814386354572,0.00715,0.0214959354810448));
#1648=CARTESIAN_POINT('',(0.0135814386354572,0.0044,0.0214959354810448));
#1649=CARTESIAN_POINT('',(0.0150303273748908,0.0044,0.0218841640486985));
#1650=CARTESIAN_POINT('',(0.0145773940459614,0.0044,0.0235745342447044));
#1651=CARTESIAN_POINT('',(0.0135814386354572,0.0044,0.0214959354810448));
#1652=CARTESIAN_POINT('',(0.0150303273748908,0.0044,0.0218841640486986));
#1653=CARTESIAN_POINT('',(0.0143185750008589,0.0044,0.0245404600709935));
#1654=CARTESIAN_POINT('',(0.0135814386354572,0.0256,0.0214959354810448));
#1655=CARTESIAN_POINT('',(0.0135814386354572,0.0256,0.0214959354810448));
#1656=CARTESIAN_POINT('',(0.0135814386354572,0.02735,0.0214959354810448));
#1657=CARTESIAN_POINT('',(0.0135814386354572,0.0256,0.0214959354810448));
#1658=CARTESIAN_POINT('',(0.0135814386354572,0.02835,0.0214959354810448));
#1659=CARTESIAN_POINT('',(0.0135814386354572,0.0256,0.0214959354810448));
#1660=CARTESIAN_POINT('',(0.0150303273748908,0.0256,0.0218841640486985));
#1661=CARTESIAN_POINT('',(0.0145773940459614,0.0256,0.0235745342447044));
#1662=CARTESIAN_POINT('',(0.0135814386354572,0.0256,0.0214959354810448));
#1663=CARTESIAN_POINT('',(0.0150303273748908,0.0256,0.0218841640486985));
#1664=CARTESIAN_POINT('',(0.0143185750008589,0.0256,0.0245404600709934));
#1665=CARTESIAN_POINT('',(0.0102064386354572,0.0044,0.0340916069565898));
#1666=CARTESIAN_POINT('',(0.0102064386354572,0.0044,0.0340916069565898));
#1667=CARTESIAN_POINT('',(0.0102064386354572,0.00615,0.0340916069565898));
#1668=CARTESIAN_POINT('',(0.0102064386354572,0.0044,0.0340916069565898));
#1669=CARTESIAN_POINT('',(0.0102064386354572,0.00715,0.0340916069565898));
#1670=CARTESIAN_POINT('',(0.0102064386354572,0.0044,0.0340916069565898));
#1671=CARTESIAN_POINT('',(0.0116553273748908,0.0044,0.0344798355242435));
#1672=CARTESIAN_POINT('',(0.0112023940459614,0.0044,0.0361702057202494));
#1673=CARTESIAN_POINT('',(0.0102064386354572,0.0044,0.0340916069565898));
#1674=CARTESIAN_POINT('',(0.0116553273748908,0.0044,0.0344798355242435));
#1675=CARTESIAN_POINT('',(0.0109435750008589,0.0044,0.0371361315465384));
#1676=CARTESIAN_POINT('',(0.0102064386354572,0.0256,0.0340916069565897));
#1677=CARTESIAN_POINT('',(0.0102064386354572,0.0256,0.0340916069565897));
#1678=CARTESIAN_POINT('',(0.0102064386354572,0.02735,0.0340916069565897));
#1679=CARTESIAN_POINT('',(0.0102064386354572,0.0256,0.0340916069565897));
#1680=CARTESIAN_POINT('',(0.0102064386354572,0.02835,0.0340916069565897));
#1681=CARTESIAN_POINT('',(0.0102064386354572,0.0256,0.0340916069565897));
#1682=CARTESIAN_POINT('',(0.0116553273748908,0.0256,0.0344798355242435));
#1683=CARTESIAN_POINT('',(0.0112023940459614,0.0256,0.0361702057202494));
#1684=CARTESIAN_POINT('',(0.0102064386354572,0.0256,0.0340916069565897));
#1685=CARTESIAN_POINT('',(0.0116553273748908,0.0256,0.0344798355242435));
#1686=CARTESIAN_POINT('',(0.0109435750008589,0.0256,0.0371361315465384));
#1687=CARTESIAN_POINT('',(0.0136472381958992,0.029,0.0376370330515627));
#1688=CARTESIAN_POINT('',(0.0139151873883303,0.029,0.0376370330515627));
#1689=CARTESIAN_POINT('',(0.0139151873883303,0.03,0.0376370330515627));
#1690=CARTESIAN_POINT('',(0.0136472381958992,0.029,0.0386370330515627));
#1691=CARTESIAN_POINT('',(0.0136472381958992,0.03,0.0376370330515627));
#1692=CARTESIAN_POINT('',(0.0108093588471,0.03,0.0376370330515627));
#1693=CARTESIAN_POINT('',(0.0108093588471,0.029,0.0376370330515627));
#1694=CARTESIAN_POINT('',(0.0105414096546689,0.029,0.0386370330515627));
#1695=CARTESIAN_POINT('',(0.0105414096546689,0.029,0.0386370330515627));
#1696=CARTESIAN_POINT('',(1.68173726099636E-16,0.001,0.0376370330515628));
#1697=CARTESIAN_POINT('',(0.0139151873883303,0.001,0.0376370330515627));
#1698=CARTESIAN_POINT('',(0.0136472381958992,0.001,0.0386370330515627));
#1699=CARTESIAN_POINT('',(0.0139151873883303,0.,0.0376370330515627));
#1700=CARTESIAN_POINT('',(0.0136472381958992,0.001,0.0386370330515627));
#1701=CARTESIAN_POINT('',(0.0105414096546689,0.001,0.0386370330515627));
#1702=CARTESIAN_POINT('',(0.0108093588471,0.001,0.0376370330515627));
#1703=CARTESIAN_POINT('',(0.0108093588471,0.,0.0376370330515627));
#1704=CARTESIAN_POINT('',(1.68173726099636E-16,0.,0.0376370330515628));
#1705=CARTESIAN_POINT('',(0.00558840334899855,-0.008,0.0025));
#1706=CARTESIAN_POINT('',(0.00558840334899855,-0.008,0.0025));
#1707=CARTESIAN_POINT('',(0.00471424607287701,-0.00848564293117863,0.0025));
#1708=CARTESIAN_POINT('',(0.00558840334899855,-0.009,0.0025));
#1709=CARTESIAN_POINT('',(0.00471424607287701,-0.00848564293117863,0.0025));
#1710=CARTESIAN_POINT('',(0.00471424607287701,-0.00848564293117863,-8.67361737988404E-19));
#1711=CARTESIAN_POINT('',(0.00558840334899855,-0.008,-8.67361737988404E-19));
#1712=CARTESIAN_POINT('',(0.00558840334899855,-0.009,-8.67361737988404E-19));
#1713=CARTESIAN_POINT('',(0.00558840334899855,-0.009,0.0025));
#1714=CARTESIAN_POINT('',(0.001,0.000259126028197401,0.0025));
#1715=CARTESIAN_POINT('',(0.001,0.000259126028197401,0.0025));
#1716=CARTESIAN_POINT('',(-3.61889998464052E-19,0.000259126028197401,0.00249999999999586));
#1717=CARTESIAN_POINT('',(0.000125842723878462,-0.000226516902981231,0.0025));
#1718=CARTESIAN_POINT('',(-3.61889998464051E-19,0.000259126028197401,0.00249999999999586));
#1719=CARTESIAN_POINT('',(-3.94159325085704E-18,0.000259126028197408,-8.67361737988404E-19));
#1720=CARTESIAN_POINT('',(0.001,0.000259126028197407,-8.67361737988404E-19));
#1721=CARTESIAN_POINT('',(0.000125842723878458,-0.000226516902981225,-8.67361737988404E-19));
#1722=CARTESIAN_POINT('',(0.000125842723878458,-0.000226516902981225,-1.73472347597681E-18));
#1723=CARTESIAN_POINT('',(0.00558840334899855,0.038,0.0025));
#1724=CARTESIAN_POINT('',(0.00558840334899855,0.038,-8.67361737988404E-19));
#1725=CARTESIAN_POINT('',(0.00471424607287702,0.0384856429311786,-8.67361737988404E-19));
#1726=CARTESIAN_POINT('',(0.00558840334899855,0.039,-8.67361737988404E-19));
#1727=CARTESIAN_POINT('',(0.00471424607287701,0.0384856429311786,0.0025));
#1728=CARTESIAN_POINT('',(0.00471424607287702,0.0384856429311786,0.0025));
#1729=CARTESIAN_POINT('',(0.00558840334899855,0.038,0.0025));
#1730=CARTESIAN_POINT('',(0.00558840334899855,0.039,0.0025));
#1731=CARTESIAN_POINT('',(0.00558840334899855,0.039,0.0025));
#1732=CARTESIAN_POINT('',(0.001,0.0297408739718026,0.0025));
#1733=CARTESIAN_POINT('',(0.001,0.0297408739718026,-8.67361737988404E-19));
#1734=CARTESIAN_POINT('',(-3.94159325085704E-18,0.0297408739718026,-8.67361737988404E-19));
#1735=CARTESIAN_POINT('',(0.000125842723878458,0.0302265169029812,-8.67361737988404E-19));
#1736=CARTESIAN_POINT('',(-3.94159325085704E-18,0.0297408739718026,-3.02842175017243E-19));
#1737=CARTESIAN_POINT('',(-3.61889998464052E-19,0.0297408739718026,0.00249999999999586));
#1738=CARTESIAN_POINT('',(0.001,0.0297408739718026,0.0025));
#1739=CARTESIAN_POINT('',(0.000125842723878462,0.0302265169029812,0.0025));
#1740=CARTESIAN_POINT('',(0.000125842723878461,0.0302265169029812,0.0025));
#1741=CARTESIAN_POINT('',(0.013,0.032,0.0045));
#1742=CARTESIAN_POINT('',(0.0233301270189222,0.032,0.0025));
#1743=CARTESIAN_POINT('',(0.0233301270189222,0.032,0.0025));
#1744=CARTESIAN_POINT('',(0.0202242984776919,0.03,0.0045));
#1745=CARTESIAN_POINT('',(0.02279422863406,0.03,0.0045));
#1746=CARTESIAN_POINT('',(0.02279422863406,0.032,0.0045));
#1747=CARTESIAN_POINT('',(0.,-0.002,0.0045));
#1748=CARTESIAN_POINT('',(0.,0.,0.0045));
#1749=CARTESIAN_POINT('',(0.02279422863406,0.,0.0045));
#1750=CARTESIAN_POINT('',(0.013,-0.002,0.0025));
#1751=CARTESIAN_POINT('',(0.0233301270189222,-0.002,0.0025));
#1752=CARTESIAN_POINT('',(0.0227942286340599,-0.002,0.0045));
#1753=CARTESIAN_POINT('',(0.00489384659086736,0.0044,0.0191681022085259));
#1754=CARTESIAN_POINT('',(0.017928104853758,0.0044,0.0226606211840061));
#1755=CARTESIAN_POINT('',(0.0182516286601362,0.0044,0.0214532139011448));
#1756=CARTESIAN_POINT('',(0.0150303273748908,0.0044,0.0218841640486985));
#1757=CARTESIAN_POINT('',(0.0147068035685126,0.0044,0.0230915713315598));
#1758=CARTESIAN_POINT('',(0.00489384659086737,0.0044,0.0326681022085259));
#1759=CARTESIAN_POINT('',(0.014553104853758,0.0044,0.0352562926595511));
#1760=CARTESIAN_POINT('',(0.0148766286601362,0.0044,0.0340488853766898));
#1761=CARTESIAN_POINT('',(0.0116553273748908,0.0044,0.0344798355242435));
#1762=CARTESIAN_POINT('',(0.0113318035685126,0.0044,0.0356872428071048));
#1763=CARTESIAN_POINT('',(0.00489384659086736,0.0256,0.0191681022085259));
#1764=CARTESIAN_POINT('',(0.017928104853758,0.0256,0.0226606211840061));
#1765=CARTESIAN_POINT('',(0.0182516286601362,0.0256,0.0214532139011448));
#1766=CARTESIAN_POINT('',(0.0150303273748908,0.0256,0.0218841640486985));
#1767=CARTESIAN_POINT('',(0.0147068035685126,0.0256,0.0230915713315598));
#1768=CARTESIAN_POINT('',(0.00489384659086735,0.0256,0.0326681022085259));
#1769=CARTESIAN_POINT('',(0.014553104853758,0.0256,0.0352562926595511));
#1770=CARTESIAN_POINT('',(0.0148766286601362,0.0256,0.0340488853766898));
#1771=CARTESIAN_POINT('',(0.0116553273748908,0.0256,0.0344798355242435));
#1772=CARTESIAN_POINT('',(0.0113318035685126,0.0256,0.0356872428071048));
#1773=CARTESIAN_POINT('',(0.,0.03,0.));
#1774=CARTESIAN_POINT('',(0.0105414096546689,0.03,0.0386370330515627));
#1775=CARTESIAN_POINT('',(0.024,0.03,0.));
#1776=CARTESIAN_POINT('',(0.0136472381958992,0.03,0.0386370330515627));
#1777=CARTESIAN_POINT('',(0.0105414096546689,0.03,0.0386370330515627));
#1778=CARTESIAN_POINT('',(0.0136472381958992,0.03,0.0386370330515627));
#1779=CARTESIAN_POINT('',(0.024,0.03,0.));
#1780=CARTESIAN_POINT('',(0.024,0.,0.));
#1781=CARTESIAN_POINT('',(0.0233301270189222,0.045,0.0025));
#1782=CARTESIAN_POINT('',(0.0233301270189222,-0.009,0.0025));
#1783=CARTESIAN_POINT('',(0.0221022413359522,-0.009,0.00708253175473051));
#1784=CARTESIAN_POINT('',(0.024,-0.009,-1.33226762955019E-18));
#1785=CARTESIAN_POINT('',(0.024,-0.009,-8.67361737988404E-19));
#1786=CARTESIAN_POINT('',(0.024,0.039,-8.67361737988404E-19));
#1787=CARTESIAN_POINT('',(0.0221022413359522,0.039,0.00708253175473051));
#1788=CARTESIAN_POINT('',(0.0233301270189222,0.039,0.0025));
#1789=CARTESIAN_POINT('',(0.0233301270189222,0.045,0.0025));
#1790=CARTESIAN_POINT('',(-3.61889998464052E-19,0.03,0.00249999999999586));
#1791=CARTESIAN_POINT('',(-3.61889998464052E-19,0.03,0.00249999999999586));
#1792=CARTESIAN_POINT('',(-3.94159325085704E-18,0.03,-8.67361737988404E-19));
#1793=CARTESIAN_POINT('',(0.013,0.035,0.0025));
#1794=CARTESIAN_POINT('',(0.013,0.035,-8.67361737988404E-19));
#1795=CARTESIAN_POINT('',(0.01485,0.035,-8.67361737988404E-19));
#1796=CARTESIAN_POINT('',(0.013,0.035,0.0025));
#1797=CARTESIAN_POINT('',(0.01485,0.035,0.0025));
#1798=CARTESIAN_POINT('',(0.,0.03,0.0025));
#1799=CARTESIAN_POINT('',(0.,0.03,-8.67361737988404E-19));
#1800=CARTESIAN_POINT('',(0.,0.03,0.0025));
#1801=CARTESIAN_POINT('',(0.,0.,0.));
#1802=CARTESIAN_POINT('',(0.0105414096546689,0.,0.0386370330515627));
#1803=CARTESIAN_POINT('',(0.013,-0.005,-8.67361737988404E-19));
#1804=CARTESIAN_POINT('',(0.013,-0.005,-8.67361737988404E-19));
#1805=CARTESIAN_POINT('',(0.01485,-0.005,-8.67361737988404E-19));
#1806=CARTESIAN_POINT('',(0.005,0.039,-8.67361737988404E-19));
#1807=CARTESIAN_POINT('',(0.005,-0.009,-8.67361737988404E-19));
#1808=CARTESIAN_POINT('',(0.,0.,-8.67361737988404E-19));
#1809=CARTESIAN_POINT('',(0.013,-0.005,0.0025));
#1810=CARTESIAN_POINT('',(0.013,-0.005,0.0025));
#1811=CARTESIAN_POINT('',(0.01485,-0.005,0.0025));
#1812=CARTESIAN_POINT('',(0.,0.,0.0025));
#1813=CARTESIAN_POINT('',(0.,0.,0.0025));
#1814=CARTESIAN_POINT('',(0.005,0.039,0.0025));
#1815=CARTESIAN_POINT('',(0.005,0.039,0.0025));
#1816=CARTESIAN_POINT('',(0.005,-0.009,0.0025));
#1817=CARTESIAN_POINT('',(0.005,-0.009,0.0025));
#1818=CARTESIAN_POINT('',(0.0105414096546689,0.03,0.0386370330515627));
#1819=CARTESIAN_POINT('',(0.0105414096546689,0.03,0.0386370330515627));
#1820=CARTESIAN_POINT('',(0.0105414096546689,0.03,0.0386370330515627));
#1821=CARTESIAN_POINT('',(0.0105414096546689,0.03,0.0386370330515627));
#1822=CARTESIAN_POINT('',(0.0105414096546689,0.03,0.0386370330515627));
#1823=CARTESIAN_POINT('',(0.0195496993845877,0.03,0.00501763809020504));
#1824=CARTESIAN_POINT('',(0.0176178477320095,0.03,0.0045));
#1825=CARTESIAN_POINT('',(0.0176178477320095,-0.005,0.0025));
#1826=CARTESIAN_POINT('',(0.013,-0.005,0.0025));
#1827=MECHANICAL_DESIGN_GEOMETRIC_PRESENTATION_REPRESENTATION('',(#1053,
#20),#1828);
#1828=(
GEOMETRIC_REPRESENTATION_CONTEXT(3)
GLOBAL_UNCERTAINTY_ASSIGNED_CONTEXT((#1829))
GLOBAL_UNIT_ASSIGNED_CONTEXT((#1832,#1831,#1830))
REPRESENTATION_CONTEXT('cam_holder','TOP_LEVEL_ASSEMBLY_PART')
);
#1829=UNCERTAINTY_MEASURE_WITH_UNIT(LENGTH_MEASURE(5.E-6),#1832,
'DISTANCE_ACCURACY_VALUE','Maximum Tolerance applied to model');
#1830=(
NAMED_UNIT(*)
SI_UNIT($,.STERADIAN.)
SOLID_ANGLE_UNIT()
);
#1831=(
NAMED_UNIT(*)
PLANE_ANGLE_UNIT()
SI_UNIT($,.RADIAN.)
);
#1832=(
LENGTH_UNIT()
NAMED_UNIT(*)
SI_UNIT($,.METRE.)
);
#1833=PRODUCT_DEFINITION_SHAPE('','',#1834);
#1834=PRODUCT_DEFINITION('','',#1836,#1835);
#1835=PRODUCT_DEFINITION_CONTEXT('',#1842,'design');
#1836=PRODUCT_DEFINITION_FORMATION_WITH_SPECIFIED_SOURCE('','',#1838,
 .NOT_KNOWN.);
#1837=PRODUCT_RELATED_PRODUCT_CATEGORY('','',(#1838));
#1838=PRODUCT('cam_holder','cam_holder','cam_holder',(#1840));
#1839=PRODUCT_CATEGORY('','');
#1840=PRODUCT_CONTEXT('',#1842,'mechanical');
#1841=APPLICATION_PROTOCOL_DEFINITION('international standard',
'automotive_design',2010,#1842);
#1842=APPLICATION_CONTEXT(
'core data for automotive mechanical design processes');
ENDSEC;
END-ISO-10303-21;
