ISO-10303-21;
HEADER;
/* Generated by software containing ST-Developer
 * from STEP Tools, Inc. (www.steptools.com) 
 */
/* OPTION: using custom renumber hook */

FILE_DESCRIPTION(
/* description */ ('STEP AP214'),
/* implementation_level */ '2;1');

FILE_NAME(
/* name */ '654cf5c47f9aa566be17235c',
/* time_stamp */ '2023-11-09T15:07:49Z',
/* author */ (''),
/* organization */ (''),
/* preprocessor_version */ 'ST-DEVELOPER v19.4',
/* originating_system */ '  ',
/* authorisation */ '  ');

FILE_SCHEMA (('AUTOMOTIVE_DESIGN {1 0 10303 214 3 1 1}'));
ENDSEC;

DATA;
#10=PROPERTY_DEFINITION_REPRESENTATION(#14,#12);
#11=PROPERTY_DEFINITION_REPRESENTATION(#15,#13);
#12=REPRESENTATION('',(#16),#1428);
#13=REPRESENTATION('',(#17),#1428);
#14=PROPERTY_DEFINITION('pmi validation property','',#1433);
#15=PROPERTY_DEFINITION('pmi validation property','',#1433);
#16=VALUE_REPRESENTATION_ITEM('number of annotations',COUNT_MEASURE(0.));
#17=VALUE_REPRESENTATION_ITEM('number of views',COUNT_MEASURE(0.));
#18=SHAPE_REPRESENTATION_RELATIONSHIP('','',#874,#19);
#19=ADVANCED_BREP_SHAPE_REPRESENTATION('',(#872),#1428);
#20=DRAUGHTING_PRE_DEFINED_COLOUR('white');
#21=LINE('',#1260,#85);
#22=LINE('',#1265,#86);
#23=LINE('',#1272,#87);
#24=LINE('',#1273,#88);
#25=LINE('',#1278,#89);
#26=LINE('',#1279,#90);
#27=LINE('',#1281,#91);
#28=LINE('',#1283,#92);
#29=LINE('',#1285,#93);
#30=LINE('',#1289,#94);
#31=LINE('',#1291,#95);
#32=LINE('',#1293,#96);
#33=LINE('',#1295,#97);
#34=LINE('',#1298,#98);
#35=LINE('',#1300,#99);
#36=LINE('',#1301,#100);
#37=LINE('',#1303,#101);
#38=LINE('',#1305,#102);
#39=LINE('',#1307,#103);
#40=LINE('',#1309,#104);
#41=LINE('',#1313,#105);
#42=LINE('',#1315,#106);
#43=LINE('',#1317,#107);
#44=LINE('',#1319,#108);
#45=LINE('',#1321,#109);
#46=LINE('',#1323,#110);
#47=LINE('',#1325,#111);
#48=LINE('',#1327,#112);
#49=LINE('',#1329,#113);
#50=LINE('',#1331,#114);
#51=LINE('',#1333,#115);
#52=LINE('',#1335,#116);
#53=LINE('',#1337,#117);
#54=LINE('',#1339,#118);
#55=LINE('',#1345,#119);
#56=LINE('',#1347,#120);
#57=LINE('',#1349,#121);
#58=LINE('',#1351,#122);
#59=LINE('',#1353,#123);
#60=LINE('',#1354,#124);
#61=LINE('',#1356,#125);
#62=LINE('',#1359,#126);
#63=LINE('',#1361,#127);
#64=LINE('',#1363,#128);
#65=LINE('',#1365,#129);
#66=LINE('',#1368,#130);
#67=LINE('',#1369,#131);
#68=LINE('',#1371,#132);
#69=LINE('',#1373,#133);
#70=LINE('',#1375,#134);
#71=LINE('',#1377,#135);
#72=LINE('',#1379,#136);
#73=LINE('',#1401,#137);
#74=LINE('',#1404,#138);
#75=LINE('',#1406,#139);
#76=LINE('',#1408,#140);
#77=LINE('',#1410,#141);
#78=LINE('',#1412,#142);
#79=LINE('',#1414,#143);
#80=LINE('',#1416,#144);
#81=LINE('',#1418,#145);
#82=LINE('',#1420,#146);
#83=LINE('',#1422,#147);
#84=LINE('',#1424,#148);
#85=VECTOR('',#991,1.);
#86=VECTOR('',#994,1.);
#87=VECTOR('',#1001,1.);
#88=VECTOR('',#1002,1.);
#89=VECTOR('',#1007,1.);
#90=VECTOR('',#1008,1.);
#91=VECTOR('',#1011,1.);
#92=VECTOR('',#1012,1.);
#93=VECTOR('',#1013,1.);
#94=VECTOR('',#1016,1.);
#95=VECTOR('',#1017,1.);
#96=VECTOR('',#1018,1.);
#97=VECTOR('',#1021,1.);
#98=VECTOR('',#1022,1.);
#99=VECTOR('',#1023,1.);
#100=VECTOR('',#1024,1.);
#101=VECTOR('',#1027,1.);
#102=VECTOR('',#1028,1.);
#103=VECTOR('',#1031,1.);
#104=VECTOR('',#1032,1.);
#105=VECTOR('',#1037,1.);
#106=VECTOR('',#1040,1.);
#107=VECTOR('',#1041,1.);
#108=VECTOR('',#1044,1.);
#109=VECTOR('',#1045,1.);
#110=VECTOR('',#1048,1.);
#111=VECTOR('',#1049,1.);
#112=VECTOR('',#1050,1.);
#113=VECTOR('',#1053,1.);
#114=VECTOR('',#1054,1.);
#115=VECTOR('',#1055,1.);
#116=VECTOR('',#1058,1.);
#117=VECTOR('',#1059,1.);
#118=VECTOR('',#1060,1.);
#119=VECTOR('',#1067,1.);
#120=VECTOR('',#1070,1.);
#121=VECTOR('',#1071,1.);
#122=VECTOR('',#1072,1.);
#123=VECTOR('',#1075,1.);
#124=VECTOR('',#1076,1.);
#125=VECTOR('',#1079,1.);
#126=VECTOR('',#1080,1.);
#127=VECTOR('',#1081,1.);
#128=VECTOR('',#1082,1.);
#129=VECTOR('',#1085,1.);
#130=VECTOR('',#1086,1.);
#131=VECTOR('',#1087,1.);
#132=VECTOR('',#1090,1.);
#133=VECTOR('',#1091,1.);
#134=VECTOR('',#1094,1.);
#135=VECTOR('',#1095,1.);
#136=VECTOR('',#1098,1.);
#137=VECTOR('',#1125,1.);
#138=VECTOR('',#1126,1.);
#139=VECTOR('',#1127,1.);
#140=VECTOR('',#1128,1.);
#141=VECTOR('',#1131,1.);
#142=VECTOR('',#1132,1.);
#143=VECTOR('',#1133,1.);
#144=VECTOR('',#1136,1.);
#145=VECTOR('',#1137,1.);
#146=VECTOR('',#1140,1.);
#147=VECTOR('',#1141,1.);
#148=VECTOR('',#1144,1.);
#149=CONICAL_SURFACE('',#889,0.00444130705962135,0.972630042817411);
#150=VERTEX_LOOP('',#470);
#151=B_SPLINE_SURFACE_WITH_KNOTS('',3,3,((#1168,#1169,#1170,#1171,#1172,
#1173,#1174,#1175,#1176,#1177,#1178,#1179,#1180,#1181,#1182,#1183,#1184,
#1185,#1186),(#1187,#1188,#1189,#1190,#1191,#1192,#1193,#1194,#1195,#1196,
#1197,#1198,#1199,#1200,#1201,#1202,#1203,#1204,#1205),(#1206,#1207,#1208,
#1209,#1210,#1211,#1212,#1213,#1214,#1215,#1216,#1217,#1218,#1219,#1220,
#1221,#1222,#1223,#1224),(#1225,#1226,#1227,#1228,#1229,#1230,#1231,#1232,
#1233,#1234,#1235,#1236,#1237,#1238,#1239,#1240,#1241,#1242,#1243)),
 .UNSPECIFIED.,.F.,.T.,.F.,(4,4),(1,1,1,1,1,1,1,1,1,1,1,1,1,1,1,1,1,1,1,
1,1,1,1),(0.,0.999999999999997),(-1.17809724509617,-0.785398163397448,-0.392699081698725,
0.,0.392699081698724,0.785398163397448,1.17809724509617,1.5707963267949,
1.96349540849362,2.35619449019234,2.74889357189107,3.14159265358979,3.53429173528852,
3.92699081698724,4.31968989868597,4.71238898038469,5.10508806208341,5.49778714378214,
5.89048622548086,6.28318530717959,6.67588438887831,7.06858347057703,7.46128255227576),
 .UNSPECIFIED.);
#152=CYLINDRICAL_SURFACE('',#883,0.0015621);
#153=CYLINDRICAL_SURFACE('',#886,0.0015621);
#154=CYLINDRICAL_SURFACE('',#891,0.006985);
#155=CYLINDRICAL_SURFACE('',#895,0.0060964085912331);
#156=CYLINDRICAL_SURFACE('',#900,0.0068199);
#157=CYLINDRICAL_SURFACE('',#902,0.0068199);
#158=CYLINDRICAL_SURFACE('',#909,0.0019939);
#159=CYLINDRICAL_SURFACE('',#916,0.0019939);
#160=CYLINDRICAL_SURFACE('',#926,0.001016);
#161=CYLINDRICAL_SURFACE('',#929,0.001016);
#162=CYLINDRICAL_SURFACE('',#932,0.001016);
#163=CYLINDRICAL_SURFACE('',#935,0.001016);
#164=PLANE('',#882);
#165=PLANE('',#885);
#166=PLANE('',#893);
#167=PLANE('',#897);
#168=PLANE('',#904);
#169=PLANE('',#906);
#170=PLANE('',#907);
#171=PLANE('',#908);
#172=PLANE('',#911);
#173=PLANE('',#912);
#174=PLANE('',#913);
#175=PLANE('',#914);
#176=PLANE('',#915);
#177=PLANE('',#919);
#178=PLANE('',#920);
#179=PLANE('',#921);
#180=PLANE('',#922);
#181=PLANE('',#923);
#182=PLANE('',#924);
#183=PLANE('',#925);
#184=PLANE('',#938);
#185=PLANE('',#939);
#186=PLANE('',#940);
#187=PLANE('',#941);
#188=PLANE('',#942);
#189=PLANE('',#943);
#190=PLANE('',#944);
#191=ORIENTED_EDGE('',*,*,#373,.F.);
#192=ORIENTED_EDGE('',*,*,#374,.F.);
#193=ORIENTED_EDGE('',*,*,#375,.F.);
#194=ORIENTED_EDGE('',*,*,#376,.F.);
#195=ORIENTED_EDGE('',*,*,#375,.T.);
#196=ORIENTED_EDGE('',*,*,#376,.T.);
#197=ORIENTED_EDGE('',*,*,#377,.T.);
#198=ORIENTED_EDGE('',*,*,#374,.T.);
#199=ORIENTED_EDGE('',*,*,#373,.T.);
#200=ORIENTED_EDGE('',*,*,#378,.T.);
#201=ORIENTED_EDGE('',*,*,#379,.F.);
#202=ORIENTED_EDGE('',*,*,#379,.T.);
#203=ORIENTED_EDGE('',*,*,#380,.F.);
#204=ORIENTED_EDGE('',*,*,#380,.T.);
#205=ORIENTED_EDGE('',*,*,#381,.F.);
#206=ORIENTED_EDGE('',*,*,#382,.T.);
#207=ORIENTED_EDGE('',*,*,#381,.T.);
#208=ORIENTED_EDGE('',*,*,#382,.F.);
#209=ORIENTED_EDGE('',*,*,#383,.T.);
#210=ORIENTED_EDGE('',*,*,#383,.F.);
#211=ORIENTED_EDGE('',*,*,#384,.T.);
#212=ORIENTED_EDGE('',*,*,#385,.T.);
#213=ORIENTED_EDGE('',*,*,#386,.T.);
#214=ORIENTED_EDGE('',*,*,#387,.T.);
#215=ORIENTED_EDGE('',*,*,#388,.T.);
#216=ORIENTED_EDGE('',*,*,#389,.F.);
#217=ORIENTED_EDGE('',*,*,#387,.F.);
#218=ORIENTED_EDGE('',*,*,#390,.T.);
#219=ORIENTED_EDGE('',*,*,#391,.T.);
#220=ORIENTED_EDGE('',*,*,#392,.F.);
#221=ORIENTED_EDGE('',*,*,#385,.F.);
#222=ORIENTED_EDGE('',*,*,#393,.T.);
#223=ORIENTED_EDGE('',*,*,#391,.F.);
#224=ORIENTED_EDGE('',*,*,#394,.T.);
#225=ORIENTED_EDGE('',*,*,#395,.T.);
#226=ORIENTED_EDGE('',*,*,#396,.T.);
#227=ORIENTED_EDGE('',*,*,#397,.T.);
#228=ORIENTED_EDGE('',*,*,#398,.T.);
#229=ORIENTED_EDGE('',*,*,#399,.T.);
#230=ORIENTED_EDGE('',*,*,#400,.T.);
#231=ORIENTED_EDGE('',*,*,#401,.T.);
#232=ORIENTED_EDGE('',*,*,#402,.F.);
#233=ORIENTED_EDGE('',*,*,#403,.F.);
#234=ORIENTED_EDGE('',*,*,#390,.F.);
#235=ORIENTED_EDGE('',*,*,#386,.F.);
#236=ORIENTED_EDGE('',*,*,#392,.T.);
#237=ORIENTED_EDGE('',*,*,#400,.F.);
#238=ORIENTED_EDGE('',*,*,#404,.T.);
#239=ORIENTED_EDGE('',*,*,#405,.T.);
#240=ORIENTED_EDGE('',*,*,#404,.F.);
#241=ORIENTED_EDGE('',*,*,#399,.F.);
#242=ORIENTED_EDGE('',*,*,#406,.T.);
#243=ORIENTED_EDGE('',*,*,#407,.T.);
#244=ORIENTED_EDGE('',*,*,#406,.F.);
#245=ORIENTED_EDGE('',*,*,#398,.F.);
#246=ORIENTED_EDGE('',*,*,#408,.T.);
#247=ORIENTED_EDGE('',*,*,#409,.T.);
#248=ORIENTED_EDGE('',*,*,#408,.F.);
#249=ORIENTED_EDGE('',*,*,#397,.F.);
#250=ORIENTED_EDGE('',*,*,#410,.T.);
#251=ORIENTED_EDGE('',*,*,#411,.T.);
#252=ORIENTED_EDGE('',*,*,#410,.F.);
#253=ORIENTED_EDGE('',*,*,#396,.F.);
#254=ORIENTED_EDGE('',*,*,#412,.T.);
#255=ORIENTED_EDGE('',*,*,#413,.T.);
#256=ORIENTED_EDGE('',*,*,#412,.F.);
#257=ORIENTED_EDGE('',*,*,#395,.F.);
#258=ORIENTED_EDGE('',*,*,#414,.T.);
#259=ORIENTED_EDGE('',*,*,#415,.T.);
#260=ORIENTED_EDGE('',*,*,#414,.F.);
#261=ORIENTED_EDGE('',*,*,#394,.F.);
#262=ORIENTED_EDGE('',*,*,#393,.F.);
#263=ORIENTED_EDGE('',*,*,#384,.F.);
#264=ORIENTED_EDGE('',*,*,#389,.T.);
#265=ORIENTED_EDGE('',*,*,#416,.F.);
#266=ORIENTED_EDGE('',*,*,#417,.T.);
#267=ORIENTED_EDGE('',*,*,#418,.T.);
#268=ORIENTED_EDGE('',*,*,#417,.F.);
#269=ORIENTED_EDGE('',*,*,#419,.F.);
#270=ORIENTED_EDGE('',*,*,#420,.T.);
#271=ORIENTED_EDGE('',*,*,#421,.T.);
#272=ORIENTED_EDGE('',*,*,#420,.F.);
#273=ORIENTED_EDGE('',*,*,#422,.F.);
#274=ORIENTED_EDGE('',*,*,#423,.T.);
#275=ORIENTED_EDGE('',*,*,#424,.T.);
#276=ORIENTED_EDGE('',*,*,#423,.F.);
#277=ORIENTED_EDGE('',*,*,#425,.F.);
#278=ORIENTED_EDGE('',*,*,#426,.T.);
#279=ORIENTED_EDGE('',*,*,#427,.T.);
#280=ORIENTED_EDGE('',*,*,#426,.F.);
#281=ORIENTED_EDGE('',*,*,#428,.F.);
#282=ORIENTED_EDGE('',*,*,#429,.T.);
#283=ORIENTED_EDGE('',*,*,#430,.T.);
#284=ORIENTED_EDGE('',*,*,#429,.F.);
#285=ORIENTED_EDGE('',*,*,#431,.F.);
#286=ORIENTED_EDGE('',*,*,#402,.T.);
#287=ORIENTED_EDGE('',*,*,#432,.T.);
#288=ORIENTED_EDGE('',*,*,#433,.T.);
#289=ORIENTED_EDGE('',*,*,#434,.T.);
#290=ORIENTED_EDGE('',*,*,#435,.T.);
#291=ORIENTED_EDGE('',*,*,#436,.T.);
#292=ORIENTED_EDGE('',*,*,#437,.F.);
#293=ORIENTED_EDGE('',*,*,#435,.F.);
#294=ORIENTED_EDGE('',*,*,#438,.T.);
#295=ORIENTED_EDGE('',*,*,#439,.T.);
#296=ORIENTED_EDGE('',*,*,#438,.F.);
#297=ORIENTED_EDGE('',*,*,#434,.F.);
#298=ORIENTED_EDGE('',*,*,#440,.T.);
#299=ORIENTED_EDGE('',*,*,#441,.T.);
#300=ORIENTED_EDGE('',*,*,#440,.F.);
#301=ORIENTED_EDGE('',*,*,#433,.F.);
#302=ORIENTED_EDGE('',*,*,#442,.T.);
#303=ORIENTED_EDGE('',*,*,#443,.T.);
#304=ORIENTED_EDGE('',*,*,#442,.F.);
#305=ORIENTED_EDGE('',*,*,#432,.F.);
#306=ORIENTED_EDGE('',*,*,#437,.T.);
#307=ORIENTED_EDGE('',*,*,#444,.T.);
#308=ORIENTED_EDGE('',*,*,#445,.F.);
#309=ORIENTED_EDGE('',*,*,#446,.T.);
#310=ORIENTED_EDGE('',*,*,#447,.F.);
#311=ORIENTED_EDGE('',*,*,#448,.T.);
#312=ORIENTED_EDGE('',*,*,#449,.F.);
#313=ORIENTED_EDGE('',*,*,#450,.T.);
#314=ORIENTED_EDGE('',*,*,#451,.F.);
#315=ORIENTED_EDGE('',*,*,#451,.T.);
#316=ORIENTED_EDGE('',*,*,#449,.T.);
#317=ORIENTED_EDGE('',*,*,#447,.T.);
#318=ORIENTED_EDGE('',*,*,#445,.T.);
#319=ORIENTED_EDGE('',*,*,#378,.F.);
#320=ORIENTED_EDGE('',*,*,#377,.F.);
#321=ORIENTED_EDGE('',*,*,#452,.F.);
#322=ORIENTED_EDGE('',*,*,#453,.F.);
#323=ORIENTED_EDGE('',*,*,#454,.F.);
#324=ORIENTED_EDGE('',*,*,#455,.F.);
#325=ORIENTED_EDGE('',*,*,#453,.T.);
#326=ORIENTED_EDGE('',*,*,#456,.F.);
#327=ORIENTED_EDGE('',*,*,#457,.F.);
#328=ORIENTED_EDGE('',*,*,#458,.T.);
#329=ORIENTED_EDGE('',*,*,#454,.T.);
#330=ORIENTED_EDGE('',*,*,#458,.F.);
#331=ORIENTED_EDGE('',*,*,#459,.F.);
#332=ORIENTED_EDGE('',*,*,#460,.T.);
#333=ORIENTED_EDGE('',*,*,#455,.T.);
#334=ORIENTED_EDGE('',*,*,#460,.F.);
#335=ORIENTED_EDGE('',*,*,#461,.F.);
#336=ORIENTED_EDGE('',*,*,#462,.T.);
#337=ORIENTED_EDGE('',*,*,#452,.T.);
#338=ORIENTED_EDGE('',*,*,#462,.F.);
#339=ORIENTED_EDGE('',*,*,#463,.F.);
#340=ORIENTED_EDGE('',*,*,#456,.T.);
#341=ORIENTED_EDGE('',*,*,#450,.F.);
#342=ORIENTED_EDGE('',*,*,#448,.F.);
#343=ORIENTED_EDGE('',*,*,#446,.F.);
#344=ORIENTED_EDGE('',*,*,#444,.F.);
#345=ORIENTED_EDGE('',*,*,#443,.F.);
#346=ORIENTED_EDGE('',*,*,#436,.F.);
#347=ORIENTED_EDGE('',*,*,#439,.F.);
#348=ORIENTED_EDGE('',*,*,#441,.F.);
#349=ORIENTED_EDGE('',*,*,#427,.F.);
#350=ORIENTED_EDGE('',*,*,#430,.F.);
#351=ORIENTED_EDGE('',*,*,#401,.F.);
#352=ORIENTED_EDGE('',*,*,#405,.F.);
#353=ORIENTED_EDGE('',*,*,#407,.F.);
#354=ORIENTED_EDGE('',*,*,#409,.F.);
#355=ORIENTED_EDGE('',*,*,#411,.F.);
#356=ORIENTED_EDGE('',*,*,#413,.F.);
#357=ORIENTED_EDGE('',*,*,#415,.F.);
#358=ORIENTED_EDGE('',*,*,#418,.F.);
#359=ORIENTED_EDGE('',*,*,#421,.F.);
#360=ORIENTED_EDGE('',*,*,#424,.F.);
#361=ORIENTED_EDGE('',*,*,#463,.T.);
#362=ORIENTED_EDGE('',*,*,#461,.T.);
#363=ORIENTED_EDGE('',*,*,#459,.T.);
#364=ORIENTED_EDGE('',*,*,#457,.T.);
#365=ORIENTED_EDGE('',*,*,#388,.F.);
#366=ORIENTED_EDGE('',*,*,#403,.T.);
#367=ORIENTED_EDGE('',*,*,#431,.T.);
#368=ORIENTED_EDGE('',*,*,#428,.T.);
#369=ORIENTED_EDGE('',*,*,#425,.T.);
#370=ORIENTED_EDGE('',*,*,#422,.T.);
#371=ORIENTED_EDGE('',*,*,#419,.T.);
#372=ORIENTED_EDGE('',*,*,#416,.T.);
#373=EDGE_CURVE('',#464,#464,#532,.T.);
#374=EDGE_CURVE('',#465,#465,#533,.T.);
#375=EDGE_CURVE('',#466,#466,#534,.T.);
#376=EDGE_CURVE('',#467,#467,#535,.T.);
#377=EDGE_CURVE('',#468,#468,#536,.T.);
#378=EDGE_CURVE('',#469,#469,#537,.T.);
#379=EDGE_CURVE('',#471,#471,#538,.T.);
#380=EDGE_CURVE('',#472,#472,#539,.T.);
#381=EDGE_CURVE('',#473,#473,#540,.T.);
#382=EDGE_CURVE('',#474,#474,#541,.T.);
#383=EDGE_CURVE('',#475,#475,#542,.T.);
#384=EDGE_CURVE('',#476,#477,#21,.T.);
#385=EDGE_CURVE('',#477,#478,#543,.T.);
#386=EDGE_CURVE('',#478,#479,#22,.T.);
#387=EDGE_CURVE('',#479,#476,#544,.T.);
#388=EDGE_CURVE('',#480,#481,#545,.T.);
#389=EDGE_CURVE('',#476,#481,#23,.T.);
#390=EDGE_CURVE('',#479,#480,#24,.T.);
#391=EDGE_CURVE('',#482,#483,#546,.T.);
#392=EDGE_CURVE('',#478,#483,#25,.T.);
#393=EDGE_CURVE('',#477,#482,#26,.T.);
#394=EDGE_CURVE('',#482,#484,#27,.T.);
#395=EDGE_CURVE('',#484,#485,#28,.T.);
#396=EDGE_CURVE('',#485,#486,#29,.T.);
#397=EDGE_CURVE('',#486,#487,#547,.T.);
#398=EDGE_CURVE('',#487,#488,#30,.T.);
#399=EDGE_CURVE('',#488,#489,#31,.T.);
#400=EDGE_CURVE('',#489,#483,#32,.T.);
#401=EDGE_CURVE('',#490,#491,#33,.T.);
#402=EDGE_CURVE('',#492,#491,#34,.T.);
#403=EDGE_CURVE('',#480,#492,#35,.T.);
#404=EDGE_CURVE('',#489,#490,#36,.T.);
#405=EDGE_CURVE('',#493,#490,#37,.T.);
#406=EDGE_CURVE('',#488,#493,#38,.T.);
#407=EDGE_CURVE('',#494,#493,#39,.T.);
#408=EDGE_CURVE('',#487,#494,#40,.T.);
#409=EDGE_CURVE('',#495,#494,#548,.T.);
#410=EDGE_CURVE('',#486,#495,#41,.T.);
#411=EDGE_CURVE('',#496,#495,#42,.T.);
#412=EDGE_CURVE('',#485,#496,#43,.T.);
#413=EDGE_CURVE('',#497,#496,#44,.T.);
#414=EDGE_CURVE('',#484,#497,#45,.T.);
#415=EDGE_CURVE('',#498,#497,#46,.T.);
#416=EDGE_CURVE('',#499,#481,#47,.T.);
#417=EDGE_CURVE('',#499,#498,#48,.T.);
#418=EDGE_CURVE('',#500,#498,#49,.T.);
#419=EDGE_CURVE('',#501,#499,#50,.T.);
#420=EDGE_CURVE('',#501,#500,#51,.T.);
#421=EDGE_CURVE('',#502,#500,#52,.T.);
#422=EDGE_CURVE('',#503,#501,#53,.T.);
#423=EDGE_CURVE('',#503,#502,#54,.T.);
#424=EDGE_CURVE('',#504,#502,#549,.T.);
#425=EDGE_CURVE('',#505,#503,#550,.T.);
#426=EDGE_CURVE('',#505,#504,#55,.T.);
#427=EDGE_CURVE('',#506,#504,#56,.T.);
#428=EDGE_CURVE('',#507,#505,#57,.T.);
#429=EDGE_CURVE('',#507,#506,#58,.T.);
#430=EDGE_CURVE('',#491,#506,#59,.T.);
#431=EDGE_CURVE('',#492,#507,#60,.T.);
#432=EDGE_CURVE('',#508,#509,#61,.T.);
#433=EDGE_CURVE('',#509,#510,#62,.T.);
#434=EDGE_CURVE('',#510,#511,#63,.T.);
#435=EDGE_CURVE('',#511,#508,#64,.T.);
#436=EDGE_CURVE('',#512,#513,#65,.T.);
#437=EDGE_CURVE('',#508,#513,#66,.T.);
#438=EDGE_CURVE('',#511,#512,#67,.T.);
#439=EDGE_CURVE('',#514,#512,#68,.T.);
#440=EDGE_CURVE('',#510,#514,#69,.T.);
#441=EDGE_CURVE('',#515,#514,#70,.T.);
#442=EDGE_CURVE('',#509,#515,#71,.T.);
#443=EDGE_CURVE('',#513,#515,#72,.T.);
#444=EDGE_CURVE('',#516,#516,#551,.T.);
#445=EDGE_CURVE('',#517,#517,#552,.T.);
#446=EDGE_CURVE('',#518,#518,#553,.T.);
#447=EDGE_CURVE('',#519,#519,#554,.T.);
#448=EDGE_CURVE('',#520,#520,#555,.T.);
#449=EDGE_CURVE('',#521,#521,#556,.T.);
#450=EDGE_CURVE('',#522,#522,#557,.T.);
#451=EDGE_CURVE('',#523,#523,#558,.T.);
#452=EDGE_CURVE('',#524,#525,#73,.T.);
#453=EDGE_CURVE('',#526,#524,#74,.T.);
#454=EDGE_CURVE('',#527,#526,#75,.T.);
#455=EDGE_CURVE('',#525,#527,#76,.T.);
#456=EDGE_CURVE('',#528,#524,#77,.T.);
#457=EDGE_CURVE('',#529,#528,#78,.T.);
#458=EDGE_CURVE('',#529,#526,#79,.T.);
#459=EDGE_CURVE('',#530,#529,#80,.T.);
#460=EDGE_CURVE('',#530,#527,#81,.T.);
#461=EDGE_CURVE('',#531,#530,#82,.T.);
#462=EDGE_CURVE('',#531,#525,#83,.T.);
#463=EDGE_CURVE('',#528,#531,#84,.T.);
#464=VERTEX_POINT('',#1152);
#465=VERTEX_POINT('',#1154);
#466=VERTEX_POINT('',#1157);
#467=VERTEX_POINT('',#1159);
#468=VERTEX_POINT('',#1163);
#469=VERTEX_POINT('',#1167);
#470=VERTEX_POINT('',#1244);
#471=VERTEX_POINT('',#1246);
#472=VERTEX_POINT('',#1249);
#473=VERTEX_POINT('',#1252);
#474=VERTEX_POINT('',#1255);
#475=VERTEX_POINT('',#1258);
#476=VERTEX_POINT('',#1261);
#477=VERTEX_POINT('',#1262);
#478=VERTEX_POINT('',#1264);
#479=VERTEX_POINT('',#1266);
#480=VERTEX_POINT('',#1270);
#481=VERTEX_POINT('',#1271);
#482=VERTEX_POINT('',#1276);
#483=VERTEX_POINT('',#1277);
#484=VERTEX_POINT('',#1282);
#485=VERTEX_POINT('',#1284);
#486=VERTEX_POINT('',#1286);
#487=VERTEX_POINT('',#1288);
#488=VERTEX_POINT('',#1290);
#489=VERTEX_POINT('',#1292);
#490=VERTEX_POINT('',#1296);
#491=VERTEX_POINT('',#1297);
#492=VERTEX_POINT('',#1299);
#493=VERTEX_POINT('',#1304);
#494=VERTEX_POINT('',#1308);
#495=VERTEX_POINT('',#1312);
#496=VERTEX_POINT('',#1316);
#497=VERTEX_POINT('',#1320);
#498=VERTEX_POINT('',#1324);
#499=VERTEX_POINT('',#1326);
#500=VERTEX_POINT('',#1330);
#501=VERTEX_POINT('',#1332);
#502=VERTEX_POINT('',#1336);
#503=VERTEX_POINT('',#1338);
#504=VERTEX_POINT('',#1342);
#505=VERTEX_POINT('',#1344);
#506=VERTEX_POINT('',#1348);
#507=VERTEX_POINT('',#1350);
#508=VERTEX_POINT('',#1357);
#509=VERTEX_POINT('',#1358);
#510=VERTEX_POINT('',#1360);
#511=VERTEX_POINT('',#1362);
#512=VERTEX_POINT('',#1366);
#513=VERTEX_POINT('',#1367);
#514=VERTEX_POINT('',#1372);
#515=VERTEX_POINT('',#1376);
#516=VERTEX_POINT('',#1382);
#517=VERTEX_POINT('',#1384);
#518=VERTEX_POINT('',#1387);
#519=VERTEX_POINT('',#1389);
#520=VERTEX_POINT('',#1392);
#521=VERTEX_POINT('',#1394);
#522=VERTEX_POINT('',#1397);
#523=VERTEX_POINT('',#1399);
#524=VERTEX_POINT('',#1402);
#525=VERTEX_POINT('',#1403);
#526=VERTEX_POINT('',#1405);
#527=VERTEX_POINT('',#1407);
#528=VERTEX_POINT('',#1411);
#529=VERTEX_POINT('',#1413);
#530=VERTEX_POINT('',#1417);
#531=VERTEX_POINT('',#1421);
#532=CIRCLE('',#877,0.0015621);
#533=CIRCLE('',#878,0.0013121);
#534=CIRCLE('',#880,0.0013121);
#535=CIRCLE('',#881,0.0015621);
#536=CIRCLE('',#884,0.0015621);
#537=CIRCLE('',#887,0.0015621);
#538=CIRCLE('',#888,0.00444130705962135);
#539=CIRCLE('',#890,0.006985);
#540=CIRCLE('',#892,0.006985);
#541=CIRCLE('',#894,0.0060964085912331);
#542=CIRCLE('',#896,0.0060964085912331);
#543=CIRCLE('',#898,0.0068199);
#544=CIRCLE('',#899,0.0068199);
#545=CIRCLE('',#901,0.0068199);
#546=CIRCLE('',#903,0.0068199);
#547=CIRCLE('',#905,0.0019939);
#548=CIRCLE('',#910,0.0019939);
#549=CIRCLE('',#917,0.0019939);
#550=CIRCLE('',#918,0.0019939);
#551=CIRCLE('',#927,0.001016);
#552=CIRCLE('',#928,0.001016);
#553=CIRCLE('',#930,0.001016);
#554=CIRCLE('',#931,0.001016);
#555=CIRCLE('',#933,0.001016);
#556=CIRCLE('',#934,0.001016);
#557=CIRCLE('',#936,0.001016);
#558=CIRCLE('',#937,0.001016);
#559=EDGE_LOOP('',(#191));
#560=EDGE_LOOP('',(#192));
#561=EDGE_LOOP('',(#193));
#562=EDGE_LOOP('',(#194));
#563=EDGE_LOOP('',(#195));
#564=EDGE_LOOP('',(#196));
#565=EDGE_LOOP('',(#197));
#566=EDGE_LOOP('',(#198));
#567=EDGE_LOOP('',(#199));
#568=EDGE_LOOP('',(#200));
#569=EDGE_LOOP('',(#201));
#570=EDGE_LOOP('',(#202));
#571=EDGE_LOOP('',(#203));
#572=EDGE_LOOP('',(#204));
#573=EDGE_LOOP('',(#205));
#574=EDGE_LOOP('',(#206));
#575=EDGE_LOOP('',(#207));
#576=EDGE_LOOP('',(#208));
#577=EDGE_LOOP('',(#209));
#578=EDGE_LOOP('',(#210));
#579=EDGE_LOOP('',(#211,#212,#213,#214));
#580=EDGE_LOOP('',(#215,#216,#217,#218));
#581=EDGE_LOOP('',(#219,#220,#221,#222));
#582=EDGE_LOOP('',(#223,#224,#225,#226,#227,#228,#229,#230));
#583=EDGE_LOOP('',(#231,#232,#233,#234,#235,#236,#237,#238));
#584=EDGE_LOOP('',(#239,#240,#241,#242));
#585=EDGE_LOOP('',(#243,#244,#245,#246));
#586=EDGE_LOOP('',(#247,#248,#249,#250));
#587=EDGE_LOOP('',(#251,#252,#253,#254));
#588=EDGE_LOOP('',(#255,#256,#257,#258));
#589=EDGE_LOOP('',(#259,#260,#261,#262,#263,#264,#265,#266));
#590=EDGE_LOOP('',(#267,#268,#269,#270));
#591=EDGE_LOOP('',(#271,#272,#273,#274));
#592=EDGE_LOOP('',(#275,#276,#277,#278));
#593=EDGE_LOOP('',(#279,#280,#281,#282));
#594=EDGE_LOOP('',(#283,#284,#285,#286));
#595=EDGE_LOOP('',(#287,#288,#289,#290));
#596=EDGE_LOOP('',(#291,#292,#293,#294));
#597=EDGE_LOOP('',(#295,#296,#297,#298));
#598=EDGE_LOOP('',(#299,#300,#301,#302));
#599=EDGE_LOOP('',(#303,#304,#305,#306));
#600=EDGE_LOOP('',(#307));
#601=EDGE_LOOP('',(#308));
#602=EDGE_LOOP('',(#309));
#603=EDGE_LOOP('',(#310));
#604=EDGE_LOOP('',(#311));
#605=EDGE_LOOP('',(#312));
#606=EDGE_LOOP('',(#313));
#607=EDGE_LOOP('',(#314));
#608=EDGE_LOOP('',(#315));
#609=EDGE_LOOP('',(#316));
#610=EDGE_LOOP('',(#317));
#611=EDGE_LOOP('',(#318));
#612=EDGE_LOOP('',(#319));
#613=EDGE_LOOP('',(#320));
#614=EDGE_LOOP('',(#321,#322,#323,#324));
#615=EDGE_LOOP('',(#325,#326,#327,#328));
#616=EDGE_LOOP('',(#329,#330,#331,#332));
#617=EDGE_LOOP('',(#333,#334,#335,#336));
#618=EDGE_LOOP('',(#337,#338,#339,#340));
#619=EDGE_LOOP('',(#341));
#620=EDGE_LOOP('',(#342));
#621=EDGE_LOOP('',(#343));
#622=EDGE_LOOP('',(#344));
#623=EDGE_LOOP('',(#345,#346,#347,#348));
#624=EDGE_LOOP('',(#349,#350,#351,#352,#353,#354,#355,#356,#357,#358,#359,
#360));
#625=EDGE_LOOP('',(#361,#362,#363,#364));
#626=EDGE_LOOP('',(#365,#366,#367,#368,#369,#370,#371,#372));
#627=FACE_BOUND('',#559,.T.);
#628=FACE_BOUND('',#560,.T.);
#629=FACE_BOUND('',#561,.T.);
#630=FACE_BOUND('',#562,.T.);
#631=FACE_BOUND('',#563,.T.);
#632=FACE_BOUND('',#564,.T.);
#633=FACE_BOUND('',#565,.T.);
#634=FACE_BOUND('',#566,.T.);
#635=FACE_BOUND('',#567,.T.);
#636=FACE_BOUND('',#568,.T.);
#637=FACE_BOUND('',#150,.T.);
#638=FACE_BOUND('',#569,.T.);
#639=FACE_BOUND('',#570,.T.);
#640=FACE_BOUND('',#571,.T.);
#641=FACE_BOUND('',#572,.T.);
#642=FACE_BOUND('',#573,.T.);
#643=FACE_BOUND('',#574,.T.);
#644=FACE_BOUND('',#575,.T.);
#645=FACE_BOUND('',#576,.T.);
#646=FACE_BOUND('',#577,.T.);
#647=FACE_BOUND('',#578,.T.);
#648=FACE_BOUND('',#579,.T.);
#649=FACE_BOUND('',#580,.T.);
#650=FACE_BOUND('',#581,.T.);
#651=FACE_BOUND('',#582,.T.);
#652=FACE_BOUND('',#583,.T.);
#653=FACE_BOUND('',#584,.T.);
#654=FACE_BOUND('',#585,.T.);
#655=FACE_BOUND('',#586,.T.);
#656=FACE_BOUND('',#587,.T.);
#657=FACE_BOUND('',#588,.T.);
#658=FACE_BOUND('',#589,.T.);
#659=FACE_BOUND('',#590,.T.);
#660=FACE_BOUND('',#591,.T.);
#661=FACE_BOUND('',#592,.T.);
#662=FACE_BOUND('',#593,.T.);
#663=FACE_BOUND('',#594,.T.);
#664=FACE_BOUND('',#595,.T.);
#665=FACE_BOUND('',#596,.T.);
#666=FACE_BOUND('',#597,.T.);
#667=FACE_BOUND('',#598,.T.);
#668=FACE_BOUND('',#599,.T.);
#669=FACE_BOUND('',#600,.T.);
#670=FACE_BOUND('',#601,.T.);
#671=FACE_BOUND('',#602,.T.);
#672=FACE_BOUND('',#603,.T.);
#673=FACE_BOUND('',#604,.T.);
#674=FACE_BOUND('',#605,.T.);
#675=FACE_BOUND('',#606,.T.);
#676=FACE_BOUND('',#607,.T.);
#677=FACE_BOUND('',#608,.T.);
#678=FACE_BOUND('',#609,.T.);
#679=FACE_BOUND('',#610,.T.);
#680=FACE_BOUND('',#611,.T.);
#681=FACE_BOUND('',#612,.T.);
#682=FACE_BOUND('',#613,.T.);
#683=FACE_BOUND('',#614,.T.);
#684=FACE_BOUND('',#615,.T.);
#685=FACE_BOUND('',#616,.T.);
#686=FACE_BOUND('',#617,.T.);
#687=FACE_BOUND('',#618,.T.);
#688=FACE_BOUND('',#619,.T.);
#689=FACE_BOUND('',#620,.T.);
#690=FACE_BOUND('',#621,.T.);
#691=FACE_BOUND('',#622,.T.);
#692=FACE_BOUND('',#623,.T.);
#693=FACE_BOUND('',#624,.T.);
#694=FACE_BOUND('',#625,.T.);
#695=FACE_BOUND('',#626,.T.);
#696=TOROIDAL_SURFACE('',#876,0.0013121,0.00025);
#697=TOROIDAL_SURFACE('',#879,0.0013121,0.00025);
#698=OVER_RIDING_STYLED_ITEM('',(#761),#715,#759);
#699=OVER_RIDING_STYLED_ITEM('',(#762),#716,#759);
#700=OVER_RIDING_STYLED_ITEM('',(#763),#717,#759);
#701=OVER_RIDING_STYLED_ITEM('',(#764),#718,#759);
#702=OVER_RIDING_STYLED_ITEM('',(#765),#719,#759);
#703=OVER_RIDING_STYLED_ITEM('',(#766),#720,#759);
#704=OVER_RIDING_STYLED_ITEM('',(#767),#721,#759);
#705=OVER_RIDING_STYLED_ITEM('',(#768),#742,#759);
#706=OVER_RIDING_STYLED_ITEM('',(#769),#743,#759);
#707=OVER_RIDING_STYLED_ITEM('',(#770),#744,#759);
#708=OVER_RIDING_STYLED_ITEM('',(#771),#745,#759);
#709=OVER_RIDING_STYLED_ITEM('',(#772),#746,#759);
#710=OVER_RIDING_STYLED_ITEM('',(#773),#747,#759);
#711=OVER_RIDING_STYLED_ITEM('',(#774),#748,#759);
#712=OVER_RIDING_STYLED_ITEM('',(#775),#749,#759);
#713=OVER_RIDING_STYLED_ITEM('',(#776),#750,#759);
#714=OVER_RIDING_STYLED_ITEM('',(#777),#751,#759);
#715=ADVANCED_FACE('',(#627,#628),#696,.T.);
#716=ADVANCED_FACE('',(#629,#630),#697,.T.);
#717=ADVANCED_FACE('',(#631),#164,.F.);
#718=ADVANCED_FACE('',(#632,#633),#152,.T.);
#719=ADVANCED_FACE('',(#634),#165,.T.);
#720=ADVANCED_FACE('',(#635,#636),#153,.T.);
#721=ADVANCED_FACE('',(#637,#638),#151,.T.);
#722=ADVANCED_FACE('',(#639,#640),#149,.T.);
#723=ADVANCED_FACE('',(#641,#642),#154,.T.);
#724=ADVANCED_FACE('',(#643,#644),#166,.F.);
#725=ADVANCED_FACE('',(#645,#646),#155,.T.);
#726=ADVANCED_FACE('',(#647,#648),#167,.T.);
#727=ADVANCED_FACE('',(#649),#156,.T.);
#728=ADVANCED_FACE('',(#650),#157,.T.);
#729=ADVANCED_FACE('',(#651),#168,.F.);
#730=ADVANCED_FACE('',(#652),#169,.F.);
#731=ADVANCED_FACE('',(#653),#170,.F.);
#732=ADVANCED_FACE('',(#654),#171,.F.);
#733=ADVANCED_FACE('',(#655),#158,.T.);
#734=ADVANCED_FACE('',(#656),#172,.F.);
#735=ADVANCED_FACE('',(#657),#173,.F.);
#736=ADVANCED_FACE('',(#658),#174,.F.);
#737=ADVANCED_FACE('',(#659),#175,.F.);
#738=ADVANCED_FACE('',(#660),#176,.F.);
#739=ADVANCED_FACE('',(#661),#159,.T.);
#740=ADVANCED_FACE('',(#662),#177,.F.);
#741=ADVANCED_FACE('',(#663),#178,.F.);
#742=ADVANCED_FACE('',(#664),#179,.T.);
#743=ADVANCED_FACE('',(#665),#180,.F.);
#744=ADVANCED_FACE('',(#666),#181,.F.);
#745=ADVANCED_FACE('',(#667),#182,.F.);
#746=ADVANCED_FACE('',(#668),#183,.F.);
#747=ADVANCED_FACE('',(#669,#670),#160,.F.);
#748=ADVANCED_FACE('',(#671,#672),#161,.F.);
#749=ADVANCED_FACE('',(#673,#674),#162,.F.);
#750=ADVANCED_FACE('',(#675,#676),#163,.F.);
#751=ADVANCED_FACE('',(#677,#678,#679,#680,#681,#682,#683),#184,.F.);
#752=ADVANCED_FACE('',(#684),#185,.F.);
#753=ADVANCED_FACE('',(#685),#186,.F.);
#754=ADVANCED_FACE('',(#686),#187,.F.);
#755=ADVANCED_FACE('',(#687),#188,.F.);
#756=ADVANCED_FACE('',(#688,#689,#690,#691,#692,#693,#694),#189,.T.);
#757=ADVANCED_FACE('',(#695),#190,.F.);
#758=CLOSED_SHELL('',(#715,#716,#717,#718,#719,#720,#721,#722,#723,#724,
#725,#726,#727,#728,#729,#730,#731,#732,#733,#734,#735,#736,#737,#738,#739,
#740,#741,#742,#743,#744,#745,#746,#747,#748,#749,#750,#751,#752,#753,#754,
#755,#756,#757));
#759=STYLED_ITEM('',(#760),#872);
#760=PRESENTATION_STYLE_ASSIGNMENT((#778));
#761=PRESENTATION_STYLE_ASSIGNMENT((#779));
#762=PRESENTATION_STYLE_ASSIGNMENT((#780));
#763=PRESENTATION_STYLE_ASSIGNMENT((#781));
#764=PRESENTATION_STYLE_ASSIGNMENT((#782));
#765=PRESENTATION_STYLE_ASSIGNMENT((#783));
#766=PRESENTATION_STYLE_ASSIGNMENT((#784));
#767=PRESENTATION_STYLE_ASSIGNMENT((#785));
#768=PRESENTATION_STYLE_ASSIGNMENT((#786));
#769=PRESENTATION_STYLE_ASSIGNMENT((#787));
#770=PRESENTATION_STYLE_ASSIGNMENT((#788));
#771=PRESENTATION_STYLE_ASSIGNMENT((#789));
#772=PRESENTATION_STYLE_ASSIGNMENT((#790));
#773=PRESENTATION_STYLE_ASSIGNMENT((#791));
#774=PRESENTATION_STYLE_ASSIGNMENT((#792));
#775=PRESENTATION_STYLE_ASSIGNMENT((#793));
#776=PRESENTATION_STYLE_ASSIGNMENT((#794));
#777=PRESENTATION_STYLE_ASSIGNMENT((#795));
#778=SURFACE_STYLE_USAGE(.BOTH.,#796);
#779=SURFACE_STYLE_USAGE(.BOTH.,#797);
#780=SURFACE_STYLE_USAGE(.BOTH.,#798);
#781=SURFACE_STYLE_USAGE(.BOTH.,#799);
#782=SURFACE_STYLE_USAGE(.BOTH.,#800);
#783=SURFACE_STYLE_USAGE(.BOTH.,#801);
#784=SURFACE_STYLE_USAGE(.BOTH.,#802);
#785=SURFACE_STYLE_USAGE(.BOTH.,#803);
#786=SURFACE_STYLE_USAGE(.BOTH.,#804);
#787=SURFACE_STYLE_USAGE(.BOTH.,#805);
#788=SURFACE_STYLE_USAGE(.BOTH.,#806);
#789=SURFACE_STYLE_USAGE(.BOTH.,#807);
#790=SURFACE_STYLE_USAGE(.BOTH.,#808);
#791=SURFACE_STYLE_USAGE(.BOTH.,#809);
#792=SURFACE_STYLE_USAGE(.BOTH.,#810);
#793=SURFACE_STYLE_USAGE(.BOTH.,#811);
#794=SURFACE_STYLE_USAGE(.BOTH.,#812);
#795=SURFACE_STYLE_USAGE(.BOTH.,#813);
#796=SURFACE_SIDE_STYLE('',(#814));
#797=SURFACE_SIDE_STYLE('',(#815));
#798=SURFACE_SIDE_STYLE('',(#816));
#799=SURFACE_SIDE_STYLE('',(#817));
#800=SURFACE_SIDE_STYLE('',(#818));
#801=SURFACE_SIDE_STYLE('',(#819));
#802=SURFACE_SIDE_STYLE('',(#820));
#803=SURFACE_SIDE_STYLE('',(#821));
#804=SURFACE_SIDE_STYLE('',(#822));
#805=SURFACE_SIDE_STYLE('',(#823));
#806=SURFACE_SIDE_STYLE('',(#824));
#807=SURFACE_SIDE_STYLE('',(#825));
#808=SURFACE_SIDE_STYLE('',(#826));
#809=SURFACE_SIDE_STYLE('',(#827));
#810=SURFACE_SIDE_STYLE('',(#828));
#811=SURFACE_SIDE_STYLE('',(#829));
#812=SURFACE_SIDE_STYLE('',(#830));
#813=SURFACE_SIDE_STYLE('',(#831));
#814=SURFACE_STYLE_FILL_AREA(#832);
#815=SURFACE_STYLE_FILL_AREA(#833);
#816=SURFACE_STYLE_FILL_AREA(#834);
#817=SURFACE_STYLE_FILL_AREA(#835);
#818=SURFACE_STYLE_FILL_AREA(#836);
#819=SURFACE_STYLE_FILL_AREA(#837);
#820=SURFACE_STYLE_FILL_AREA(#838);
#821=SURFACE_STYLE_FILL_AREA(#839);
#822=SURFACE_STYLE_FILL_AREA(#840);
#823=SURFACE_STYLE_FILL_AREA(#841);
#824=SURFACE_STYLE_FILL_AREA(#842);
#825=SURFACE_STYLE_FILL_AREA(#843);
#826=SURFACE_STYLE_FILL_AREA(#844);
#827=SURFACE_STYLE_FILL_AREA(#845);
#828=SURFACE_STYLE_FILL_AREA(#846);
#829=SURFACE_STYLE_FILL_AREA(#847);
#830=SURFACE_STYLE_FILL_AREA(#848);
#831=SURFACE_STYLE_FILL_AREA(#849);
#832=FILL_AREA_STYLE('',(#850));
#833=FILL_AREA_STYLE('',(#851));
#834=FILL_AREA_STYLE('',(#852));
#835=FILL_AREA_STYLE('',(#853));
#836=FILL_AREA_STYLE('',(#854));
#837=FILL_AREA_STYLE('',(#855));
#838=FILL_AREA_STYLE('',(#856));
#839=FILL_AREA_STYLE('',(#857));
#840=FILL_AREA_STYLE('',(#858));
#841=FILL_AREA_STYLE('',(#859));
#842=FILL_AREA_STYLE('',(#860));
#843=FILL_AREA_STYLE('',(#861));
#844=FILL_AREA_STYLE('',(#862));
#845=FILL_AREA_STYLE('',(#863));
#846=FILL_AREA_STYLE('',(#864));
#847=FILL_AREA_STYLE('',(#865));
#848=FILL_AREA_STYLE('',(#866));
#849=FILL_AREA_STYLE('',(#867));
#850=FILL_AREA_STYLE_COLOUR('',#868);
#851=FILL_AREA_STYLE_COLOUR('',#869);
#852=FILL_AREA_STYLE_COLOUR('',#869);
#853=FILL_AREA_STYLE_COLOUR('',#869);
#854=FILL_AREA_STYLE_COLOUR('',#869);
#855=FILL_AREA_STYLE_COLOUR('',#869);
#856=FILL_AREA_STYLE_COLOUR('',#869);
#857=FILL_AREA_STYLE_COLOUR('',#870);
#858=FILL_AREA_STYLE_COLOUR('',#20);
#859=FILL_AREA_STYLE_COLOUR('',#20);
#860=FILL_AREA_STYLE_COLOUR('',#20);
#861=FILL_AREA_STYLE_COLOUR('',#20);
#862=FILL_AREA_STYLE_COLOUR('',#20);
#863=FILL_AREA_STYLE_COLOUR('',#869);
#864=FILL_AREA_STYLE_COLOUR('',#869);
#865=FILL_AREA_STYLE_COLOUR('',#869);
#866=FILL_AREA_STYLE_COLOUR('',#869);
#867=FILL_AREA_STYLE_COLOUR('',#871);
#868=COLOUR_RGB('',0.298039215686275,0.298039215686275,0.298039215686275);
#869=COLOUR_RGB('',0.811764705882353,0.843137254901961,0.909803921568627);
#870=COLOUR_RGB('',0.254901960784313,0.215686274509804,0.196078431372549);
#871=COLOUR_RGB('',0.16078431372549,0.141176470588235,0.133333333333333);
#872=MANIFOLD_SOLID_BREP('camera_pi',#758);
#873=SHAPE_DEFINITION_REPRESENTATION(#1433,#874);
#874=SHAPE_REPRESENTATION('camera_pi',(#875),#1428);
#875=AXIS2_PLACEMENT_3D('',#1149,#945,#946);
#876=AXIS2_PLACEMENT_3D('',#1150,#947,#948);
#877=AXIS2_PLACEMENT_3D('',#1151,#949,#950);
#878=AXIS2_PLACEMENT_3D('',#1153,#951,#952);
#879=AXIS2_PLACEMENT_3D('',#1155,#953,#954);
#880=AXIS2_PLACEMENT_3D('',#1156,#955,#956);
#881=AXIS2_PLACEMENT_3D('',#1158,#957,#958);
#882=AXIS2_PLACEMENT_3D('',#1160,#959,#960);
#883=AXIS2_PLACEMENT_3D('',#1161,#961,#962);
#884=AXIS2_PLACEMENT_3D('',#1162,#963,#964);
#885=AXIS2_PLACEMENT_3D('',#1164,#965,#966);
#886=AXIS2_PLACEMENT_3D('',#1165,#967,#968);
#887=AXIS2_PLACEMENT_3D('',#1166,#969,#970);
#888=AXIS2_PLACEMENT_3D('',#1245,#971,#972);
#889=AXIS2_PLACEMENT_3D('',#1247,#973,#974);
#890=AXIS2_PLACEMENT_3D('',#1248,#975,#976);
#891=AXIS2_PLACEMENT_3D('',#1250,#977,#978);
#892=AXIS2_PLACEMENT_3D('',#1251,#979,#980);
#893=AXIS2_PLACEMENT_3D('',#1253,#981,#982);
#894=AXIS2_PLACEMENT_3D('',#1254,#983,#984);
#895=AXIS2_PLACEMENT_3D('',#1256,#985,#986);
#896=AXIS2_PLACEMENT_3D('',#1257,#987,#988);
#897=AXIS2_PLACEMENT_3D('',#1259,#989,#990);
#898=AXIS2_PLACEMENT_3D('',#1263,#992,#993);
#899=AXIS2_PLACEMENT_3D('',#1267,#995,#996);
#900=AXIS2_PLACEMENT_3D('',#1268,#997,#998);
#901=AXIS2_PLACEMENT_3D('',#1269,#999,#1000);
#902=AXIS2_PLACEMENT_3D('',#1274,#1003,#1004);
#903=AXIS2_PLACEMENT_3D('',#1275,#1005,#1006);
#904=AXIS2_PLACEMENT_3D('',#1280,#1009,#1010);
#905=AXIS2_PLACEMENT_3D('',#1287,#1014,#1015);
#906=AXIS2_PLACEMENT_3D('',#1294,#1019,#1020);
#907=AXIS2_PLACEMENT_3D('',#1302,#1025,#1026);
#908=AXIS2_PLACEMENT_3D('',#1306,#1029,#1030);
#909=AXIS2_PLACEMENT_3D('',#1310,#1033,#1034);
#910=AXIS2_PLACEMENT_3D('',#1311,#1035,#1036);
#911=AXIS2_PLACEMENT_3D('',#1314,#1038,#1039);
#912=AXIS2_PLACEMENT_3D('',#1318,#1042,#1043);
#913=AXIS2_PLACEMENT_3D('',#1322,#1046,#1047);
#914=AXIS2_PLACEMENT_3D('',#1328,#1051,#1052);
#915=AXIS2_PLACEMENT_3D('',#1334,#1056,#1057);
#916=AXIS2_PLACEMENT_3D('',#1340,#1061,#1062);
#917=AXIS2_PLACEMENT_3D('',#1341,#1063,#1064);
#918=AXIS2_PLACEMENT_3D('',#1343,#1065,#1066);
#919=AXIS2_PLACEMENT_3D('',#1346,#1068,#1069);
#920=AXIS2_PLACEMENT_3D('',#1352,#1073,#1074);
#921=AXIS2_PLACEMENT_3D('',#1355,#1077,#1078);
#922=AXIS2_PLACEMENT_3D('',#1364,#1083,#1084);
#923=AXIS2_PLACEMENT_3D('',#1370,#1088,#1089);
#924=AXIS2_PLACEMENT_3D('',#1374,#1092,#1093);
#925=AXIS2_PLACEMENT_3D('',#1378,#1096,#1097);
#926=AXIS2_PLACEMENT_3D('',#1380,#1099,#1100);
#927=AXIS2_PLACEMENT_3D('',#1381,#1101,#1102);
#928=AXIS2_PLACEMENT_3D('',#1383,#1103,#1104);
#929=AXIS2_PLACEMENT_3D('',#1385,#1105,#1106);
#930=AXIS2_PLACEMENT_3D('',#1386,#1107,#1108);
#931=AXIS2_PLACEMENT_3D('',#1388,#1109,#1110);
#932=AXIS2_PLACEMENT_3D('',#1390,#1111,#1112);
#933=AXIS2_PLACEMENT_3D('',#1391,#1113,#1114);
#934=AXIS2_PLACEMENT_3D('',#1393,#1115,#1116);
#935=AXIS2_PLACEMENT_3D('',#1395,#1117,#1118);
#936=AXIS2_PLACEMENT_3D('',#1396,#1119,#1120);
#937=AXIS2_PLACEMENT_3D('',#1398,#1121,#1122);
#938=AXIS2_PLACEMENT_3D('',#1400,#1123,#1124);
#939=AXIS2_PLACEMENT_3D('',#1409,#1129,#1130);
#940=AXIS2_PLACEMENT_3D('',#1415,#1134,#1135);
#941=AXIS2_PLACEMENT_3D('',#1419,#1138,#1139);
#942=AXIS2_PLACEMENT_3D('',#1423,#1142,#1143);
#943=AXIS2_PLACEMENT_3D('',#1425,#1145,#1146);
#944=AXIS2_PLACEMENT_3D('',#1426,#1147,#1148);
#945=DIRECTION('',(0.,0.,1.));
#946=DIRECTION('',(1.,0.,0.));
#947=DIRECTION('',(0.,-1.,0.));
#948=DIRECTION('',(0.,0.,-1.));
#949=DIRECTION('',(0.,1.,0.));
#950=DIRECTION('',(0.,0.,-1.));
#951=DIRECTION('',(0.,-1.,0.));
#952=DIRECTION('',(0.,0.,-1.));
#953=DIRECTION('',(0.,1.,0.));
#954=DIRECTION('',(0.,0.,1.));
#955=DIRECTION('',(0.,-1.,0.));
#956=DIRECTION('',(0.,0.,1.));
#957=DIRECTION('',(0.,1.,0.));
#958=DIRECTION('',(0.,0.,1.));
#959=DIRECTION('',(0.,1.,0.));
#960=DIRECTION('',(0.,0.,1.));
#961=DIRECTION('',(0.,1.,0.));
#962=DIRECTION('',(0.,0.,1.));
#963=DIRECTION('',(0.,-1.,0.));
#964=DIRECTION('',(0.,0.,1.));
#965=DIRECTION('',(0.,-1.,0.));
#966=DIRECTION('',(0.,0.,-1.));
#967=DIRECTION('',(0.,1.,0.));
#968=DIRECTION('',(0.,0.,1.));
#969=DIRECTION('',(0.,-1.,0.));
#970=DIRECTION('',(0.,0.,1.));
#971=DIRECTION('',(0.,-1.,0.));
#972=DIRECTION('',(0.,0.,-1.));
#973=DIRECTION('',(0.,-1.,0.));
#974=DIRECTION('',(0.,0.,-1.));
#975=DIRECTION('',(0.,-1.,0.));
#976=DIRECTION('',(0.,0.,-1.));
#977=DIRECTION('',(0.,-1.,0.));
#978=DIRECTION('',(0.,0.,-1.));
#979=DIRECTION('',(0.,-1.,0.));
#980=DIRECTION('',(0.,0.,-1.));
#981=DIRECTION('',(0.,1.,0.));
#982=DIRECTION('',(0.,0.,1.));
#983=DIRECTION('',(0.,1.,0.));
#984=DIRECTION('',(0.,0.,1.));
#985=DIRECTION('',(0.,-1.,0.));
#986=DIRECTION('',(0.,0.,-1.));
#987=DIRECTION('',(0.,1.,0.));
#988=DIRECTION('',(0.,0.,1.));
#989=DIRECTION('',(0.,1.,0.));
#990=DIRECTION('',(0.,0.,1.));
#991=DIRECTION('',(-1.,0.,-5.0948873363759E-16));
#992=DIRECTION('',(0.,1.,0.));
#993=DIRECTION('',(0.,0.,1.));
#994=DIRECTION('',(1.,0.,5.0948873363759E-16));
#995=DIRECTION('',(0.,1.,0.));
#996=DIRECTION('',(0.,0.,1.));
#997=DIRECTION('',(0.,-1.,0.));
#998=DIRECTION('',(0.,0.,-1.));
#999=DIRECTION('',(0.,1.,0.));
#1000=DIRECTION('',(0.,0.,1.));
#1001=DIRECTION('',(0.,-1.,0.));
#1002=DIRECTION('',(0.,-1.,0.));
#1003=DIRECTION('',(0.,-1.,0.));
#1004=DIRECTION('',(0.,0.,-1.));
#1005=DIRECTION('',(0.,1.,0.));
#1006=DIRECTION('',(0.,0.,1.));
#1007=DIRECTION('',(0.,-1.,0.));
#1008=DIRECTION('',(0.,-1.,0.));
#1009=DIRECTION('',(0.,-1.,0.));
#1010=DIRECTION('',(0.,0.,-1.));
#1011=DIRECTION('',(-1.,0.,0.));
#1012=DIRECTION('',(-1.17589875760342E-15,0.,1.));
#1013=DIRECTION('',(-1.,0.,8.8466580105708E-17));
#1014=DIRECTION('',(0.,1.,0.));
#1015=DIRECTION('',(0.,0.,-1.));
#1016=DIRECTION('',(1.,0.,5.30799480634248E-16));
#1017=DIRECTION('',(1.88143801216547E-15,0.,1.));
#1018=DIRECTION('',(1.,0.,0.));
#1019=DIRECTION('',(0.,0.,-1.));
#1020=DIRECTION('',(-1.,0.,0.));
#1021=DIRECTION('',(1.,0.,0.));
#1022=DIRECTION('',(0.,-1.,0.));
#1023=DIRECTION('',(1.,0.,0.));
#1024=DIRECTION('',(0.,-1.,0.));
#1025=DIRECTION('',(1.,0.,-1.88143801216547E-15));
#1026=DIRECTION('',(-1.88143801216547E-15,0.,-1.));
#1027=DIRECTION('',(1.88143801216547E-15,0.,1.));
#1028=DIRECTION('',(0.,-1.,0.));
#1029=DIRECTION('',(5.30799480634248E-16,0.,-1.));
#1030=DIRECTION('',(-1.,0.,-5.30799480634248E-16));
#1031=DIRECTION('',(1.,0.,5.30799480634248E-16));
#1032=DIRECTION('',(0.,-1.,0.));
#1033=DIRECTION('',(0.,-1.,0.));
#1034=DIRECTION('',(0.,0.,-1.));
#1035=DIRECTION('',(0.,1.,0.));
#1036=DIRECTION('',(0.,0.,-1.));
#1037=DIRECTION('',(0.,-1.,0.));
#1038=DIRECTION('',(8.8466580105708E-17,0.,1.));
#1039=DIRECTION('',(1.,0.,-8.8466580105708E-17));
#1040=DIRECTION('',(-1.,0.,8.8466580105708E-17));
#1041=DIRECTION('',(0.,-1.,0.));
#1042=DIRECTION('',(1.,0.,1.17589875760342E-15));
#1043=DIRECTION('',(1.17589875760342E-15,0.,-1.));
#1044=DIRECTION('',(-1.17589875760342E-15,0.,1.));
#1045=DIRECTION('',(0.,-1.,0.));
#1046=DIRECTION('',(0.,0.,1.));
#1047=DIRECTION('',(1.,0.,0.));
#1048=DIRECTION('',(-1.,0.,0.));
#1049=DIRECTION('',(-1.,0.,0.));
#1050=DIRECTION('',(0.,-1.,0.));
#1051=DIRECTION('',(-1.,0.,0.));
#1052=DIRECTION('',(0.,0.,1.));
#1053=DIRECTION('',(0.,0.,-1.));
#1054=DIRECTION('',(0.,0.,-1.));
#1055=DIRECTION('',(0.,-1.,0.));
#1056=DIRECTION('',(-8.84665801057081E-17,0.,1.));
#1057=DIRECTION('',(1.,0.,8.84665801057081E-17));
#1058=DIRECTION('',(-1.,0.,-8.84665801057081E-17));
#1059=DIRECTION('',(-1.,0.,-8.84665801057081E-17));
#1060=DIRECTION('',(0.,-1.,0.));
#1061=DIRECTION('',(0.,-1.,0.));
#1062=DIRECTION('',(0.,0.,-1.));
#1063=DIRECTION('',(0.,1.,0.));
#1064=DIRECTION('',(0.,0.,1.));
#1065=DIRECTION('',(0.,1.,0.));
#1066=DIRECTION('',(0.,0.,1.));
#1067=DIRECTION('',(0.,-1.,0.));
#1068=DIRECTION('',(1.76933160211416E-16,0.,-1.));
#1069=DIRECTION('',(-1.,0.,-1.76933160211416E-16));
#1070=DIRECTION('',(1.,0.,1.76933160211416E-16));
#1071=DIRECTION('',(1.,0.,1.76933160211416E-16));
#1072=DIRECTION('',(0.,-1.,0.));
#1073=DIRECTION('',(-1.,0.,0.));
#1074=DIRECTION('',(0.,0.,1.));
#1075=DIRECTION('',(0.,0.,-1.));
#1076=DIRECTION('',(0.,0.,-1.));
#1077=DIRECTION('',(0.,1.,0.));
#1078=DIRECTION('',(0.,0.,1.));
#1079=DIRECTION('',(0.,0.,1.));
#1080=DIRECTION('',(1.,0.,0.));
#1081=DIRECTION('',(0.,0.,-1.));
#1082=DIRECTION('',(-1.,0.,1.57727944206943E-16));
#1083=DIRECTION('',(1.57727944206943E-16,0.,1.));
#1084=DIRECTION('',(1.,0.,-1.57727944206943E-16));
#1085=DIRECTION('',(-1.,0.,1.57727944206943E-16));
#1086=DIRECTION('',(0.,-1.,0.));
#1087=DIRECTION('',(0.,-1.,0.));
#1088=DIRECTION('',(-1.,0.,0.));
#1089=DIRECTION('',(0.,0.,1.));
#1090=DIRECTION('',(0.,0.,-1.));
#1091=DIRECTION('',(0.,-1.,0.));
#1092=DIRECTION('',(0.,0.,-1.));
#1093=DIRECTION('',(-1.,0.,0.));
#1094=DIRECTION('',(1.,0.,0.));
#1095=DIRECTION('',(0.,-1.,0.));
#1096=DIRECTION('',(1.,0.,0.));
#1097=DIRECTION('',(0.,0.,-1.));
#1098=DIRECTION('',(0.,0.,1.));
#1099=DIRECTION('',(0.,1.,0.));
#1100=DIRECTION('',(0.,0.,1.));
#1101=DIRECTION('',(0.,1.,0.));
#1102=DIRECTION('',(0.,0.,-1.));
#1103=DIRECTION('',(0.,1.,0.));
#1104=DIRECTION('',(0.,0.,1.));
#1105=DIRECTION('',(0.,1.,0.));
#1106=DIRECTION('',(0.,0.,1.));
#1107=DIRECTION('',(0.,1.,0.));
#1108=DIRECTION('',(0.,0.,-1.));
#1109=DIRECTION('',(0.,1.,0.));
#1110=DIRECTION('',(0.,0.,1.));
#1111=DIRECTION('',(0.,1.,0.));
#1112=DIRECTION('',(0.,0.,1.));
#1113=DIRECTION('',(0.,1.,0.));
#1114=DIRECTION('',(0.,0.,1.));
#1115=DIRECTION('',(0.,1.,0.));
#1116=DIRECTION('',(0.,0.,1.));
#1117=DIRECTION('',(0.,1.,0.));
#1118=DIRECTION('',(0.,0.,1.));
#1119=DIRECTION('',(0.,1.,0.));
#1120=DIRECTION('',(0.,0.,1.));
#1121=DIRECTION('',(0.,1.,0.));
#1122=DIRECTION('',(0.,0.,1.));
#1123=DIRECTION('',(0.,1.,0.));
#1124=DIRECTION('',(0.,0.,1.));
#1125=DIRECTION('',(1.07047335174932E-16,0.,1.));
#1126=DIRECTION('',(-1.,0.,0.));
#1127=DIRECTION('',(-1.42729780233243E-16,0.,-1.));
#1128=DIRECTION('',(1.,0.,0.));
#1129=DIRECTION('',(0.,0.,1.));
#1130=DIRECTION('',(1.,0.,0.));
#1131=DIRECTION('',(0.,-1.,0.));
#1132=DIRECTION('',(-1.,0.,0.));
#1133=DIRECTION('',(0.,-1.,0.));
#1134=DIRECTION('',(-1.,0.,1.42729780233243E-16));
#1135=DIRECTION('',(1.42729780233243E-16,0.,1.));
#1136=DIRECTION('',(-1.42729780233243E-16,0.,-1.));
#1137=DIRECTION('',(0.,-1.,0.));
#1138=DIRECTION('',(0.,0.,-1.));
#1139=DIRECTION('',(-1.,0.,0.));
#1140=DIRECTION('',(1.,0.,0.));
#1141=DIRECTION('',(0.,-1.,0.));
#1142=DIRECTION('',(1.,0.,-1.07047335174932E-16));
#1143=DIRECTION('',(-1.07047335174932E-16,0.,-1.));
#1144=DIRECTION('',(1.07047335174932E-16,0.,1.));
#1145=DIRECTION('',(0.,1.,0.));
#1146=DIRECTION('',(0.,0.,1.));
#1147=DIRECTION('',(0.,-1.,0.));
#1148=DIRECTION('',(0.,0.,-1.));
#1149=CARTESIAN_POINT('',(0.,0.,0.));
#1150=CARTESIAN_POINT('',(0.0144309174757282,-0.0008168,0.00165953689320388));
#1151=CARTESIAN_POINT('',(0.0144309174757282,-0.0008168,0.00165953689320388));
#1152=CARTESIAN_POINT('',(0.0144309174757282,-0.0008168,9.743689320388E-5));
#1153=CARTESIAN_POINT('',(0.0144309174757282,-0.0010668,0.00165953689320388));
#1154=CARTESIAN_POINT('',(0.0144309174757282,-0.0010668,0.00034743689320388));
#1155=CARTESIAN_POINT('',(-0.00449208252427185,-0.0008168,0.00165953689320388));
#1156=CARTESIAN_POINT('',(-0.00449208252427185,-0.0010668,0.00165953689320388));
#1157=CARTESIAN_POINT('',(-0.00449208252427185,-0.0010668,0.00297163689320388));
#1158=CARTESIAN_POINT('',(-0.00449208252427185,-0.0008168,0.00165953689320388));
#1159=CARTESIAN_POINT('',(-0.00449208252427185,-0.0008168,0.00322163689320388));
#1160=CARTESIAN_POINT('',(-0.00449208252427185,-0.0010668,0.00165953689320388));
#1161=CARTESIAN_POINT('',(-0.00449208252427185,-0.0010668,0.00165953689320388));
#1162=CARTESIAN_POINT('',(-0.00449208252427185,0.,0.00165953689320388));
#1163=CARTESIAN_POINT('',(-0.00449208252427185,0.,0.00322163689320388));
#1164=CARTESIAN_POINT('',(0.0144309174757282,-0.0010668,0.00165953689320388));
#1165=CARTESIAN_POINT('',(0.0144309174757282,-0.0010668,0.00165953689320388));
#1166=CARTESIAN_POINT('',(0.0144309174757282,0.,0.00165953689320388));
#1167=CARTESIAN_POINT('',(0.0144309174757282,0.,0.00322163689320388));
#1168=CARTESIAN_POINT('',(0.00496941747572815,0.018923,0.00149443689320387));
#1169=CARTESIAN_POINT('',(0.00496941747572815,0.018923,0.00149443689320388));
#1170=CARTESIAN_POINT('',(0.00496941747572815,0.018923,0.00149443689320388));
#1171=CARTESIAN_POINT('',(0.00496941747572815,0.018923,0.00149443689320388));
#1172=CARTESIAN_POINT('',(0.00496941747572815,0.018923,0.00149443689320389));
#1173=CARTESIAN_POINT('',(0.00496941747572816,0.018923,0.00149443689320389));
#1174=CARTESIAN_POINT('',(0.00496941747572816,0.018923,0.00149443689320389));
#1175=CARTESIAN_POINT('',(0.00496941747572816,0.018923,0.00149443689320389));
#1176=CARTESIAN_POINT('',(0.00496941747572817,0.018923,0.00149443689320389));
#1177=CARTESIAN_POINT('',(0.00496941747572817,0.018923,0.00149443689320389));
#1178=CARTESIAN_POINT('',(0.00496941747572817,0.018923,0.00149443689320388));
#1179=CARTESIAN_POINT('',(0.00496941747572817,0.018923,0.00149443689320388));
#1180=CARTESIAN_POINT('',(0.00496941747572817,0.018923,0.00149443689320387));
#1181=CARTESIAN_POINT('',(0.00496941747572817,0.018923,0.00149443689320387));
#1182=CARTESIAN_POINT('',(0.00496941747572816,0.018923,0.00149443689320387));
#1183=CARTESIAN_POINT('',(0.00496941747572816,0.018923,0.00149443689320387));
#1184=CARTESIAN_POINT('',(0.00496941747572815,0.018923,0.00149443689320387));
#1185=CARTESIAN_POINT('',(0.00496941747572815,0.018923,0.00149443689320388));
#1186=CARTESIAN_POINT('',(0.00496941747572815,0.018923,0.00149443689320388));
#1187=CARTESIAN_POINT('',(0.00404937937315103,0.018923,0.00371560535834562));
#1188=CARTESIAN_POINT('',(0.00496941747572815,0.018923,0.00389861231540873));
#1189=CARTESIAN_POINT('',(0.0058894555783053,0.018923,0.00371560535834562));
#1190=CARTESIAN_POINT('',(0.00666942621993123,0.018923,0.00319444563740696));
#1191=CARTESIAN_POINT('',(0.00719058594086989,0.018923,0.00241447499578102));
#1192=CARTESIAN_POINT('',(0.007373592897933,0.018923,0.00149443689320388));
#1193=CARTESIAN_POINT('',(0.00719058594086989,0.018923,0.000574398790626742));
#1194=CARTESIAN_POINT('',(0.00666942621993124,0.018923,-0.000205571850999197));
#1195=CARTESIAN_POINT('',(0.0058894555783053,0.018923,-0.00072673157193786));
#1196=CARTESIAN_POINT('',(0.00496941747572816,0.018923,-0.000909738529000967));
#1197=CARTESIAN_POINT('',(0.00404937937315102,0.018923,-0.000726731571937858));
#1198=CARTESIAN_POINT('',(0.00326940873152507,0.018923,-0.000205571850999201));
#1199=CARTESIAN_POINT('',(0.00274824901058641,0.018923,0.00057439879062674));
#1200=CARTESIAN_POINT('',(0.00256524205352331,0.018923,0.00149443689320388));
#1201=CARTESIAN_POINT('',(0.00274824901058642,0.018923,0.00241447499578102));
#1202=CARTESIAN_POINT('',(0.00326940873152508,0.018923,0.00319444563740696));
#1203=CARTESIAN_POINT('',(0.00404937937315103,0.018923,0.00371560535834562));
#1204=CARTESIAN_POINT('',(0.00496941747572815,0.018923,0.00389861231540873));
#1205=CARTESIAN_POINT('',(0.0058894555783053,0.018923,0.00371560535834562));
#1206=CARTESIAN_POINT('',(0.00374057259380245,0.0184554078497865,0.00446113087320172));
#1207=CARTESIAN_POINT('',(0.00496941747572815,0.0184554078497865,0.00470556331780793));
#1208=CARTESIAN_POINT('',(0.00619826235765388,0.0184554078497864,0.00446113087320171));
#1209=CARTESIAN_POINT('',(0.00724002674581299,0.0184554078497865,0.00376504616328871));
#1210=CARTESIAN_POINT('',(0.00793611145572598,0.0184554078497865,0.0027232817751296));
#1211=CARTESIAN_POINT('',(0.00818054390033221,0.0184554078497865,0.00149443689320388));
#1212=CARTESIAN_POINT('',(0.00793611145572598,0.0184554078497865,0.000265592011278163));
#1213=CARTESIAN_POINT('',(0.007240026745813,0.0184554078497864,-0.000776172376880957));
#1214=CARTESIAN_POINT('',(0.00619826235765387,0.0184554078497865,-0.00147225708679395));
#1215=CARTESIAN_POINT('',(0.00496941747572816,0.0184554078497865,-0.00171668953140017));
#1216=CARTESIAN_POINT('',(0.00374057259380245,0.0184554078497865,-0.00147225708679395));
#1217=CARTESIAN_POINT('',(0.00269880820564332,0.0184554078497864,-0.000776172376880964));
#1218=CARTESIAN_POINT('',(0.00200272349573033,0.0184554078497865,0.000265592011278158));
#1219=CARTESIAN_POINT('',(0.00175829105112411,0.0184554078497864,0.00149443689320387));
#1220=CARTESIAN_POINT('',(0.00200272349573033,0.0184554078497865,0.0027232817751296));
#1221=CARTESIAN_POINT('',(0.00269880820564332,0.0184554078497865,0.00376504616328871));
#1222=CARTESIAN_POINT('',(0.00374057259380245,0.0184554078497865,0.00446113087320172));
#1223=CARTESIAN_POINT('',(0.00496941747572815,0.0184554078497865,0.00470556331780793));
#1224=CARTESIAN_POINT('',(0.00619826235765388,0.0184554078497864,0.00446113087320171));
#1225=CARTESIAN_POINT('',(0.00322555496956321,0.0176083949855684,0.0057044934065013));
#1226=CARTESIAN_POINT('',(0.00496941747572817,0.0176083949855683,0.00605136922598718));
#1227=CARTESIAN_POINT('',(0.00671327998189314,0.0176083949855684,0.00570449340650129));
#1228=CARTESIAN_POINT('',(0.00819165522964748,0.0176083949855684,0.00471667464712318));
#1229=CARTESIAN_POINT('',(0.00917947398902558,0.0176083949855684,0.00323829939936884));
#1230=CARTESIAN_POINT('',(0.00952634980851147,0.0176083949855684,0.00149443689320387));
#1231=CARTESIAN_POINT('',(0.00917947398902557,0.0176083949855684,-0.0002494256129611));
#1232=CARTESIAN_POINT('',(0.00819165522964747,0.0176083949855684,-0.00172780086071544));
#1233=CARTESIAN_POINT('',(0.00671327998189313,0.0176083949855684,-0.00271561962009353));
#1234=CARTESIAN_POINT('',(0.00496941747572815,0.0176083949855684,-0.00306249543957943));
#1235=CARTESIAN_POINT('',(0.00322555496956318,0.0176083949855684,-0.00271561962009353));
#1236=CARTESIAN_POINT('',(0.00174717972180885,0.0176083949855684,-0.00172780086071542));
#1237=CARTESIAN_POINT('',(0.000759360962430749,0.0176083949855684,-0.000249425612961085));
#1238=CARTESIAN_POINT('',(0.000412485142944854,0.0176083949855684,0.00149443689320389));
#1239=CARTESIAN_POINT('',(0.000759360962430756,0.0176083949855684,0.00323829939936886));
#1240=CARTESIAN_POINT('',(0.00174717972180886,0.0176083949855683,0.0047166746471232));
#1241=CARTESIAN_POINT('',(0.00322555496956321,0.0176083949855684,0.0057044934065013));
#1242=CARTESIAN_POINT('',(0.00496941747572817,0.0176083949855683,0.00605136922598718));
#1243=CARTESIAN_POINT('',(0.00671327998189314,0.0176083949855684,0.00570449340650129));
#1244=CARTESIAN_POINT('',(0.00496941747572816,0.018923,0.00149443689320388));
#1245=CARTESIAN_POINT('',(0.00496941747572816,0.0176083949855684,0.00149443689320388));
#1246=CARTESIAN_POINT('',(0.00496941747572816,0.0176083949855684,-0.00294687016641747));
#1247=CARTESIAN_POINT('',(0.00496941747572816,0.0176083949855684,0.00149443689320388));
#1248=CARTESIAN_POINT('',(0.00496941747572816,0.015875,0.00149443689320388));
#1249=CARTESIAN_POINT('',(0.00496941747572816,0.015875,-0.00549056310679612));
#1250=CARTESIAN_POINT('',(0.00496941747572816,0.012573,0.00149443689320388));
#1251=CARTESIAN_POINT('',(0.00496941747572816,0.012573,0.00149443689320388));
#1252=CARTESIAN_POINT('',(0.00496941747572816,0.012573,-0.00549056310679612));
#1253=CARTESIAN_POINT('',(0.00496941747572816,0.012573,-0.00549056310679612));
#1254=CARTESIAN_POINT('',(0.00496941747572816,0.012573,0.00149443689320388));
#1255=CARTESIAN_POINT('',(0.00496941747572816,0.012573,0.00759084548443698));
#1256=CARTESIAN_POINT('',(0.00496941747572816,0.012573,0.00149443689320388));
#1257=CARTESIAN_POINT('',(0.00496941747572816,0.008001,0.00149443689320388));
#1258=CARTESIAN_POINT('',(0.00496941747572816,0.008001,0.00759084548443698));
#1259=CARTESIAN_POINT('',(0.00496941747572816,0.008001,0.00149443689320388));
#1260=CARTESIAN_POINT('',(0.00496941747572816,0.008001,-0.00510956310679612));
#1261=CARTESIAN_POINT('',(0.00667183340904176,0.008001,-0.00510956310679612));
#1262=CARTESIAN_POINT('',(0.00326700154241456,0.008001,-0.00510956310679612));
#1263=CARTESIAN_POINT('',(0.00496941747572816,0.008001,0.00149443689320388));
#1264=CARTESIAN_POINT('',(0.00326700154241456,0.008001,0.00809843689320387));
#1265=CARTESIAN_POINT('',(0.00667183340904176,0.008001,0.00809843689320388));
#1266=CARTESIAN_POINT('',(0.00667183340904176,0.008001,0.00809843689320388));
#1267=CARTESIAN_POINT('',(0.00496941747572816,0.008001,0.00149443689320388));
#1268=CARTESIAN_POINT('',(0.00496941747572816,0.008001,0.00149443689320388));
#1269=CARTESIAN_POINT('',(0.00496941747572816,0.004191,0.00149443689320388));
#1270=CARTESIAN_POINT('',(0.00667183340904176,0.004191,0.00809843689320387));
#1271=CARTESIAN_POINT('',(0.00667183340904176,0.004191,-0.00510956310679612));
#1272=CARTESIAN_POINT('',(0.00667183340904176,0.008001,-0.00510956310679612));
#1273=CARTESIAN_POINT('',(0.00667183340904176,0.008001,0.00809843689320388));
#1274=CARTESIAN_POINT('',(0.00496941747572816,0.008001,0.00149443689320388));
#1275=CARTESIAN_POINT('',(0.00496941747572816,0.004191,0.00149443689320388));
#1276=CARTESIAN_POINT('',(0.00326700154241456,0.004191,-0.00510956310679612));
#1277=CARTESIAN_POINT('',(0.00326700154241456,0.004191,0.00809843689320387));
#1278=CARTESIAN_POINT('',(0.00326700154241456,0.008001,0.00809843689320387));
#1279=CARTESIAN_POINT('',(0.00326700154241456,0.008001,-0.00510956310679612));
#1280=CARTESIAN_POINT('',(-0.00408568252427185,0.004191,0.00149443689320387));
#1281=CARTESIAN_POINT('',(-0.00163458252427185,0.004191,-0.00510956310679612));
#1282=CARTESIAN_POINT('',(-0.00163458252427185,0.004191,-0.00510956310679612));
#1283=CARTESIAN_POINT('',(-0.00163458252427185,0.004191,-0.00510956310679612));
#1284=CARTESIAN_POINT('',(-0.00163458252427185,0.004191,-0.000499463106796129));
#1285=CARTESIAN_POINT('',(-0.00408568252427185,0.004191,-0.000499463106796128));
#1286=CARTESIAN_POINT('',(-0.00408568252427185,0.004191,-0.000499463106796128));
#1287=CARTESIAN_POINT('',(-0.00408568252427185,0.004191,0.00149443689320387));
#1288=CARTESIAN_POINT('',(-0.00408568252427185,0.004191,0.00348833689320387));
#1289=CARTESIAN_POINT('',(-0.00408568252427185,0.004191,0.00348833689320387));
#1290=CARTESIAN_POINT('',(-0.00163458252427185,0.004191,0.00348833689320388));
#1291=CARTESIAN_POINT('',(-0.00163458252427185,0.004191,0.00348833689320388));
#1292=CARTESIAN_POINT('',(-0.00163458252427184,0.004191,0.00809843689320388));
#1293=CARTESIAN_POINT('',(-0.00163458252427184,0.004191,0.00809843689320388));
#1294=CARTESIAN_POINT('',(-0.00163458252427184,0.004191,0.00809843689320388));
#1295=CARTESIAN_POINT('',(-0.00163458252427184,0.001016,0.00809843689320388));
#1296=CARTESIAN_POINT('',(-0.00163458252427184,0.001016,0.00809843689320388));
#1297=CARTESIAN_POINT('',(0.0115734174757282,0.001016,0.00809843689320388));
#1298=CARTESIAN_POINT('',(0.0115734174757282,0.004191,0.00809843689320388));
#1299=CARTESIAN_POINT('',(0.0115734174757282,0.004191,0.00809843689320388));
#1300=CARTESIAN_POINT('',(-0.00163458252427184,0.004191,0.00809843689320388));
#1301=CARTESIAN_POINT('',(-0.00163458252427184,0.004191,0.00809843689320388));
#1302=CARTESIAN_POINT('',(-0.00163458252427185,0.004191,0.00348833689320388));
#1303=CARTESIAN_POINT('',(-0.00163458252427185,0.001016,0.00348833689320388));
#1304=CARTESIAN_POINT('',(-0.00163458252427185,0.001016,0.00348833689320388));
#1305=CARTESIAN_POINT('',(-0.00163458252427185,0.004191,0.00348833689320388));
#1306=CARTESIAN_POINT('',(-0.00408568252427185,0.004191,0.00348833689320387));
#1307=CARTESIAN_POINT('',(-0.00408568252427185,0.001016,0.00348833689320387));
#1308=CARTESIAN_POINT('',(-0.00408568252427185,0.001016,0.00348833689320387));
#1309=CARTESIAN_POINT('',(-0.00408568252427185,0.004191,0.00348833689320387));
#1310=CARTESIAN_POINT('',(-0.00408568252427185,0.004191,0.00149443689320387));
#1311=CARTESIAN_POINT('',(-0.00408568252427185,0.001016,0.00149443689320387));
#1312=CARTESIAN_POINT('',(-0.00408568252427185,0.001016,-0.000499463106796128));
#1313=CARTESIAN_POINT('',(-0.00408568252427185,0.004191,-0.000499463106796128));
#1314=CARTESIAN_POINT('',(-0.00408568252427185,0.004191,-0.000499463106796128));
#1315=CARTESIAN_POINT('',(-0.00408568252427185,0.001016,-0.000499463106796128));
#1316=CARTESIAN_POINT('',(-0.00163458252427185,0.001016,-0.000499463106796129));
#1317=CARTESIAN_POINT('',(-0.00163458252427185,0.004191,-0.000499463106796129));
#1318=CARTESIAN_POINT('',(-0.00163458252427185,0.004191,-0.00510956310679612));
#1319=CARTESIAN_POINT('',(-0.00163458252427185,0.001016,-0.00510956310679612));
#1320=CARTESIAN_POINT('',(-0.00163458252427185,0.001016,-0.00510956310679612));
#1321=CARTESIAN_POINT('',(-0.00163458252427185,0.004191,-0.00510956310679612));
#1322=CARTESIAN_POINT('',(-0.00163458252427185,0.004191,-0.00510956310679612));
#1323=CARTESIAN_POINT('',(-0.00163458252427185,0.001016,-0.00510956310679612));
#1324=CARTESIAN_POINT('',(0.0115734174757282,0.001016,-0.00510956310679612));
#1325=CARTESIAN_POINT('',(-0.00163458252427185,0.004191,-0.00510956310679612));
#1326=CARTESIAN_POINT('',(0.0115734174757282,0.004191,-0.00510956310679612));
#1327=CARTESIAN_POINT('',(0.0115734174757282,0.004191,-0.00510956310679612));
#1328=CARTESIAN_POINT('',(0.0115734174757282,0.004191,-0.00510956310679612));
#1329=CARTESIAN_POINT('',(0.0115734174757282,0.001016,-0.00510956310679612));
#1330=CARTESIAN_POINT('',(0.0115734174757282,0.001016,-0.000499463106796125));
#1331=CARTESIAN_POINT('',(0.0115734174757282,0.004191,-0.00510956310679612));
#1332=CARTESIAN_POINT('',(0.0115734174757282,0.004191,-0.000499463106796125));
#1333=CARTESIAN_POINT('',(0.0115734174757282,0.004191,-0.000499463106796125));
#1334=CARTESIAN_POINT('',(0.0140245174757282,0.004191,-0.000499463106796125));
#1335=CARTESIAN_POINT('',(0.0140245174757282,0.001016,-0.000499463106796125));
#1336=CARTESIAN_POINT('',(0.0140245174757282,0.001016,-0.000499463106796125));
#1337=CARTESIAN_POINT('',(0.0140245174757282,0.004191,-0.000499463106796125));
#1338=CARTESIAN_POINT('',(0.0140245174757282,0.004191,-0.000499463106796125));
#1339=CARTESIAN_POINT('',(0.0140245174757282,0.004191,-0.000499463106796125));
#1340=CARTESIAN_POINT('',(0.0140245174757282,0.004191,0.00149443689320387));
#1341=CARTESIAN_POINT('',(0.0140245174757282,0.001016,0.00149443689320387));
#1342=CARTESIAN_POINT('',(0.0140245174757282,0.001016,0.00348833689320388));
#1343=CARTESIAN_POINT('',(0.0140245174757282,0.004191,0.00149443689320387));
#1344=CARTESIAN_POINT('',(0.0140245174757282,0.004191,0.00348833689320388));
#1345=CARTESIAN_POINT('',(0.0140245174757282,0.004191,0.00348833689320388));
#1346=CARTESIAN_POINT('',(0.0140245174757282,0.004191,0.00348833689320388));
#1347=CARTESIAN_POINT('',(0.0140245174757282,0.001016,0.00348833689320388));
#1348=CARTESIAN_POINT('',(0.0115734174757282,0.001016,0.00348833689320388));
#1349=CARTESIAN_POINT('',(0.0140245174757282,0.004191,0.00348833689320388));
#1350=CARTESIAN_POINT('',(0.0115734174757282,0.004191,0.00348833689320388));
#1351=CARTESIAN_POINT('',(0.0115734174757282,0.004191,0.00348833689320388));
#1352=CARTESIAN_POINT('',(0.0115734174757282,0.004191,0.00348833689320388));
#1353=CARTESIAN_POINT('',(0.0115734174757282,0.001016,0.00348833689320388));
#1354=CARTESIAN_POINT('',(0.0115734174757282,0.004191,0.00348833689320388));
#1355=CARTESIAN_POINT('',(0.,0.003429,0.));
#1356=CARTESIAN_POINT('',(-0.00602878252427185,0.003429,0.0167852368932039));
#1357=CARTESIAN_POINT('',(-0.00602878252427185,0.003429,0.0111972368932039));
#1358=CARTESIAN_POINT('',(-0.00602878252427185,0.003429,0.0167852368932039));
#1359=CARTESIAN_POINT('',(0.0159676174757282,0.003429,0.0167852368932039));
#1360=CARTESIAN_POINT('',(0.0159676174757282,0.003429,0.0167852368932039));
#1361=CARTESIAN_POINT('',(0.0159676174757282,0.003429,0.0167852368932039));
#1362=CARTESIAN_POINT('',(0.0159676174757282,0.003429,0.0111972368932039));
#1363=CARTESIAN_POINT('',(0.0159676174757282,0.003429,0.0111972368932039));
#1364=CARTESIAN_POINT('',(0.0159676174757282,0.003429,0.0111972368932039));
#1365=CARTESIAN_POINT('',(0.0159676174757282,0.001016,0.0111972368932039));
#1366=CARTESIAN_POINT('',(0.0159676174757282,0.001016,0.0111972368932039));
#1367=CARTESIAN_POINT('',(-0.00602878252427185,0.001016,0.0111972368932039));
#1368=CARTESIAN_POINT('',(-0.00602878252427185,0.003429,0.0111972368932039));
#1369=CARTESIAN_POINT('',(0.0159676174757282,0.003429,0.0111972368932039));
#1370=CARTESIAN_POINT('',(0.0159676174757282,0.003429,0.0167852368932039));
#1371=CARTESIAN_POINT('',(0.0159676174757282,0.001016,0.0167852368932039));
#1372=CARTESIAN_POINT('',(0.0159676174757282,0.001016,0.0167852368932039));
#1373=CARTESIAN_POINT('',(0.0159676174757282,0.003429,0.0167852368932039));
#1374=CARTESIAN_POINT('',(0.0159676174757282,0.003429,0.0167852368932039));
#1375=CARTESIAN_POINT('',(0.0159676174757282,0.001016,0.0167852368932039));
#1376=CARTESIAN_POINT('',(-0.00602878252427185,0.001016,0.0167852368932039));
#1377=CARTESIAN_POINT('',(-0.00602878252427185,0.003429,0.0167852368932039));
#1378=CARTESIAN_POINT('',(-0.00602878252427185,0.003429,0.0167852368932039));
#1379=CARTESIAN_POINT('',(-0.00602878252427185,0.001016,0.0167852368932039));
#1380=CARTESIAN_POINT('',(-0.00559698252427185,-0.008984,0.00850483689320388));
#1381=CARTESIAN_POINT('',(-0.00559698252427185,0.001016,0.00850483689320388));
#1382=CARTESIAN_POINT('',(-0.00559698252427185,0.001016,0.00748883689320388));
#1383=CARTESIAN_POINT('',(-0.00559698252427185,0.,0.00850483689320388));
#1384=CARTESIAN_POINT('',(-0.00559698252427185,0.,0.00952083689320388));
#1385=CARTESIAN_POINT('',(0.0155358174757281,-0.008984,-0.00488096310679612));
#1386=CARTESIAN_POINT('',(0.0155358174757281,0.001016,-0.00488096310679612));
#1387=CARTESIAN_POINT('',(0.0155358174757281,0.001016,-0.00589696310679612));
#1388=CARTESIAN_POINT('',(0.0155358174757281,0.,-0.00488096310679612));
#1389=CARTESIAN_POINT('',(0.0155358174757281,0.,-0.00386496310679612));
#1390=CARTESIAN_POINT('',(0.0155358174757281,-0.008984,0.00850483689320388));
#1391=CARTESIAN_POINT('',(0.0155358174757281,0.001016,0.00850483689320388));
#1392=CARTESIAN_POINT('',(0.0155358174757281,0.001016,0.00952083689320388));
#1393=CARTESIAN_POINT('',(0.0155358174757281,0.,0.00850483689320388));
#1394=CARTESIAN_POINT('',(0.0155358174757281,0.,0.00952083689320388));
#1395=CARTESIAN_POINT('',(-0.00559698252427185,-0.008984,-0.00488096310679612));
#1396=CARTESIAN_POINT('',(-0.00559698252427185,0.001016,-0.00488096310679612));
#1397=CARTESIAN_POINT('',(-0.00559698252427185,0.001016,-0.00386496310679612));
#1398=CARTESIAN_POINT('',(-0.00559698252427185,0.,-0.00488096310679612));
#1399=CARTESIAN_POINT('',(-0.00559698252427185,0.,-0.00386496310679612));
#1400=CARTESIAN_POINT('',(0.,0.,0.));
#1401=CARTESIAN_POINT('',(-0.00773058252427185,0.,-0.00701456310679612));
#1402=CARTESIAN_POINT('',(-0.00773058252427185,0.,-0.00701456310679612));
#1403=CARTESIAN_POINT('',(-0.00773058252427184,0.,0.0172932368932039));
#1404=CARTESIAN_POINT('',(-0.00773058252427185,0.,-0.00701456310679612));
#1405=CARTESIAN_POINT('',(0.0176694174757281,0.,-0.00701456310679612));
#1406=CARTESIAN_POINT('',(0.0176694174757281,0.,-0.00701456310679612));
#1407=CARTESIAN_POINT('',(0.0176694174757281,0.,0.0172932368932039));
#1408=CARTESIAN_POINT('',(-0.00773058252427184,0.,0.0172932368932039));
#1409=CARTESIAN_POINT('',(-0.00773058252427185,0.001016,-0.00701456310679612));
#1410=CARTESIAN_POINT('',(-0.00773058252427185,0.001016,-0.00701456310679612));
#1411=CARTESIAN_POINT('',(-0.00773058252427185,0.001016,-0.00701456310679612));
#1412=CARTESIAN_POINT('',(-0.00773058252427185,0.001016,-0.00701456310679612));
#1413=CARTESIAN_POINT('',(0.0176694174757281,0.001016,-0.00701456310679612));
#1414=CARTESIAN_POINT('',(0.0176694174757281,0.001016,-0.00701456310679612));
#1415=CARTESIAN_POINT('',(0.0176694174757281,0.001016,-0.00701456310679612));
#1416=CARTESIAN_POINT('',(0.0176694174757281,0.001016,-0.00701456310679612));
#1417=CARTESIAN_POINT('',(0.0176694174757281,0.001016,0.0172932368932039));
#1418=CARTESIAN_POINT('',(0.0176694174757281,0.001016,0.0172932368932039));
#1419=CARTESIAN_POINT('',(-0.00773058252427184,0.001016,0.0172932368932039));
#1420=CARTESIAN_POINT('',(-0.00773058252427184,0.001016,0.0172932368932039));
#1421=CARTESIAN_POINT('',(-0.00773058252427184,0.001016,0.0172932368932039));
#1422=CARTESIAN_POINT('',(-0.00773058252427184,0.001016,0.0172932368932039));
#1423=CARTESIAN_POINT('',(-0.00773058252427185,0.001016,-0.00701456310679612));
#1424=CARTESIAN_POINT('',(-0.00773058252427185,0.001016,-0.00701456310679612));
#1425=CARTESIAN_POINT('',(0.,0.001016,0.));
#1426=CARTESIAN_POINT('',(-0.00408568252427185,0.004191,0.00149443689320387));
#1427=MECHANICAL_DESIGN_GEOMETRIC_PRESENTATION_REPRESENTATION('',(#759,
#698,#699,#700,#701,#702,#703,#704,#705,#706,#707,#708,#709,#710,#711,#712,
#713,#714),#1428);
#1428=(
GEOMETRIC_REPRESENTATION_CONTEXT(3)
GLOBAL_UNCERTAINTY_ASSIGNED_CONTEXT((#1429))
GLOBAL_UNIT_ASSIGNED_CONTEXT((#1432,#1431,#1430))
REPRESENTATION_CONTEXT('camera_pi','TOP_LEVEL_ASSEMBLY_PART')
);
#1429=UNCERTAINTY_MEASURE_WITH_UNIT(LENGTH_MEASURE(5.E-6),#1432,
'DISTANCE_ACCURACY_VALUE','Maximum Tolerance applied to model');
#1430=(
NAMED_UNIT(*)
SI_UNIT($,.STERADIAN.)
SOLID_ANGLE_UNIT()
);
#1431=(
NAMED_UNIT(*)
PLANE_ANGLE_UNIT()
SI_UNIT($,.RADIAN.)
);
#1432=(
LENGTH_UNIT()
NAMED_UNIT(*)
SI_UNIT($,.METRE.)
);
#1433=PRODUCT_DEFINITION_SHAPE('','',#1434);
#1434=PRODUCT_DEFINITION('','',#1436,#1435);
#1435=PRODUCT_DEFINITION_CONTEXT('',#1442,'design');
#1436=PRODUCT_DEFINITION_FORMATION_WITH_SPECIFIED_SOURCE('','',#1438,
 .NOT_KNOWN.);
#1437=PRODUCT_RELATED_PRODUCT_CATEGORY('','',(#1438));
#1438=PRODUCT('camera_pi','camera_pi','camera_pi',(#1440));
#1439=PRODUCT_CATEGORY('','');
#1440=PRODUCT_CONTEXT('',#1442,'mechanical');
#1441=APPLICATION_PROTOCOL_DEFINITION('international standard',
'automotive_design',2010,#1442);
#1442=APPLICATION_CONTEXT(
'core data for automotive mechanical design processes');
ENDSEC;
END-ISO-10303-21;
