ISO-10303-21;
HEADER;
/* Generated by software containing ST-Developer
 * from STEP Tools, Inc. (www.steptools.com) 
 */
/* OPTION: using custom renumber hook */

FILE_DESCRIPTION(
/* description */ ('STEP AP214'),
/* implementation_level */ '2;1');

FILE_NAME(
/* name */ '654cf5737f9aa566be172153',
/* time_stamp */ '2023-11-09T15:06:28Z',
/* author */ (''),
/* organization */ (''),
/* preprocessor_version */ 'ST-DEVELOPER v19.4',
/* originating_system */ '  ',
/* authorisation */ '  ');

FILE_SCHEMA (('AUTOMOTIVE_DESIGN {1 0 10303 214 3 1 1}'));
ENDSEC;

DATA;
#10=PROPERTY_DEFINITION_REPRESENTATION(#14,#12);
#11=PROPERTY_DEFINITION_REPRESENTATION(#15,#13);
#12=REPRESENTATION('',(#16),#631);
#13=REPRESENTATION('',(#17),#631);
#14=PROPERTY_DEFINITION('pmi validation property','',#636);
#15=PROPERTY_DEFINITION('pmi validation property','',#636);
#16=VALUE_REPRESENTATION_ITEM('number of annotations',COUNT_MEASURE(0.));
#17=VALUE_REPRESENTATION_ITEM('number of views',COUNT_MEASURE(0.));
#18=SHAPE_REPRESENTATION_RELATIONSHIP('','',#387,#19);
#19=ADVANCED_BREP_SHAPE_REPRESENTATION('',(#385),#631);
#20=CYLINDRICAL_SURFACE('',#405,0.0015);
#21=CYLINDRICAL_SURFACE('',#406,0.003);
#22=CYLINDRICAL_SURFACE('',#407,0.0015);
#23=CYLINDRICAL_SURFACE('',#409,0.003);
#24=CYLINDRICAL_SURFACE('',#413,0.003);
#25=CYLINDRICAL_SURFACE('',#415,0.003);
#26=CYLINDRICAL_SURFACE('',#420,0.0015);
#27=LINE('',#530,#63);
#28=LINE('',#535,#64);
#29=LINE('',#538,#65);
#30=LINE('',#543,#66);
#31=LINE('',#547,#67);
#32=LINE('',#549,#68);
#33=LINE('',#551,#69);
#34=LINE('',#555,#70);
#35=LINE('',#559,#71);
#36=LINE('',#561,#72);
#37=LINE('',#565,#73);
#38=LINE('',#570,#74);
#39=LINE('',#573,#75);
#40=LINE('',#576,#76);
#41=LINE('',#578,#77);
#42=LINE('',#582,#78);
#43=LINE('',#586,#79);
#44=LINE('',#588,#80);
#45=LINE('',#590,#81);
#46=LINE('',#594,#82);
#47=LINE('',#599,#83);
#48=LINE('',#600,#84);
#49=LINE('',#602,#85);
#50=LINE('',#603,#86);
#51=LINE('',#605,#87);
#52=LINE('',#607,#88);
#53=LINE('',#609,#89);
#54=LINE('',#611,#90);
#55=LINE('',#613,#91);
#56=LINE('',#615,#92);
#57=LINE('',#617,#93);
#58=LINE('',#619,#94);
#59=LINE('',#621,#95);
#60=LINE('',#623,#96);
#61=LINE('',#626,#97);
#62=LINE('',#628,#98);
#63=VECTOR('',#428,1.);
#64=VECTOR('',#431,1.);
#65=VECTOR('',#434,1.);
#66=VECTOR('',#437,1.);
#67=VECTOR('',#440,1.);
#68=VECTOR('',#441,1.);
#69=VECTOR('',#442,1.);
#70=VECTOR('',#445,1.);
#71=VECTOR('',#448,1.);
#72=VECTOR('',#449,1.);
#73=VECTOR('',#454,1.);
#74=VECTOR('',#457,1.);
#75=VECTOR('',#460,1.);
#76=VECTOR('',#461,1.);
#77=VECTOR('',#462,1.);
#78=VECTOR('',#465,1.);
#79=VECTOR('',#468,1.);
#80=VECTOR('',#469,1.);
#81=VECTOR('',#470,1.);
#82=VECTOR('',#473,1.);
#83=VECTOR('',#480,1.);
#84=VECTOR('',#481,1.);
#85=VECTOR('',#484,1.);
#86=VECTOR('',#485,1.);
#87=VECTOR('',#488,1.);
#88=VECTOR('',#491,1.);
#89=VECTOR('',#494,1.);
#90=VECTOR('',#497,1.);
#91=VECTOR('',#500,1.);
#92=VECTOR('',#503,1.);
#93=VECTOR('',#506,1.);
#94=VECTOR('',#509,1.);
#95=VECTOR('',#512,1.);
#96=VECTOR('',#515,1.);
#97=VECTOR('',#520,1.);
#98=VECTOR('',#523,1.);
#99=ORIENTED_EDGE('',*,*,#199,.T.);
#100=ORIENTED_EDGE('',*,*,#200,.T.);
#101=ORIENTED_EDGE('',*,*,#201,.T.);
#102=ORIENTED_EDGE('',*,*,#202,.T.);
#103=ORIENTED_EDGE('',*,*,#203,.T.);
#104=ORIENTED_EDGE('',*,*,#204,.F.);
#105=ORIENTED_EDGE('',*,*,#205,.F.);
#106=ORIENTED_EDGE('',*,*,#206,.F.);
#107=ORIENTED_EDGE('',*,*,#207,.F.);
#108=ORIENTED_EDGE('',*,*,#208,.F.);
#109=ORIENTED_EDGE('',*,*,#209,.F.);
#110=ORIENTED_EDGE('',*,*,#210,.F.);
#111=ORIENTED_EDGE('',*,*,#211,.F.);
#112=ORIENTED_EDGE('',*,*,#212,.F.);
#113=ORIENTED_EDGE('',*,*,#213,.F.);
#114=ORIENTED_EDGE('',*,*,#214,.F.);
#115=ORIENTED_EDGE('',*,*,#215,.F.);
#116=ORIENTED_EDGE('',*,*,#216,.F.);
#117=ORIENTED_EDGE('',*,*,#217,.F.);
#118=ORIENTED_EDGE('',*,*,#218,.F.);
#119=ORIENTED_EDGE('',*,*,#219,.F.);
#120=ORIENTED_EDGE('',*,*,#220,.F.);
#121=ORIENTED_EDGE('',*,*,#221,.T.);
#122=ORIENTED_EDGE('',*,*,#222,.T.);
#123=ORIENTED_EDGE('',*,*,#223,.T.);
#124=ORIENTED_EDGE('',*,*,#224,.T.);
#125=ORIENTED_EDGE('',*,*,#225,.T.);
#126=ORIENTED_EDGE('',*,*,#226,.T.);
#127=ORIENTED_EDGE('',*,*,#227,.T.);
#128=ORIENTED_EDGE('',*,*,#228,.T.);
#129=ORIENTED_EDGE('',*,*,#229,.T.);
#130=ORIENTED_EDGE('',*,*,#230,.T.);
#131=ORIENTED_EDGE('',*,*,#231,.T.);
#132=ORIENTED_EDGE('',*,*,#232,.T.);
#133=ORIENTED_EDGE('',*,*,#199,.F.);
#134=ORIENTED_EDGE('',*,*,#216,.T.);
#135=ORIENTED_EDGE('',*,*,#205,.T.);
#136=ORIENTED_EDGE('',*,*,#233,.F.);
#137=ORIENTED_EDGE('',*,*,#232,.F.);
#138=ORIENTED_EDGE('',*,*,#234,.T.);
#139=ORIENTED_EDGE('',*,*,#201,.F.);
#140=ORIENTED_EDGE('',*,*,#235,.F.);
#141=ORIENTED_EDGE('',*,*,#220,.T.);
#142=ORIENTED_EDGE('',*,*,#236,.T.);
#143=ORIENTED_EDGE('',*,*,#206,.T.);
#144=ORIENTED_EDGE('',*,*,#234,.F.);
#145=ORIENTED_EDGE('',*,*,#231,.F.);
#146=ORIENTED_EDGE('',*,*,#237,.T.);
#147=ORIENTED_EDGE('',*,*,#207,.T.);
#148=ORIENTED_EDGE('',*,*,#237,.F.);
#149=ORIENTED_EDGE('',*,*,#230,.F.);
#150=ORIENTED_EDGE('',*,*,#238,.T.);
#151=ORIENTED_EDGE('',*,*,#208,.T.);
#152=ORIENTED_EDGE('',*,*,#238,.F.);
#153=ORIENTED_EDGE('',*,*,#229,.F.);
#154=ORIENTED_EDGE('',*,*,#239,.T.);
#155=ORIENTED_EDGE('',*,*,#209,.T.);
#156=ORIENTED_EDGE('',*,*,#239,.F.);
#157=ORIENTED_EDGE('',*,*,#228,.F.);
#158=ORIENTED_EDGE('',*,*,#240,.T.);
#159=ORIENTED_EDGE('',*,*,#210,.T.);
#160=ORIENTED_EDGE('',*,*,#240,.F.);
#161=ORIENTED_EDGE('',*,*,#227,.F.);
#162=ORIENTED_EDGE('',*,*,#241,.T.);
#163=ORIENTED_EDGE('',*,*,#211,.T.);
#164=ORIENTED_EDGE('',*,*,#241,.F.);
#165=ORIENTED_EDGE('',*,*,#226,.F.);
#166=ORIENTED_EDGE('',*,*,#242,.T.);
#167=ORIENTED_EDGE('',*,*,#212,.T.);
#168=ORIENTED_EDGE('',*,*,#242,.F.);
#169=ORIENTED_EDGE('',*,*,#225,.F.);
#170=ORIENTED_EDGE('',*,*,#243,.T.);
#171=ORIENTED_EDGE('',*,*,#213,.T.);
#172=ORIENTED_EDGE('',*,*,#243,.F.);
#173=ORIENTED_EDGE('',*,*,#224,.F.);
#174=ORIENTED_EDGE('',*,*,#244,.T.);
#175=ORIENTED_EDGE('',*,*,#214,.T.);
#176=ORIENTED_EDGE('',*,*,#244,.F.);
#177=ORIENTED_EDGE('',*,*,#223,.F.);
#178=ORIENTED_EDGE('',*,*,#245,.T.);
#179=ORIENTED_EDGE('',*,*,#215,.T.);
#180=ORIENTED_EDGE('',*,*,#245,.F.);
#181=ORIENTED_EDGE('',*,*,#222,.F.);
#182=ORIENTED_EDGE('',*,*,#246,.T.);
#183=ORIENTED_EDGE('',*,*,#204,.T.);
#184=ORIENTED_EDGE('',*,*,#246,.F.);
#185=ORIENTED_EDGE('',*,*,#221,.F.);
#186=ORIENTED_EDGE('',*,*,#233,.T.);
#187=ORIENTED_EDGE('',*,*,#202,.F.);
#188=ORIENTED_EDGE('',*,*,#236,.F.);
#189=ORIENTED_EDGE('',*,*,#219,.T.);
#190=ORIENTED_EDGE('',*,*,#247,.T.);
#191=ORIENTED_EDGE('',*,*,#203,.F.);
#192=ORIENTED_EDGE('',*,*,#247,.F.);
#193=ORIENTED_EDGE('',*,*,#218,.T.);
#194=ORIENTED_EDGE('',*,*,#248,.T.);
#195=ORIENTED_EDGE('',*,*,#200,.F.);
#196=ORIENTED_EDGE('',*,*,#248,.F.);
#197=ORIENTED_EDGE('',*,*,#217,.T.);
#198=ORIENTED_EDGE('',*,*,#235,.T.);
#199=EDGE_CURVE('',#249,#249,#283,.T.);
#200=EDGE_CURVE('',#250,#251,#27,.T.);
#201=EDGE_CURVE('',#251,#252,#284,.T.);
#202=EDGE_CURVE('',#252,#253,#28,.T.);
#203=EDGE_CURVE('',#253,#250,#285,.T.);
#204=EDGE_CURVE('',#254,#255,#29,.T.);
#205=EDGE_CURVE('',#256,#254,#286,.T.);
#206=EDGE_CURVE('',#257,#256,#30,.T.);
#207=EDGE_CURVE('',#258,#257,#287,.T.);
#208=EDGE_CURVE('',#259,#258,#31,.T.);
#209=EDGE_CURVE('',#260,#259,#32,.T.);
#210=EDGE_CURVE('',#261,#260,#33,.T.);
#211=EDGE_CURVE('',#262,#261,#288,.T.);
#212=EDGE_CURVE('',#263,#262,#34,.T.);
#213=EDGE_CURVE('',#264,#263,#289,.T.);
#214=EDGE_CURVE('',#265,#264,#35,.T.);
#215=EDGE_CURVE('',#255,#265,#36,.T.);
#216=EDGE_CURVE('',#266,#266,#290,.T.);
#217=EDGE_CURVE('',#267,#268,#37,.T.);
#218=EDGE_CURVE('',#269,#267,#291,.T.);
#219=EDGE_CURVE('',#270,#269,#38,.T.);
#220=EDGE_CURVE('',#268,#270,#292,.T.);
#221=EDGE_CURVE('',#271,#272,#39,.T.);
#222=EDGE_CURVE('',#272,#273,#40,.T.);
#223=EDGE_CURVE('',#273,#274,#41,.T.);
#224=EDGE_CURVE('',#274,#275,#293,.T.);
#225=EDGE_CURVE('',#275,#276,#42,.T.);
#226=EDGE_CURVE('',#276,#277,#294,.T.);
#227=EDGE_CURVE('',#277,#278,#43,.T.);
#228=EDGE_CURVE('',#278,#279,#44,.T.);
#229=EDGE_CURVE('',#279,#280,#45,.T.);
#230=EDGE_CURVE('',#280,#281,#295,.T.);
#231=EDGE_CURVE('',#281,#282,#46,.T.);
#232=EDGE_CURVE('',#282,#271,#296,.T.);
#233=EDGE_CURVE('',#271,#254,#47,.T.);
#234=EDGE_CURVE('',#282,#256,#48,.T.);
#235=EDGE_CURVE('',#268,#251,#49,.T.);
#236=EDGE_CURVE('',#270,#252,#50,.T.);
#237=EDGE_CURVE('',#281,#257,#51,.T.);
#238=EDGE_CURVE('',#280,#258,#52,.T.);
#239=EDGE_CURVE('',#279,#259,#53,.T.);
#240=EDGE_CURVE('',#278,#260,#54,.T.);
#241=EDGE_CURVE('',#277,#261,#55,.T.);
#242=EDGE_CURVE('',#276,#262,#56,.T.);
#243=EDGE_CURVE('',#275,#263,#57,.T.);
#244=EDGE_CURVE('',#274,#264,#58,.T.);
#245=EDGE_CURVE('',#273,#265,#59,.T.);
#246=EDGE_CURVE('',#272,#255,#60,.T.);
#247=EDGE_CURVE('',#269,#253,#61,.T.);
#248=EDGE_CURVE('',#267,#250,#62,.T.);
#249=VERTEX_POINT('',#529);
#250=VERTEX_POINT('',#531);
#251=VERTEX_POINT('',#532);
#252=VERTEX_POINT('',#534);
#253=VERTEX_POINT('',#536);
#254=VERTEX_POINT('',#539);
#255=VERTEX_POINT('',#540);
#256=VERTEX_POINT('',#542);
#257=VERTEX_POINT('',#544);
#258=VERTEX_POINT('',#546);
#259=VERTEX_POINT('',#548);
#260=VERTEX_POINT('',#550);
#261=VERTEX_POINT('',#552);
#262=VERTEX_POINT('',#554);
#263=VERTEX_POINT('',#556);
#264=VERTEX_POINT('',#558);
#265=VERTEX_POINT('',#560);
#266=VERTEX_POINT('',#564);
#267=VERTEX_POINT('',#566);
#268=VERTEX_POINT('',#567);
#269=VERTEX_POINT('',#569);
#270=VERTEX_POINT('',#571);
#271=VERTEX_POINT('',#574);
#272=VERTEX_POINT('',#575);
#273=VERTEX_POINT('',#577);
#274=VERTEX_POINT('',#579);
#275=VERTEX_POINT('',#581);
#276=VERTEX_POINT('',#583);
#277=VERTEX_POINT('',#585);
#278=VERTEX_POINT('',#587);
#279=VERTEX_POINT('',#589);
#280=VERTEX_POINT('',#591);
#281=VERTEX_POINT('',#593);
#282=VERTEX_POINT('',#595);
#283=CIRCLE('',#390,0.0015);
#284=CIRCLE('',#391,0.0015);
#285=CIRCLE('',#392,0.0015);
#286=CIRCLE('',#393,0.003);
#287=CIRCLE('',#394,0.003);
#288=CIRCLE('',#395,0.003);
#289=CIRCLE('',#396,0.003);
#290=CIRCLE('',#398,0.0015);
#291=CIRCLE('',#399,0.0015);
#292=CIRCLE('',#400,0.0015);
#293=CIRCLE('',#401,0.003);
#294=CIRCLE('',#402,0.003);
#295=CIRCLE('',#403,0.003);
#296=CIRCLE('',#404,0.003);
#297=EDGE_LOOP('',(#99));
#298=EDGE_LOOP('',(#100,#101,#102,#103));
#299=EDGE_LOOP('',(#104,#105,#106,#107,#108,#109,#110,#111,#112,#113,#114,
#115));
#300=EDGE_LOOP('',(#116));
#301=EDGE_LOOP('',(#117,#118,#119,#120));
#302=EDGE_LOOP('',(#121,#122,#123,#124,#125,#126,#127,#128,#129,#130,#131,
#132));
#303=EDGE_LOOP('',(#133));
#304=EDGE_LOOP('',(#134));
#305=EDGE_LOOP('',(#135,#136,#137,#138));
#306=EDGE_LOOP('',(#139,#140,#141,#142));
#307=EDGE_LOOP('',(#143,#144,#145,#146));
#308=EDGE_LOOP('',(#147,#148,#149,#150));
#309=EDGE_LOOP('',(#151,#152,#153,#154));
#310=EDGE_LOOP('',(#155,#156,#157,#158));
#311=EDGE_LOOP('',(#159,#160,#161,#162));
#312=EDGE_LOOP('',(#163,#164,#165,#166));
#313=EDGE_LOOP('',(#167,#168,#169,#170));
#314=EDGE_LOOP('',(#171,#172,#173,#174));
#315=EDGE_LOOP('',(#175,#176,#177,#178));
#316=EDGE_LOOP('',(#179,#180,#181,#182));
#317=EDGE_LOOP('',(#183,#184,#185,#186));
#318=EDGE_LOOP('',(#187,#188,#189,#190));
#319=EDGE_LOOP('',(#191,#192,#193,#194));
#320=EDGE_LOOP('',(#195,#196,#197,#198));
#321=FACE_BOUND('',#297,.T.);
#322=FACE_BOUND('',#298,.T.);
#323=FACE_BOUND('',#299,.T.);
#324=FACE_BOUND('',#300,.T.);
#325=FACE_BOUND('',#301,.T.);
#326=FACE_BOUND('',#302,.T.);
#327=FACE_BOUND('',#303,.T.);
#328=FACE_BOUND('',#304,.T.);
#329=FACE_BOUND('',#305,.T.);
#330=FACE_BOUND('',#306,.T.);
#331=FACE_BOUND('',#307,.T.);
#332=FACE_BOUND('',#308,.T.);
#333=FACE_BOUND('',#309,.T.);
#334=FACE_BOUND('',#310,.T.);
#335=FACE_BOUND('',#311,.T.);
#336=FACE_BOUND('',#312,.T.);
#337=FACE_BOUND('',#313,.T.);
#338=FACE_BOUND('',#314,.T.);
#339=FACE_BOUND('',#315,.T.);
#340=FACE_BOUND('',#316,.T.);
#341=FACE_BOUND('',#317,.T.);
#342=FACE_BOUND('',#318,.T.);
#343=FACE_BOUND('',#319,.T.);
#344=FACE_BOUND('',#320,.T.);
#345=PLANE('',#389);
#346=PLANE('',#397);
#347=PLANE('',#408);
#348=PLANE('',#410);
#349=PLANE('',#411);
#350=PLANE('',#412);
#351=PLANE('',#414);
#352=PLANE('',#416);
#353=PLANE('',#417);
#354=PLANE('',#418);
#355=PLANE('',#419);
#356=PLANE('',#421);
#357=ADVANCED_FACE('',(#321,#322,#323),#345,.F.);
#358=ADVANCED_FACE('',(#324,#325,#326),#346,.T.);
#359=ADVANCED_FACE('',(#327,#328),#20,.F.);
#360=ADVANCED_FACE('',(#329),#21,.T.);
#361=ADVANCED_FACE('',(#330),#22,.F.);
#362=ADVANCED_FACE('',(#331),#347,.F.);
#363=ADVANCED_FACE('',(#332),#23,.T.);
#364=ADVANCED_FACE('',(#333),#348,.F.);
#365=ADVANCED_FACE('',(#334),#349,.F.);
#366=ADVANCED_FACE('',(#335),#350,.F.);
#367=ADVANCED_FACE('',(#336),#24,.T.);
#368=ADVANCED_FACE('',(#337),#351,.F.);
#369=ADVANCED_FACE('',(#338),#25,.T.);
#370=ADVANCED_FACE('',(#339),#352,.F.);
#371=ADVANCED_FACE('',(#340),#353,.F.);
#372=ADVANCED_FACE('',(#341),#354,.F.);
#373=ADVANCED_FACE('',(#342),#355,.T.);
#374=ADVANCED_FACE('',(#343),#26,.F.);
#375=ADVANCED_FACE('',(#344),#356,.T.);
#376=CLOSED_SHELL('',(#357,#358,#359,#360,#361,#362,#363,#364,#365,#366,
#367,#368,#369,#370,#371,#372,#373,#374,#375));
#377=STYLED_ITEM('',(#378),#385);
#378=PRESENTATION_STYLE_ASSIGNMENT((#379));
#379=SURFACE_STYLE_USAGE(.BOTH.,#380);
#380=SURFACE_SIDE_STYLE('',(#381));
#381=SURFACE_STYLE_FILL_AREA(#382);
#382=FILL_AREA_STYLE('',(#383));
#383=FILL_AREA_STYLE_COLOUR('',#384);
#384=COLOUR_RGB('',0.8,0.2,0.2);
#385=MANIFOLD_SOLID_BREP('dc_motor_mounting_DB18',#376);
#386=SHAPE_DEFINITION_REPRESENTATION(#636,#387);
#387=SHAPE_REPRESENTATION('dc_motor_mounting_DB18',(#388),#631);
#388=AXIS2_PLACEMENT_3D('',#526,#422,#423);
#389=AXIS2_PLACEMENT_3D('',#527,#424,#425);
#390=AXIS2_PLACEMENT_3D('',#528,#426,#427);
#391=AXIS2_PLACEMENT_3D('',#533,#429,#430);
#392=AXIS2_PLACEMENT_3D('',#537,#432,#433);
#393=AXIS2_PLACEMENT_3D('',#541,#435,#436);
#394=AXIS2_PLACEMENT_3D('',#545,#438,#439);
#395=AXIS2_PLACEMENT_3D('',#553,#443,#444);
#396=AXIS2_PLACEMENT_3D('',#557,#446,#447);
#397=AXIS2_PLACEMENT_3D('',#562,#450,#451);
#398=AXIS2_PLACEMENT_3D('',#563,#452,#453);
#399=AXIS2_PLACEMENT_3D('',#568,#455,#456);
#400=AXIS2_PLACEMENT_3D('',#572,#458,#459);
#401=AXIS2_PLACEMENT_3D('',#580,#463,#464);
#402=AXIS2_PLACEMENT_3D('',#584,#466,#467);
#403=AXIS2_PLACEMENT_3D('',#592,#471,#472);
#404=AXIS2_PLACEMENT_3D('',#596,#474,#475);
#405=AXIS2_PLACEMENT_3D('',#597,#476,#477);
#406=AXIS2_PLACEMENT_3D('',#598,#478,#479);
#407=AXIS2_PLACEMENT_3D('',#601,#482,#483);
#408=AXIS2_PLACEMENT_3D('',#604,#486,#487);
#409=AXIS2_PLACEMENT_3D('',#606,#489,#490);
#410=AXIS2_PLACEMENT_3D('',#608,#492,#493);
#411=AXIS2_PLACEMENT_3D('',#610,#495,#496);
#412=AXIS2_PLACEMENT_3D('',#612,#498,#499);
#413=AXIS2_PLACEMENT_3D('',#614,#501,#502);
#414=AXIS2_PLACEMENT_3D('',#616,#504,#505);
#415=AXIS2_PLACEMENT_3D('',#618,#507,#508);
#416=AXIS2_PLACEMENT_3D('',#620,#510,#511);
#417=AXIS2_PLACEMENT_3D('',#622,#513,#514);
#418=AXIS2_PLACEMENT_3D('',#624,#516,#517);
#419=AXIS2_PLACEMENT_3D('',#625,#518,#519);
#420=AXIS2_PLACEMENT_3D('',#627,#521,#522);
#421=AXIS2_PLACEMENT_3D('',#629,#524,#525);
#422=DIRECTION('',(0.,0.,1.));
#423=DIRECTION('',(1.,0.,0.));
#424=DIRECTION('',(0.,0.,1.));
#425=DIRECTION('',(1.,0.,0.));
#426=DIRECTION('',(0.,0.,1.));
#427=DIRECTION('',(1.,0.,0.));
#428=DIRECTION('',(0.,-1.,0.));
#429=DIRECTION('',(0.,0.,1.));
#430=DIRECTION('',(1.,0.,0.));
#431=DIRECTION('',(0.,1.,0.));
#432=DIRECTION('',(0.,0.,1.));
#433=DIRECTION('',(1.,0.,0.));
#434=DIRECTION('',(0.,-1.,0.));
#435=DIRECTION('',(0.,0.,1.));
#436=DIRECTION('',(1.,0.,0.));
#437=DIRECTION('',(-1.,0.,0.));
#438=DIRECTION('',(0.,0.,1.));
#439=DIRECTION('',(1.,0.,0.));
#440=DIRECTION('',(0.,1.,0.));
#441=DIRECTION('',(1.,0.,0.));
#442=DIRECTION('',(0.,1.,0.));
#443=DIRECTION('',(0.,0.,1.));
#444=DIRECTION('',(1.,0.,0.));
#445=DIRECTION('',(1.,0.,0.));
#446=DIRECTION('',(0.,0.,1.));
#447=DIRECTION('',(1.,0.,0.));
#448=DIRECTION('',(0.,-1.,0.));
#449=DIRECTION('',(1.,0.,0.));
#450=DIRECTION('',(0.,0.,1.));
#451=DIRECTION('',(1.,0.,0.));
#452=DIRECTION('',(0.,0.,1.));
#453=DIRECTION('',(1.,0.,0.));
#454=DIRECTION('',(0.,-1.,0.));
#455=DIRECTION('',(0.,0.,1.));
#456=DIRECTION('',(1.,0.,0.));
#457=DIRECTION('',(0.,1.,0.));
#458=DIRECTION('',(0.,0.,1.));
#459=DIRECTION('',(1.,0.,0.));
#460=DIRECTION('',(0.,-1.,0.));
#461=DIRECTION('',(1.,0.,0.));
#462=DIRECTION('',(0.,-1.,0.));
#463=DIRECTION('',(0.,0.,1.));
#464=DIRECTION('',(1.,0.,0.));
#465=DIRECTION('',(1.,0.,0.));
#466=DIRECTION('',(0.,0.,1.));
#467=DIRECTION('',(1.,0.,0.));
#468=DIRECTION('',(0.,1.,0.));
#469=DIRECTION('',(1.,0.,0.));
#470=DIRECTION('',(0.,1.,0.));
#471=DIRECTION('',(0.,0.,1.));
#472=DIRECTION('',(1.,0.,0.));
#473=DIRECTION('',(-1.,0.,0.));
#474=DIRECTION('',(0.,0.,1.));
#475=DIRECTION('',(1.,0.,0.));
#476=DIRECTION('',(0.,0.,-1.));
#477=DIRECTION('',(-1.,0.,0.));
#478=DIRECTION('',(0.,0.,-1.));
#479=DIRECTION('',(-1.,0.,0.));
#480=DIRECTION('',(0.,0.,-1.));
#481=DIRECTION('',(0.,0.,-1.));
#482=DIRECTION('',(0.,0.,-1.));
#483=DIRECTION('',(-1.,0.,0.));
#484=DIRECTION('',(0.,0.,-1.));
#485=DIRECTION('',(0.,0.,-1.));
#486=DIRECTION('',(0.,-1.,0.));
#487=DIRECTION('',(0.,0.,-1.));
#488=DIRECTION('',(0.,0.,-1.));
#489=DIRECTION('',(0.,0.,-1.));
#490=DIRECTION('',(-1.,0.,0.));
#491=DIRECTION('',(0.,0.,-1.));
#492=DIRECTION('',(-1.,0.,0.));
#493=DIRECTION('',(0.,0.,1.));
#494=DIRECTION('',(0.,0.,-1.));
#495=DIRECTION('',(0.,1.,0.));
#496=DIRECTION('',(0.,0.,1.));
#497=DIRECTION('',(0.,0.,-1.));
#498=DIRECTION('',(-1.,0.,0.));
#499=DIRECTION('',(0.,0.,1.));
#500=DIRECTION('',(0.,0.,-1.));
#501=DIRECTION('',(0.,0.,-1.));
#502=DIRECTION('',(-1.,0.,0.));
#503=DIRECTION('',(0.,0.,-1.));
#504=DIRECTION('',(0.,1.,0.));
#505=DIRECTION('',(0.,0.,1.));
#506=DIRECTION('',(0.,0.,-1.));
#507=DIRECTION('',(0.,0.,-1.));
#508=DIRECTION('',(-1.,0.,0.));
#509=DIRECTION('',(0.,0.,-1.));
#510=DIRECTION('',(1.,0.,0.));
#511=DIRECTION('',(0.,0.,-1.));
#512=DIRECTION('',(0.,0.,-1.));
#513=DIRECTION('',(0.,1.,0.));
#514=DIRECTION('',(0.,0.,1.));
#515=DIRECTION('',(0.,0.,-1.));
#516=DIRECTION('',(1.,0.,0.));
#517=DIRECTION('',(0.,0.,-1.));
#518=DIRECTION('',(-1.,0.,0.));
#519=DIRECTION('',(0.,0.,1.));
#520=DIRECTION('',(0.,0.,-1.));
#521=DIRECTION('',(0.,0.,-1.));
#522=DIRECTION('',(-1.,0.,0.));
#523=DIRECTION('',(0.,0.,-1.));
#524=DIRECTION('',(1.,0.,0.));
#525=DIRECTION('',(0.,0.,-1.));
#526=CARTESIAN_POINT('',(0.,0.,0.));
#527=CARTESIAN_POINT('',(0.132999924780536,0.135767419667034,0.));
#528=CARTESIAN_POINT('',(0.135899924780536,0.138267419667034,0.));
#529=CARTESIAN_POINT('',(0.137399924780536,0.138267419667034,0.));
#530=CARTESIAN_POINT('',(0.134399924767497,0.156467419468848,0.));
#531=CARTESIAN_POINT('',(0.134399924773775,0.156467419468848,0.));
#532=CARTESIAN_POINT('',(0.134399924773775,0.154467420072345,0.));
#533=CARTESIAN_POINT('',(0.135899924780536,0.154467419667034,0.));
#534=CARTESIAN_POINT('',(0.137399924786814,0.154467419667034,0.));
#535=CARTESIAN_POINT('',(0.137399924793574,0.154467420072345,0.));
#536=CARTESIAN_POINT('',(0.137399924787296,0.156467419468848,0.));
#537=CARTESIAN_POINT('',(0.135899924780536,0.156467419667034,0.));
#538=CARTESIAN_POINT('',(0.127899924400556,0.163767419640957,0.));
#539=CARTESIAN_POINT('',(0.127899924590285,0.163767419640957,0.));
#540=CARTESIAN_POINT('',(0.127899924400556,0.16076741961488,0.));
#541=CARTESIAN_POINT('',(0.130899924780536,0.163767419667034,0.));
#542=CARTESIAN_POINT('',(0.130899924961268,0.166767419689072,0.));
#543=CARTESIAN_POINT('',(0.135749924961268,0.166767419710572,0.));
#544=CARTESIAN_POINT('',(0.140899924780536,0.166767419688534,0.));
#545=CARTESIAN_POINT('',(0.140899924780536,0.163767419667034,0.));
#546=CARTESIAN_POINT('',(0.143899924970786,0.163767419640957,0.));
#547=CARTESIAN_POINT('',(0.143899925160515,0.16076741961488,0.));
#548=CARTESIAN_POINT('',(0.143899925160515,0.16076741961488,0.));
#549=CARTESIAN_POINT('',(0.141799925002563,0.16076741961488,0.));
#550=CARTESIAN_POINT('',(0.141799925002563,0.16076741961488,0.));
#551=CARTESIAN_POINT('',(0.141799925002563,0.135767420173673,0.));
#552=CARTESIAN_POINT('',(0.141799924891093,0.135767419667034,0.));
#553=CARTESIAN_POINT('',(0.138799924780536,0.135767419667034,0.));
#554=CARTESIAN_POINT('',(0.138799924646101,0.132767419640988,0.));
#555=CARTESIAN_POINT('',(0.136049924646101,0.132767419615577,0.));
#556=CARTESIAN_POINT('',(0.132999924780536,0.132767419641623,0.));
#557=CARTESIAN_POINT('',(0.132999924780536,0.135767419667034,0.));
#558=CARTESIAN_POINT('',(0.129999924669065,0.135767420173673,0.));
#559=CARTESIAN_POINT('',(0.129999924558508,0.16076741961488,0.));
#560=CARTESIAN_POINT('',(0.129999924558508,0.16076741961488,0.));
#561=CARTESIAN_POINT('',(0.127899924400556,0.16076741961488,0.));
#562=CARTESIAN_POINT('',(0.132999924780536,0.135767419667034,0.003));
#563=CARTESIAN_POINT('',(0.135899924780536,0.138267419667034,0.003));
#564=CARTESIAN_POINT('',(0.137399924780536,0.138267419667034,0.003));
#565=CARTESIAN_POINT('',(0.134399924767497,0.156467419468848,0.003));
#566=CARTESIAN_POINT('',(0.134399924773775,0.156467419468848,0.003));
#567=CARTESIAN_POINT('',(0.134399924773775,0.154467420072345,0.003));
#568=CARTESIAN_POINT('',(0.135899924780536,0.156467419667034,0.003));
#569=CARTESIAN_POINT('',(0.137399924787296,0.156467419468848,0.003));
#570=CARTESIAN_POINT('',(0.137399924793574,0.154467420072345,0.003));
#571=CARTESIAN_POINT('',(0.137399924786814,0.154467419667034,0.003));
#572=CARTESIAN_POINT('',(0.135899924780536,0.154467419667034,0.003));
#573=CARTESIAN_POINT('',(0.127899924400556,0.163767419640957,0.003));
#574=CARTESIAN_POINT('',(0.127899924590285,0.163767419640957,0.003));
#575=CARTESIAN_POINT('',(0.127899924400556,0.16076741961488,0.003));
#576=CARTESIAN_POINT('',(0.127899924400556,0.16076741961488,0.003));
#577=CARTESIAN_POINT('',(0.129999924558508,0.16076741961488,0.003));
#578=CARTESIAN_POINT('',(0.129999924558508,0.16076741961488,0.003));
#579=CARTESIAN_POINT('',(0.129999924669065,0.135767420173673,0.003));
#580=CARTESIAN_POINT('',(0.132999924780536,0.135767419667034,0.003));
#581=CARTESIAN_POINT('',(0.132999924780536,0.132767419641623,0.003));
#582=CARTESIAN_POINT('',(0.132999924646101,0.132767419615577,0.003));
#583=CARTESIAN_POINT('',(0.138799924646101,0.132767419640988,0.003));
#584=CARTESIAN_POINT('',(0.138799924780536,0.135767419667034,0.003));
#585=CARTESIAN_POINT('',(0.141799924891093,0.135767419667034,0.003));
#586=CARTESIAN_POINT('',(0.141799925002563,0.135767420173673,0.003));
#587=CARTESIAN_POINT('',(0.141799925002563,0.16076741961488,0.003));
#588=CARTESIAN_POINT('',(0.141799925002563,0.16076741961488,0.003));
#589=CARTESIAN_POINT('',(0.143899925160515,0.16076741961488,0.003));
#590=CARTESIAN_POINT('',(0.143899925160515,0.16076741961488,0.003));
#591=CARTESIAN_POINT('',(0.143899924970786,0.163767419640957,0.003));
#592=CARTESIAN_POINT('',(0.140899924780536,0.163767419667034,0.003));
#593=CARTESIAN_POINT('',(0.140899924780536,0.166767419688534,0.003));
#594=CARTESIAN_POINT('',(0.140899924961268,0.166767419710572,0.003));
#595=CARTESIAN_POINT('',(0.130899924961268,0.166767419689072,0.003));
#596=CARTESIAN_POINT('',(0.130899924780536,0.163767419667034,0.003));
#597=CARTESIAN_POINT('',(0.135899924780536,0.138267419667034,0.003));
#598=CARTESIAN_POINT('',(0.130899924780536,0.163767419667034,0.003));
#599=CARTESIAN_POINT('',(0.127899924400556,0.163767419640957,0.003));
#600=CARTESIAN_POINT('',(0.130899924961268,0.166767419710572,0.003));
#601=CARTESIAN_POINT('',(0.135899924780536,0.154467419667034,0.003));
#602=CARTESIAN_POINT('',(0.134399924767497,0.154467420072345,0.003));
#603=CARTESIAN_POINT('',(0.137399924780536,0.154467419667034,0.003));
#604=CARTESIAN_POINT('',(0.135749924961268,0.166767419710572,0.003));
#605=CARTESIAN_POINT('',(0.140899924780536,0.166767419667034,0.003));
#606=CARTESIAN_POINT('',(0.140899924780536,0.163767419667034,0.003));
#607=CARTESIAN_POINT('',(0.143899925160515,0.163767419640957,0.003));
#608=CARTESIAN_POINT('',(0.143899925160515,0.16076741961488,0.003));
#609=CARTESIAN_POINT('',(0.143899925160515,0.16076741961488,0.003));
#610=CARTESIAN_POINT('',(0.141799925002563,0.16076741961488,0.003));
#611=CARTESIAN_POINT('',(0.141799925002563,0.16076741961488,0.003));
#612=CARTESIAN_POINT('',(0.141799925002563,0.135767420173673,0.003));
#613=CARTESIAN_POINT('',(0.141799924780536,0.135767419667034,0.003));
#614=CARTESIAN_POINT('',(0.138799924780536,0.135767419667034,0.003));
#615=CARTESIAN_POINT('',(0.138799924646101,0.132767419615577,0.003));
#616=CARTESIAN_POINT('',(0.136049924646101,0.132767419615577,0.003));
#617=CARTESIAN_POINT('',(0.132999924780536,0.132767419667034,0.003));
#618=CARTESIAN_POINT('',(0.132999924780536,0.135767419667034,0.003));
#619=CARTESIAN_POINT('',(0.129999924558508,0.135767420173673,0.003));
#620=CARTESIAN_POINT('',(0.129999924558508,0.16076741961488,0.003));
#621=CARTESIAN_POINT('',(0.129999924558508,0.16076741961488,0.003));
#622=CARTESIAN_POINT('',(0.127899924400556,0.16076741961488,0.003));
#623=CARTESIAN_POINT('',(0.127899924400556,0.16076741961488,0.003));
#624=CARTESIAN_POINT('',(0.127899924400556,0.163767419640957,0.003));
#625=CARTESIAN_POINT('',(0.137399924793574,0.154467420072345,0.003));
#626=CARTESIAN_POINT('',(0.137399924793574,0.156467419468848,0.003));
#627=CARTESIAN_POINT('',(0.135899924780536,0.156467419667034,0.003));
#628=CARTESIAN_POINT('',(0.134399924767497,0.156467419468848,0.003));
#629=CARTESIAN_POINT('',(0.134399924767497,0.156467419468848,0.003));
#630=MECHANICAL_DESIGN_GEOMETRIC_PRESENTATION_REPRESENTATION('',(#377),
#631);
#631=(
GEOMETRIC_REPRESENTATION_CONTEXT(3)
GLOBAL_UNCERTAINTY_ASSIGNED_CONTEXT((#632))
GLOBAL_UNIT_ASSIGNED_CONTEXT((#635,#634,#633))
REPRESENTATION_CONTEXT('dc_motor_mounting_DB18',
'TOP_LEVEL_ASSEMBLY_PART')
);
#632=UNCERTAINTY_MEASURE_WITH_UNIT(LENGTH_MEASURE(5.E-6),#635,
'DISTANCE_ACCURACY_VALUE','Maximum Tolerance applied to model');
#633=(
NAMED_UNIT(*)
SI_UNIT($,.STERADIAN.)
SOLID_ANGLE_UNIT()
);
#634=(
NAMED_UNIT(*)
PLANE_ANGLE_UNIT()
SI_UNIT($,.RADIAN.)
);
#635=(
LENGTH_UNIT()
NAMED_UNIT(*)
SI_UNIT($,.METRE.)
);
#636=PRODUCT_DEFINITION_SHAPE('','',#637);
#637=PRODUCT_DEFINITION('','',#639,#638);
#638=PRODUCT_DEFINITION_CONTEXT('',#645,'design');
#639=PRODUCT_DEFINITION_FORMATION_WITH_SPECIFIED_SOURCE('','',#641,
 .NOT_KNOWN.);
#640=PRODUCT_RELATED_PRODUCT_CATEGORY('','',(#641));
#641=PRODUCT('dc_motor_mounting_DB18','dc_motor_mounting_DB18',
'dc_motor_mounting_DB18',(#643));
#642=PRODUCT_CATEGORY('','');
#643=PRODUCT_CONTEXT('',#645,'mechanical');
#644=APPLICATION_PROTOCOL_DEFINITION('international standard',
'automotive_design',2010,#645);
#645=APPLICATION_CONTEXT(
'core data for automotive mechanical design processes');
ENDSEC;
END-ISO-10303-21;
