ISO-10303-21;
HEADER;
/* Generated by software containing ST-Developer
 * from STEP Tools, Inc. (www.steptools.com) 
 */
/* OPTION: using custom renumber hook */

FILE_DESCRIPTION(
/* description */ ('STEP AP214'),
/* implementation_level */ '2;1');

FILE_NAME(
/* name */ '654cf59f7f9aa566be172250',
/* time_stamp */ '2023-11-09T15:07:12Z',
/* author */ (''),
/* organization */ (''),
/* preprocessor_version */ 'ST-DEVELOPER v19.4',
/* originating_system */ '  ',
/* authorisation */ '  ');

FILE_SCHEMA (('AUTOMOTIVE_DESIGN {1 0 10303 214 3 1 1}'));
ENDSEC;

DATA;
#10=PROPERTY_DEFINITION_REPRESENTATION(#14,#12);
#11=PROPERTY_DEFINITION_REPRESENTATION(#15,#13);
#12=REPRESENTATION('',(#16),#166);
#13=REPRESENTATION('',(#17),#166);
#14=PROPERTY_DEFINITION('pmi validation property','',#171);
#15=PROPERTY_DEFINITION('pmi validation property','',#171);
#16=VALUE_REPRESENTATION_ITEM('number of annotations',COUNT_MEASURE(0.));
#17=VALUE_REPRESENTATION_ITEM('number of views',COUNT_MEASURE(0.));
#18=SHAPE_REPRESENTATION_RELATIONSHIP('','',#104,#19);
#19=ADVANCED_BREP_SHAPE_REPRESENTATION('',(#102),#166);
#20=SPHERICAL_SURFACE('',#113,0.004);
#21=CYLINDRICAL_SURFACE('',#111,0.0045);
#22=CYLINDRICAL_SURFACE('',#115,0.004);
#23=CIRCLE('',#107,0.0045);
#24=CIRCLE('',#109,0.004);
#25=CIRCLE('',#110,0.0045);
#26=CIRCLE('',#114,0.004);
#27=ORIENTED_EDGE('',*,*,#45,.T.);
#28=ORIENTED_EDGE('',*,*,#46,.T.);
#29=ORIENTED_EDGE('',*,*,#47,.F.);
#30=ORIENTED_EDGE('',*,*,#48,.T.);
#31=ORIENTED_EDGE('',*,*,#49,.F.);
#32=ORIENTED_EDGE('',*,*,#50,.F.);
#33=ORIENTED_EDGE('',*,*,#46,.F.);
#34=ORIENTED_EDGE('',*,*,#51,.F.);
#35=ORIENTED_EDGE('',*,*,#50,.T.);
#36=ORIENTED_EDGE('',*,*,#52,.F.);
#37=ORIENTED_EDGE('',*,*,#51,.T.);
#38=ORIENTED_EDGE('',*,*,#45,.F.);
#39=ORIENTED_EDGE('',*,*,#52,.T.);
#40=ORIENTED_EDGE('',*,*,#49,.T.);
#41=ORIENTED_EDGE('',*,*,#47,.T.);
#42=ORIENTED_EDGE('',*,*,#53,.F.);
#43=ORIENTED_EDGE('',*,*,#53,.T.);
#44=ORIENTED_EDGE('',*,*,#48,.F.);
#45=EDGE_CURVE('',#54,#55,#60,.T.);
#46=EDGE_CURVE('',#55,#54,#23,.T.);
#47=EDGE_CURVE('',#56,#57,#61,.T.);
#48=EDGE_CURVE('',#56,#56,#24,.T.);
#49=EDGE_CURVE('',#58,#56,#62,.T.);
#50=EDGE_CURVE('',#57,#58,#25,.T.);
#51=EDGE_CURVE('',#57,#55,#63,.T.);
#52=EDGE_CURVE('',#54,#58,#64,.T.);
#53=EDGE_CURVE('',#59,#59,#26,.T.);
#54=VERTEX_POINT('',#146);
#55=VERTEX_POINT('',#147);
#56=VERTEX_POINT('',#151);
#57=VERTEX_POINT('',#152);
#58=VERTEX_POINT('',#155);
#59=VERTEX_POINT('',#163);
#60=LINE('',#145,#65);
#61=LINE('',#150,#66);
#62=LINE('',#154,#67);
#63=LINE('',#158,#68);
#64=LINE('',#159,#69);
#65=VECTOR('',#120,1.);
#66=VECTOR('',#125,1.);
#67=VECTOR('',#128,1.);
#68=VECTOR('',#133,1.);
#69=VECTOR('',#134,1.);
#70=EDGE_LOOP('',(#27,#28));
#71=EDGE_LOOP('',(#29,#30,#31,#32));
#72=EDGE_LOOP('',(#33,#34,#35,#36));
#73=EDGE_LOOP('',(#37,#38,#39,#40,#41));
#74=EDGE_LOOP('',(#42));
#75=EDGE_LOOP('',(#43));
#76=EDGE_LOOP('',(#44));
#77=FACE_BOUND('',#70,.T.);
#78=FACE_BOUND('',#71,.T.);
#79=FACE_BOUND('',#72,.T.);
#80=FACE_BOUND('',#73,.T.);
#81=FACE_BOUND('',#74,.T.);
#82=FACE_BOUND('',#75,.T.);
#83=FACE_BOUND('',#76,.T.);
#84=PLANE('',#106);
#85=PLANE('',#108);
#86=PLANE('',#112);
#87=ADVANCED_FACE('',(#77),#84,.F.);
#88=ADVANCED_FACE('',(#78),#85,.F.);
#89=ADVANCED_FACE('',(#79),#21,.T.);
#90=ADVANCED_FACE('',(#80),#86,.T.);
#91=ADVANCED_FACE('',(#81),#20,.T.);
#92=ADVANCED_FACE('',(#82,#83),#22,.T.);
#93=CLOSED_SHELL('',(#87,#88,#89,#90,#91,#92));
#94=STYLED_ITEM('',(#95),#102);
#95=PRESENTATION_STYLE_ASSIGNMENT((#96));
#96=SURFACE_STYLE_USAGE(.BOTH.,#97);
#97=SURFACE_SIDE_STYLE('',(#98));
#98=SURFACE_STYLE_FILL_AREA(#99);
#99=FILL_AREA_STYLE('',(#100));
#100=FILL_AREA_STYLE_COLOUR('',#101);
#101=COLOUR_RGB('',0.874509803921569,0.874509803921569,0.874509803921569);
#102=MANIFOLD_SOLID_BREP('diode_8mm',#93);
#103=SHAPE_DEFINITION_REPRESENTATION(#171,#104);
#104=SHAPE_REPRESENTATION('diode_8mm',(#105),#166);
#105=AXIS2_PLACEMENT_3D('',#143,#116,#117);
#106=AXIS2_PLACEMENT_3D('',#144,#118,#119);
#107=AXIS2_PLACEMENT_3D('',#148,#121,#122);
#108=AXIS2_PLACEMENT_3D('',#149,#123,#124);
#109=AXIS2_PLACEMENT_3D('',#153,#126,#127);
#110=AXIS2_PLACEMENT_3D('',#156,#129,#130);
#111=AXIS2_PLACEMENT_3D('',#157,#131,#132);
#112=AXIS2_PLACEMENT_3D('',#160,#135,#136);
#113=AXIS2_PLACEMENT_3D('',#161,#137,#138);
#114=AXIS2_PLACEMENT_3D('',#162,#139,#140);
#115=AXIS2_PLACEMENT_3D('',#164,#141,#142);
#116=DIRECTION('',(0.,0.,1.));
#117=DIRECTION('',(1.,0.,0.));
#118=DIRECTION('',(0.,0.,1.));
#119=DIRECTION('',(1.,0.,0.));
#120=DIRECTION('',(-1.,0.,0.));
#121=DIRECTION('',(0.,0.,-1.));
#122=DIRECTION('',(1.,1.22464679914735E-16,0.));
#123=DIRECTION('',(0.,0.,-1.));
#124=DIRECTION('',(-1.,0.,0.));
#125=DIRECTION('',(-1.,0.,0.));
#126=DIRECTION('',(0.,0.,-1.));
#127=DIRECTION('',(-1.,0.,0.));
#128=DIRECTION('',(-1.,0.,0.));
#129=DIRECTION('',(0.,0.,-1.));
#130=DIRECTION('',(1.,1.22464679914735E-16,0.));
#131=DIRECTION('',(0.,0.,-1.));
#132=DIRECTION('',(-5.0532154980743E-16,1.,0.));
#133=DIRECTION('',(0.,0.,-1.));
#134=DIRECTION('',(0.,0.,1.));
#135=DIRECTION('',(0.,-1.,0.));
#136=DIRECTION('',(0.,0.,-1.));
#137=DIRECTION('',(1.22464679914735E-16,0.,1.));
#138=DIRECTION('',(1.,0.,0.));
#139=DIRECTION('',(0.,0.,-1.));
#140=DIRECTION('',(-1.,0.,0.));
#141=DIRECTION('',(0.,0.,-1.));
#142=DIRECTION('',(-1.,0.,0.));
#143=CARTESIAN_POINT('',(0.,0.,0.));
#144=CARTESIAN_POINT('',(0.,0.,0.));
#145=CARTESIAN_POINT('',(0.00206155281280883,-0.004,0.));
#146=CARTESIAN_POINT('',(0.00206155281280883,-0.004,0.));
#147=CARTESIAN_POINT('',(-0.00206155281280883,-0.004,0.));
#148=CARTESIAN_POINT('',(0.,0.,0.));
#149=CARTESIAN_POINT('',(0.,0.,0.002));
#150=CARTESIAN_POINT('',(0.00206155281280883,-0.004,0.002));
#151=CARTESIAN_POINT('',(0.,-0.004,0.002));
#152=CARTESIAN_POINT('',(-0.00206155281280883,-0.004,0.002));
#153=CARTESIAN_POINT('',(0.,0.,0.002));
#154=CARTESIAN_POINT('',(0.00206155281280883,-0.004,0.002));
#155=CARTESIAN_POINT('',(0.00206155281280883,-0.004,0.002));
#156=CARTESIAN_POINT('',(0.,0.,0.002));
#157=CARTESIAN_POINT('',(0.,0.,0.002));
#158=CARTESIAN_POINT('',(-0.00206155281280883,-0.004,0.002));
#159=CARTESIAN_POINT('',(0.00206155281280883,-0.004,0.002));
#160=CARTESIAN_POINT('',(0.00206155281280883,-0.004,0.002));
#161=CARTESIAN_POINT('',(0.,0.,0.007));
#162=CARTESIAN_POINT('',(0.,0.,0.007));
#163=CARTESIAN_POINT('',(-0.004,0.,0.007));
#164=CARTESIAN_POINT('',(0.,0.,0.011));
#165=MECHANICAL_DESIGN_GEOMETRIC_PRESENTATION_REPRESENTATION('',(#94),#166);
#166=(
GEOMETRIC_REPRESENTATION_CONTEXT(3)
GLOBAL_UNCERTAINTY_ASSIGNED_CONTEXT((#167))
GLOBAL_UNIT_ASSIGNED_CONTEXT((#170,#169,#168))
REPRESENTATION_CONTEXT('diode_8mm','TOP_LEVEL_ASSEMBLY_PART')
);
#167=UNCERTAINTY_MEASURE_WITH_UNIT(LENGTH_MEASURE(5.E-6),#170,
'DISTANCE_ACCURACY_VALUE','Maximum Tolerance applied to model');
#168=(
NAMED_UNIT(*)
SI_UNIT($,.STERADIAN.)
SOLID_ANGLE_UNIT()
);
#169=(
NAMED_UNIT(*)
PLANE_ANGLE_UNIT()
SI_UNIT($,.RADIAN.)
);
#170=(
LENGTH_UNIT()
NAMED_UNIT(*)
SI_UNIT($,.METRE.)
);
#171=PRODUCT_DEFINITION_SHAPE('','',#172);
#172=PRODUCT_DEFINITION('','',#174,#173);
#173=PRODUCT_DEFINITION_CONTEXT('',#180,'design');
#174=PRODUCT_DEFINITION_FORMATION_WITH_SPECIFIED_SOURCE('','',#176,
 .NOT_KNOWN.);
#175=PRODUCT_RELATED_PRODUCT_CATEGORY('','',(#176));
#176=PRODUCT('diode_8mm','diode_8mm','diode_8mm',(#178));
#177=PRODUCT_CATEGORY('','');
#178=PRODUCT_CONTEXT('',#180,'mechanical');
#179=APPLICATION_PROTOCOL_DEFINITION('international standard',
'automotive_design',2010,#180);
#180=APPLICATION_CONTEXT(
'core data for automotive mechanical design processes');
ENDSEC;
END-ISO-10303-21;
