ISO-10303-21;
HEADER;
/* Generated by software containing ST-Developer
 * from STEP Tools, Inc. (www.steptools.com) 
 */
/* OPTION: using custom renumber hook */

FILE_DESCRIPTION(
/* description */ ('STEP AP214'),
/* implementation_level */ '2;1');

FILE_NAME(
/* name */ '654cf58e7f9aa566be1721e5',
/* time_stamp */ '2023-11-09T15:06:55Z',
/* author */ (''),
/* organization */ (''),
/* preprocessor_version */ 'ST-DEVELOPER v19.4',
/* originating_system */ '  ',
/* authorisation */ '  ');

FILE_SCHEMA (('AUTOMOTIVE_DESIGN {1 0 10303 214 3 1 1}'));
ENDSEC;

DATA;
#10=PROPERTY_DEFINITION_REPRESENTATION(#14,#12);
#11=PROPERTY_DEFINITION_REPRESENTATION(#15,#13);
#12=REPRESENTATION('',(#16),#435);
#13=REPRESENTATION('',(#17),#435);
#14=PROPERTY_DEFINITION('pmi validation property','',#440);
#15=PROPERTY_DEFINITION('pmi validation property','',#440);
#16=VALUE_REPRESENTATION_ITEM('number of annotations',COUNT_MEASURE(0.));
#17=VALUE_REPRESENTATION_ITEM('number of views',COUNT_MEASURE(0.));
#18=SHAPE_REPRESENTATION_RELATIONSHIP('','',#272,#19);
#19=ADVANCED_BREP_SHAPE_REPRESENTATION('',(#270),#435);
#20=B_SPLINE_CURVE_WITH_KNOTS('',3,(#396,#397,#398,#399),.UNSPECIFIED.,
 .F.,.F.,(4,4),(0.,0.999998718053151),.UNSPECIFIED.);
#21=B_SPLINE_CURVE_WITH_KNOTS('',3,(#402,#403,#404,#405,#406),
 .UNSPECIFIED.,.F.,.F.,(4,1,4),(0.,0.499834135188066,0.999668270376131),
 .UNSPECIFIED.);
#22=B_SPLINE_CURVE_WITH_KNOTS('',3,(#408,#409,#410,#411),.UNSPECIFIED.,
 .F.,.F.,(4,4),(2.61564666386935E-6,1.),.UNSPECIFIED.);
#23=B_SPLINE_CURVE_WITH_KNOTS('',3,(#413,#414,#415,#416,#417),
 .UNSPECIFIED.,.F.,.F.,(4,1,4),(0.,0.499834563924585,0.999669127849171),
 .UNSPECIFIED.);
#24=SPHERICAL_SURFACE('',#280,0.000670532017860633);
#25=SPHERICAL_SURFACE('',#289,0.000670538883656773);
#26=ORIENTED_EDGE('',*,*,#90,.T.);
#27=ORIENTED_EDGE('',*,*,#91,.T.);
#28=ORIENTED_EDGE('',*,*,#92,.T.);
#29=ORIENTED_EDGE('',*,*,#93,.F.);
#30=ORIENTED_EDGE('',*,*,#94,.T.);
#31=ORIENTED_EDGE('',*,*,#95,.T.);
#32=ORIENTED_EDGE('',*,*,#96,.T.);
#33=ORIENTED_EDGE('',*,*,#97,.F.);
#34=ORIENTED_EDGE('',*,*,#98,.T.);
#35=ORIENTED_EDGE('',*,*,#93,.T.);
#36=ORIENTED_EDGE('',*,*,#99,.T.);
#37=ORIENTED_EDGE('',*,*,#100,.T.);
#38=ORIENTED_EDGE('',*,*,#101,.T.);
#39=ORIENTED_EDGE('',*,*,#97,.T.);
#40=ORIENTED_EDGE('',*,*,#102,.T.);
#41=ORIENTED_EDGE('',*,*,#103,.T.);
#42=ORIENTED_EDGE('',*,*,#104,.F.);
#43=ORIENTED_EDGE('',*,*,#105,.F.);
#44=ORIENTED_EDGE('',*,*,#106,.F.);
#45=ORIENTED_EDGE('',*,*,#100,.F.);
#46=ORIENTED_EDGE('',*,*,#107,.F.);
#47=ORIENTED_EDGE('',*,*,#108,.F.);
#48=ORIENTED_EDGE('',*,*,#109,.F.);
#49=ORIENTED_EDGE('',*,*,#103,.F.);
#50=ORIENTED_EDGE('',*,*,#110,.F.);
#51=ORIENTED_EDGE('',*,*,#111,.F.);
#52=ORIENTED_EDGE('',*,*,#112,.T.);
#53=ORIENTED_EDGE('',*,*,#111,.T.);
#54=ORIENTED_EDGE('',*,*,#113,.T.);
#55=ORIENTED_EDGE('',*,*,#114,.T.);
#56=ORIENTED_EDGE('',*,*,#108,.T.);
#57=ORIENTED_EDGE('',*,*,#115,.T.);
#58=ORIENTED_EDGE('',*,*,#105,.T.);
#59=ORIENTED_EDGE('',*,*,#107,.T.);
#60=ORIENTED_EDGE('',*,*,#116,.F.);
#61=ORIENTED_EDGE('',*,*,#106,.T.);
#62=ORIENTED_EDGE('',*,*,#115,.F.);
#63=ORIENTED_EDGE('',*,*,#109,.T.);
#64=ORIENTED_EDGE('',*,*,#114,.F.);
#65=ORIENTED_EDGE('',*,*,#104,.T.);
#66=ORIENTED_EDGE('',*,*,#117,.F.);
#67=ORIENTED_EDGE('',*,*,#102,.F.);
#68=ORIENTED_EDGE('',*,*,#118,.F.);
#69=ORIENTED_EDGE('',*,*,#98,.F.);
#70=ORIENTED_EDGE('',*,*,#116,.T.);
#71=ORIENTED_EDGE('',*,*,#99,.F.);
#72=ORIENTED_EDGE('',*,*,#119,.F.);
#73=ORIENTED_EDGE('',*,*,#101,.F.);
#74=ORIENTED_EDGE('',*,*,#117,.T.);
#75=ORIENTED_EDGE('',*,*,#90,.F.);
#76=ORIENTED_EDGE('',*,*,#118,.T.);
#77=ORIENTED_EDGE('',*,*,#96,.F.);
#78=ORIENTED_EDGE('',*,*,#120,.T.);
#79=ORIENTED_EDGE('',*,*,#92,.F.);
#80=ORIENTED_EDGE('',*,*,#121,.T.);
#81=ORIENTED_EDGE('',*,*,#94,.F.);
#82=ORIENTED_EDGE('',*,*,#119,.T.);
#83=ORIENTED_EDGE('',*,*,#121,.F.);
#84=ORIENTED_EDGE('',*,*,#91,.F.);
#85=ORIENTED_EDGE('',*,*,#120,.F.);
#86=ORIENTED_EDGE('',*,*,#95,.F.);
#87=ORIENTED_EDGE('',*,*,#113,.F.);
#88=ORIENTED_EDGE('',*,*,#110,.T.);
#89=ORIENTED_EDGE('',*,*,#112,.F.);
#90=EDGE_CURVE('',#122,#123,#141,.T.);
#91=EDGE_CURVE('',#123,#124,#142,.T.);
#92=EDGE_CURVE('',#124,#125,#143,.T.);
#93=EDGE_CURVE('',#122,#125,#144,.T.);
#94=EDGE_CURVE('',#126,#127,#145,.T.);
#95=EDGE_CURVE('',#127,#128,#146,.T.);
#96=EDGE_CURVE('',#128,#129,#147,.T.);
#97=EDGE_CURVE('',#126,#129,#148,.T.);
#98=EDGE_CURVE('',#130,#122,#149,.T.);
#99=EDGE_CURVE('',#125,#131,#150,.T.);
#100=EDGE_CURVE('',#131,#130,#151,.T.);
#101=EDGE_CURVE('',#132,#126,#152,.T.);
#102=EDGE_CURVE('',#129,#133,#153,.T.);
#103=EDGE_CURVE('',#133,#132,#154,.T.);
#104=EDGE_CURVE('',#134,#131,#155,.T.);
#105=EDGE_CURVE('',#135,#134,#156,.T.);
#106=EDGE_CURVE('',#130,#135,#157,.T.);
#107=EDGE_CURVE('',#136,#133,#158,.T.);
#108=EDGE_CURVE('',#137,#136,#159,.T.);
#109=EDGE_CURVE('',#132,#137,#160,.T.);
#110=EDGE_CURVE('',#138,#139,#20,.F.);
#111=EDGE_CURVE('',#140,#138,#21,.T.);
#112=EDGE_CURVE('',#140,#139,#22,.T.);
#113=EDGE_CURVE('',#138,#140,#23,.T.);
#114=EDGE_CURVE('',#134,#137,#161,.T.);
#115=EDGE_CURVE('',#136,#135,#162,.T.);
#116=EDGE_CURVE('',#130,#133,#163,.T.);
#117=EDGE_CURVE('',#132,#131,#164,.T.);
#118=EDGE_CURVE('',#122,#129,#165,.T.);
#119=EDGE_CURVE('',#126,#125,#166,.T.);
#120=EDGE_CURVE('',#128,#123,#167,.T.);
#121=EDGE_CURVE('',#124,#127,#168,.T.);
#122=VERTEX_POINT('',#355);
#123=VERTEX_POINT('',#356);
#124=VERTEX_POINT('',#358);
#125=VERTEX_POINT('',#360);
#126=VERTEX_POINT('',#364);
#127=VERTEX_POINT('',#365);
#128=VERTEX_POINT('',#367);
#129=VERTEX_POINT('',#369);
#130=VERTEX_POINT('',#373);
#131=VERTEX_POINT('',#375);
#132=VERTEX_POINT('',#379);
#133=VERTEX_POINT('',#381);
#134=VERTEX_POINT('',#385);
#135=VERTEX_POINT('',#387);
#136=VERTEX_POINT('',#391);
#137=VERTEX_POINT('',#393);
#138=VERTEX_POINT('',#400);
#139=VERTEX_POINT('',#401);
#140=VERTEX_POINT('',#407);
#141=LINE('',#354,#169);
#142=LINE('',#357,#170);
#143=LINE('',#359,#171);
#144=LINE('',#361,#172);
#145=LINE('',#363,#173);
#146=LINE('',#366,#174);
#147=LINE('',#368,#175);
#148=LINE('',#370,#176);
#149=LINE('',#372,#177);
#150=LINE('',#374,#178);
#151=LINE('',#376,#179);
#152=LINE('',#378,#180);
#153=LINE('',#380,#181);
#154=LINE('',#382,#182);
#155=LINE('',#384,#183);
#156=LINE('',#386,#184);
#157=LINE('',#388,#185);
#158=LINE('',#390,#186);
#159=LINE('',#392,#187);
#160=LINE('',#394,#188);
#161=LINE('',#418,#189);
#162=LINE('',#419,#190);
#163=LINE('',#421,#191);
#164=LINE('',#423,#192);
#165=LINE('',#425,#193);
#166=LINE('',#427,#194);
#167=LINE('',#429,#195);
#168=LINE('',#431,#196);
#169=VECTOR('',#294,1.);
#170=VECTOR('',#295,1.);
#171=VECTOR('',#296,1.);
#172=VECTOR('',#297,1.);
#173=VECTOR('',#300,1.);
#174=VECTOR('',#301,1.);
#175=VECTOR('',#302,1.);
#176=VECTOR('',#303,1.);
#177=VECTOR('',#306,1.);
#178=VECTOR('',#307,1.);
#179=VECTOR('',#308,1.);
#180=VECTOR('',#311,1.);
#181=VECTOR('',#312,1.);
#182=VECTOR('',#313,1.);
#183=VECTOR('',#316,1.);
#184=VECTOR('',#317,1.);
#185=VECTOR('',#318,1.);
#186=VECTOR('',#321,1.);
#187=VECTOR('',#322,1.);
#188=VECTOR('',#323,1.);
#189=VECTOR('',#328,1.);
#190=VECTOR('',#329,1.);
#191=VECTOR('',#332,1.);
#192=VECTOR('',#335,1.);
#193=VECTOR('',#338,1.);
#194=VECTOR('',#341,1.);
#195=VECTOR('',#344,1.);
#196=VECTOR('',#347,1.);
#197=EDGE_LOOP('',(#26,#27,#28,#29));
#198=EDGE_LOOP('',(#30,#31,#32,#33));
#199=EDGE_LOOP('',(#34,#35,#36,#37));
#200=EDGE_LOOP('',(#38,#39,#40,#41));
#201=EDGE_LOOP('',(#42,#43,#44,#45));
#202=EDGE_LOOP('',(#46,#47,#48,#49));
#203=EDGE_LOOP('',(#50,#51,#52));
#204=EDGE_LOOP('',(#53,#54));
#205=EDGE_LOOP('',(#55,#56,#57,#58));
#206=EDGE_LOOP('',(#59,#60,#61,#62));
#207=EDGE_LOOP('',(#63,#64,#65,#66));
#208=EDGE_LOOP('',(#67,#68,#69,#70));
#209=EDGE_LOOP('',(#71,#72,#73,#74));
#210=EDGE_LOOP('',(#75,#76,#77,#78));
#211=EDGE_LOOP('',(#79,#80,#81,#82));
#212=EDGE_LOOP('',(#83,#84,#85,#86));
#213=EDGE_LOOP('',(#87,#88,#89));
#214=FACE_BOUND('',#197,.T.);
#215=FACE_BOUND('',#198,.T.);
#216=FACE_BOUND('',#199,.T.);
#217=FACE_BOUND('',#200,.T.);
#218=FACE_BOUND('',#201,.T.);
#219=FACE_BOUND('',#202,.T.);
#220=FACE_BOUND('',#203,.T.);
#221=FACE_BOUND('',#204,.T.);
#222=FACE_BOUND('',#205,.T.);
#223=FACE_BOUND('',#206,.T.);
#224=FACE_BOUND('',#207,.T.);
#225=FACE_BOUND('',#208,.T.);
#226=FACE_BOUND('',#209,.T.);
#227=FACE_BOUND('',#210,.T.);
#228=FACE_BOUND('',#211,.T.);
#229=FACE_BOUND('',#212,.T.);
#230=FACE_BOUND('',#213,.T.);
#231=PLANE('',#274);
#232=PLANE('',#275);
#233=PLANE('',#276);
#234=PLANE('',#277);
#235=PLANE('',#278);
#236=PLANE('',#279);
#237=PLANE('',#281);
#238=PLANE('',#282);
#239=PLANE('',#283);
#240=PLANE('',#284);
#241=PLANE('',#285);
#242=PLANE('',#286);
#243=PLANE('',#287);
#244=PLANE('',#288);
#245=ADVANCED_FACE('',(#214),#231,.T.);
#246=ADVANCED_FACE('',(#215),#232,.T.);
#247=ADVANCED_FACE('',(#216),#233,.T.);
#248=ADVANCED_FACE('',(#217),#234,.T.);
#249=ADVANCED_FACE('',(#218),#235,.F.);
#250=ADVANCED_FACE('',(#219),#236,.F.);
#251=ADVANCED_FACE('',(#220),#24,.F.);
#252=ADVANCED_FACE('',(#221,#222),#237,.T.);
#253=ADVANCED_FACE('',(#223),#238,.F.);
#254=ADVANCED_FACE('',(#224),#239,.F.);
#255=ADVANCED_FACE('',(#225),#240,.T.);
#256=ADVANCED_FACE('',(#226),#241,.T.);
#257=ADVANCED_FACE('',(#227),#242,.T.);
#258=ADVANCED_FACE('',(#228),#243,.T.);
#259=ADVANCED_FACE('',(#229),#244,.F.);
#260=ADVANCED_FACE('',(#230),#25,.F.);
#261=CLOSED_SHELL('',(#245,#246,#247,#248,#249,#250,#251,#252,#253,#254,
#255,#256,#257,#258,#259,#260));
#262=STYLED_ITEM('',(#263),#270);
#263=PRESENTATION_STYLE_ASSIGNMENT((#264));
#264=SURFACE_STYLE_USAGE(.BOTH.,#265);
#265=SURFACE_SIDE_STYLE('',(#266));
#266=SURFACE_STYLE_FILL_AREA(#267);
#267=FILL_AREA_STYLE('',(#268));
#268=FILL_AREA_STYLE_COLOUR('',#269);
#269=COLOUR_RGB('',0.16078431372549,0.141176470588235,0.133333333333333);
#270=MANIFOLD_SOLID_BREP('fb_chip',#261);
#271=SHAPE_DEFINITION_REPRESENTATION(#440,#272);
#272=SHAPE_REPRESENTATION('fb_chip',(#273),#435);
#273=AXIS2_PLACEMENT_3D('',#352,#290,#291);
#274=AXIS2_PLACEMENT_3D('',#353,#292,#293);
#275=AXIS2_PLACEMENT_3D('',#362,#298,#299);
#276=AXIS2_PLACEMENT_3D('',#371,#304,#305);
#277=AXIS2_PLACEMENT_3D('',#377,#309,#310);
#278=AXIS2_PLACEMENT_3D('',#383,#314,#315);
#279=AXIS2_PLACEMENT_3D('',#389,#319,#320);
#280=AXIS2_PLACEMENT_3D('',#395,#324,#325);
#281=AXIS2_PLACEMENT_3D('',#412,#326,#327);
#282=AXIS2_PLACEMENT_3D('',#420,#330,#331);
#283=AXIS2_PLACEMENT_3D('',#422,#333,#334);
#284=AXIS2_PLACEMENT_3D('',#424,#336,#337);
#285=AXIS2_PLACEMENT_3D('',#426,#339,#340);
#286=AXIS2_PLACEMENT_3D('',#428,#342,#343);
#287=AXIS2_PLACEMENT_3D('',#430,#345,#346);
#288=AXIS2_PLACEMENT_3D('',#432,#348,#349);
#289=AXIS2_PLACEMENT_3D('',#433,#350,#351);
#290=DIRECTION('',(0.,0.,1.));
#291=DIRECTION('',(1.,0.,0.));
#292=DIRECTION('',(-0.994521895368219,-1.7388773091236E-7,-0.104528463268025));
#293=DIRECTION('',(0.104528463268023,1.82763369716011E-8,-0.994521895368234));
#294=DIRECTION('',(0.103962069362162,-0.103962033007713,-0.989132844377761));
#295=DIRECTION('',(1.74845553146897E-7,-0.999999999999985,0.));
#296=DIRECTION('',(-0.103962033007557,-0.103962069362318,0.989132844377761));
#297=DIRECTION('',(1.74845553146897E-7,-0.999999999999985,0.));
#298=DIRECTION('',(0.994521895368219,1.7388773091236E-7,-0.104528463268025));
#299=DIRECTION('',(0.104528463268023,1.82763369716011E-8,0.994521895368234));
#300=DIRECTION('',(-0.103962069362162,0.103962033007713,-0.989132844377761));
#301=DIRECTION('',(-1.74845553146897E-7,0.999999999999985,0.));
#302=DIRECTION('',(0.103962033007557,0.103962069362318,0.989132844377761));
#303=DIRECTION('',(-1.74845553146897E-7,0.999999999999985,0.));
#304=DIRECTION('',(-0.999999999999985,-1.74845553146897E-7,0.));
#305=DIRECTION('',(0.,0.,-1.));
#306=DIRECTION('',(0.,0.,-1.));
#307=DIRECTION('',(0.,0.,1.));
#308=DIRECTION('',(-1.74845553146897E-7,0.999999999999985,0.));
#309=DIRECTION('',(0.999999999999985,1.74845553146897E-7,0.));
#310=DIRECTION('',(0.,0.,1.));
#311=DIRECTION('',(0.,0.,-1.));
#312=DIRECTION('',(0.,0.,1.));
#313=DIRECTION('',(1.74845553146897E-7,-0.999999999999985,0.));
#314=DIRECTION('',(0.984807753012175,1.72189256318769E-7,-0.173648177667033));
#315=DIRECTION('',(0.17364817766703,3.03616116692495E-8,0.98480775301219));
#316=DIRECTION('',(-0.171087839832164,-0.171087899660554,-0.970287525247699));
#317=DIRECTION('',(1.74845553146897E-7,-0.999999999999985,0.));
#318=DIRECTION('',(0.171087899660071,-0.171087839832648,0.970287525247699));
#319=DIRECTION('',(-0.984807753012175,-1.72189256318769E-7,-0.173648177667033));
#320=DIRECTION('',(0.17364817766703,3.03616116692495E-8,-0.98480775301219));
#321=DIRECTION('',(0.171087839832164,0.171087899660554,-0.970287525247699));
#322=DIRECTION('',(-1.74845553146897E-7,0.999999999999985,0.));
#323=DIRECTION('',(-0.171087899660071,0.171087839832648,0.970287525247699));
#324=DIRECTION('',(1.,0.,0.));
#325=DIRECTION('',(0.,0.,-1.));
#326=DIRECTION('',(0.,0.,1.));
#327=DIRECTION('',(-0.999999999999985,-1.74845553146952E-7,0.));
#328=DIRECTION('',(0.999999999999985,1.74845553146897E-7,0.));
#329=DIRECTION('',(-0.999999999999985,-1.74845553146897E-7,0.));
#330=DIRECTION('',(1.72189256318769E-7,-0.984807753012175,-0.173648177667033));
#331=DIRECTION('',(3.03616116761883E-8,-0.17364817766703,0.98480775301219));
#332=DIRECTION('',(0.999999999999985,1.74845553146897E-7,0.));
#333=DIRECTION('',(-1.72189256318769E-7,0.984807753012175,-0.173648177667033));
#334=DIRECTION('',(3.03616116761883E-8,-0.17364817766703,-0.98480775301219));
#335=DIRECTION('',(-0.999999999999985,-1.74845553146897E-7,0.));
#336=DIRECTION('',(-1.74845553146897E-7,0.999999999999985,0.));
#337=DIRECTION('',(0.,0.,-1.));
#338=DIRECTION('',(0.999999999999985,1.74845553146897E-7,0.));
#339=DIRECTION('',(1.74845553146897E-7,-0.999999999999985,0.));
#340=DIRECTION('',(0.,0.,1.));
#341=DIRECTION('',(-0.999999999999985,-1.74845553146897E-7,0.));
#342=DIRECTION('',(-1.7388773091236E-7,0.994521895368219,-0.104528463268025));
#343=DIRECTION('',(1.827633697854E-8,-0.104528463268023,-0.994521895368234));
#344=DIRECTION('',(-0.999999999999985,-1.74845553146897E-7,0.));
#345=DIRECTION('',(1.7388773091236E-7,-0.994521895368219,-0.104528463268025));
#346=DIRECTION('',(1.827633697854E-8,-0.104528463268023,0.994521895368234));
#347=DIRECTION('',(0.999999999999985,1.74845553146897E-7,0.));
#348=DIRECTION('',(0.,0.,1.));
#349=DIRECTION('',(-0.999999999999985,-1.74845553146952E-7,0.));
#350=DIRECTION('',(1.,0.,0.));
#351=DIRECTION('',(0.,0.,-1.));
#352=CARTESIAN_POINT('',(0.,0.,0.));
#353=CARTESIAN_POINT('',(0.0430708235164442,0.168249068951592,0.00094000011920902));
#354=CARTESIAN_POINT('',(0.0430708235164442,0.168249068951592,0.00094000011920902));
#355=CARTESIAN_POINT('',(0.0430708235164442,0.168249068951592,0.00094000011920902));
#356=CARTESIAN_POINT('',(0.0431486006641401,0.168171291831094,0.000200000119208991));
#357=CARTESIAN_POINT('',(0.043148600650541,0.168249068965191,0.000200000119208988));
#358=CARTESIAN_POINT('',(0.0431486009429218,0.166576846099288,0.000200000119208991));
#359=CARTESIAN_POINT('',(0.0431486009429218,0.166576846099288,0.000200000119208988));
#360=CARTESIAN_POINT('',(0.0430708238224239,0.166499068951592,0.00094000011920902));
#361=CARTESIAN_POINT('',(0.0430708235164442,0.168249068951592,0.00094000011920902));
#362=CARTESIAN_POINT('',(0.0460708235164441,0.168249069476128,0.00094000011920902));
#363=CARTESIAN_POINT('',(0.0460708238224238,0.166499069476128,0.00094000011920902));
#364=CARTESIAN_POINT('',(0.0460708238224238,0.166499069476128,0.00094000011920902));
#365=CARTESIAN_POINT('',(0.0459930466747279,0.166576846596626,0.000200000119208991));
#366=CARTESIAN_POINT('',(0.0459930463823472,0.168249069462529,0.000200000119208988));
#367=CARTESIAN_POINT('',(0.0459930463959462,0.168171292328432,0.000200000119208991));
#368=CARTESIAN_POINT('',(0.0459930463959462,0.168171292328432,0.000200000119208988));
#369=CARTESIAN_POINT('',(0.0460708235164441,0.168249069476128,0.00094000011920902));
#370=CARTESIAN_POINT('',(0.0460708235164441,0.168249069476128,0.00094000011920902));
#371=CARTESIAN_POINT('',(0.0430708235164442,0.168249068951592,0.000200000119209));
#372=CARTESIAN_POINT('',(0.0430708235164442,0.168249068951592,0.000200000119209));
#373=CARTESIAN_POINT('',(0.0430708235164442,0.168249068951592,0.00106000011920897));
#374=CARTESIAN_POINT('',(0.0430708238224239,0.166499068951592,0.000200000119209));
#375=CARTESIAN_POINT('',(0.0430708238224239,0.166499068951592,0.00106000011920897));
#376=CARTESIAN_POINT('',(0.0430708238224241,0.166499068951592,0.00106000011920895));
#377=CARTESIAN_POINT('',(0.0460708235164441,0.168249069476128,0.000200000119209));
#378=CARTESIAN_POINT('',(0.0460708238224238,0.166499069476128,0.000200000119209));
#379=CARTESIAN_POINT('',(0.0460708238224238,0.166499069476128,0.00106000011920897));
#380=CARTESIAN_POINT('',(0.0460708235164441,0.168249069476128,0.000200000119209));
#381=CARTESIAN_POINT('',(0.0460708235164441,0.168249069476128,0.00106000011920897));
#382=CARTESIAN_POINT('',(0.0460708238224236,0.166499069476128,0.00106000011920895));
#383=CARTESIAN_POINT('',(0.0431484076939359,0.166499068965157,0.001500000119209));
#384=CARTESIAN_POINT('',(0.0431484076803707,0.166576652836669,0.001500000119209));
#385=CARTESIAN_POINT('',(0.0431484076803707,0.166576652836669,0.001500000119209));
#386=CARTESIAN_POINT('',(0.0431484076939359,0.166499068965157,0.001500000119209));
#387=CARTESIAN_POINT('',(0.0431484074015214,0.168171485093645,0.001500000119209));
#388=CARTESIAN_POINT('',(0.0430708235164444,0.168249068951592,0.00106000011920895));
#389=CARTESIAN_POINT('',(0.0459932399509118,0.166499069462563,0.001500000119209));
#390=CARTESIAN_POINT('',(0.0459932396584973,0.168171485591051,0.001500000119209));
#391=CARTESIAN_POINT('',(0.0459932396584973,0.168171485591051,0.001500000119209));
#392=CARTESIAN_POINT('',(0.0459932399509118,0.166499069462563,0.001500000119209));
#393=CARTESIAN_POINT('',(0.0459932399373466,0.166576653334075,0.001500000119209));
#394=CARTESIAN_POINT('',(0.0460708238224236,0.166499069476128,0.00106000011920895));
#395=CARTESIAN_POINT('',(0.0456723364637767,0.167849452313033,0.002140458240844));
#396=CARTESIAN_POINT('',(0.0456708234062352,0.167849069360595,0.00146992803945069));
#397=CARTESIAN_POINT('',(0.0456708238862717,0.167781423065728,0.00146996667244171));
#398=CARTESIAN_POINT('',(0.0456708243663083,0.167713792079718,0.0014803194490885));
#399=CARTESIAN_POINT('',(0.0456708248463448,0.167649231910692,0.00150051864019773));
#400=CARTESIAN_POINT('',(0.045671044205301,0.16764915070421,0.0015002590847785));
#401=CARTESIAN_POINT('',(0.0456708234071711,0.167849069360784,0.00146992769814942));
#402=CARTESIAN_POINT('',(0.0456708235514132,0.168049069406189,0.001500000119209));
#403=CARTESIAN_POINT('',(0.0457808132400293,0.16804906942542,0.001500000119209));
#404=CARTESIAN_POINT('',(0.0459603154949169,0.167849238889703,0.001500000119209));
#405=CARTESIAN_POINT('',(0.0457818487960505,0.167649173133144,0.001500000119209));
#406=CARTESIAN_POINT('',(0.04567104428123,0.16764906950937,0.001500000119209));
#407=CARTESIAN_POINT('',(0.0456706038920208,0.168048988710972,0.00150025724321899));
#408=CARTESIAN_POINT('',(0.0456708242620713,0.168048975133198,0.00150030080360224));
#409=CARTESIAN_POINT('',(0.0456708239767926,0.167984381817421,0.00148016850591033));
#410=CARTESIAN_POINT('',(0.0456708236915139,0.167916727355939,0.00146988939805037));
#411=CARTESIAN_POINT('',(0.0456708234062352,0.167849069360595,0.00146992803945069));
#412=CARTESIAN_POINT('',(0.0430708238224239,0.166499068951592,0.001500000119209));
#413=CARTESIAN_POINT('',(0.0456708242342795,0.167649069406192,0.001500000119209));
#414=CARTESIAN_POINT('',(0.0455608342624834,0.167649069049881,0.001500000119209));
#415=CARTESIAN_POINT('',(0.0453813312476302,0.167848900172758,0.001500000119209));
#416=CARTESIAN_POINT('',(0.0455597989040136,0.168048966144567,0.001500000119209));
#417=CARTESIAN_POINT('',(0.0456706038169926,0.168049069303934,0.001500000119209));
#418=CARTESIAN_POINT('',(0.0430708238088587,0.166576652823104,0.001500000119209));
#419=CARTESIAN_POINT('',(0.0430708235300094,0.16817148508008,0.001500000119209));
#420=CARTESIAN_POINT('',(0.0430708235300094,0.16817148508008,0.001500000119209));
#421=CARTESIAN_POINT('',(0.0430708235164442,0.168249068951592,0.00106000011920899));
#422=CARTESIAN_POINT('',(0.0430708238088587,0.166576652823104,0.001500000119209));
#423=CARTESIAN_POINT('',(0.0430708238224239,0.166499068951592,0.00106000011920899));
#424=CARTESIAN_POINT('',(0.0430708235164442,0.168249068951592,0.000200000119209));
#425=CARTESIAN_POINT('',(0.0430708235164442,0.168249068951592,0.00094000011920902));
#426=CARTESIAN_POINT('',(0.0430708238224239,0.166499068951592,0.000200000119209));
#427=CARTESIAN_POINT('',(0.0430708238224239,0.166499068951592,0.00094000011920902));
#428=CARTESIAN_POINT('',(0.0430708235164442,0.168249068951592,0.00094000011920902));
#429=CARTESIAN_POINT('',(0.0430708235300431,0.168171291817495,0.000200000119209));
#430=CARTESIAN_POINT('',(0.0430708238224239,0.166499068951592,0.00094000011920902));
#431=CARTESIAN_POINT('',(0.0430708238088249,0.166576846085689,0.000200000119209));
#432=CARTESIAN_POINT('',(0.0430708238224239,0.166499068951592,0.000200000119209));
#433=CARTESIAN_POINT('',(0.0456693169054343,0.167848697614076,0.00214046444381295));
#434=MECHANICAL_DESIGN_GEOMETRIC_PRESENTATION_REPRESENTATION('',(#262),
#435);
#435=(
GEOMETRIC_REPRESENTATION_CONTEXT(3)
GLOBAL_UNCERTAINTY_ASSIGNED_CONTEXT((#436))
GLOBAL_UNIT_ASSIGNED_CONTEXT((#439,#438,#437))
REPRESENTATION_CONTEXT('fb_chip','TOP_LEVEL_ASSEMBLY_PART')
);
#436=UNCERTAINTY_MEASURE_WITH_UNIT(LENGTH_MEASURE(5.E-6),#439,
'DISTANCE_ACCURACY_VALUE','Maximum Tolerance applied to model');
#437=(
NAMED_UNIT(*)
SI_UNIT($,.STERADIAN.)
SOLID_ANGLE_UNIT()
);
#438=(
NAMED_UNIT(*)
PLANE_ANGLE_UNIT()
SI_UNIT($,.RADIAN.)
);
#439=(
LENGTH_UNIT()
NAMED_UNIT(*)
SI_UNIT($,.METRE.)
);
#440=PRODUCT_DEFINITION_SHAPE('','',#441);
#441=PRODUCT_DEFINITION('','',#443,#442);
#442=PRODUCT_DEFINITION_CONTEXT('',#449,'design');
#443=PRODUCT_DEFINITION_FORMATION_WITH_SPECIFIED_SOURCE('','',#445,
 .NOT_KNOWN.);
#444=PRODUCT_RELATED_PRODUCT_CATEGORY('','',(#445));
#445=PRODUCT('fb_chip','fb_chip','fb_chip',(#447));
#446=PRODUCT_CATEGORY('','');
#447=PRODUCT_CONTEXT('',#449,'mechanical');
#448=APPLICATION_PROTOCOL_DEFINITION('international standard',
'automotive_design',2010,#449);
#449=APPLICATION_CONTEXT(
'core data for automotive mechanical design processes');
ENDSEC;
END-ISO-10303-21;
