ISO-10303-21;
HEADER;
/* Generated by software containing ST-Developer
 * from STEP Tools, Inc. (www.steptools.com) 
 */
/* OPTION: using custom renumber hook */

FILE_DESCRIPTION(
/* description */ ('STEP AP214'),
/* implementation_level */ '2;1');

FILE_NAME(
/* name */ '654cf5787f9aa566be172166',
/* time_stamp */ '2023-11-09T15:06:33Z',
/* author */ (''),
/* organization */ (''),
/* preprocessor_version */ 'ST-DEVELOPER v19.4',
/* originating_system */ '  ',
/* authorisation */ '  ');

FILE_SCHEMA (('AUTOMOTIVE_DESIGN {1 0 10303 214 3 1 1}'));
ENDSEC;

DATA;
#10=PROPERTY_DEFINITION_REPRESENTATION(#14,#12);
#11=PROPERTY_DEFINITION_REPRESENTATION(#15,#13);
#12=REPRESENTATION('',(#16),#457);
#13=REPRESENTATION('',(#17),#457);
#14=PROPERTY_DEFINITION('pmi validation property','',#462);
#15=PROPERTY_DEFINITION('pmi validation property','',#462);
#16=VALUE_REPRESENTATION_ITEM('number of annotations',COUNT_MEASURE(0.));
#17=VALUE_REPRESENTATION_ITEM('number of views',COUNT_MEASURE(0.));
#18=SHAPE_REPRESENTATION_RELATIONSHIP('','',#283,#19);
#19=ADVANCED_BREP_SHAPE_REPRESENTATION('',(#281),#457);
#20=CIRCLE('',#287,4.00000000000129E-5);
#21=CIRCLE('',#288,4.00000000000129E-5);
#22=CIRCLE('',#296,0.000159999999999996);
#23=CIRCLE('',#297,0.000159999999999996);
#24=CIRCLE('',#299,4.00000000000129E-5);
#25=CIRCLE('',#300,4.00000000000129E-5);
#26=CIRCLE('',#302,0.000159999999999996);
#27=CIRCLE('',#304,0.000159999999999996);
#28=CYLINDRICAL_SURFACE('',#286,4.00000000000129E-5);
#29=CYLINDRICAL_SURFACE('',#295,0.000159999999999996);
#30=CYLINDRICAL_SURFACE('',#298,4.00000000000129E-5);
#31=CYLINDRICAL_SURFACE('',#303,0.000159999999999996);
#32=ORIENTED_EDGE('',*,*,#104,.T.);
#33=ORIENTED_EDGE('',*,*,#105,.F.);
#34=ORIENTED_EDGE('',*,*,#106,.F.);
#35=ORIENTED_EDGE('',*,*,#107,.T.);
#36=ORIENTED_EDGE('',*,*,#104,.F.);
#37=ORIENTED_EDGE('',*,*,#108,.T.);
#38=ORIENTED_EDGE('',*,*,#109,.F.);
#39=ORIENTED_EDGE('',*,*,#110,.F.);
#40=ORIENTED_EDGE('',*,*,#111,.T.);
#41=ORIENTED_EDGE('',*,*,#112,.F.);
#42=ORIENTED_EDGE('',*,*,#109,.T.);
#43=ORIENTED_EDGE('',*,*,#113,.T.);
#44=ORIENTED_EDGE('',*,*,#111,.F.);
#45=ORIENTED_EDGE('',*,*,#114,.T.);
#46=ORIENTED_EDGE('',*,*,#115,.T.);
#47=ORIENTED_EDGE('',*,*,#116,.F.);
#48=ORIENTED_EDGE('',*,*,#115,.F.);
#49=ORIENTED_EDGE('',*,*,#117,.T.);
#50=ORIENTED_EDGE('',*,*,#118,.F.);
#51=ORIENTED_EDGE('',*,*,#119,.F.);
#52=ORIENTED_EDGE('',*,*,#120,.T.);
#53=ORIENTED_EDGE('',*,*,#121,.T.);
#54=ORIENTED_EDGE('',*,*,#122,.T.);
#55=ORIENTED_EDGE('',*,*,#123,.F.);
#56=ORIENTED_EDGE('',*,*,#122,.F.);
#57=ORIENTED_EDGE('',*,*,#124,.T.);
#58=ORIENTED_EDGE('',*,*,#125,.F.);
#59=ORIENTED_EDGE('',*,*,#126,.F.);
#60=ORIENTED_EDGE('',*,*,#127,.F.);
#61=ORIENTED_EDGE('',*,*,#128,.F.);
#62=ORIENTED_EDGE('',*,*,#125,.T.);
#63=ORIENTED_EDGE('',*,*,#129,.T.);
#64=ORIENTED_EDGE('',*,*,#106,.T.);
#65=ORIENTED_EDGE('',*,*,#130,.F.);
#66=ORIENTED_EDGE('',*,*,#127,.T.);
#67=ORIENTED_EDGE('',*,*,#131,.T.);
#68=ORIENTED_EDGE('',*,*,#132,.T.);
#69=ORIENTED_EDGE('',*,*,#133,.T.);
#70=ORIENTED_EDGE('',*,*,#120,.F.);
#71=ORIENTED_EDGE('',*,*,#134,.F.);
#72=ORIENTED_EDGE('',*,*,#107,.F.);
#73=ORIENTED_EDGE('',*,*,#131,.F.);
#74=ORIENTED_EDGE('',*,*,#129,.F.);
#75=ORIENTED_EDGE('',*,*,#124,.F.);
#76=ORIENTED_EDGE('',*,*,#121,.F.);
#77=ORIENTED_EDGE('',*,*,#133,.F.);
#78=ORIENTED_EDGE('',*,*,#135,.T.);
#79=ORIENTED_EDGE('',*,*,#136,.F.);
#80=ORIENTED_EDGE('',*,*,#117,.F.);
#81=ORIENTED_EDGE('',*,*,#114,.F.);
#82=ORIENTED_EDGE('',*,*,#113,.F.);
#83=ORIENTED_EDGE('',*,*,#108,.F.);
#84=ORIENTED_EDGE('',*,*,#137,.T.);
#85=ORIENTED_EDGE('',*,*,#138,.F.);
#86=ORIENTED_EDGE('',*,*,#118,.T.);
#87=ORIENTED_EDGE('',*,*,#136,.T.);
#88=ORIENTED_EDGE('',*,*,#128,.T.);
#89=ORIENTED_EDGE('',*,*,#130,.T.);
#90=ORIENTED_EDGE('',*,*,#105,.T.);
#91=ORIENTED_EDGE('',*,*,#110,.T.);
#92=ORIENTED_EDGE('',*,*,#112,.T.);
#93=ORIENTED_EDGE('',*,*,#116,.T.);
#94=ORIENTED_EDGE('',*,*,#119,.T.);
#95=ORIENTED_EDGE('',*,*,#138,.T.);
#96=ORIENTED_EDGE('',*,*,#139,.T.);
#97=ORIENTED_EDGE('',*,*,#134,.T.);
#98=ORIENTED_EDGE('',*,*,#123,.T.);
#99=ORIENTED_EDGE('',*,*,#126,.T.);
#100=ORIENTED_EDGE('',*,*,#137,.F.);
#101=ORIENTED_EDGE('',*,*,#135,.F.);
#102=ORIENTED_EDGE('',*,*,#132,.F.);
#103=ORIENTED_EDGE('',*,*,#139,.F.);
#104=EDGE_CURVE('',#140,#141,#164,.T.);
#105=EDGE_CURVE('',#142,#141,#165,.T.);
#106=EDGE_CURVE('',#143,#142,#166,.T.);
#107=EDGE_CURVE('',#143,#140,#167,.T.);
#108=EDGE_CURVE('',#140,#144,#20,.T.);
#109=EDGE_CURVE('',#145,#144,#168,.T.);
#110=EDGE_CURVE('',#141,#145,#21,.T.);
#111=EDGE_CURVE('',#146,#147,#169,.T.);
#112=EDGE_CURVE('',#145,#147,#170,.T.);
#113=EDGE_CURVE('',#144,#146,#171,.T.);
#114=EDGE_CURVE('',#146,#148,#172,.T.);
#115=EDGE_CURVE('',#148,#149,#173,.T.);
#116=EDGE_CURVE('',#147,#149,#174,.T.);
#117=EDGE_CURVE('',#148,#150,#175,.T.);
#118=EDGE_CURVE('',#151,#150,#176,.T.);
#119=EDGE_CURVE('',#149,#151,#177,.T.);
#120=EDGE_CURVE('',#152,#153,#178,.T.);
#121=EDGE_CURVE('',#153,#154,#179,.T.);
#122=EDGE_CURVE('',#154,#155,#180,.T.);
#123=EDGE_CURVE('',#152,#155,#181,.T.);
#124=EDGE_CURVE('',#154,#156,#182,.T.);
#125=EDGE_CURVE('',#157,#156,#183,.T.);
#126=EDGE_CURVE('',#155,#157,#184,.T.);
#127=EDGE_CURVE('',#158,#159,#185,.T.);
#128=EDGE_CURVE('',#157,#158,#186,.T.);
#129=EDGE_CURVE('',#156,#159,#187,.T.);
#130=EDGE_CURVE('',#158,#142,#22,.T.);
#131=EDGE_CURVE('',#159,#143,#23,.T.);
#132=EDGE_CURVE('',#160,#161,#188,.T.);
#133=EDGE_CURVE('',#161,#153,#24,.T.);
#134=EDGE_CURVE('',#160,#152,#25,.T.);
#135=EDGE_CURVE('',#161,#162,#189,.T.);
#136=EDGE_CURVE('',#150,#162,#26,.T.);
#137=EDGE_CURVE('',#162,#163,#190,.T.);
#138=EDGE_CURVE('',#151,#163,#27,.T.);
#139=EDGE_CURVE('',#163,#160,#191,.T.);
#140=VERTEX_POINT('',#384);
#141=VERTEX_POINT('',#385);
#142=VERTEX_POINT('',#387);
#143=VERTEX_POINT('',#389);
#144=VERTEX_POINT('',#393);
#145=VERTEX_POINT('',#395);
#146=VERTEX_POINT('',#399);
#147=VERTEX_POINT('',#400);
#148=VERTEX_POINT('',#405);
#149=VERTEX_POINT('',#407);
#150=VERTEX_POINT('',#411);
#151=VERTEX_POINT('',#413);
#152=VERTEX_POINT('',#417);
#153=VERTEX_POINT('',#418);
#154=VERTEX_POINT('',#420);
#155=VERTEX_POINT('',#422);
#156=VERTEX_POINT('',#426);
#157=VERTEX_POINT('',#428);
#158=VERTEX_POINT('',#432);
#159=VERTEX_POINT('',#433);
#160=VERTEX_POINT('',#441);
#161=VERTEX_POINT('',#442);
#162=VERTEX_POINT('',#447);
#163=VERTEX_POINT('',#451);
#164=LINE('',#383,#192);
#165=LINE('',#386,#193);
#166=LINE('',#388,#194);
#167=LINE('',#390,#195);
#168=LINE('',#394,#196);
#169=LINE('',#398,#197);
#170=LINE('',#401,#198);
#171=LINE('',#402,#199);
#172=LINE('',#404,#200);
#173=LINE('',#406,#201);
#174=LINE('',#408,#202);
#175=LINE('',#410,#203);
#176=LINE('',#412,#204);
#177=LINE('',#414,#205);
#178=LINE('',#416,#206);
#179=LINE('',#419,#207);
#180=LINE('',#421,#208);
#181=LINE('',#423,#209);
#182=LINE('',#425,#210);
#183=LINE('',#427,#211);
#184=LINE('',#429,#212);
#185=LINE('',#431,#213);
#186=LINE('',#434,#214);
#187=LINE('',#435,#215);
#188=LINE('',#440,#216);
#189=LINE('',#446,#217);
#190=LINE('',#450,#218);
#191=LINE('',#454,#219);
#192=VECTOR('',#311,1.);
#193=VECTOR('',#312,1.);
#194=VECTOR('',#313,1.);
#195=VECTOR('',#314,1.);
#196=VECTOR('',#319,1.);
#197=VECTOR('',#324,1.);
#198=VECTOR('',#325,1.);
#199=VECTOR('',#326,1.);
#200=VECTOR('',#329,1.);
#201=VECTOR('',#330,1.);
#202=VECTOR('',#331,1.);
#203=VECTOR('',#334,1.);
#204=VECTOR('',#335,1.);
#205=VECTOR('',#336,1.);
#206=VECTOR('',#339,1.);
#207=VECTOR('',#340,1.);
#208=VECTOR('',#341,1.);
#209=VECTOR('',#342,1.);
#210=VECTOR('',#345,1.);
#211=VECTOR('',#346,1.);
#212=VECTOR('',#347,1.);
#213=VECTOR('',#350,1.);
#214=VECTOR('',#351,1.);
#215=VECTOR('',#352,1.);
#216=VECTOR('',#361,1.);
#217=VECTOR('',#368,1.);
#218=VECTOR('',#373,1.);
#219=VECTOR('',#378,1.);
#220=EDGE_LOOP('',(#32,#33,#34,#35));
#221=EDGE_LOOP('',(#36,#37,#38,#39));
#222=EDGE_LOOP('',(#40,#41,#42,#43));
#223=EDGE_LOOP('',(#44,#45,#46,#47));
#224=EDGE_LOOP('',(#48,#49,#50,#51));
#225=EDGE_LOOP('',(#52,#53,#54,#55));
#226=EDGE_LOOP('',(#56,#57,#58,#59));
#227=EDGE_LOOP('',(#60,#61,#62,#63));
#228=EDGE_LOOP('',(#64,#65,#66,#67));
#229=EDGE_LOOP('',(#68,#69,#70,#71));
#230=EDGE_LOOP('',(#72,#73,#74,#75,#76,#77,#78,#79,#80,#81,#82,#83));
#231=EDGE_LOOP('',(#84,#85,#86,#87));
#232=EDGE_LOOP('',(#88,#89,#90,#91,#92,#93,#94,#95,#96,#97,#98,#99));
#233=EDGE_LOOP('',(#100,#101,#102,#103));
#234=FACE_BOUND('',#220,.T.);
#235=FACE_BOUND('',#221,.T.);
#236=FACE_BOUND('',#222,.T.);
#237=FACE_BOUND('',#223,.T.);
#238=FACE_BOUND('',#224,.T.);
#239=FACE_BOUND('',#225,.T.);
#240=FACE_BOUND('',#226,.T.);
#241=FACE_BOUND('',#227,.T.);
#242=FACE_BOUND('',#228,.T.);
#243=FACE_BOUND('',#229,.T.);
#244=FACE_BOUND('',#230,.T.);
#245=FACE_BOUND('',#231,.T.);
#246=FACE_BOUND('',#232,.T.);
#247=FACE_BOUND('',#233,.T.);
#248=PLANE('',#285);
#249=PLANE('',#289);
#250=PLANE('',#290);
#251=PLANE('',#291);
#252=PLANE('',#292);
#253=PLANE('',#293);
#254=PLANE('',#294);
#255=PLANE('',#301);
#256=PLANE('',#305);
#257=PLANE('',#306);
#258=ADVANCED_FACE('',(#234),#248,.T.);
#259=ADVANCED_FACE('',(#235),#28,.F.);
#260=ADVANCED_FACE('',(#236),#249,.T.);
#261=ADVANCED_FACE('',(#237),#250,.F.);
#262=ADVANCED_FACE('',(#238),#251,.F.);
#263=ADVANCED_FACE('',(#239),#252,.F.);
#264=ADVANCED_FACE('',(#240),#253,.F.);
#265=ADVANCED_FACE('',(#241),#254,.T.);
#266=ADVANCED_FACE('',(#242),#29,.T.);
#267=ADVANCED_FACE('',(#243),#30,.F.);
#268=ADVANCED_FACE('',(#244),#255,.F.);
#269=ADVANCED_FACE('',(#245),#31,.T.);
#270=ADVANCED_FACE('',(#246),#256,.T.);
#271=ADVANCED_FACE('',(#247),#257,.F.);
#272=CLOSED_SHELL('',(#258,#259,#260,#261,#262,#263,#264,#265,#266,#267,
#268,#269,#270,#271));
#273=STYLED_ITEM('',(#274),#281);
#274=PRESENTATION_STYLE_ASSIGNMENT((#275));
#275=SURFACE_STYLE_USAGE(.BOTH.,#276);
#276=SURFACE_SIDE_STYLE('',(#277));
#277=SURFACE_STYLE_FILL_AREA(#278);
#278=FILL_AREA_STYLE('',(#279));
#279=FILL_AREA_STYLE_COLOUR('',#280);
#280=COLOUR_RGB('',0.250980392156863,0.250980392156863,0.250980392156863);
#281=MANIFOLD_SOLID_BREP('fb_chip',#272);
#282=SHAPE_DEFINITION_REPRESENTATION(#462,#283);
#283=SHAPE_REPRESENTATION('fb_chip',(#284),#457);
#284=AXIS2_PLACEMENT_3D('',#381,#307,#308);
#285=AXIS2_PLACEMENT_3D('',#382,#309,#310);
#286=AXIS2_PLACEMENT_3D('',#391,#315,#316);
#287=AXIS2_PLACEMENT_3D('',#392,#317,#318);
#288=AXIS2_PLACEMENT_3D('',#396,#320,#321);
#289=AXIS2_PLACEMENT_3D('',#397,#322,#323);
#290=AXIS2_PLACEMENT_3D('',#403,#327,#328);
#291=AXIS2_PLACEMENT_3D('',#409,#332,#333);
#292=AXIS2_PLACEMENT_3D('',#415,#337,#338);
#293=AXIS2_PLACEMENT_3D('',#424,#343,#344);
#294=AXIS2_PLACEMENT_3D('',#430,#348,#349);
#295=AXIS2_PLACEMENT_3D('',#436,#353,#354);
#296=AXIS2_PLACEMENT_3D('',#437,#355,#356);
#297=AXIS2_PLACEMENT_3D('',#438,#357,#358);
#298=AXIS2_PLACEMENT_3D('',#439,#359,#360);
#299=AXIS2_PLACEMENT_3D('',#443,#362,#363);
#300=AXIS2_PLACEMENT_3D('',#444,#364,#365);
#301=AXIS2_PLACEMENT_3D('',#445,#366,#367);
#302=AXIS2_PLACEMENT_3D('',#448,#369,#370);
#303=AXIS2_PLACEMENT_3D('',#449,#371,#372);
#304=AXIS2_PLACEMENT_3D('',#452,#374,#375);
#305=AXIS2_PLACEMENT_3D('',#453,#376,#377);
#306=AXIS2_PLACEMENT_3D('',#455,#379,#380);
#307=DIRECTION('',(0.,0.,1.));
#308=DIRECTION('',(1.,0.,0.));
#309=DIRECTION('',(-1.72249635718076E-7,0.985153079631767,-0.171678215542962));
#310=DIRECTION('',(3.00171726294597E-8,-0.171678215542959,-0.985153079631782));
#311=DIRECTION('',(0.999999999999985,1.74845553725617E-7,-3.122502256758E-17));
#312=DIRECTION('',(-3.00171726286083E-8,0.17167821554373,0.985153079631648));
#313=DIRECTION('',(0.999999999999985,1.74845553725617E-7,-3.122502256758E-17));
#314=DIRECTION('',(-3.00171726286083E-8,0.17167821554373,0.985153079631648));
#315=DIRECTION('',(0.999999999999985,1.74845553725617E-7,-3.122502256758E-17));
#316=DIRECTION('',(1.74845553725617E-7,-0.999999999999985,3.04628508782191E-32));
#317=DIRECTION('',(-0.999999999999985,-1.74845553725617E-7,3.122502256758E-17));
#318=DIRECTION('',(-1.74845553725617E-7,0.999999999999985,1.11130722679728E-13));
#319=DIRECTION('',(-0.999999999999985,-1.74845553725617E-7,3.122502256758E-17));
#320=DIRECTION('',(-0.999999999999985,-1.74845553725617E-7,3.122502256758E-17));
#321=DIRECTION('',(-1.74845553725617E-7,0.999999999999985,1.11130722679728E-13));
#322=DIRECTION('',(-3.12250219864329E-17,-3.32377688645031E-18,-1.));
#323=DIRECTION('',(1.7484555372288E-7,-0.999999999999985,3.323771426894E-18));
#324=DIRECTION('',(0.999999999999985,1.74845553725617E-7,-3.122502256758E-17));
#325=DIRECTION('',(-1.74845553725617E-7,0.999999999999985,-3.323771426894E-18));
#326=DIRECTION('',(-1.74845553725617E-7,0.999999999999985,-3.323771426894E-18));
#327=DIRECTION('',(1.74845553725617E-7,-0.999999999999985,3.323771426894E-18));
#328=DIRECTION('',(-0.999999999999985,-1.74845553725617E-7,3.12250225675825E-17));
#329=DIRECTION('',(3.12250219864329E-17,3.32377688645031E-18,1.));
#330=DIRECTION('',(0.999999999999985,1.74845553725617E-7,-3.122502256758E-17));
#331=DIRECTION('',(3.12250219864329E-17,3.32377688645031E-18,1.));
#332=DIRECTION('',(-3.12250219864329E-17,-3.32377688645031E-18,-1.));
#333=DIRECTION('',(1.7484555372288E-7,-0.999999999999985,3.323771426894E-18));
#334=DIRECTION('',(1.74845553725617E-7,-0.999999999999985,3.323771426894E-18));
#335=DIRECTION('',(-0.999999999999985,-1.74845553725617E-7,3.122502256758E-17));
#336=DIRECTION('',(1.74845553725617E-7,-0.999999999999985,3.323771426894E-18));
#337=DIRECTION('',(-3.12251167703975E-17,5.38777309356341E-16,-1.));
#338=DIRECTION('',(1.7484555372288E-7,-0.999999999999985,-5.38777314815906E-16));
#339=DIRECTION('',(-0.999999999999985,-1.74845553725617E-7,3.122502256758E-17));
#340=DIRECTION('',(1.74845553725617E-7,-0.999999999999985,3.323771426894E-18));
#341=DIRECTION('',(0.999999999999985,1.74845553725617E-7,-3.122502256758E-17));
#342=DIRECTION('',(1.74845553725617E-7,-0.999999999999985,3.323771426894E-18));
#343=DIRECTION('',(-1.74845553725617E-7,0.999999999999985,-3.323771426894E-18));
#344=DIRECTION('',(0.999999999999985,1.74845553725617E-7,-3.12250225675825E-17));
#345=DIRECTION('',(-3.12250219864329E-17,-3.32377688645031E-18,-1.));
#346=DIRECTION('',(-0.999999999999985,-1.74845553725617E-7,3.122502256758E-17));
#347=DIRECTION('',(-3.12250219864329E-17,-3.32377688645031E-18,-1.));
#348=DIRECTION('',(-3.12251167703975E-17,5.38777309356341E-16,-1.));
#349=DIRECTION('',(1.7484555372288E-7,-0.999999999999985,-5.38777314815906E-16));
#350=DIRECTION('',(-0.999999999999985,-1.74845553725617E-7,3.122502256758E-17));
#351=DIRECTION('',(-1.74845553725617E-7,0.999999999999985,-3.323771426894E-18));
#352=DIRECTION('',(-1.74845553725617E-7,0.999999999999985,-3.323771426894E-18));
#353=DIRECTION('',(0.999999999999985,1.74845553725617E-7,-3.122502256758E-17));
#354=DIRECTION('',(1.74845553725617E-7,-0.999999999999985,3.04647243223408E-32));
#355=DIRECTION('',(0.999999999999985,1.74845553725617E-7,-3.122502256758E-17));
#356=DIRECTION('',(-1.74845553725617E-7,0.999999999999985,-3.04647243223408E-32));
#357=DIRECTION('',(0.999999999999985,1.74845553725617E-7,-3.122502256758E-17));
#358=DIRECTION('',(-1.74845553725617E-7,0.999999999999985,-3.04647243223408E-32));
#359=DIRECTION('',(0.999999999999985,1.74845553725617E-7,-3.122502256758E-17));
#360=DIRECTION('',(1.74845553725617E-7,-0.999999999999985,3.04628508782191E-32));
#361=DIRECTION('',(-0.999999999999985,-1.74845553725617E-7,3.122502256758E-17));
#362=DIRECTION('',(-0.999999999999985,-1.74845553725617E-7,3.122502256758E-17));
#363=DIRECTION('',(-1.74845553725617E-7,0.999999999999985,1.05709711817303E-13));
#364=DIRECTION('',(-0.999999999999985,-1.74845553725617E-7,3.122502256758E-17));
#365=DIRECTION('',(-1.74845553725617E-7,0.999999999999985,1.05709711817303E-13));
#366=DIRECTION('',(0.999999999999985,1.74845553725617E-7,-3.122502256758E-17));
#367=DIRECTION('',(1.74845553725617E-7,-0.999999999999985,3.36102673470506E-18));
#368=DIRECTION('',(-3.00171726284735E-8,0.171678215542959,0.985153079631782));
#369=DIRECTION('',(0.999999999999985,1.74845553725617E-7,-3.122502256758E-17));
#370=DIRECTION('',(-1.74845553725617E-7,0.999999999999985,-3.04647243223408E-32));
#371=DIRECTION('',(0.999999999999985,1.74845553725617E-7,-3.122502256758E-17));
#372=DIRECTION('',(1.74845553725617E-7,-0.999999999999985,3.04647243223408E-32));
#373=DIRECTION('',(0.999999999999985,1.74845553725617E-7,-3.122502256758E-17));
#374=DIRECTION('',(0.999999999999985,1.74845553725617E-7,-3.122502256758E-17));
#375=DIRECTION('',(-1.74845553725617E-7,0.999999999999985,-3.04647243223408E-32));
#376=DIRECTION('',(0.999999999999985,1.74845553725617E-7,-3.122502256758E-17));
#377=DIRECTION('',(1.74845553725617E-7,-0.999999999999985,3.36102673470506E-18));
#378=DIRECTION('',(3.00171726284735E-8,-0.171678215542959,-0.985153079631782));
#379=DIRECTION('',(-1.72249635718076E-7,0.985153079631767,-0.171678215542962));
#380=DIRECTION('',(3.00171726294597E-8,-0.171678215542959,-0.985153079631782));
#381=CARTESIAN_POINT('',(0.,0.,0.));
#382=CARTESIAN_POINT('',(0.0434208238467984,0.166359662889603,0.00090686724783073));
#383=CARTESIAN_POINT('',(0.0434208238467984,0.166359662889602,0.000906867247830776));
#384=CARTESIAN_POINT('',(0.0434208238467984,0.166359662889603,0.00090686724783074));
#385=CARTESIAN_POINT('',(0.0438208238467984,0.166359662959541,0.00090686724783074));
#386=CARTESIAN_POINT('',(0.0438208238691733,0.166231693575467,0.000172531604722));
#387=CARTESIAN_POINT('',(0.0438208238691733,0.166231693575467,0.000172531604722001));
#388=CARTESIAN_POINT('',(0.0434208238691733,0.166231693505529,0.000172531604721989));
#389=CARTESIAN_POINT('',(0.0434208238691733,0.166231693505529,0.000172531604722001));
#390=CARTESIAN_POINT('',(0.0434208238691733,0.166231693505529,0.000172531604722));
#391=CARTESIAN_POINT('',(0.0434208238399084,0.166399069012788,0.000900000119209));
#392=CARTESIAN_POINT('',(0.0434208238399084,0.166399069012788,0.000900000119209));
#393=CARTESIAN_POINT('',(0.0434208238399084,0.166399069012788,0.000940000119209));
#394=CARTESIAN_POINT('',(0.0434208238399084,0.166399069012788,0.000940000119209));
#395=CARTESIAN_POINT('',(0.0438208238399084,0.166399069082726,0.000940000119209));
#396=CARTESIAN_POINT('',(0.0438208238399084,0.166399069082726,0.000900000119209));
#397=CARTESIAN_POINT('',(0.0434208238399084,0.166399069012788,0.000940000119209));
#398=CARTESIAN_POINT('',(0.0434208238224239,0.166499069012788,0.000940000119209));
#399=CARTESIAN_POINT('',(0.0434208238224239,0.166499069012788,0.000940000119209));
#400=CARTESIAN_POINT('',(0.0438208238224239,0.166499069082726,0.000940000119209));
#401=CARTESIAN_POINT('',(0.0438208238399084,0.166399069082726,0.000940000119209));
#402=CARTESIAN_POINT('',(0.0434208238399084,0.166399069012788,0.000940000119209));
#403=CARTESIAN_POINT('',(0.0434208238224239,0.166499069012788,0.001060000119209));
#404=CARTESIAN_POINT('',(0.0434208238224239,0.166499069012788,0.000900000119209));
#405=CARTESIAN_POINT('',(0.0434208238224239,0.166499069012788,0.001060000119209));
#406=CARTESIAN_POINT('',(0.0434208238224239,0.166499069012788,0.001060000119209));
#407=CARTESIAN_POINT('',(0.0438208238224239,0.166499069082726,0.001060000119209));
#408=CARTESIAN_POINT('',(0.0438208238224239,0.166499069082726,0.000900000119209));
#409=CARTESIAN_POINT('',(0.0434208238399084,0.166399069012788,0.001060000119209));
#410=CARTESIAN_POINT('',(0.0434208238399084,0.166399069012788,0.001060000119209));
#411=CARTESIAN_POINT('',(0.0434208238399084,0.166399069012788,0.001060000119209));
#412=CARTESIAN_POINT('',(0.0434208238399084,0.166399069012788,0.001060000119209));
#413=CARTESIAN_POINT('',(0.0438208238399084,0.166399069082726,0.001060000119209));
#414=CARTESIAN_POINT('',(0.0438208238399084,0.166399069082726,0.001060000119209));
#415=CARTESIAN_POINT('',(0.0434208239317023,0.165874069012788,0.000160000119209));
#416=CARTESIAN_POINT('',(0.0434208238967332,0.166074069012788,0.000160000119209));
#417=CARTESIAN_POINT('',(0.0438208238967332,0.166074069082726,0.000160000119209));
#418=CARTESIAN_POINT('',(0.0434208238967332,0.166074069012788,0.000160000119209));
#419=CARTESIAN_POINT('',(0.0434208238399084,0.166399069012788,0.000160000119209));
#420=CARTESIAN_POINT('',(0.0434208239317023,0.165874069012788,0.000160000119209));
#421=CARTESIAN_POINT('',(0.0434208239317023,0.165874069012788,0.000160000119209));
#422=CARTESIAN_POINT('',(0.0438208239317023,0.165874069082726,0.000160000119209));
#423=CARTESIAN_POINT('',(0.0438208238399084,0.166399069082726,0.000160000119209));
#424=CARTESIAN_POINT('',(0.0434208239317023,0.165874069012788,4.00001192090001E-5));
#425=CARTESIAN_POINT('',(0.0434208239317023,0.165874069012788,0.000900000119209));
#426=CARTESIAN_POINT('',(0.0434208239317023,0.165874069012788,4.00001192090001E-5));
#427=CARTESIAN_POINT('',(0.0434208239317023,0.165874069012788,4.00001192090001E-5));
#428=CARTESIAN_POINT('',(0.0438208239317023,0.165874069082726,4.00001192090001E-5));
#429=CARTESIAN_POINT('',(0.0438208239317023,0.165874069082726,0.000900000119209));
#430=CARTESIAN_POINT('',(0.0434208239317023,0.165874069012788,4.00001192090001E-5));
#431=CARTESIAN_POINT('',(0.0434208238967332,0.166074069012788,4.00001192090001E-5));
#432=CARTESIAN_POINT('',(0.0438208238967332,0.166074069082726,4.00001192090001E-5));
#433=CARTESIAN_POINT('',(0.0434208238967332,0.166074069012788,4.00001192090001E-5));
#434=CARTESIAN_POINT('',(0.0438208238399084,0.166399069082726,4.00001192090001E-5));
#435=CARTESIAN_POINT('',(0.0434208238399084,0.166399069012788,4.00001192090001E-5));
#436=CARTESIAN_POINT('',(0.0434208238967332,0.166074069012788,0.000200000119209));
#437=CARTESIAN_POINT('',(0.0438208238967332,0.166074069082726,0.000200000119209));
#438=CARTESIAN_POINT('',(0.0434208238967332,0.166074069012788,0.000200000119209));
#439=CARTESIAN_POINT('',(0.0434208238967332,0.166074069012788,0.000200000119209));
#440=CARTESIAN_POINT('',(0.0434208238898432,0.166113475135973,0.000193132990586906));
#441=CARTESIAN_POINT('',(0.0438208238898432,0.166113475205911,0.000193132990587065));
#442=CARTESIAN_POINT('',(0.0434208238898432,0.166113475135973,0.000193132990587065));
#443=CARTESIAN_POINT('',(0.0434208238967332,0.166074069012788,0.000200000119209));
#444=CARTESIAN_POINT('',(0.0438208238967332,0.166074069082726,0.000200000119209));
#445=CARTESIAN_POINT('',(0.0434208238399084,0.166399069012788,0.000900000119209));
#446=CARTESIAN_POINT('',(0.0434208238674684,0.166241444520047,0.00092746863369593));
#447=CARTESIAN_POINT('',(0.0434208238674684,0.166241444520047,0.000927468633695896));
#448=CARTESIAN_POINT('',(0.0434208238399084,0.166399069012788,0.000900000119209));
#449=CARTESIAN_POINT('',(0.0434208238399084,0.166399069012788,0.000900000119209));
#450=CARTESIAN_POINT('',(0.0434208238674684,0.166241444520047,0.00092746863369593));
#451=CARTESIAN_POINT('',(0.0438208238674684,0.166241444589985,0.000927468633695896));
#452=CARTESIAN_POINT('',(0.0438208238399084,0.166399069082726,0.000900000119209));
#453=CARTESIAN_POINT('',(0.0438208238399084,0.166399069082726,0.000900000119209));
#454=CARTESIAN_POINT('',(0.0438208238674684,0.166241444589985,0.00092746863369593));
#455=CARTESIAN_POINT('',(0.0434208238674684,0.166241444520047,0.00092746863369593));
#456=MECHANICAL_DESIGN_GEOMETRIC_PRESENTATION_REPRESENTATION('',(#273),
#457);
#457=(
GEOMETRIC_REPRESENTATION_CONTEXT(3)
GLOBAL_UNCERTAINTY_ASSIGNED_CONTEXT((#458))
GLOBAL_UNIT_ASSIGNED_CONTEXT((#461,#460,#459))
REPRESENTATION_CONTEXT('fb_chip','TOP_LEVEL_ASSEMBLY_PART')
);
#458=UNCERTAINTY_MEASURE_WITH_UNIT(LENGTH_MEASURE(5.E-6),#461,
'DISTANCE_ACCURACY_VALUE','Maximum Tolerance applied to model');
#459=(
NAMED_UNIT(*)
SI_UNIT($,.STERADIAN.)
SOLID_ANGLE_UNIT()
);
#460=(
NAMED_UNIT(*)
PLANE_ANGLE_UNIT()
SI_UNIT($,.RADIAN.)
);
#461=(
LENGTH_UNIT()
NAMED_UNIT(*)
SI_UNIT($,.METRE.)
);
#462=PRODUCT_DEFINITION_SHAPE('','',#463);
#463=PRODUCT_DEFINITION('','',#465,#464);
#464=PRODUCT_DEFINITION_CONTEXT('',#471,'design');
#465=PRODUCT_DEFINITION_FORMATION_WITH_SPECIFIED_SOURCE('','',#467,
 .NOT_KNOWN.);
#466=PRODUCT_RELATED_PRODUCT_CATEGORY('','',(#467));
#467=PRODUCT('fb_chip','fb_chip','fb_chip',(#469));
#468=PRODUCT_CATEGORY('','');
#469=PRODUCT_CONTEXT('',#471,'mechanical');
#470=APPLICATION_PROTOCOL_DEFINITION('international standard',
'automotive_design',2010,#471);
#471=APPLICATION_CONTEXT(
'core data for automotive mechanical design processes');
ENDSEC;
END-ISO-10303-21;
