ISO-10303-21;
HEADER;
/* Generated by software containing ST-Developer
 * from STEP Tools, Inc. (www.steptools.com) 
 */
/* OPTION: using custom renumber hook */

FILE_DESCRIPTION(
/* description */ ('STEP AP214'),
/* implementation_level */ '2;1');

FILE_NAME(
/* name */ '654cf58f7f9aa566be1721eb',
/* time_stamp */ '2023-11-09T15:06:56Z',
/* author */ (''),
/* organization */ (''),
/* preprocessor_version */ 'ST-DEVELOPER v19.4',
/* originating_system */ '  ',
/* authorisation */ '  ');

FILE_SCHEMA (('AUTOMOTIVE_DESIGN {1 0 10303 214 3 1 1}'));
ENDSEC;

DATA;
#10=PROPERTY_DEFINITION_REPRESENTATION(#14,#12);
#11=PROPERTY_DEFINITION_REPRESENTATION(#15,#13);
#12=REPRESENTATION('',(#16),#553);
#13=REPRESENTATION('',(#17),#553);
#14=PROPERTY_DEFINITION('pmi validation property','',#558);
#15=PROPERTY_DEFINITION('pmi validation property','',#558);
#16=VALUE_REPRESENTATION_ITEM('number of annotations',COUNT_MEASURE(0.));
#17=VALUE_REPRESENTATION_ITEM('number of views',COUNT_MEASURE(0.));
#18=SHAPE_REPRESENTATION_RELATIONSHIP('','',#327,#19);
#19=ADVANCED_BREP_SHAPE_REPRESENTATION('',(#325),#553);
#20=LINE('',#497,#36);
#21=LINE('',#502,#37);
#22=LINE('',#506,#38);
#23=LINE('',#510,#39);
#24=LINE('',#518,#40);
#25=LINE('',#523,#41);
#26=LINE('',#527,#42);
#27=LINE('',#531,#43);
#28=LINE('',#536,#44);
#29=LINE('',#537,#45);
#30=LINE('',#540,#46);
#31=LINE('',#542,#47);
#32=LINE('',#544,#48);
#33=LINE('',#546,#49);
#34=LINE('',#548,#50);
#35=LINE('',#550,#51);
#36=VECTOR('',#409,1.);
#37=VECTOR('',#412,1.);
#38=VECTOR('',#415,1.);
#39=VECTOR('',#418,1.);
#40=VECTOR('',#427,1.);
#41=VECTOR('',#430,1.);
#42=VECTOR('',#433,1.);
#43=VECTOR('',#436,1.);
#44=VECTOR('',#443,1.);
#45=VECTOR('',#444,1.);
#46=VECTOR('',#449,1.);
#47=VECTOR('',#452,1.);
#48=VECTOR('',#455,1.);
#49=VECTOR('',#458,1.);
#50=VECTOR('',#461,1.);
#51=VECTOR('',#464,1.);
#52=CYLINDRICAL_SURFACE('',#344,0.012);
#53=CYLINDRICAL_SURFACE('',#359,0.0015);
#54=CYLINDRICAL_SURFACE('',#360,0.02);
#55=CYLINDRICAL_SURFACE('',#361,0.0015);
#56=CYLINDRICAL_SURFACE('',#363,0.00399999999999902);
#57=CYLINDRICAL_SURFACE('',#365,0.02);
#58=CYLINDRICAL_SURFACE('',#367,0.00399999999999902);
#59=DEGENERATE_TOROIDAL_SURFACE('',#343,0.00205012562893412,0.00999999999999959,
 .T.);
#60=PLANE('',#342);
#61=PLANE('',#345);
#62=PLANE('',#352);
#63=PLANE('',#362);
#64=PLANE('',#364);
#65=PLANE('',#366);
#66=PLANE('',#368);
#67=SPHERICAL_SURFACE('',#341,0.008);
#68=ORIENTED_EDGE('',*,*,#140,.F.);
#69=ORIENTED_EDGE('',*,*,#141,.F.);
#70=ORIENTED_EDGE('',*,*,#142,.F.);
#71=ORIENTED_EDGE('',*,*,#143,.F.);
#72=ORIENTED_EDGE('',*,*,#144,.F.);
#73=ORIENTED_EDGE('',*,*,#145,.F.);
#74=ORIENTED_EDGE('',*,*,#146,.F.);
#75=ORIENTED_EDGE('',*,*,#147,.F.);
#76=ORIENTED_EDGE('',*,*,#143,.T.);
#77=ORIENTED_EDGE('',*,*,#142,.T.);
#78=ORIENTED_EDGE('',*,*,#145,.T.);
#79=ORIENTED_EDGE('',*,*,#144,.T.);
#80=ORIENTED_EDGE('',*,*,#141,.T.);
#81=ORIENTED_EDGE('',*,*,#140,.T.);
#82=ORIENTED_EDGE('',*,*,#146,.T.);
#83=ORIENTED_EDGE('',*,*,#148,.F.);
#84=ORIENTED_EDGE('',*,*,#149,.F.);
#85=ORIENTED_EDGE('',*,*,#150,.T.);
#86=ORIENTED_EDGE('',*,*,#151,.T.);
#87=ORIENTED_EDGE('',*,*,#152,.T.);
#88=ORIENTED_EDGE('',*,*,#153,.T.);
#89=ORIENTED_EDGE('',*,*,#154,.T.);
#90=ORIENTED_EDGE('',*,*,#155,.T.);
#91=ORIENTED_EDGE('',*,*,#156,.T.);
#92=ORIENTED_EDGE('',*,*,#157,.T.);
#93=ORIENTED_EDGE('',*,*,#147,.T.);
#94=ORIENTED_EDGE('',*,*,#158,.T.);
#95=ORIENTED_EDGE('',*,*,#159,.T.);
#96=ORIENTED_EDGE('',*,*,#160,.F.);
#97=ORIENTED_EDGE('',*,*,#161,.F.);
#98=ORIENTED_EDGE('',*,*,#162,.F.);
#99=ORIENTED_EDGE('',*,*,#163,.F.);
#100=ORIENTED_EDGE('',*,*,#164,.F.);
#101=ORIENTED_EDGE('',*,*,#165,.F.);
#102=ORIENTED_EDGE('',*,*,#166,.F.);
#103=ORIENTED_EDGE('',*,*,#167,.F.);
#104=ORIENTED_EDGE('',*,*,#148,.T.);
#105=ORIENTED_EDGE('',*,*,#158,.F.);
#106=ORIENTED_EDGE('',*,*,#157,.F.);
#107=ORIENTED_EDGE('',*,*,#168,.F.);
#108=ORIENTED_EDGE('',*,*,#161,.T.);
#109=ORIENTED_EDGE('',*,*,#169,.T.);
#110=ORIENTED_EDGE('',*,*,#149,.T.);
#111=ORIENTED_EDGE('',*,*,#159,.F.);
#112=ORIENTED_EDGE('',*,*,#156,.F.);
#113=ORIENTED_EDGE('',*,*,#170,.F.);
#114=ORIENTED_EDGE('',*,*,#162,.T.);
#115=ORIENTED_EDGE('',*,*,#168,.T.);
#116=ORIENTED_EDGE('',*,*,#155,.F.);
#117=ORIENTED_EDGE('',*,*,#171,.F.);
#118=ORIENTED_EDGE('',*,*,#163,.T.);
#119=ORIENTED_EDGE('',*,*,#170,.T.);
#120=ORIENTED_EDGE('',*,*,#154,.F.);
#121=ORIENTED_EDGE('',*,*,#172,.F.);
#122=ORIENTED_EDGE('',*,*,#164,.T.);
#123=ORIENTED_EDGE('',*,*,#171,.T.);
#124=ORIENTED_EDGE('',*,*,#153,.F.);
#125=ORIENTED_EDGE('',*,*,#173,.F.);
#126=ORIENTED_EDGE('',*,*,#165,.T.);
#127=ORIENTED_EDGE('',*,*,#172,.T.);
#128=ORIENTED_EDGE('',*,*,#152,.F.);
#129=ORIENTED_EDGE('',*,*,#174,.F.);
#130=ORIENTED_EDGE('',*,*,#166,.T.);
#131=ORIENTED_EDGE('',*,*,#173,.T.);
#132=ORIENTED_EDGE('',*,*,#151,.F.);
#133=ORIENTED_EDGE('',*,*,#175,.F.);
#134=ORIENTED_EDGE('',*,*,#167,.T.);
#135=ORIENTED_EDGE('',*,*,#174,.T.);
#136=ORIENTED_EDGE('',*,*,#150,.F.);
#137=ORIENTED_EDGE('',*,*,#169,.F.);
#138=ORIENTED_EDGE('',*,*,#160,.T.);
#139=ORIENTED_EDGE('',*,*,#175,.T.);
#140=EDGE_CURVE('',#176,#176,#204,.T.);
#141=EDGE_CURVE('',#177,#177,#205,.T.);
#142=EDGE_CURVE('',#178,#178,#206,.T.);
#143=EDGE_CURVE('',#179,#179,#207,.T.);
#144=EDGE_CURVE('',#180,#180,#208,.T.);
#145=EDGE_CURVE('',#181,#181,#209,.T.);
#146=EDGE_CURVE('',#182,#182,#210,.T.);
#147=EDGE_CURVE('',#183,#183,#211,.T.);
#148=EDGE_CURVE('',#184,#184,#212,.T.);
#149=EDGE_CURVE('',#185,#185,#213,.T.);
#150=EDGE_CURVE('',#186,#187,#20,.T.);
#151=EDGE_CURVE('',#187,#188,#214,.T.);
#152=EDGE_CURVE('',#188,#189,#21,.T.);
#153=EDGE_CURVE('',#189,#190,#215,.T.);
#154=EDGE_CURVE('',#190,#191,#22,.T.);
#155=EDGE_CURVE('',#191,#192,#216,.T.);
#156=EDGE_CURVE('',#192,#193,#23,.T.);
#157=EDGE_CURVE('',#193,#186,#217,.T.);
#158=EDGE_CURVE('',#194,#194,#218,.T.);
#159=EDGE_CURVE('',#195,#195,#219,.T.);
#160=EDGE_CURVE('',#196,#197,#24,.T.);
#161=EDGE_CURVE('',#198,#196,#220,.T.);
#162=EDGE_CURVE('',#199,#198,#25,.T.);
#163=EDGE_CURVE('',#200,#199,#221,.T.);
#164=EDGE_CURVE('',#201,#200,#26,.T.);
#165=EDGE_CURVE('',#202,#201,#222,.T.);
#166=EDGE_CURVE('',#203,#202,#27,.T.);
#167=EDGE_CURVE('',#197,#203,#223,.T.);
#168=EDGE_CURVE('',#198,#193,#28,.T.);
#169=EDGE_CURVE('',#196,#186,#29,.T.);
#170=EDGE_CURVE('',#199,#192,#30,.T.);
#171=EDGE_CURVE('',#200,#191,#31,.T.);
#172=EDGE_CURVE('',#201,#190,#32,.T.);
#173=EDGE_CURVE('',#202,#189,#33,.T.);
#174=EDGE_CURVE('',#203,#188,#34,.T.);
#175=EDGE_CURVE('',#197,#187,#35,.T.);
#176=VERTEX_POINT('',#470);
#177=VERTEX_POINT('',#472);
#178=VERTEX_POINT('',#475);
#179=VERTEX_POINT('',#477);
#180=VERTEX_POINT('',#480);
#181=VERTEX_POINT('',#482);
#182=VERTEX_POINT('',#485);
#183=VERTEX_POINT('',#487);
#184=VERTEX_POINT('',#494);
#185=VERTEX_POINT('',#496);
#186=VERTEX_POINT('',#498);
#187=VERTEX_POINT('',#499);
#188=VERTEX_POINT('',#501);
#189=VERTEX_POINT('',#503);
#190=VERTEX_POINT('',#505);
#191=VERTEX_POINT('',#507);
#192=VERTEX_POINT('',#509);
#193=VERTEX_POINT('',#511);
#194=VERTEX_POINT('',#515);
#195=VERTEX_POINT('',#517);
#196=VERTEX_POINT('',#519);
#197=VERTEX_POINT('',#520);
#198=VERTEX_POINT('',#522);
#199=VERTEX_POINT('',#524);
#200=VERTEX_POINT('',#526);
#201=VERTEX_POINT('',#528);
#202=VERTEX_POINT('',#530);
#203=VERTEX_POINT('',#532);
#204=CIRCLE('',#330,0.012);
#205=CIRCLE('',#331,0.0119498743710661);
#206=CIRCLE('',#333,0.00743975806058235);
#207=CIRCLE('',#334,0.00708548386722128);
#208=CIRCLE('',#336,0.00931196940307271);
#209=CIRCLE('',#337,0.00902149565210715);
#210=CIRCLE('',#339,0.012);
#211=CIRCLE('',#340,0.013);
#212=CIRCLE('',#346,0.0015);
#213=CIRCLE('',#347,0.0015);
#214=CIRCLE('',#348,0.00399999999999902);
#215=CIRCLE('',#349,0.02);
#216=CIRCLE('',#350,0.00399999999999902);
#217=CIRCLE('',#351,0.02);
#218=CIRCLE('',#353,0.0015);
#219=CIRCLE('',#354,0.0015);
#220=CIRCLE('',#355,0.02);
#221=CIRCLE('',#356,0.00399999999999902);
#222=CIRCLE('',#357,0.02);
#223=CIRCLE('',#358,0.00399999999999902);
#224=EDGE_LOOP('',(#68));
#225=EDGE_LOOP('',(#69));
#226=EDGE_LOOP('',(#70));
#227=EDGE_LOOP('',(#71));
#228=EDGE_LOOP('',(#72));
#229=EDGE_LOOP('',(#73));
#230=EDGE_LOOP('',(#74));
#231=EDGE_LOOP('',(#75));
#232=EDGE_LOOP('',(#76));
#233=EDGE_LOOP('',(#77));
#234=EDGE_LOOP('',(#78));
#235=EDGE_LOOP('',(#79));
#236=EDGE_LOOP('',(#80));
#237=EDGE_LOOP('',(#81));
#238=EDGE_LOOP('',(#82));
#239=EDGE_LOOP('',(#83));
#240=EDGE_LOOP('',(#84));
#241=EDGE_LOOP('',(#85,#86,#87,#88,#89,#90,#91,#92));
#242=EDGE_LOOP('',(#93));
#243=EDGE_LOOP('',(#94));
#244=EDGE_LOOP('',(#95));
#245=EDGE_LOOP('',(#96,#97,#98,#99,#100,#101,#102,#103));
#246=EDGE_LOOP('',(#104));
#247=EDGE_LOOP('',(#105));
#248=EDGE_LOOP('',(#106,#107,#108,#109));
#249=EDGE_LOOP('',(#110));
#250=EDGE_LOOP('',(#111));
#251=EDGE_LOOP('',(#112,#113,#114,#115));
#252=EDGE_LOOP('',(#116,#117,#118,#119));
#253=EDGE_LOOP('',(#120,#121,#122,#123));
#254=EDGE_LOOP('',(#124,#125,#126,#127));
#255=EDGE_LOOP('',(#128,#129,#130,#131));
#256=EDGE_LOOP('',(#132,#133,#134,#135));
#257=EDGE_LOOP('',(#136,#137,#138,#139));
#258=FACE_BOUND('',#224,.T.);
#259=FACE_BOUND('',#225,.T.);
#260=FACE_BOUND('',#226,.T.);
#261=FACE_BOUND('',#227,.T.);
#262=FACE_BOUND('',#228,.T.);
#263=FACE_BOUND('',#229,.T.);
#264=FACE_BOUND('',#230,.T.);
#265=FACE_BOUND('',#231,.T.);
#266=FACE_BOUND('',#232,.T.);
#267=FACE_BOUND('',#233,.T.);
#268=FACE_BOUND('',#234,.T.);
#269=FACE_BOUND('',#235,.T.);
#270=FACE_BOUND('',#236,.T.);
#271=FACE_BOUND('',#237,.T.);
#272=FACE_BOUND('',#238,.T.);
#273=FACE_BOUND('',#239,.T.);
#274=FACE_BOUND('',#240,.T.);
#275=FACE_BOUND('',#241,.T.);
#276=FACE_BOUND('',#242,.T.);
#277=FACE_BOUND('',#243,.T.);
#278=FACE_BOUND('',#244,.T.);
#279=FACE_BOUND('',#245,.T.);
#280=FACE_BOUND('',#246,.T.);
#281=FACE_BOUND('',#247,.T.);
#282=FACE_BOUND('',#248,.T.);
#283=FACE_BOUND('',#249,.T.);
#284=FACE_BOUND('',#250,.T.);
#285=FACE_BOUND('',#251,.T.);
#286=FACE_BOUND('',#252,.T.);
#287=FACE_BOUND('',#253,.T.);
#288=FACE_BOUND('',#254,.T.);
#289=FACE_BOUND('',#255,.T.);
#290=FACE_BOUND('',#256,.T.);
#291=FACE_BOUND('',#257,.T.);
#292=TOROIDAL_SURFACE('',#329,0.007,0.005);
#293=TOROIDAL_SURFACE('',#332,0.00743975806058235,0.0004);
#294=TOROIDAL_SURFACE('',#335,0.00902149565210715,0.0004);
#295=TOROIDAL_SURFACE('',#338,0.013,0.001);
#296=ADVANCED_FACE('',(#258,#259),#292,.T.);
#297=ADVANCED_FACE('',(#260,#261),#293,.F.);
#298=ADVANCED_FACE('',(#262,#263),#294,.T.);
#299=ADVANCED_FACE('',(#264,#265),#295,.F.);
#300=ADVANCED_FACE('',(#266),#67,.T.);
#301=ADVANCED_FACE('',(#267,#268),#60,.T.);
#302=ADVANCED_FACE('',(#269,#270),#59,.T.);
#303=ADVANCED_FACE('',(#271,#272),#52,.T.);
#304=ADVANCED_FACE('',(#273,#274,#275),#61,.T.);
#305=ADVANCED_FACE('',(#276,#277,#278,#279),#62,.F.);
#306=ADVANCED_FACE('',(#280,#281),#53,.F.);
#307=ADVANCED_FACE('',(#282),#54,.T.);
#308=ADVANCED_FACE('',(#283,#284),#55,.F.);
#309=ADVANCED_FACE('',(#285),#63,.T.);
#310=ADVANCED_FACE('',(#286),#56,.T.);
#311=ADVANCED_FACE('',(#287),#64,.T.);
#312=ADVANCED_FACE('',(#288),#57,.T.);
#313=ADVANCED_FACE('',(#289),#65,.T.);
#314=ADVANCED_FACE('',(#290),#58,.T.);
#315=ADVANCED_FACE('',(#291),#66,.T.);
#316=CLOSED_SHELL('',(#296,#297,#298,#299,#300,#301,#302,#303,#304,#305,
#306,#307,#308,#309,#310,#311,#312,#313,#314,#315));
#317=STYLED_ITEM('',(#318),#325);
#318=PRESENTATION_STYLE_ASSIGNMENT((#319));
#319=SURFACE_STYLE_USAGE(.BOTH.,#320);
#320=SURFACE_SIDE_STYLE('',(#321));
#321=SURFACE_STYLE_FILL_AREA(#322);
#322=FILL_AREA_STYLE('',(#323));
#323=FILL_AREA_STYLE_COLOUR('',#324);
#324=COLOUR_RGB('',0.694117647058824,0.694117647058824,0.694117647058824);
#325=MANIFOLD_SOLID_BREP('hudson_bearing',#316);
#326=SHAPE_DEFINITION_REPRESENTATION(#558,#327);
#327=SHAPE_REPRESENTATION('hudson_bearing',(#328),#553);
#328=AXIS2_PLACEMENT_3D('',#467,#369,#370);
#329=AXIS2_PLACEMENT_3D('',#468,#371,#372);
#330=AXIS2_PLACEMENT_3D('',#469,#373,#374);
#331=AXIS2_PLACEMENT_3D('',#471,#375,#376);
#332=AXIS2_PLACEMENT_3D('',#473,#377,#378);
#333=AXIS2_PLACEMENT_3D('',#474,#379,#380);
#334=AXIS2_PLACEMENT_3D('',#476,#381,#382);
#335=AXIS2_PLACEMENT_3D('',#478,#383,#384);
#336=AXIS2_PLACEMENT_3D('',#479,#385,#386);
#337=AXIS2_PLACEMENT_3D('',#481,#387,#388);
#338=AXIS2_PLACEMENT_3D('',#483,#389,#390);
#339=AXIS2_PLACEMENT_3D('',#484,#391,#392);
#340=AXIS2_PLACEMENT_3D('',#486,#393,#394);
#341=AXIS2_PLACEMENT_3D('',#488,#395,#396);
#342=AXIS2_PLACEMENT_3D('',#489,#397,#398);
#343=AXIS2_PLACEMENT_3D('',#490,#399,#400);
#344=AXIS2_PLACEMENT_3D('',#491,#401,#402);
#345=AXIS2_PLACEMENT_3D('',#492,#403,#404);
#346=AXIS2_PLACEMENT_3D('',#493,#405,#406);
#347=AXIS2_PLACEMENT_3D('',#495,#407,#408);
#348=AXIS2_PLACEMENT_3D('',#500,#410,#411);
#349=AXIS2_PLACEMENT_3D('',#504,#413,#414);
#350=AXIS2_PLACEMENT_3D('',#508,#416,#417);
#351=AXIS2_PLACEMENT_3D('',#512,#419,#420);
#352=AXIS2_PLACEMENT_3D('',#513,#421,#422);
#353=AXIS2_PLACEMENT_3D('',#514,#423,#424);
#354=AXIS2_PLACEMENT_3D('',#516,#425,#426);
#355=AXIS2_PLACEMENT_3D('',#521,#428,#429);
#356=AXIS2_PLACEMENT_3D('',#525,#431,#432);
#357=AXIS2_PLACEMENT_3D('',#529,#434,#435);
#358=AXIS2_PLACEMENT_3D('',#533,#437,#438);
#359=AXIS2_PLACEMENT_3D('',#534,#439,#440);
#360=AXIS2_PLACEMENT_3D('',#535,#441,#442);
#361=AXIS2_PLACEMENT_3D('',#538,#445,#446);
#362=AXIS2_PLACEMENT_3D('',#539,#447,#448);
#363=AXIS2_PLACEMENT_3D('',#541,#450,#451);
#364=AXIS2_PLACEMENT_3D('',#543,#453,#454);
#365=AXIS2_PLACEMENT_3D('',#545,#456,#457);
#366=AXIS2_PLACEMENT_3D('',#547,#459,#460);
#367=AXIS2_PLACEMENT_3D('',#549,#462,#463);
#368=AXIS2_PLACEMENT_3D('',#551,#465,#466);
#369=DIRECTION('',(0.,0.,1.));
#370=DIRECTION('',(1.,0.,0.));
#371=DIRECTION('',(0.,0.,1.));
#372=DIRECTION('',(1.,0.,0.));
#373=DIRECTION('',(0.,0.,-1.));
#374=DIRECTION('',(1.,0.,0.));
#375=DIRECTION('',(0.,0.,1.));
#376=DIRECTION('',(-1.,0.,0.));
#377=DIRECTION('',(0.,0.,1.));
#378=DIRECTION('',(1.,0.,0.));
#379=DIRECTION('',(0.,0.,-1.));
#380=DIRECTION('',(1.,0.,0.));
#381=DIRECTION('',(0.,0.,1.));
#382=DIRECTION('',(-1.,0.,0.));
#383=DIRECTION('',(0.,0.,1.));
#384=DIRECTION('',(1.,0.,0.));
#385=DIRECTION('',(0.,0.,-1.));
#386=DIRECTION('',(-1.,0.,0.));
#387=DIRECTION('',(0.,0.,1.));
#388=DIRECTION('',(1.,0.,0.));
#389=DIRECTION('',(0.,0.,-1.));
#390=DIRECTION('',(-1.,0.,0.));
#391=DIRECTION('',(0.,0.,1.));
#392=DIRECTION('',(-1.,0.,0.));
#393=DIRECTION('',(0.,0.,-1.));
#394=DIRECTION('',(-1.,0.,0.));
#395=DIRECTION('',(0.,1.22464679914735E-16,-1.));
#396=DIRECTION('',(0.,1.,0.));
#397=DIRECTION('',(0.,0.,1.));
#398=DIRECTION('',(1.,0.,0.));
#399=DIRECTION('',(5.5886893552434E-16,-5.5886893552434E-16,-1.));
#400=DIRECTION('',(-1.,0.,-5.5886893552434E-16));
#401=DIRECTION('',(0.,0.,-1.));
#402=DIRECTION('',(-1.,0.,0.));
#403=DIRECTION('',(0.,0.,-1.));
#404=DIRECTION('',(-1.,0.,0.));
#405=DIRECTION('',(0.,0.,-1.));
#406=DIRECTION('',(1.,1.22464679914735E-16,0.));
#407=DIRECTION('',(0.,0.,-1.));
#408=DIRECTION('',(1.,1.22464679914735E-16,0.));
#409=DIRECTION('',(-0.80000000000001,0.599999999999987,0.));
#410=DIRECTION('',(0.,0.,-1.));
#411=DIRECTION('',(1.,1.22464679914735E-16,0.));
#412=DIRECTION('',(0.800000000000009,0.599999999999988,0.));
#413=DIRECTION('',(0.,0.,-1.));
#414=DIRECTION('',(1.,1.30104260698262E-16,0.));
#415=DIRECTION('',(0.800000000000009,-0.599999999999988,0.));
#416=DIRECTION('',(0.,0.,-1.));
#417=DIRECTION('',(1.,1.22464679914735E-16,0.));
#418=DIRECTION('',(-0.80000000000001,-0.599999999999987,0.));
#419=DIRECTION('',(0.,0.,-1.));
#420=DIRECTION('',(1.,1.30104260698262E-16,0.));
#421=DIRECTION('',(0.,0.,-1.));
#422=DIRECTION('',(-1.,0.,0.));
#423=DIRECTION('',(0.,0.,-1.));
#424=DIRECTION('',(1.,1.22464679914735E-16,0.));
#425=DIRECTION('',(0.,0.,-1.));
#426=DIRECTION('',(1.,1.22464679914735E-16,0.));
#427=DIRECTION('',(-0.80000000000001,0.599999999999987,0.));
#428=DIRECTION('',(0.,0.,-1.));
#429=DIRECTION('',(1.,1.30104260698262E-16,0.));
#430=DIRECTION('',(-0.80000000000001,-0.599999999999987,0.));
#431=DIRECTION('',(0.,0.,-1.));
#432=DIRECTION('',(1.,1.22464679914735E-16,0.));
#433=DIRECTION('',(0.800000000000009,-0.599999999999988,0.));
#434=DIRECTION('',(0.,0.,-1.));
#435=DIRECTION('',(1.,1.30104260698262E-16,0.));
#436=DIRECTION('',(0.800000000000009,0.599999999999988,0.));
#437=DIRECTION('',(0.,0.,-1.));
#438=DIRECTION('',(1.,1.22464679914735E-16,0.));
#439=DIRECTION('',(0.,0.,-1.));
#440=DIRECTION('',(-1.,0.,0.));
#441=DIRECTION('',(0.,0.,-1.));
#442=DIRECTION('',(-1.,0.,0.));
#443=DIRECTION('',(0.,0.,-1.));
#444=DIRECTION('',(0.,0.,-1.));
#445=DIRECTION('',(0.,0.,-1.));
#446=DIRECTION('',(-1.,0.,0.));
#447=DIRECTION('',(0.599999999999987,-0.80000000000001,0.));
#448=DIRECTION('',(0.80000000000001,0.599999999999987,0.));
#449=DIRECTION('',(0.,0.,-1.));
#450=DIRECTION('',(0.,0.,-1.));
#451=DIRECTION('',(1.,1.22464679914735E-16,0.));
#452=DIRECTION('',(0.,0.,-1.));
#453=DIRECTION('',(0.599999999999988,0.800000000000009,0.));
#454=DIRECTION('',(-0.800000000000009,0.599999999999988,0.));
#455=DIRECTION('',(0.,0.,-1.));
#456=DIRECTION('',(0.,0.,-1.));
#457=DIRECTION('',(-1.,0.,0.));
#458=DIRECTION('',(0.,0.,-1.));
#459=DIRECTION('',(-0.599999999999988,0.800000000000009,0.));
#460=DIRECTION('',(-0.800000000000009,-0.599999999999988,0.));
#461=DIRECTION('',(0.,0.,-1.));
#462=DIRECTION('',(0.,0.,-1.));
#463=DIRECTION('',(-1.,0.,0.));
#464=DIRECTION('',(0.,0.,-1.));
#465=DIRECTION('',(-0.599999999999987,-0.80000000000001,0.));
#466=DIRECTION('',(0.80000000000001,-0.599999999999987,0.));
#467=CARTESIAN_POINT('',(0.,0.,0.));
#468=CARTESIAN_POINT('',(0.,0.,0.00920621789177444));
#469=CARTESIAN_POINT('',(0.,0.,0.00920621789177444));
#470=CARTESIAN_POINT('',(0.012,0.,0.00920621789177444));
#471=CARTESIAN_POINT('',(0.,0.,0.00991243578354887));
#472=CARTESIAN_POINT('',(-0.0119498743710661,0.,0.00991243578354887));
#473=CARTESIAN_POINT('',(0.,0.,0.0159));
#474=CARTESIAN_POINT('',(0.,0.,0.0155));
#475=CARTESIAN_POINT('',(0.00743975806058235,0.,0.0155));
#476=CARTESIAN_POINT('',(0.,0.,0.0157142857142857));
#477=CARTESIAN_POINT('',(-0.00708548386722128,0.,0.0157142857142857));
#478=CARTESIAN_POINT('',(0.,0.,0.0151));
#479=CARTESIAN_POINT('',(0.,0.,0.015375));
#480=CARTESIAN_POINT('',(-0.00931196940307271,0.,0.015375));
#481=CARTESIAN_POINT('',(0.,0.,0.0155));
#482=CARTESIAN_POINT('',(0.00902149565210715,0.,0.0155));
#483=CARTESIAN_POINT('',(0.,0.,0.0015));
#484=CARTESIAN_POINT('',(0.,0.,0.0015));
#485=CARTESIAN_POINT('',(-0.012,0.,0.0015));
#486=CARTESIAN_POINT('',(0.,0.,0.0005));
#487=CARTESIAN_POINT('',(-0.013,0.,0.0005));
#488=CARTESIAN_POINT('',(0.,0.,0.012));
#489=CARTESIAN_POINT('',(0.,0.00919155405747665,0.0155));
#490=CARTESIAN_POINT('',(1.1145598333151E-16,-2.13735619450155E-17,0.00850000000000016));
#491=CARTESIAN_POINT('',(0.,0.,0.));
#492=CARTESIAN_POINT('',(-0.0200000000000016,-1.17583438196713E-18,0.));
#493=CARTESIAN_POINT('',(0.0200000000000016,0.,0.));
#494=CARTESIAN_POINT('',(0.0215000000000016,1.83697019872103E-19,0.));
#495=CARTESIAN_POINT('',(-0.0200000000000016,-1.25224878698945E-18,0.));
#496=CARTESIAN_POINT('',(-0.0185000000000016,-1.06855176711735E-18,0.));
#497=CARTESIAN_POINT('',(-0.0119999999999996,-0.011,0.));
#498=CARTESIAN_POINT('',(-0.0119999999999996,-0.011,0.));
#499=CARTESIAN_POINT('',(-0.0224,-0.00320000000000004,0.));
#500=CARTESIAN_POINT('',(-0.0200000000000016,-1.17583438196713E-18,0.));
#501=CARTESIAN_POINT('',(-0.0224,0.00320000000000004,0.));
#502=CARTESIAN_POINT('',(-0.0224,0.00320000000000004,0.));
#503=CARTESIAN_POINT('',(-0.0119999999999996,0.011,0.));
#504=CARTESIAN_POINT('',(0.,-0.005,0.));
#505=CARTESIAN_POINT('',(0.0119999999999996,0.011,0.));
#506=CARTESIAN_POINT('',(0.0119999999999996,0.011,0.));
#507=CARTESIAN_POINT('',(0.0224,0.00320000000000004,0.));
#508=CARTESIAN_POINT('',(0.0200000000000016,0.,0.));
#509=CARTESIAN_POINT('',(0.0224,-0.00320000000000004,0.));
#510=CARTESIAN_POINT('',(0.0224,-0.00320000000000004,0.));
#511=CARTESIAN_POINT('',(0.0119999999999996,-0.011,0.));
#512=CARTESIAN_POINT('',(0.,0.005,0.));
#513=CARTESIAN_POINT('',(-0.0200000000000016,-1.17583438196713E-18,0.0005));
#514=CARTESIAN_POINT('',(0.0200000000000016,0.,0.0005));
#515=CARTESIAN_POINT('',(0.0215000000000016,1.83697019872103E-19,0.0005));
#516=CARTESIAN_POINT('',(-0.0200000000000016,-1.25224878698945E-18,0.0005));
#517=CARTESIAN_POINT('',(-0.0185000000000016,-1.06855176711735E-18,0.0005));
#518=CARTESIAN_POINT('',(-0.0119999999999996,-0.011,0.0005));
#519=CARTESIAN_POINT('',(-0.0119999999999996,-0.011,0.0005));
#520=CARTESIAN_POINT('',(-0.0224,-0.00320000000000004,0.0005));
#521=CARTESIAN_POINT('',(0.,0.005,0.0005));
#522=CARTESIAN_POINT('',(0.0119999999999996,-0.011,0.0005));
#523=CARTESIAN_POINT('',(0.0224,-0.00320000000000004,0.0005));
#524=CARTESIAN_POINT('',(0.0224,-0.00320000000000004,0.0005));
#525=CARTESIAN_POINT('',(0.0200000000000016,0.,0.0005));
#526=CARTESIAN_POINT('',(0.0224,0.00320000000000004,0.0005));
#527=CARTESIAN_POINT('',(0.0119999999999996,0.011,0.0005));
#528=CARTESIAN_POINT('',(0.0119999999999996,0.011,0.0005));
#529=CARTESIAN_POINT('',(0.,-0.005,0.0005));
#530=CARTESIAN_POINT('',(-0.0119999999999996,0.011,0.0005));
#531=CARTESIAN_POINT('',(-0.0224,0.00320000000000004,0.0005));
#532=CARTESIAN_POINT('',(-0.0224,0.00320000000000004,0.0005));
#533=CARTESIAN_POINT('',(-0.0200000000000016,-1.17583438196713E-18,0.0005));
#534=CARTESIAN_POINT('',(0.0200000000000016,0.,0.0005));
#535=CARTESIAN_POINT('',(0.,0.005,0.0005));
#536=CARTESIAN_POINT('',(0.0119999999999996,-0.011,0.0005));
#537=CARTESIAN_POINT('',(-0.0119999999999996,-0.011,0.0005));
#538=CARTESIAN_POINT('',(-0.0200000000000016,-1.25224878698945E-18,0.0005));
#539=CARTESIAN_POINT('',(0.0224,-0.00320000000000004,0.0005));
#540=CARTESIAN_POINT('',(0.0224,-0.00320000000000004,0.0005));
#541=CARTESIAN_POINT('',(0.0200000000000016,0.,0.0005));
#542=CARTESIAN_POINT('',(0.0224,0.00320000000000004,0.0005));
#543=CARTESIAN_POINT('',(0.0119999999999996,0.011,0.0005));
#544=CARTESIAN_POINT('',(0.0119999999999996,0.011,0.0005));
#545=CARTESIAN_POINT('',(0.,-0.005,0.0005));
#546=CARTESIAN_POINT('',(-0.0119999999999996,0.011,0.0005));
#547=CARTESIAN_POINT('',(-0.0224,0.00320000000000004,0.0005));
#548=CARTESIAN_POINT('',(-0.0224,0.00320000000000004,0.0005));
#549=CARTESIAN_POINT('',(-0.0200000000000016,-1.17583438196713E-18,0.0005));
#550=CARTESIAN_POINT('',(-0.0224,-0.00320000000000004,0.0005));
#551=CARTESIAN_POINT('',(-0.0119999999999996,-0.011,0.0005));
#552=MECHANICAL_DESIGN_GEOMETRIC_PRESENTATION_REPRESENTATION('',(#317),
#553);
#553=(
GEOMETRIC_REPRESENTATION_CONTEXT(3)
GLOBAL_UNCERTAINTY_ASSIGNED_CONTEXT((#554))
GLOBAL_UNIT_ASSIGNED_CONTEXT((#557,#556,#555))
REPRESENTATION_CONTEXT('hudson_bearing','TOP_LEVEL_ASSEMBLY_PART')
);
#554=UNCERTAINTY_MEASURE_WITH_UNIT(LENGTH_MEASURE(5.E-6),#557,
'DISTANCE_ACCURACY_VALUE','Maximum Tolerance applied to model');
#555=(
NAMED_UNIT(*)
SI_UNIT($,.STERADIAN.)
SOLID_ANGLE_UNIT()
);
#556=(
NAMED_UNIT(*)
PLANE_ANGLE_UNIT()
SI_UNIT($,.RADIAN.)
);
#557=(
LENGTH_UNIT()
NAMED_UNIT(*)
SI_UNIT($,.METRE.)
);
#558=PRODUCT_DEFINITION_SHAPE('','',#559);
#559=PRODUCT_DEFINITION('','',#561,#560);
#560=PRODUCT_DEFINITION_CONTEXT('',#567,'design');
#561=PRODUCT_DEFINITION_FORMATION_WITH_SPECIFIED_SOURCE('','',#563,
 .NOT_KNOWN.);
#562=PRODUCT_RELATED_PRODUCT_CATEGORY('','',(#563));
#563=PRODUCT('hudson_bearing','hudson_bearing','hudson_bearing',(#565));
#564=PRODUCT_CATEGORY('','');
#565=PRODUCT_CONTEXT('',#567,'mechanical');
#566=APPLICATION_PROTOCOL_DEFINITION('international standard',
'automotive_design',2010,#567);
#567=APPLICATION_CONTEXT(
'core data for automotive mechanical design processes');
ENDSEC;
END-ISO-10303-21;
