ISO-10303-21;
HEADER;
/* Generated by software containing ST-Developer
 * from STEP Tools, Inc. (www.steptools.com) 
 */
/* OPTION: using custom renumber hook */

FILE_DESCRIPTION(
/* description */ ('STEP AP214'),
/* implementation_level */ '2;1');

FILE_NAME(
/* name */ '654cf5c37f9aa566be172355',
/* time_stamp */ '2023-11-09T15:07:48Z',
/* author */ (''),
/* organization */ (''),
/* preprocessor_version */ 'ST-DEVELOPER v19.4',
/* originating_system */ '  ',
/* authorisation */ '  ');

FILE_SCHEMA (('AUTOMOTIVE_DESIGN {1 0 10303 214 3 1 1}'));
ENDSEC;

DATA;
#10=PROPERTY_DEFINITION_REPRESENTATION(#14,#12);
#11=PROPERTY_DEFINITION_REPRESENTATION(#15,#13);
#12=REPRESENTATION('',(#16),#257);
#13=REPRESENTATION('',(#17),#257);
#14=PROPERTY_DEFINITION('pmi validation property','',#262);
#15=PROPERTY_DEFINITION('pmi validation property','',#262);
#16=VALUE_REPRESENTATION_ITEM('number of annotations',COUNT_MEASURE(0.));
#17=VALUE_REPRESENTATION_ITEM('number of views',COUNT_MEASURE(0.));
#18=SHAPE_REPRESENTATION_RELATIONSHIP('','',#150,#19);
#19=ADVANCED_BREP_SHAPE_REPRESENTATION('',(#148),#257);
#20=B_SPLINE_CURVE_WITH_KNOTS('',3,(#225,#226,#227,#228,#229,#230,#231,
#232,#233,#234,#235),.UNSPECIFIED.,.F.,.F.,(4,1,1,1,1,1,1,1,4),(2.16840434497101E-19,
0.00126454280473708,0.00252908560947416,0.00379362841421124,0.00505817121894832,
0.0063227140236854,0.00758725682842247,0.00885179963315955,0.0101163424378966),
 .UNSPECIFIED.);
#21=B_SPLINE_CURVE_WITH_KNOTS('',3,(#243,#244,#245,#246,#247,#248,#249,
#250,#251,#252,#253),.UNSPECIFIED.,.F.,.F.,(4,1,1,1,1,1,1,1,4),(-0.00511558963089787,
-0.00383853401265922,-0.00256147839442058,-0.00128442277618193,-7.3671579432868E-6,
0.00126968846029536,0.002546744078534,0.00382379969677265,0.0051008553150113),
 .UNSPECIFIED.);
#22=CYLINDRICAL_SURFACE('',#160,0.004);
#23=CYLINDRICAL_SURFACE('',#162,0.004);
#24=CYLINDRICAL_SURFACE('',#163,0.00525);
#25=CYLINDRICAL_SURFACE('',#164,0.00275);
#26=CIRCLE('',#153,0.00275);
#27=CIRCLE('',#154,0.00275);
#28=CIRCLE('',#155,0.00525);
#29=CIRCLE('',#157,0.00275);
#30=CIRCLE('',#158,0.00525);
#31=ORIENTED_EDGE('',*,*,#61,.F.);
#32=ORIENTED_EDGE('',*,*,#62,.F.);
#33=ORIENTED_EDGE('',*,*,#63,.F.);
#34=ORIENTED_EDGE('',*,*,#64,.F.);
#35=ORIENTED_EDGE('',*,*,#65,.T.);
#36=ORIENTED_EDGE('',*,*,#66,.F.);
#37=ORIENTED_EDGE('',*,*,#67,.T.);
#38=ORIENTED_EDGE('',*,*,#68,.F.);
#39=ORIENTED_EDGE('',*,*,#63,.T.);
#40=ORIENTED_EDGE('',*,*,#69,.T.);
#41=ORIENTED_EDGE('',*,*,#70,.T.);
#42=ORIENTED_EDGE('',*,*,#70,.F.);
#43=ORIENTED_EDGE('',*,*,#71,.F.);
#44=ORIENTED_EDGE('',*,*,#72,.F.);
#45=ORIENTED_EDGE('',*,*,#61,.T.);
#46=ORIENTED_EDGE('',*,*,#73,.T.);
#47=ORIENTED_EDGE('',*,*,#74,.T.);
#48=ORIENTED_EDGE('',*,*,#74,.F.);
#49=ORIENTED_EDGE('',*,*,#75,.T.);
#50=ORIENTED_EDGE('',*,*,#67,.F.);
#51=ORIENTED_EDGE('',*,*,#65,.F.);
#52=ORIENTED_EDGE('',*,*,#66,.T.);
#53=ORIENTED_EDGE('',*,*,#75,.F.);
#54=ORIENTED_EDGE('',*,*,#73,.F.);
#55=ORIENTED_EDGE('',*,*,#64,.T.);
#56=ORIENTED_EDGE('',*,*,#68,.T.);
#57=ORIENTED_EDGE('',*,*,#71,.T.);
#58=ORIENTED_EDGE('',*,*,#69,.F.);
#59=ORIENTED_EDGE('',*,*,#62,.T.);
#60=ORIENTED_EDGE('',*,*,#72,.T.);
#61=EDGE_CURVE('',#76,#77,#87,.T.);
#62=EDGE_CURVE('',#78,#76,#26,.T.);
#63=EDGE_CURVE('',#79,#78,#88,.T.);
#64=EDGE_CURVE('',#77,#79,#27,.T.);
#65=EDGE_CURVE('',#80,#80,#28,.T.);
#66=EDGE_CURVE('',#81,#81,#29,.T.);
#67=EDGE_CURVE('',#82,#82,#30,.T.);
#68=EDGE_CURVE('',#79,#83,#89,.T.);
#69=EDGE_CURVE('',#78,#84,#90,.T.);
#70=EDGE_CURVE('',#84,#83,#91,.T.);
#71=EDGE_CURVE('',#83,#84,#20,.T.);
#72=EDGE_CURVE('',#76,#85,#92,.T.);
#73=EDGE_CURVE('',#77,#86,#93,.T.);
#74=EDGE_CURVE('',#86,#85,#94,.T.);
#75=EDGE_CURVE('',#86,#85,#21,.T.);
#76=VERTEX_POINT('',#204);
#77=VERTEX_POINT('',#205);
#78=VERTEX_POINT('',#207);
#79=VERTEX_POINT('',#209);
#80=VERTEX_POINT('',#212);
#81=VERTEX_POINT('',#215);
#82=VERTEX_POINT('',#217);
#83=VERTEX_POINT('',#220);
#84=VERTEX_POINT('',#222);
#85=VERTEX_POINT('',#238);
#86=VERTEX_POINT('',#240);
#87=LINE('',#203,#95);
#88=LINE('',#208,#96);
#89=LINE('',#219,#97);
#90=LINE('',#221,#98);
#91=LINE('',#223,#99);
#92=LINE('',#237,#100);
#93=LINE('',#239,#101);
#94=LINE('',#241,#102);
#95=VECTOR('',#169,1.);
#96=VECTOR('',#172,1.);
#97=VECTOR('',#185,1.);
#98=VECTOR('',#186,1.);
#99=VECTOR('',#187,1.);
#100=VECTOR('',#192,1.);
#101=VECTOR('',#193,1.);
#102=VECTOR('',#194,1.);
#103=EDGE_LOOP('',(#31,#32,#33,#34));
#104=EDGE_LOOP('',(#35));
#105=EDGE_LOOP('',(#36));
#106=EDGE_LOOP('',(#37));
#107=EDGE_LOOP('',(#38,#39,#40,#41));
#108=EDGE_LOOP('',(#42,#43));
#109=EDGE_LOOP('',(#44,#45,#46,#47));
#110=EDGE_LOOP('',(#48,#49));
#111=EDGE_LOOP('',(#50));
#112=EDGE_LOOP('',(#51));
#113=EDGE_LOOP('',(#52));
#114=EDGE_LOOP('',(#53,#54,#55,#56,#57,#58,#59,#60));
#115=FACE_BOUND('',#103,.T.);
#116=FACE_BOUND('',#104,.T.);
#117=FACE_BOUND('',#105,.T.);
#118=FACE_BOUND('',#106,.T.);
#119=FACE_BOUND('',#107,.T.);
#120=FACE_BOUND('',#108,.T.);
#121=FACE_BOUND('',#109,.T.);
#122=FACE_BOUND('',#110,.T.);
#123=FACE_BOUND('',#111,.T.);
#124=FACE_BOUND('',#112,.T.);
#125=FACE_BOUND('',#113,.T.);
#126=FACE_BOUND('',#114,.T.);
#127=PLANE('',#152);
#128=PLANE('',#156);
#129=PLANE('',#159);
#130=PLANE('',#161);
#131=ADVANCED_FACE('',(#115,#116),#127,.F.);
#132=ADVANCED_FACE('',(#117,#118),#128,.T.);
#133=ADVANCED_FACE('',(#119),#129,.F.);
#134=ADVANCED_FACE('',(#120),#22,.T.);
#135=ADVANCED_FACE('',(#121),#130,.F.);
#136=ADVANCED_FACE('',(#122),#23,.T.);
#137=ADVANCED_FACE('',(#123,#124),#24,.T.);
#138=ADVANCED_FACE('',(#125,#126),#25,.F.);
#139=CLOSED_SHELL('',(#131,#132,#133,#134,#135,#136,#137,#138));
#140=STYLED_ITEM('',(#141),#148);
#141=PRESENTATION_STYLE_ASSIGNMENT((#142));
#142=SURFACE_STYLE_USAGE(.BOTH.,#143);
#143=SURFACE_SIDE_STYLE('',(#144));
#144=SURFACE_STYLE_FILL_AREA(#145);
#145=FILL_AREA_STYLE('',(#146));
#146=FILL_AREA_STYLE_COLOUR('',#147);
#147=COLOUR_RGB('',1.,0.792156862745098,0.);
#148=MANIFOLD_SOLID_BREP('left_wheel',#139);
#149=SHAPE_DEFINITION_REPRESENTATION(#262,#150);
#150=SHAPE_REPRESENTATION('left_wheel',(#151),#257);
#151=AXIS2_PLACEMENT_3D('',#201,#165,#166);
#152=AXIS2_PLACEMENT_3D('',#202,#167,#168);
#153=AXIS2_PLACEMENT_3D('',#206,#170,#171);
#154=AXIS2_PLACEMENT_3D('',#210,#173,#174);
#155=AXIS2_PLACEMENT_3D('',#211,#175,#176);
#156=AXIS2_PLACEMENT_3D('',#213,#177,#178);
#157=AXIS2_PLACEMENT_3D('',#214,#179,#180);
#158=AXIS2_PLACEMENT_3D('',#216,#181,#182);
#159=AXIS2_PLACEMENT_3D('',#218,#183,#184);
#160=AXIS2_PLACEMENT_3D('',#224,#188,#189);
#161=AXIS2_PLACEMENT_3D('',#236,#190,#191);
#162=AXIS2_PLACEMENT_3D('',#242,#195,#196);
#163=AXIS2_PLACEMENT_3D('',#254,#197,#198);
#164=AXIS2_PLACEMENT_3D('',#255,#199,#200);
#165=DIRECTION('',(0.,0.,1.));
#166=DIRECTION('',(1.,0.,0.));
#167=DIRECTION('',(0.,1.,0.));
#168=DIRECTION('',(0.,0.,1.));
#169=DIRECTION('',(-1.,0.,0.));
#170=DIRECTION('',(0.,-1.,0.));
#171=DIRECTION('',(0.,0.,1.));
#172=DIRECTION('',(1.,0.,0.));
#173=DIRECTION('',(0.,-1.,0.));
#174=DIRECTION('',(0.,0.,1.));
#175=DIRECTION('',(0.,-1.,0.));
#176=DIRECTION('',(0.,0.,1.));
#177=DIRECTION('',(0.,1.,0.));
#178=DIRECTION('',(0.,0.,-1.));
#179=DIRECTION('',(0.,1.,0.));
#180=DIRECTION('',(0.,0.,1.));
#181=DIRECTION('',(0.,1.,0.));
#182=DIRECTION('',(0.,0.,1.));
#183=DIRECTION('',(0.,0.,-1.));
#184=DIRECTION('',(1.,0.,0.));
#185=DIRECTION('',(0.,1.,0.));
#186=DIRECTION('',(0.,1.,0.));
#187=DIRECTION('',(-1.,0.,0.));
#188=DIRECTION('',(1.,0.,0.));
#189=DIRECTION('',(0.,0.,1.));
#190=DIRECTION('',(0.,0.,1.));
#191=DIRECTION('',(-1.,0.,0.));
#192=DIRECTION('',(0.,1.,0.));
#193=DIRECTION('',(0.,1.,0.));
#194=DIRECTION('',(1.,0.,0.));
#195=DIRECTION('',(-1.,0.,0.));
#196=DIRECTION('',(0.,0.,-1.));
#197=DIRECTION('',(0.,-1.,0.));
#198=DIRECTION('',(0.,0.,1.));
#199=DIRECTION('',(0.,1.,0.));
#200=DIRECTION('',(0.,0.,-1.));
#201=CARTESIAN_POINT('',(0.,0.,0.));
#202=CARTESIAN_POINT('',(0.,0.02,0.00107661220388117));
#203=CARTESIAN_POINT('',(-0.00253049524055156,0.02,0.00107661220388118));
#204=CARTESIAN_POINT('',(0.00253049524055156,0.02,0.00107661220388117));
#205=CARTESIAN_POINT('',(-0.00253049524055156,0.02,0.00107661220388118));
#206=CARTESIAN_POINT('',(0.,0.02,0.));
#207=CARTESIAN_POINT('',(0.00253049524055156,0.02,-0.00107661220388118));
#208=CARTESIAN_POINT('',(-0.00253049524055156,0.02,-0.00107661220388118));
#209=CARTESIAN_POINT('',(-0.00253049524055156,0.02,-0.00107661220388118));
#210=CARTESIAN_POINT('',(0.,0.02,0.));
#211=CARTESIAN_POINT('',(0.,0.02,0.));
#212=CARTESIAN_POINT('',(0.,0.02,0.00525));
#213=CARTESIAN_POINT('',(0.,0.046,0.));
#214=CARTESIAN_POINT('',(0.,0.046,0.));
#215=CARTESIAN_POINT('',(0.,0.046,0.00275));
#216=CARTESIAN_POINT('',(0.,0.046,0.));
#217=CARTESIAN_POINT('',(0.,0.046,0.00525));
#218=CARTESIAN_POINT('',(-0.00253049524055156,0.019,-0.00107661220388118));
#219=CARTESIAN_POINT('',(-0.00253049524055156,0.019,-0.00107661220388118));
#220=CARTESIAN_POINT('',(-0.00253049524055157,0.04,-0.00107661220388117));
#221=CARTESIAN_POINT('',(0.00253049524055156,0.019,-0.00107661220388118));
#222=CARTESIAN_POINT('',(0.00253049524055156,0.04,-0.00107661220388118));
#223=CARTESIAN_POINT('',(-0.00253049524055156,0.04,-0.00107661220388118));
#224=CARTESIAN_POINT('',(-0.00253049524055156,0.04,-0.00507661220388117));
#225=CARTESIAN_POINT('',(-0.00253049524055157,0.04,-0.00107661220388117));
#226=CARTESIAN_POINT('',(-0.00253049524055157,0.0404296174876199,-0.00107661220388117));
#227=CARTESIAN_POINT('',(-0.00247975960619275,0.0412658068747124,-0.00121051019213276));
#228=CARTESIAN_POINT('',(-0.00214305924066329,0.0423982789182363,-0.00180108794989237));
#229=CARTESIAN_POINT('',(-0.00129471269063755,0.0431126772651878,-0.00253085728396831));
#230=CARTESIAN_POINT('',(-9.67599436639594E-6,0.0433224263434674,-0.00285715557872304));
#231=CARTESIAN_POINT('',(0.00127701867436463,0.0431200360751135,-0.00254042401498839));
#232=CARTESIAN_POINT('',(0.00213661874672468,0.0424097224996312,-0.00181032644039595));
#233=CARTESIAN_POINT('',(0.00247793842507909,0.0412834382837512,-0.00121485008378005));
#234=CARTESIAN_POINT('',(0.00253049524055157,0.0404302779645057,-0.00107661220388117));
#235=CARTESIAN_POINT('',(0.00253049524055157,0.04,-0.00107661220388117));
#236=CARTESIAN_POINT('',(-0.00253049524055156,0.019,0.00107661220388118));
#237=CARTESIAN_POINT('',(0.00253049524055156,0.019,0.00107661220388117));
#238=CARTESIAN_POINT('',(0.00253049524055156,0.04,0.00107661220388117));
#239=CARTESIAN_POINT('',(-0.00253049524055156,0.019,0.00107661220388118));
#240=CARTESIAN_POINT('',(-0.00253049524055156,0.04,0.00107661220388118));
#241=CARTESIAN_POINT('',(0.00253049524055156,0.04,0.00107661220388118));
#242=CARTESIAN_POINT('',(-0.00253049524055156,0.04,0.00507661220388117));
#243=CARTESIAN_POINT('',(-0.00253049524055157,0.04,0.00107661220388117));
#244=CARTESIAN_POINT('',(-0.00253049524055157,0.0404296023193709,0.00107661220388117));
#245=CARTESIAN_POINT('',(-0.0024798311927051,0.0412657621324593,0.00121049951711866));
#246=CARTESIAN_POINT('',(-0.00214285234231699,0.0423982037755189,0.00180104192543392));
#247=CARTESIAN_POINT('',(-0.00129571798939632,0.0431126298127557,0.00253077085053176));
#248=CARTESIAN_POINT('',(-6.54127546385302E-6,0.0433224004595568,0.00285721025256512));
#249=CARTESIAN_POINT('',(0.00127705120046054,0.0431202124336117,0.00254032723308227));
#250=CARTESIAN_POINT('',(0.00213878116249125,0.0424067690298456,0.0018080097651811));
#251=CARTESIAN_POINT('',(0.00247773767208037,0.0412819057997988,0.00121471835447137));
#252=CARTESIAN_POINT('',(0.0025304952405517,0.0404302292546186,0.00107661220388117));
#253=CARTESIAN_POINT('',(0.0025304952405517,0.04,0.00107661220388117));
#254=CARTESIAN_POINT('',(0.,0.046,0.));
#255=CARTESIAN_POINT('',(0.,0.044,0.));
#256=MECHANICAL_DESIGN_GEOMETRIC_PRESENTATION_REPRESENTATION('',(#140),
#257);
#257=(
GEOMETRIC_REPRESENTATION_CONTEXT(3)
GLOBAL_UNCERTAINTY_ASSIGNED_CONTEXT((#258))
GLOBAL_UNIT_ASSIGNED_CONTEXT((#261,#260,#259))
REPRESENTATION_CONTEXT('left_wheel','TOP_LEVEL_ASSEMBLY_PART')
);
#258=UNCERTAINTY_MEASURE_WITH_UNIT(LENGTH_MEASURE(5.E-6),#261,
'DISTANCE_ACCURACY_VALUE','Maximum Tolerance applied to model');
#259=(
NAMED_UNIT(*)
SI_UNIT($,.STERADIAN.)
SOLID_ANGLE_UNIT()
);
#260=(
NAMED_UNIT(*)
PLANE_ANGLE_UNIT()
SI_UNIT($,.RADIAN.)
);
#261=(
LENGTH_UNIT()
NAMED_UNIT(*)
SI_UNIT($,.METRE.)
);
#262=PRODUCT_DEFINITION_SHAPE('','',#263);
#263=PRODUCT_DEFINITION('','',#265,#264);
#264=PRODUCT_DEFINITION_CONTEXT('',#271,'design');
#265=PRODUCT_DEFINITION_FORMATION_WITH_SPECIFIED_SOURCE('','',#267,
 .NOT_KNOWN.);
#266=PRODUCT_RELATED_PRODUCT_CATEGORY('','',(#267));
#267=PRODUCT('left_wheel','left_wheel','left_wheel',(#269));
#268=PRODUCT_CATEGORY('','');
#269=PRODUCT_CONTEXT('',#271,'mechanical');
#270=APPLICATION_PROTOCOL_DEFINITION('international standard',
'automotive_design',2010,#271);
#271=APPLICATION_CONTEXT(
'core data for automotive mechanical design processes');
ENDSEC;
END-ISO-10303-21;
