ISO-10303-21;
HEADER;
/* Generated by software containing ST-Developer
 * from STEP Tools, Inc. (www.steptools.com) 
 */
/* OPTION: using custom renumber hook */

FILE_DESCRIPTION(
/* description */ ('STEP AP214'),
/* implementation_level */ '2;1');

FILE_NAME(
/* name */ '654cf57a7f9aa566be172178',
/* time_stamp */ '2023-11-09T15:06:36Z',
/* author */ (''),
/* organization */ (''),
/* preprocessor_version */ 'ST-DEVELOPER v19.4',
/* originating_system */ '  ',
/* authorisation */ '  ');

FILE_SCHEMA (('AUTOMOTIVE_DESIGN {1 0 10303 214 3 1 1}'));
ENDSEC;

DATA;
#10=PROPERTY_DEFINITION_REPRESENTATION(#14,#12);
#11=PROPERTY_DEFINITION_REPRESENTATION(#15,#13);
#12=REPRESENTATION('',(#16),#90);
#13=REPRESENTATION('',(#17),#90);
#14=PROPERTY_DEFINITION('pmi validation property','',#95);
#15=PROPERTY_DEFINITION('pmi validation property','',#95);
#16=VALUE_REPRESENTATION_ITEM('number of annotations',COUNT_MEASURE(0.));
#17=VALUE_REPRESENTATION_ITEM('number of views',COUNT_MEASURE(0.));
#18=SHAPE_REPRESENTATION_RELATIONSHIP('','',#55,#19);
#19=ADVANCED_BREP_SHAPE_REPRESENTATION('',(#53),#90);
#20=TOROIDAL_SURFACE('',#60,0.004,0.003);
#21=PLANE('',#59);
#22=CIRCLE('',#58,0.0005);
#23=ORIENTED_EDGE('',*,*,#27,.F.);
#24=ORIENTED_EDGE('',*,*,#28,.T.);
#25=ORIENTED_EDGE('',*,*,#28,.F.);
#26=ORIENTED_EDGE('',*,*,#27,.T.);
#27=EDGE_CURVE('',#29,#29,#31,.T.);
#28=EDGE_CURVE('',#30,#30,#22,.T.);
#29=VERTEX_POINT('',#84);
#30=VERTEX_POINT('',#86);
#31=B_SPLINE_CURVE_WITH_KNOTS('',3,(#73,#74,#75,#76,#77,#78,#79,#80,#81,
#82,#83),.UNSPECIFIED.,.T.,.F.,(1,1,1,1,1,1,1,1,1,1,1,1,1,1,1),(-0.0012128016194675,
-0.000808534412978334,-0.000404267206489167,0.,0.000404267206489167,0.000808534412978334,
0.0012128016194675,0.00161706882595667,0.00202133603244584,0.002425603238935,
0.00282987044542417,0.00323413765191334,0.0036384048584025,0.00404267206489167,
0.00444693927138084),.UNSPECIFIED.);
#32=EDGE_LOOP('',(#23));
#33=EDGE_LOOP('',(#24));
#34=EDGE_LOOP('',(#25));
#35=EDGE_LOOP('',(#26));
#36=FACE_BOUND('',#32,.T.);
#37=FACE_BOUND('',#33,.T.);
#38=FACE_BOUND('',#34,.T.);
#39=FACE_BOUND('',#35,.T.);
#40=CYLINDRICAL_SURFACE('',#57,0.0005);
#41=ADVANCED_FACE('',(#36,#37),#40,.T.);
#42=ADVANCED_FACE('',(#38),#21,.F.);
#43=ADVANCED_FACE('',(#39),#20,.T.);
#44=CLOSED_SHELL('',(#41,#42,#43));
#45=STYLED_ITEM('',(#46),#53);
#46=PRESENTATION_STYLE_ASSIGNMENT((#47));
#47=SURFACE_STYLE_USAGE(.BOTH.,#48);
#48=SURFACE_SIDE_STYLE('',(#49));
#49=SURFACE_STYLE_FILL_AREA(#50);
#50=FILL_AREA_STYLE('',(#51));
#51=FILL_AREA_STYLE_COLOUR('',#52);
#52=COLOUR_RGB('',1.,0.792156862745098,0.);
#53=MANIFOLD_SOLID_BREP('left_wheel',#44);
#54=SHAPE_DEFINITION_REPRESENTATION(#95,#55);
#55=SHAPE_REPRESENTATION('left_wheel',(#56),#90);
#56=AXIS2_PLACEMENT_3D('',#71,#61,#62);
#57=AXIS2_PLACEMENT_3D('',#72,#63,#64);
#58=AXIS2_PLACEMENT_3D('',#85,#65,#66);
#59=AXIS2_PLACEMENT_3D('',#87,#67,#68);
#60=AXIS2_PLACEMENT_3D('',#88,#69,#70);
#61=DIRECTION('',(0.,0.,1.));
#62=DIRECTION('',(1.,0.,0.));
#63=DIRECTION('',(0.,-1.,0.));
#64=DIRECTION('',(0.,0.,-1.));
#65=DIRECTION('',(0.,1.,0.));
#66=DIRECTION('',(1.,0.,0.));
#67=DIRECTION('',(0.,1.,0.));
#68=DIRECTION('',(0.,0.,1.));
#69=DIRECTION('',(0.,-1.,0.));
#70=DIRECTION('',(7.55381576800048E-5,0.,0.999999997146993));
#71=CARTESIAN_POINT('',(0.,0.,0.));
#72=CARTESIAN_POINT('',(0.,0.02340208286366,0.00502820857974993));
#73=CARTESIAN_POINT('',(5.52570729547048E-6,0.0199634541954563,0.00446860227294686));
#74=CARTESIAN_POINT('',(-0.000402519972000172,0.0199333303969674,0.00464361697311027));
#75=CARTESIAN_POINT('',(-0.000549041390829818,0.019815164177782,0.00503763490130638));
#76=CARTESIAN_POINT('',(-0.000401148081064856,0.0196489421640874,0.00540669037472115));
#77=CARTESIAN_POINT('',(-6.07329832223362E-6,0.019548887782134,0.00558708119864743));
#78=CARTESIAN_POINT('',(0.000394841769803941,0.019645097739869,0.00541408025018319));
#79=CARTESIAN_POINT('',(0.000548671690349229,0.0198117847961445,0.00504652429874283));
#80=CARTESIAN_POINT('',(0.000409342626280384,0.0199316243231343,0.00465136486410844));
#81=CARTESIAN_POINT('',(5.52570729547048E-6,0.0199634541954563,0.00446860227294686));
#82=CARTESIAN_POINT('',(-0.000402519972000172,0.0199333303969674,0.00464361697311027));
#83=CARTESIAN_POINT('',(-0.000549041390829818,0.019815164177782,0.00503763490130638));
#84=CARTESIAN_POINT('',(-0.000358932595255839,0.0199186566601846,0.00468011751111572));
#85=CARTESIAN_POINT('',(0.,0.01900208286366,0.00502820857974993));
#86=CARTESIAN_POINT('',(0.0005,0.01900208286366,0.00502820857974993));
#87=CARTESIAN_POINT('',(0.,0.01900208286366,0.00502820857974993));
#88=CARTESIAN_POINT('',(0.,0.017,0.));
#89=MECHANICAL_DESIGN_GEOMETRIC_PRESENTATION_REPRESENTATION('',(#45),#90);
#90=(
GEOMETRIC_REPRESENTATION_CONTEXT(3)
GLOBAL_UNCERTAINTY_ASSIGNED_CONTEXT((#91))
GLOBAL_UNIT_ASSIGNED_CONTEXT((#94,#93,#92))
REPRESENTATION_CONTEXT('left_wheel','TOP_LEVEL_ASSEMBLY_PART')
);
#91=UNCERTAINTY_MEASURE_WITH_UNIT(LENGTH_MEASURE(5.E-6),#94,
'DISTANCE_ACCURACY_VALUE','Maximum Tolerance applied to model');
#92=(
NAMED_UNIT(*)
SI_UNIT($,.STERADIAN.)
SOLID_ANGLE_UNIT()
);
#93=(
NAMED_UNIT(*)
PLANE_ANGLE_UNIT()
SI_UNIT($,.RADIAN.)
);
#94=(
LENGTH_UNIT()
NAMED_UNIT(*)
SI_UNIT($,.METRE.)
);
#95=PRODUCT_DEFINITION_SHAPE('','',#96);
#96=PRODUCT_DEFINITION('','',#98,#97);
#97=PRODUCT_DEFINITION_CONTEXT('',#104,'design');
#98=PRODUCT_DEFINITION_FORMATION_WITH_SPECIFIED_SOURCE('','',#100,
 .NOT_KNOWN.);
#99=PRODUCT_RELATED_PRODUCT_CATEGORY('','',(#100));
#100=PRODUCT('left_wheel','left_wheel','left_wheel',(#102));
#101=PRODUCT_CATEGORY('','');
#102=PRODUCT_CONTEXT('',#104,'mechanical');
#103=APPLICATION_PROTOCOL_DEFINITION('international standard',
'automotive_design',2010,#104);
#104=APPLICATION_CONTEXT(
'core data for automotive mechanical design processes');
ENDSEC;
END-ISO-10303-21;
