ISO-10303-21;
HEADER;
/* Generated by software containing ST-Developer
 * from STEP Tools, Inc. (www.steptools.com) 
 */
/* OPTION: using custom renumber hook */

FILE_DESCRIPTION(
/* description */ ('STEP AP214'),
/* implementation_level */ '2;1');

FILE_NAME(
/* name */ '654cf5b67f9aa566be17230d',
/* time_stamp */ '2023-11-09T15:07:35Z',
/* author */ (''),
/* organization */ (''),
/* preprocessor_version */ 'ST-DEVELOPER v19.4',
/* originating_system */ '  ',
/* authorisation */ '  ');

FILE_SCHEMA (('AUTOMOTIVE_DESIGN {1 0 10303 214 3 1 1}'));
ENDSEC;

DATA;
#10=PROPERTY_DEFINITION_REPRESENTATION(#14,#12);
#11=PROPERTY_DEFINITION_REPRESENTATION(#15,#13);
#12=REPRESENTATION('',(#16),#111);
#13=REPRESENTATION('',(#17),#111);
#14=PROPERTY_DEFINITION('pmi validation property','',#116);
#15=PROPERTY_DEFINITION('pmi validation property','',#116);
#16=VALUE_REPRESENTATION_ITEM('number of annotations',COUNT_MEASURE(0.));
#17=VALUE_REPRESENTATION_ITEM('number of views',COUNT_MEASURE(0.));
#18=SHAPE_REPRESENTATION_RELATIONSHIP('','',#60,#19);
#19=ADVANCED_BREP_SHAPE_REPRESENTATION('',(#58),#111);
#20=TOROIDAL_SURFACE('',#65,0.004,0.003);
#21=PLANE('',#64);
#22=CIRCLE('',#63,0.0005);
#23=ORIENTED_EDGE('',*,*,#29,.F.);
#24=ORIENTED_EDGE('',*,*,#30,.F.);
#25=ORIENTED_EDGE('',*,*,#31,.T.);
#26=ORIENTED_EDGE('',*,*,#31,.F.);
#27=ORIENTED_EDGE('',*,*,#30,.T.);
#28=ORIENTED_EDGE('',*,*,#29,.T.);
#29=EDGE_CURVE('',#32,#33,#35,.T.);
#30=EDGE_CURVE('',#33,#32,#36,.T.);
#31=EDGE_CURVE('',#34,#34,#22,.T.);
#32=VERTEX_POINT('',#85);
#33=VERTEX_POINT('',#86);
#34=VERTEX_POINT('',#107);
#35=B_SPLINE_CURVE_WITH_KNOTS('',3,(#78,#79,#80,#81,#82,#83,#84),
 .UNSPECIFIED.,.F.,.F.,(4,1,1,1,4),(6.38737721843635E-17,0.000508575976984512,
0.00101715195396896,0.00152572793095341,0.00203430390793786),
 .UNSPECIFIED.);
#36=B_SPLINE_CURVE_WITH_KNOTS('',3,(#87,#88,#89,#90,#91,#92,#93,#94,#95,
#96,#97,#98,#99,#100,#101,#102,#103,#104,#105),.UNSPECIFIED.,.F.,.F.,(4,
2,2,3,2,2,2,2,4),(0.28542143847239,0.302615313760922,0.316267854350385,
0.325746086436412,0.337844284527982,0.352186288721986,0.37199191331633,
0.390877367601298,0.406237386042446),.UNSPECIFIED.);
#37=EDGE_LOOP('',(#23,#24));
#38=EDGE_LOOP('',(#25));
#39=EDGE_LOOP('',(#26));
#40=EDGE_LOOP('',(#27,#28));
#41=FACE_BOUND('',#37,.T.);
#42=FACE_BOUND('',#38,.T.);
#43=FACE_BOUND('',#39,.T.);
#44=FACE_BOUND('',#40,.T.);
#45=CYLINDRICAL_SURFACE('',#62,0.0005);
#46=ADVANCED_FACE('',(#41,#42),#45,.T.);
#47=ADVANCED_FACE('',(#43),#21,.F.);
#48=ADVANCED_FACE('',(#44),#20,.T.);
#49=CLOSED_SHELL('',(#46,#47,#48));
#50=STYLED_ITEM('',(#51),#58);
#51=PRESENTATION_STYLE_ASSIGNMENT((#52));
#52=SURFACE_STYLE_USAGE(.BOTH.,#53);
#53=SURFACE_SIDE_STYLE('',(#54));
#54=SURFACE_STYLE_FILL_AREA(#55);
#55=FILL_AREA_STYLE('',(#56));
#56=FILL_AREA_STYLE_COLOUR('',#57);
#57=COLOUR_RGB('',1.,0.792156862745098,0.);
#58=MANIFOLD_SOLID_BREP('left_wheel',#49);
#59=SHAPE_DEFINITION_REPRESENTATION(#116,#60);
#60=SHAPE_REPRESENTATION('left_wheel',(#61),#111);
#61=AXIS2_PLACEMENT_3D('',#76,#66,#67);
#62=AXIS2_PLACEMENT_3D('',#77,#68,#69);
#63=AXIS2_PLACEMENT_3D('',#106,#70,#71);
#64=AXIS2_PLACEMENT_3D('',#108,#72,#73);
#65=AXIS2_PLACEMENT_3D('',#109,#74,#75);
#66=DIRECTION('',(0.,0.,1.));
#67=DIRECTION('',(1.,0.,0.));
#68=DIRECTION('',(0.,-1.,0.));
#69=DIRECTION('',(0.,0.,-1.));
#70=DIRECTION('',(0.,1.,0.));
#71=DIRECTION('',(0.,0.,-1.));
#72=DIRECTION('',(0.,1.,0.));
#73=DIRECTION('',(0.,0.,1.));
#74=DIRECTION('',(0.,-1.,0.));
#75=DIRECTION('',(0.999999997146993,0.,-7.55381576808547E-5));
#76=CARTESIAN_POINT('',(0.,0.,0.));
#77=CARTESIAN_POINT('',(0.00502820857974993,0.02340208286366,0.));
#78=CARTESIAN_POINT('',(0.00502820857974979,0.0198091236866919,0.0005));
#79=CARTESIAN_POINT('',(0.00518936604920609,0.0197490098733906,0.000500000000000045));
#80=CARTESIAN_POINT('',(0.00550397643684177,0.0195983423960052,0.000347135335792497));
#81=CARTESIAN_POINT('',(0.00557164197679344,0.0195591427341535,-0.000234150149499674));
#82=CARTESIAN_POINT('',(0.00514667294369739,0.0197779881657699,-0.000567412120676676));
#83=CARTESIAN_POINT('',(0.00480183388793763,0.019887659520072,-0.00047697253990986));
#84=CARTESIAN_POINT('',(0.00468011751111536,0.0199186566601849,-0.000358932595256379));
#85=CARTESIAN_POINT('',(0.00502820857974986,0.0198091236866919,0.0005));
#86=CARTESIAN_POINT('',(0.00468011751111568,0.0199186566601846,-0.000358932595255807));
#87=CARTESIAN_POINT('',(0.00468011751111568,0.0199186566601847,-0.000358932595255806));
#88=CARTESIAN_POINT('',(0.00463965096879051,0.0199289621516484,-0.000319688341186705));
#89=CARTESIAN_POINT('',(0.00460586545813767,0.0199366912621323,-0.000273643428353456));
#90=CARTESIAN_POINT('',(0.00456030964966217,0.0199466375996825,-0.000181995845260655));
#91=CARTESIAN_POINT('',(0.00454570748785074,0.019949613253778,-0.000138783073959343));
#92=CARTESIAN_POINT('',(0.00453120408547931,0.0199525432631214,-6.31132805549725E-5));
#93=CARTESIAN_POINT('',(0.00452820857974993,0.0199531331998876,-3.15941069534166E-5));
#94=CARTESIAN_POINT('',(0.00452820857974993,0.0199531331998876,5.85913984700288E-18));
#95=CARTESIAN_POINT('',(0.00452820857974993,0.0199531331998876,4.03273269719068E-5));
#96=CARTESIAN_POINT('',(0.00453308989325712,0.0199521767966259,8.04983935677785E-5));
#97=CARTESIAN_POINT('',(0.00455414860291434,0.0199478778353261,0.000165973773165907));
#98=CARTESIAN_POINT('',(0.00457213151405519,0.0199441494990126,0.000210359730055979));
#99=CARTESIAN_POINT('',(0.00462901811682587,0.0199314008181586,0.000308142993537072));
#100=CARTESIAN_POINT('',(0.0046725660406201,0.0199210344488628,0.000357342312807173));
#101=CARTESIAN_POINT('',(0.00477271019565137,0.0198939796202112,0.000434185187760915));
#102=CARTESIAN_POINT('',(0.00482745998846593,0.0198778828605634,0.000461870581111854));
#103=CARTESIAN_POINT('',(0.00493206400355511,0.0198438310558547,0.000493106250647644));
#104=CARTESIAN_POINT('',(0.00498025687853279,0.0198270102893059,0.000499999999999977));
#105=CARTESIAN_POINT('',(0.00502820857974969,0.019809123686692,0.0005));
#106=CARTESIAN_POINT('',(0.00502820857974993,0.01900208286366,0.));
#107=CARTESIAN_POINT('',(0.00502820857974993,0.01900208286366,-0.0005));
#108=CARTESIAN_POINT('',(0.00502820857974993,0.01900208286366,0.));
#109=CARTESIAN_POINT('',(0.,0.017,0.));
#110=MECHANICAL_DESIGN_GEOMETRIC_PRESENTATION_REPRESENTATION('',(#50),#111);
#111=(
GEOMETRIC_REPRESENTATION_CONTEXT(3)
GLOBAL_UNCERTAINTY_ASSIGNED_CONTEXT((#112))
GLOBAL_UNIT_ASSIGNED_CONTEXT((#115,#114,#113))
REPRESENTATION_CONTEXT('left_wheel','TOP_LEVEL_ASSEMBLY_PART')
);
#112=UNCERTAINTY_MEASURE_WITH_UNIT(LENGTH_MEASURE(5.E-6),#115,
'DISTANCE_ACCURACY_VALUE','Maximum Tolerance applied to model');
#113=(
NAMED_UNIT(*)
SI_UNIT($,.STERADIAN.)
SOLID_ANGLE_UNIT()
);
#114=(
NAMED_UNIT(*)
PLANE_ANGLE_UNIT()
SI_UNIT($,.RADIAN.)
);
#115=(
LENGTH_UNIT()
NAMED_UNIT(*)
SI_UNIT($,.METRE.)
);
#116=PRODUCT_DEFINITION_SHAPE('','',#117);
#117=PRODUCT_DEFINITION('','',#119,#118);
#118=PRODUCT_DEFINITION_CONTEXT('',#125,'design');
#119=PRODUCT_DEFINITION_FORMATION_WITH_SPECIFIED_SOURCE('','',#121,
 .NOT_KNOWN.);
#120=PRODUCT_RELATED_PRODUCT_CATEGORY('','',(#121));
#121=PRODUCT('left_wheel','left_wheel','left_wheel',(#123));
#122=PRODUCT_CATEGORY('','');
#123=PRODUCT_CONTEXT('',#125,'mechanical');
#124=APPLICATION_PROTOCOL_DEFINITION('international standard',
'automotive_design',2010,#125);
#125=APPLICATION_CONTEXT(
'core data for automotive mechanical design processes');
ENDSEC;
END-ISO-10303-21;
