ISO-10303-21;
HEADER;
/* Generated by software containing ST-Developer
 * from STEP Tools, Inc. (www.steptools.com) 
 */
/* OPTION: using custom renumber hook */

FILE_DESCRIPTION(
/* description */ ('STEP AP214'),
/* implementation_level */ '2;1');

FILE_NAME(
/* name */ '654cf5a17f9aa566be172274',
/* time_stamp */ '2023-11-09T15:07:14Z',
/* author */ (''),
/* organization */ (''),
/* preprocessor_version */ 'ST-DEVELOPER v19.4',
/* originating_system */ '  ',
/* authorisation */ '  ');

FILE_SCHEMA (('AUTOMOTIVE_DESIGN {1 0 10303 214 3 1 1}'));
ENDSEC;

DATA;
#10=PROPERTY_DEFINITION_REPRESENTATION(#14,#12);
#11=PROPERTY_DEFINITION_REPRESENTATION(#15,#13);
#12=REPRESENTATION('',(#16),#90);
#13=REPRESENTATION('',(#17),#90);
#14=PROPERTY_DEFINITION('pmi validation property','',#95);
#15=PROPERTY_DEFINITION('pmi validation property','',#95);
#16=VALUE_REPRESENTATION_ITEM('number of annotations',COUNT_MEASURE(0.));
#17=VALUE_REPRESENTATION_ITEM('number of views',COUNT_MEASURE(0.));
#18=SHAPE_REPRESENTATION_RELATIONSHIP('','',#55,#19);
#19=ADVANCED_BREP_SHAPE_REPRESENTATION('',(#53),#90);
#20=TOROIDAL_SURFACE('',#60,0.004,0.003);
#21=PLANE('',#59);
#22=CIRCLE('',#58,0.0005);
#23=ORIENTED_EDGE('',*,*,#27,.F.);
#24=ORIENTED_EDGE('',*,*,#28,.T.);
#25=ORIENTED_EDGE('',*,*,#28,.F.);
#26=ORIENTED_EDGE('',*,*,#27,.T.);
#27=EDGE_CURVE('',#29,#29,#31,.T.);
#28=EDGE_CURVE('',#30,#30,#22,.T.);
#29=VERTEX_POINT('',#84);
#30=VERTEX_POINT('',#86);
#31=B_SPLINE_CURVE_WITH_KNOTS('',3,(#73,#74,#75,#76,#77,#78,#79,#80,#81,
#82,#83),.UNSPECIFIED.,.T.,.F.,(1,1,1,1,1,1,1,1,1,1,1,1,1,1,1),(-0.001212292021511,
-0.00080819468100733,-0.000404097340503665,0.,0.000404097340503665,0.000808194681007331,
0.001212292021511,0.00161638936201466,0.00202048670251833,0.00242458404302199,
0.00282868138352566,0.00323277872402932,0.00363687606453299,0.00404097340503665,
0.00444507074554032),.UNSPECIFIED.);
#32=EDGE_LOOP('',(#23));
#33=EDGE_LOOP('',(#24));
#34=EDGE_LOOP('',(#25));
#35=EDGE_LOOP('',(#26));
#36=FACE_BOUND('',#32,.T.);
#37=FACE_BOUND('',#33,.T.);
#38=FACE_BOUND('',#34,.T.);
#39=FACE_BOUND('',#35,.T.);
#40=CYLINDRICAL_SURFACE('',#57,0.0005);
#41=ADVANCED_FACE('',(#36,#37),#40,.T.);
#42=ADVANCED_FACE('',(#38),#21,.F.);
#43=ADVANCED_FACE('',(#39),#20,.T.);
#44=CLOSED_SHELL('',(#41,#42,#43));
#45=STYLED_ITEM('',(#46),#53);
#46=PRESENTATION_STYLE_ASSIGNMENT((#47));
#47=SURFACE_STYLE_USAGE(.BOTH.,#48);
#48=SURFACE_SIDE_STYLE('',(#49));
#49=SURFACE_STYLE_FILL_AREA(#50);
#50=FILL_AREA_STYLE('',(#51));
#51=FILL_AREA_STYLE_COLOUR('',#52);
#52=COLOUR_RGB('',1.,0.792156862745098,0.);
#53=MANIFOLD_SOLID_BREP('left_wheel',#44);
#54=SHAPE_DEFINITION_REPRESENTATION(#95,#55);
#55=SHAPE_REPRESENTATION('left_wheel',(#56),#90);
#56=AXIS2_PLACEMENT_3D('',#71,#61,#62);
#57=AXIS2_PLACEMENT_3D('',#72,#63,#64);
#58=AXIS2_PLACEMENT_3D('',#85,#65,#66);
#59=AXIS2_PLACEMENT_3D('',#87,#67,#68);
#60=AXIS2_PLACEMENT_3D('',#88,#69,#70);
#61=DIRECTION('',(0.,0.,1.));
#62=DIRECTION('',(1.,0.,0.));
#63=DIRECTION('',(0.,-1.,0.));
#64=DIRECTION('',(0.,0.,-1.));
#65=DIRECTION('',(0.,1.,0.));
#66=DIRECTION('',(-1.,0.,0.));
#67=DIRECTION('',(0.,1.,0.));
#68=DIRECTION('',(0.,0.,1.));
#69=DIRECTION('',(0.,-1.,0.));
#70=DIRECTION('',(-7.55381576805714E-5,0.,-0.999999997146993));
#71=CARTESIAN_POINT('',(0.,0.,0.));
#72=CARTESIAN_POINT('',(0.,0.02340208286366,-0.00502820857974993));
#73=CARTESIAN_POINT('',(1.91174577806719E-5,0.0195490067275418,-0.00558688158225336));
#74=CARTESIAN_POINT('',(-0.000387653426656458,0.0196409913659849,-0.00542187640979107));
#75=CARTESIAN_POINT('',(-0.000547913857240012,0.0198076342549749,-0.00505728272044903));
#76=CARTESIAN_POINT('',(-0.00041731580363044,0.0199295915486693,-0.00466051383087468));
#77=CARTESIAN_POINT('',(-1.80332705592966E-5,0.0199634057639919,-0.004468954982814));
#78=CARTESIAN_POINT('',(0.000393664027499279,0.0199352807378798,-0.00463444722945273));
#79=CARTESIAN_POINT('',(0.000549404792683186,0.0198195558119997,-0.00502600398256963));
#80=CARTESIAN_POINT('',(0.00040854054117793,0.0196533394489727,-0.0053982685944077));
#81=CARTESIAN_POINT('',(1.91174577806719E-5,0.0195490067275418,-0.00558688158225336));
#82=CARTESIAN_POINT('',(-0.000387653426656458,0.0196409913659849,-0.00542187640979107));
#83=CARTESIAN_POINT('',(-0.000547913857240012,0.0198076342549749,-0.00505728272044903));
#84=CARTESIAN_POINT('',(-0.000346568351014196,0.0196534344077427,-0.00538861165697778));
#85=CARTESIAN_POINT('',(0.,0.01900208286366,-0.00502820857974993));
#86=CARTESIAN_POINT('',(-0.0005,0.01900208286366,-0.00502820857974993));
#87=CARTESIAN_POINT('',(0.,0.01900208286366,-0.00502820857974993));
#88=CARTESIAN_POINT('',(0.,0.017,0.));
#89=MECHANICAL_DESIGN_GEOMETRIC_PRESENTATION_REPRESENTATION('',(#45),#90);
#90=(
GEOMETRIC_REPRESENTATION_CONTEXT(3)
GLOBAL_UNCERTAINTY_ASSIGNED_CONTEXT((#91))
GLOBAL_UNIT_ASSIGNED_CONTEXT((#94,#93,#92))
REPRESENTATION_CONTEXT('left_wheel','TOP_LEVEL_ASSEMBLY_PART')
);
#91=UNCERTAINTY_MEASURE_WITH_UNIT(LENGTH_MEASURE(5.E-6),#94,
'DISTANCE_ACCURACY_VALUE','Maximum Tolerance applied to model');
#92=(
NAMED_UNIT(*)
SI_UNIT($,.STERADIAN.)
SOLID_ANGLE_UNIT()
);
#93=(
NAMED_UNIT(*)
PLANE_ANGLE_UNIT()
SI_UNIT($,.RADIAN.)
);
#94=(
LENGTH_UNIT()
NAMED_UNIT(*)
SI_UNIT($,.METRE.)
);
#95=PRODUCT_DEFINITION_SHAPE('','',#96);
#96=PRODUCT_DEFINITION('','',#98,#97);
#97=PRODUCT_DEFINITION_CONTEXT('',#104,'design');
#98=PRODUCT_DEFINITION_FORMATION_WITH_SPECIFIED_SOURCE('','',#100,
 .NOT_KNOWN.);
#99=PRODUCT_RELATED_PRODUCT_CATEGORY('','',(#100));
#100=PRODUCT('left_wheel','left_wheel','left_wheel',(#102));
#101=PRODUCT_CATEGORY('','');
#102=PRODUCT_CONTEXT('',#104,'mechanical');
#103=APPLICATION_PROTOCOL_DEFINITION('international standard',
'automotive_design',2010,#104);
#104=APPLICATION_CONTEXT(
'core data for automotive mechanical design processes');
ENDSEC;
END-ISO-10303-21;
