ISO-10303-21;
HEADER;
/* Generated by software containing ST-Developer
 * from STEP Tools, Inc. (www.steptools.com) 
 */
/* OPTION: using custom renumber hook */

FILE_DESCRIPTION(
/* description */ ('STEP AP214'),
/* implementation_level */ '2;1');

FILE_NAME(
/* name */ '654cf5877f9aa566be1721b8',
/* time_stamp */ '2023-11-09T15:06:48Z',
/* author */ (''),
/* organization */ (''),
/* preprocessor_version */ 'ST-DEVELOPER v19.4',
/* originating_system */ '  ',
/* authorisation */ '  ');

FILE_SCHEMA (('AUTOMOTIVE_DESIGN {1 0 10303 214 3 1 1}'));
ENDSEC;

DATA;
#10=PROPERTY_DEFINITION_REPRESENTATION(#14,#12);
#11=PROPERTY_DEFINITION_REPRESENTATION(#15,#13);
#12=REPRESENTATION('',(#16),#321);
#13=REPRESENTATION('',(#17),#321);
#14=PROPERTY_DEFINITION('pmi validation property','',#326);
#15=PROPERTY_DEFINITION('pmi validation property','',#326);
#16=VALUE_REPRESENTATION_ITEM('number of annotations',COUNT_MEASURE(0.));
#17=VALUE_REPRESENTATION_ITEM('number of views',COUNT_MEASURE(0.));
#18=SHAPE_REPRESENTATION_RELATIONSHIP('','',#211,#19);
#19=ADVANCED_BREP_SHAPE_REPRESENTATION('',(#209),#321);
#20=ORIENTED_EDGE('',*,*,#68,.T.);
#21=ORIENTED_EDGE('',*,*,#69,.T.);
#22=ORIENTED_EDGE('',*,*,#70,.T.);
#23=ORIENTED_EDGE('',*,*,#71,.T.);
#24=ORIENTED_EDGE('',*,*,#72,.F.);
#25=ORIENTED_EDGE('',*,*,#73,.F.);
#26=ORIENTED_EDGE('',*,*,#74,.F.);
#27=ORIENTED_EDGE('',*,*,#75,.F.);
#28=ORIENTED_EDGE('',*,*,#76,.F.);
#29=ORIENTED_EDGE('',*,*,#77,.F.);
#30=ORIENTED_EDGE('',*,*,#78,.F.);
#31=ORIENTED_EDGE('',*,*,#79,.F.);
#32=ORIENTED_EDGE('',*,*,#80,.T.);
#33=ORIENTED_EDGE('',*,*,#81,.T.);
#34=ORIENTED_EDGE('',*,*,#82,.T.);
#35=ORIENTED_EDGE('',*,*,#83,.T.);
#36=ORIENTED_EDGE('',*,*,#71,.F.);
#37=ORIENTED_EDGE('',*,*,#84,.F.);
#38=ORIENTED_EDGE('',*,*,#77,.T.);
#39=ORIENTED_EDGE('',*,*,#85,.T.);
#40=ORIENTED_EDGE('',*,*,#75,.T.);
#41=ORIENTED_EDGE('',*,*,#86,.F.);
#42=ORIENTED_EDGE('',*,*,#81,.F.);
#43=ORIENTED_EDGE('',*,*,#87,.T.);
#44=ORIENTED_EDGE('',*,*,#74,.T.);
#45=ORIENTED_EDGE('',*,*,#88,.F.);
#46=ORIENTED_EDGE('',*,*,#82,.F.);
#47=ORIENTED_EDGE('',*,*,#86,.T.);
#48=ORIENTED_EDGE('',*,*,#73,.T.);
#49=ORIENTED_EDGE('',*,*,#89,.F.);
#50=ORIENTED_EDGE('',*,*,#83,.F.);
#51=ORIENTED_EDGE('',*,*,#88,.T.);
#52=ORIENTED_EDGE('',*,*,#72,.T.);
#53=ORIENTED_EDGE('',*,*,#87,.F.);
#54=ORIENTED_EDGE('',*,*,#80,.F.);
#55=ORIENTED_EDGE('',*,*,#89,.T.);
#56=ORIENTED_EDGE('',*,*,#70,.F.);
#57=ORIENTED_EDGE('',*,*,#90,.F.);
#58=ORIENTED_EDGE('',*,*,#78,.T.);
#59=ORIENTED_EDGE('',*,*,#84,.T.);
#60=ORIENTED_EDGE('',*,*,#69,.F.);
#61=ORIENTED_EDGE('',*,*,#91,.F.);
#62=ORIENTED_EDGE('',*,*,#79,.T.);
#63=ORIENTED_EDGE('',*,*,#90,.T.);
#64=ORIENTED_EDGE('',*,*,#68,.F.);
#65=ORIENTED_EDGE('',*,*,#85,.F.);
#66=ORIENTED_EDGE('',*,*,#76,.T.);
#67=ORIENTED_EDGE('',*,*,#91,.T.);
#68=EDGE_CURVE('',#92,#93,#108,.T.);
#69=EDGE_CURVE('',#93,#94,#109,.T.);
#70=EDGE_CURVE('',#94,#95,#110,.T.);
#71=EDGE_CURVE('',#95,#92,#111,.T.);
#72=EDGE_CURVE('',#96,#97,#112,.T.);
#73=EDGE_CURVE('',#98,#96,#113,.T.);
#74=EDGE_CURVE('',#99,#98,#114,.T.);
#75=EDGE_CURVE('',#97,#99,#115,.T.);
#76=EDGE_CURVE('',#100,#101,#116,.T.);
#77=EDGE_CURVE('',#102,#100,#117,.T.);
#78=EDGE_CURVE('',#103,#102,#118,.T.);
#79=EDGE_CURVE('',#101,#103,#119,.T.);
#80=EDGE_CURVE('',#104,#105,#120,.T.);
#81=EDGE_CURVE('',#105,#106,#121,.T.);
#82=EDGE_CURVE('',#106,#107,#122,.T.);
#83=EDGE_CURVE('',#107,#104,#123,.T.);
#84=EDGE_CURVE('',#102,#95,#124,.T.);
#85=EDGE_CURVE('',#100,#92,#125,.T.);
#86=EDGE_CURVE('',#106,#99,#126,.T.);
#87=EDGE_CURVE('',#105,#97,#127,.T.);
#88=EDGE_CURVE('',#107,#98,#128,.T.);
#89=EDGE_CURVE('',#104,#96,#129,.T.);
#90=EDGE_CURVE('',#103,#94,#130,.T.);
#91=EDGE_CURVE('',#101,#93,#131,.T.);
#92=VERTEX_POINT('',#272);
#93=VERTEX_POINT('',#273);
#94=VERTEX_POINT('',#275);
#95=VERTEX_POINT('',#277);
#96=VERTEX_POINT('',#280);
#97=VERTEX_POINT('',#281);
#98=VERTEX_POINT('',#283);
#99=VERTEX_POINT('',#285);
#100=VERTEX_POINT('',#289);
#101=VERTEX_POINT('',#290);
#102=VERTEX_POINT('',#292);
#103=VERTEX_POINT('',#294);
#104=VERTEX_POINT('',#297);
#105=VERTEX_POINT('',#298);
#106=VERTEX_POINT('',#300);
#107=VERTEX_POINT('',#302);
#108=LINE('',#271,#132);
#109=LINE('',#274,#133);
#110=LINE('',#276,#134);
#111=LINE('',#278,#135);
#112=LINE('',#279,#136);
#113=LINE('',#282,#137);
#114=LINE('',#284,#138);
#115=LINE('',#286,#139);
#116=LINE('',#288,#140);
#117=LINE('',#291,#141);
#118=LINE('',#293,#142);
#119=LINE('',#295,#143);
#120=LINE('',#296,#144);
#121=LINE('',#299,#145);
#122=LINE('',#301,#146);
#123=LINE('',#303,#147);
#124=LINE('',#305,#148);
#125=LINE('',#306,#149);
#126=LINE('',#308,#150);
#127=LINE('',#309,#151);
#128=LINE('',#311,#152);
#129=LINE('',#313,#153);
#130=LINE('',#316,#154);
#131=LINE('',#318,#155);
#132=VECTOR('',#227,1.);
#133=VECTOR('',#228,1.);
#134=VECTOR('',#229,1.);
#135=VECTOR('',#230,1.);
#136=VECTOR('',#231,1.);
#137=VECTOR('',#232,1.);
#138=VECTOR('',#233,1.);
#139=VECTOR('',#234,1.);
#140=VECTOR('',#237,1.);
#141=VECTOR('',#238,1.);
#142=VECTOR('',#239,1.);
#143=VECTOR('',#240,1.);
#144=VECTOR('',#241,1.);
#145=VECTOR('',#242,1.);
#146=VECTOR('',#243,1.);
#147=VECTOR('',#244,1.);
#148=VECTOR('',#247,1.);
#149=VECTOR('',#248,1.);
#150=VECTOR('',#251,1.);
#151=VECTOR('',#252,1.);
#152=VECTOR('',#255,1.);
#153=VECTOR('',#258,1.);
#154=VECTOR('',#263,1.);
#155=VECTOR('',#266,1.);
#156=EDGE_LOOP('',(#20,#21,#22,#23));
#157=EDGE_LOOP('',(#24,#25,#26,#27));
#158=EDGE_LOOP('',(#28,#29,#30,#31));
#159=EDGE_LOOP('',(#32,#33,#34,#35));
#160=EDGE_LOOP('',(#36,#37,#38,#39));
#161=EDGE_LOOP('',(#40,#41,#42,#43));
#162=EDGE_LOOP('',(#44,#45,#46,#47));
#163=EDGE_LOOP('',(#48,#49,#50,#51));
#164=EDGE_LOOP('',(#52,#53,#54,#55));
#165=EDGE_LOOP('',(#56,#57,#58,#59));
#166=EDGE_LOOP('',(#60,#61,#62,#63));
#167=EDGE_LOOP('',(#64,#65,#66,#67));
#168=FACE_BOUND('',#156,.T.);
#169=FACE_BOUND('',#157,.T.);
#170=FACE_BOUND('',#158,.T.);
#171=FACE_BOUND('',#159,.T.);
#172=FACE_BOUND('',#160,.T.);
#173=FACE_BOUND('',#161,.T.);
#174=FACE_BOUND('',#162,.T.);
#175=FACE_BOUND('',#163,.T.);
#176=FACE_BOUND('',#164,.T.);
#177=FACE_BOUND('',#165,.T.);
#178=FACE_BOUND('',#166,.T.);
#179=FACE_BOUND('',#167,.T.);
#180=PLANE('',#213);
#181=PLANE('',#214);
#182=PLANE('',#215);
#183=PLANE('',#216);
#184=PLANE('',#217);
#185=PLANE('',#218);
#186=PLANE('',#219);
#187=PLANE('',#220);
#188=PLANE('',#221);
#189=PLANE('',#222);
#190=ADVANCED_FACE('',(#168,#169),#180,.T.);
#191=ADVANCED_FACE('',(#170,#171),#181,.F.);
#192=ADVANCED_FACE('',(#172),#182,.F.);
#193=ADVANCED_FACE('',(#173),#183,.T.);
#194=ADVANCED_FACE('',(#174),#184,.T.);
#195=ADVANCED_FACE('',(#175),#185,.T.);
#196=ADVANCED_FACE('',(#176),#186,.T.);
#197=ADVANCED_FACE('',(#177),#187,.F.);
#198=ADVANCED_FACE('',(#178),#188,.F.);
#199=ADVANCED_FACE('',(#179),#189,.F.);
#200=CLOSED_SHELL('',(#190,#191,#192,#193,#194,#195,#196,#197,#198,#199));
#201=STYLED_ITEM('',(#202),#209);
#202=PRESENTATION_STYLE_ASSIGNMENT((#203));
#203=SURFACE_STYLE_USAGE(.BOTH.,#204);
#204=SURFACE_SIDE_STYLE('',(#205));
#205=SURFACE_STYLE_FILL_AREA(#206);
#206=FILL_AREA_STYLE('',(#207));
#207=FILL_AREA_STYLE_COLOUR('',#208);
#208=DRAUGHTING_PRE_DEFINED_COLOUR('white');
#209=MANIFOLD_SOLID_BREP('left_motor',#200);
#210=SHAPE_DEFINITION_REPRESENTATION(#326,#211);
#211=SHAPE_REPRESENTATION('left_motor',(#212),#321);
#212=AXIS2_PLACEMENT_3D('',#269,#223,#224);
#213=AXIS2_PLACEMENT_3D('',#270,#225,#226);
#214=AXIS2_PLACEMENT_3D('',#287,#235,#236);
#215=AXIS2_PLACEMENT_3D('',#304,#245,#246);
#216=AXIS2_PLACEMENT_3D('',#307,#249,#250);
#217=AXIS2_PLACEMENT_3D('',#310,#253,#254);
#218=AXIS2_PLACEMENT_3D('',#312,#256,#257);
#219=AXIS2_PLACEMENT_3D('',#314,#259,#260);
#220=AXIS2_PLACEMENT_3D('',#315,#261,#262);
#221=AXIS2_PLACEMENT_3D('',#317,#264,#265);
#222=AXIS2_PLACEMENT_3D('',#319,#267,#268);
#223=DIRECTION('',(0.,0.,1.));
#224=DIRECTION('',(1.,0.,0.));
#225=DIRECTION('',(1.,0.,0.));
#226=DIRECTION('',(0.,0.,-1.));
#227=DIRECTION('',(0.,0.,1.));
#228=DIRECTION('',(0.,1.,-2.89120579329468E-16));
#229=DIRECTION('',(0.,0.,-1.));
#230=DIRECTION('',(0.,-1.,0.));
#231=DIRECTION('',(0.,0.,1.));
#232=DIRECTION('',(0.,-1.,0.));
#233=DIRECTION('',(0.,0.,-1.));
#234=DIRECTION('',(0.,1.,0.));
#235=DIRECTION('',(1.,0.,0.));
#236=DIRECTION('',(0.,0.,-1.));
#237=DIRECTION('',(0.,0.,1.));
#238=DIRECTION('',(0.,-1.,0.));
#239=DIRECTION('',(0.,0.,-1.));
#240=DIRECTION('',(0.,1.,-2.89120579329468E-16));
#241=DIRECTION('',(0.,0.,1.));
#242=DIRECTION('',(0.,1.,0.));
#243=DIRECTION('',(0.,0.,-1.));
#244=DIRECTION('',(0.,-1.,0.));
#245=DIRECTION('',(0.,0.,-1.));
#246=DIRECTION('',(-1.,0.,0.));
#247=DIRECTION('',(1.,0.,0.));
#248=DIRECTION('',(1.,0.,0.));
#249=DIRECTION('',(0.,0.,1.));
#250=DIRECTION('',(1.,0.,0.));
#251=DIRECTION('',(1.,0.,0.));
#252=DIRECTION('',(1.,0.,0.));
#253=DIRECTION('',(0.,1.,0.));
#254=DIRECTION('',(0.,0.,1.));
#255=DIRECTION('',(1.,0.,0.));
#256=DIRECTION('',(0.,0.,-1.));
#257=DIRECTION('',(-1.,0.,0.));
#258=DIRECTION('',(1.,0.,0.));
#259=DIRECTION('',(0.,-1.,0.));
#260=DIRECTION('',(0.,0.,-1.));
#261=DIRECTION('',(0.,1.,0.));
#262=DIRECTION('',(0.,0.,1.));
#263=DIRECTION('',(1.,0.,0.));
#264=DIRECTION('',(0.,2.89120579329468E-16,1.));
#265=DIRECTION('',(0.,-1.,2.89120579329468E-16));
#266=DIRECTION('',(1.,0.,0.));
#267=DIRECTION('',(0.,-1.,0.));
#268=DIRECTION('',(0.,0.,-1.));
#269=CARTESIAN_POINT('',(0.,0.,0.));
#270=CARTESIAN_POINT('',(-0.012,0.,0.));
#271=CARTESIAN_POINT('',(-0.012,0.065,0.0065));
#272=CARTESIAN_POINT('',(-0.012,0.065,-0.0065));
#273=CARTESIAN_POINT('',(-0.012,0.065,0.0065));
#274=CARTESIAN_POINT('',(-0.012,0.068,0.0065));
#275=CARTESIAN_POINT('',(-0.012,0.068,0.0065));
#276=CARTESIAN_POINT('',(-0.012,0.068,-0.0065));
#277=CARTESIAN_POINT('',(-0.012,0.068,-0.0065));
#278=CARTESIAN_POINT('',(-0.012,0.065,-0.0065));
#279=CARTESIAN_POINT('',(-0.012,0.064,0.0075));
#280=CARTESIAN_POINT('',(-0.012,0.064,-0.0075));
#281=CARTESIAN_POINT('',(-0.012,0.064,0.0075));
#282=CARTESIAN_POINT('',(-0.012,0.064,-0.0075));
#283=CARTESIAN_POINT('',(-0.012,0.069,-0.0075));
#284=CARTESIAN_POINT('',(-0.012,0.069,-0.0075));
#285=CARTESIAN_POINT('',(-0.012,0.069,0.0075));
#286=CARTESIAN_POINT('',(-0.012,0.069,0.0075));
#287=CARTESIAN_POINT('',(-0.017,0.,0.));
#288=CARTESIAN_POINT('',(-0.017,0.065,0.0065));
#289=CARTESIAN_POINT('',(-0.017,0.065,-0.0065));
#290=CARTESIAN_POINT('',(-0.017,0.065,0.0065));
#291=CARTESIAN_POINT('',(-0.017,0.065,-0.0065));
#292=CARTESIAN_POINT('',(-0.017,0.068,-0.0065));
#293=CARTESIAN_POINT('',(-0.017,0.068,-0.0065));
#294=CARTESIAN_POINT('',(-0.017,0.068,0.0065));
#295=CARTESIAN_POINT('',(-0.017,0.068,0.0065));
#296=CARTESIAN_POINT('',(-0.017,0.064,0.0075));
#297=CARTESIAN_POINT('',(-0.017,0.064,-0.0075));
#298=CARTESIAN_POINT('',(-0.017,0.064,0.0075));
#299=CARTESIAN_POINT('',(-0.017,0.069,0.0075));
#300=CARTESIAN_POINT('',(-0.017,0.069,0.0075));
#301=CARTESIAN_POINT('',(-0.017,0.069,-0.0075));
#302=CARTESIAN_POINT('',(-0.017,0.069,-0.0075));
#303=CARTESIAN_POINT('',(-0.017,0.064,-0.0075));
#304=CARTESIAN_POINT('',(-0.017,0.065,-0.0065));
#305=CARTESIAN_POINT('',(-0.017,0.068,-0.0065));
#306=CARTESIAN_POINT('',(-0.017,0.065,-0.0065));
#307=CARTESIAN_POINT('',(-0.017,0.069,0.0075));
#308=CARTESIAN_POINT('',(-0.017,0.069,0.0075));
#309=CARTESIAN_POINT('',(-0.017,0.064,0.0075));
#310=CARTESIAN_POINT('',(-0.017,0.069,-0.0075));
#311=CARTESIAN_POINT('',(-0.017,0.069,-0.0075));
#312=CARTESIAN_POINT('',(-0.017,0.064,-0.0075));
#313=CARTESIAN_POINT('',(-0.017,0.064,-0.0075));
#314=CARTESIAN_POINT('',(-0.017,0.064,0.0075));
#315=CARTESIAN_POINT('',(-0.017,0.068,-0.0065));
#316=CARTESIAN_POINT('',(-0.017,0.068,0.0065));
#317=CARTESIAN_POINT('',(-0.017,0.068,0.0065));
#318=CARTESIAN_POINT('',(-0.017,0.065,0.0065));
#319=CARTESIAN_POINT('',(-0.017,0.065,0.0065));
#320=MECHANICAL_DESIGN_GEOMETRIC_PRESENTATION_REPRESENTATION('',(#201),
#321);
#321=(
GEOMETRIC_REPRESENTATION_CONTEXT(3)
GLOBAL_UNCERTAINTY_ASSIGNED_CONTEXT((#322))
GLOBAL_UNIT_ASSIGNED_CONTEXT((#325,#324,#323))
REPRESENTATION_CONTEXT('left_motor','TOP_LEVEL_ASSEMBLY_PART')
);
#322=UNCERTAINTY_MEASURE_WITH_UNIT(LENGTH_MEASURE(5.E-6),#325,
'DISTANCE_ACCURACY_VALUE','Maximum Tolerance applied to model');
#323=(
NAMED_UNIT(*)
SI_UNIT($,.STERADIAN.)
SOLID_ANGLE_UNIT()
);
#324=(
NAMED_UNIT(*)
PLANE_ANGLE_UNIT()
SI_UNIT($,.RADIAN.)
);
#325=(
LENGTH_UNIT()
NAMED_UNIT(*)
SI_UNIT($,.METRE.)
);
#326=PRODUCT_DEFINITION_SHAPE('','',#327);
#327=PRODUCT_DEFINITION('','',#329,#328);
#328=PRODUCT_DEFINITION_CONTEXT('',#335,'design');
#329=PRODUCT_DEFINITION_FORMATION_WITH_SPECIFIED_SOURCE('','',#331,
 .NOT_KNOWN.);
#330=PRODUCT_RELATED_PRODUCT_CATEGORY('','',(#331));
#331=PRODUCT('left_motor','left_motor','left_motor',(#333));
#332=PRODUCT_CATEGORY('','');
#333=PRODUCT_CONTEXT('',#335,'mechanical');
#334=APPLICATION_PROTOCOL_DEFINITION('international standard',
'automotive_design',2010,#335);
#335=APPLICATION_CONTEXT(
'core data for automotive mechanical design processes');
ENDSEC;
END-ISO-10303-21;
