ISO-10303-21;
HEADER;
/* Generated by software containing ST-Developer
 * from STEP Tools, Inc. (www.steptools.com) 
 */
/* OPTION: using custom renumber hook */

FILE_DESCRIPTION(
/* description */ ('STEP AP214'),
/* implementation_level */ '2;1');

FILE_NAME(
/* name */ '654cf5b87f9aa566be172319',
/* time_stamp */ '2023-11-09T15:07:37Z',
/* author */ (''),
/* organization */ (''),
/* preprocessor_version */ 'ST-DEVELOPER v19.4',
/* originating_system */ '  ',
/* authorisation */ '  ');

FILE_SCHEMA (('AUTOMOTIVE_DESIGN {1 0 10303 214 3 1 1}'));
ENDSEC;

DATA;
#10=PROPERTY_DEFINITION_REPRESENTATION(#14,#12);
#11=PROPERTY_DEFINITION_REPRESENTATION(#15,#13);
#12=REPRESENTATION('',(#16),#625);
#13=REPRESENTATION('',(#17),#625);
#14=PROPERTY_DEFINITION('pmi validation property','',#630);
#15=PROPERTY_DEFINITION('pmi validation property','',#630);
#16=VALUE_REPRESENTATION_ITEM('number of annotations',COUNT_MEASURE(0.));
#17=VALUE_REPRESENTATION_ITEM('number of views',COUNT_MEASURE(0.));
#18=SHAPE_REPRESENTATION_RELATIONSHIP('','',#351,#19);
#19=ADVANCED_BREP_SHAPE_REPRESENTATION('',(#349),#625);
#20=LINE('',#613,#26);
#21=LINE('',#614,#27);
#22=LINE('',#616,#28);
#23=LINE('',#618,#29);
#24=LINE('',#620,#30);
#25=LINE('',#622,#31);
#26=VECTOR('',#462,1.);
#27=VECTOR('',#463,1.);
#28=VECTOR('',#466,1.);
#29=VECTOR('',#469,1.);
#30=VECTOR('',#472,1.);
#31=VECTOR('',#475,1.);
#32=CYLINDRICAL_SURFACE('',#385,0.00069);
#33=PLANE('',#383);
#34=PLANE('',#384);
#35=PLANE('',#386);
#36=PLANE('',#387);
#37=PLANE('',#388);
#38=PLANE('',#389);
#39=PLANE('',#390);
#40=PLANE('',#391);
#41=(
BOUNDED_CURVE()
B_SPLINE_CURVE(2,(#490,#491,#492),.UNSPECIFIED.,.F.,.F.)
B_SPLINE_CURVE_WITH_KNOTS((3,3),(0.671217761972344,0.918358008556708),
 .UNSPECIFIED.)
CURVE()
GEOMETRIC_REPRESENTATION_ITEM()
RATIONAL_B_SPLINE_CURVE((2.12583302491977,2.12583302491977,1.97320508075182))
REPRESENTATION_ITEM('')
);
#42=(
BOUNDED_CURVE()
B_SPLINE_CURVE(2,(#495,#496,#497),.UNSPECIFIED.,.F.,.F.)
B_SPLINE_CURVE_WITH_KNOTS((3,3),(0.424077515387982,0.671217761972344),
 .UNSPECIFIED.)
CURVE()
GEOMETRIC_REPRESENTATION_ITEM()
RATIONAL_B_SPLINE_CURVE((1.97320508075182,2.12583302491977,2.12583302491977))
REPRESENTATION_ITEM('')
);
#43=(
BOUNDED_CURVE()
B_SPLINE_CURVE(2,(#501,#502,#503),.UNSPECIFIED.,.F.,.F.)
B_SPLINE_CURVE_WITH_KNOTS((3,3),(0.671217761972345,0.918358008556708),
 .UNSPECIFIED.)
CURVE()
GEOMETRIC_REPRESENTATION_ITEM()
RATIONAL_B_SPLINE_CURVE((2.12583302491977,2.12583302491977,1.97320508075183))
REPRESENTATION_ITEM('')
);
#44=(
BOUNDED_CURVE()
B_SPLINE_CURVE(2,(#506,#507,#508),.UNSPECIFIED.,.F.,.F.)
B_SPLINE_CURVE_WITH_KNOTS((3,3),(0.424077515387983,0.671217761972344),
 .UNSPECIFIED.)
CURVE()
GEOMETRIC_REPRESENTATION_ITEM()
RATIONAL_B_SPLINE_CURVE((1.97320508075182,2.12583302491977,2.12583302491977))
REPRESENTATION_ITEM('')
);
#45=(
BOUNDED_CURVE()
B_SPLINE_CURVE(2,(#511,#512,#513),.UNSPECIFIED.,.F.,.F.)
B_SPLINE_CURVE_WITH_KNOTS((3,3),(0.424077515387983,0.671217761972344),
 .UNSPECIFIED.)
CURVE()
GEOMETRIC_REPRESENTATION_ITEM()
RATIONAL_B_SPLINE_CURVE((1.97320508075183,2.12583302491977,2.12583302491977))
REPRESENTATION_ITEM('')
);
#46=(
BOUNDED_CURVE()
B_SPLINE_CURVE(2,(#517,#518,#519),.UNSPECIFIED.,.F.,.F.)
B_SPLINE_CURVE_WITH_KNOTS((3,3),(0.671217761972345,0.918358008556709),
 .UNSPECIFIED.)
CURVE()
GEOMETRIC_REPRESENTATION_ITEM()
RATIONAL_B_SPLINE_CURVE((2.12583302491977,2.12583302491977,1.97320508075182))
REPRESENTATION_ITEM('')
);
#47=(
BOUNDED_CURVE()
B_SPLINE_CURVE(2,(#521,#522,#523),.UNSPECIFIED.,.F.,.F.)
B_SPLINE_CURVE_WITH_KNOTS((3,3),(0.424077515387982,0.671217761972344),
 .UNSPECIFIED.)
CURVE()
GEOMETRIC_REPRESENTATION_ITEM()
RATIONAL_B_SPLINE_CURVE((1.97320508075182,2.12583302491977,2.12583302491977))
REPRESENTATION_ITEM('')
);
#48=(
BOUNDED_CURVE()
B_SPLINE_CURVE(2,(#527,#528,#529),.UNSPECIFIED.,.F.,.F.)
B_SPLINE_CURVE_WITH_KNOTS((3,3),(0.671217761972345,0.918358008556707),
 .UNSPECIFIED.)
CURVE()
GEOMETRIC_REPRESENTATION_ITEM()
RATIONAL_B_SPLINE_CURVE((2.12583302491976,2.12583302491976,1.97320508075182))
REPRESENTATION_ITEM('')
);
#49=(
BOUNDED_CURVE()
B_SPLINE_CURVE(2,(#531,#532,#533),.UNSPECIFIED.,.F.,.F.)
B_SPLINE_CURVE_WITH_KNOTS((3,3),(0.671217761972344,0.918358008556707),
 .UNSPECIFIED.)
CURVE()
GEOMETRIC_REPRESENTATION_ITEM()
RATIONAL_B_SPLINE_CURVE((2.12583302491977,2.12583302491977,1.97320508075182))
REPRESENTATION_ITEM('')
);
#50=(
BOUNDED_CURVE()
B_SPLINE_CURVE(2,(#535,#536,#537),.UNSPECIFIED.,.F.,.F.)
B_SPLINE_CURVE_WITH_KNOTS((3,3),(0.424077515387982,0.671217761972346),
 .UNSPECIFIED.)
CURVE()
GEOMETRIC_REPRESENTATION_ITEM()
RATIONAL_B_SPLINE_CURVE((1.97320508075183,2.12583302491977,2.12583302491977))
REPRESENTATION_ITEM('')
);
#51=(
BOUNDED_CURVE()
B_SPLINE_CURVE(2,(#541,#542,#543),.UNSPECIFIED.,.F.,.F.)
B_SPLINE_CURVE_WITH_KNOTS((3,3),(0.424077515387983,0.671217761972345),
 .UNSPECIFIED.)
CURVE()
GEOMETRIC_REPRESENTATION_ITEM()
RATIONAL_B_SPLINE_CURVE((1.97320508075182,2.12583302491976,2.12583302491976))
REPRESENTATION_ITEM('')
);
#52=(
BOUNDED_CURVE()
B_SPLINE_CURVE(2,(#546,#547,#548),.UNSPECIFIED.,.F.,.F.)
B_SPLINE_CURVE_WITH_KNOTS((3,3),(0.671217761972346,0.918358008556708),
 .UNSPECIFIED.)
CURVE()
GEOMETRIC_REPRESENTATION_ITEM()
RATIONAL_B_SPLINE_CURVE((2.12583302491977,2.12583302491977,1.97320508075183))
REPRESENTATION_ITEM('')
);
#53=(
BOUNDED_CURVE()
B_SPLINE_CURVE(2,(#553,#554,#555),.UNSPECIFIED.,.F.,.F.)
B_SPLINE_CURVE_WITH_KNOTS((3,3),(-0.91835800855671,-0.671217761972346),
 .UNSPECIFIED.)
CURVE()
GEOMETRIC_REPRESENTATION_ITEM()
RATIONAL_B_SPLINE_CURVE((1.97320508075183,2.12583302491977,2.12583302491977))
REPRESENTATION_ITEM('')
);
#54=(
BOUNDED_CURVE()
B_SPLINE_CURVE(2,(#557,#558,#559),.UNSPECIFIED.,.F.,.F.)
B_SPLINE_CURVE_WITH_KNOTS((3,3),(-0.671217761972347,-0.424077515387983),
 .UNSPECIFIED.)
CURVE()
GEOMETRIC_REPRESENTATION_ITEM()
RATIONAL_B_SPLINE_CURVE((2.12583302491978,2.12583302491978,1.97320508075183))
REPRESENTATION_ITEM('')
);
#55=(
BOUNDED_CURVE()
B_SPLINE_CURVE(2,(#563,#564,#565),.UNSPECIFIED.,.F.,.F.)
B_SPLINE_CURVE_WITH_KNOTS((3,3),(-0.918358008556708,-0.671217761972347),
 .UNSPECIFIED.)
CURVE()
GEOMETRIC_REPRESENTATION_ITEM()
RATIONAL_B_SPLINE_CURVE((1.97320508075183,2.12583302491978,2.12583302491978))
REPRESENTATION_ITEM('')
);
#56=(
BOUNDED_CURVE()
B_SPLINE_CURVE(2,(#567,#568,#569),.UNSPECIFIED.,.F.,.F.)
B_SPLINE_CURVE_WITH_KNOTS((3,3),(-0.671217761972349,-0.424077515387983),
 .UNSPECIFIED.)
CURVE()
GEOMETRIC_REPRESENTATION_ITEM()
RATIONAL_B_SPLINE_CURVE((2.12583302491978,2.12583302491978,1.97320508075183))
REPRESENTATION_ITEM('')
);
#57=(
BOUNDED_CURVE()
B_SPLINE_CURVE(2,(#571,#572,#573),.UNSPECIFIED.,.F.,.F.)
B_SPLINE_CURVE_WITH_KNOTS((3,3),(-0.671217761972348,-0.424077515387982),
 .UNSPECIFIED.)
CURVE()
GEOMETRIC_REPRESENTATION_ITEM()
RATIONAL_B_SPLINE_CURVE((2.12583302491977,2.12583302491978,1.97320508075183))
REPRESENTATION_ITEM('')
);
#58=(
BOUNDED_CURVE()
B_SPLINE_CURVE(2,(#577,#578,#579),.UNSPECIFIED.,.F.,.F.)
B_SPLINE_CURVE_WITH_KNOTS((3,3),(-0.918358008556709,-0.671217761972349),
 .UNSPECIFIED.)
CURVE()
GEOMETRIC_REPRESENTATION_ITEM()
RATIONAL_B_SPLINE_CURVE((1.97320508075183,2.12583302491978,2.12583302491978))
REPRESENTATION_ITEM('')
);
#59=(
BOUNDED_CURVE()
B_SPLINE_CURVE(2,(#581,#582,#583),.UNSPECIFIED.,.F.,.F.)
B_SPLINE_CURVE_WITH_KNOTS((3,3),(-0.671217761972346,-0.424077515387983),
 .UNSPECIFIED.)
CURVE()
GEOMETRIC_REPRESENTATION_ITEM()
RATIONAL_B_SPLINE_CURVE((2.12583302491977,2.12583302491977,1.97320508075182))
REPRESENTATION_ITEM('')
);
#60=(
BOUNDED_CURVE()
B_SPLINE_CURVE(2,(#587,#588,#589),.UNSPECIFIED.,.F.,.F.)
B_SPLINE_CURVE_WITH_KNOTS((3,3),(-0.91835800855671,-0.671217761972348),
 .UNSPECIFIED.)
CURVE()
GEOMETRIC_REPRESENTATION_ITEM()
RATIONAL_B_SPLINE_CURVE((1.97320508075183,2.12583302491977,2.12583302491977))
REPRESENTATION_ITEM('')
);
#61=(
BOUNDED_CURVE()
B_SPLINE_CURVE(2,(#593,#594,#595),.UNSPECIFIED.,.F.,.F.)
B_SPLINE_CURVE_WITH_KNOTS((3,3),(-0.918358008556709,-0.671217761972346),
 .UNSPECIFIED.)
CURVE()
GEOMETRIC_REPRESENTATION_ITEM()
RATIONAL_B_SPLINE_CURVE((1.97320508075183,2.12583302491978,2.12583302491978))
REPRESENTATION_ITEM('')
);
#62=(
BOUNDED_CURVE()
B_SPLINE_CURVE(2,(#597,#598,#599),.UNSPECIFIED.,.F.,.F.)
B_SPLINE_CURVE_WITH_KNOTS((3,3),(-0.671217761972346,-0.424077515387984),
 .UNSPECIFIED.)
CURVE()
GEOMETRIC_REPRESENTATION_ITEM()
RATIONAL_B_SPLINE_CURVE((2.12583302491977,2.12583302491977,1.97320508075183))
REPRESENTATION_ITEM('')
);
#63=(
BOUNDED_CURVE()
B_SPLINE_CURVE(2,(#601,#602,#603),.UNSPECIFIED.,.F.,.F.)
B_SPLINE_CURVE_WITH_KNOTS((3,3),(-0.671217761972346,-0.424077515387984),
 .UNSPECIFIED.)
CURVE()
GEOMETRIC_REPRESENTATION_ITEM()
RATIONAL_B_SPLINE_CURVE((2.12583302491978,2.12583302491978,1.97320508075183))
REPRESENTATION_ITEM('')
);
#64=(
BOUNDED_CURVE()
B_SPLINE_CURVE(2,(#606,#607,#608),.UNSPECIFIED.,.F.,.F.)
B_SPLINE_CURVE_WITH_KNOTS((3,3),(-0.918358008556707,-0.671217761972346),
 .UNSPECIFIED.)
CURVE()
GEOMETRIC_REPRESENTATION_ITEM()
RATIONAL_B_SPLINE_CURVE((1.97320508075183,2.12583302491977,2.12583302491977))
REPRESENTATION_ITEM('')
);
#65=ORIENTED_EDGE('',*,*,#157,.F.);
#66=ORIENTED_EDGE('',*,*,#158,.F.);
#67=ORIENTED_EDGE('',*,*,#159,.F.);
#68=ORIENTED_EDGE('',*,*,#160,.F.);
#69=ORIENTED_EDGE('',*,*,#161,.T.);
#70=ORIENTED_EDGE('',*,*,#162,.T.);
#71=ORIENTED_EDGE('',*,*,#163,.F.);
#72=ORIENTED_EDGE('',*,*,#164,.T.);
#73=ORIENTED_EDGE('',*,*,#165,.T.);
#74=ORIENTED_EDGE('',*,*,#166,.F.);
#75=ORIENTED_EDGE('',*,*,#167,.T.);
#76=ORIENTED_EDGE('',*,*,#168,.F.);
#77=ORIENTED_EDGE('',*,*,#169,.T.);
#78=ORIENTED_EDGE('',*,*,#170,.T.);
#79=ORIENTED_EDGE('',*,*,#171,.F.);
#80=ORIENTED_EDGE('',*,*,#172,.T.);
#81=ORIENTED_EDGE('',*,*,#173,.T.);
#82=ORIENTED_EDGE('',*,*,#174,.T.);
#83=ORIENTED_EDGE('',*,*,#175,.F.);
#84=ORIENTED_EDGE('',*,*,#176,.T.);
#85=ORIENTED_EDGE('',*,*,#177,.F.);
#86=ORIENTED_EDGE('',*,*,#178,.T.);
#87=ORIENTED_EDGE('',*,*,#179,.T.);
#88=ORIENTED_EDGE('',*,*,#180,.F.);
#89=ORIENTED_EDGE('',*,*,#181,.F.);
#90=ORIENTED_EDGE('',*,*,#182,.T.);
#91=ORIENTED_EDGE('',*,*,#183,.F.);
#92=ORIENTED_EDGE('',*,*,#184,.F.);
#93=ORIENTED_EDGE('',*,*,#185,.F.);
#94=ORIENTED_EDGE('',*,*,#186,.T.);
#95=ORIENTED_EDGE('',*,*,#187,.F.);
#96=ORIENTED_EDGE('',*,*,#188,.F.);
#97=ORIENTED_EDGE('',*,*,#189,.T.);
#98=ORIENTED_EDGE('',*,*,#190,.F.);
#99=ORIENTED_EDGE('',*,*,#191,.T.);
#100=ORIENTED_EDGE('',*,*,#192,.F.);
#101=ORIENTED_EDGE('',*,*,#193,.F.);
#102=ORIENTED_EDGE('',*,*,#194,.F.);
#103=ORIENTED_EDGE('',*,*,#195,.T.);
#104=ORIENTED_EDGE('',*,*,#196,.F.);
#105=ORIENTED_EDGE('',*,*,#157,.T.);
#106=ORIENTED_EDGE('',*,*,#166,.T.);
#107=ORIENTED_EDGE('',*,*,#163,.T.);
#108=ORIENTED_EDGE('',*,*,#175,.T.);
#109=ORIENTED_EDGE('',*,*,#177,.T.);
#110=ORIENTED_EDGE('',*,*,#171,.T.);
#111=ORIENTED_EDGE('',*,*,#168,.T.);
#112=ORIENTED_EDGE('',*,*,#159,.T.);
#113=ORIENTED_EDGE('',*,*,#179,.F.);
#114=ORIENTED_EDGE('',*,*,#182,.F.);
#115=ORIENTED_EDGE('',*,*,#186,.F.);
#116=ORIENTED_EDGE('',*,*,#189,.F.);
#117=ORIENTED_EDGE('',*,*,#195,.F.);
#118=ORIENTED_EDGE('',*,*,#191,.F.);
#119=ORIENTED_EDGE('',*,*,#158,.T.);
#120=ORIENTED_EDGE('',*,*,#160,.T.);
#121=ORIENTED_EDGE('',*,*,#174,.F.);
#122=ORIENTED_EDGE('',*,*,#197,.F.);
#123=ORIENTED_EDGE('',*,*,#192,.T.);
#124=ORIENTED_EDGE('',*,*,#194,.T.);
#125=ORIENTED_EDGE('',*,*,#198,.T.);
#126=ORIENTED_EDGE('',*,*,#178,.F.);
#127=ORIENTED_EDGE('',*,*,#176,.F.);
#128=ORIENTED_EDGE('',*,*,#198,.F.);
#129=ORIENTED_EDGE('',*,*,#196,.T.);
#130=ORIENTED_EDGE('',*,*,#188,.T.);
#131=ORIENTED_EDGE('',*,*,#199,.T.);
#132=ORIENTED_EDGE('',*,*,#172,.F.);
#133=ORIENTED_EDGE('',*,*,#170,.F.);
#134=ORIENTED_EDGE('',*,*,#199,.F.);
#135=ORIENTED_EDGE('',*,*,#190,.T.);
#136=ORIENTED_EDGE('',*,*,#185,.T.);
#137=ORIENTED_EDGE('',*,*,#200,.T.);
#138=ORIENTED_EDGE('',*,*,#169,.F.);
#139=ORIENTED_EDGE('',*,*,#167,.F.);
#140=ORIENTED_EDGE('',*,*,#200,.F.);
#141=ORIENTED_EDGE('',*,*,#187,.T.);
#142=ORIENTED_EDGE('',*,*,#184,.T.);
#143=ORIENTED_EDGE('',*,*,#201,.T.);
#144=ORIENTED_EDGE('',*,*,#164,.F.);
#145=ORIENTED_EDGE('',*,*,#165,.F.);
#146=ORIENTED_EDGE('',*,*,#201,.F.);
#147=ORIENTED_EDGE('',*,*,#183,.T.);
#148=ORIENTED_EDGE('',*,*,#181,.T.);
#149=ORIENTED_EDGE('',*,*,#202,.T.);
#150=ORIENTED_EDGE('',*,*,#161,.F.);
#151=ORIENTED_EDGE('',*,*,#162,.F.);
#152=ORIENTED_EDGE('',*,*,#202,.F.);
#153=ORIENTED_EDGE('',*,*,#180,.T.);
#154=ORIENTED_EDGE('',*,*,#193,.T.);
#155=ORIENTED_EDGE('',*,*,#197,.T.);
#156=ORIENTED_EDGE('',*,*,#173,.F.);
#157=EDGE_CURVE('',#203,#203,#231,.T.);
#158=EDGE_CURVE('',#204,#204,#232,.T.);
#159=EDGE_CURVE('',#205,#205,#233,.T.);
#160=EDGE_CURVE('',#206,#206,#234,.T.);
#161=EDGE_CURVE('',#207,#208,#41,.T.);
#162=EDGE_CURVE('',#208,#209,#42,.T.);
#163=EDGE_CURVE('',#207,#209,#235,.T.);
#164=EDGE_CURVE('',#210,#211,#43,.T.);
#165=EDGE_CURVE('',#211,#207,#44,.T.);
#166=EDGE_CURVE('',#210,#207,#236,.T.);
#167=EDGE_CURVE('',#212,#210,#45,.T.);
#168=EDGE_CURVE('',#213,#210,#237,.T.);
#169=EDGE_CURVE('',#213,#212,#46,.T.);
#170=EDGE_CURVE('',#214,#213,#47,.T.);
#171=EDGE_CURVE('',#215,#213,#238,.T.);
#172=EDGE_CURVE('',#215,#214,#48,.T.);
#173=EDGE_CURVE('',#209,#216,#49,.T.);
#174=EDGE_CURVE('',#216,#217,#50,.T.);
#175=EDGE_CURVE('',#209,#217,#239,.T.);
#176=EDGE_CURVE('',#218,#215,#51,.T.);
#177=EDGE_CURVE('',#217,#215,#240,.T.);
#178=EDGE_CURVE('',#217,#218,#52,.T.);
#179=EDGE_CURVE('',#219,#220,#241,.T.);
#180=EDGE_CURVE('',#221,#220,#53,.T.);
#181=EDGE_CURVE('',#219,#221,#54,.T.);
#182=EDGE_CURVE('',#222,#219,#242,.T.);
#183=EDGE_CURVE('',#223,#219,#55,.T.);
#184=EDGE_CURVE('',#222,#223,#56,.T.);
#185=EDGE_CURVE('',#224,#225,#57,.T.);
#186=EDGE_CURVE('',#224,#222,#243,.T.);
#187=EDGE_CURVE('',#225,#222,#58,.T.);
#188=EDGE_CURVE('',#226,#227,#59,.T.);
#189=EDGE_CURVE('',#226,#224,#244,.T.);
#190=EDGE_CURVE('',#227,#224,#60,.T.);
#191=EDGE_CURVE('',#220,#228,#245,.T.);
#192=EDGE_CURVE('',#229,#228,#61,.T.);
#193=EDGE_CURVE('',#220,#229,#62,.T.);
#194=EDGE_CURVE('',#228,#230,#63,.T.);
#195=EDGE_CURVE('',#228,#226,#246,.T.);
#196=EDGE_CURVE('',#230,#226,#64,.T.);
#197=EDGE_CURVE('',#229,#216,#20,.T.);
#198=EDGE_CURVE('',#230,#218,#21,.T.);
#199=EDGE_CURVE('',#227,#214,#22,.T.);
#200=EDGE_CURVE('',#225,#212,#23,.T.);
#201=EDGE_CURVE('',#223,#211,#24,.T.);
#202=EDGE_CURVE('',#221,#208,#25,.T.);
#203=VERTEX_POINT('',#481);
#204=VERTEX_POINT('',#483);
#205=VERTEX_POINT('',#486);
#206=VERTEX_POINT('',#488);
#207=VERTEX_POINT('',#493);
#208=VERTEX_POINT('',#494);
#209=VERTEX_POINT('',#498);
#210=VERTEX_POINT('',#504);
#211=VERTEX_POINT('',#505);
#212=VERTEX_POINT('',#514);
#213=VERTEX_POINT('',#516);
#214=VERTEX_POINT('',#524);
#215=VERTEX_POINT('',#526);
#216=VERTEX_POINT('',#534);
#217=VERTEX_POINT('',#538);
#218=VERTEX_POINT('',#544);
#219=VERTEX_POINT('',#551);
#220=VERTEX_POINT('',#552);
#221=VERTEX_POINT('',#556);
#222=VERTEX_POINT('',#562);
#223=VERTEX_POINT('',#566);
#224=VERTEX_POINT('',#574);
#225=VERTEX_POINT('',#575);
#226=VERTEX_POINT('',#584);
#227=VERTEX_POINT('',#585);
#228=VERTEX_POINT('',#592);
#229=VERTEX_POINT('',#596);
#230=VERTEX_POINT('',#604);
#231=CIRCLE('',#354,0.00115);
#232=CIRCLE('',#355,0.00069);
#233=CIRCLE('',#357,0.00115);
#234=CIRCLE('',#358,0.00069);
#235=CIRCLE('',#360,0.002);
#236=CIRCLE('',#362,0.002);
#237=CIRCLE('',#364,0.002);
#238=CIRCLE('',#366,0.002);
#239=CIRCLE('',#368,0.002);
#240=CIRCLE('',#370,0.002);
#241=CIRCLE('',#372,0.002);
#242=CIRCLE('',#374,0.002);
#243=CIRCLE('',#376,0.002);
#244=CIRCLE('',#378,0.002);
#245=CIRCLE('',#380,0.002);
#246=CIRCLE('',#382,0.002);
#247=EDGE_LOOP('',(#65));
#248=EDGE_LOOP('',(#66));
#249=EDGE_LOOP('',(#67));
#250=EDGE_LOOP('',(#68));
#251=EDGE_LOOP('',(#69,#70,#71));
#252=EDGE_LOOP('',(#72,#73,#74));
#253=EDGE_LOOP('',(#75,#76,#77));
#254=EDGE_LOOP('',(#78,#79,#80));
#255=EDGE_LOOP('',(#81,#82,#83));
#256=EDGE_LOOP('',(#84,#85,#86));
#257=EDGE_LOOP('',(#87,#88,#89));
#258=EDGE_LOOP('',(#90,#91,#92));
#259=EDGE_LOOP('',(#93,#94,#95));
#260=EDGE_LOOP('',(#96,#97,#98));
#261=EDGE_LOOP('',(#99,#100,#101));
#262=EDGE_LOOP('',(#102,#103,#104));
#263=EDGE_LOOP('',(#105));
#264=EDGE_LOOP('',(#106,#107,#108,#109,#110,#111));
#265=EDGE_LOOP('',(#112));
#266=EDGE_LOOP('',(#113,#114,#115,#116,#117,#118));
#267=EDGE_LOOP('',(#119));
#268=EDGE_LOOP('',(#120));
#269=EDGE_LOOP('',(#121,#122,#123,#124,#125,#126));
#270=EDGE_LOOP('',(#127,#128,#129,#130,#131,#132));
#271=EDGE_LOOP('',(#133,#134,#135,#136,#137,#138));
#272=EDGE_LOOP('',(#139,#140,#141,#142,#143,#144));
#273=EDGE_LOOP('',(#145,#146,#147,#148,#149,#150));
#274=EDGE_LOOP('',(#151,#152,#153,#154,#155,#156));
#275=FACE_BOUND('',#247,.T.);
#276=FACE_BOUND('',#248,.T.);
#277=FACE_BOUND('',#249,.T.);
#278=FACE_BOUND('',#250,.T.);
#279=FACE_BOUND('',#251,.T.);
#280=FACE_BOUND('',#252,.T.);
#281=FACE_BOUND('',#253,.T.);
#282=FACE_BOUND('',#254,.T.);
#283=FACE_BOUND('',#255,.T.);
#284=FACE_BOUND('',#256,.T.);
#285=FACE_BOUND('',#257,.T.);
#286=FACE_BOUND('',#258,.T.);
#287=FACE_BOUND('',#259,.T.);
#288=FACE_BOUND('',#260,.T.);
#289=FACE_BOUND('',#261,.T.);
#290=FACE_BOUND('',#262,.T.);
#291=FACE_BOUND('',#263,.T.);
#292=FACE_BOUND('',#264,.T.);
#293=FACE_BOUND('',#265,.T.);
#294=FACE_BOUND('',#266,.T.);
#295=FACE_BOUND('',#267,.T.);
#296=FACE_BOUND('',#268,.T.);
#297=FACE_BOUND('',#269,.T.);
#298=FACE_BOUND('',#270,.T.);
#299=FACE_BOUND('',#271,.T.);
#300=FACE_BOUND('',#272,.T.);
#301=FACE_BOUND('',#273,.T.);
#302=FACE_BOUND('',#274,.T.);
#303=CONICAL_SURFACE('',#353,0.00115,1.0471975511966);
#304=CONICAL_SURFACE('',#356,0.00069,1.0471975511966);
#305=CONICAL_SURFACE('',#359,0.002,1.0471975511966);
#306=CONICAL_SURFACE('',#361,0.002,1.0471975511966);
#307=CONICAL_SURFACE('',#363,0.002,1.0471975511966);
#308=CONICAL_SURFACE('',#365,0.002,1.0471975511966);
#309=CONICAL_SURFACE('',#367,0.002,1.0471975511966);
#310=CONICAL_SURFACE('',#369,0.002,1.0471975511966);
#311=CONICAL_SURFACE('',#371,0.002,1.0471975511966);
#312=CONICAL_SURFACE('',#373,0.002,1.0471975511966);
#313=CONICAL_SURFACE('',#375,0.002,1.0471975511966);
#314=CONICAL_SURFACE('',#377,0.002,1.0471975511966);
#315=CONICAL_SURFACE('',#379,0.002,1.0471975511966);
#316=CONICAL_SURFACE('',#381,0.002,1.0471975511966);
#317=ADVANCED_FACE('',(#275,#276),#303,.F.);
#318=ADVANCED_FACE('',(#277,#278),#304,.F.);
#319=ADVANCED_FACE('',(#279),#305,.T.);
#320=ADVANCED_FACE('',(#280),#306,.T.);
#321=ADVANCED_FACE('',(#281),#307,.T.);
#322=ADVANCED_FACE('',(#282),#308,.T.);
#323=ADVANCED_FACE('',(#283),#309,.T.);
#324=ADVANCED_FACE('',(#284),#310,.T.);
#325=ADVANCED_FACE('',(#285),#311,.T.);
#326=ADVANCED_FACE('',(#286),#312,.T.);
#327=ADVANCED_FACE('',(#287),#313,.T.);
#328=ADVANCED_FACE('',(#288),#314,.T.);
#329=ADVANCED_FACE('',(#289),#315,.T.);
#330=ADVANCED_FACE('',(#290),#316,.T.);
#331=ADVANCED_FACE('',(#291,#292),#33,.F.);
#332=ADVANCED_FACE('',(#293,#294),#34,.T.);
#333=ADVANCED_FACE('',(#295,#296),#32,.F.);
#334=ADVANCED_FACE('',(#297),#35,.F.);
#335=ADVANCED_FACE('',(#298),#36,.F.);
#336=ADVANCED_FACE('',(#299),#37,.F.);
#337=ADVANCED_FACE('',(#300),#38,.F.);
#338=ADVANCED_FACE('',(#301),#39,.F.);
#339=ADVANCED_FACE('',(#302),#40,.F.);
#340=CLOSED_SHELL('',(#317,#318,#319,#320,#321,#322,#323,#324,#325,#326,
#327,#328,#329,#330,#331,#332,#333,#334,#335,#336,#337,#338,#339));
#341=STYLED_ITEM('',(#342),#349);
#342=PRESENTATION_STYLE_ASSIGNMENT((#343));
#343=SURFACE_STYLE_USAGE(.BOTH.,#344);
#344=SURFACE_SIDE_STYLE('',(#345));
#345=SURFACE_STYLE_FILL_AREA(#346);
#346=FILL_AREA_STYLE('',(#347));
#347=FILL_AREA_STYLE_COLOUR('',#348);
#348=COLOUR_RGB('',0.2,0.2,0.2);
#349=MANIFOLD_SOLID_BREP('nut_DIN934_M2',#340);
#350=SHAPE_DEFINITION_REPRESENTATION(#630,#351);
#351=SHAPE_REPRESENTATION('nut_DIN934_M2',(#352),#625);
#352=AXIS2_PLACEMENT_3D('',#478,#392,#393);
#353=AXIS2_PLACEMENT_3D('',#479,#394,#395);
#354=AXIS2_PLACEMENT_3D('',#480,#396,#397);
#355=AXIS2_PLACEMENT_3D('',#482,#398,#399);
#356=AXIS2_PLACEMENT_3D('',#484,#400,#401);
#357=AXIS2_PLACEMENT_3D('',#485,#402,#403);
#358=AXIS2_PLACEMENT_3D('',#487,#404,#405);
#359=AXIS2_PLACEMENT_3D('',#489,#406,#407);
#360=AXIS2_PLACEMENT_3D('',#499,#408,#409);
#361=AXIS2_PLACEMENT_3D('',#500,#410,#411);
#362=AXIS2_PLACEMENT_3D('',#509,#412,#413);
#363=AXIS2_PLACEMENT_3D('',#510,#414,#415);
#364=AXIS2_PLACEMENT_3D('',#515,#416,#417);
#365=AXIS2_PLACEMENT_3D('',#520,#418,#419);
#366=AXIS2_PLACEMENT_3D('',#525,#420,#421);
#367=AXIS2_PLACEMENT_3D('',#530,#422,#423);
#368=AXIS2_PLACEMENT_3D('',#539,#424,#425);
#369=AXIS2_PLACEMENT_3D('',#540,#426,#427);
#370=AXIS2_PLACEMENT_3D('',#545,#428,#429);
#371=AXIS2_PLACEMENT_3D('',#549,#430,#431);
#372=AXIS2_PLACEMENT_3D('',#550,#432,#433);
#373=AXIS2_PLACEMENT_3D('',#560,#434,#435);
#374=AXIS2_PLACEMENT_3D('',#561,#436,#437);
#375=AXIS2_PLACEMENT_3D('',#570,#438,#439);
#376=AXIS2_PLACEMENT_3D('',#576,#440,#441);
#377=AXIS2_PLACEMENT_3D('',#580,#442,#443);
#378=AXIS2_PLACEMENT_3D('',#586,#444,#445);
#379=AXIS2_PLACEMENT_3D('',#590,#446,#447);
#380=AXIS2_PLACEMENT_3D('',#591,#448,#449);
#381=AXIS2_PLACEMENT_3D('',#600,#450,#451);
#382=AXIS2_PLACEMENT_3D('',#605,#452,#453);
#383=AXIS2_PLACEMENT_3D('',#609,#454,#455);
#384=AXIS2_PLACEMENT_3D('',#610,#456,#457);
#385=AXIS2_PLACEMENT_3D('',#611,#458,#459);
#386=AXIS2_PLACEMENT_3D('',#612,#460,#461);
#387=AXIS2_PLACEMENT_3D('',#615,#464,#465);
#388=AXIS2_PLACEMENT_3D('',#617,#467,#468);
#389=AXIS2_PLACEMENT_3D('',#619,#470,#471);
#390=AXIS2_PLACEMENT_3D('',#621,#473,#474);
#391=AXIS2_PLACEMENT_3D('',#623,#476,#477);
#392=DIRECTION('',(0.,0.,1.));
#393=DIRECTION('',(1.,0.,0.));
#394=DIRECTION('',(0.,0.,-1.));
#395=DIRECTION('',(-1.,0.,0.));
#396=DIRECTION('',(0.,0.,1.));
#397=DIRECTION('',(1.,0.,0.));
#398=DIRECTION('',(0.,0.,-1.));
#399=DIRECTION('',(1.,0.,0.));
#400=DIRECTION('',(0.,0.,1.));
#401=DIRECTION('',(1.,0.,0.));
#402=DIRECTION('',(0.,0.,-1.));
#403=DIRECTION('',(1.,0.,0.));
#404=DIRECTION('',(0.,0.,1.));
#405=DIRECTION('',(1.,0.,0.));
#406=DIRECTION('',(0.,0.,1.));
#407=DIRECTION('',(1.,0.,0.));
#408=DIRECTION('',(0.,0.,-1.));
#409=DIRECTION('',(-1.,0.,0.));
#410=DIRECTION('',(0.,0.,1.));
#411=DIRECTION('',(-1.,-1.89882151931499E-15,0.));
#412=DIRECTION('',(0.,0.,-1.));
#413=DIRECTION('',(-1.,0.,0.));
#414=DIRECTION('',(0.,0.,1.));
#415=DIRECTION('',(1.,0.,0.));
#416=DIRECTION('',(0.,0.,-1.));
#417=DIRECTION('',(-1.,0.,0.));
#418=DIRECTION('',(0.,0.,1.));
#419=DIRECTION('',(1.,0.,0.));
#420=DIRECTION('',(0.,0.,-1.));
#421=DIRECTION('',(-1.,0.,0.));
#422=DIRECTION('',(0.,0.,1.));
#423=DIRECTION('',(1.,0.,0.));
#424=DIRECTION('',(0.,0.,-1.));
#425=DIRECTION('',(-1.,0.,0.));
#426=DIRECTION('',(0.,0.,1.));
#427=DIRECTION('',(1.,0.,0.));
#428=DIRECTION('',(0.,0.,-1.));
#429=DIRECTION('',(-1.,0.,0.));
#430=DIRECTION('',(0.,0.,-1.));
#431=DIRECTION('',(-1.,0.,0.));
#432=DIRECTION('',(0.,0.,-1.));
#433=DIRECTION('',(-1.,0.,0.));
#434=DIRECTION('',(0.,0.,-1.));
#435=DIRECTION('',(-1.,0.,0.));
#436=DIRECTION('',(0.,0.,-1.));
#437=DIRECTION('',(-1.,0.,0.));
#438=DIRECTION('',(0.,0.,-1.));
#439=DIRECTION('',(-1.,0.,0.));
#440=DIRECTION('',(0.,0.,-1.));
#441=DIRECTION('',(-1.,0.,0.));
#442=DIRECTION('',(0.,0.,-1.));
#443=DIRECTION('',(-1.,0.,0.));
#444=DIRECTION('',(0.,0.,-1.));
#445=DIRECTION('',(-1.,0.,0.));
#446=DIRECTION('',(0.,0.,-1.));
#447=DIRECTION('',(-1.,0.,0.));
#448=DIRECTION('',(0.,0.,-1.));
#449=DIRECTION('',(-1.,0.,0.));
#450=DIRECTION('',(0.,0.,-1.));
#451=DIRECTION('',(1.,1.22464679914735E-16,0.));
#452=DIRECTION('',(0.,0.,-1.));
#453=DIRECTION('',(-1.,0.,0.));
#454=DIRECTION('',(0.,0.,1.));
#455=DIRECTION('',(1.,0.,0.));
#456=DIRECTION('',(0.,0.,1.));
#457=DIRECTION('',(1.,0.,0.));
#458=DIRECTION('',(0.,0.,-1.));
#459=DIRECTION('',(-1.,0.,0.));
#460=DIRECTION('',(-0.866025403784438,-0.5,0.));
#461=DIRECTION('',(0.5,-0.866025403784438,0.));
#462=DIRECTION('',(0.,0.,-1.));
#463=DIRECTION('',(0.,0.,-1.));
#464=DIRECTION('',(-0.866025403784439,0.5,0.));
#465=DIRECTION('',(-0.5,-0.866025403784439,0.));
#466=DIRECTION('',(0.,0.,-1.));
#467=DIRECTION('',(0.,1.,0.));
#468=DIRECTION('',(0.,0.,1.));
#469=DIRECTION('',(0.,0.,-1.));
#470=DIRECTION('',(0.866025403784439,0.5,0.));
#471=DIRECTION('',(-0.5,0.866025403784439,0.));
#472=DIRECTION('',(0.,0.,-1.));
#473=DIRECTION('',(0.866025403784439,-0.5,0.));
#474=DIRECTION('',(0.5,0.866025403784439,0.));
#475=DIRECTION('',(0.,0.,-1.));
#476=DIRECTION('',(0.,-1.,0.));
#477=DIRECTION('',(0.,0.,-1.));
#478=CARTESIAN_POINT('',(0.,0.,0.));
#479=CARTESIAN_POINT('',(0.,0.,0.));
#480=CARTESIAN_POINT('',(0.,0.,0.));
#481=CARTESIAN_POINT('',(0.00115,0.,0.));
#482=CARTESIAN_POINT('',(0.,0.,0.000265581123827228));
#483=CARTESIAN_POINT('',(0.00069,0.,0.000265581123827228));
#484=CARTESIAN_POINT('',(0.,0.,0.00133441887617277));
#485=CARTESIAN_POINT('',(0.,0.,0.0016));
#486=CARTESIAN_POINT('',(0.00115,0.,0.0016));
#487=CARTESIAN_POINT('',(0.,0.,0.00133441887617277));
#488=CARTESIAN_POINT('',(0.00069,0.,0.00133441887617277));
#489=CARTESIAN_POINT('',(0.,0.,0.));
#490=CARTESIAN_POINT('',(-0.00173205080756888,0.000999999999999995,-1.25340759498312E-18));
#491=CARTESIAN_POINT('',(-0.00146410161513331,0.00146410161514545,-1.81385837473231E-18));
#492=CARTESIAN_POINT('',(-0.00115470053836819,0.00200000000001915,0.000178632794960465));
#493=CARTESIAN_POINT('',(-0.00173205080756888,0.001,0.));
#494=CARTESIAN_POINT('',(-0.00115470053837925,0.002,0.000178632794954082));
#495=CARTESIAN_POINT('',(-0.00115470053840136,0.002,0.000178632794960465));
#496=CARTESIAN_POINT('',(-0.000535898384871133,0.002,7.35522753814167E-19));
#497=CARTESIAN_POINT('',(-2.0890126583052E-19,0.002,6.2670379749156E-19));
#498=CARTESIAN_POINT('',(0.,0.002,0.));
#499=CARTESIAN_POINT('',(0.,0.,0.));
#500=CARTESIAN_POINT('',(0.,0.,0.));
#501=CARTESIAN_POINT('',(-0.00173205080756887,-0.000999999999999998,-2.35013924059334E-18));
#502=CARTESIAN_POINT('',(-0.00200000000000444,-0.000535898384854548,-2.13887438416293E-18));
#503=CARTESIAN_POINT('',(-0.00230940107676956,1.91503413582049E-14,0.000178632794960463));
#504=CARTESIAN_POINT('',(-0.00173205080756887,-0.001,0.));
#505=CARTESIAN_POINT('',(-0.0023094010767585,0.,0.000178632794954082));
#506=CARTESIAN_POINT('',(-0.00230940107676956,-1.91504538881225E-14,0.000178632794960463));
#507=CARTESIAN_POINT('',(-0.00200000000000444,0.000535898384854547,-8.60422844084496E-19));
#508=CARTESIAN_POINT('',(-0.00173205080756888,0.000999999999999995,-1.25340759498312E-18));
#509=CARTESIAN_POINT('',(0.,0.,0.));
#510=CARTESIAN_POINT('',(0.,0.,0.));
#511=CARTESIAN_POINT('',(-0.00115470053836819,-0.00200000000001915,0.000178632794960462));
#512=CARTESIAN_POINT('',(-0.00146410161513331,-0.00146410161514545,-1.92901250528621E-18));
#513=CARTESIAN_POINT('',(-0.00173205080756887,-0.001,-2.35013924059334E-18));
#514=CARTESIAN_POINT('',(-0.00115470053837926,-0.002,0.000178632794954082));
#515=CARTESIAN_POINT('',(0.,0.,0.));
#516=CARTESIAN_POINT('',(0.,-0.002,0.));
#517=CARTESIAN_POINT('',(-1.25340759498312E-18,-0.002,6.2670379749156E-19));
#518=CARTESIAN_POINT('',(-0.000535898384871138,-0.002,8.04734040122417E-19));
#519=CARTESIAN_POINT('',(-0.00115470053840137,-0.002,0.000178632794960468));
#520=CARTESIAN_POINT('',(0.,0.,0.));
#521=CARTESIAN_POINT('',(0.00115470053840136,-0.002,0.000178632794960465));
#522=CARTESIAN_POINT('',(0.000535898384871133,-0.002,7.35522753814167E-19));
#523=CARTESIAN_POINT('',(2.0890126583052E-19,-0.002,6.2670379749156E-19));
#524=CARTESIAN_POINT('',(0.00115470053837925,-0.002,0.000178632794954082));
#525=CARTESIAN_POINT('',(0.,0.,0.));
#526=CARTESIAN_POINT('',(0.00173205080756888,-0.001,0.));
#527=CARTESIAN_POINT('',(0.00173205080756888,-0.001,3.81244810140699E-18));
#528=CARTESIAN_POINT('',(0.00146410161513332,-0.00146410161514545,4.00296112481608E-18));
#529=CARTESIAN_POINT('',(0.0011547005383682,-0.00200000000001915,0.000178632794960469));
#530=CARTESIAN_POINT('',(0.,0.,0.));
#531=CARTESIAN_POINT('',(-2.0890126583052E-19,0.002,6.2670379749156E-19));
#532=CARTESIAN_POINT('',(0.000535898384871132,0.002,6.00343745634946E-19));
#533=CARTESIAN_POINT('',(0.00115470053840136,0.002,0.000178632794960465));
#534=CARTESIAN_POINT('',(0.00115470053837925,0.002,0.000178632794954082));
#535=CARTESIAN_POINT('',(0.00115470053836819,0.00200000000001915,0.000178632794960464));
#536=CARTESIAN_POINT('',(0.00146410161513331,0.00146410161514545,-1.88737914186277E-18));
#537=CARTESIAN_POINT('',(0.00173205080756888,0.000999999999999998,-1.14895696206785E-18));
#538=CARTESIAN_POINT('',(0.00173205080756888,0.001,0.));
#539=CARTESIAN_POINT('',(0.,0.,0.));
#540=CARTESIAN_POINT('',(0.,0.,0.));
#541=CARTESIAN_POINT('',(0.00230940107676956,1.91462902811754E-14,0.000178632794960467));
#542=CARTESIAN_POINT('',(0.00200000000000445,-0.000535898384854551,3.5527136788005E-18));
#543=CARTESIAN_POINT('',(0.00173205080756888,-0.001,3.81244810140699E-18));
#544=CARTESIAN_POINT('',(0.0023094010767585,2.38524477946811E-18,0.000178632794954082));
#545=CARTESIAN_POINT('',(0.,0.,0.));
#546=CARTESIAN_POINT('',(0.00173205080756888,0.000999999999999995,-1.14895696206785E-18));
#547=CARTESIAN_POINT('',(0.00200000000000444,0.000535898384854547,9.89039971786211E-21));
#548=CARTESIAN_POINT('',(0.00230940107676956,-1.91477531701027E-14,0.000178632794960464));
#549=CARTESIAN_POINT('',(0.,0.,0.0016));
#550=CARTESIAN_POINT('',(0.,0.,0.0016));
#551=CARTESIAN_POINT('',(-0.00173205080756888,0.001,0.0016));
#552=CARTESIAN_POINT('',(0.,0.002,0.0016));
#553=CARTESIAN_POINT('',(-0.00115470053840136,0.002,0.00142136720503954));
#554=CARTESIAN_POINT('',(-0.00053589838487113,0.002,0.0016));
#555=CARTESIAN_POINT('',(2.71571645579675E-18,0.002,0.0016));
#556=CARTESIAN_POINT('',(-0.00115470053837925,0.002,0.00142136720504592));
#557=CARTESIAN_POINT('',(-0.00173205080756888,0.000999999999999998,0.0016));
#558=CARTESIAN_POINT('',(-0.00146410161513331,0.00146410161514545,0.0016));
#559=CARTESIAN_POINT('',(-0.00115470053836819,0.00200000000001915,0.00142136720503954));
#560=CARTESIAN_POINT('',(0.,0.,0.0016));
#561=CARTESIAN_POINT('',(0.,0.,0.0016));
#562=CARTESIAN_POINT('',(-0.00173205080756887,-0.001,0.0016));
#563=CARTESIAN_POINT('',(-0.00230940107676955,-1.91431394434856E-14,0.00142136720503954));
#564=CARTESIAN_POINT('',(-0.00200000000000444,0.00053589838485455,0.0016));
#565=CARTESIAN_POINT('',(-0.00173205080756888,0.000999999999999998,0.0016));
#566=CARTESIAN_POINT('',(-0.0023094010767585,7.37257477290143E-18,0.00142136720504592));
#567=CARTESIAN_POINT('',(-0.00173205080756887,-0.001,0.0016));
#568=CARTESIAN_POINT('',(-0.00200000000000444,-0.000535898384854549,0.0016));
#569=CARTESIAN_POINT('',(-0.00230940107676956,1.9154279905317E-14,0.00142136720503954));
#570=CARTESIAN_POINT('',(0.,0.,0.0016));
#571=CARTESIAN_POINT('',(5.01363037993246E-18,-0.002,0.0016));
#572=CARTESIAN_POINT('',(-0.000535898384871133,-0.002,0.0016));
#573=CARTESIAN_POINT('',(-0.00115470053840137,-0.002,0.00142136720503953));
#574=CARTESIAN_POINT('',(0.,-0.002,0.0016));
#575=CARTESIAN_POINT('',(-0.00115470053837926,-0.002,0.00142136720504592));
#576=CARTESIAN_POINT('',(0.,0.,0.0016));
#577=CARTESIAN_POINT('',(-0.0011547005383682,-0.00200000000001914,0.00142136720503954));
#578=CARTESIAN_POINT('',(-0.00146410161513331,-0.00146410161514545,0.0016));
#579=CARTESIAN_POINT('',(-0.00173205080756887,-0.001,0.0016));
#580=CARTESIAN_POINT('',(0.,0.,0.0016));
#581=CARTESIAN_POINT('',(0.00173205080756888,-0.001,0.0016));
#582=CARTESIAN_POINT('',(0.00146410161513332,-0.00146410161514546,0.0016));
#583=CARTESIAN_POINT('',(0.0011547005383682,-0.00200000000001915,0.00142136720503953));
#584=CARTESIAN_POINT('',(0.00173205080756888,-0.001,0.0016));
#585=CARTESIAN_POINT('',(0.00115470053837925,-0.002,0.00142136720504592));
#586=CARTESIAN_POINT('',(0.,0.,0.0016));
#587=CARTESIAN_POINT('',(0.00115470053840136,-0.002,0.00142136720503954));
#588=CARTESIAN_POINT('',(0.000535898384871135,-0.002,0.0016));
#589=CARTESIAN_POINT('',(5.01363037993246E-18,-0.002,0.0016));
#590=CARTESIAN_POINT('',(0.,0.,0.0016));
#591=CARTESIAN_POINT('',(0.,0.,0.0016));
#592=CARTESIAN_POINT('',(0.00173205080756888,0.001,0.0016));
#593=CARTESIAN_POINT('',(0.00115470053836819,0.00200000000001914,0.00142136720503954));
#594=CARTESIAN_POINT('',(0.00146410161513331,0.00146410161514545,0.0016));
#595=CARTESIAN_POINT('',(0.00173205080756888,0.000999999999999998,0.0016));
#596=CARTESIAN_POINT('',(0.00115470053837925,0.002,0.00142136720504592));
#597=CARTESIAN_POINT('',(2.71571645579675E-18,0.002,0.0016));
#598=CARTESIAN_POINT('',(0.000535898384871134,0.002,0.0016));
#599=CARTESIAN_POINT('',(0.00115470053840136,0.002,0.00142136720503954));
#600=CARTESIAN_POINT('',(0.,0.,0.0016));
#601=CARTESIAN_POINT('',(0.00173205080756888,0.000999999999999998,0.0016));
#602=CARTESIAN_POINT('',(0.00200000000000444,0.000535898384854547,0.0016));
#603=CARTESIAN_POINT('',(0.00230940107676956,-1.91495536487825E-14,0.00142136720503954));
#604=CARTESIAN_POINT('',(0.0023094010767585,1.73472347597681E-18,0.00142136720504592));
#605=CARTESIAN_POINT('',(0.,0.,0.0016));
#606=CARTESIAN_POINT('',(0.00230940107676956,1.91434770332381E-14,0.00142136720503953));
#607=CARTESIAN_POINT('',(0.00200000000000445,-0.000535898384854553,0.0016));
#608=CARTESIAN_POINT('',(0.00173205080756888,-0.001,0.0016));
#609=CARTESIAN_POINT('',(0.,0.,0.));
#610=CARTESIAN_POINT('',(0.,0.,0.0016));
#611=CARTESIAN_POINT('',(0.,0.,0.0016));
#612=CARTESIAN_POINT('',(0.0023094010767585,1.77635683940025E-18,0.0016));
#613=CARTESIAN_POINT('',(0.00115470053837925,0.002,0.0016));
#614=CARTESIAN_POINT('',(0.0023094010767585,1.73472347597681E-18,0.0016));
#615=CARTESIAN_POINT('',(0.00115470053837926,-0.002,0.0016));
#616=CARTESIAN_POINT('',(0.00115470053837926,-0.002,0.0016));
#617=CARTESIAN_POINT('',(-0.00115470053837925,-0.002,0.0016));
#618=CARTESIAN_POINT('',(-0.00115470053837925,-0.002,0.0016));
#619=CARTESIAN_POINT('',(-0.0023094010767585,-2.22044604925031E-19,0.0016));
#620=CARTESIAN_POINT('',(-0.0023094010767585,-4.33680868994202E-19,0.0016));
#621=CARTESIAN_POINT('',(-0.00115470053837925,0.002,0.0016));
#622=CARTESIAN_POINT('',(-0.00115470053837925,0.002,0.0016));
#623=CARTESIAN_POINT('',(0.00115470053837925,0.002,0.0016));
#624=MECHANICAL_DESIGN_GEOMETRIC_PRESENTATION_REPRESENTATION('',(#341),
#625);
#625=(
GEOMETRIC_REPRESENTATION_CONTEXT(3)
GLOBAL_UNCERTAINTY_ASSIGNED_CONTEXT((#626))
GLOBAL_UNIT_ASSIGNED_CONTEXT((#629,#628,#627))
REPRESENTATION_CONTEXT('nut_DIN934_M2','TOP_LEVEL_ASSEMBLY_PART')
);
#626=UNCERTAINTY_MEASURE_WITH_UNIT(LENGTH_MEASURE(5.E-6),#629,
'DISTANCE_ACCURACY_VALUE','Maximum Tolerance applied to model');
#627=(
NAMED_UNIT(*)
SI_UNIT($,.STERADIAN.)
SOLID_ANGLE_UNIT()
);
#628=(
NAMED_UNIT(*)
PLANE_ANGLE_UNIT()
SI_UNIT($,.RADIAN.)
);
#629=(
LENGTH_UNIT()
NAMED_UNIT(*)
SI_UNIT($,.METRE.)
);
#630=PRODUCT_DEFINITION_SHAPE('','',#631);
#631=PRODUCT_DEFINITION('','',#633,#632);
#632=PRODUCT_DEFINITION_CONTEXT('',#639,'design');
#633=PRODUCT_DEFINITION_FORMATION_WITH_SPECIFIED_SOURCE('','',#635,
 .NOT_KNOWN.);
#634=PRODUCT_RELATED_PRODUCT_CATEGORY('','',(#635));
#635=PRODUCT('nut_DIN934_M2','nut_DIN934_M2','nut_DIN934_M2',(#637));
#636=PRODUCT_CATEGORY('','');
#637=PRODUCT_CONTEXT('',#639,'mechanical');
#638=APPLICATION_PROTOCOL_DEFINITION('international standard',
'automotive_design',2010,#639);
#639=APPLICATION_CONTEXT(
'core data for automotive mechanical design processes');
ENDSEC;
END-ISO-10303-21;
