ISO-10303-21;
HEADER;
/* Generated by software containing ST-Developer
 * from STEP Tools, Inc. (www.steptools.com) 
 */
/* OPTION: using custom renumber hook */

FILE_DESCRIPTION(
/* description */ ('STEP AP214'),
/* implementation_level */ '2;1');

FILE_NAME(
/* name */ '654cf56b7f9aa566be172121',
/* time_stamp */ '2023-11-09T15:06:19Z',
/* author */ (''),
/* organization */ (''),
/* preprocessor_version */ 'ST-DEVELOPER v19.4',
/* originating_system */ '  ',
/* authorisation */ '  ');

FILE_SCHEMA (('AUTOMOTIVE_DESIGN {1 0 10303 214 3 1 1}'));
ENDSEC;

DATA;
#10=PROPERTY_DEFINITION_REPRESENTATION(#14,#12);
#11=PROPERTY_DEFINITION_REPRESENTATION(#15,#13);
#12=REPRESENTATION('',(#16),#2493);
#13=REPRESENTATION('',(#17),#2493);
#14=PROPERTY_DEFINITION('pmi validation property','',#2498);
#15=PROPERTY_DEFINITION('pmi validation property','',#2498);
#16=VALUE_REPRESENTATION_ITEM('number of annotations',COUNT_MEASURE(0.));
#17=VALUE_REPRESENTATION_ITEM('number of views',COUNT_MEASURE(0.));
#18=SHAPE_REPRESENTATION_RELATIONSHIP('','',#1487,#19);
#19=ADVANCED_BREP_SHAPE_REPRESENTATION('',(#1485),#2493);
#20=CYLINDRICAL_SURFACE('',#1611,0.003);
#21=CYLINDRICAL_SURFACE('',#1615,0.003);
#22=CYLINDRICAL_SURFACE('',#1619,0.003);
#23=CYLINDRICAL_SURFACE('',#1623,0.003);
#24=CYLINDRICAL_SURFACE('',#1627,0.0005);
#25=CYLINDRICAL_SURFACE('',#1628,0.0005);
#26=CYLINDRICAL_SURFACE('',#1629,0.0005);
#27=CYLINDRICAL_SURFACE('',#1630,0.0005);
#28=CYLINDRICAL_SURFACE('',#1631,0.0005);
#29=CYLINDRICAL_SURFACE('',#1632,0.0005);
#30=CYLINDRICAL_SURFACE('',#1633,0.0005);
#31=CYLINDRICAL_SURFACE('',#1634,0.0005);
#32=CYLINDRICAL_SURFACE('',#1635,0.0005);
#33=CYLINDRICAL_SURFACE('',#1636,0.0005);
#34=CYLINDRICAL_SURFACE('',#1637,0.0005);
#35=CYLINDRICAL_SURFACE('',#1638,0.0005);
#36=CYLINDRICAL_SURFACE('',#1639,0.0005);
#37=CYLINDRICAL_SURFACE('',#1640,0.0005);
#38=CYLINDRICAL_SURFACE('',#1641,0.0005);
#39=CYLINDRICAL_SURFACE('',#1642,0.0005);
#40=CYLINDRICAL_SURFACE('',#1643,0.0005);
#41=CYLINDRICAL_SURFACE('',#1644,0.0005);
#42=CYLINDRICAL_SURFACE('',#1645,0.0005);
#43=CYLINDRICAL_SURFACE('',#1646,0.0005);
#44=CYLINDRICAL_SURFACE('',#1647,0.0005);
#45=CYLINDRICAL_SURFACE('',#1648,0.0005);
#46=CYLINDRICAL_SURFACE('',#1649,0.0005);
#47=CYLINDRICAL_SURFACE('',#1650,0.0005);
#48=CYLINDRICAL_SURFACE('',#1651,0.0005);
#49=CYLINDRICAL_SURFACE('',#1652,0.0005);
#50=CYLINDRICAL_SURFACE('',#1653,0.0005);
#51=CYLINDRICAL_SURFACE('',#1654,0.0005);
#52=CYLINDRICAL_SURFACE('',#1655,0.0005);
#53=CYLINDRICAL_SURFACE('',#1656,0.0005);
#54=CYLINDRICAL_SURFACE('',#1657,0.0005);
#55=CYLINDRICAL_SURFACE('',#1658,0.0005);
#56=CYLINDRICAL_SURFACE('',#1659,0.0005);
#57=CYLINDRICAL_SURFACE('',#1660,0.0005);
#58=CYLINDRICAL_SURFACE('',#1661,0.0005);
#59=CYLINDRICAL_SURFACE('',#1662,0.0005);
#60=CYLINDRICAL_SURFACE('',#1663,0.0005);
#61=CYLINDRICAL_SURFACE('',#1664,0.0005);
#62=CYLINDRICAL_SURFACE('',#1665,0.0005);
#63=CYLINDRICAL_SURFACE('',#1666,0.0005);
#64=CYLINDRICAL_SURFACE('',#1667,0.0005);
#65=CYLINDRICAL_SURFACE('',#1668,0.0005);
#66=CYLINDRICAL_SURFACE('',#1669,0.0005);
#67=CYLINDRICAL_SURFACE('',#1670,0.0005);
#68=CYLINDRICAL_SURFACE('',#1671,0.0005);
#69=CYLINDRICAL_SURFACE('',#1672,0.001375);
#70=CYLINDRICAL_SURFACE('',#1673,0.001375);
#71=CYLINDRICAL_SURFACE('',#1674,0.001375);
#72=CYLINDRICAL_SURFACE('',#1675,0.001375);
#73=CYLINDRICAL_SURFACE('',#1676,0.0005);
#74=CYLINDRICAL_SURFACE('',#1677,0.00175);
#75=CYLINDRICAL_SURFACE('',#1678,0.0005);
#76=CYLINDRICAL_SURFACE('',#1679,0.0006);
#77=CYLINDRICAL_SURFACE('',#1680,0.00175);
#78=CYLINDRICAL_SURFACE('',#1681,0.0005);
#79=CYLINDRICAL_SURFACE('',#1682,0.0006);
#80=LINE('',#2230,#120);
#81=LINE('',#2232,#121);
#82=LINE('',#2234,#122);
#83=LINE('',#2238,#123);
#84=LINE('',#2240,#124);
#85=LINE('',#2242,#125);
#86=LINE('',#2246,#126);
#87=LINE('',#2248,#127);
#88=LINE('',#2250,#128);
#89=LINE('',#2254,#129);
#90=LINE('',#2256,#130);
#91=LINE('',#2258,#131);
#92=LINE('',#2375,#132);
#93=LINE('',#2377,#133);
#94=LINE('',#2379,#134);
#95=LINE('',#2383,#135);
#96=LINE('',#2385,#136);
#97=LINE('',#2387,#137);
#98=LINE('',#2391,#138);
#99=LINE('',#2393,#139);
#100=LINE('',#2395,#140);
#101=LINE('',#2399,#141);
#102=LINE('',#2401,#142);
#103=LINE('',#2403,#143);
#104=LINE('',#2405,#144);
#105=LINE('',#2406,#145);
#106=LINE('',#2408,#146);
#107=LINE('',#2410,#147);
#108=LINE('',#2412,#148);
#109=LINE('',#2414,#149);
#110=LINE('',#2416,#150);
#111=LINE('',#2418,#151);
#112=LINE('',#2420,#152);
#113=LINE('',#2422,#153);
#114=LINE('',#2424,#154);
#115=LINE('',#2426,#155);
#116=LINE('',#2428,#156);
#117=LINE('',#2430,#157);
#118=LINE('',#2432,#158);
#119=LINE('',#2434,#159);
#120=VECTOR('',#1801,1.);
#121=VECTOR('',#1802,1.);
#122=VECTOR('',#1803,1.);
#123=VECTOR('',#1806,1.);
#124=VECTOR('',#1807,1.);
#125=VECTOR('',#1808,1.);
#126=VECTOR('',#1811,1.);
#127=VECTOR('',#1812,1.);
#128=VECTOR('',#1813,1.);
#129=VECTOR('',#1816,1.);
#130=VECTOR('',#1817,1.);
#131=VECTOR('',#1818,1.);
#132=VECTOR('',#1935,1.);
#133=VECTOR('',#1936,1.);
#134=VECTOR('',#1937,1.);
#135=VECTOR('',#1940,1.);
#136=VECTOR('',#1941,1.);
#137=VECTOR('',#1942,1.);
#138=VECTOR('',#1945,1.);
#139=VECTOR('',#1946,1.);
#140=VECTOR('',#1947,1.);
#141=VECTOR('',#1950,1.);
#142=VECTOR('',#1951,1.);
#143=VECTOR('',#1952,1.);
#144=VECTOR('',#1955,1.);
#145=VECTOR('',#1956,1.);
#146=VECTOR('',#1959,1.);
#147=VECTOR('',#1962,1.);
#148=VECTOR('',#1965,1.);
#149=VECTOR('',#1968,1.);
#150=VECTOR('',#1971,1.);
#151=VECTOR('',#1974,1.);
#152=VECTOR('',#1977,1.);
#153=VECTOR('',#1980,1.);
#154=VECTOR('',#1983,1.);
#155=VECTOR('',#1986,1.);
#156=VECTOR('',#1989,1.);
#157=VECTOR('',#1992,1.);
#158=VECTOR('',#1995,1.);
#159=VECTOR('',#1998,1.);
#160=ORIENTED_EDGE('',*,*,#480,.F.);
#161=ORIENTED_EDGE('',*,*,#481,.F.);
#162=ORIENTED_EDGE('',*,*,#482,.F.);
#163=ORIENTED_EDGE('',*,*,#483,.F.);
#164=ORIENTED_EDGE('',*,*,#484,.F.);
#165=ORIENTED_EDGE('',*,*,#485,.F.);
#166=ORIENTED_EDGE('',*,*,#486,.F.);
#167=ORIENTED_EDGE('',*,*,#487,.F.);
#168=ORIENTED_EDGE('',*,*,#488,.F.);
#169=ORIENTED_EDGE('',*,*,#489,.F.);
#170=ORIENTED_EDGE('',*,*,#490,.F.);
#171=ORIENTED_EDGE('',*,*,#491,.F.);
#172=ORIENTED_EDGE('',*,*,#492,.F.);
#173=ORIENTED_EDGE('',*,*,#493,.F.);
#174=ORIENTED_EDGE('',*,*,#494,.F.);
#175=ORIENTED_EDGE('',*,*,#495,.F.);
#176=ORIENTED_EDGE('',*,*,#496,.F.);
#177=ORIENTED_EDGE('',*,*,#497,.F.);
#178=ORIENTED_EDGE('',*,*,#498,.F.);
#179=ORIENTED_EDGE('',*,*,#499,.F.);
#180=ORIENTED_EDGE('',*,*,#500,.F.);
#181=ORIENTED_EDGE('',*,*,#501,.F.);
#182=ORIENTED_EDGE('',*,*,#502,.F.);
#183=ORIENTED_EDGE('',*,*,#503,.F.);
#184=ORIENTED_EDGE('',*,*,#504,.F.);
#185=ORIENTED_EDGE('',*,*,#505,.F.);
#186=ORIENTED_EDGE('',*,*,#506,.F.);
#187=ORIENTED_EDGE('',*,*,#507,.F.);
#188=ORIENTED_EDGE('',*,*,#508,.F.);
#189=ORIENTED_EDGE('',*,*,#509,.F.);
#190=ORIENTED_EDGE('',*,*,#510,.F.);
#191=ORIENTED_EDGE('',*,*,#511,.F.);
#192=ORIENTED_EDGE('',*,*,#512,.F.);
#193=ORIENTED_EDGE('',*,*,#513,.F.);
#194=ORIENTED_EDGE('',*,*,#514,.F.);
#195=ORIENTED_EDGE('',*,*,#515,.F.);
#196=ORIENTED_EDGE('',*,*,#516,.F.);
#197=ORIENTED_EDGE('',*,*,#517,.F.);
#198=ORIENTED_EDGE('',*,*,#518,.F.);
#199=ORIENTED_EDGE('',*,*,#519,.F.);
#200=ORIENTED_EDGE('',*,*,#520,.F.);
#201=ORIENTED_EDGE('',*,*,#521,.F.);
#202=ORIENTED_EDGE('',*,*,#522,.F.);
#203=ORIENTED_EDGE('',*,*,#523,.F.);
#204=ORIENTED_EDGE('',*,*,#524,.F.);
#205=ORIENTED_EDGE('',*,*,#525,.F.);
#206=ORIENTED_EDGE('',*,*,#526,.F.);
#207=ORIENTED_EDGE('',*,*,#527,.F.);
#208=ORIENTED_EDGE('',*,*,#528,.F.);
#209=ORIENTED_EDGE('',*,*,#529,.F.);
#210=ORIENTED_EDGE('',*,*,#530,.T.);
#211=ORIENTED_EDGE('',*,*,#531,.T.);
#212=ORIENTED_EDGE('',*,*,#532,.T.);
#213=ORIENTED_EDGE('',*,*,#533,.T.);
#214=ORIENTED_EDGE('',*,*,#534,.T.);
#215=ORIENTED_EDGE('',*,*,#535,.T.);
#216=ORIENTED_EDGE('',*,*,#536,.F.);
#217=ORIENTED_EDGE('',*,*,#537,.T.);
#218=ORIENTED_EDGE('',*,*,#538,.T.);
#219=ORIENTED_EDGE('',*,*,#539,.T.);
#220=ORIENTED_EDGE('',*,*,#540,.F.);
#221=ORIENTED_EDGE('',*,*,#541,.T.);
#222=ORIENTED_EDGE('',*,*,#542,.T.);
#223=ORIENTED_EDGE('',*,*,#543,.T.);
#224=ORIENTED_EDGE('',*,*,#544,.F.);
#225=ORIENTED_EDGE('',*,*,#545,.T.);
#226=ORIENTED_EDGE('',*,*,#546,.T.);
#227=ORIENTED_EDGE('',*,*,#547,.T.);
#228=ORIENTED_EDGE('',*,*,#548,.F.);
#229=ORIENTED_EDGE('',*,*,#549,.T.);
#230=ORIENTED_EDGE('',*,*,#550,.T.);
#231=ORIENTED_EDGE('',*,*,#551,.T.);
#232=ORIENTED_EDGE('',*,*,#552,.T.);
#233=ORIENTED_EDGE('',*,*,#553,.T.);
#234=ORIENTED_EDGE('',*,*,#554,.T.);
#235=ORIENTED_EDGE('',*,*,#555,.T.);
#236=ORIENTED_EDGE('',*,*,#556,.T.);
#237=ORIENTED_EDGE('',*,*,#557,.T.);
#238=ORIENTED_EDGE('',*,*,#558,.T.);
#239=ORIENTED_EDGE('',*,*,#559,.T.);
#240=ORIENTED_EDGE('',*,*,#560,.T.);
#241=ORIENTED_EDGE('',*,*,#561,.T.);
#242=ORIENTED_EDGE('',*,*,#562,.T.);
#243=ORIENTED_EDGE('',*,*,#563,.T.);
#244=ORIENTED_EDGE('',*,*,#564,.T.);
#245=ORIENTED_EDGE('',*,*,#565,.T.);
#246=ORIENTED_EDGE('',*,*,#566,.T.);
#247=ORIENTED_EDGE('',*,*,#567,.T.);
#248=ORIENTED_EDGE('',*,*,#568,.T.);
#249=ORIENTED_EDGE('',*,*,#569,.T.);
#250=ORIENTED_EDGE('',*,*,#570,.T.);
#251=ORIENTED_EDGE('',*,*,#571,.T.);
#252=ORIENTED_EDGE('',*,*,#572,.T.);
#253=ORIENTED_EDGE('',*,*,#573,.T.);
#254=ORIENTED_EDGE('',*,*,#574,.T.);
#255=ORIENTED_EDGE('',*,*,#575,.T.);
#256=ORIENTED_EDGE('',*,*,#576,.T.);
#257=ORIENTED_EDGE('',*,*,#577,.T.);
#258=ORIENTED_EDGE('',*,*,#578,.T.);
#259=ORIENTED_EDGE('',*,*,#579,.T.);
#260=ORIENTED_EDGE('',*,*,#580,.T.);
#261=ORIENTED_EDGE('',*,*,#581,.T.);
#262=ORIENTED_EDGE('',*,*,#582,.T.);
#263=ORIENTED_EDGE('',*,*,#583,.T.);
#264=ORIENTED_EDGE('',*,*,#584,.T.);
#265=ORIENTED_EDGE('',*,*,#585,.T.);
#266=ORIENTED_EDGE('',*,*,#586,.T.);
#267=ORIENTED_EDGE('',*,*,#587,.T.);
#268=ORIENTED_EDGE('',*,*,#588,.T.);
#269=ORIENTED_EDGE('',*,*,#589,.T.);
#270=ORIENTED_EDGE('',*,*,#590,.T.);
#271=ORIENTED_EDGE('',*,*,#591,.T.);
#272=ORIENTED_EDGE('',*,*,#592,.T.);
#273=ORIENTED_EDGE('',*,*,#593,.T.);
#274=ORIENTED_EDGE('',*,*,#594,.T.);
#275=ORIENTED_EDGE('',*,*,#595,.T.);
#276=ORIENTED_EDGE('',*,*,#596,.T.);
#277=ORIENTED_EDGE('',*,*,#597,.T.);
#278=ORIENTED_EDGE('',*,*,#598,.T.);
#279=ORIENTED_EDGE('',*,*,#599,.T.);
#280=ORIENTED_EDGE('',*,*,#600,.T.);
#281=ORIENTED_EDGE('',*,*,#601,.T.);
#282=ORIENTED_EDGE('',*,*,#602,.T.);
#283=ORIENTED_EDGE('',*,*,#603,.T.);
#284=ORIENTED_EDGE('',*,*,#604,.T.);
#285=ORIENTED_EDGE('',*,*,#605,.T.);
#286=ORIENTED_EDGE('',*,*,#606,.T.);
#287=ORIENTED_EDGE('',*,*,#607,.T.);
#288=ORIENTED_EDGE('',*,*,#608,.T.);
#289=ORIENTED_EDGE('',*,*,#609,.T.);
#290=ORIENTED_EDGE('',*,*,#610,.T.);
#291=ORIENTED_EDGE('',*,*,#611,.T.);
#292=ORIENTED_EDGE('',*,*,#612,.T.);
#293=ORIENTED_EDGE('',*,*,#613,.T.);
#294=ORIENTED_EDGE('',*,*,#614,.T.);
#295=ORIENTED_EDGE('',*,*,#615,.T.);
#296=ORIENTED_EDGE('',*,*,#616,.T.);
#297=ORIENTED_EDGE('',*,*,#617,.T.);
#298=ORIENTED_EDGE('',*,*,#618,.T.);
#299=ORIENTED_EDGE('',*,*,#619,.T.);
#300=ORIENTED_EDGE('',*,*,#620,.T.);
#301=ORIENTED_EDGE('',*,*,#621,.T.);
#302=ORIENTED_EDGE('',*,*,#622,.T.);
#303=ORIENTED_EDGE('',*,*,#623,.T.);
#304=ORIENTED_EDGE('',*,*,#536,.T.);
#305=ORIENTED_EDGE('',*,*,#624,.T.);
#306=ORIENTED_EDGE('',*,*,#608,.F.);
#307=ORIENTED_EDGE('',*,*,#625,.F.);
#308=ORIENTED_EDGE('',*,*,#551,.F.);
#309=ORIENTED_EDGE('',*,*,#626,.T.);
#310=ORIENTED_EDGE('',*,*,#609,.F.);
#311=ORIENTED_EDGE('',*,*,#624,.F.);
#312=ORIENTED_EDGE('',*,*,#550,.F.);
#313=ORIENTED_EDGE('',*,*,#627,.T.);
#314=ORIENTED_EDGE('',*,*,#610,.F.);
#315=ORIENTED_EDGE('',*,*,#626,.F.);
#316=ORIENTED_EDGE('',*,*,#549,.F.);
#317=ORIENTED_EDGE('',*,*,#628,.T.);
#318=ORIENTED_EDGE('',*,*,#611,.F.);
#319=ORIENTED_EDGE('',*,*,#627,.F.);
#320=ORIENTED_EDGE('',*,*,#548,.T.);
#321=ORIENTED_EDGE('',*,*,#629,.T.);
#322=ORIENTED_EDGE('',*,*,#612,.F.);
#323=ORIENTED_EDGE('',*,*,#628,.F.);
#324=ORIENTED_EDGE('',*,*,#547,.F.);
#325=ORIENTED_EDGE('',*,*,#630,.T.);
#326=ORIENTED_EDGE('',*,*,#613,.F.);
#327=ORIENTED_EDGE('',*,*,#629,.F.);
#328=ORIENTED_EDGE('',*,*,#546,.F.);
#329=ORIENTED_EDGE('',*,*,#631,.T.);
#330=ORIENTED_EDGE('',*,*,#614,.F.);
#331=ORIENTED_EDGE('',*,*,#630,.F.);
#332=ORIENTED_EDGE('',*,*,#545,.F.);
#333=ORIENTED_EDGE('',*,*,#632,.T.);
#334=ORIENTED_EDGE('',*,*,#615,.F.);
#335=ORIENTED_EDGE('',*,*,#631,.F.);
#336=ORIENTED_EDGE('',*,*,#544,.T.);
#337=ORIENTED_EDGE('',*,*,#633,.T.);
#338=ORIENTED_EDGE('',*,*,#616,.F.);
#339=ORIENTED_EDGE('',*,*,#632,.F.);
#340=ORIENTED_EDGE('',*,*,#543,.F.);
#341=ORIENTED_EDGE('',*,*,#634,.T.);
#342=ORIENTED_EDGE('',*,*,#617,.F.);
#343=ORIENTED_EDGE('',*,*,#633,.F.);
#344=ORIENTED_EDGE('',*,*,#542,.F.);
#345=ORIENTED_EDGE('',*,*,#635,.T.);
#346=ORIENTED_EDGE('',*,*,#618,.F.);
#347=ORIENTED_EDGE('',*,*,#634,.F.);
#348=ORIENTED_EDGE('',*,*,#541,.F.);
#349=ORIENTED_EDGE('',*,*,#636,.T.);
#350=ORIENTED_EDGE('',*,*,#619,.F.);
#351=ORIENTED_EDGE('',*,*,#635,.F.);
#352=ORIENTED_EDGE('',*,*,#540,.T.);
#353=ORIENTED_EDGE('',*,*,#637,.T.);
#354=ORIENTED_EDGE('',*,*,#620,.F.);
#355=ORIENTED_EDGE('',*,*,#636,.F.);
#356=ORIENTED_EDGE('',*,*,#539,.F.);
#357=ORIENTED_EDGE('',*,*,#638,.T.);
#358=ORIENTED_EDGE('',*,*,#621,.F.);
#359=ORIENTED_EDGE('',*,*,#637,.F.);
#360=ORIENTED_EDGE('',*,*,#538,.F.);
#361=ORIENTED_EDGE('',*,*,#639,.T.);
#362=ORIENTED_EDGE('',*,*,#622,.F.);
#363=ORIENTED_EDGE('',*,*,#638,.F.);
#364=ORIENTED_EDGE('',*,*,#537,.F.);
#365=ORIENTED_EDGE('',*,*,#625,.T.);
#366=ORIENTED_EDGE('',*,*,#623,.F.);
#367=ORIENTED_EDGE('',*,*,#639,.F.);
#368=ORIENTED_EDGE('',*,*,#601,.F.);
#369=ORIENTED_EDGE('',*,*,#529,.T.);
#370=ORIENTED_EDGE('',*,*,#600,.F.);
#371=ORIENTED_EDGE('',*,*,#528,.T.);
#372=ORIENTED_EDGE('',*,*,#599,.F.);
#373=ORIENTED_EDGE('',*,*,#527,.T.);
#374=ORIENTED_EDGE('',*,*,#598,.F.);
#375=ORIENTED_EDGE('',*,*,#526,.T.);
#376=ORIENTED_EDGE('',*,*,#597,.F.);
#377=ORIENTED_EDGE('',*,*,#525,.T.);
#378=ORIENTED_EDGE('',*,*,#596,.F.);
#379=ORIENTED_EDGE('',*,*,#524,.T.);
#380=ORIENTED_EDGE('',*,*,#595,.F.);
#381=ORIENTED_EDGE('',*,*,#523,.T.);
#382=ORIENTED_EDGE('',*,*,#594,.F.);
#383=ORIENTED_EDGE('',*,*,#522,.T.);
#384=ORIENTED_EDGE('',*,*,#593,.F.);
#385=ORIENTED_EDGE('',*,*,#521,.T.);
#386=ORIENTED_EDGE('',*,*,#592,.F.);
#387=ORIENTED_EDGE('',*,*,#520,.T.);
#388=ORIENTED_EDGE('',*,*,#591,.F.);
#389=ORIENTED_EDGE('',*,*,#519,.T.);
#390=ORIENTED_EDGE('',*,*,#590,.F.);
#391=ORIENTED_EDGE('',*,*,#518,.T.);
#392=ORIENTED_EDGE('',*,*,#589,.F.);
#393=ORIENTED_EDGE('',*,*,#517,.T.);
#394=ORIENTED_EDGE('',*,*,#588,.F.);
#395=ORIENTED_EDGE('',*,*,#516,.T.);
#396=ORIENTED_EDGE('',*,*,#587,.F.);
#397=ORIENTED_EDGE('',*,*,#515,.T.);
#398=ORIENTED_EDGE('',*,*,#586,.F.);
#399=ORIENTED_EDGE('',*,*,#514,.T.);
#400=ORIENTED_EDGE('',*,*,#585,.F.);
#401=ORIENTED_EDGE('',*,*,#513,.T.);
#402=ORIENTED_EDGE('',*,*,#584,.F.);
#403=ORIENTED_EDGE('',*,*,#512,.T.);
#404=ORIENTED_EDGE('',*,*,#583,.F.);
#405=ORIENTED_EDGE('',*,*,#511,.T.);
#406=ORIENTED_EDGE('',*,*,#582,.F.);
#407=ORIENTED_EDGE('',*,*,#510,.T.);
#408=ORIENTED_EDGE('',*,*,#581,.F.);
#409=ORIENTED_EDGE('',*,*,#509,.T.);
#410=ORIENTED_EDGE('',*,*,#580,.F.);
#411=ORIENTED_EDGE('',*,*,#508,.T.);
#412=ORIENTED_EDGE('',*,*,#579,.F.);
#413=ORIENTED_EDGE('',*,*,#507,.T.);
#414=ORIENTED_EDGE('',*,*,#578,.F.);
#415=ORIENTED_EDGE('',*,*,#506,.T.);
#416=ORIENTED_EDGE('',*,*,#577,.F.);
#417=ORIENTED_EDGE('',*,*,#505,.T.);
#418=ORIENTED_EDGE('',*,*,#576,.F.);
#419=ORIENTED_EDGE('',*,*,#504,.T.);
#420=ORIENTED_EDGE('',*,*,#575,.F.);
#421=ORIENTED_EDGE('',*,*,#503,.T.);
#422=ORIENTED_EDGE('',*,*,#574,.F.);
#423=ORIENTED_EDGE('',*,*,#502,.T.);
#424=ORIENTED_EDGE('',*,*,#573,.F.);
#425=ORIENTED_EDGE('',*,*,#501,.T.);
#426=ORIENTED_EDGE('',*,*,#572,.F.);
#427=ORIENTED_EDGE('',*,*,#500,.T.);
#428=ORIENTED_EDGE('',*,*,#571,.F.);
#429=ORIENTED_EDGE('',*,*,#499,.T.);
#430=ORIENTED_EDGE('',*,*,#570,.F.);
#431=ORIENTED_EDGE('',*,*,#498,.T.);
#432=ORIENTED_EDGE('',*,*,#569,.F.);
#433=ORIENTED_EDGE('',*,*,#497,.T.);
#434=ORIENTED_EDGE('',*,*,#568,.F.);
#435=ORIENTED_EDGE('',*,*,#496,.T.);
#436=ORIENTED_EDGE('',*,*,#567,.F.);
#437=ORIENTED_EDGE('',*,*,#495,.T.);
#438=ORIENTED_EDGE('',*,*,#566,.F.);
#439=ORIENTED_EDGE('',*,*,#494,.T.);
#440=ORIENTED_EDGE('',*,*,#565,.F.);
#441=ORIENTED_EDGE('',*,*,#493,.T.);
#442=ORIENTED_EDGE('',*,*,#564,.F.);
#443=ORIENTED_EDGE('',*,*,#492,.T.);
#444=ORIENTED_EDGE('',*,*,#563,.F.);
#445=ORIENTED_EDGE('',*,*,#491,.T.);
#446=ORIENTED_EDGE('',*,*,#562,.F.);
#447=ORIENTED_EDGE('',*,*,#490,.T.);
#448=ORIENTED_EDGE('',*,*,#561,.F.);
#449=ORIENTED_EDGE('',*,*,#489,.T.);
#450=ORIENTED_EDGE('',*,*,#560,.F.);
#451=ORIENTED_EDGE('',*,*,#488,.T.);
#452=ORIENTED_EDGE('',*,*,#559,.F.);
#453=ORIENTED_EDGE('',*,*,#487,.T.);
#454=ORIENTED_EDGE('',*,*,#558,.F.);
#455=ORIENTED_EDGE('',*,*,#486,.T.);
#456=ORIENTED_EDGE('',*,*,#557,.F.);
#457=ORIENTED_EDGE('',*,*,#485,.T.);
#458=ORIENTED_EDGE('',*,*,#556,.F.);
#459=ORIENTED_EDGE('',*,*,#484,.T.);
#460=ORIENTED_EDGE('',*,*,#555,.F.);
#461=ORIENTED_EDGE('',*,*,#483,.T.);
#462=ORIENTED_EDGE('',*,*,#554,.F.);
#463=ORIENTED_EDGE('',*,*,#482,.T.);
#464=ORIENTED_EDGE('',*,*,#553,.F.);
#465=ORIENTED_EDGE('',*,*,#481,.T.);
#466=ORIENTED_EDGE('',*,*,#552,.F.);
#467=ORIENTED_EDGE('',*,*,#480,.T.);
#468=ORIENTED_EDGE('',*,*,#602,.F.);
#469=ORIENTED_EDGE('',*,*,#530,.F.);
#470=ORIENTED_EDGE('',*,*,#603,.F.);
#471=ORIENTED_EDGE('',*,*,#531,.F.);
#472=ORIENTED_EDGE('',*,*,#604,.F.);
#473=ORIENTED_EDGE('',*,*,#532,.F.);
#474=ORIENTED_EDGE('',*,*,#605,.F.);
#475=ORIENTED_EDGE('',*,*,#533,.F.);
#476=ORIENTED_EDGE('',*,*,#606,.F.);
#477=ORIENTED_EDGE('',*,*,#534,.F.);
#478=ORIENTED_EDGE('',*,*,#607,.F.);
#479=ORIENTED_EDGE('',*,*,#535,.F.);
#480=EDGE_CURVE('',#640,#640,#784,.T.);
#481=EDGE_CURVE('',#641,#641,#785,.T.);
#482=EDGE_CURVE('',#642,#642,#786,.T.);
#483=EDGE_CURVE('',#643,#643,#787,.T.);
#484=EDGE_CURVE('',#644,#644,#788,.T.);
#485=EDGE_CURVE('',#645,#645,#789,.T.);
#486=EDGE_CURVE('',#646,#646,#790,.T.);
#487=EDGE_CURVE('',#647,#647,#791,.T.);
#488=EDGE_CURVE('',#648,#648,#792,.T.);
#489=EDGE_CURVE('',#649,#649,#793,.T.);
#490=EDGE_CURVE('',#650,#650,#794,.T.);
#491=EDGE_CURVE('',#651,#651,#795,.T.);
#492=EDGE_CURVE('',#652,#652,#796,.T.);
#493=EDGE_CURVE('',#653,#653,#797,.T.);
#494=EDGE_CURVE('',#654,#654,#798,.T.);
#495=EDGE_CURVE('',#655,#655,#799,.T.);
#496=EDGE_CURVE('',#656,#656,#800,.T.);
#497=EDGE_CURVE('',#657,#657,#801,.T.);
#498=EDGE_CURVE('',#658,#658,#802,.T.);
#499=EDGE_CURVE('',#659,#659,#803,.T.);
#500=EDGE_CURVE('',#660,#660,#804,.T.);
#501=EDGE_CURVE('',#661,#661,#805,.T.);
#502=EDGE_CURVE('',#662,#662,#806,.T.);
#503=EDGE_CURVE('',#663,#663,#807,.T.);
#504=EDGE_CURVE('',#664,#664,#808,.T.);
#505=EDGE_CURVE('',#665,#665,#809,.T.);
#506=EDGE_CURVE('',#666,#666,#810,.T.);
#507=EDGE_CURVE('',#667,#667,#811,.T.);
#508=EDGE_CURVE('',#668,#668,#812,.T.);
#509=EDGE_CURVE('',#669,#669,#813,.T.);
#510=EDGE_CURVE('',#670,#670,#814,.T.);
#511=EDGE_CURVE('',#671,#671,#815,.T.);
#512=EDGE_CURVE('',#672,#672,#816,.T.);
#513=EDGE_CURVE('',#673,#673,#817,.T.);
#514=EDGE_CURVE('',#674,#674,#818,.T.);
#515=EDGE_CURVE('',#675,#675,#819,.T.);
#516=EDGE_CURVE('',#676,#676,#820,.T.);
#517=EDGE_CURVE('',#677,#677,#821,.T.);
#518=EDGE_CURVE('',#678,#678,#822,.T.);
#519=EDGE_CURVE('',#679,#679,#823,.T.);
#520=EDGE_CURVE('',#680,#680,#824,.T.);
#521=EDGE_CURVE('',#681,#681,#825,.T.);
#522=EDGE_CURVE('',#682,#682,#826,.T.);
#523=EDGE_CURVE('',#683,#683,#827,.T.);
#524=EDGE_CURVE('',#684,#684,#828,.T.);
#525=EDGE_CURVE('',#685,#685,#829,.T.);
#526=EDGE_CURVE('',#686,#686,#830,.T.);
#527=EDGE_CURVE('',#687,#687,#831,.T.);
#528=EDGE_CURVE('',#688,#688,#832,.T.);
#529=EDGE_CURVE('',#689,#689,#833,.T.);
#530=EDGE_CURVE('',#690,#690,#834,.T.);
#531=EDGE_CURVE('',#691,#691,#835,.T.);
#532=EDGE_CURVE('',#692,#692,#836,.T.);
#533=EDGE_CURVE('',#693,#693,#837,.T.);
#534=EDGE_CURVE('',#694,#694,#838,.T.);
#535=EDGE_CURVE('',#695,#695,#839,.T.);
#536=EDGE_CURVE('',#696,#697,#840,.T.);
#537=EDGE_CURVE('',#696,#698,#80,.T.);
#538=EDGE_CURVE('',#698,#699,#81,.T.);
#539=EDGE_CURVE('',#699,#700,#82,.T.);
#540=EDGE_CURVE('',#701,#700,#841,.T.);
#541=EDGE_CURVE('',#701,#702,#83,.T.);
#542=EDGE_CURVE('',#702,#703,#84,.T.);
#543=EDGE_CURVE('',#703,#704,#85,.T.);
#544=EDGE_CURVE('',#705,#704,#842,.T.);
#545=EDGE_CURVE('',#705,#706,#86,.T.);
#546=EDGE_CURVE('',#706,#707,#87,.T.);
#547=EDGE_CURVE('',#707,#708,#88,.T.);
#548=EDGE_CURVE('',#709,#708,#843,.T.);
#549=EDGE_CURVE('',#709,#710,#89,.T.);
#550=EDGE_CURVE('',#710,#711,#90,.T.);
#551=EDGE_CURVE('',#711,#697,#91,.T.);
#552=EDGE_CURVE('',#712,#712,#844,.T.);
#553=EDGE_CURVE('',#713,#713,#845,.T.);
#554=EDGE_CURVE('',#714,#714,#846,.T.);
#555=EDGE_CURVE('',#715,#715,#847,.T.);
#556=EDGE_CURVE('',#716,#716,#848,.T.);
#557=EDGE_CURVE('',#717,#717,#849,.T.);
#558=EDGE_CURVE('',#718,#718,#850,.T.);
#559=EDGE_CURVE('',#719,#719,#851,.T.);
#560=EDGE_CURVE('',#720,#720,#852,.T.);
#561=EDGE_CURVE('',#721,#721,#853,.T.);
#562=EDGE_CURVE('',#722,#722,#854,.T.);
#563=EDGE_CURVE('',#723,#723,#855,.T.);
#564=EDGE_CURVE('',#724,#724,#856,.T.);
#565=EDGE_CURVE('',#725,#725,#857,.T.);
#566=EDGE_CURVE('',#726,#726,#858,.T.);
#567=EDGE_CURVE('',#727,#727,#859,.T.);
#568=EDGE_CURVE('',#728,#728,#860,.T.);
#569=EDGE_CURVE('',#729,#729,#861,.T.);
#570=EDGE_CURVE('',#730,#730,#862,.T.);
#571=EDGE_CURVE('',#731,#731,#863,.T.);
#572=EDGE_CURVE('',#732,#732,#864,.T.);
#573=EDGE_CURVE('',#733,#733,#865,.T.);
#574=EDGE_CURVE('',#734,#734,#866,.T.);
#575=EDGE_CURVE('',#735,#735,#867,.T.);
#576=EDGE_CURVE('',#736,#736,#868,.T.);
#577=EDGE_CURVE('',#737,#737,#869,.T.);
#578=EDGE_CURVE('',#738,#738,#870,.T.);
#579=EDGE_CURVE('',#739,#739,#871,.T.);
#580=EDGE_CURVE('',#740,#740,#872,.T.);
#581=EDGE_CURVE('',#741,#741,#873,.T.);
#582=EDGE_CURVE('',#742,#742,#874,.T.);
#583=EDGE_CURVE('',#743,#743,#875,.T.);
#584=EDGE_CURVE('',#744,#744,#876,.T.);
#585=EDGE_CURVE('',#745,#745,#877,.T.);
#586=EDGE_CURVE('',#746,#746,#878,.T.);
#587=EDGE_CURVE('',#747,#747,#879,.T.);
#588=EDGE_CURVE('',#748,#748,#880,.T.);
#589=EDGE_CURVE('',#749,#749,#881,.T.);
#590=EDGE_CURVE('',#750,#750,#882,.T.);
#591=EDGE_CURVE('',#751,#751,#883,.T.);
#592=EDGE_CURVE('',#752,#752,#884,.T.);
#593=EDGE_CURVE('',#753,#753,#885,.T.);
#594=EDGE_CURVE('',#754,#754,#886,.T.);
#595=EDGE_CURVE('',#755,#755,#887,.T.);
#596=EDGE_CURVE('',#756,#756,#888,.T.);
#597=EDGE_CURVE('',#757,#757,#889,.T.);
#598=EDGE_CURVE('',#758,#758,#890,.T.);
#599=EDGE_CURVE('',#759,#759,#891,.T.);
#600=EDGE_CURVE('',#760,#760,#892,.T.);
#601=EDGE_CURVE('',#761,#761,#893,.T.);
#602=EDGE_CURVE('',#762,#762,#894,.T.);
#603=EDGE_CURVE('',#763,#763,#895,.T.);
#604=EDGE_CURVE('',#764,#764,#896,.T.);
#605=EDGE_CURVE('',#765,#765,#897,.T.);
#606=EDGE_CURVE('',#766,#766,#898,.T.);
#607=EDGE_CURVE('',#767,#767,#899,.T.);
#608=EDGE_CURVE('',#768,#769,#900,.T.);
#609=EDGE_CURVE('',#769,#770,#92,.T.);
#610=EDGE_CURVE('',#770,#771,#93,.T.);
#611=EDGE_CURVE('',#771,#772,#94,.T.);
#612=EDGE_CURVE('',#772,#773,#901,.T.);
#613=EDGE_CURVE('',#773,#774,#95,.T.);
#614=EDGE_CURVE('',#774,#775,#96,.T.);
#615=EDGE_CURVE('',#775,#776,#97,.T.);
#616=EDGE_CURVE('',#776,#777,#902,.T.);
#617=EDGE_CURVE('',#777,#778,#98,.T.);
#618=EDGE_CURVE('',#778,#779,#99,.T.);
#619=EDGE_CURVE('',#779,#780,#100,.T.);
#620=EDGE_CURVE('',#780,#781,#903,.T.);
#621=EDGE_CURVE('',#781,#782,#101,.T.);
#622=EDGE_CURVE('',#782,#783,#102,.T.);
#623=EDGE_CURVE('',#783,#768,#103,.T.);
#624=EDGE_CURVE('',#697,#769,#104,.T.);
#625=EDGE_CURVE('',#696,#768,#105,.T.);
#626=EDGE_CURVE('',#711,#770,#106,.T.);
#627=EDGE_CURVE('',#710,#771,#107,.T.);
#628=EDGE_CURVE('',#709,#772,#108,.T.);
#629=EDGE_CURVE('',#708,#773,#109,.T.);
#630=EDGE_CURVE('',#707,#774,#110,.T.);
#631=EDGE_CURVE('',#706,#775,#111,.T.);
#632=EDGE_CURVE('',#705,#776,#112,.T.);
#633=EDGE_CURVE('',#704,#777,#113,.T.);
#634=EDGE_CURVE('',#703,#778,#114,.T.);
#635=EDGE_CURVE('',#702,#779,#115,.T.);
#636=EDGE_CURVE('',#701,#780,#116,.T.);
#637=EDGE_CURVE('',#700,#781,#117,.T.);
#638=EDGE_CURVE('',#699,#782,#118,.T.);
#639=EDGE_CURVE('',#698,#783,#119,.T.);
#640=VERTEX_POINT('',#2116);
#641=VERTEX_POINT('',#2118);
#642=VERTEX_POINT('',#2120);
#643=VERTEX_POINT('',#2122);
#644=VERTEX_POINT('',#2124);
#645=VERTEX_POINT('',#2126);
#646=VERTEX_POINT('',#2128);
#647=VERTEX_POINT('',#2130);
#648=VERTEX_POINT('',#2132);
#649=VERTEX_POINT('',#2134);
#650=VERTEX_POINT('',#2136);
#651=VERTEX_POINT('',#2138);
#652=VERTEX_POINT('',#2140);
#653=VERTEX_POINT('',#2142);
#654=VERTEX_POINT('',#2144);
#655=VERTEX_POINT('',#2146);
#656=VERTEX_POINT('',#2148);
#657=VERTEX_POINT('',#2150);
#658=VERTEX_POINT('',#2152);
#659=VERTEX_POINT('',#2154);
#660=VERTEX_POINT('',#2156);
#661=VERTEX_POINT('',#2158);
#662=VERTEX_POINT('',#2160);
#663=VERTEX_POINT('',#2162);
#664=VERTEX_POINT('',#2164);
#665=VERTEX_POINT('',#2166);
#666=VERTEX_POINT('',#2168);
#667=VERTEX_POINT('',#2170);
#668=VERTEX_POINT('',#2172);
#669=VERTEX_POINT('',#2174);
#670=VERTEX_POINT('',#2176);
#671=VERTEX_POINT('',#2178);
#672=VERTEX_POINT('',#2180);
#673=VERTEX_POINT('',#2182);
#674=VERTEX_POINT('',#2184);
#675=VERTEX_POINT('',#2186);
#676=VERTEX_POINT('',#2188);
#677=VERTEX_POINT('',#2190);
#678=VERTEX_POINT('',#2192);
#679=VERTEX_POINT('',#2194);
#680=VERTEX_POINT('',#2196);
#681=VERTEX_POINT('',#2198);
#682=VERTEX_POINT('',#2200);
#683=VERTEX_POINT('',#2202);
#684=VERTEX_POINT('',#2204);
#685=VERTEX_POINT('',#2206);
#686=VERTEX_POINT('',#2208);
#687=VERTEX_POINT('',#2210);
#688=VERTEX_POINT('',#2212);
#689=VERTEX_POINT('',#2214);
#690=VERTEX_POINT('',#2216);
#691=VERTEX_POINT('',#2218);
#692=VERTEX_POINT('',#2220);
#693=VERTEX_POINT('',#2222);
#694=VERTEX_POINT('',#2224);
#695=VERTEX_POINT('',#2226);
#696=VERTEX_POINT('',#2228);
#697=VERTEX_POINT('',#2229);
#698=VERTEX_POINT('',#2231);
#699=VERTEX_POINT('',#2233);
#700=VERTEX_POINT('',#2235);
#701=VERTEX_POINT('',#2237);
#702=VERTEX_POINT('',#2239);
#703=VERTEX_POINT('',#2241);
#704=VERTEX_POINT('',#2243);
#705=VERTEX_POINT('',#2245);
#706=VERTEX_POINT('',#2247);
#707=VERTEX_POINT('',#2249);
#708=VERTEX_POINT('',#2251);
#709=VERTEX_POINT('',#2253);
#710=VERTEX_POINT('',#2255);
#711=VERTEX_POINT('',#2257);
#712=VERTEX_POINT('',#2261);
#713=VERTEX_POINT('',#2263);
#714=VERTEX_POINT('',#2265);
#715=VERTEX_POINT('',#2267);
#716=VERTEX_POINT('',#2269);
#717=VERTEX_POINT('',#2271);
#718=VERTEX_POINT('',#2273);
#719=VERTEX_POINT('',#2275);
#720=VERTEX_POINT('',#2277);
#721=VERTEX_POINT('',#2279);
#722=VERTEX_POINT('',#2281);
#723=VERTEX_POINT('',#2283);
#724=VERTEX_POINT('',#2285);
#725=VERTEX_POINT('',#2287);
#726=VERTEX_POINT('',#2289);
#727=VERTEX_POINT('',#2291);
#728=VERTEX_POINT('',#2293);
#729=VERTEX_POINT('',#2295);
#730=VERTEX_POINT('',#2297);
#731=VERTEX_POINT('',#2299);
#732=VERTEX_POINT('',#2301);
#733=VERTEX_POINT('',#2303);
#734=VERTEX_POINT('',#2305);
#735=VERTEX_POINT('',#2307);
#736=VERTEX_POINT('',#2309);
#737=VERTEX_POINT('',#2311);
#738=VERTEX_POINT('',#2313);
#739=VERTEX_POINT('',#2315);
#740=VERTEX_POINT('',#2317);
#741=VERTEX_POINT('',#2319);
#742=VERTEX_POINT('',#2321);
#743=VERTEX_POINT('',#2323);
#744=VERTEX_POINT('',#2325);
#745=VERTEX_POINT('',#2327);
#746=VERTEX_POINT('',#2329);
#747=VERTEX_POINT('',#2331);
#748=VERTEX_POINT('',#2333);
#749=VERTEX_POINT('',#2335);
#750=VERTEX_POINT('',#2337);
#751=VERTEX_POINT('',#2339);
#752=VERTEX_POINT('',#2341);
#753=VERTEX_POINT('',#2343);
#754=VERTEX_POINT('',#2345);
#755=VERTEX_POINT('',#2347);
#756=VERTEX_POINT('',#2349);
#757=VERTEX_POINT('',#2351);
#758=VERTEX_POINT('',#2353);
#759=VERTEX_POINT('',#2355);
#760=VERTEX_POINT('',#2357);
#761=VERTEX_POINT('',#2359);
#762=VERTEX_POINT('',#2361);
#763=VERTEX_POINT('',#2363);
#764=VERTEX_POINT('',#2365);
#765=VERTEX_POINT('',#2367);
#766=VERTEX_POINT('',#2369);
#767=VERTEX_POINT('',#2371);
#768=VERTEX_POINT('',#2373);
#769=VERTEX_POINT('',#2374);
#770=VERTEX_POINT('',#2376);
#771=VERTEX_POINT('',#2378);
#772=VERTEX_POINT('',#2380);
#773=VERTEX_POINT('',#2382);
#774=VERTEX_POINT('',#2384);
#775=VERTEX_POINT('',#2386);
#776=VERTEX_POINT('',#2388);
#777=VERTEX_POINT('',#2390);
#778=VERTEX_POINT('',#2392);
#779=VERTEX_POINT('',#2394);
#780=VERTEX_POINT('',#2396);
#781=VERTEX_POINT('',#2398);
#782=VERTEX_POINT('',#2400);
#783=VERTEX_POINT('',#2402);
#784=CIRCLE('',#1490,0.0005);
#785=CIRCLE('',#1491,0.001375);
#786=CIRCLE('',#1492,0.001375);
#787=CIRCLE('',#1493,0.001375);
#788=CIRCLE('',#1494,0.001375);
#789=CIRCLE('',#1495,0.0005);
#790=CIRCLE('',#1496,0.0005);
#791=CIRCLE('',#1497,0.0005);
#792=CIRCLE('',#1498,0.0005);
#793=CIRCLE('',#1499,0.0005);
#794=CIRCLE('',#1500,0.0005);
#795=CIRCLE('',#1501,0.0005);
#796=CIRCLE('',#1502,0.0005);
#797=CIRCLE('',#1503,0.0005);
#798=CIRCLE('',#1504,0.0005);
#799=CIRCLE('',#1505,0.0005);
#800=CIRCLE('',#1506,0.0005);
#801=CIRCLE('',#1507,0.0005);
#802=CIRCLE('',#1508,0.0005);
#803=CIRCLE('',#1509,0.0005);
#804=CIRCLE('',#1510,0.0005);
#805=CIRCLE('',#1511,0.0005);
#806=CIRCLE('',#1512,0.0005);
#807=CIRCLE('',#1513,0.0005);
#808=CIRCLE('',#1514,0.0005);
#809=CIRCLE('',#1515,0.0005);
#810=CIRCLE('',#1516,0.0005);
#811=CIRCLE('',#1517,0.0005);
#812=CIRCLE('',#1518,0.0005);
#813=CIRCLE('',#1519,0.0005);
#814=CIRCLE('',#1520,0.0005);
#815=CIRCLE('',#1521,0.0005);
#816=CIRCLE('',#1522,0.0005);
#817=CIRCLE('',#1523,0.0005);
#818=CIRCLE('',#1524,0.0005);
#819=CIRCLE('',#1525,0.0005);
#820=CIRCLE('',#1526,0.0005);
#821=CIRCLE('',#1527,0.0005);
#822=CIRCLE('',#1528,0.0005);
#823=CIRCLE('',#1529,0.0005);
#824=CIRCLE('',#1530,0.0005);
#825=CIRCLE('',#1531,0.0005);
#826=CIRCLE('',#1532,0.0005);
#827=CIRCLE('',#1533,0.0005);
#828=CIRCLE('',#1534,0.0005);
#829=CIRCLE('',#1535,0.0005);
#830=CIRCLE('',#1536,0.0005);
#831=CIRCLE('',#1537,0.0005);
#832=CIRCLE('',#1538,0.0005);
#833=CIRCLE('',#1539,0.0005);
#834=CIRCLE('',#1540,0.00175);
#835=CIRCLE('',#1541,0.0005);
#836=CIRCLE('',#1542,0.0006);
#837=CIRCLE('',#1543,0.00175);
#838=CIRCLE('',#1544,0.0005);
#839=CIRCLE('',#1545,0.0006);
#840=CIRCLE('',#1546,0.003);
#841=CIRCLE('',#1547,0.003);
#842=CIRCLE('',#1548,0.003);
#843=CIRCLE('',#1549,0.003);
#844=CIRCLE('',#1551,0.0005);
#845=CIRCLE('',#1552,0.001375);
#846=CIRCLE('',#1553,0.001375);
#847=CIRCLE('',#1554,0.001375);
#848=CIRCLE('',#1555,0.001375);
#849=CIRCLE('',#1556,0.0005);
#850=CIRCLE('',#1557,0.0005);
#851=CIRCLE('',#1558,0.0005);
#852=CIRCLE('',#1559,0.0005);
#853=CIRCLE('',#1560,0.0005);
#854=CIRCLE('',#1561,0.0005);
#855=CIRCLE('',#1562,0.0005);
#856=CIRCLE('',#1563,0.0005);
#857=CIRCLE('',#1564,0.0005);
#858=CIRCLE('',#1565,0.0005);
#859=CIRCLE('',#1566,0.0005);
#860=CIRCLE('',#1567,0.0005);
#861=CIRCLE('',#1568,0.0005);
#862=CIRCLE('',#1569,0.0005);
#863=CIRCLE('',#1570,0.0005);
#864=CIRCLE('',#1571,0.0005);
#865=CIRCLE('',#1572,0.0005);
#866=CIRCLE('',#1573,0.0005);
#867=CIRCLE('',#1574,0.0005);
#868=CIRCLE('',#1575,0.0005);
#869=CIRCLE('',#1576,0.0005);
#870=CIRCLE('',#1577,0.0005);
#871=CIRCLE('',#1578,0.0005);
#872=CIRCLE('',#1579,0.0005);
#873=CIRCLE('',#1580,0.0005);
#874=CIRCLE('',#1581,0.0005);
#875=CIRCLE('',#1582,0.0005);
#876=CIRCLE('',#1583,0.0005);
#877=CIRCLE('',#1584,0.0005);
#878=CIRCLE('',#1585,0.0005);
#879=CIRCLE('',#1586,0.0005);
#880=CIRCLE('',#1587,0.0005);
#881=CIRCLE('',#1588,0.0005);
#882=CIRCLE('',#1589,0.0005);
#883=CIRCLE('',#1590,0.0005);
#884=CIRCLE('',#1591,0.0005);
#885=CIRCLE('',#1592,0.0005);
#886=CIRCLE('',#1593,0.0005);
#887=CIRCLE('',#1594,0.0005);
#888=CIRCLE('',#1595,0.0005);
#889=CIRCLE('',#1596,0.0005);
#890=CIRCLE('',#1597,0.0005);
#891=CIRCLE('',#1598,0.0005);
#892=CIRCLE('',#1599,0.0005);
#893=CIRCLE('',#1600,0.0005);
#894=CIRCLE('',#1601,0.00175);
#895=CIRCLE('',#1602,0.0005);
#896=CIRCLE('',#1603,0.0006);
#897=CIRCLE('',#1604,0.00175);
#898=CIRCLE('',#1605,0.0005);
#899=CIRCLE('',#1606,0.0006);
#900=CIRCLE('',#1607,0.003);
#901=CIRCLE('',#1608,0.003);
#902=CIRCLE('',#1609,0.003);
#903=CIRCLE('',#1610,0.003);
#904=EDGE_LOOP('',(#160));
#905=EDGE_LOOP('',(#161));
#906=EDGE_LOOP('',(#162));
#907=EDGE_LOOP('',(#163));
#908=EDGE_LOOP('',(#164));
#909=EDGE_LOOP('',(#165));
#910=EDGE_LOOP('',(#166));
#911=EDGE_LOOP('',(#167));
#912=EDGE_LOOP('',(#168));
#913=EDGE_LOOP('',(#169));
#914=EDGE_LOOP('',(#170));
#915=EDGE_LOOP('',(#171));
#916=EDGE_LOOP('',(#172));
#917=EDGE_LOOP('',(#173));
#918=EDGE_LOOP('',(#174));
#919=EDGE_LOOP('',(#175));
#920=EDGE_LOOP('',(#176));
#921=EDGE_LOOP('',(#177));
#922=EDGE_LOOP('',(#178));
#923=EDGE_LOOP('',(#179));
#924=EDGE_LOOP('',(#180));
#925=EDGE_LOOP('',(#181));
#926=EDGE_LOOP('',(#182));
#927=EDGE_LOOP('',(#183));
#928=EDGE_LOOP('',(#184));
#929=EDGE_LOOP('',(#185));
#930=EDGE_LOOP('',(#186));
#931=EDGE_LOOP('',(#187));
#932=EDGE_LOOP('',(#188));
#933=EDGE_LOOP('',(#189));
#934=EDGE_LOOP('',(#190));
#935=EDGE_LOOP('',(#191));
#936=EDGE_LOOP('',(#192));
#937=EDGE_LOOP('',(#193));
#938=EDGE_LOOP('',(#194));
#939=EDGE_LOOP('',(#195));
#940=EDGE_LOOP('',(#196));
#941=EDGE_LOOP('',(#197));
#942=EDGE_LOOP('',(#198));
#943=EDGE_LOOP('',(#199));
#944=EDGE_LOOP('',(#200));
#945=EDGE_LOOP('',(#201));
#946=EDGE_LOOP('',(#202));
#947=EDGE_LOOP('',(#203));
#948=EDGE_LOOP('',(#204));
#949=EDGE_LOOP('',(#205));
#950=EDGE_LOOP('',(#206));
#951=EDGE_LOOP('',(#207));
#952=EDGE_LOOP('',(#208));
#953=EDGE_LOOP('',(#209));
#954=EDGE_LOOP('',(#210));
#955=EDGE_LOOP('',(#211));
#956=EDGE_LOOP('',(#212));
#957=EDGE_LOOP('',(#213));
#958=EDGE_LOOP('',(#214));
#959=EDGE_LOOP('',(#215));
#960=EDGE_LOOP('',(#216,#217,#218,#219,#220,#221,#222,#223,#224,#225,#226,
#227,#228,#229,#230,#231));
#961=EDGE_LOOP('',(#232));
#962=EDGE_LOOP('',(#233));
#963=EDGE_LOOP('',(#234));
#964=EDGE_LOOP('',(#235));
#965=EDGE_LOOP('',(#236));
#966=EDGE_LOOP('',(#237));
#967=EDGE_LOOP('',(#238));
#968=EDGE_LOOP('',(#239));
#969=EDGE_LOOP('',(#240));
#970=EDGE_LOOP('',(#241));
#971=EDGE_LOOP('',(#242));
#972=EDGE_LOOP('',(#243));
#973=EDGE_LOOP('',(#244));
#974=EDGE_LOOP('',(#245));
#975=EDGE_LOOP('',(#246));
#976=EDGE_LOOP('',(#247));
#977=EDGE_LOOP('',(#248));
#978=EDGE_LOOP('',(#249));
#979=EDGE_LOOP('',(#250));
#980=EDGE_LOOP('',(#251));
#981=EDGE_LOOP('',(#252));
#982=EDGE_LOOP('',(#253));
#983=EDGE_LOOP('',(#254));
#984=EDGE_LOOP('',(#255));
#985=EDGE_LOOP('',(#256));
#986=EDGE_LOOP('',(#257));
#987=EDGE_LOOP('',(#258));
#988=EDGE_LOOP('',(#259));
#989=EDGE_LOOP('',(#260));
#990=EDGE_LOOP('',(#261));
#991=EDGE_LOOP('',(#262));
#992=EDGE_LOOP('',(#263));
#993=EDGE_LOOP('',(#264));
#994=EDGE_LOOP('',(#265));
#995=EDGE_LOOP('',(#266));
#996=EDGE_LOOP('',(#267));
#997=EDGE_LOOP('',(#268));
#998=EDGE_LOOP('',(#269));
#999=EDGE_LOOP('',(#270));
#1000=EDGE_LOOP('',(#271));
#1001=EDGE_LOOP('',(#272));
#1002=EDGE_LOOP('',(#273));
#1003=EDGE_LOOP('',(#274));
#1004=EDGE_LOOP('',(#275));
#1005=EDGE_LOOP('',(#276));
#1006=EDGE_LOOP('',(#277));
#1007=EDGE_LOOP('',(#278));
#1008=EDGE_LOOP('',(#279));
#1009=EDGE_LOOP('',(#280));
#1010=EDGE_LOOP('',(#281));
#1011=EDGE_LOOP('',(#282));
#1012=EDGE_LOOP('',(#283));
#1013=EDGE_LOOP('',(#284));
#1014=EDGE_LOOP('',(#285));
#1015=EDGE_LOOP('',(#286));
#1016=EDGE_LOOP('',(#287));
#1017=EDGE_LOOP('',(#288,#289,#290,#291,#292,#293,#294,#295,#296,#297,#298,
#299,#300,#301,#302,#303));
#1018=EDGE_LOOP('',(#304,#305,#306,#307));
#1019=EDGE_LOOP('',(#308,#309,#310,#311));
#1020=EDGE_LOOP('',(#312,#313,#314,#315));
#1021=EDGE_LOOP('',(#316,#317,#318,#319));
#1022=EDGE_LOOP('',(#320,#321,#322,#323));
#1023=EDGE_LOOP('',(#324,#325,#326,#327));
#1024=EDGE_LOOP('',(#328,#329,#330,#331));
#1025=EDGE_LOOP('',(#332,#333,#334,#335));
#1026=EDGE_LOOP('',(#336,#337,#338,#339));
#1027=EDGE_LOOP('',(#340,#341,#342,#343));
#1028=EDGE_LOOP('',(#344,#345,#346,#347));
#1029=EDGE_LOOP('',(#348,#349,#350,#351));
#1030=EDGE_LOOP('',(#352,#353,#354,#355));
#1031=EDGE_LOOP('',(#356,#357,#358,#359));
#1032=EDGE_LOOP('',(#360,#361,#362,#363));
#1033=EDGE_LOOP('',(#364,#365,#366,#367));
#1034=EDGE_LOOP('',(#368));
#1035=EDGE_LOOP('',(#369));
#1036=EDGE_LOOP('',(#370));
#1037=EDGE_LOOP('',(#371));
#1038=EDGE_LOOP('',(#372));
#1039=EDGE_LOOP('',(#373));
#1040=EDGE_LOOP('',(#374));
#1041=EDGE_LOOP('',(#375));
#1042=EDGE_LOOP('',(#376));
#1043=EDGE_LOOP('',(#377));
#1044=EDGE_LOOP('',(#378));
#1045=EDGE_LOOP('',(#379));
#1046=EDGE_LOOP('',(#380));
#1047=EDGE_LOOP('',(#381));
#1048=EDGE_LOOP('',(#382));
#1049=EDGE_LOOP('',(#383));
#1050=EDGE_LOOP('',(#384));
#1051=EDGE_LOOP('',(#385));
#1052=EDGE_LOOP('',(#386));
#1053=EDGE_LOOP('',(#387));
#1054=EDGE_LOOP('',(#388));
#1055=EDGE_LOOP('',(#389));
#1056=EDGE_LOOP('',(#390));
#1057=EDGE_LOOP('',(#391));
#1058=EDGE_LOOP('',(#392));
#1059=EDGE_LOOP('',(#393));
#1060=EDGE_LOOP('',(#394));
#1061=EDGE_LOOP('',(#395));
#1062=EDGE_LOOP('',(#396));
#1063=EDGE_LOOP('',(#397));
#1064=EDGE_LOOP('',(#398));
#1065=EDGE_LOOP('',(#399));
#1066=EDGE_LOOP('',(#400));
#1067=EDGE_LOOP('',(#401));
#1068=EDGE_LOOP('',(#402));
#1069=EDGE_LOOP('',(#403));
#1070=EDGE_LOOP('',(#404));
#1071=EDGE_LOOP('',(#405));
#1072=EDGE_LOOP('',(#406));
#1073=EDGE_LOOP('',(#407));
#1074=EDGE_LOOP('',(#408));
#1075=EDGE_LOOP('',(#409));
#1076=EDGE_LOOP('',(#410));
#1077=EDGE_LOOP('',(#411));
#1078=EDGE_LOOP('',(#412));
#1079=EDGE_LOOP('',(#413));
#1080=EDGE_LOOP('',(#414));
#1081=EDGE_LOOP('',(#415));
#1082=EDGE_LOOP('',(#416));
#1083=EDGE_LOOP('',(#417));
#1084=EDGE_LOOP('',(#418));
#1085=EDGE_LOOP('',(#419));
#1086=EDGE_LOOP('',(#420));
#1087=EDGE_LOOP('',(#421));
#1088=EDGE_LOOP('',(#422));
#1089=EDGE_LOOP('',(#423));
#1090=EDGE_LOOP('',(#424));
#1091=EDGE_LOOP('',(#425));
#1092=EDGE_LOOP('',(#426));
#1093=EDGE_LOOP('',(#427));
#1094=EDGE_LOOP('',(#428));
#1095=EDGE_LOOP('',(#429));
#1096=EDGE_LOOP('',(#430));
#1097=EDGE_LOOP('',(#431));
#1098=EDGE_LOOP('',(#432));
#1099=EDGE_LOOP('',(#433));
#1100=EDGE_LOOP('',(#434));
#1101=EDGE_LOOP('',(#435));
#1102=EDGE_LOOP('',(#436));
#1103=EDGE_LOOP('',(#437));
#1104=EDGE_LOOP('',(#438));
#1105=EDGE_LOOP('',(#439));
#1106=EDGE_LOOP('',(#440));
#1107=EDGE_LOOP('',(#441));
#1108=EDGE_LOOP('',(#442));
#1109=EDGE_LOOP('',(#443));
#1110=EDGE_LOOP('',(#444));
#1111=EDGE_LOOP('',(#445));
#1112=EDGE_LOOP('',(#446));
#1113=EDGE_LOOP('',(#447));
#1114=EDGE_LOOP('',(#448));
#1115=EDGE_LOOP('',(#449));
#1116=EDGE_LOOP('',(#450));
#1117=EDGE_LOOP('',(#451));
#1118=EDGE_LOOP('',(#452));
#1119=EDGE_LOOP('',(#453));
#1120=EDGE_LOOP('',(#454));
#1121=EDGE_LOOP('',(#455));
#1122=EDGE_LOOP('',(#456));
#1123=EDGE_LOOP('',(#457));
#1124=EDGE_LOOP('',(#458));
#1125=EDGE_LOOP('',(#459));
#1126=EDGE_LOOP('',(#460));
#1127=EDGE_LOOP('',(#461));
#1128=EDGE_LOOP('',(#462));
#1129=EDGE_LOOP('',(#463));
#1130=EDGE_LOOP('',(#464));
#1131=EDGE_LOOP('',(#465));
#1132=EDGE_LOOP('',(#466));
#1133=EDGE_LOOP('',(#467));
#1134=EDGE_LOOP('',(#468));
#1135=EDGE_LOOP('',(#469));
#1136=EDGE_LOOP('',(#470));
#1137=EDGE_LOOP('',(#471));
#1138=EDGE_LOOP('',(#472));
#1139=EDGE_LOOP('',(#473));
#1140=EDGE_LOOP('',(#474));
#1141=EDGE_LOOP('',(#475));
#1142=EDGE_LOOP('',(#476));
#1143=EDGE_LOOP('',(#477));
#1144=EDGE_LOOP('',(#478));
#1145=EDGE_LOOP('',(#479));
#1146=FACE_BOUND('',#904,.T.);
#1147=FACE_BOUND('',#905,.T.);
#1148=FACE_BOUND('',#906,.T.);
#1149=FACE_BOUND('',#907,.T.);
#1150=FACE_BOUND('',#908,.T.);
#1151=FACE_BOUND('',#909,.T.);
#1152=FACE_BOUND('',#910,.T.);
#1153=FACE_BOUND('',#911,.T.);
#1154=FACE_BOUND('',#912,.T.);
#1155=FACE_BOUND('',#913,.T.);
#1156=FACE_BOUND('',#914,.T.);
#1157=FACE_BOUND('',#915,.T.);
#1158=FACE_BOUND('',#916,.T.);
#1159=FACE_BOUND('',#917,.T.);
#1160=FACE_BOUND('',#918,.T.);
#1161=FACE_BOUND('',#919,.T.);
#1162=FACE_BOUND('',#920,.T.);
#1163=FACE_BOUND('',#921,.T.);
#1164=FACE_BOUND('',#922,.T.);
#1165=FACE_BOUND('',#923,.T.);
#1166=FACE_BOUND('',#924,.T.);
#1167=FACE_BOUND('',#925,.T.);
#1168=FACE_BOUND('',#926,.T.);
#1169=FACE_BOUND('',#927,.T.);
#1170=FACE_BOUND('',#928,.T.);
#1171=FACE_BOUND('',#929,.T.);
#1172=FACE_BOUND('',#930,.T.);
#1173=FACE_BOUND('',#931,.T.);
#1174=FACE_BOUND('',#932,.T.);
#1175=FACE_BOUND('',#933,.T.);
#1176=FACE_BOUND('',#934,.T.);
#1177=FACE_BOUND('',#935,.T.);
#1178=FACE_BOUND('',#936,.T.);
#1179=FACE_BOUND('',#937,.T.);
#1180=FACE_BOUND('',#938,.T.);
#1181=FACE_BOUND('',#939,.T.);
#1182=FACE_BOUND('',#940,.T.);
#1183=FACE_BOUND('',#941,.T.);
#1184=FACE_BOUND('',#942,.T.);
#1185=FACE_BOUND('',#943,.T.);
#1186=FACE_BOUND('',#944,.T.);
#1187=FACE_BOUND('',#945,.T.);
#1188=FACE_BOUND('',#946,.T.);
#1189=FACE_BOUND('',#947,.T.);
#1190=FACE_BOUND('',#948,.T.);
#1191=FACE_BOUND('',#949,.T.);
#1192=FACE_BOUND('',#950,.T.);
#1193=FACE_BOUND('',#951,.T.);
#1194=FACE_BOUND('',#952,.T.);
#1195=FACE_BOUND('',#953,.T.);
#1196=FACE_BOUND('',#954,.T.);
#1197=FACE_BOUND('',#955,.T.);
#1198=FACE_BOUND('',#956,.T.);
#1199=FACE_BOUND('',#957,.T.);
#1200=FACE_BOUND('',#958,.T.);
#1201=FACE_BOUND('',#959,.T.);
#1202=FACE_BOUND('',#960,.T.);
#1203=FACE_BOUND('',#961,.T.);
#1204=FACE_BOUND('',#962,.T.);
#1205=FACE_BOUND('',#963,.T.);
#1206=FACE_BOUND('',#964,.T.);
#1207=FACE_BOUND('',#965,.T.);
#1208=FACE_BOUND('',#966,.T.);
#1209=FACE_BOUND('',#967,.T.);
#1210=FACE_BOUND('',#968,.T.);
#1211=FACE_BOUND('',#969,.T.);
#1212=FACE_BOUND('',#970,.T.);
#1213=FACE_BOUND('',#971,.T.);
#1214=FACE_BOUND('',#972,.T.);
#1215=FACE_BOUND('',#973,.T.);
#1216=FACE_BOUND('',#974,.T.);
#1217=FACE_BOUND('',#975,.T.);
#1218=FACE_BOUND('',#976,.T.);
#1219=FACE_BOUND('',#977,.T.);
#1220=FACE_BOUND('',#978,.T.);
#1221=FACE_BOUND('',#979,.T.);
#1222=FACE_BOUND('',#980,.T.);
#1223=FACE_BOUND('',#981,.T.);
#1224=FACE_BOUND('',#982,.T.);
#1225=FACE_BOUND('',#983,.T.);
#1226=FACE_BOUND('',#984,.T.);
#1227=FACE_BOUND('',#985,.T.);
#1228=FACE_BOUND('',#986,.T.);
#1229=FACE_BOUND('',#987,.T.);
#1230=FACE_BOUND('',#988,.T.);
#1231=FACE_BOUND('',#989,.T.);
#1232=FACE_BOUND('',#990,.T.);
#1233=FACE_BOUND('',#991,.T.);
#1234=FACE_BOUND('',#992,.T.);
#1235=FACE_BOUND('',#993,.T.);
#1236=FACE_BOUND('',#994,.T.);
#1237=FACE_BOUND('',#995,.T.);
#1238=FACE_BOUND('',#996,.T.);
#1239=FACE_BOUND('',#997,.T.);
#1240=FACE_BOUND('',#998,.T.);
#1241=FACE_BOUND('',#999,.T.);
#1242=FACE_BOUND('',#1000,.T.);
#1243=FACE_BOUND('',#1001,.T.);
#1244=FACE_BOUND('',#1002,.T.);
#1245=FACE_BOUND('',#1003,.T.);
#1246=FACE_BOUND('',#1004,.T.);
#1247=FACE_BOUND('',#1005,.T.);
#1248=FACE_BOUND('',#1006,.T.);
#1249=FACE_BOUND('',#1007,.T.);
#1250=FACE_BOUND('',#1008,.T.);
#1251=FACE_BOUND('',#1009,.T.);
#1252=FACE_BOUND('',#1010,.T.);
#1253=FACE_BOUND('',#1011,.T.);
#1254=FACE_BOUND('',#1012,.T.);
#1255=FACE_BOUND('',#1013,.T.);
#1256=FACE_BOUND('',#1014,.T.);
#1257=FACE_BOUND('',#1015,.T.);
#1258=FACE_BOUND('',#1016,.T.);
#1259=FACE_BOUND('',#1017,.T.);
#1260=FACE_BOUND('',#1018,.T.);
#1261=FACE_BOUND('',#1019,.T.);
#1262=FACE_BOUND('',#1020,.T.);
#1263=FACE_BOUND('',#1021,.T.);
#1264=FACE_BOUND('',#1022,.T.);
#1265=FACE_BOUND('',#1023,.T.);
#1266=FACE_BOUND('',#1024,.T.);
#1267=FACE_BOUND('',#1025,.T.);
#1268=FACE_BOUND('',#1026,.T.);
#1269=FACE_BOUND('',#1027,.T.);
#1270=FACE_BOUND('',#1028,.T.);
#1271=FACE_BOUND('',#1029,.T.);
#1272=FACE_BOUND('',#1030,.T.);
#1273=FACE_BOUND('',#1031,.T.);
#1274=FACE_BOUND('',#1032,.T.);
#1275=FACE_BOUND('',#1033,.T.);
#1276=FACE_BOUND('',#1034,.T.);
#1277=FACE_BOUND('',#1035,.T.);
#1278=FACE_BOUND('',#1036,.T.);
#1279=FACE_BOUND('',#1037,.T.);
#1280=FACE_BOUND('',#1038,.T.);
#1281=FACE_BOUND('',#1039,.T.);
#1282=FACE_BOUND('',#1040,.T.);
#1283=FACE_BOUND('',#1041,.T.);
#1284=FACE_BOUND('',#1042,.T.);
#1285=FACE_BOUND('',#1043,.T.);
#1286=FACE_BOUND('',#1044,.T.);
#1287=FACE_BOUND('',#1045,.T.);
#1288=FACE_BOUND('',#1046,.T.);
#1289=FACE_BOUND('',#1047,.T.);
#1290=FACE_BOUND('',#1048,.T.);
#1291=FACE_BOUND('',#1049,.T.);
#1292=FACE_BOUND('',#1050,.T.);
#1293=FACE_BOUND('',#1051,.T.);
#1294=FACE_BOUND('',#1052,.T.);
#1295=FACE_BOUND('',#1053,.T.);
#1296=FACE_BOUND('',#1054,.T.);
#1297=FACE_BOUND('',#1055,.T.);
#1298=FACE_BOUND('',#1056,.T.);
#1299=FACE_BOUND('',#1057,.T.);
#1300=FACE_BOUND('',#1058,.T.);
#1301=FACE_BOUND('',#1059,.T.);
#1302=FACE_BOUND('',#1060,.T.);
#1303=FACE_BOUND('',#1061,.T.);
#1304=FACE_BOUND('',#1062,.T.);
#1305=FACE_BOUND('',#1063,.T.);
#1306=FACE_BOUND('',#1064,.T.);
#1307=FACE_BOUND('',#1065,.T.);
#1308=FACE_BOUND('',#1066,.T.);
#1309=FACE_BOUND('',#1067,.T.);
#1310=FACE_BOUND('',#1068,.T.);
#1311=FACE_BOUND('',#1069,.T.);
#1312=FACE_BOUND('',#1070,.T.);
#1313=FACE_BOUND('',#1071,.T.);
#1314=FACE_BOUND('',#1072,.T.);
#1315=FACE_BOUND('',#1073,.T.);
#1316=FACE_BOUND('',#1074,.T.);
#1317=FACE_BOUND('',#1075,.T.);
#1318=FACE_BOUND('',#1076,.T.);
#1319=FACE_BOUND('',#1077,.T.);
#1320=FACE_BOUND('',#1078,.T.);
#1321=FACE_BOUND('',#1079,.T.);
#1322=FACE_BOUND('',#1080,.T.);
#1323=FACE_BOUND('',#1081,.T.);
#1324=FACE_BOUND('',#1082,.T.);
#1325=FACE_BOUND('',#1083,.T.);
#1326=FACE_BOUND('',#1084,.T.);
#1327=FACE_BOUND('',#1085,.T.);
#1328=FACE_BOUND('',#1086,.T.);
#1329=FACE_BOUND('',#1087,.T.);
#1330=FACE_BOUND('',#1088,.T.);
#1331=FACE_BOUND('',#1089,.T.);
#1332=FACE_BOUND('',#1090,.T.);
#1333=FACE_BOUND('',#1091,.T.);
#1334=FACE_BOUND('',#1092,.T.);
#1335=FACE_BOUND('',#1093,.T.);
#1336=FACE_BOUND('',#1094,.T.);
#1337=FACE_BOUND('',#1095,.T.);
#1338=FACE_BOUND('',#1096,.T.);
#1339=FACE_BOUND('',#1097,.T.);
#1340=FACE_BOUND('',#1098,.T.);
#1341=FACE_BOUND('',#1099,.T.);
#1342=FACE_BOUND('',#1100,.T.);
#1343=FACE_BOUND('',#1101,.T.);
#1344=FACE_BOUND('',#1102,.T.);
#1345=FACE_BOUND('',#1103,.T.);
#1346=FACE_BOUND('',#1104,.T.);
#1347=FACE_BOUND('',#1105,.T.);
#1348=FACE_BOUND('',#1106,.T.);
#1349=FACE_BOUND('',#1107,.T.);
#1350=FACE_BOUND('',#1108,.T.);
#1351=FACE_BOUND('',#1109,.T.);
#1352=FACE_BOUND('',#1110,.T.);
#1353=FACE_BOUND('',#1111,.T.);
#1354=FACE_BOUND('',#1112,.T.);
#1355=FACE_BOUND('',#1113,.T.);
#1356=FACE_BOUND('',#1114,.T.);
#1357=FACE_BOUND('',#1115,.T.);
#1358=FACE_BOUND('',#1116,.T.);
#1359=FACE_BOUND('',#1117,.T.);
#1360=FACE_BOUND('',#1118,.T.);
#1361=FACE_BOUND('',#1119,.T.);
#1362=FACE_BOUND('',#1120,.T.);
#1363=FACE_BOUND('',#1121,.T.);
#1364=FACE_BOUND('',#1122,.T.);
#1365=FACE_BOUND('',#1123,.T.);
#1366=FACE_BOUND('',#1124,.T.);
#1367=FACE_BOUND('',#1125,.T.);
#1368=FACE_BOUND('',#1126,.T.);
#1369=FACE_BOUND('',#1127,.T.);
#1370=FACE_BOUND('',#1128,.T.);
#1371=FACE_BOUND('',#1129,.T.);
#1372=FACE_BOUND('',#1130,.T.);
#1373=FACE_BOUND('',#1131,.T.);
#1374=FACE_BOUND('',#1132,.T.);
#1375=FACE_BOUND('',#1133,.T.);
#1376=FACE_BOUND('',#1134,.T.);
#1377=FACE_BOUND('',#1135,.T.);
#1378=FACE_BOUND('',#1136,.T.);
#1379=FACE_BOUND('',#1137,.T.);
#1380=FACE_BOUND('',#1138,.T.);
#1381=FACE_BOUND('',#1139,.T.);
#1382=FACE_BOUND('',#1140,.T.);
#1383=FACE_BOUND('',#1141,.T.);
#1384=FACE_BOUND('',#1142,.T.);
#1385=FACE_BOUND('',#1143,.T.);
#1386=FACE_BOUND('',#1144,.T.);
#1387=FACE_BOUND('',#1145,.T.);
#1388=PLANE('',#1489);
#1389=PLANE('',#1550);
#1390=PLANE('',#1612);
#1391=PLANE('',#1613);
#1392=PLANE('',#1614);
#1393=PLANE('',#1616);
#1394=PLANE('',#1617);
#1395=PLANE('',#1618);
#1396=PLANE('',#1620);
#1397=PLANE('',#1621);
#1398=PLANE('',#1622);
#1399=PLANE('',#1624);
#1400=PLANE('',#1625);
#1401=PLANE('',#1626);
#1402=ADVANCED_FACE('',(#1146,#1147,#1148,#1149,#1150,#1151,#1152,#1153,
#1154,#1155,#1156,#1157,#1158,#1159,#1160,#1161,#1162,#1163,#1164,#1165,
#1166,#1167,#1168,#1169,#1170,#1171,#1172,#1173,#1174,#1175,#1176,#1177,
#1178,#1179,#1180,#1181,#1182,#1183,#1184,#1185,#1186,#1187,#1188,#1189,
#1190,#1191,#1192,#1193,#1194,#1195,#1196,#1197,#1198,#1199,#1200,#1201,
#1202),#1388,.F.);
#1403=ADVANCED_FACE('',(#1203,#1204,#1205,#1206,#1207,#1208,#1209,#1210,
#1211,#1212,#1213,#1214,#1215,#1216,#1217,#1218,#1219,#1220,#1221,#1222,
#1223,#1224,#1225,#1226,#1227,#1228,#1229,#1230,#1231,#1232,#1233,#1234,
#1235,#1236,#1237,#1238,#1239,#1240,#1241,#1242,#1243,#1244,#1245,#1246,
#1247,#1248,#1249,#1250,#1251,#1252,#1253,#1254,#1255,#1256,#1257,#1258,
#1259),#1389,.T.);
#1404=ADVANCED_FACE('',(#1260),#20,.T.);
#1405=ADVANCED_FACE('',(#1261),#1390,.T.);
#1406=ADVANCED_FACE('',(#1262),#1391,.T.);
#1407=ADVANCED_FACE('',(#1263),#1392,.T.);
#1408=ADVANCED_FACE('',(#1264),#21,.T.);
#1409=ADVANCED_FACE('',(#1265),#1393,.T.);
#1410=ADVANCED_FACE('',(#1266),#1394,.T.);
#1411=ADVANCED_FACE('',(#1267),#1395,.T.);
#1412=ADVANCED_FACE('',(#1268),#22,.T.);
#1413=ADVANCED_FACE('',(#1269),#1396,.T.);
#1414=ADVANCED_FACE('',(#1270),#1397,.T.);
#1415=ADVANCED_FACE('',(#1271),#1398,.T.);
#1416=ADVANCED_FACE('',(#1272),#23,.T.);
#1417=ADVANCED_FACE('',(#1273),#1399,.T.);
#1418=ADVANCED_FACE('',(#1274),#1400,.T.);
#1419=ADVANCED_FACE('',(#1275),#1401,.T.);
#1420=ADVANCED_FACE('',(#1276,#1277),#24,.F.);
#1421=ADVANCED_FACE('',(#1278,#1279),#25,.F.);
#1422=ADVANCED_FACE('',(#1280,#1281),#26,.F.);
#1423=ADVANCED_FACE('',(#1282,#1283),#27,.F.);
#1424=ADVANCED_FACE('',(#1284,#1285),#28,.F.);
#1425=ADVANCED_FACE('',(#1286,#1287),#29,.F.);
#1426=ADVANCED_FACE('',(#1288,#1289),#30,.F.);
#1427=ADVANCED_FACE('',(#1290,#1291),#31,.F.);
#1428=ADVANCED_FACE('',(#1292,#1293),#32,.F.);
#1429=ADVANCED_FACE('',(#1294,#1295),#33,.F.);
#1430=ADVANCED_FACE('',(#1296,#1297),#34,.F.);
#1431=ADVANCED_FACE('',(#1298,#1299),#35,.F.);
#1432=ADVANCED_FACE('',(#1300,#1301),#36,.F.);
#1433=ADVANCED_FACE('',(#1302,#1303),#37,.F.);
#1434=ADVANCED_FACE('',(#1304,#1305),#38,.F.);
#1435=ADVANCED_FACE('',(#1306,#1307),#39,.F.);
#1436=ADVANCED_FACE('',(#1308,#1309),#40,.F.);
#1437=ADVANCED_FACE('',(#1310,#1311),#41,.F.);
#1438=ADVANCED_FACE('',(#1312,#1313),#42,.F.);
#1439=ADVANCED_FACE('',(#1314,#1315),#43,.F.);
#1440=ADVANCED_FACE('',(#1316,#1317),#44,.F.);
#1441=ADVANCED_FACE('',(#1318,#1319),#45,.F.);
#1442=ADVANCED_FACE('',(#1320,#1321),#46,.F.);
#1443=ADVANCED_FACE('',(#1322,#1323),#47,.F.);
#1444=ADVANCED_FACE('',(#1324,#1325),#48,.F.);
#1445=ADVANCED_FACE('',(#1326,#1327),#49,.F.);
#1446=ADVANCED_FACE('',(#1328,#1329),#50,.F.);
#1447=ADVANCED_FACE('',(#1330,#1331),#51,.F.);
#1448=ADVANCED_FACE('',(#1332,#1333),#52,.F.);
#1449=ADVANCED_FACE('',(#1334,#1335),#53,.F.);
#1450=ADVANCED_FACE('',(#1336,#1337),#54,.F.);
#1451=ADVANCED_FACE('',(#1338,#1339),#55,.F.);
#1452=ADVANCED_FACE('',(#1340,#1341),#56,.F.);
#1453=ADVANCED_FACE('',(#1342,#1343),#57,.F.);
#1454=ADVANCED_FACE('',(#1344,#1345),#58,.F.);
#1455=ADVANCED_FACE('',(#1346,#1347),#59,.F.);
#1456=ADVANCED_FACE('',(#1348,#1349),#60,.F.);
#1457=ADVANCED_FACE('',(#1350,#1351),#61,.F.);
#1458=ADVANCED_FACE('',(#1352,#1353),#62,.F.);
#1459=ADVANCED_FACE('',(#1354,#1355),#63,.F.);
#1460=ADVANCED_FACE('',(#1356,#1357),#64,.F.);
#1461=ADVANCED_FACE('',(#1358,#1359),#65,.F.);
#1462=ADVANCED_FACE('',(#1360,#1361),#66,.F.);
#1463=ADVANCED_FACE('',(#1362,#1363),#67,.F.);
#1464=ADVANCED_FACE('',(#1364,#1365),#68,.F.);
#1465=ADVANCED_FACE('',(#1366,#1367),#69,.F.);
#1466=ADVANCED_FACE('',(#1368,#1369),#70,.F.);
#1467=ADVANCED_FACE('',(#1370,#1371),#71,.F.);
#1468=ADVANCED_FACE('',(#1372,#1373),#72,.F.);
#1469=ADVANCED_FACE('',(#1374,#1375),#73,.F.);
#1470=ADVANCED_FACE('',(#1376,#1377),#74,.F.);
#1471=ADVANCED_FACE('',(#1378,#1379),#75,.F.);
#1472=ADVANCED_FACE('',(#1380,#1381),#76,.F.);
#1473=ADVANCED_FACE('',(#1382,#1383),#77,.F.);
#1474=ADVANCED_FACE('',(#1384,#1385),#78,.F.);
#1475=ADVANCED_FACE('',(#1386,#1387),#79,.F.);
#1476=CLOSED_SHELL('',(#1402,#1403,#1404,#1405,#1406,#1407,#1408,#1409,
#1410,#1411,#1412,#1413,#1414,#1415,#1416,#1417,#1418,#1419,#1420,#1421,
#1422,#1423,#1424,#1425,#1426,#1427,#1428,#1429,#1430,#1431,#1432,#1433,
#1434,#1435,#1436,#1437,#1438,#1439,#1440,#1441,#1442,#1443,#1444,#1445,
#1446,#1447,#1448,#1449,#1450,#1451,#1452,#1453,#1454,#1455,#1456,#1457,
#1458,#1459,#1460,#1461,#1462,#1463,#1464,#1465,#1466,#1467,#1468,#1469,
#1470,#1471,#1472,#1473,#1474,#1475));
#1477=STYLED_ITEM('',(#1478),#1485);
#1478=PRESENTATION_STYLE_ASSIGNMENT((#1479));
#1479=SURFACE_STYLE_USAGE(.BOTH.,#1480);
#1480=SURFACE_SIDE_STYLE('',(#1481));
#1481=SURFACE_STYLE_FILL_AREA(#1482);
#1482=FILL_AREA_STYLE('',(#1483));
#1483=FILL_AREA_STYLE_COLOUR('',#1484);
#1484=COLOUR_RGB('',0.847058823529412,0.984313725490196,0.592156862745098);
#1485=MANIFOLD_SOLID_BREP('pcb',#1476);
#1486=SHAPE_DEFINITION_REPRESENTATION(#2498,#1487);
#1487=SHAPE_REPRESENTATION('pcb',(#1488),#2493);
#1488=AXIS2_PLACEMENT_3D('',#2113,#1683,#1684);
#1489=AXIS2_PLACEMENT_3D('',#2114,#1685,#1686);
#1490=AXIS2_PLACEMENT_3D('',#2115,#1687,#1688);
#1491=AXIS2_PLACEMENT_3D('',#2117,#1689,#1690);
#1492=AXIS2_PLACEMENT_3D('',#2119,#1691,#1692);
#1493=AXIS2_PLACEMENT_3D('',#2121,#1693,#1694);
#1494=AXIS2_PLACEMENT_3D('',#2123,#1695,#1696);
#1495=AXIS2_PLACEMENT_3D('',#2125,#1697,#1698);
#1496=AXIS2_PLACEMENT_3D('',#2127,#1699,#1700);
#1497=AXIS2_PLACEMENT_3D('',#2129,#1701,#1702);
#1498=AXIS2_PLACEMENT_3D('',#2131,#1703,#1704);
#1499=AXIS2_PLACEMENT_3D('',#2133,#1705,#1706);
#1500=AXIS2_PLACEMENT_3D('',#2135,#1707,#1708);
#1501=AXIS2_PLACEMENT_3D('',#2137,#1709,#1710);
#1502=AXIS2_PLACEMENT_3D('',#2139,#1711,#1712);
#1503=AXIS2_PLACEMENT_3D('',#2141,#1713,#1714);
#1504=AXIS2_PLACEMENT_3D('',#2143,#1715,#1716);
#1505=AXIS2_PLACEMENT_3D('',#2145,#1717,#1718);
#1506=AXIS2_PLACEMENT_3D('',#2147,#1719,#1720);
#1507=AXIS2_PLACEMENT_3D('',#2149,#1721,#1722);
#1508=AXIS2_PLACEMENT_3D('',#2151,#1723,#1724);
#1509=AXIS2_PLACEMENT_3D('',#2153,#1725,#1726);
#1510=AXIS2_PLACEMENT_3D('',#2155,#1727,#1728);
#1511=AXIS2_PLACEMENT_3D('',#2157,#1729,#1730);
#1512=AXIS2_PLACEMENT_3D('',#2159,#1731,#1732);
#1513=AXIS2_PLACEMENT_3D('',#2161,#1733,#1734);
#1514=AXIS2_PLACEMENT_3D('',#2163,#1735,#1736);
#1515=AXIS2_PLACEMENT_3D('',#2165,#1737,#1738);
#1516=AXIS2_PLACEMENT_3D('',#2167,#1739,#1740);
#1517=AXIS2_PLACEMENT_3D('',#2169,#1741,#1742);
#1518=AXIS2_PLACEMENT_3D('',#2171,#1743,#1744);
#1519=AXIS2_PLACEMENT_3D('',#2173,#1745,#1746);
#1520=AXIS2_PLACEMENT_3D('',#2175,#1747,#1748);
#1521=AXIS2_PLACEMENT_3D('',#2177,#1749,#1750);
#1522=AXIS2_PLACEMENT_3D('',#2179,#1751,#1752);
#1523=AXIS2_PLACEMENT_3D('',#2181,#1753,#1754);
#1524=AXIS2_PLACEMENT_3D('',#2183,#1755,#1756);
#1525=AXIS2_PLACEMENT_3D('',#2185,#1757,#1758);
#1526=AXIS2_PLACEMENT_3D('',#2187,#1759,#1760);
#1527=AXIS2_PLACEMENT_3D('',#2189,#1761,#1762);
#1528=AXIS2_PLACEMENT_3D('',#2191,#1763,#1764);
#1529=AXIS2_PLACEMENT_3D('',#2193,#1765,#1766);
#1530=AXIS2_PLACEMENT_3D('',#2195,#1767,#1768);
#1531=AXIS2_PLACEMENT_3D('',#2197,#1769,#1770);
#1532=AXIS2_PLACEMENT_3D('',#2199,#1771,#1772);
#1533=AXIS2_PLACEMENT_3D('',#2201,#1773,#1774);
#1534=AXIS2_PLACEMENT_3D('',#2203,#1775,#1776);
#1535=AXIS2_PLACEMENT_3D('',#2205,#1777,#1778);
#1536=AXIS2_PLACEMENT_3D('',#2207,#1779,#1780);
#1537=AXIS2_PLACEMENT_3D('',#2209,#1781,#1782);
#1538=AXIS2_PLACEMENT_3D('',#2211,#1783,#1784);
#1539=AXIS2_PLACEMENT_3D('',#2213,#1785,#1786);
#1540=AXIS2_PLACEMENT_3D('',#2215,#1787,#1788);
#1541=AXIS2_PLACEMENT_3D('',#2217,#1789,#1790);
#1542=AXIS2_PLACEMENT_3D('',#2219,#1791,#1792);
#1543=AXIS2_PLACEMENT_3D('',#2221,#1793,#1794);
#1544=AXIS2_PLACEMENT_3D('',#2223,#1795,#1796);
#1545=AXIS2_PLACEMENT_3D('',#2225,#1797,#1798);
#1546=AXIS2_PLACEMENT_3D('',#2227,#1799,#1800);
#1547=AXIS2_PLACEMENT_3D('',#2236,#1804,#1805);
#1548=AXIS2_PLACEMENT_3D('',#2244,#1809,#1810);
#1549=AXIS2_PLACEMENT_3D('',#2252,#1814,#1815);
#1550=AXIS2_PLACEMENT_3D('',#2259,#1819,#1820);
#1551=AXIS2_PLACEMENT_3D('',#2260,#1821,#1822);
#1552=AXIS2_PLACEMENT_3D('',#2262,#1823,#1824);
#1553=AXIS2_PLACEMENT_3D('',#2264,#1825,#1826);
#1554=AXIS2_PLACEMENT_3D('',#2266,#1827,#1828);
#1555=AXIS2_PLACEMENT_3D('',#2268,#1829,#1830);
#1556=AXIS2_PLACEMENT_3D('',#2270,#1831,#1832);
#1557=AXIS2_PLACEMENT_3D('',#2272,#1833,#1834);
#1558=AXIS2_PLACEMENT_3D('',#2274,#1835,#1836);
#1559=AXIS2_PLACEMENT_3D('',#2276,#1837,#1838);
#1560=AXIS2_PLACEMENT_3D('',#2278,#1839,#1840);
#1561=AXIS2_PLACEMENT_3D('',#2280,#1841,#1842);
#1562=AXIS2_PLACEMENT_3D('',#2282,#1843,#1844);
#1563=AXIS2_PLACEMENT_3D('',#2284,#1845,#1846);
#1564=AXIS2_PLACEMENT_3D('',#2286,#1847,#1848);
#1565=AXIS2_PLACEMENT_3D('',#2288,#1849,#1850);
#1566=AXIS2_PLACEMENT_3D('',#2290,#1851,#1852);
#1567=AXIS2_PLACEMENT_3D('',#2292,#1853,#1854);
#1568=AXIS2_PLACEMENT_3D('',#2294,#1855,#1856);
#1569=AXIS2_PLACEMENT_3D('',#2296,#1857,#1858);
#1570=AXIS2_PLACEMENT_3D('',#2298,#1859,#1860);
#1571=AXIS2_PLACEMENT_3D('',#2300,#1861,#1862);
#1572=AXIS2_PLACEMENT_3D('',#2302,#1863,#1864);
#1573=AXIS2_PLACEMENT_3D('',#2304,#1865,#1866);
#1574=AXIS2_PLACEMENT_3D('',#2306,#1867,#1868);
#1575=AXIS2_PLACEMENT_3D('',#2308,#1869,#1870);
#1576=AXIS2_PLACEMENT_3D('',#2310,#1871,#1872);
#1577=AXIS2_PLACEMENT_3D('',#2312,#1873,#1874);
#1578=AXIS2_PLACEMENT_3D('',#2314,#1875,#1876);
#1579=AXIS2_PLACEMENT_3D('',#2316,#1877,#1878);
#1580=AXIS2_PLACEMENT_3D('',#2318,#1879,#1880);
#1581=AXIS2_PLACEMENT_3D('',#2320,#1881,#1882);
#1582=AXIS2_PLACEMENT_3D('',#2322,#1883,#1884);
#1583=AXIS2_PLACEMENT_3D('',#2324,#1885,#1886);
#1584=AXIS2_PLACEMENT_3D('',#2326,#1887,#1888);
#1585=AXIS2_PLACEMENT_3D('',#2328,#1889,#1890);
#1586=AXIS2_PLACEMENT_3D('',#2330,#1891,#1892);
#1587=AXIS2_PLACEMENT_3D('',#2332,#1893,#1894);
#1588=AXIS2_PLACEMENT_3D('',#2334,#1895,#1896);
#1589=AXIS2_PLACEMENT_3D('',#2336,#1897,#1898);
#1590=AXIS2_PLACEMENT_3D('',#2338,#1899,#1900);
#1591=AXIS2_PLACEMENT_3D('',#2340,#1901,#1902);
#1592=AXIS2_PLACEMENT_3D('',#2342,#1903,#1904);
#1593=AXIS2_PLACEMENT_3D('',#2344,#1905,#1906);
#1594=AXIS2_PLACEMENT_3D('',#2346,#1907,#1908);
#1595=AXIS2_PLACEMENT_3D('',#2348,#1909,#1910);
#1596=AXIS2_PLACEMENT_3D('',#2350,#1911,#1912);
#1597=AXIS2_PLACEMENT_3D('',#2352,#1913,#1914);
#1598=AXIS2_PLACEMENT_3D('',#2354,#1915,#1916);
#1599=AXIS2_PLACEMENT_3D('',#2356,#1917,#1918);
#1600=AXIS2_PLACEMENT_3D('',#2358,#1919,#1920);
#1601=AXIS2_PLACEMENT_3D('',#2360,#1921,#1922);
#1602=AXIS2_PLACEMENT_3D('',#2362,#1923,#1924);
#1603=AXIS2_PLACEMENT_3D('',#2364,#1925,#1926);
#1604=AXIS2_PLACEMENT_3D('',#2366,#1927,#1928);
#1605=AXIS2_PLACEMENT_3D('',#2368,#1929,#1930);
#1606=AXIS2_PLACEMENT_3D('',#2370,#1931,#1932);
#1607=AXIS2_PLACEMENT_3D('',#2372,#1933,#1934);
#1608=AXIS2_PLACEMENT_3D('',#2381,#1938,#1939);
#1609=AXIS2_PLACEMENT_3D('',#2389,#1943,#1944);
#1610=AXIS2_PLACEMENT_3D('',#2397,#1948,#1949);
#1611=AXIS2_PLACEMENT_3D('',#2404,#1953,#1954);
#1612=AXIS2_PLACEMENT_3D('',#2407,#1957,#1958);
#1613=AXIS2_PLACEMENT_3D('',#2409,#1960,#1961);
#1614=AXIS2_PLACEMENT_3D('',#2411,#1963,#1964);
#1615=AXIS2_PLACEMENT_3D('',#2413,#1966,#1967);
#1616=AXIS2_PLACEMENT_3D('',#2415,#1969,#1970);
#1617=AXIS2_PLACEMENT_3D('',#2417,#1972,#1973);
#1618=AXIS2_PLACEMENT_3D('',#2419,#1975,#1976);
#1619=AXIS2_PLACEMENT_3D('',#2421,#1978,#1979);
#1620=AXIS2_PLACEMENT_3D('',#2423,#1981,#1982);
#1621=AXIS2_PLACEMENT_3D('',#2425,#1984,#1985);
#1622=AXIS2_PLACEMENT_3D('',#2427,#1987,#1988);
#1623=AXIS2_PLACEMENT_3D('',#2429,#1990,#1991);
#1624=AXIS2_PLACEMENT_3D('',#2431,#1993,#1994);
#1625=AXIS2_PLACEMENT_3D('',#2433,#1996,#1997);
#1626=AXIS2_PLACEMENT_3D('',#2435,#1999,#2000);
#1627=AXIS2_PLACEMENT_3D('',#2436,#2001,#2002);
#1628=AXIS2_PLACEMENT_3D('',#2437,#2003,#2004);
#1629=AXIS2_PLACEMENT_3D('',#2438,#2005,#2006);
#1630=AXIS2_PLACEMENT_3D('',#2439,#2007,#2008);
#1631=AXIS2_PLACEMENT_3D('',#2440,#2009,#2010);
#1632=AXIS2_PLACEMENT_3D('',#2441,#2011,#2012);
#1633=AXIS2_PLACEMENT_3D('',#2442,#2013,#2014);
#1634=AXIS2_PLACEMENT_3D('',#2443,#2015,#2016);
#1635=AXIS2_PLACEMENT_3D('',#2444,#2017,#2018);
#1636=AXIS2_PLACEMENT_3D('',#2445,#2019,#2020);
#1637=AXIS2_PLACEMENT_3D('',#2446,#2021,#2022);
#1638=AXIS2_PLACEMENT_3D('',#2447,#2023,#2024);
#1639=AXIS2_PLACEMENT_3D('',#2448,#2025,#2026);
#1640=AXIS2_PLACEMENT_3D('',#2449,#2027,#2028);
#1641=AXIS2_PLACEMENT_3D('',#2450,#2029,#2030);
#1642=AXIS2_PLACEMENT_3D('',#2451,#2031,#2032);
#1643=AXIS2_PLACEMENT_3D('',#2452,#2033,#2034);
#1644=AXIS2_PLACEMENT_3D('',#2453,#2035,#2036);
#1645=AXIS2_PLACEMENT_3D('',#2454,#2037,#2038);
#1646=AXIS2_PLACEMENT_3D('',#2455,#2039,#2040);
#1647=AXIS2_PLACEMENT_3D('',#2456,#2041,#2042);
#1648=AXIS2_PLACEMENT_3D('',#2457,#2043,#2044);
#1649=AXIS2_PLACEMENT_3D('',#2458,#2045,#2046);
#1650=AXIS2_PLACEMENT_3D('',#2459,#2047,#2048);
#1651=AXIS2_PLACEMENT_3D('',#2460,#2049,#2050);
#1652=AXIS2_PLACEMENT_3D('',#2461,#2051,#2052);
#1653=AXIS2_PLACEMENT_3D('',#2462,#2053,#2054);
#1654=AXIS2_PLACEMENT_3D('',#2463,#2055,#2056);
#1655=AXIS2_PLACEMENT_3D('',#2464,#2057,#2058);
#1656=AXIS2_PLACEMENT_3D('',#2465,#2059,#2060);
#1657=AXIS2_PLACEMENT_3D('',#2466,#2061,#2062);
#1658=AXIS2_PLACEMENT_3D('',#2467,#2063,#2064);
#1659=AXIS2_PLACEMENT_3D('',#2468,#2065,#2066);
#1660=AXIS2_PLACEMENT_3D('',#2469,#2067,#2068);
#1661=AXIS2_PLACEMENT_3D('',#2470,#2069,#2070);
#1662=AXIS2_PLACEMENT_3D('',#2471,#2071,#2072);
#1663=AXIS2_PLACEMENT_3D('',#2472,#2073,#2074);
#1664=AXIS2_PLACEMENT_3D('',#2473,#2075,#2076);
#1665=AXIS2_PLACEMENT_3D('',#2474,#2077,#2078);
#1666=AXIS2_PLACEMENT_3D('',#2475,#2079,#2080);
#1667=AXIS2_PLACEMENT_3D('',#2476,#2081,#2082);
#1668=AXIS2_PLACEMENT_3D('',#2477,#2083,#2084);
#1669=AXIS2_PLACEMENT_3D('',#2478,#2085,#2086);
#1670=AXIS2_PLACEMENT_3D('',#2479,#2087,#2088);
#1671=AXIS2_PLACEMENT_3D('',#2480,#2089,#2090);
#1672=AXIS2_PLACEMENT_3D('',#2481,#2091,#2092);
#1673=AXIS2_PLACEMENT_3D('',#2482,#2093,#2094);
#1674=AXIS2_PLACEMENT_3D('',#2483,#2095,#2096);
#1675=AXIS2_PLACEMENT_3D('',#2484,#2097,#2098);
#1676=AXIS2_PLACEMENT_3D('',#2485,#2099,#2100);
#1677=AXIS2_PLACEMENT_3D('',#2486,#2101,#2102);
#1678=AXIS2_PLACEMENT_3D('',#2487,#2103,#2104);
#1679=AXIS2_PLACEMENT_3D('',#2488,#2105,#2106);
#1680=AXIS2_PLACEMENT_3D('',#2489,#2107,#2108);
#1681=AXIS2_PLACEMENT_3D('',#2490,#2109,#2110);
#1682=AXIS2_PLACEMENT_3D('',#2491,#2111,#2112);
#1683=DIRECTION('',(0.,0.,1.));
#1684=DIRECTION('',(1.,0.,0.));
#1685=DIRECTION('',(0.,0.,1.));
#1686=DIRECTION('',(1.,0.,0.));
#1687=DIRECTION('',(0.,0.,-1.));
#1688=DIRECTION('',(1.,0.,0.));
#1689=DIRECTION('',(0.,0.,-1.));
#1690=DIRECTION('',(1.,0.,0.));
#1691=DIRECTION('',(0.,0.,-1.));
#1692=DIRECTION('',(1.,0.,0.));
#1693=DIRECTION('',(0.,0.,-1.));
#1694=DIRECTION('',(1.,0.,0.));
#1695=DIRECTION('',(0.,0.,-1.));
#1696=DIRECTION('',(1.,0.,0.));
#1697=DIRECTION('',(0.,0.,-1.));
#1698=DIRECTION('',(1.,0.,0.));
#1699=DIRECTION('',(0.,0.,-1.));
#1700=DIRECTION('',(1.,0.,0.));
#1701=DIRECTION('',(0.,0.,-1.));
#1702=DIRECTION('',(1.,0.,0.));
#1703=DIRECTION('',(0.,0.,-1.));
#1704=DIRECTION('',(1.,0.,0.));
#1705=DIRECTION('',(0.,0.,-1.));
#1706=DIRECTION('',(1.,0.,0.));
#1707=DIRECTION('',(0.,0.,-1.));
#1708=DIRECTION('',(1.,0.,0.));
#1709=DIRECTION('',(0.,0.,-1.));
#1710=DIRECTION('',(1.,0.,0.));
#1711=DIRECTION('',(0.,0.,-1.));
#1712=DIRECTION('',(1.,0.,0.));
#1713=DIRECTION('',(0.,0.,-1.));
#1714=DIRECTION('',(1.,0.,0.));
#1715=DIRECTION('',(0.,0.,-1.));
#1716=DIRECTION('',(1.,0.,0.));
#1717=DIRECTION('',(0.,0.,-1.));
#1718=DIRECTION('',(1.,0.,0.));
#1719=DIRECTION('',(0.,0.,-1.));
#1720=DIRECTION('',(1.,0.,0.));
#1721=DIRECTION('',(0.,0.,-1.));
#1722=DIRECTION('',(1.,0.,0.));
#1723=DIRECTION('',(0.,0.,-1.));
#1724=DIRECTION('',(1.,0.,0.));
#1725=DIRECTION('',(0.,0.,-1.));
#1726=DIRECTION('',(1.,0.,0.));
#1727=DIRECTION('',(0.,0.,-1.));
#1728=DIRECTION('',(1.,0.,0.));
#1729=DIRECTION('',(0.,0.,-1.));
#1730=DIRECTION('',(1.,0.,0.));
#1731=DIRECTION('',(0.,0.,-1.));
#1732=DIRECTION('',(1.,0.,0.));
#1733=DIRECTION('',(0.,0.,-1.));
#1734=DIRECTION('',(1.,0.,0.));
#1735=DIRECTION('',(0.,0.,-1.));
#1736=DIRECTION('',(1.,0.,0.));
#1737=DIRECTION('',(0.,0.,-1.));
#1738=DIRECTION('',(1.,0.,0.));
#1739=DIRECTION('',(0.,0.,-1.));
#1740=DIRECTION('',(1.,0.,0.));
#1741=DIRECTION('',(0.,0.,-1.));
#1742=DIRECTION('',(1.,0.,0.));
#1743=DIRECTION('',(0.,0.,-1.));
#1744=DIRECTION('',(1.,0.,0.));
#1745=DIRECTION('',(0.,0.,-1.));
#1746=DIRECTION('',(1.,0.,0.));
#1747=DIRECTION('',(0.,0.,-1.));
#1748=DIRECTION('',(1.,0.,0.));
#1749=DIRECTION('',(0.,0.,-1.));
#1750=DIRECTION('',(1.,0.,0.));
#1751=DIRECTION('',(0.,0.,-1.));
#1752=DIRECTION('',(1.,0.,0.));
#1753=DIRECTION('',(0.,0.,-1.));
#1754=DIRECTION('',(1.,0.,0.));
#1755=DIRECTION('',(0.,0.,-1.));
#1756=DIRECTION('',(1.,0.,0.));
#1757=DIRECTION('',(0.,0.,-1.));
#1758=DIRECTION('',(1.,0.,0.));
#1759=DIRECTION('',(0.,0.,-1.));
#1760=DIRECTION('',(1.,0.,0.));
#1761=DIRECTION('',(0.,0.,-1.));
#1762=DIRECTION('',(1.,0.,0.));
#1763=DIRECTION('',(0.,0.,-1.));
#1764=DIRECTION('',(1.,0.,0.));
#1765=DIRECTION('',(0.,0.,-1.));
#1766=DIRECTION('',(1.,0.,0.));
#1767=DIRECTION('',(0.,0.,-1.));
#1768=DIRECTION('',(1.,0.,0.));
#1769=DIRECTION('',(0.,0.,-1.));
#1770=DIRECTION('',(1.,0.,0.));
#1771=DIRECTION('',(0.,0.,-1.));
#1772=DIRECTION('',(1.,0.,0.));
#1773=DIRECTION('',(0.,0.,-1.));
#1774=DIRECTION('',(1.,0.,0.));
#1775=DIRECTION('',(0.,0.,-1.));
#1776=DIRECTION('',(1.,0.,0.));
#1777=DIRECTION('',(0.,0.,-1.));
#1778=DIRECTION('',(1.,0.,0.));
#1779=DIRECTION('',(0.,0.,-1.));
#1780=DIRECTION('',(1.,0.,0.));
#1781=DIRECTION('',(0.,0.,-1.));
#1782=DIRECTION('',(1.,0.,0.));
#1783=DIRECTION('',(0.,0.,-1.));
#1784=DIRECTION('',(1.,0.,0.));
#1785=DIRECTION('',(0.,0.,-1.));
#1786=DIRECTION('',(1.,0.,0.));
#1787=DIRECTION('',(0.,0.,1.));
#1788=DIRECTION('',(1.,0.,0.));
#1789=DIRECTION('',(0.,0.,1.));
#1790=DIRECTION('',(1.,0.,0.));
#1791=DIRECTION('',(0.,0.,1.));
#1792=DIRECTION('',(1.,0.,0.));
#1793=DIRECTION('',(0.,0.,1.));
#1794=DIRECTION('',(1.,0.,0.));
#1795=DIRECTION('',(0.,0.,1.));
#1796=DIRECTION('',(1.,0.,0.));
#1797=DIRECTION('',(0.,0.,1.));
#1798=DIRECTION('',(1.,0.,0.));
#1799=DIRECTION('',(0.,0.,1.));
#1800=DIRECTION('',(-1.,0.,0.));
#1801=DIRECTION('',(-1.,0.,0.));
#1802=DIRECTION('',(-3.56698160522139E-16,1.,0.));
#1803=DIRECTION('',(1.,0.,0.));
#1804=DIRECTION('',(0.,0.,1.));
#1805=DIRECTION('',(1.77635683940025E-13,1.,0.));
#1806=DIRECTION('',(1.77635683940029E-13,1.,0.));
#1807=DIRECTION('',(1.,0.,0.));
#1808=DIRECTION('',(0.,-1.,0.));
#1809=DIRECTION('',(0.,0.,1.));
#1810=DIRECTION('',(1.,0.,0.));
#1811=DIRECTION('',(1.,0.,0.));
#1812=DIRECTION('',(0.,-1.,0.));
#1813=DIRECTION('',(-1.,0.,0.));
#1814=DIRECTION('',(0.,0.,1.));
#1815=DIRECTION('',(0.,-1.,0.));
#1816=DIRECTION('',(0.,-1.,0.));
#1817=DIRECTION('',(-1.,1.12712997423874E-16,0.));
#1818=DIRECTION('',(0.,1.,0.));
#1819=DIRECTION('',(0.,0.,1.));
#1820=DIRECTION('',(1.,0.,0.));
#1821=DIRECTION('',(0.,0.,-1.));
#1822=DIRECTION('',(1.,0.,0.));
#1823=DIRECTION('',(0.,0.,-1.));
#1824=DIRECTION('',(1.,0.,0.));
#1825=DIRECTION('',(0.,0.,-1.));
#1826=DIRECTION('',(1.,0.,0.));
#1827=DIRECTION('',(0.,0.,-1.));
#1828=DIRECTION('',(1.,0.,0.));
#1829=DIRECTION('',(0.,0.,-1.));
#1830=DIRECTION('',(1.,0.,0.));
#1831=DIRECTION('',(0.,0.,-1.));
#1832=DIRECTION('',(1.,0.,0.));
#1833=DIRECTION('',(0.,0.,-1.));
#1834=DIRECTION('',(1.,0.,0.));
#1835=DIRECTION('',(0.,0.,-1.));
#1836=DIRECTION('',(1.,0.,0.));
#1837=DIRECTION('',(0.,0.,-1.));
#1838=DIRECTION('',(1.,0.,0.));
#1839=DIRECTION('',(0.,0.,-1.));
#1840=DIRECTION('',(1.,0.,0.));
#1841=DIRECTION('',(0.,0.,-1.));
#1842=DIRECTION('',(1.,0.,0.));
#1843=DIRECTION('',(0.,0.,-1.));
#1844=DIRECTION('',(1.,0.,0.));
#1845=DIRECTION('',(0.,0.,-1.));
#1846=DIRECTION('',(1.,0.,0.));
#1847=DIRECTION('',(0.,0.,-1.));
#1848=DIRECTION('',(1.,0.,0.));
#1849=DIRECTION('',(0.,0.,-1.));
#1850=DIRECTION('',(1.,0.,0.));
#1851=DIRECTION('',(0.,0.,-1.));
#1852=DIRECTION('',(1.,0.,0.));
#1853=DIRECTION('',(0.,0.,-1.));
#1854=DIRECTION('',(1.,0.,0.));
#1855=DIRECTION('',(0.,0.,-1.));
#1856=DIRECTION('',(1.,0.,0.));
#1857=DIRECTION('',(0.,0.,-1.));
#1858=DIRECTION('',(1.,0.,0.));
#1859=DIRECTION('',(0.,0.,-1.));
#1860=DIRECTION('',(1.,0.,0.));
#1861=DIRECTION('',(0.,0.,-1.));
#1862=DIRECTION('',(1.,0.,0.));
#1863=DIRECTION('',(0.,0.,-1.));
#1864=DIRECTION('',(1.,0.,0.));
#1865=DIRECTION('',(0.,0.,-1.));
#1866=DIRECTION('',(1.,0.,0.));
#1867=DIRECTION('',(0.,0.,-1.));
#1868=DIRECTION('',(1.,0.,0.));
#1869=DIRECTION('',(0.,0.,-1.));
#1870=DIRECTION('',(1.,0.,0.));
#1871=DIRECTION('',(0.,0.,-1.));
#1872=DIRECTION('',(1.,0.,0.));
#1873=DIRECTION('',(0.,0.,-1.));
#1874=DIRECTION('',(1.,0.,0.));
#1875=DIRECTION('',(0.,0.,-1.));
#1876=DIRECTION('',(1.,0.,0.));
#1877=DIRECTION('',(0.,0.,-1.));
#1878=DIRECTION('',(1.,0.,0.));
#1879=DIRECTION('',(0.,0.,-1.));
#1880=DIRECTION('',(1.,0.,0.));
#1881=DIRECTION('',(0.,0.,-1.));
#1882=DIRECTION('',(1.,0.,0.));
#1883=DIRECTION('',(0.,0.,-1.));
#1884=DIRECTION('',(1.,0.,0.));
#1885=DIRECTION('',(0.,0.,-1.));
#1886=DIRECTION('',(1.,0.,0.));
#1887=DIRECTION('',(0.,0.,-1.));
#1888=DIRECTION('',(1.,0.,0.));
#1889=DIRECTION('',(0.,0.,-1.));
#1890=DIRECTION('',(1.,0.,0.));
#1891=DIRECTION('',(0.,0.,-1.));
#1892=DIRECTION('',(1.,0.,0.));
#1893=DIRECTION('',(0.,0.,-1.));
#1894=DIRECTION('',(1.,0.,0.));
#1895=DIRECTION('',(0.,0.,-1.));
#1896=DIRECTION('',(1.,0.,0.));
#1897=DIRECTION('',(0.,0.,-1.));
#1898=DIRECTION('',(1.,0.,0.));
#1899=DIRECTION('',(0.,0.,-1.));
#1900=DIRECTION('',(1.,0.,0.));
#1901=DIRECTION('',(0.,0.,-1.));
#1902=DIRECTION('',(1.,0.,0.));
#1903=DIRECTION('',(0.,0.,-1.));
#1904=DIRECTION('',(1.,0.,0.));
#1905=DIRECTION('',(0.,0.,-1.));
#1906=DIRECTION('',(1.,0.,0.));
#1907=DIRECTION('',(0.,0.,-1.));
#1908=DIRECTION('',(1.,0.,0.));
#1909=DIRECTION('',(0.,0.,-1.));
#1910=DIRECTION('',(1.,0.,0.));
#1911=DIRECTION('',(0.,0.,-1.));
#1912=DIRECTION('',(1.,0.,0.));
#1913=DIRECTION('',(0.,0.,-1.));
#1914=DIRECTION('',(1.,0.,0.));
#1915=DIRECTION('',(0.,0.,-1.));
#1916=DIRECTION('',(1.,0.,0.));
#1917=DIRECTION('',(0.,0.,-1.));
#1918=DIRECTION('',(1.,0.,0.));
#1919=DIRECTION('',(0.,0.,-1.));
#1920=DIRECTION('',(1.,0.,0.));
#1921=DIRECTION('',(0.,0.,-1.));
#1922=DIRECTION('',(1.,0.,0.));
#1923=DIRECTION('',(0.,0.,-1.));
#1924=DIRECTION('',(1.,0.,0.));
#1925=DIRECTION('',(0.,0.,-1.));
#1926=DIRECTION('',(1.,0.,0.));
#1927=DIRECTION('',(0.,0.,-1.));
#1928=DIRECTION('',(1.,0.,0.));
#1929=DIRECTION('',(0.,0.,-1.));
#1930=DIRECTION('',(1.,0.,0.));
#1931=DIRECTION('',(0.,0.,-1.));
#1932=DIRECTION('',(1.,0.,0.));
#1933=DIRECTION('',(0.,0.,1.));
#1934=DIRECTION('',(-1.,0.,0.));
#1935=DIRECTION('',(0.,-1.,0.));
#1936=DIRECTION('',(1.,-1.12712997423874E-16,0.));
#1937=DIRECTION('',(0.,1.,0.));
#1938=DIRECTION('',(0.,0.,1.));
#1939=DIRECTION('',(0.,-1.,0.));
#1940=DIRECTION('',(1.,0.,0.));
#1941=DIRECTION('',(0.,1.,0.));
#1942=DIRECTION('',(-1.,0.,0.));
#1943=DIRECTION('',(0.,0.,1.));
#1944=DIRECTION('',(1.,0.,0.));
#1945=DIRECTION('',(0.,1.,0.));
#1946=DIRECTION('',(-1.,0.,0.));
#1947=DIRECTION('',(-1.77635683940029E-13,-1.,0.));
#1948=DIRECTION('',(0.,0.,1.));
#1949=DIRECTION('',(1.77635683940025E-13,1.,0.));
#1950=DIRECTION('',(-1.,0.,0.));
#1951=DIRECTION('',(3.56698160522139E-16,-1.,0.));
#1952=DIRECTION('',(1.,0.,0.));
#1953=DIRECTION('',(0.,0.,1.));
#1954=DIRECTION('',(-1.,0.,0.));
#1955=DIRECTION('',(0.,0.,1.));
#1956=DIRECTION('',(0.,0.,1.));
#1957=DIRECTION('',(-1.,0.,0.));
#1958=DIRECTION('',(0.,-1.,0.));
#1959=DIRECTION('',(0.,0.,1.));
#1960=DIRECTION('',(-1.12712997423874E-16,-1.,0.));
#1961=DIRECTION('',(1.,-1.12712997423874E-16,0.));
#1962=DIRECTION('',(0.,0.,1.));
#1963=DIRECTION('',(1.,0.,0.));
#1964=DIRECTION('',(0.,1.,0.));
#1965=DIRECTION('',(0.,0.,1.));
#1966=DIRECTION('',(0.,0.,1.));
#1967=DIRECTION('',(0.,-1.,0.));
#1968=DIRECTION('',(0.,0.,1.));
#1969=DIRECTION('',(0.,-1.,0.));
#1970=DIRECTION('',(1.,0.,0.));
#1971=DIRECTION('',(0.,0.,1.));
#1972=DIRECTION('',(1.,0.,0.));
#1973=DIRECTION('',(0.,1.,0.));
#1974=DIRECTION('',(0.,0.,1.));
#1975=DIRECTION('',(0.,1.,0.));
#1976=DIRECTION('',(-1.,0.,0.));
#1977=DIRECTION('',(0.,0.,1.));
#1978=DIRECTION('',(0.,0.,1.));
#1979=DIRECTION('',(1.,0.,0.));
#1980=DIRECTION('',(0.,0.,1.));
#1981=DIRECTION('',(1.,0.,0.));
#1982=DIRECTION('',(0.,1.,0.));
#1983=DIRECTION('',(0.,0.,1.));
#1984=DIRECTION('',(0.,1.,0.));
#1985=DIRECTION('',(-1.,0.,0.));
#1986=DIRECTION('',(0.,0.,1.));
#1987=DIRECTION('',(-1.,1.77635683940029E-13,0.));
#1988=DIRECTION('',(-1.77635683940029E-13,-1.,0.));
#1989=DIRECTION('',(0.,0.,1.));
#1990=DIRECTION('',(0.,0.,1.));
#1991=DIRECTION('',(1.77635683940025E-13,1.,0.));
#1992=DIRECTION('',(0.,0.,1.));
#1993=DIRECTION('',(0.,1.,0.));
#1994=DIRECTION('',(-1.,0.,0.));
#1995=DIRECTION('',(0.,0.,1.));
#1996=DIRECTION('',(-1.,-3.56698160522139E-16,0.));
#1997=DIRECTION('',(3.56698160522139E-16,-1.,0.));
#1998=DIRECTION('',(0.,0.,1.));
#1999=DIRECTION('',(0.,-1.,0.));
#2000=DIRECTION('',(1.,0.,0.));
#2001=DIRECTION('',(0.,0.,1.));
#2002=DIRECTION('',(1.,0.,0.));
#2003=DIRECTION('',(0.,0.,1.));
#2004=DIRECTION('',(1.,0.,0.));
#2005=DIRECTION('',(0.,0.,1.));
#2006=DIRECTION('',(1.,0.,0.));
#2007=DIRECTION('',(0.,0.,1.));
#2008=DIRECTION('',(1.,0.,0.));
#2009=DIRECTION('',(0.,0.,1.));
#2010=DIRECTION('',(1.,0.,0.));
#2011=DIRECTION('',(0.,0.,1.));
#2012=DIRECTION('',(1.,0.,0.));
#2013=DIRECTION('',(0.,0.,1.));
#2014=DIRECTION('',(1.,0.,0.));
#2015=DIRECTION('',(0.,0.,1.));
#2016=DIRECTION('',(1.,0.,0.));
#2017=DIRECTION('',(0.,0.,1.));
#2018=DIRECTION('',(1.,0.,0.));
#2019=DIRECTION('',(0.,0.,1.));
#2020=DIRECTION('',(1.,0.,0.));
#2021=DIRECTION('',(0.,0.,1.));
#2022=DIRECTION('',(1.,0.,0.));
#2023=DIRECTION('',(0.,0.,1.));
#2024=DIRECTION('',(1.,0.,0.));
#2025=DIRECTION('',(0.,0.,1.));
#2026=DIRECTION('',(1.,0.,0.));
#2027=DIRECTION('',(0.,0.,1.));
#2028=DIRECTION('',(1.,0.,0.));
#2029=DIRECTION('',(0.,0.,1.));
#2030=DIRECTION('',(1.,0.,0.));
#2031=DIRECTION('',(0.,0.,1.));
#2032=DIRECTION('',(1.,0.,0.));
#2033=DIRECTION('',(0.,0.,1.));
#2034=DIRECTION('',(1.,0.,0.));
#2035=DIRECTION('',(0.,0.,1.));
#2036=DIRECTION('',(1.,0.,0.));
#2037=DIRECTION('',(0.,0.,1.));
#2038=DIRECTION('',(1.,0.,0.));
#2039=DIRECTION('',(0.,0.,1.));
#2040=DIRECTION('',(1.,0.,0.));
#2041=DIRECTION('',(0.,0.,1.));
#2042=DIRECTION('',(1.,0.,0.));
#2043=DIRECTION('',(0.,0.,1.));
#2044=DIRECTION('',(1.,0.,0.));
#2045=DIRECTION('',(0.,0.,1.));
#2046=DIRECTION('',(1.,0.,0.));
#2047=DIRECTION('',(0.,0.,1.));
#2048=DIRECTION('',(1.,0.,0.));
#2049=DIRECTION('',(0.,0.,1.));
#2050=DIRECTION('',(1.,0.,0.));
#2051=DIRECTION('',(0.,0.,1.));
#2052=DIRECTION('',(1.,0.,0.));
#2053=DIRECTION('',(0.,0.,1.));
#2054=DIRECTION('',(1.,0.,0.));
#2055=DIRECTION('',(0.,0.,1.));
#2056=DIRECTION('',(1.,0.,0.));
#2057=DIRECTION('',(0.,0.,1.));
#2058=DIRECTION('',(1.,0.,0.));
#2059=DIRECTION('',(0.,0.,1.));
#2060=DIRECTION('',(1.,0.,0.));
#2061=DIRECTION('',(0.,0.,1.));
#2062=DIRECTION('',(1.,0.,0.));
#2063=DIRECTION('',(0.,0.,1.));
#2064=DIRECTION('',(1.,0.,0.));
#2065=DIRECTION('',(0.,0.,1.));
#2066=DIRECTION('',(1.,0.,0.));
#2067=DIRECTION('',(0.,0.,1.));
#2068=DIRECTION('',(1.,0.,0.));
#2069=DIRECTION('',(0.,0.,1.));
#2070=DIRECTION('',(1.,0.,0.));
#2071=DIRECTION('',(0.,0.,1.));
#2072=DIRECTION('',(1.,0.,0.));
#2073=DIRECTION('',(0.,0.,1.));
#2074=DIRECTION('',(1.,0.,0.));
#2075=DIRECTION('',(0.,0.,1.));
#2076=DIRECTION('',(1.,0.,0.));
#2077=DIRECTION('',(0.,0.,1.));
#2078=DIRECTION('',(1.,0.,0.));
#2079=DIRECTION('',(0.,0.,1.));
#2080=DIRECTION('',(1.,0.,0.));
#2081=DIRECTION('',(0.,0.,1.));
#2082=DIRECTION('',(1.,0.,0.));
#2083=DIRECTION('',(0.,0.,1.));
#2084=DIRECTION('',(1.,0.,0.));
#2085=DIRECTION('',(0.,0.,1.));
#2086=DIRECTION('',(1.,0.,0.));
#2087=DIRECTION('',(0.,0.,1.));
#2088=DIRECTION('',(1.,0.,0.));
#2089=DIRECTION('',(0.,0.,1.));
#2090=DIRECTION('',(1.,0.,0.));
#2091=DIRECTION('',(0.,0.,1.));
#2092=DIRECTION('',(1.,0.,0.));
#2093=DIRECTION('',(0.,0.,1.));
#2094=DIRECTION('',(1.,0.,0.));
#2095=DIRECTION('',(0.,0.,1.));
#2096=DIRECTION('',(1.,0.,0.));
#2097=DIRECTION('',(0.,0.,1.));
#2098=DIRECTION('',(1.,0.,0.));
#2099=DIRECTION('',(0.,0.,1.));
#2100=DIRECTION('',(1.,0.,0.));
#2101=DIRECTION('',(0.,0.,1.));
#2102=DIRECTION('',(1.,0.,0.));
#2103=DIRECTION('',(0.,0.,1.));
#2104=DIRECTION('',(1.,0.,0.));
#2105=DIRECTION('',(0.,0.,1.));
#2106=DIRECTION('',(1.,0.,0.));
#2107=DIRECTION('',(0.,0.,1.));
#2108=DIRECTION('',(1.,0.,0.));
#2109=DIRECTION('',(0.,0.,1.));
#2110=DIRECTION('',(1.,0.,0.));
#2111=DIRECTION('',(0.,0.,1.));
#2112=DIRECTION('',(1.,0.,0.));
#2113=CARTESIAN_POINT('',(0.,0.,0.));
#2114=CARTESIAN_POINT('',(-8.88178419700125E-18,0.,0.));
#2115=CARTESIAN_POINT('',(-0.00111,0.02298,0.));
#2116=CARTESIAN_POINT('',(-0.00061,0.02298,0.));
#2117=CARTESIAN_POINT('',(-0.039,0.0245,0.));
#2118=CARTESIAN_POINT('',(-0.037625,0.0245,0.));
#2119=CARTESIAN_POINT('',(0.019,0.0245,0.));
#2120=CARTESIAN_POINT('',(0.020375,0.0245,0.));
#2121=CARTESIAN_POINT('',(0.019,-0.0245,0.));
#2122=CARTESIAN_POINT('',(0.020375,-0.0245,0.));
#2123=CARTESIAN_POINT('',(-0.039,-0.0245,0.));
#2124=CARTESIAN_POINT('',(-0.037625,-0.0245,0.));
#2125=CARTESIAN_POINT('',(0.01773,0.01201,0.));
#2126=CARTESIAN_POINT('',(0.01823,0.01201,0.));
#2127=CARTESIAN_POINT('',(0.02027,0.01201,0.));
#2128=CARTESIAN_POINT('',(0.02077,0.01201,0.));
#2129=CARTESIAN_POINT('',(0.01773,0.019647,0.));
#2130=CARTESIAN_POINT('',(0.01823,0.019647,0.));
#2131=CARTESIAN_POINT('',(0.02027,0.019647,0.));
#2132=CARTESIAN_POINT('',(0.02077,0.019647,0.));
#2133=CARTESIAN_POINT('',(0.02027,0.017107,0.));
#2134=CARTESIAN_POINT('',(0.02077,0.017107,0.));
#2135=CARTESIAN_POINT('',(0.01773,0.017107,0.));
#2136=CARTESIAN_POINT('',(0.01823,0.017107,0.));
#2137=CARTESIAN_POINT('',(-0.03413,0.02298,0.));
#2138=CARTESIAN_POINT('',(-0.03363,0.02298,0.));
#2139=CARTESIAN_POINT('',(-0.03159,0.02298,0.));
#2140=CARTESIAN_POINT('',(-0.03109,0.02298,0.));
#2141=CARTESIAN_POINT('',(-0.02905,0.02298,0.));
#2142=CARTESIAN_POINT('',(-0.02855,0.02298,0.));
#2143=CARTESIAN_POINT('',(-0.02651,0.02298,0.));
#2144=CARTESIAN_POINT('',(-0.02601,0.02298,0.));
#2145=CARTESIAN_POINT('',(-0.02397,0.02298,0.));
#2146=CARTESIAN_POINT('',(-0.02347,0.02298,0.));
#2147=CARTESIAN_POINT('',(-0.02143,0.02298,0.));
#2148=CARTESIAN_POINT('',(-0.02093,0.02298,0.));
#2149=CARTESIAN_POINT('',(-0.01889,0.02298,0.));
#2150=CARTESIAN_POINT('',(-0.01839,0.02298,0.));
#2151=CARTESIAN_POINT('',(-0.01635,0.02298,0.));
#2152=CARTESIAN_POINT('',(-0.01585,0.02298,0.));
#2153=CARTESIAN_POINT('',(-0.01381,0.02298,0.));
#2154=CARTESIAN_POINT('',(-0.01331,0.02298,0.));
#2155=CARTESIAN_POINT('',(-0.01127,0.02298,0.));
#2156=CARTESIAN_POINT('',(-0.01077,0.02298,0.));
#2157=CARTESIAN_POINT('',(-0.00873,0.02298,0.));
#2158=CARTESIAN_POINT('',(-0.00823,0.02298,0.));
#2159=CARTESIAN_POINT('',(-0.02143,0.02552,0.));
#2160=CARTESIAN_POINT('',(-0.02093,0.02552,0.));
#2161=CARTESIAN_POINT('',(-0.02397,0.02552,0.));
#2162=CARTESIAN_POINT('',(-0.02347,0.02552,0.));
#2163=CARTESIAN_POINT('',(-0.02651,0.02552,0.));
#2164=CARTESIAN_POINT('',(-0.02601,0.02552,0.));
#2165=CARTESIAN_POINT('',(-0.02905,0.02552,0.));
#2166=CARTESIAN_POINT('',(-0.02855,0.02552,0.));
#2167=CARTESIAN_POINT('',(-0.03159,0.02552,0.));
#2168=CARTESIAN_POINT('',(-0.03109,0.02552,0.));
#2169=CARTESIAN_POINT('',(-0.03413,0.02552,0.));
#2170=CARTESIAN_POINT('',(-0.03363,0.02552,0.));
#2171=CARTESIAN_POINT('',(0.01413,0.02298,0.));
#2172=CARTESIAN_POINT('',(0.01463,0.02298,0.));
#2173=CARTESIAN_POINT('',(0.01159,0.02298,0.));
#2174=CARTESIAN_POINT('',(0.01209,0.02298,0.));
#2175=CARTESIAN_POINT('',(0.00905,0.02298,0.));
#2176=CARTESIAN_POINT('',(0.00955,0.02298,0.));
#2177=CARTESIAN_POINT('',(0.00651,0.02298,0.));
#2178=CARTESIAN_POINT('',(0.00701,0.02298,0.));
#2179=CARTESIAN_POINT('',(0.00397,0.02298,0.));
#2180=CARTESIAN_POINT('',(0.00447,0.02298,0.));
#2181=CARTESIAN_POINT('',(0.00143,0.02298,0.));
#2182=CARTESIAN_POINT('',(0.00193,0.02298,0.));
#2183=CARTESIAN_POINT('',(-0.00365,0.02298,0.));
#2184=CARTESIAN_POINT('',(-0.00315,0.02298,0.));
#2185=CARTESIAN_POINT('',(-0.00619,0.02298,0.));
#2186=CARTESIAN_POINT('',(-0.00569,0.02298,0.));
#2187=CARTESIAN_POINT('',(0.01413,0.02552,0.));
#2188=CARTESIAN_POINT('',(0.01463,0.02552,0.));
#2189=CARTESIAN_POINT('',(0.01159,0.02552,0.));
#2190=CARTESIAN_POINT('',(0.01209,0.02552,0.));
#2191=CARTESIAN_POINT('',(0.00905,0.02552,0.));
#2192=CARTESIAN_POINT('',(0.00955,0.02552,0.));
#2193=CARTESIAN_POINT('',(0.00651,0.02552,0.));
#2194=CARTESIAN_POINT('',(0.00701,0.02552,0.));
#2195=CARTESIAN_POINT('',(0.00397,0.02552,0.));
#2196=CARTESIAN_POINT('',(0.00447,0.02552,0.));
#2197=CARTESIAN_POINT('',(0.00143,0.02552,0.));
#2198=CARTESIAN_POINT('',(0.00193,0.02552,0.));
#2199=CARTESIAN_POINT('',(-0.01889,0.02552,0.));
#2200=CARTESIAN_POINT('',(-0.01839,0.02552,0.));
#2201=CARTESIAN_POINT('',(-0.01635,0.02552,0.));
#2202=CARTESIAN_POINT('',(-0.01585,0.02552,0.));
#2203=CARTESIAN_POINT('',(-0.01381,0.02552,0.));
#2204=CARTESIAN_POINT('',(-0.01331,0.02552,0.));
#2205=CARTESIAN_POINT('',(-0.01127,0.02552,0.));
#2206=CARTESIAN_POINT('',(-0.01077,0.02552,0.));
#2207=CARTESIAN_POINT('',(-0.00873,0.02552,0.));
#2208=CARTESIAN_POINT('',(-0.00823,0.02552,0.));
#2209=CARTESIAN_POINT('',(-0.00619,0.02552,0.));
#2210=CARTESIAN_POINT('',(-0.00569,0.02552,0.));
#2211=CARTESIAN_POINT('',(-0.00365,0.02552,0.));
#2212=CARTESIAN_POINT('',(-0.00315,0.02552,0.));
#2213=CARTESIAN_POINT('',(-0.00111,0.02552,0.));
#2214=CARTESIAN_POINT('',(-0.00061,0.02552,0.));
#2215=CARTESIAN_POINT('',(0.034,-0.012,0.));
#2216=CARTESIAN_POINT('',(0.03575,-0.012,0.));
#2217=CARTESIAN_POINT('',(-0.0342999992333353,0.00825,0.));
#2218=CARTESIAN_POINT('',(-0.0337999992333353,0.00825,0.));
#2219=CARTESIAN_POINT('',(0.011,-0.026125,0.));
#2220=CARTESIAN_POINT('',(0.0116,-0.026125,0.));
#2221=CARTESIAN_POINT('',(0.034,-0.0235,0.));
#2222=CARTESIAN_POINT('',(0.03575,-0.0235,0.));
#2223=CARTESIAN_POINT('',(-0.0270471223163887,0.02125,0.));
#2224=CARTESIAN_POINT('',(-0.0265471223163887,0.02125,0.));
#2225=CARTESIAN_POINT('',(0.011,-0.019,0.));
#2226=CARTESIAN_POINT('',(0.0116,-0.019,0.));
#2227=CARTESIAN_POINT('',(-0.0394,-0.0249,0.));
#2228=CARTESIAN_POINT('',(-0.0424,-0.0249,0.));
#2229=CARTESIAN_POINT('',(-0.0394,-0.0279,0.));
#2230=CARTESIAN_POINT('',(-0.0424,-0.0249,0.));
#2231=CARTESIAN_POINT('',(-0.0425,-0.0249,0.));
#2232=CARTESIAN_POINT('',(-0.0425,-0.0249,0.));
#2233=CARTESIAN_POINT('',(-0.0425,0.0249,0.));
#2234=CARTESIAN_POINT('',(-0.0425,0.0249,0.));
#2235=CARTESIAN_POINT('',(-0.0424,0.0249,0.));
#2236=CARTESIAN_POINT('',(-0.0394,0.0249,0.));
#2237=CARTESIAN_POINT('',(-0.0393999999999995,0.0279,0.));
#2238=CARTESIAN_POINT('',(-0.0393999999999995,0.0279,0.));
#2239=CARTESIAN_POINT('',(-0.0393999999999995,0.028,0.));
#2240=CARTESIAN_POINT('',(-0.0393999999999995,0.028,0.));
#2241=CARTESIAN_POINT('',(0.0394,0.028,0.));
#2242=CARTESIAN_POINT('',(0.0394,0.028,0.));
#2243=CARTESIAN_POINT('',(0.0394,0.0279,0.));
#2244=CARTESIAN_POINT('',(0.0394,0.0249,0.));
#2245=CARTESIAN_POINT('',(0.0424,0.0249,0.));
#2246=CARTESIAN_POINT('',(0.0424,0.0249,0.));
#2247=CARTESIAN_POINT('',(0.0425,0.0249,0.));
#2248=CARTESIAN_POINT('',(0.0425,0.0249,0.));
#2249=CARTESIAN_POINT('',(0.0425,-0.0249,0.));
#2250=CARTESIAN_POINT('',(0.0425,-0.0249,0.));
#2251=CARTESIAN_POINT('',(0.0424,-0.0249,0.));
#2252=CARTESIAN_POINT('',(0.0394,-0.0249,0.));
#2253=CARTESIAN_POINT('',(0.0394,-0.0279,0.));
#2254=CARTESIAN_POINT('',(0.0394,-0.0279,0.));
#2255=CARTESIAN_POINT('',(0.0394,-0.028,0.));
#2256=CARTESIAN_POINT('',(0.0394,-0.028,0.));
#2257=CARTESIAN_POINT('',(-0.0394,-0.028,0.));
#2258=CARTESIAN_POINT('',(-0.0394,-0.028,0.));
#2259=CARTESIAN_POINT('',(-8.88178419700125E-18,0.,0.0016));
#2260=CARTESIAN_POINT('',(-0.00111,0.02298,0.0016));
#2261=CARTESIAN_POINT('',(-0.00061,0.02298,0.0016));
#2262=CARTESIAN_POINT('',(-0.039,0.0245,0.0016));
#2263=CARTESIAN_POINT('',(-0.037625,0.0245,0.0016));
#2264=CARTESIAN_POINT('',(0.019,0.0245,0.0016));
#2265=CARTESIAN_POINT('',(0.020375,0.0245,0.0016));
#2266=CARTESIAN_POINT('',(0.019,-0.0245,0.0016));
#2267=CARTESIAN_POINT('',(0.020375,-0.0245,0.0016));
#2268=CARTESIAN_POINT('',(-0.039,-0.0245,0.0016));
#2269=CARTESIAN_POINT('',(-0.037625,-0.0245,0.0016));
#2270=CARTESIAN_POINT('',(0.01773,0.01201,0.0016));
#2271=CARTESIAN_POINT('',(0.01823,0.01201,0.0016));
#2272=CARTESIAN_POINT('',(0.02027,0.01201,0.0016));
#2273=CARTESIAN_POINT('',(0.02077,0.01201,0.0016));
#2274=CARTESIAN_POINT('',(0.01773,0.019647,0.0016));
#2275=CARTESIAN_POINT('',(0.01823,0.019647,0.0016));
#2276=CARTESIAN_POINT('',(0.02027,0.019647,0.0016));
#2277=CARTESIAN_POINT('',(0.02077,0.019647,0.0016));
#2278=CARTESIAN_POINT('',(0.02027,0.017107,0.0016));
#2279=CARTESIAN_POINT('',(0.02077,0.017107,0.0016));
#2280=CARTESIAN_POINT('',(0.01773,0.017107,0.0016));
#2281=CARTESIAN_POINT('',(0.01823,0.017107,0.0016));
#2282=CARTESIAN_POINT('',(-0.03413,0.02298,0.0016));
#2283=CARTESIAN_POINT('',(-0.03363,0.02298,0.0016));
#2284=CARTESIAN_POINT('',(-0.03159,0.02298,0.0016));
#2285=CARTESIAN_POINT('',(-0.03109,0.02298,0.0016));
#2286=CARTESIAN_POINT('',(-0.02905,0.02298,0.0016));
#2287=CARTESIAN_POINT('',(-0.02855,0.02298,0.0016));
#2288=CARTESIAN_POINT('',(-0.02651,0.02298,0.0016));
#2289=CARTESIAN_POINT('',(-0.02601,0.02298,0.0016));
#2290=CARTESIAN_POINT('',(-0.02397,0.02298,0.0016));
#2291=CARTESIAN_POINT('',(-0.02347,0.02298,0.0016));
#2292=CARTESIAN_POINT('',(-0.02143,0.02298,0.0016));
#2293=CARTESIAN_POINT('',(-0.02093,0.02298,0.0016));
#2294=CARTESIAN_POINT('',(-0.01889,0.02298,0.0016));
#2295=CARTESIAN_POINT('',(-0.01839,0.02298,0.0016));
#2296=CARTESIAN_POINT('',(-0.01635,0.02298,0.0016));
#2297=CARTESIAN_POINT('',(-0.01585,0.02298,0.0016));
#2298=CARTESIAN_POINT('',(-0.01381,0.02298,0.0016));
#2299=CARTESIAN_POINT('',(-0.01331,0.02298,0.0016));
#2300=CARTESIAN_POINT('',(-0.01127,0.02298,0.0016));
#2301=CARTESIAN_POINT('',(-0.01077,0.02298,0.0016));
#2302=CARTESIAN_POINT('',(-0.00873,0.02298,0.0016));
#2303=CARTESIAN_POINT('',(-0.00823,0.02298,0.0016));
#2304=CARTESIAN_POINT('',(-0.02143,0.02552,0.0016));
#2305=CARTESIAN_POINT('',(-0.02093,0.02552,0.0016));
#2306=CARTESIAN_POINT('',(-0.02397,0.02552,0.0016));
#2307=CARTESIAN_POINT('',(-0.02347,0.02552,0.0016));
#2308=CARTESIAN_POINT('',(-0.02651,0.02552,0.0016));
#2309=CARTESIAN_POINT('',(-0.02601,0.02552,0.0016));
#2310=CARTESIAN_POINT('',(-0.02905,0.02552,0.0016));
#2311=CARTESIAN_POINT('',(-0.02855,0.02552,0.0016));
#2312=CARTESIAN_POINT('',(-0.03159,0.02552,0.0016));
#2313=CARTESIAN_POINT('',(-0.03109,0.02552,0.0016));
#2314=CARTESIAN_POINT('',(-0.03413,0.02552,0.0016));
#2315=CARTESIAN_POINT('',(-0.03363,0.02552,0.0016));
#2316=CARTESIAN_POINT('',(0.01413,0.02298,0.0016));
#2317=CARTESIAN_POINT('',(0.01463,0.02298,0.0016));
#2318=CARTESIAN_POINT('',(0.01159,0.02298,0.0016));
#2319=CARTESIAN_POINT('',(0.01209,0.02298,0.0016));
#2320=CARTESIAN_POINT('',(0.00905,0.02298,0.0016));
#2321=CARTESIAN_POINT('',(0.00955,0.02298,0.0016));
#2322=CARTESIAN_POINT('',(0.00651,0.02298,0.0016));
#2323=CARTESIAN_POINT('',(0.00701,0.02298,0.0016));
#2324=CARTESIAN_POINT('',(0.00397,0.02298,0.0016));
#2325=CARTESIAN_POINT('',(0.00447,0.02298,0.0016));
#2326=CARTESIAN_POINT('',(0.00143,0.02298,0.0016));
#2327=CARTESIAN_POINT('',(0.00193,0.02298,0.0016));
#2328=CARTESIAN_POINT('',(-0.00365,0.02298,0.0016));
#2329=CARTESIAN_POINT('',(-0.00315,0.02298,0.0016));
#2330=CARTESIAN_POINT('',(-0.00619,0.02298,0.0016));
#2331=CARTESIAN_POINT('',(-0.00569,0.02298,0.0016));
#2332=CARTESIAN_POINT('',(0.01413,0.02552,0.0016));
#2333=CARTESIAN_POINT('',(0.01463,0.02552,0.0016));
#2334=CARTESIAN_POINT('',(0.01159,0.02552,0.0016));
#2335=CARTESIAN_POINT('',(0.01209,0.02552,0.0016));
#2336=CARTESIAN_POINT('',(0.00905,0.02552,0.0016));
#2337=CARTESIAN_POINT('',(0.00955,0.02552,0.0016));
#2338=CARTESIAN_POINT('',(0.00651,0.02552,0.0016));
#2339=CARTESIAN_POINT('',(0.00701,0.02552,0.0016));
#2340=CARTESIAN_POINT('',(0.00397,0.02552,0.0016));
#2341=CARTESIAN_POINT('',(0.00447,0.02552,0.0016));
#2342=CARTESIAN_POINT('',(0.00143,0.02552,0.0016));
#2343=CARTESIAN_POINT('',(0.00193,0.02552,0.0016));
#2344=CARTESIAN_POINT('',(-0.01889,0.02552,0.0016));
#2345=CARTESIAN_POINT('',(-0.01839,0.02552,0.0016));
#2346=CARTESIAN_POINT('',(-0.01635,0.02552,0.0016));
#2347=CARTESIAN_POINT('',(-0.01585,0.02552,0.0016));
#2348=CARTESIAN_POINT('',(-0.01381,0.02552,0.0016));
#2349=CARTESIAN_POINT('',(-0.01331,0.02552,0.0016));
#2350=CARTESIAN_POINT('',(-0.01127,0.02552,0.0016));
#2351=CARTESIAN_POINT('',(-0.01077,0.02552,0.0016));
#2352=CARTESIAN_POINT('',(-0.00873,0.02552,0.0016));
#2353=CARTESIAN_POINT('',(-0.00823,0.02552,0.0016));
#2354=CARTESIAN_POINT('',(-0.00619,0.02552,0.0016));
#2355=CARTESIAN_POINT('',(-0.00569,0.02552,0.0016));
#2356=CARTESIAN_POINT('',(-0.00365,0.02552,0.0016));
#2357=CARTESIAN_POINT('',(-0.00315,0.02552,0.0016));
#2358=CARTESIAN_POINT('',(-0.00111,0.02552,0.0016));
#2359=CARTESIAN_POINT('',(-0.00061,0.02552,0.0016));
#2360=CARTESIAN_POINT('',(0.034,-0.012,0.0016));
#2361=CARTESIAN_POINT('',(0.03575,-0.012,0.0016));
#2362=CARTESIAN_POINT('',(-0.0342999992333353,0.00825,0.0016));
#2363=CARTESIAN_POINT('',(-0.0337999992333353,0.00825,0.0016));
#2364=CARTESIAN_POINT('',(0.011,-0.026125,0.0016));
#2365=CARTESIAN_POINT('',(0.0116,-0.026125,0.0016));
#2366=CARTESIAN_POINT('',(0.034,-0.0235,0.0016));
#2367=CARTESIAN_POINT('',(0.03575,-0.0235,0.0016));
#2368=CARTESIAN_POINT('',(-0.0270471223163887,0.02125,0.0016));
#2369=CARTESIAN_POINT('',(-0.0265471223163887,0.02125,0.0016));
#2370=CARTESIAN_POINT('',(0.011,-0.019,0.0016));
#2371=CARTESIAN_POINT('',(0.0116,-0.019,0.0016));
#2372=CARTESIAN_POINT('',(-0.0394,-0.0249,0.0016));
#2373=CARTESIAN_POINT('',(-0.0424,-0.0249,0.0016));
#2374=CARTESIAN_POINT('',(-0.0394,-0.0279,0.0016));
#2375=CARTESIAN_POINT('',(-0.0394,-0.028,0.0016));
#2376=CARTESIAN_POINT('',(-0.0394,-0.028,0.0016));
#2377=CARTESIAN_POINT('',(0.0394,-0.028,0.0016));
#2378=CARTESIAN_POINT('',(0.0394,-0.028,0.0016));
#2379=CARTESIAN_POINT('',(0.0394,-0.0279,0.0016));
#2380=CARTESIAN_POINT('',(0.0394,-0.0279,0.0016));
#2381=CARTESIAN_POINT('',(0.0394,-0.0249,0.0016));
#2382=CARTESIAN_POINT('',(0.0424,-0.0249,0.0016));
#2383=CARTESIAN_POINT('',(0.0425,-0.0249,0.0016));
#2384=CARTESIAN_POINT('',(0.0425,-0.0249,0.0016));
#2385=CARTESIAN_POINT('',(0.0425,0.0249,0.0016));
#2386=CARTESIAN_POINT('',(0.0425,0.0249,0.0016));
#2387=CARTESIAN_POINT('',(0.0424,0.0249,0.0016));
#2388=CARTESIAN_POINT('',(0.0424,0.0249,0.0016));
#2389=CARTESIAN_POINT('',(0.0394,0.0249,0.0016));
#2390=CARTESIAN_POINT('',(0.0394,0.0279,0.0016));
#2391=CARTESIAN_POINT('',(0.0394,0.028,0.0016));
#2392=CARTESIAN_POINT('',(0.0394,0.028,0.0016));
#2393=CARTESIAN_POINT('',(-0.0393999999999995,0.028,0.0016));
#2394=CARTESIAN_POINT('',(-0.0393999999999995,0.028,0.0016));
#2395=CARTESIAN_POINT('',(-0.0393999999999995,0.0279,0.0016));
#2396=CARTESIAN_POINT('',(-0.0393999999999995,0.0279,0.0016));
#2397=CARTESIAN_POINT('',(-0.0394,0.0249,0.0016));
#2398=CARTESIAN_POINT('',(-0.0424,0.0249,0.0016));
#2399=CARTESIAN_POINT('',(-0.0425,0.0249,0.0016));
#2400=CARTESIAN_POINT('',(-0.0425,0.0249,0.0016));
#2401=CARTESIAN_POINT('',(-0.0425,-0.0249,0.0016));
#2402=CARTESIAN_POINT('',(-0.0425,-0.0249,0.0016));
#2403=CARTESIAN_POINT('',(-0.0424,-0.0249,0.0016));
#2404=CARTESIAN_POINT('',(-0.0394,-0.0249,0.));
#2405=CARTESIAN_POINT('',(-0.0394,-0.0279,0.));
#2406=CARTESIAN_POINT('',(-0.0424,-0.0249,0.));
#2407=CARTESIAN_POINT('',(-0.0394,-0.0279,0.));
#2408=CARTESIAN_POINT('',(-0.0394,-0.028,0.));
#2409=CARTESIAN_POINT('',(-0.0394,-0.028,0.));
#2410=CARTESIAN_POINT('',(0.0394,-0.028,0.));
#2411=CARTESIAN_POINT('',(0.0394,-0.028,0.));
#2412=CARTESIAN_POINT('',(0.0394,-0.0279,0.));
#2413=CARTESIAN_POINT('',(0.0394,-0.0249,0.));
#2414=CARTESIAN_POINT('',(0.0424,-0.0249,0.));
#2415=CARTESIAN_POINT('',(0.0424,-0.0249,0.));
#2416=CARTESIAN_POINT('',(0.0425,-0.0249,0.));
#2417=CARTESIAN_POINT('',(0.0425,-0.0249,0.));
#2418=CARTESIAN_POINT('',(0.0425,0.0249,0.));
#2419=CARTESIAN_POINT('',(0.0425,0.0249,0.));
#2420=CARTESIAN_POINT('',(0.0424,0.0249,0.));
#2421=CARTESIAN_POINT('',(0.0394,0.0249,0.));
#2422=CARTESIAN_POINT('',(0.0394,0.0279,0.));
#2423=CARTESIAN_POINT('',(0.0394,0.0279,0.));
#2424=CARTESIAN_POINT('',(0.0394,0.028,0.));
#2425=CARTESIAN_POINT('',(0.0394,0.028,0.));
#2426=CARTESIAN_POINT('',(-0.0393999999999995,0.028,0.));
#2427=CARTESIAN_POINT('',(-0.0393999999999995,0.028,0.));
#2428=CARTESIAN_POINT('',(-0.0393999999999995,0.0279,0.));
#2429=CARTESIAN_POINT('',(-0.0394,0.0249,0.));
#2430=CARTESIAN_POINT('',(-0.0424,0.0249,0.));
#2431=CARTESIAN_POINT('',(-0.0424,0.0249,0.));
#2432=CARTESIAN_POINT('',(-0.0425,0.0249,0.));
#2433=CARTESIAN_POINT('',(-0.0425,0.0249,0.));
#2434=CARTESIAN_POINT('',(-0.0425,-0.0249,0.));
#2435=CARTESIAN_POINT('',(-0.0425,-0.0249,0.));
#2436=CARTESIAN_POINT('',(-0.00111,0.02552,0.));
#2437=CARTESIAN_POINT('',(-0.00365,0.02552,0.));
#2438=CARTESIAN_POINT('',(-0.00619,0.02552,0.));
#2439=CARTESIAN_POINT('',(-0.00873,0.02552,0.));
#2440=CARTESIAN_POINT('',(-0.01127,0.02552,0.));
#2441=CARTESIAN_POINT('',(-0.01381,0.02552,0.));
#2442=CARTESIAN_POINT('',(-0.01635,0.02552,0.));
#2443=CARTESIAN_POINT('',(-0.01889,0.02552,0.));
#2444=CARTESIAN_POINT('',(0.00143,0.02552,0.));
#2445=CARTESIAN_POINT('',(0.00397,0.02552,0.));
#2446=CARTESIAN_POINT('',(0.00651,0.02552,0.));
#2447=CARTESIAN_POINT('',(0.00905,0.02552,0.));
#2448=CARTESIAN_POINT('',(0.01159,0.02552,0.));
#2449=CARTESIAN_POINT('',(0.01413,0.02552,0.));
#2450=CARTESIAN_POINT('',(-0.00619,0.02298,0.));
#2451=CARTESIAN_POINT('',(-0.00365,0.02298,0.));
#2452=CARTESIAN_POINT('',(0.00143,0.02298,0.));
#2453=CARTESIAN_POINT('',(0.00397,0.02298,0.));
#2454=CARTESIAN_POINT('',(0.00651,0.02298,0.));
#2455=CARTESIAN_POINT('',(0.00905,0.02298,0.));
#2456=CARTESIAN_POINT('',(0.01159,0.02298,0.));
#2457=CARTESIAN_POINT('',(0.01413,0.02298,0.));
#2458=CARTESIAN_POINT('',(-0.03413,0.02552,0.));
#2459=CARTESIAN_POINT('',(-0.03159,0.02552,0.));
#2460=CARTESIAN_POINT('',(-0.02905,0.02552,0.));
#2461=CARTESIAN_POINT('',(-0.02651,0.02552,0.));
#2462=CARTESIAN_POINT('',(-0.02397,0.02552,0.));
#2463=CARTESIAN_POINT('',(-0.02143,0.02552,0.));
#2464=CARTESIAN_POINT('',(-0.00873,0.02298,0.));
#2465=CARTESIAN_POINT('',(-0.01127,0.02298,0.));
#2466=CARTESIAN_POINT('',(-0.01381,0.02298,0.));
#2467=CARTESIAN_POINT('',(-0.01635,0.02298,0.));
#2468=CARTESIAN_POINT('',(-0.01889,0.02298,0.));
#2469=CARTESIAN_POINT('',(-0.02143,0.02298,0.));
#2470=CARTESIAN_POINT('',(-0.02397,0.02298,0.));
#2471=CARTESIAN_POINT('',(-0.02651,0.02298,0.));
#2472=CARTESIAN_POINT('',(-0.02905,0.02298,0.));
#2473=CARTESIAN_POINT('',(-0.03159,0.02298,0.));
#2474=CARTESIAN_POINT('',(-0.03413,0.02298,0.));
#2475=CARTESIAN_POINT('',(0.01773,0.017107,0.));
#2476=CARTESIAN_POINT('',(0.02027,0.017107,0.));
#2477=CARTESIAN_POINT('',(0.02027,0.019647,0.));
#2478=CARTESIAN_POINT('',(0.01773,0.019647,0.));
#2479=CARTESIAN_POINT('',(0.02027,0.01201,0.));
#2480=CARTESIAN_POINT('',(0.01773,0.01201,0.));
#2481=CARTESIAN_POINT('',(-0.039,-0.0245,0.));
#2482=CARTESIAN_POINT('',(0.019,-0.0245,0.));
#2483=CARTESIAN_POINT('',(0.019,0.0245,0.));
#2484=CARTESIAN_POINT('',(-0.039,0.0245,0.));
#2485=CARTESIAN_POINT('',(-0.00111,0.02298,0.));
#2486=CARTESIAN_POINT('',(0.034,-0.012,0.));
#2487=CARTESIAN_POINT('',(-0.0342999992333353,0.00825,0.));
#2488=CARTESIAN_POINT('',(0.011,-0.026125,0.));
#2489=CARTESIAN_POINT('',(0.034,-0.0235,0.));
#2490=CARTESIAN_POINT('',(-0.0270471223163887,0.02125,0.));
#2491=CARTESIAN_POINT('',(0.011,-0.019,0.));
#2492=MECHANICAL_DESIGN_GEOMETRIC_PRESENTATION_REPRESENTATION('',(#1477),
#2493);
#2493=(
GEOMETRIC_REPRESENTATION_CONTEXT(3)
GLOBAL_UNCERTAINTY_ASSIGNED_CONTEXT((#2494))
GLOBAL_UNIT_ASSIGNED_CONTEXT((#2497,#2496,#2495))
REPRESENTATION_CONTEXT('pcb','TOP_LEVEL_ASSEMBLY_PART')
);
#2494=UNCERTAINTY_MEASURE_WITH_UNIT(LENGTH_MEASURE(5.E-6),#2497,
'DISTANCE_ACCURACY_VALUE','Maximum Tolerance applied to model');
#2495=(
NAMED_UNIT(*)
SI_UNIT($,.STERADIAN.)
SOLID_ANGLE_UNIT()
);
#2496=(
NAMED_UNIT(*)
PLANE_ANGLE_UNIT()
SI_UNIT($,.RADIAN.)
);
#2497=(
LENGTH_UNIT()
NAMED_UNIT(*)
SI_UNIT($,.METRE.)
);
#2498=PRODUCT_DEFINITION_SHAPE('','',#2499);
#2499=PRODUCT_DEFINITION('','',#2501,#2500);
#2500=PRODUCT_DEFINITION_CONTEXT('',#2507,'design');
#2501=PRODUCT_DEFINITION_FORMATION_WITH_SPECIFIED_SOURCE('','',#2503,
 .NOT_KNOWN.);
#2502=PRODUCT_RELATED_PRODUCT_CATEGORY('','',(#2503));
#2503=PRODUCT('pcb','pcb','pcb',(#2505));
#2504=PRODUCT_CATEGORY('','');
#2505=PRODUCT_CONTEXT('',#2507,'mechanical');
#2506=APPLICATION_PROTOCOL_DEFINITION('international standard',
'automotive_design',2010,#2507);
#2507=APPLICATION_CONTEXT(
'core data for automotive mechanical design processes');
ENDSEC;
END-ISO-10303-21;
