ISO-10303-21;
HEADER;
/* Generated by software containing ST-Developer
 * from STEP Tools, Inc. (www.steptools.com) 
 */
/* OPTION: using custom renumber hook */

FILE_DESCRIPTION(
/* description */ ('STEP AP214'),
/* implementation_level */ '2;1');

FILE_NAME(
/* name */ '654cf5c07f9aa566be172346',
/* time_stamp */ '2023-11-09T15:07:45Z',
/* author */ (''),
/* organization */ (''),
/* preprocessor_version */ 'ST-DEVELOPER v19.4',
/* originating_system */ '  ',
/* authorisation */ '  ');

FILE_SCHEMA (('AUTOMOTIVE_DESIGN {1 0 10303 214 3 1 1}'));
ENDSEC;

DATA;
#10=PROPERTY_DEFINITION_REPRESENTATION(#14,#12);
#11=PROPERTY_DEFINITION_REPRESENTATION(#15,#13);
#12=REPRESENTATION('',(#16),#1139);
#13=REPRESENTATION('',(#17),#1139);
#14=PROPERTY_DEFINITION('pmi validation property','',#1144);
#15=PROPERTY_DEFINITION('pmi validation property','',#1144);
#16=VALUE_REPRESENTATION_ITEM('number of annotations',COUNT_MEASURE(0.));
#17=VALUE_REPRESENTATION_ITEM('number of views',COUNT_MEASURE(0.));
#18=SHAPE_REPRESENTATION_RELATIONSHIP('','',#753,#19);
#19=ADVANCED_BREP_SHAPE_REPRESENTATION('',(#751),#1139);
#20=ORIENTED_EDGE('',*,*,#200,.F.);
#21=ORIENTED_EDGE('',*,*,#201,.F.);
#22=ORIENTED_EDGE('',*,*,#202,.F.);
#23=ORIENTED_EDGE('',*,*,#203,.F.);
#24=ORIENTED_EDGE('',*,*,#200,.T.);
#25=ORIENTED_EDGE('',*,*,#204,.F.);
#26=ORIENTED_EDGE('',*,*,#205,.F.);
#27=ORIENTED_EDGE('',*,*,#206,.F.);
#28=ORIENTED_EDGE('',*,*,#201,.T.);
#29=ORIENTED_EDGE('',*,*,#206,.T.);
#30=ORIENTED_EDGE('',*,*,#207,.F.);
#31=ORIENTED_EDGE('',*,*,#208,.F.);
#32=ORIENTED_EDGE('',*,*,#202,.T.);
#33=ORIENTED_EDGE('',*,*,#208,.T.);
#34=ORIENTED_EDGE('',*,*,#209,.F.);
#35=ORIENTED_EDGE('',*,*,#210,.F.);
#36=ORIENTED_EDGE('',*,*,#203,.T.);
#37=ORIENTED_EDGE('',*,*,#210,.T.);
#38=ORIENTED_EDGE('',*,*,#211,.F.);
#39=ORIENTED_EDGE('',*,*,#204,.T.);
#40=ORIENTED_EDGE('',*,*,#212,.F.);
#41=ORIENTED_EDGE('',*,*,#213,.T.);
#42=ORIENTED_EDGE('',*,*,#214,.F.);
#43=ORIENTED_EDGE('',*,*,#205,.T.);
#44=ORIENTED_EDGE('',*,*,#215,.F.);
#45=ORIENTED_EDGE('',*,*,#216,.F.);
#46=ORIENTED_EDGE('',*,*,#217,.F.);
#47=ORIENTED_EDGE('',*,*,#218,.T.);
#48=ORIENTED_EDGE('',*,*,#212,.T.);
#49=ORIENTED_EDGE('',*,*,#219,.F.);
#50=ORIENTED_EDGE('',*,*,#220,.F.);
#51=ORIENTED_EDGE('',*,*,#221,.F.);
#52=ORIENTED_EDGE('',*,*,#207,.T.);
#53=ORIENTED_EDGE('',*,*,#222,.F.);
#54=ORIENTED_EDGE('',*,*,#223,.T.);
#55=ORIENTED_EDGE('',*,*,#224,.F.);
#56=ORIENTED_EDGE('',*,*,#222,.T.);
#57=ORIENTED_EDGE('',*,*,#214,.T.);
#58=ORIENTED_EDGE('',*,*,#225,.F.);
#59=ORIENTED_EDGE('',*,*,#226,.F.);
#60=ORIENTED_EDGE('',*,*,#221,.T.);
#61=ORIENTED_EDGE('',*,*,#227,.F.);
#62=ORIENTED_EDGE('',*,*,#228,.F.);
#63=ORIENTED_EDGE('',*,*,#229,.F.);
#64=ORIENTED_EDGE('',*,*,#230,.F.);
#65=ORIENTED_EDGE('',*,*,#231,.T.);
#66=ORIENTED_EDGE('',*,*,#226,.T.);
#67=ORIENTED_EDGE('',*,*,#232,.F.);
#68=ORIENTED_EDGE('',*,*,#228,.T.);
#69=ORIENTED_EDGE('',*,*,#233,.T.);
#70=ORIENTED_EDGE('',*,*,#234,.F.);
#71=ORIENTED_EDGE('',*,*,#209,.T.);
#72=ORIENTED_EDGE('',*,*,#235,.F.);
#73=ORIENTED_EDGE('',*,*,#215,.T.);
#74=ORIENTED_EDGE('',*,*,#236,.F.);
#75=ORIENTED_EDGE('',*,*,#237,.F.);
#76=ORIENTED_EDGE('',*,*,#238,.F.);
#77=ORIENTED_EDGE('',*,*,#236,.T.);
#78=ORIENTED_EDGE('',*,*,#211,.T.);
#79=ORIENTED_EDGE('',*,*,#239,.F.);
#80=ORIENTED_EDGE('',*,*,#240,.T.);
#81=ORIENTED_EDGE('',*,*,#241,.F.);
#82=ORIENTED_EDGE('',*,*,#239,.T.);
#83=ORIENTED_EDGE('',*,*,#234,.T.);
#84=ORIENTED_EDGE('',*,*,#242,.F.);
#85=ORIENTED_EDGE('',*,*,#243,.T.);
#86=ORIENTED_EDGE('',*,*,#217,.T.);
#87=ORIENTED_EDGE('',*,*,#244,.F.);
#88=ORIENTED_EDGE('',*,*,#245,.F.);
#89=ORIENTED_EDGE('',*,*,#244,.T.);
#90=ORIENTED_EDGE('',*,*,#219,.T.);
#91=ORIENTED_EDGE('',*,*,#216,.T.);
#92=ORIENTED_EDGE('',*,*,#235,.T.);
#93=ORIENTED_EDGE('',*,*,#246,.F.);
#94=ORIENTED_EDGE('',*,*,#247,.F.);
#95=ORIENTED_EDGE('',*,*,#248,.F.);
#96=ORIENTED_EDGE('',*,*,#243,.F.);
#97=ORIENTED_EDGE('',*,*,#249,.F.);
#98=ORIENTED_EDGE('',*,*,#250,.F.);
#99=ORIENTED_EDGE('',*,*,#251,.F.);
#100=ORIENTED_EDGE('',*,*,#252,.F.);
#101=ORIENTED_EDGE('',*,*,#223,.F.);
#102=ORIENTED_EDGE('',*,*,#213,.F.);
#103=ORIENTED_EDGE('',*,*,#218,.F.);
#104=ORIENTED_EDGE('',*,*,#251,.T.);
#105=ORIENTED_EDGE('',*,*,#253,.F.);
#106=ORIENTED_EDGE('',*,*,#254,.T.);
#107=ORIENTED_EDGE('',*,*,#255,.F.);
#108=ORIENTED_EDGE('',*,*,#252,.T.);
#109=ORIENTED_EDGE('',*,*,#255,.T.);
#110=ORIENTED_EDGE('',*,*,#256,.T.);
#111=ORIENTED_EDGE('',*,*,#257,.F.);
#112=ORIENTED_EDGE('',*,*,#258,.F.);
#113=ORIENTED_EDGE('',*,*,#227,.T.);
#114=ORIENTED_EDGE('',*,*,#220,.T.);
#115=ORIENTED_EDGE('',*,*,#224,.T.);
#116=ORIENTED_EDGE('',*,*,#259,.F.);
#117=ORIENTED_EDGE('',*,*,#257,.T.);
#118=ORIENTED_EDGE('',*,*,#260,.T.);
#119=ORIENTED_EDGE('',*,*,#261,.F.);
#120=ORIENTED_EDGE('',*,*,#250,.T.);
#121=ORIENTED_EDGE('',*,*,#262,.F.);
#122=ORIENTED_EDGE('',*,*,#263,.T.);
#123=ORIENTED_EDGE('',*,*,#253,.T.);
#124=ORIENTED_EDGE('',*,*,#264,.F.);
#125=ORIENTED_EDGE('',*,*,#261,.T.);
#126=ORIENTED_EDGE('',*,*,#265,.T.);
#127=ORIENTED_EDGE('',*,*,#266,.F.);
#128=ORIENTED_EDGE('',*,*,#233,.F.);
#129=ORIENTED_EDGE('',*,*,#231,.F.);
#130=ORIENTED_EDGE('',*,*,#267,.F.);
#131=ORIENTED_EDGE('',*,*,#268,.F.);
#132=ORIENTED_EDGE('',*,*,#269,.F.);
#133=ORIENTED_EDGE('',*,*,#270,.F.);
#134=ORIENTED_EDGE('',*,*,#271,.F.);
#135=ORIENTED_EDGE('',*,*,#240,.F.);
#136=ORIENTED_EDGE('',*,*,#230,.T.);
#137=ORIENTED_EDGE('',*,*,#272,.F.);
#138=ORIENTED_EDGE('',*,*,#273,.F.);
#139=ORIENTED_EDGE('',*,*,#267,.T.);
#140=ORIENTED_EDGE('',*,*,#229,.T.);
#141=ORIENTED_EDGE('',*,*,#232,.T.);
#142=ORIENTED_EDGE('',*,*,#225,.T.);
#143=ORIENTED_EDGE('',*,*,#258,.T.);
#144=ORIENTED_EDGE('',*,*,#259,.T.);
#145=ORIENTED_EDGE('',*,*,#264,.T.);
#146=ORIENTED_EDGE('',*,*,#274,.F.);
#147=ORIENTED_EDGE('',*,*,#272,.T.);
#148=ORIENTED_EDGE('',*,*,#270,.T.);
#149=ORIENTED_EDGE('',*,*,#275,.F.);
#150=ORIENTED_EDGE('',*,*,#276,.T.);
#151=ORIENTED_EDGE('',*,*,#277,.F.);
#152=ORIENTED_EDGE('',*,*,#271,.T.);
#153=ORIENTED_EDGE('',*,*,#277,.T.);
#154=ORIENTED_EDGE('',*,*,#278,.T.);
#155=ORIENTED_EDGE('',*,*,#279,.F.);
#156=ORIENTED_EDGE('',*,*,#246,.T.);
#157=ORIENTED_EDGE('',*,*,#237,.T.);
#158=ORIENTED_EDGE('',*,*,#238,.T.);
#159=ORIENTED_EDGE('',*,*,#241,.T.);
#160=ORIENTED_EDGE('',*,*,#247,.T.);
#161=ORIENTED_EDGE('',*,*,#279,.T.);
#162=ORIENTED_EDGE('',*,*,#280,.T.);
#163=ORIENTED_EDGE('',*,*,#281,.F.);
#164=ORIENTED_EDGE('',*,*,#248,.T.);
#165=ORIENTED_EDGE('',*,*,#281,.T.);
#166=ORIENTED_EDGE('',*,*,#282,.T.);
#167=ORIENTED_EDGE('',*,*,#283,.F.);
#168=ORIENTED_EDGE('',*,*,#269,.T.);
#169=ORIENTED_EDGE('',*,*,#284,.F.);
#170=ORIENTED_EDGE('',*,*,#285,.T.);
#171=ORIENTED_EDGE('',*,*,#275,.T.);
#172=ORIENTED_EDGE('',*,*,#262,.T.);
#173=ORIENTED_EDGE('',*,*,#249,.T.);
#174=ORIENTED_EDGE('',*,*,#242,.T.);
#175=ORIENTED_EDGE('',*,*,#245,.T.);
#176=ORIENTED_EDGE('',*,*,#283,.T.);
#177=ORIENTED_EDGE('',*,*,#286,.T.);
#178=ORIENTED_EDGE('',*,*,#287,.T.);
#179=ORIENTED_EDGE('',*,*,#265,.F.);
#180=ORIENTED_EDGE('',*,*,#260,.F.);
#181=ORIENTED_EDGE('',*,*,#256,.F.);
#182=ORIENTED_EDGE('',*,*,#254,.F.);
#183=ORIENTED_EDGE('',*,*,#263,.F.);
#184=ORIENTED_EDGE('',*,*,#273,.T.);
#185=ORIENTED_EDGE('',*,*,#274,.T.);
#186=ORIENTED_EDGE('',*,*,#266,.T.);
#187=ORIENTED_EDGE('',*,*,#288,.T.);
#188=ORIENTED_EDGE('',*,*,#284,.T.);
#189=ORIENTED_EDGE('',*,*,#268,.T.);
#190=ORIENTED_EDGE('',*,*,#289,.T.);
#191=ORIENTED_EDGE('',*,*,#282,.F.);
#192=ORIENTED_EDGE('',*,*,#280,.F.);
#193=ORIENTED_EDGE('',*,*,#278,.F.);
#194=ORIENTED_EDGE('',*,*,#276,.F.);
#195=ORIENTED_EDGE('',*,*,#285,.F.);
#196=ORIENTED_EDGE('',*,*,#288,.F.);
#197=ORIENTED_EDGE('',*,*,#287,.F.);
#198=ORIENTED_EDGE('',*,*,#286,.F.);
#199=ORIENTED_EDGE('',*,*,#289,.F.);
#200=EDGE_CURVE('',#290,#291,#346,.T.);
#201=EDGE_CURVE('',#292,#290,#347,.T.);
#202=EDGE_CURVE('',#293,#292,#348,.T.);
#203=EDGE_CURVE('',#291,#293,#349,.T.);
#204=EDGE_CURVE('',#294,#291,#350,.T.);
#205=EDGE_CURVE('',#295,#294,#351,.T.);
#206=EDGE_CURVE('',#290,#295,#352,.T.);
#207=EDGE_CURVE('',#296,#295,#353,.T.);
#208=EDGE_CURVE('',#292,#296,#354,.T.);
#209=EDGE_CURVE('',#297,#296,#355,.T.);
#210=EDGE_CURVE('',#293,#297,#356,.T.);
#211=EDGE_CURVE('',#294,#297,#357,.T.);
#212=EDGE_CURVE('',#298,#299,#358,.T.);
#213=EDGE_CURVE('',#298,#300,#359,.T.);
#214=EDGE_CURVE('',#295,#300,#360,.T.);
#215=EDGE_CURVE('',#301,#294,#361,.T.);
#216=EDGE_CURVE('',#299,#301,#362,.T.);
#217=EDGE_CURVE('',#302,#303,#363,.T.);
#218=EDGE_CURVE('',#302,#298,#364,.T.);
#219=EDGE_CURVE('',#303,#299,#365,.T.);
#220=EDGE_CURVE('',#304,#305,#366,.T.);
#221=EDGE_CURVE('',#296,#304,#367,.T.);
#222=EDGE_CURVE('',#305,#295,#368,.T.);
#223=EDGE_CURVE('',#300,#306,#369,.T.);
#224=EDGE_CURVE('',#305,#306,#370,.T.);
#225=EDGE_CURVE('',#307,#308,#371,.T.);
#226=EDGE_CURVE('',#296,#307,#372,.T.);
#227=EDGE_CURVE('',#308,#304,#373,.T.);
#228=EDGE_CURVE('',#309,#310,#374,.T.);
#229=EDGE_CURVE('',#311,#309,#375,.T.);
#230=EDGE_CURVE('',#312,#311,#376,.T.);
#231=EDGE_CURVE('',#312,#310,#377,.T.);
#232=EDGE_CURVE('',#309,#307,#378,.T.);
#233=EDGE_CURVE('',#310,#313,#379,.T.);
#234=EDGE_CURVE('',#297,#313,#380,.T.);
#235=EDGE_CURVE('',#301,#314,#381,.T.);
#236=EDGE_CURVE('',#315,#294,#382,.T.);
#237=EDGE_CURVE('',#314,#315,#383,.T.);
#238=EDGE_CURVE('',#315,#316,#384,.T.);
#239=EDGE_CURVE('',#316,#297,#385,.T.);
#240=EDGE_CURVE('',#313,#317,#386,.T.);
#241=EDGE_CURVE('',#316,#317,#387,.T.);
#242=EDGE_CURVE('',#318,#319,#388,.T.);
#243=EDGE_CURVE('',#318,#302,#389,.T.);
#244=EDGE_CURVE('',#319,#303,#390,.T.);
#245=EDGE_CURVE('',#319,#320,#391,.T.);
#246=EDGE_CURVE('',#321,#314,#392,.T.);
#247=EDGE_CURVE('',#322,#321,#393,.T.);
#248=EDGE_CURVE('',#320,#322,#394,.T.);
#249=EDGE_CURVE('',#323,#318,#395,.T.);
#250=EDGE_CURVE('',#324,#323,#396,.T.);
#251=EDGE_CURVE('',#325,#324,#397,.T.);
#252=EDGE_CURVE('',#306,#325,#398,.T.);
#253=EDGE_CURVE('',#326,#324,#399,.T.);
#254=EDGE_CURVE('',#326,#327,#400,.T.);
#255=EDGE_CURVE('',#325,#327,#401,.T.);
#256=EDGE_CURVE('',#327,#328,#402,.T.);
#257=EDGE_CURVE('',#329,#328,#403,.T.);
#258=EDGE_CURVE('',#308,#329,#404,.T.);
#259=EDGE_CURVE('',#329,#330,#405,.T.);
#260=EDGE_CURVE('',#328,#331,#406,.T.);
#261=EDGE_CURVE('',#330,#331,#407,.T.);
#262=EDGE_CURVE('',#332,#323,#408,.T.);
#263=EDGE_CURVE('',#332,#326,#409,.T.);
#264=EDGE_CURVE('',#330,#333,#410,.T.);
#265=EDGE_CURVE('',#331,#334,#411,.T.);
#266=EDGE_CURVE('',#333,#334,#412,.T.);
#267=EDGE_CURVE('',#335,#312,#413,.T.);
#268=EDGE_CURVE('',#336,#335,#414,.T.);
#269=EDGE_CURVE('',#337,#336,#415,.T.);
#270=EDGE_CURVE('',#338,#337,#416,.T.);
#271=EDGE_CURVE('',#317,#338,#417,.T.);
#272=EDGE_CURVE('',#339,#311,#418,.T.);
#273=EDGE_CURVE('',#335,#339,#419,.T.);
#274=EDGE_CURVE('',#339,#333,#420,.T.);
#275=EDGE_CURVE('',#340,#337,#421,.T.);
#276=EDGE_CURVE('',#340,#341,#422,.T.);
#277=EDGE_CURVE('',#338,#341,#423,.T.);
#278=EDGE_CURVE('',#341,#342,#424,.T.);
#279=EDGE_CURVE('',#321,#342,#425,.T.);
#280=EDGE_CURVE('',#342,#343,#426,.T.);
#281=EDGE_CURVE('',#322,#343,#427,.T.);
#282=EDGE_CURVE('',#343,#344,#428,.T.);
#283=EDGE_CURVE('',#320,#344,#429,.T.);
#284=EDGE_CURVE('',#345,#336,#430,.T.);
#285=EDGE_CURVE('',#345,#340,#431,.T.);
#286=EDGE_CURVE('',#344,#332,#432,.T.);
#287=EDGE_CURVE('',#332,#334,#433,.T.);
#288=EDGE_CURVE('',#334,#345,#434,.T.);
#289=EDGE_CURVE('',#345,#344,#435,.T.);
#290=VERTEX_POINT('',#958);
#291=VERTEX_POINT('',#959);
#292=VERTEX_POINT('',#961);
#293=VERTEX_POINT('',#963);
#294=VERTEX_POINT('',#967);
#295=VERTEX_POINT('',#969);
#296=VERTEX_POINT('',#973);
#297=VERTEX_POINT('',#977);
#298=VERTEX_POINT('',#983);
#299=VERTEX_POINT('',#984);
#300=VERTEX_POINT('',#986);
#301=VERTEX_POINT('',#989);
#302=VERTEX_POINT('',#993);
#303=VERTEX_POINT('',#994);
#304=VERTEX_POINT('',#999);
#305=VERTEX_POINT('',#1000);
#306=VERTEX_POINT('',#1005);
#307=VERTEX_POINT('',#1009);
#308=VERTEX_POINT('',#1010);
#309=VERTEX_POINT('',#1015);
#310=VERTEX_POINT('',#1016);
#311=VERTEX_POINT('',#1018);
#312=VERTEX_POINT('',#1020);
#313=VERTEX_POINT('',#1025);
#314=VERTEX_POINT('',#1029);
#315=VERTEX_POINT('',#1031);
#316=VERTEX_POINT('',#1035);
#317=VERTEX_POINT('',#1039);
#318=VERTEX_POINT('',#1043);
#319=VERTEX_POINT('',#1044);
#320=VERTEX_POINT('',#1049);
#321=VERTEX_POINT('',#1051);
#322=VERTEX_POINT('',#1053);
#323=VERTEX_POINT('',#1057);
#324=VERTEX_POINT('',#1059);
#325=VERTEX_POINT('',#1061);
#326=VERTEX_POINT('',#1065);
#327=VERTEX_POINT('',#1067);
#328=VERTEX_POINT('',#1071);
#329=VERTEX_POINT('',#1073);
#330=VERTEX_POINT('',#1077);
#331=VERTEX_POINT('',#1079);
#332=VERTEX_POINT('',#1083);
#333=VERTEX_POINT('',#1087);
#334=VERTEX_POINT('',#1089);
#335=VERTEX_POINT('',#1093);
#336=VERTEX_POINT('',#1095);
#337=VERTEX_POINT('',#1097);
#338=VERTEX_POINT('',#1099);
#339=VERTEX_POINT('',#1103);
#340=VERTEX_POINT('',#1109);
#341=VERTEX_POINT('',#1111);
#342=VERTEX_POINT('',#1115);
#343=VERTEX_POINT('',#1119);
#344=VERTEX_POINT('',#1123);
#345=VERTEX_POINT('',#1127);
#346=LINE('',#957,#436);
#347=LINE('',#960,#437);
#348=LINE('',#962,#438);
#349=LINE('',#964,#439);
#350=LINE('',#966,#440);
#351=LINE('',#968,#441);
#352=LINE('',#970,#442);
#353=LINE('',#972,#443);
#354=LINE('',#974,#444);
#355=LINE('',#976,#445);
#356=LINE('',#978,#446);
#357=LINE('',#980,#447);
#358=LINE('',#982,#448);
#359=LINE('',#985,#449);
#360=LINE('',#987,#450);
#361=LINE('',#988,#451);
#362=LINE('',#990,#452);
#363=LINE('',#992,#453);
#364=LINE('',#995,#454);
#365=LINE('',#996,#455);
#366=LINE('',#998,#456);
#367=LINE('',#1001,#457);
#368=LINE('',#1002,#458);
#369=LINE('',#1004,#459);
#370=LINE('',#1006,#460);
#371=LINE('',#1008,#461);
#372=LINE('',#1011,#462);
#373=LINE('',#1012,#463);
#374=LINE('',#1014,#464);
#375=LINE('',#1017,#465);
#376=LINE('',#1019,#466);
#377=LINE('',#1021,#467);
#378=LINE('',#1023,#468);
#379=LINE('',#1024,#469);
#380=LINE('',#1026,#470);
#381=LINE('',#1028,#471);
#382=LINE('',#1030,#472);
#383=LINE('',#1032,#473);
#384=LINE('',#1034,#474);
#385=LINE('',#1036,#475);
#386=LINE('',#1038,#476);
#387=LINE('',#1040,#477);
#388=LINE('',#1042,#478);
#389=LINE('',#1045,#479);
#390=LINE('',#1046,#480);
#391=LINE('',#1048,#481);
#392=LINE('',#1050,#482);
#393=LINE('',#1052,#483);
#394=LINE('',#1054,#484);
#395=LINE('',#1056,#485);
#396=LINE('',#1058,#486);
#397=LINE('',#1060,#487);
#398=LINE('',#1062,#488);
#399=LINE('',#1064,#489);
#400=LINE('',#1066,#490);
#401=LINE('',#1068,#491);
#402=LINE('',#1070,#492);
#403=LINE('',#1072,#493);
#404=LINE('',#1074,#494);
#405=LINE('',#1076,#495);
#406=LINE('',#1078,#496);
#407=LINE('',#1080,#497);
#408=LINE('',#1082,#498);
#409=LINE('',#1084,#499);
#410=LINE('',#1086,#500);
#411=LINE('',#1088,#501);
#412=LINE('',#1090,#502);
#413=LINE('',#1092,#503);
#414=LINE('',#1094,#504);
#415=LINE('',#1096,#505);
#416=LINE('',#1098,#506);
#417=LINE('',#1100,#507);
#418=LINE('',#1102,#508);
#419=LINE('',#1104,#509);
#420=LINE('',#1106,#510);
#421=LINE('',#1108,#511);
#422=LINE('',#1110,#512);
#423=LINE('',#1112,#513);
#424=LINE('',#1114,#514);
#425=LINE('',#1116,#515);
#426=LINE('',#1118,#516);
#427=LINE('',#1120,#517);
#428=LINE('',#1122,#518);
#429=LINE('',#1124,#519);
#430=LINE('',#1126,#520);
#431=LINE('',#1128,#521);
#432=LINE('',#1130,#522);
#433=LINE('',#1132,#523);
#434=LINE('',#1134,#524);
#435=LINE('',#1136,#525);
#436=VECTOR('',#795,1.);
#437=VECTOR('',#796,1.);
#438=VECTOR('',#797,1.);
#439=VECTOR('',#798,1.);
#440=VECTOR('',#801,1.);
#441=VECTOR('',#802,1.);
#442=VECTOR('',#803,1.);
#443=VECTOR('',#806,1.);
#444=VECTOR('',#807,1.);
#445=VECTOR('',#810,1.);
#446=VECTOR('',#811,1.);
#447=VECTOR('',#814,1.);
#448=VECTOR('',#817,1.);
#449=VECTOR('',#818,1.);
#450=VECTOR('',#819,1.);
#451=VECTOR('',#820,1.);
#452=VECTOR('',#821,1.);
#453=VECTOR('',#824,1.);
#454=VECTOR('',#825,1.);
#455=VECTOR('',#826,1.);
#456=VECTOR('',#829,1.);
#457=VECTOR('',#830,1.);
#458=VECTOR('',#831,1.);
#459=VECTOR('',#834,1.);
#460=VECTOR('',#835,1.);
#461=VECTOR('',#838,1.);
#462=VECTOR('',#839,1.);
#463=VECTOR('',#840,1.);
#464=VECTOR('',#843,1.);
#465=VECTOR('',#844,1.);
#466=VECTOR('',#845,1.);
#467=VECTOR('',#846,1.);
#468=VECTOR('',#849,1.);
#469=VECTOR('',#850,1.);
#470=VECTOR('',#851,1.);
#471=VECTOR('',#854,1.);
#472=VECTOR('',#855,1.);
#473=VECTOR('',#856,1.);
#474=VECTOR('',#859,1.);
#475=VECTOR('',#860,1.);
#476=VECTOR('',#863,1.);
#477=VECTOR('',#864,1.);
#478=VECTOR('',#867,1.);
#479=VECTOR('',#868,1.);
#480=VECTOR('',#869,1.);
#481=VECTOR('',#872,1.);
#482=VECTOR('',#873,1.);
#483=VECTOR('',#874,1.);
#484=VECTOR('',#875,1.);
#485=VECTOR('',#878,1.);
#486=VECTOR('',#879,1.);
#487=VECTOR('',#880,1.);
#488=VECTOR('',#881,1.);
#489=VECTOR('',#884,1.);
#490=VECTOR('',#885,1.);
#491=VECTOR('',#886,1.);
#492=VECTOR('',#889,1.);
#493=VECTOR('',#890,1.);
#494=VECTOR('',#891,1.);
#495=VECTOR('',#894,1.);
#496=VECTOR('',#895,1.);
#497=VECTOR('',#896,1.);
#498=VECTOR('',#899,1.);
#499=VECTOR('',#900,1.);
#500=VECTOR('',#903,1.);
#501=VECTOR('',#904,1.);
#502=VECTOR('',#905,1.);
#503=VECTOR('',#908,1.);
#504=VECTOR('',#909,1.);
#505=VECTOR('',#910,1.);
#506=VECTOR('',#911,1.);
#507=VECTOR('',#912,1.);
#508=VECTOR('',#915,1.);
#509=VECTOR('',#916,1.);
#510=VECTOR('',#919,1.);
#511=VECTOR('',#922,1.);
#512=VECTOR('',#923,1.);
#513=VECTOR('',#924,1.);
#514=VECTOR('',#927,1.);
#515=VECTOR('',#928,1.);
#516=VECTOR('',#931,1.);
#517=VECTOR('',#932,1.);
#518=VECTOR('',#935,1.);
#519=VECTOR('',#936,1.);
#520=VECTOR('',#939,1.);
#521=VECTOR('',#940,1.);
#522=VECTOR('',#943,1.);
#523=VECTOR('',#946,1.);
#524=VECTOR('',#949,1.);
#525=VECTOR('',#952,1.);
#526=EDGE_LOOP('',(#20,#21,#22,#23));
#527=EDGE_LOOP('',(#24,#25,#26,#27));
#528=EDGE_LOOP('',(#28,#29,#30,#31));
#529=EDGE_LOOP('',(#32,#33,#34,#35));
#530=EDGE_LOOP('',(#36,#37,#38,#39));
#531=EDGE_LOOP('',(#40,#41,#42,#43,#44,#45));
#532=EDGE_LOOP('',(#46,#47,#48,#49));
#533=EDGE_LOOP('',(#50,#51,#52,#53));
#534=EDGE_LOOP('',(#54,#55,#56,#57));
#535=EDGE_LOOP('',(#58,#59,#60,#61));
#536=EDGE_LOOP('',(#62,#63,#64,#65));
#537=EDGE_LOOP('',(#66,#67,#68,#69,#70,#71));
#538=EDGE_LOOP('',(#72,#73,#74,#75));
#539=EDGE_LOOP('',(#76,#77,#78,#79));
#540=EDGE_LOOP('',(#80,#81,#82,#83));
#541=EDGE_LOOP('',(#84,#85,#86,#87));
#542=EDGE_LOOP('',(#88,#89,#90,#91,#92,#93,#94,#95));
#543=EDGE_LOOP('',(#96,#97,#98,#99,#100,#101,#102,#103));
#544=EDGE_LOOP('',(#104,#105,#106,#107));
#545=EDGE_LOOP('',(#108,#109,#110,#111,#112,#113,#114,#115));
#546=EDGE_LOOP('',(#116,#117,#118,#119));
#547=EDGE_LOOP('',(#120,#121,#122,#123));
#548=EDGE_LOOP('',(#124,#125,#126,#127));
#549=EDGE_LOOP('',(#128,#129,#130,#131,#132,#133,#134,#135));
#550=EDGE_LOOP('',(#136,#137,#138,#139));
#551=EDGE_LOOP('',(#140,#141,#142,#143,#144,#145,#146,#147));
#552=EDGE_LOOP('',(#148,#149,#150,#151));
#553=EDGE_LOOP('',(#152,#153,#154,#155,#156,#157,#158,#159));
#554=EDGE_LOOP('',(#160,#161,#162,#163));
#555=EDGE_LOOP('',(#164,#165,#166,#167));
#556=EDGE_LOOP('',(#168,#169,#170,#171));
#557=EDGE_LOOP('',(#172,#173,#174,#175,#176,#177));
#558=EDGE_LOOP('',(#178,#179,#180,#181,#182,#183));
#559=EDGE_LOOP('',(#184,#185,#186,#187,#188,#189));
#560=EDGE_LOOP('',(#190,#191,#192,#193,#194,#195));
#561=EDGE_LOOP('',(#196,#197,#198,#199));
#562=FACE_BOUND('',#526,.T.);
#563=FACE_BOUND('',#527,.T.);
#564=FACE_BOUND('',#528,.T.);
#565=FACE_BOUND('',#529,.T.);
#566=FACE_BOUND('',#530,.T.);
#567=FACE_BOUND('',#531,.T.);
#568=FACE_BOUND('',#532,.T.);
#569=FACE_BOUND('',#533,.T.);
#570=FACE_BOUND('',#534,.T.);
#571=FACE_BOUND('',#535,.T.);
#572=FACE_BOUND('',#536,.T.);
#573=FACE_BOUND('',#537,.T.);
#574=FACE_BOUND('',#538,.T.);
#575=FACE_BOUND('',#539,.T.);
#576=FACE_BOUND('',#540,.T.);
#577=FACE_BOUND('',#541,.T.);
#578=FACE_BOUND('',#542,.T.);
#579=FACE_BOUND('',#543,.T.);
#580=FACE_BOUND('',#544,.T.);
#581=FACE_BOUND('',#545,.T.);
#582=FACE_BOUND('',#546,.T.);
#583=FACE_BOUND('',#547,.T.);
#584=FACE_BOUND('',#548,.T.);
#585=FACE_BOUND('',#549,.T.);
#586=FACE_BOUND('',#550,.T.);
#587=FACE_BOUND('',#551,.T.);
#588=FACE_BOUND('',#552,.T.);
#589=FACE_BOUND('',#553,.T.);
#590=FACE_BOUND('',#554,.T.);
#591=FACE_BOUND('',#555,.T.);
#592=FACE_BOUND('',#556,.T.);
#593=FACE_BOUND('',#557,.T.);
#594=FACE_BOUND('',#558,.T.);
#595=FACE_BOUND('',#559,.T.);
#596=FACE_BOUND('',#560,.T.);
#597=FACE_BOUND('',#561,.T.);
#598=PLANE('',#755);
#599=PLANE('',#756);
#600=PLANE('',#757);
#601=PLANE('',#758);
#602=PLANE('',#759);
#603=PLANE('',#760);
#604=PLANE('',#761);
#605=PLANE('',#762);
#606=PLANE('',#763);
#607=PLANE('',#764);
#608=PLANE('',#765);
#609=PLANE('',#766);
#610=PLANE('',#767);
#611=PLANE('',#768);
#612=PLANE('',#769);
#613=PLANE('',#770);
#614=PLANE('',#771);
#615=PLANE('',#772);
#616=PLANE('',#773);
#617=PLANE('',#774);
#618=PLANE('',#775);
#619=PLANE('',#776);
#620=PLANE('',#777);
#621=PLANE('',#778);
#622=PLANE('',#779);
#623=PLANE('',#780);
#624=PLANE('',#781);
#625=PLANE('',#782);
#626=PLANE('',#783);
#627=PLANE('',#784);
#628=PLANE('',#785);
#629=PLANE('',#786);
#630=PLANE('',#787);
#631=PLANE('',#788);
#632=PLANE('',#789);
#633=PLANE('',#790);
#634=OVER_RIDING_STYLED_ITEM('',(#683),#644,#681);
#635=OVER_RIDING_STYLED_ITEM('',(#684),#645,#681);
#636=OVER_RIDING_STYLED_ITEM('',(#685),#646,#681);
#637=OVER_RIDING_STYLED_ITEM('',(#686),#647,#681);
#638=OVER_RIDING_STYLED_ITEM('',(#687),#648,#681);
#639=OVER_RIDING_STYLED_ITEM('',(#688),#651,#681);
#640=OVER_RIDING_STYLED_ITEM('',(#689),#657,#681);
#641=OVER_RIDING_STYLED_ITEM('',(#690),#676,#681);
#642=OVER_RIDING_STYLED_ITEM('',(#691),#678,#681);
#643=OVER_RIDING_STYLED_ITEM('',(#692),#679,#681);
#644=ADVANCED_FACE('',(#562),#598,.T.);
#645=ADVANCED_FACE('',(#563),#599,.T.);
#646=ADVANCED_FACE('',(#564),#600,.T.);
#647=ADVANCED_FACE('',(#565),#601,.T.);
#648=ADVANCED_FACE('',(#566),#602,.T.);
#649=ADVANCED_FACE('',(#567),#603,.T.);
#650=ADVANCED_FACE('',(#568),#604,.T.);
#651=ADVANCED_FACE('',(#569),#605,.T.);
#652=ADVANCED_FACE('',(#570),#606,.T.);
#653=ADVANCED_FACE('',(#571),#607,.T.);
#654=ADVANCED_FACE('',(#572),#608,.T.);
#655=ADVANCED_FACE('',(#573),#609,.T.);
#656=ADVANCED_FACE('',(#574),#610,.T.);
#657=ADVANCED_FACE('',(#575),#611,.T.);
#658=ADVANCED_FACE('',(#576),#612,.T.);
#659=ADVANCED_FACE('',(#577),#613,.T.);
#660=ADVANCED_FACE('',(#578),#614,.T.);
#661=ADVANCED_FACE('',(#579),#615,.F.);
#662=ADVANCED_FACE('',(#580),#616,.T.);
#663=ADVANCED_FACE('',(#581),#617,.T.);
#664=ADVANCED_FACE('',(#582),#618,.T.);
#665=ADVANCED_FACE('',(#583),#619,.T.);
#666=ADVANCED_FACE('',(#584),#620,.T.);
#667=ADVANCED_FACE('',(#585),#621,.F.);
#668=ADVANCED_FACE('',(#586),#622,.T.);
#669=ADVANCED_FACE('',(#587),#623,.T.);
#670=ADVANCED_FACE('',(#588),#624,.T.);
#671=ADVANCED_FACE('',(#589),#625,.T.);
#672=ADVANCED_FACE('',(#590),#626,.T.);
#673=ADVANCED_FACE('',(#591),#627,.T.);
#674=ADVANCED_FACE('',(#592),#628,.T.);
#675=ADVANCED_FACE('',(#593),#629,.T.);
#676=ADVANCED_FACE('',(#594),#630,.F.);
#677=ADVANCED_FACE('',(#595),#631,.T.);
#678=ADVANCED_FACE('',(#596),#632,.F.);
#679=ADVANCED_FACE('',(#597),#633,.F.);
#680=CLOSED_SHELL('',(#644,#645,#646,#647,#648,#649,#650,#651,#652,#653,
#654,#655,#656,#657,#658,#659,#660,#661,#662,#663,#664,#665,#666,#667,#668,
#669,#670,#671,#672,#673,#674,#675,#676,#677,#678,#679));
#681=STYLED_ITEM('',(#682),#751);
#682=PRESENTATION_STYLE_ASSIGNMENT((#693));
#683=PRESENTATION_STYLE_ASSIGNMENT((#694));
#684=PRESENTATION_STYLE_ASSIGNMENT((#695));
#685=PRESENTATION_STYLE_ASSIGNMENT((#696));
#686=PRESENTATION_STYLE_ASSIGNMENT((#697));
#687=PRESENTATION_STYLE_ASSIGNMENT((#698));
#688=PRESENTATION_STYLE_ASSIGNMENT((#699));
#689=PRESENTATION_STYLE_ASSIGNMENT((#700));
#690=PRESENTATION_STYLE_ASSIGNMENT((#701));
#691=PRESENTATION_STYLE_ASSIGNMENT((#702));
#692=PRESENTATION_STYLE_ASSIGNMENT((#703));
#693=SURFACE_STYLE_USAGE(.BOTH.,#704);
#694=SURFACE_STYLE_USAGE(.BOTH.,#705);
#695=SURFACE_STYLE_USAGE(.BOTH.,#706);
#696=SURFACE_STYLE_USAGE(.BOTH.,#707);
#697=SURFACE_STYLE_USAGE(.BOTH.,#708);
#698=SURFACE_STYLE_USAGE(.BOTH.,#709);
#699=SURFACE_STYLE_USAGE(.BOTH.,#710);
#700=SURFACE_STYLE_USAGE(.BOTH.,#711);
#701=SURFACE_STYLE_USAGE(.BOTH.,#712);
#702=SURFACE_STYLE_USAGE(.BOTH.,#713);
#703=SURFACE_STYLE_USAGE(.BOTH.,#714);
#704=SURFACE_SIDE_STYLE('',(#715));
#705=SURFACE_SIDE_STYLE('',(#716));
#706=SURFACE_SIDE_STYLE('',(#717));
#707=SURFACE_SIDE_STYLE('',(#718));
#708=SURFACE_SIDE_STYLE('',(#719));
#709=SURFACE_SIDE_STYLE('',(#720));
#710=SURFACE_SIDE_STYLE('',(#721));
#711=SURFACE_SIDE_STYLE('',(#722));
#712=SURFACE_SIDE_STYLE('',(#723));
#713=SURFACE_SIDE_STYLE('',(#724));
#714=SURFACE_SIDE_STYLE('',(#725));
#715=SURFACE_STYLE_FILL_AREA(#726);
#716=SURFACE_STYLE_FILL_AREA(#727);
#717=SURFACE_STYLE_FILL_AREA(#728);
#718=SURFACE_STYLE_FILL_AREA(#729);
#719=SURFACE_STYLE_FILL_AREA(#730);
#720=SURFACE_STYLE_FILL_AREA(#731);
#721=SURFACE_STYLE_FILL_AREA(#732);
#722=SURFACE_STYLE_FILL_AREA(#733);
#723=SURFACE_STYLE_FILL_AREA(#734);
#724=SURFACE_STYLE_FILL_AREA(#735);
#725=SURFACE_STYLE_FILL_AREA(#736);
#726=FILL_AREA_STYLE('',(#737));
#727=FILL_AREA_STYLE('',(#738));
#728=FILL_AREA_STYLE('',(#739));
#729=FILL_AREA_STYLE('',(#740));
#730=FILL_AREA_STYLE('',(#741));
#731=FILL_AREA_STYLE('',(#742));
#732=FILL_AREA_STYLE('',(#743));
#733=FILL_AREA_STYLE('',(#744));
#734=FILL_AREA_STYLE('',(#745));
#735=FILL_AREA_STYLE('',(#746));
#736=FILL_AREA_STYLE('',(#747));
#737=FILL_AREA_STYLE_COLOUR('',#748);
#738=FILL_AREA_STYLE_COLOUR('',#749);
#739=FILL_AREA_STYLE_COLOUR('',#749);
#740=FILL_AREA_STYLE_COLOUR('',#749);
#741=FILL_AREA_STYLE_COLOUR('',#749);
#742=FILL_AREA_STYLE_COLOUR('',#749);
#743=FILL_AREA_STYLE_COLOUR('',#749);
#744=FILL_AREA_STYLE_COLOUR('',#749);
#745=FILL_AREA_STYLE_COLOUR('',#750);
#746=FILL_AREA_STYLE_COLOUR('',#750);
#747=FILL_AREA_STYLE_COLOUR('',#750);
#748=COLOUR_RGB('',0.811764705882353,0.843137254901961,0.909803921568627);
#749=COLOUR_RGB('',0.16078431372549,0.141176470588235,0.133333333333333);
#750=COLOUR_RGB('',0.490196078431373,0.490196078431373,0.490196078431373);
#751=MANIFOLD_SOLID_BREP('r2',#680);
#752=SHAPE_DEFINITION_REPRESENTATION(#1144,#753);
#753=SHAPE_REPRESENTATION('r2',(#754),#1139);
#754=AXIS2_PLACEMENT_3D('',#955,#791,#792);
#755=AXIS2_PLACEMENT_3D('',#956,#793,#794);
#756=AXIS2_PLACEMENT_3D('',#965,#799,#800);
#757=AXIS2_PLACEMENT_3D('',#971,#804,#805);
#758=AXIS2_PLACEMENT_3D('',#975,#808,#809);
#759=AXIS2_PLACEMENT_3D('',#979,#812,#813);
#760=AXIS2_PLACEMENT_3D('',#981,#815,#816);
#761=AXIS2_PLACEMENT_3D('',#991,#822,#823);
#762=AXIS2_PLACEMENT_3D('',#997,#827,#828);
#763=AXIS2_PLACEMENT_3D('',#1003,#832,#833);
#764=AXIS2_PLACEMENT_3D('',#1007,#836,#837);
#765=AXIS2_PLACEMENT_3D('',#1013,#841,#842);
#766=AXIS2_PLACEMENT_3D('',#1022,#847,#848);
#767=AXIS2_PLACEMENT_3D('',#1027,#852,#853);
#768=AXIS2_PLACEMENT_3D('',#1033,#857,#858);
#769=AXIS2_PLACEMENT_3D('',#1037,#861,#862);
#770=AXIS2_PLACEMENT_3D('',#1041,#865,#866);
#771=AXIS2_PLACEMENT_3D('',#1047,#870,#871);
#772=AXIS2_PLACEMENT_3D('',#1055,#876,#877);
#773=AXIS2_PLACEMENT_3D('',#1063,#882,#883);
#774=AXIS2_PLACEMENT_3D('',#1069,#887,#888);
#775=AXIS2_PLACEMENT_3D('',#1075,#892,#893);
#776=AXIS2_PLACEMENT_3D('',#1081,#897,#898);
#777=AXIS2_PLACEMENT_3D('',#1085,#901,#902);
#778=AXIS2_PLACEMENT_3D('',#1091,#906,#907);
#779=AXIS2_PLACEMENT_3D('',#1101,#913,#914);
#780=AXIS2_PLACEMENT_3D('',#1105,#917,#918);
#781=AXIS2_PLACEMENT_3D('',#1107,#920,#921);
#782=AXIS2_PLACEMENT_3D('',#1113,#925,#926);
#783=AXIS2_PLACEMENT_3D('',#1117,#929,#930);
#784=AXIS2_PLACEMENT_3D('',#1121,#933,#934);
#785=AXIS2_PLACEMENT_3D('',#1125,#937,#938);
#786=AXIS2_PLACEMENT_3D('',#1129,#941,#942);
#787=AXIS2_PLACEMENT_3D('',#1131,#944,#945);
#788=AXIS2_PLACEMENT_3D('',#1133,#947,#948);
#789=AXIS2_PLACEMENT_3D('',#1135,#950,#951);
#790=AXIS2_PLACEMENT_3D('',#1137,#953,#954);
#791=DIRECTION('',(0.,0.,1.));
#792=DIRECTION('',(1.,0.,0.));
#793=DIRECTION('',(0.,0.,1.));
#794=DIRECTION('',(1.,8.74227765734759E-8,0.));
#795=DIRECTION('',(8.74227766777299E-8,-1.,6.01888861673957E-17));
#796=DIRECTION('',(1.,8.74227765734797E-8,0.));
#797=DIRECTION('',(-8.74227766777299E-8,1.,6.01888861673957E-17));
#798=DIRECTION('',(-1.,-8.74227765734797E-8,0.));
#799=DIRECTION('',(0.866025403784326,7.57103455023727E-8,0.50000000000019));
#800=DIRECTION('',(0.500000000000188,4.37113882867379E-8,-0.866025403784329));
#801=DIRECTION('',(-0.447213634601431,0.447213556402267,0.774596669239298));
#802=DIRECTION('',(8.74227765734797E-8,-1.,0.));
#803=DIRECTION('',(0.447213556408123,0.447213634595575,-0.774596669239298));
#804=DIRECTION('',(-7.57103453819949E-8,0.866025403784326,0.50000000000019));
#805=DIRECTION('',(4.37113882867379E-8,-0.500000000000188,0.866025403784329));
#806=DIRECTION('',(1.,8.74227765734797E-8,0.));
#807=DIRECTION('',(-0.447213634595573,0.447213556408126,-0.774596669239297));
#808=DIRECTION('',(-0.866025403784326,-7.57103455023727E-8,0.50000000000019));
#809=DIRECTION('',(0.500000000000188,4.37113882867379E-8,0.866025403784329));
#810=DIRECTION('',(-8.74227765734797E-8,1.,0.));
#811=DIRECTION('',(-0.447213556408119,-0.447213634595577,-0.774596669239299));
#812=DIRECTION('',(7.57103453819949E-8,-0.866025403784326,0.50000000000019));
#813=DIRECTION('',(4.37113882867379E-8,-0.500000000000188,-0.866025403784329));
#814=DIRECTION('',(-1.,-8.74227765734797E-8,0.));
#815=DIRECTION('',(0.,0.,1.));
#816=DIRECTION('',(1.,8.74227765734759E-8,0.));
#817=DIRECTION('',(8.74227765734797E-8,-1.,0.));
#818=DIRECTION('',(-1.,-8.74227765734797E-8,0.));
#819=DIRECTION('',(-8.74227765734797E-8,1.,0.));
#820=DIRECTION('',(-8.74227765734797E-8,1.,0.));
#821=DIRECTION('',(-1.,-8.74227765734797E-8,0.));
#822=DIRECTION('',(1.,8.74227765734797E-8,0.));
#823=DIRECTION('',(0.,0.,-1.));
#824=DIRECTION('',(8.74227765734797E-8,-1.,0.));
#825=DIRECTION('',(0.,0.,1.));
#826=DIRECTION('',(0.,0.,1.));
#827=DIRECTION('',(-8.74227765734797E-8,1.,0.));
#828=DIRECTION('',(0.,0.,1.));
#829=DIRECTION('',(1.,8.74227765734797E-8,6.25501253357E-16));
#830=DIRECTION('',(0.,0.,-1.));
#831=DIRECTION('',(0.,0.,1.));
#832=DIRECTION('',(-1.,-8.74227765734797E-8,0.));
#833=DIRECTION('',(0.,0.,1.));
#834=DIRECTION('',(0.,0.,-1.));
#835=DIRECTION('',(-8.74227765734797E-8,1.,0.));
#836=DIRECTION('',(1.,8.74227765734797E-8,0.));
#837=DIRECTION('',(0.,0.,-1.));
#838=DIRECTION('',(0.,0.,-1.));
#839=DIRECTION('',(-8.74227765734797E-8,1.,0.));
#840=DIRECTION('',(8.74227765734797E-8,-1.,0.));
#841=DIRECTION('',(-1.,-8.74227765734797E-8,0.));
#842=DIRECTION('',(0.,0.,1.));
#843=DIRECTION('',(8.74227765734797E-8,-1.,0.));
#844=DIRECTION('',(0.,0.,1.));
#845=DIRECTION('',(-8.74227765734797E-8,1.,0.));
#846=DIRECTION('',(0.,0.,1.));
#847=DIRECTION('',(0.,0.,1.));
#848=DIRECTION('',(1.,8.74227765734759E-8,0.));
#849=DIRECTION('',(1.,8.74227765734797E-8,0.));
#850=DIRECTION('',(1.,8.74227765734797E-8,0.));
#851=DIRECTION('',(8.74227765734797E-8,-1.,0.));
#852=DIRECTION('',(-1.,-8.74227765734797E-8,0.));
#853=DIRECTION('',(0.,0.,1.));
#854=DIRECTION('',(0.,0.,-1.));
#855=DIRECTION('',(0.,0.,1.));
#856=DIRECTION('',(-8.74227765734797E-8,1.,0.));
#857=DIRECTION('',(8.74227765734797E-8,-1.,0.));
#858=DIRECTION('',(0.,0.,-1.));
#859=DIRECTION('',(-1.,-8.74227765734797E-8,-6.25501253357E-16));
#860=DIRECTION('',(0.,0.,1.));
#861=DIRECTION('',(1.,8.74227765734797E-8,0.));
#862=DIRECTION('',(0.,0.,-1.));
#863=DIRECTION('',(0.,0.,-1.));
#864=DIRECTION('',(8.74227765734797E-8,-1.,0.));
#865=DIRECTION('',(0.,0.,-1.));
#866=DIRECTION('',(-1.,-8.74227765734759E-8,0.));
#867=DIRECTION('',(8.74227765734797E-8,-1.,0.));
#868=DIRECTION('',(1.,8.74227765734797E-8,0.));
#869=DIRECTION('',(1.,8.74227765734797E-8,0.));
#870=DIRECTION('',(8.74227765734797E-8,-1.,0.));
#871=DIRECTION('',(0.,0.,-1.));
#872=DIRECTION('',(0.,0.,1.));
#873=DIRECTION('',(-1.,-8.74227765734797E-8,-6.25501253357E-16));
#874=DIRECTION('',(0.,0.,1.));
#875=DIRECTION('',(1.,8.74227765734797E-8,0.));
#876=DIRECTION('',(8.74227765734797E-8,-1.,0.));
#877=DIRECTION('',(0.,0.,-1.));
#878=DIRECTION('',(0.,0.,-1.));
#879=DIRECTION('',(-1.,-8.74227765734797E-8,0.));
#880=DIRECTION('',(0.,0.,-1.));
#881=DIRECTION('',(1.,8.74227765734797E-8,6.25501253357E-16));
#882=DIRECTION('',(-1.,-8.74227765734797E-8,0.));
#883=DIRECTION('',(0.,0.,1.));
#884=DIRECTION('',(-8.74227765734797E-8,1.,0.));
#885=DIRECTION('',(0.,0.,1.));
#886=DIRECTION('',(8.74227765734797E-8,-1.,0.));
#887=DIRECTION('',(6.25501253356998E-16,5.46830563186605E-23,-1.));
#888=DIRECTION('',(-1.,-8.74227765734759E-8,-6.25501253357E-16));
#889=DIRECTION('',(-1.,-8.74227765734797E-8,0.));
#890=DIRECTION('',(8.74227765734797E-8,-1.,0.));
#891=DIRECTION('',(-1.,-8.74227765734797E-8,0.));
#892=DIRECTION('',(1.,8.74227765734797E-8,0.));
#893=DIRECTION('',(0.,0.,-1.));
#894=DIRECTION('',(0.,0.,-1.));
#895=DIRECTION('',(0.,0.,-1.));
#896=DIRECTION('',(8.74227765734797E-8,-1.,0.));
#897=DIRECTION('',(0.,0.,1.));
#898=DIRECTION('',(1.,8.74227765734759E-8,0.));
#899=DIRECTION('',(-8.74227765734797E-8,1.,0.));
#900=DIRECTION('',(1.,8.74227765734797E-8,0.));
#901=DIRECTION('',(0.,0.,1.));
#902=DIRECTION('',(1.,8.74227765734759E-8,0.));
#903=DIRECTION('',(1.,8.74227765734797E-8,0.));
#904=DIRECTION('',(1.,8.74227765734797E-8,0.));
#905=DIRECTION('',(8.74227765734797E-8,-1.,0.));
#906=DIRECTION('',(-8.74227765734797E-8,1.,0.));
#907=DIRECTION('',(0.,0.,1.));
#908=DIRECTION('',(-1.,-8.74227765734797E-8,0.));
#909=DIRECTION('',(0.,0.,-1.));
#910=DIRECTION('',(1.,8.74227765734797E-8,0.));
#911=DIRECTION('',(0.,0.,-1.));
#912=DIRECTION('',(-1.,-8.74227765734797E-8,-6.25501253357E-16));
#913=DIRECTION('',(0.,0.,-1.));
#914=DIRECTION('',(-1.,-8.74227765734759E-8,0.));
#915=DIRECTION('',(-1.,-8.74227765734797E-8,0.));
#916=DIRECTION('',(-8.74227765734797E-8,1.,0.));
#917=DIRECTION('',(-8.74227765734797E-8,1.,0.));
#918=DIRECTION('',(0.,0.,1.));
#919=DIRECTION('',(0.,0.,1.));
#920=DIRECTION('',(1.,8.74227765734797E-8,0.));
#921=DIRECTION('',(0.,0.,-1.));
#922=DIRECTION('',(8.74227765734797E-8,-1.,0.));
#923=DIRECTION('',(0.,0.,1.));
#924=DIRECTION('',(-8.74227765734797E-8,1.,0.));
#925=DIRECTION('',(6.25501253356998E-16,5.46830563186605E-23,-1.));
#926=DIRECTION('',(-1.,-8.74227765734759E-8,-6.25501253357E-16));
#927=DIRECTION('',(1.,8.74227765734797E-8,0.));
#928=DIRECTION('',(-8.74227765734797E-8,1.,0.));
#929=DIRECTION('',(-1.,-8.74227765734797E-8,0.));
#930=DIRECTION('',(0.,0.,1.));
#931=DIRECTION('',(0.,0.,-1.));
#932=DIRECTION('',(-8.74227765734797E-8,1.,0.));
#933=DIRECTION('',(0.,0.,1.));
#934=DIRECTION('',(1.,8.74227765734759E-8,0.));
#935=DIRECTION('',(-1.,-8.74227765734797E-8,0.));
#936=DIRECTION('',(-8.74227765734797E-8,1.,0.));
#937=DIRECTION('',(0.,0.,1.));
#938=DIRECTION('',(1.,8.74227765734759E-8,0.));
#939=DIRECTION('',(8.74227765734797E-8,-1.,0.));
#940=DIRECTION('',(-1.,-8.74227765734797E-8,0.));
#941=DIRECTION('',(-1.,-8.74227765734797E-8,0.));
#942=DIRECTION('',(0.,0.,1.));
#943=DIRECTION('',(-8.74227765734797E-8,1.,0.));
#944=DIRECTION('',(8.74227765734797E-8,-1.,0.));
#945=DIRECTION('',(0.,0.,-1.));
#946=DIRECTION('',(-1.,-8.74227765734797E-8,0.));
#947=DIRECTION('',(1.,8.74227765734797E-8,0.));
#948=DIRECTION('',(0.,0.,-1.));
#949=DIRECTION('',(8.74227765734797E-8,-1.,0.));
#950=DIRECTION('',(-8.74227765734797E-8,1.,0.));
#951=DIRECTION('',(0.,0.,1.));
#952=DIRECTION('',(1.,8.74227765734797E-8,0.));
#953=DIRECTION('',(0.,0.,1.));
#954=DIRECTION('',(1.,8.74227765734759E-8,0.));
#955=CARTESIAN_POINT('',(0.,0.,0.));
#956=CARTESIAN_POINT('',(0.0476749190943231,0.171014877885969,0.0004));
#957=CARTESIAN_POINT('',(0.048663372157129,0.170234877972382,0.000400000000000087));
#958=CARTESIAN_POINT('',(0.0486633720899486,0.171003330966998,0.000400000000000044));
#959=CARTESIAN_POINT('',(0.0486633721561195,0.170246424977766,0.000400000000000066));
#960=CARTESIAN_POINT('',(0.0486749190953326,0.171003330968008,0.000400000000000087));
#961=CARTESIAN_POINT('',(0.0476864661007166,0.171003330881594,0.000400000000000044));
#962=CARTESIAN_POINT('',(0.0476864661678967,0.170234877886978,0.000400000000000087));
#963=CARTESIAN_POINT('',(0.0476864661668874,0.170246424892362,0.000400000000000044));
#964=CARTESIAN_POINT('',(0.0486749191615034,0.170246424978775,0.000400000000000087));
#965=CARTESIAN_POINT('',(0.0486749191625129,0.170234877973391,0.00038));
#966=CARTESIAN_POINT('',(0.0486749191625129,0.170234877973391,0.00038));
#967=CARTESIAN_POINT('',(0.0486749191625129,0.170234877973391,0.00038));
#968=CARTESIAN_POINT('',(0.0486749190934489,0.171024877973391,0.00038));
#969=CARTESIAN_POINT('',(0.0486749190943231,0.171014877973391,0.00038));
#970=CARTESIAN_POINT('',(0.0486633720899486,0.171003330966998,0.000400000000000087));
#971=CARTESIAN_POINT('',(0.0486749190943231,0.171014877973391,0.00038));
#972=CARTESIAN_POINT('',(0.0486749190943231,0.171014877973391,0.00038));
#973=CARTESIAN_POINT('',(0.0476749190943231,0.171014877885969,0.00038));
#974=CARTESIAN_POINT('',(0.0476864661007164,0.171003330881594,0.000400000000000087));
#975=CARTESIAN_POINT('',(0.0476749191625129,0.170234877885969,0.00038));
#976=CARTESIAN_POINT('',(0.0476749190934489,0.171024877885969,0.00038));
#977=CARTESIAN_POINT('',(0.0476749191625129,0.170234877885969,0.00038));
#978=CARTESIAN_POINT('',(0.0476864661668874,0.170246424892362,0.000400000000000087));
#979=CARTESIAN_POINT('',(0.0486749191625129,0.170234877973391,0.00038));
#980=CARTESIAN_POINT('',(0.0486749191625129,0.170234877973391,0.00038));
#981=CARTESIAN_POINT('',(0.0489749190934489,0.171024877999618,0.00038));
#982=CARTESIAN_POINT('',(0.0489749190934489,0.171024877999618,0.00038));
#983=CARTESIAN_POINT('',(0.0489749190934489,0.171024877999618,0.00038));
#984=CARTESIAN_POINT('',(0.0489749191633871,0.170224877999618,0.00038));
#985=CARTESIAN_POINT('',(0.0489749190934489,0.171024877999618,0.00038));
#986=CARTESIAN_POINT('',(0.0486749190934489,0.171024877973391,0.00038));
#987=CARTESIAN_POINT('',(0.0486749190934489,0.171024877973391,0.00038));
#988=CARTESIAN_POINT('',(0.0486749190934489,0.171024877973391,0.00038));
#989=CARTESIAN_POINT('',(0.0486749191633871,0.170224877973391,0.00038));
#990=CARTESIAN_POINT('',(0.0489749191633871,0.170224877999618,0.00038));
#991=CARTESIAN_POINT('',(0.0489749190934489,0.171024877999618,0.));
#992=CARTESIAN_POINT('',(0.0489749190934489,0.171024877999618,0.));
#993=CARTESIAN_POINT('',(0.0489749190934489,0.171024877999618,0.));
#994=CARTESIAN_POINT('',(0.0489749191633871,0.170224877999618,0.));
#995=CARTESIAN_POINT('',(0.0489749190934489,0.171024877999618,0.00038));
#996=CARTESIAN_POINT('',(0.0489749191633871,0.170224877999618,0.00038));
#997=CARTESIAN_POINT('',(0.0486749190943231,0.171014877973391,0.00034));
#998=CARTESIAN_POINT('',(0.0486749190943231,0.171014877973391,0.00034));
#999=CARTESIAN_POINT('',(0.0476749190943231,0.171014877885969,0.00034));
#1000=CARTESIAN_POINT('',(0.0486749190943231,0.171014877973391,0.00034));
#1001=CARTESIAN_POINT('',(0.0476749190943231,0.171014877885969,0.00038));
#1002=CARTESIAN_POINT('',(0.0486749190943231,0.171014877973391,0.00038));
#1003=CARTESIAN_POINT('',(0.0486749190934489,0.171024877973391,0.00038));
#1004=CARTESIAN_POINT('',(0.0486749190934489,0.171024877973391,0.00038));
#1005=CARTESIAN_POINT('',(0.0486749190934489,0.171024877973391,0.00034));
#1006=CARTESIAN_POINT('',(0.0486749190934489,0.171024877973391,0.00034));
#1007=CARTESIAN_POINT('',(0.0476749190934489,0.171024877885969,0.00038));
#1008=CARTESIAN_POINT('',(0.0476749190934489,0.171024877885969,0.00034));
#1009=CARTESIAN_POINT('',(0.0476749190934489,0.171024877885969,0.00038));
#1010=CARTESIAN_POINT('',(0.0476749190934489,0.171024877885969,0.00034));
#1011=CARTESIAN_POINT('',(0.0476749190934489,0.171024877885969,0.00038));
#1012=CARTESIAN_POINT('',(0.0476749190934489,0.171024877885969,0.00034));
#1013=CARTESIAN_POINT('',(0.0473749190934489,0.171024877859742,0.));
#1014=CARTESIAN_POINT('',(0.0473749190934489,0.171024877859742,0.00038));
#1015=CARTESIAN_POINT('',(0.0473749190934489,0.171024877859742,0.00038));
#1016=CARTESIAN_POINT('',(0.0473749191633871,0.170224877859742,0.00038));
#1017=CARTESIAN_POINT('',(0.0473749190934489,0.171024877859742,0.00034));
#1018=CARTESIAN_POINT('',(0.0473749190934489,0.171024877859742,0.));
#1019=CARTESIAN_POINT('',(0.0473749190934489,0.171024877859742,0.));
#1020=CARTESIAN_POINT('',(0.0473749191633871,0.170224877859742,0.));
#1021=CARTESIAN_POINT('',(0.0473749191633871,0.170224877859742,0.00034));
#1022=CARTESIAN_POINT('',(0.0473749190934489,0.171024877859742,0.00038));
#1023=CARTESIAN_POINT('',(0.0476749190934489,0.171024877885969,0.00038));
#1024=CARTESIAN_POINT('',(0.0476749191633871,0.170224877885969,0.00038));
#1025=CARTESIAN_POINT('',(0.0476749191633871,0.170224877885969,0.00038));
#1026=CARTESIAN_POINT('',(0.0476749190934489,0.171024877885969,0.00038));
#1027=CARTESIAN_POINT('',(0.0486749190934489,0.171024877973391,0.00038));
#1028=CARTESIAN_POINT('',(0.0486749191633871,0.170224877973391,0.00038));
#1029=CARTESIAN_POINT('',(0.0486749191633871,0.170224877973391,0.00034));
#1030=CARTESIAN_POINT('',(0.0486749191625129,0.170234877973391,0.00034));
#1031=CARTESIAN_POINT('',(0.0486749191625129,0.170234877973391,0.00034));
#1032=CARTESIAN_POINT('',(0.0486749190934489,0.171024877973391,0.00034));
#1033=CARTESIAN_POINT('',(0.0486749191625129,0.170234877973391,0.00034));
#1034=CARTESIAN_POINT('',(0.0486749191625129,0.170234877973391,0.00034));
#1035=CARTESIAN_POINT('',(0.0476749191625129,0.170234877885969,0.00034));
#1036=CARTESIAN_POINT('',(0.0476749191625129,0.170234877885969,0.00038));
#1037=CARTESIAN_POINT('',(0.0476749190934489,0.171024877885969,0.00038));
#1038=CARTESIAN_POINT('',(0.0476749191633871,0.170224877885969,0.00034));
#1039=CARTESIAN_POINT('',(0.0476749191633871,0.170224877885969,0.00034));
#1040=CARTESIAN_POINT('',(0.0476749190934489,0.171024877885969,0.00034));
#1041=CARTESIAN_POINT('',(0.0489749190934489,0.171024877999618,0.));
#1042=CARTESIAN_POINT('',(0.0486749190934489,0.171024877973391,0.));
#1043=CARTESIAN_POINT('',(0.0486749190934489,0.171024877973391,0.));
#1044=CARTESIAN_POINT('',(0.0486749191633871,0.170224877973391,0.));
#1045=CARTESIAN_POINT('',(0.0489749190934489,0.171024877999618,0.));
#1046=CARTESIAN_POINT('',(0.0489749191633871,0.170224877999618,0.));
#1047=CARTESIAN_POINT('',(0.0489749191633871,0.170224877999618,0.00038));
#1048=CARTESIAN_POINT('',(0.0486749191633871,0.170224877973391,0.));
#1049=CARTESIAN_POINT('',(0.0486749191633871,0.170224877973391,4.E-5));
#1050=CARTESIAN_POINT('',(0.0486749191633871,0.170224877973391,0.00034));
#1051=CARTESIAN_POINT('',(0.0489349191633871,0.170224877996121,0.00034));
#1052=CARTESIAN_POINT('',(0.0489349191633871,0.170224877996121,4.E-5));
#1053=CARTESIAN_POINT('',(0.0489349191633871,0.170224877996121,4.E-5));
#1054=CARTESIAN_POINT('',(0.0489349191633871,0.170224877996121,4.E-5));
#1055=CARTESIAN_POINT('',(0.0489749190934489,0.171024877999618,0.00038));
#1056=CARTESIAN_POINT('',(0.0486749190934489,0.171024877973391,0.));
#1057=CARTESIAN_POINT('',(0.0486749190934489,0.171024877973391,4.E-5));
#1058=CARTESIAN_POINT('',(0.0489349190934489,0.171024877996121,4.E-5));
#1059=CARTESIAN_POINT('',(0.0489349190934489,0.171024877996121,4.E-5));
#1060=CARTESIAN_POINT('',(0.0489349190934489,0.171024877996121,4.E-5));
#1061=CARTESIAN_POINT('',(0.0489349190934489,0.171024877996121,0.00034));
#1062=CARTESIAN_POINT('',(0.0486749190934489,0.171024877973391,0.00034));
#1063=CARTESIAN_POINT('',(0.0489349190934489,0.171024877996121,4.E-5));
#1064=CARTESIAN_POINT('',(0.0489349190934489,0.171024877996121,4.E-5));
#1065=CARTESIAN_POINT('',(0.0489349190951973,0.171004877996121,4.E-5));
#1066=CARTESIAN_POINT('',(0.0489349190951973,0.171004877996121,0.00034));
#1067=CARTESIAN_POINT('',(0.0489349190951973,0.171004877996121,0.00034));
#1068=CARTESIAN_POINT('',(0.0489349190934489,0.171024877996121,0.00034));
#1069=CARTESIAN_POINT('',(0.0486749190934489,0.171024877973391,0.00034));
#1070=CARTESIAN_POINT('',(0.0489349190951973,0.171004877996121,0.00034));
#1071=CARTESIAN_POINT('',(0.0474149190951973,0.171004877863239,0.00034));
#1072=CARTESIAN_POINT('',(0.0474149190934489,0.171024877863239,0.00034));
#1073=CARTESIAN_POINT('',(0.0474149190934489,0.171024877863239,0.00034));
#1074=CARTESIAN_POINT('',(0.0476749190934489,0.171024877885969,0.00034));
#1075=CARTESIAN_POINT('',(0.0474149190934489,0.171024877863239,4.E-5));
#1076=CARTESIAN_POINT('',(0.0474149190934489,0.171024877863239,0.00034));
#1077=CARTESIAN_POINT('',(0.0474149190934489,0.171024877863239,4.E-5));
#1078=CARTESIAN_POINT('',(0.0474149190951973,0.171004877863239,0.00034));
#1079=CARTESIAN_POINT('',(0.0474149190951973,0.171004877863239,4.E-5));
#1080=CARTESIAN_POINT('',(0.0474149190934489,0.171024877863239,4.E-5));
#1081=CARTESIAN_POINT('',(0.0489349190934489,0.171024877996121,4.E-5));
#1082=CARTESIAN_POINT('',(0.0486749190934489,0.171024877973391,4.E-5));
#1083=CARTESIAN_POINT('',(0.0486749190951973,0.171004877973391,4.E-5));
#1084=CARTESIAN_POINT('',(0.0489349190951973,0.171004877996121,4.E-5));
#1085=CARTESIAN_POINT('',(0.0474149190934489,0.171024877863239,4.E-5));
#1086=CARTESIAN_POINT('',(0.0476749190934489,0.171024877885969,4.E-5));
#1087=CARTESIAN_POINT('',(0.0476749190934489,0.171024877885969,4.E-5));
#1088=CARTESIAN_POINT('',(0.0489349190951973,0.171004877996121,4.E-5));
#1089=CARTESIAN_POINT('',(0.0476749190951973,0.171004877885969,4.E-5));
#1090=CARTESIAN_POINT('',(0.0476749190934489,0.171024877885969,4.E-5));
#1091=CARTESIAN_POINT('',(0.0476749191633871,0.170224877885969,0.00034));
#1092=CARTESIAN_POINT('',(0.0473749191633871,0.170224877859742,0.));
#1093=CARTESIAN_POINT('',(0.0476749191633871,0.170224877885969,0.));
#1094=CARTESIAN_POINT('',(0.0476749191633871,0.170224877885969,0.));
#1095=CARTESIAN_POINT('',(0.0476749191633871,0.170224877885969,4.E-5));
#1096=CARTESIAN_POINT('',(0.0474149191633871,0.170224877863239,4.E-5));
#1097=CARTESIAN_POINT('',(0.0474149191633871,0.170224877863239,4.E-5));
#1098=CARTESIAN_POINT('',(0.0474149191633871,0.170224877863239,4.E-5));
#1099=CARTESIAN_POINT('',(0.0474149191633871,0.170224877863239,0.00034));
#1100=CARTESIAN_POINT('',(0.0486749191633871,0.170224877973391,0.00034));
#1101=CARTESIAN_POINT('',(0.0473749190934489,0.171024877859742,0.));
#1102=CARTESIAN_POINT('',(0.0476749190934489,0.171024877885969,0.));
#1103=CARTESIAN_POINT('',(0.0476749190934489,0.171024877885969,0.));
#1104=CARTESIAN_POINT('',(0.0476749190934489,0.171024877885969,0.));
#1105=CARTESIAN_POINT('',(0.0476749190934489,0.171024877885969,0.00034));
#1106=CARTESIAN_POINT('',(0.0476749190934489,0.171024877885969,0.));
#1107=CARTESIAN_POINT('',(0.0474149190934489,0.171024877863239,4.E-5));
#1108=CARTESIAN_POINT('',(0.0474149190934489,0.171024877863239,4.E-5));
#1109=CARTESIAN_POINT('',(0.0474149191616387,0.170244877863239,4.E-5));
#1110=CARTESIAN_POINT('',(0.0474149191616387,0.170244877863239,0.00034));
#1111=CARTESIAN_POINT('',(0.0474149191616387,0.170244877863239,0.00034));
#1112=CARTESIAN_POINT('',(0.0474149190934489,0.171024877863239,0.00034));
#1113=CARTESIAN_POINT('',(0.0486749190934489,0.171024877973391,0.00034));
#1114=CARTESIAN_POINT('',(0.0489349191616386,0.170244877996121,0.00034));
#1115=CARTESIAN_POINT('',(0.0489349191616386,0.170244877996121,0.00034));
#1116=CARTESIAN_POINT('',(0.0489349190934489,0.171024877996121,0.00034));
#1117=CARTESIAN_POINT('',(0.0489349190934489,0.171024877996121,4.E-5));
#1118=CARTESIAN_POINT('',(0.0489349191616386,0.170244877996121,0.00034));
#1119=CARTESIAN_POINT('',(0.0489349191616386,0.170244877996121,4.E-5));
#1120=CARTESIAN_POINT('',(0.0489349190934489,0.171024877996121,4.E-5));
#1121=CARTESIAN_POINT('',(0.0489349190934489,0.171024877996121,4.E-5));
#1122=CARTESIAN_POINT('',(0.0489349191616386,0.170244877996121,4.E-5));
#1123=CARTESIAN_POINT('',(0.0486749191616386,0.170244877973391,4.E-5));
#1124=CARTESIAN_POINT('',(0.0486749190934489,0.171024877973391,4.E-5));
#1125=CARTESIAN_POINT('',(0.0474149190934489,0.171024877863239,4.E-5));
#1126=CARTESIAN_POINT('',(0.0476749190934489,0.171024877885969,4.E-5));
#1127=CARTESIAN_POINT('',(0.0476749191616386,0.170244877885969,4.E-5));
#1128=CARTESIAN_POINT('',(0.0489349191616386,0.170244877996121,4.E-5));
#1129=CARTESIAN_POINT('',(0.0486749190934489,0.171024877973391,0.));
#1130=CARTESIAN_POINT('',(0.0486749190951973,0.171004877973391,4.E-5));
#1131=CARTESIAN_POINT('',(0.0489349190951973,0.171004877996121,0.00034));
#1132=CARTESIAN_POINT('',(0.0474149190951973,0.171004877863239,4.E-5));
#1133=CARTESIAN_POINT('',(0.0476749190934489,0.171024877885969,0.));
#1134=CARTESIAN_POINT('',(0.0476749190951973,0.171004877885969,4.E-5));
#1135=CARTESIAN_POINT('',(0.0489349191616386,0.170244877996121,0.00034));
#1136=CARTESIAN_POINT('',(0.0474149191616387,0.170244877863239,4.E-5));
#1137=CARTESIAN_POINT('',(0.0474149190951973,0.171004877863239,4.E-5));
#1138=MECHANICAL_DESIGN_GEOMETRIC_PRESENTATION_REPRESENTATION('',(#681,
#634,#635,#636,#637,#638,#639,#640,#641,#642,#643),#1139);
#1139=(
GEOMETRIC_REPRESENTATION_CONTEXT(3)
GLOBAL_UNCERTAINTY_ASSIGNED_CONTEXT((#1140))
GLOBAL_UNIT_ASSIGNED_CONTEXT((#1143,#1142,#1141))
REPRESENTATION_CONTEXT('r2','TOP_LEVEL_ASSEMBLY_PART')
);
#1140=UNCERTAINTY_MEASURE_WITH_UNIT(LENGTH_MEASURE(5.E-6),#1143,
'DISTANCE_ACCURACY_VALUE','Maximum Tolerance applied to model');
#1141=(
NAMED_UNIT(*)
SI_UNIT($,.STERADIAN.)
SOLID_ANGLE_UNIT()
);
#1142=(
NAMED_UNIT(*)
PLANE_ANGLE_UNIT()
SI_UNIT($,.RADIAN.)
);
#1143=(
LENGTH_UNIT()
NAMED_UNIT(*)
SI_UNIT($,.METRE.)
);
#1144=PRODUCT_DEFINITION_SHAPE('','',#1145);
#1145=PRODUCT_DEFINITION('','',#1147,#1146);
#1146=PRODUCT_DEFINITION_CONTEXT('',#1153,'design');
#1147=PRODUCT_DEFINITION_FORMATION_WITH_SPECIFIED_SOURCE('','',#1149,
 .NOT_KNOWN.);
#1148=PRODUCT_RELATED_PRODUCT_CATEGORY('','',(#1149));
#1149=PRODUCT('r2','r2','r2',(#1151));
#1150=PRODUCT_CATEGORY('','');
#1151=PRODUCT_CONTEXT('',#1153,'mechanical');
#1152=APPLICATION_PROTOCOL_DEFINITION('international standard',
'automotive_design',2010,#1153);
#1153=APPLICATION_CONTEXT(
'core data for automotive mechanical design processes');
ENDSEC;
END-ISO-10303-21;
