ISO-10303-21;
HEADER;
/* Generated by software containing ST-Developer
 * from STEP Tools, Inc. (www.steptools.com) 
 */
/* OPTION: using custom renumber hook */

FILE_DESCRIPTION(
/* description */ ('STEP AP214'),
/* implementation_level */ '2;1');

FILE_NAME(
/* name */ '654cf5bf7f9aa566be17233d',
/* time_stamp */ '2023-11-09T15:07:45Z',
/* author */ (''),
/* organization */ (''),
/* preprocessor_version */ 'ST-DEVELOPER v19.4',
/* originating_system */ '  ',
/* authorisation */ '  ');

FILE_SCHEMA (('AUTOMOTIVE_DESIGN {1 0 10303 214 3 1 1}'));
ENDSEC;

DATA;
#10=PROPERTY_DEFINITION_REPRESENTATION(#14,#12);
#11=PROPERTY_DEFINITION_REPRESENTATION(#15,#13);
#12=REPRESENTATION('',(#16),#1106);
#13=REPRESENTATION('',(#17),#1106);
#14=PROPERTY_DEFINITION('pmi validation property','',#1111);
#15=PROPERTY_DEFINITION('pmi validation property','',#1111);
#16=VALUE_REPRESENTATION_ITEM('number of annotations',COUNT_MEASURE(0.));
#17=VALUE_REPRESENTATION_ITEM('number of views',COUNT_MEASURE(0.));
#18=SHAPE_REPRESENTATION_RELATIONSHIP('','',#660,#19);
#19=ADVANCED_BREP_SHAPE_REPRESENTATION('',(#658),#1106);
#20=OVER_RIDING_STYLED_ITEM('',(#627),#610,#625);
#21=OVER_RIDING_STYLED_ITEM('',(#628),#619,#625);
#22=OVER_RIDING_STYLED_ITEM('',(#629),#621,#625);
#23=OVER_RIDING_STYLED_ITEM('',(#630),#623,#625);
#24=CYLINDRICAL_SURFACE('',#668,1.E-5);
#25=CYLINDRICAL_SURFACE('',#673,1.000000000001E-5);
#26=CYLINDRICAL_SURFACE('',#678,1.E-5);
#27=CYLINDRICAL_SURFACE('',#683,1.000000000001E-5);
#28=CYLINDRICAL_SURFACE('',#688,1.E-5);
#29=CYLINDRICAL_SURFACE('',#693,1.000000000001E-5);
#30=CYLINDRICAL_SURFACE('',#698,1.E-5);
#31=CYLINDRICAL_SURFACE('',#703,1.000000000001E-5);
#32=CYLINDRICAL_SURFACE('',#704,1.E-5);
#33=CYLINDRICAL_SURFACE('',#707,1.E-5);
#34=CYLINDRICAL_SURFACE('',#710,1.E-5);
#35=CYLINDRICAL_SURFACE('',#713,1.E-5);
#36=CYLINDRICAL_SURFACE('',#717,1.E-5);
#37=CYLINDRICAL_SURFACE('',#720,1.E-5);
#38=CYLINDRICAL_SURFACE('',#723,1.E-5);
#39=CYLINDRICAL_SURFACE('',#726,1.E-5);
#40=CIRCLE('',#665,1.E-5);
#41=CIRCLE('',#666,1.000000000001E-5);
#42=CIRCLE('',#667,1.E-5);
#43=CIRCLE('',#669,1.000000000001E-5);
#44=CIRCLE('',#671,1.000000000001E-5);
#45=CIRCLE('',#672,1.E-5);
#46=CIRCLE('',#674,1.000000000001E-5);
#47=CIRCLE('',#676,1.E-5);
#48=CIRCLE('',#677,1.E-5);
#49=CIRCLE('',#679,1.000000000001E-5);
#50=CIRCLE('',#681,1.E-5);
#51=CIRCLE('',#682,1.000000000001E-5);
#52=CIRCLE('',#685,1.000000000001E-5);
#53=CIRCLE('',#686,1.E-5);
#54=CIRCLE('',#687,1.E-5);
#55=CIRCLE('',#689,1.000000000001E-5);
#56=CIRCLE('',#691,1.E-5);
#57=CIRCLE('',#692,1.000000000001E-5);
#58=CIRCLE('',#694,1.000000000001E-5);
#59=CIRCLE('',#696,1.E-5);
#60=CIRCLE('',#697,1.E-5);
#61=CIRCLE('',#699,1.000000000001E-5);
#62=CIRCLE('',#701,1.000000000001E-5);
#63=CIRCLE('',#702,1.E-5);
#64=CIRCLE('',#705,1.E-5);
#65=CIRCLE('',#708,1.E-5);
#66=CIRCLE('',#711,1.E-5);
#67=CIRCLE('',#714,1.E-5);
#68=CIRCLE('',#718,1.E-5);
#69=CIRCLE('',#721,1.E-5);
#70=CIRCLE('',#724,1.E-5);
#71=CIRCLE('',#727,1.E-5);
#72=SPHERICAL_SURFACE('',#664,1.00000000001707E-5);
#73=SPHERICAL_SURFACE('',#670,1.00000000002782E-5);
#74=SPHERICAL_SURFACE('',#675,9.99999999998987E-6);
#75=SPHERICAL_SURFACE('',#680,1.00000000001755E-5);
#76=SPHERICAL_SURFACE('',#684,1.00000000000784E-5);
#77=SPHERICAL_SURFACE('',#690,1.000000000001E-5);
#78=SPHERICAL_SURFACE('',#695,9.99999999998297E-6);
#79=SPHERICAL_SURFACE('',#700,1.0000000000295E-5);
#80=ORIENTED_EDGE('',*,*,#248,.F.);
#81=ORIENTED_EDGE('',*,*,#249,.F.);
#82=ORIENTED_EDGE('',*,*,#250,.F.);
#83=ORIENTED_EDGE('',*,*,#251,.F.);
#84=ORIENTED_EDGE('',*,*,#252,.F.);
#85=ORIENTED_EDGE('',*,*,#253,.F.);
#86=ORIENTED_EDGE('',*,*,#254,.F.);
#87=ORIENTED_EDGE('',*,*,#255,.F.);
#88=ORIENTED_EDGE('',*,*,#256,.F.);
#89=ORIENTED_EDGE('',*,*,#257,.F.);
#90=ORIENTED_EDGE('',*,*,#258,.F.);
#91=ORIENTED_EDGE('',*,*,#256,.T.);
#92=ORIENTED_EDGE('',*,*,#259,.T.);
#93=ORIENTED_EDGE('',*,*,#260,.F.);
#94=ORIENTED_EDGE('',*,*,#249,.T.);
#95=ORIENTED_EDGE('',*,*,#261,.F.);
#96=ORIENTED_EDGE('',*,*,#260,.T.);
#97=ORIENTED_EDGE('',*,*,#262,.F.);
#98=ORIENTED_EDGE('',*,*,#263,.F.);
#99=ORIENTED_EDGE('',*,*,#250,.T.);
#100=ORIENTED_EDGE('',*,*,#261,.T.);
#101=ORIENTED_EDGE('',*,*,#264,.F.);
#102=ORIENTED_EDGE('',*,*,#265,.F.);
#103=ORIENTED_EDGE('',*,*,#266,.F.);
#104=ORIENTED_EDGE('',*,*,#263,.T.);
#105=ORIENTED_EDGE('',*,*,#267,.F.);
#106=ORIENTED_EDGE('',*,*,#251,.T.);
#107=ORIENTED_EDGE('',*,*,#266,.T.);
#108=ORIENTED_EDGE('',*,*,#268,.T.);
#109=ORIENTED_EDGE('',*,*,#269,.F.);
#110=ORIENTED_EDGE('',*,*,#270,.F.);
#111=ORIENTED_EDGE('',*,*,#267,.T.);
#112=ORIENTED_EDGE('',*,*,#257,.T.);
#113=ORIENTED_EDGE('',*,*,#248,.T.);
#114=ORIENTED_EDGE('',*,*,#270,.T.);
#115=ORIENTED_EDGE('',*,*,#271,.T.);
#116=ORIENTED_EDGE('',*,*,#272,.F.);
#117=ORIENTED_EDGE('',*,*,#273,.F.);
#118=ORIENTED_EDGE('',*,*,#274,.F.);
#119=ORIENTED_EDGE('',*,*,#274,.T.);
#120=ORIENTED_EDGE('',*,*,#275,.T.);
#121=ORIENTED_EDGE('',*,*,#276,.F.);
#122=ORIENTED_EDGE('',*,*,#255,.T.);
#123=ORIENTED_EDGE('',*,*,#276,.T.);
#124=ORIENTED_EDGE('',*,*,#277,.F.);
#125=ORIENTED_EDGE('',*,*,#278,.F.);
#126=ORIENTED_EDGE('',*,*,#278,.T.);
#127=ORIENTED_EDGE('',*,*,#279,.F.);
#128=ORIENTED_EDGE('',*,*,#280,.F.);
#129=ORIENTED_EDGE('',*,*,#252,.T.);
#130=ORIENTED_EDGE('',*,*,#281,.F.);
#131=ORIENTED_EDGE('',*,*,#280,.T.);
#132=ORIENTED_EDGE('',*,*,#282,.F.);
#133=ORIENTED_EDGE('',*,*,#283,.F.);
#134=ORIENTED_EDGE('',*,*,#253,.T.);
#135=ORIENTED_EDGE('',*,*,#281,.T.);
#136=ORIENTED_EDGE('',*,*,#284,.T.);
#137=ORIENTED_EDGE('',*,*,#285,.F.);
#138=ORIENTED_EDGE('',*,*,#283,.T.);
#139=ORIENTED_EDGE('',*,*,#286,.F.);
#140=ORIENTED_EDGE('',*,*,#285,.T.);
#141=ORIENTED_EDGE('',*,*,#287,.T.);
#142=ORIENTED_EDGE('',*,*,#272,.T.);
#143=ORIENTED_EDGE('',*,*,#254,.T.);
#144=ORIENTED_EDGE('',*,*,#258,.T.);
#145=ORIENTED_EDGE('',*,*,#288,.T.);
#146=ORIENTED_EDGE('',*,*,#289,.T.);
#147=ORIENTED_EDGE('',*,*,#290,.T.);
#148=ORIENTED_EDGE('',*,*,#290,.F.);
#149=ORIENTED_EDGE('',*,*,#291,.T.);
#150=ORIENTED_EDGE('',*,*,#292,.F.);
#151=ORIENTED_EDGE('',*,*,#259,.F.);
#152=ORIENTED_EDGE('',*,*,#262,.T.);
#153=ORIENTED_EDGE('',*,*,#292,.T.);
#154=ORIENTED_EDGE('',*,*,#293,.T.);
#155=ORIENTED_EDGE('',*,*,#294,.F.);
#156=ORIENTED_EDGE('',*,*,#264,.T.);
#157=ORIENTED_EDGE('',*,*,#294,.T.);
#158=ORIENTED_EDGE('',*,*,#295,.T.);
#159=ORIENTED_EDGE('',*,*,#296,.F.);
#160=ORIENTED_EDGE('',*,*,#265,.T.);
#161=ORIENTED_EDGE('',*,*,#296,.T.);
#162=ORIENTED_EDGE('',*,*,#297,.T.);
#163=ORIENTED_EDGE('',*,*,#298,.T.);
#164=ORIENTED_EDGE('',*,*,#299,.F.);
#165=ORIENTED_EDGE('',*,*,#268,.F.);
#166=ORIENTED_EDGE('',*,*,#298,.F.);
#167=ORIENTED_EDGE('',*,*,#300,.T.);
#168=ORIENTED_EDGE('',*,*,#269,.T.);
#169=ORIENTED_EDGE('',*,*,#299,.T.);
#170=ORIENTED_EDGE('',*,*,#301,.T.);
#171=ORIENTED_EDGE('',*,*,#302,.T.);
#172=ORIENTED_EDGE('',*,*,#302,.F.);
#173=ORIENTED_EDGE('',*,*,#303,.T.);
#174=ORIENTED_EDGE('',*,*,#288,.F.);
#175=ORIENTED_EDGE('',*,*,#271,.F.);
#176=ORIENTED_EDGE('',*,*,#304,.F.);
#177=ORIENTED_EDGE('',*,*,#305,.T.);
#178=ORIENTED_EDGE('',*,*,#306,.F.);
#179=ORIENTED_EDGE('',*,*,#307,.T.);
#180=ORIENTED_EDGE('',*,*,#273,.T.);
#181=ORIENTED_EDGE('',*,*,#308,.T.);
#182=ORIENTED_EDGE('',*,*,#309,.T.);
#183=ORIENTED_EDGE('',*,*,#310,.T.);
#184=ORIENTED_EDGE('',*,*,#311,.F.);
#185=ORIENTED_EDGE('',*,*,#275,.F.);
#186=ORIENTED_EDGE('',*,*,#310,.F.);
#187=ORIENTED_EDGE('',*,*,#312,.T.);
#188=ORIENTED_EDGE('',*,*,#277,.T.);
#189=ORIENTED_EDGE('',*,*,#311,.T.);
#190=ORIENTED_EDGE('',*,*,#313,.T.);
#191=ORIENTED_EDGE('',*,*,#314,.F.);
#192=ORIENTED_EDGE('',*,*,#279,.T.);
#193=ORIENTED_EDGE('',*,*,#314,.T.);
#194=ORIENTED_EDGE('',*,*,#315,.T.);
#195=ORIENTED_EDGE('',*,*,#316,.F.);
#196=ORIENTED_EDGE('',*,*,#282,.T.);
#197=ORIENTED_EDGE('',*,*,#316,.T.);
#198=ORIENTED_EDGE('',*,*,#317,.T.);
#199=ORIENTED_EDGE('',*,*,#318,.T.);
#200=ORIENTED_EDGE('',*,*,#318,.F.);
#201=ORIENTED_EDGE('',*,*,#319,.T.);
#202=ORIENTED_EDGE('',*,*,#320,.F.);
#203=ORIENTED_EDGE('',*,*,#284,.F.);
#204=ORIENTED_EDGE('',*,*,#286,.T.);
#205=ORIENTED_EDGE('',*,*,#320,.T.);
#206=ORIENTED_EDGE('',*,*,#321,.T.);
#207=ORIENTED_EDGE('',*,*,#322,.T.);
#208=ORIENTED_EDGE('',*,*,#322,.F.);
#209=ORIENTED_EDGE('',*,*,#323,.T.);
#210=ORIENTED_EDGE('',*,*,#308,.F.);
#211=ORIENTED_EDGE('',*,*,#287,.F.);
#212=ORIENTED_EDGE('',*,*,#324,.F.);
#213=ORIENTED_EDGE('',*,*,#325,.T.);
#214=ORIENTED_EDGE('',*,*,#304,.T.);
#215=ORIENTED_EDGE('',*,*,#326,.T.);
#216=ORIENTED_EDGE('',*,*,#307,.F.);
#217=ORIENTED_EDGE('',*,*,#327,.F.);
#218=ORIENTED_EDGE('',*,*,#328,.F.);
#219=ORIENTED_EDGE('',*,*,#326,.F.);
#220=ORIENTED_EDGE('',*,*,#301,.F.);
#221=ORIENTED_EDGE('',*,*,#300,.F.);
#222=ORIENTED_EDGE('',*,*,#297,.F.);
#223=ORIENTED_EDGE('',*,*,#295,.F.);
#224=ORIENTED_EDGE('',*,*,#293,.F.);
#225=ORIENTED_EDGE('',*,*,#291,.F.);
#226=ORIENTED_EDGE('',*,*,#289,.F.);
#227=ORIENTED_EDGE('',*,*,#303,.F.);
#228=ORIENTED_EDGE('',*,*,#306,.T.);
#229=ORIENTED_EDGE('',*,*,#329,.T.);
#230=ORIENTED_EDGE('',*,*,#330,.F.);
#231=ORIENTED_EDGE('',*,*,#327,.T.);
#232=ORIENTED_EDGE('',*,*,#331,.F.);
#233=ORIENTED_EDGE('',*,*,#329,.F.);
#234=ORIENTED_EDGE('',*,*,#305,.F.);
#235=ORIENTED_EDGE('',*,*,#325,.F.);
#236=ORIENTED_EDGE('',*,*,#321,.F.);
#237=ORIENTED_EDGE('',*,*,#319,.F.);
#238=ORIENTED_EDGE('',*,*,#317,.F.);
#239=ORIENTED_EDGE('',*,*,#315,.F.);
#240=ORIENTED_EDGE('',*,*,#313,.F.);
#241=ORIENTED_EDGE('',*,*,#312,.F.);
#242=ORIENTED_EDGE('',*,*,#309,.F.);
#243=ORIENTED_EDGE('',*,*,#323,.F.);
#244=ORIENTED_EDGE('',*,*,#330,.T.);
#245=ORIENTED_EDGE('',*,*,#331,.T.);
#246=ORIENTED_EDGE('',*,*,#324,.T.);
#247=ORIENTED_EDGE('',*,*,#328,.T.);
#248=EDGE_CURVE('',#332,#333,#380,.T.);
#249=EDGE_CURVE('',#334,#332,#381,.T.);
#250=EDGE_CURVE('',#335,#334,#382,.T.);
#251=EDGE_CURVE('',#333,#335,#383,.T.);
#252=EDGE_CURVE('',#336,#337,#384,.T.);
#253=EDGE_CURVE('',#338,#336,#385,.T.);
#254=EDGE_CURVE('',#339,#338,#386,.T.);
#255=EDGE_CURVE('',#337,#339,#387,.T.);
#256=EDGE_CURVE('',#332,#340,#40,.T.);
#257=EDGE_CURVE('',#341,#332,#41,.T.);
#258=EDGE_CURVE('',#340,#341,#42,.T.);
#259=EDGE_CURVE('',#340,#342,#388,.T.);
#260=EDGE_CURVE('',#334,#342,#43,.T.);
#261=EDGE_CURVE('',#334,#343,#44,.T.);
#262=EDGE_CURVE('',#343,#342,#45,.T.);
#263=EDGE_CURVE('',#335,#344,#46,.T.);
#264=EDGE_CURVE('',#344,#343,#389,.T.);
#265=EDGE_CURVE('',#345,#344,#47,.T.);
#266=EDGE_CURVE('',#335,#345,#48,.T.);
#267=EDGE_CURVE('',#333,#346,#49,.T.);
#268=EDGE_CURVE('',#345,#346,#390,.T.);
#269=EDGE_CURVE('',#347,#346,#50,.T.);
#270=EDGE_CURVE('',#333,#347,#51,.T.);
#271=EDGE_CURVE('',#347,#341,#391,.T.);
#272=EDGE_CURVE('',#348,#339,#52,.T.);
#273=EDGE_CURVE('',#349,#348,#53,.T.);
#274=EDGE_CURVE('',#339,#349,#54,.T.);
#275=EDGE_CURVE('',#349,#350,#392,.T.);
#276=EDGE_CURVE('',#337,#350,#55,.T.);
#277=EDGE_CURVE('',#351,#350,#56,.T.);
#278=EDGE_CURVE('',#337,#351,#57,.T.);
#279=EDGE_CURVE('',#352,#351,#393,.T.);
#280=EDGE_CURVE('',#336,#352,#58,.T.);
#281=EDGE_CURVE('',#336,#353,#59,.T.);
#282=EDGE_CURVE('',#353,#352,#60,.T.);
#283=EDGE_CURVE('',#338,#354,#61,.T.);
#284=EDGE_CURVE('',#353,#354,#394,.T.);
#285=EDGE_CURVE('',#338,#355,#62,.T.);
#286=EDGE_CURVE('',#355,#354,#63,.T.);
#287=EDGE_CURVE('',#355,#348,#395,.T.);
#288=EDGE_CURVE('',#341,#356,#396,.T.);
#289=EDGE_CURVE('',#356,#357,#64,.T.);
#290=EDGE_CURVE('',#357,#340,#397,.T.);
#291=EDGE_CURVE('',#357,#358,#398,.T.);
#292=EDGE_CURVE('',#342,#358,#399,.T.);
#293=EDGE_CURVE('',#358,#359,#65,.T.);
#294=EDGE_CURVE('',#343,#359,#400,.T.);
#295=EDGE_CURVE('',#359,#360,#401,.T.);
#296=EDGE_CURVE('',#344,#360,#402,.T.);
#297=EDGE_CURVE('',#360,#361,#66,.T.);
#298=EDGE_CURVE('',#361,#345,#403,.T.);
#299=EDGE_CURVE('',#346,#362,#404,.T.);
#300=EDGE_CURVE('',#361,#362,#405,.T.);
#301=EDGE_CURVE('',#362,#363,#67,.T.);
#302=EDGE_CURVE('',#363,#347,#406,.T.);
#303=EDGE_CURVE('',#363,#356,#407,.T.);
#304=EDGE_CURVE('',#364,#365,#408,.T.);
#305=EDGE_CURVE('',#364,#366,#409,.T.);
#306=EDGE_CURVE('',#367,#366,#410,.T.);
#307=EDGE_CURVE('',#367,#365,#411,.T.);
#308=EDGE_CURVE('',#348,#368,#412,.T.);
#309=EDGE_CURVE('',#368,#369,#68,.T.);
#310=EDGE_CURVE('',#369,#349,#413,.T.);
#311=EDGE_CURVE('',#350,#370,#414,.T.);
#312=EDGE_CURVE('',#369,#370,#415,.T.);
#313=EDGE_CURVE('',#370,#371,#69,.T.);
#314=EDGE_CURVE('',#351,#371,#416,.T.);
#315=EDGE_CURVE('',#371,#372,#417,.T.);
#316=EDGE_CURVE('',#352,#372,#418,.T.);
#317=EDGE_CURVE('',#372,#373,#70,.T.);
#318=EDGE_CURVE('',#373,#353,#419,.T.);
#319=EDGE_CURVE('',#373,#374,#420,.T.);
#320=EDGE_CURVE('',#354,#374,#421,.T.);
#321=EDGE_CURVE('',#374,#375,#71,.T.);
#322=EDGE_CURVE('',#375,#355,#422,.T.);
#323=EDGE_CURVE('',#375,#368,#423,.T.);
#324=EDGE_CURVE('',#376,#377,#424,.T.);
#325=EDGE_CURVE('',#376,#364,#425,.T.);
#326=EDGE_CURVE('',#365,#377,#426,.T.);
#327=EDGE_CURVE('',#378,#367,#427,.T.);
#328=EDGE_CURVE('',#377,#378,#428,.T.);
#329=EDGE_CURVE('',#366,#379,#429,.T.);
#330=EDGE_CURVE('',#378,#379,#430,.T.);
#331=EDGE_CURVE('',#379,#376,#431,.T.);
#332=VERTEX_POINT('',#935);
#333=VERTEX_POINT('',#936);
#334=VERTEX_POINT('',#938);
#335=VERTEX_POINT('',#940);
#336=VERTEX_POINT('',#944);
#337=VERTEX_POINT('',#945);
#338=VERTEX_POINT('',#947);
#339=VERTEX_POINT('',#949);
#340=VERTEX_POINT('',#953);
#341=VERTEX_POINT('',#955);
#342=VERTEX_POINT('',#959);
#343=VERTEX_POINT('',#963);
#344=VERTEX_POINT('',#967);
#345=VERTEX_POINT('',#971);
#346=VERTEX_POINT('',#975);
#347=VERTEX_POINT('',#979);
#348=VERTEX_POINT('',#985);
#349=VERTEX_POINT('',#987);
#350=VERTEX_POINT('',#991);
#351=VERTEX_POINT('',#995);
#352=VERTEX_POINT('',#999);
#353=VERTEX_POINT('',#1003);
#354=VERTEX_POINT('',#1007);
#355=VERTEX_POINT('',#1011);
#356=VERTEX_POINT('',#1017);
#357=VERTEX_POINT('',#1019);
#358=VERTEX_POINT('',#1023);
#359=VERTEX_POINT('',#1027);
#360=VERTEX_POINT('',#1031);
#361=VERTEX_POINT('',#1035);
#362=VERTEX_POINT('',#1039);
#363=VERTEX_POINT('',#1043);
#364=VERTEX_POINT('',#1049);
#365=VERTEX_POINT('',#1050);
#366=VERTEX_POINT('',#1052);
#367=VERTEX_POINT('',#1054);
#368=VERTEX_POINT('',#1058);
#369=VERTEX_POINT('',#1060);
#370=VERTEX_POINT('',#1064);
#371=VERTEX_POINT('',#1068);
#372=VERTEX_POINT('',#1072);
#373=VERTEX_POINT('',#1076);
#374=VERTEX_POINT('',#1080);
#375=VERTEX_POINT('',#1084);
#376=VERTEX_POINT('',#1090);
#377=VERTEX_POINT('',#1091);
#378=VERTEX_POINT('',#1096);
#379=VERTEX_POINT('',#1100);
#380=LINE('',#934,#432);
#381=LINE('',#937,#433);
#382=LINE('',#939,#434);
#383=LINE('',#941,#435);
#384=LINE('',#943,#436);
#385=LINE('',#946,#437);
#386=LINE('',#948,#438);
#387=LINE('',#950,#439);
#388=LINE('',#958,#440);
#389=LINE('',#968,#441);
#390=LINE('',#976,#442);
#391=LINE('',#982,#443);
#392=LINE('',#990,#444);
#393=LINE('',#998,#445);
#394=LINE('',#1008,#446);
#395=LINE('',#1014,#447);
#396=LINE('',#1016,#448);
#397=LINE('',#1020,#449);
#398=LINE('',#1022,#450);
#399=LINE('',#1024,#451);
#400=LINE('',#1028,#452);
#401=LINE('',#1030,#453);
#402=LINE('',#1032,#454);
#403=LINE('',#1036,#455);
#404=LINE('',#1038,#456);
#405=LINE('',#1040,#457);
#406=LINE('',#1044,#458);
#407=LINE('',#1046,#459);
#408=LINE('',#1048,#460);
#409=LINE('',#1051,#461);
#410=LINE('',#1053,#462);
#411=LINE('',#1055,#463);
#412=LINE('',#1057,#464);
#413=LINE('',#1061,#465);
#414=LINE('',#1063,#466);
#415=LINE('',#1065,#467);
#416=LINE('',#1069,#468);
#417=LINE('',#1071,#469);
#418=LINE('',#1073,#470);
#419=LINE('',#1077,#471);
#420=LINE('',#1079,#472);
#421=LINE('',#1081,#473);
#422=LINE('',#1085,#474);
#423=LINE('',#1087,#475);
#424=LINE('',#1089,#476);
#425=LINE('',#1092,#477);
#426=LINE('',#1093,#478);
#427=LINE('',#1095,#479);
#428=LINE('',#1097,#480);
#429=LINE('',#1099,#481);
#430=LINE('',#1101,#482);
#431=LINE('',#1103,#483);
#432=VECTOR('',#738,1.);
#433=VECTOR('',#739,1.);
#434=VECTOR('',#740,1.);
#435=VECTOR('',#741,1.);
#436=VECTOR('',#744,1.);
#437=VECTOR('',#745,1.);
#438=VECTOR('',#746,1.);
#439=VECTOR('',#747,1.);
#440=VECTOR('',#758,1.);
#441=VECTOR('',#771,1.);
#442=VECTOR('',#782,1.);
#443=VECTOR('',#791,1.);
#444=VECTOR('',#802,1.);
#445=VECTOR('',#813,1.);
#446=VECTOR('',#826,1.);
#447=VECTOR('',#835,1.);
#448=VECTOR('',#838,1.);
#449=VECTOR('',#841,1.);
#450=VECTOR('',#844,1.);
#451=VECTOR('',#845,1.);
#452=VECTOR('',#850,1.);
#453=VECTOR('',#853,1.);
#454=VECTOR('',#854,1.);
#455=VECTOR('',#859,1.);
#456=VECTOR('',#862,1.);
#457=VECTOR('',#863,1.);
#458=VECTOR('',#868,1.);
#459=VECTOR('',#871,1.);
#460=VECTOR('',#874,1.);
#461=VECTOR('',#875,1.);
#462=VECTOR('',#876,1.);
#463=VECTOR('',#877,1.);
#464=VECTOR('',#880,1.);
#465=VECTOR('',#883,1.);
#466=VECTOR('',#886,1.);
#467=VECTOR('',#887,1.);
#468=VECTOR('',#892,1.);
#469=VECTOR('',#895,1.);
#470=VECTOR('',#896,1.);
#471=VECTOR('',#901,1.);
#472=VECTOR('',#904,1.);
#473=VECTOR('',#905,1.);
#474=VECTOR('',#910,1.);
#475=VECTOR('',#913,1.);
#476=VECTOR('',#916,1.);
#477=VECTOR('',#917,1.);
#478=VECTOR('',#918,1.);
#479=VECTOR('',#921,1.);
#480=VECTOR('',#922,1.);
#481=VECTOR('',#925,1.);
#482=VECTOR('',#926,1.);
#483=VECTOR('',#929,1.);
#484=EDGE_LOOP('',(#80,#81,#82,#83));
#485=EDGE_LOOP('',(#84,#85,#86,#87));
#486=EDGE_LOOP('',(#88,#89,#90));
#487=EDGE_LOOP('',(#91,#92,#93,#94));
#488=EDGE_LOOP('',(#95,#96,#97));
#489=EDGE_LOOP('',(#98,#99,#100,#101));
#490=EDGE_LOOP('',(#102,#103,#104));
#491=EDGE_LOOP('',(#105,#106,#107,#108));
#492=EDGE_LOOP('',(#109,#110,#111));
#493=EDGE_LOOP('',(#112,#113,#114,#115));
#494=EDGE_LOOP('',(#116,#117,#118));
#495=EDGE_LOOP('',(#119,#120,#121,#122));
#496=EDGE_LOOP('',(#123,#124,#125));
#497=EDGE_LOOP('',(#126,#127,#128,#129));
#498=EDGE_LOOP('',(#130,#131,#132));
#499=EDGE_LOOP('',(#133,#134,#135,#136));
#500=EDGE_LOOP('',(#137,#138,#139));
#501=EDGE_LOOP('',(#140,#141,#142,#143));
#502=EDGE_LOOP('',(#144,#145,#146,#147));
#503=EDGE_LOOP('',(#148,#149,#150,#151));
#504=EDGE_LOOP('',(#152,#153,#154,#155));
#505=EDGE_LOOP('',(#156,#157,#158,#159));
#506=EDGE_LOOP('',(#160,#161,#162,#163));
#507=EDGE_LOOP('',(#164,#165,#166,#167));
#508=EDGE_LOOP('',(#168,#169,#170,#171));
#509=EDGE_LOOP('',(#172,#173,#174,#175));
#510=EDGE_LOOP('',(#176,#177,#178,#179));
#511=EDGE_LOOP('',(#180,#181,#182,#183));
#512=EDGE_LOOP('',(#184,#185,#186,#187));
#513=EDGE_LOOP('',(#188,#189,#190,#191));
#514=EDGE_LOOP('',(#192,#193,#194,#195));
#515=EDGE_LOOP('',(#196,#197,#198,#199));
#516=EDGE_LOOP('',(#200,#201,#202,#203));
#517=EDGE_LOOP('',(#204,#205,#206,#207));
#518=EDGE_LOOP('',(#208,#209,#210,#211));
#519=EDGE_LOOP('',(#212,#213,#214,#215));
#520=EDGE_LOOP('',(#216,#217,#218,#219));
#521=EDGE_LOOP('',(#220,#221,#222,#223,#224,#225,#226,#227));
#522=EDGE_LOOP('',(#228,#229,#230,#231));
#523=EDGE_LOOP('',(#232,#233,#234,#235));
#524=EDGE_LOOP('',(#236,#237,#238,#239,#240,#241,#242,#243));
#525=EDGE_LOOP('',(#244,#245,#246,#247));
#526=FACE_BOUND('',#484,.T.);
#527=FACE_BOUND('',#485,.T.);
#528=FACE_BOUND('',#486,.T.);
#529=FACE_BOUND('',#487,.T.);
#530=FACE_BOUND('',#488,.T.);
#531=FACE_BOUND('',#489,.T.);
#532=FACE_BOUND('',#490,.T.);
#533=FACE_BOUND('',#491,.T.);
#534=FACE_BOUND('',#492,.T.);
#535=FACE_BOUND('',#493,.T.);
#536=FACE_BOUND('',#494,.T.);
#537=FACE_BOUND('',#495,.T.);
#538=FACE_BOUND('',#496,.T.);
#539=FACE_BOUND('',#497,.T.);
#540=FACE_BOUND('',#498,.T.);
#541=FACE_BOUND('',#499,.T.);
#542=FACE_BOUND('',#500,.T.);
#543=FACE_BOUND('',#501,.T.);
#544=FACE_BOUND('',#502,.T.);
#545=FACE_BOUND('',#503,.T.);
#546=FACE_BOUND('',#504,.T.);
#547=FACE_BOUND('',#505,.T.);
#548=FACE_BOUND('',#506,.T.);
#549=FACE_BOUND('',#507,.T.);
#550=FACE_BOUND('',#508,.T.);
#551=FACE_BOUND('',#509,.T.);
#552=FACE_BOUND('',#510,.T.);
#553=FACE_BOUND('',#511,.T.);
#554=FACE_BOUND('',#512,.T.);
#555=FACE_BOUND('',#513,.T.);
#556=FACE_BOUND('',#514,.T.);
#557=FACE_BOUND('',#515,.T.);
#558=FACE_BOUND('',#516,.T.);
#559=FACE_BOUND('',#517,.T.);
#560=FACE_BOUND('',#518,.T.);
#561=FACE_BOUND('',#519,.T.);
#562=FACE_BOUND('',#520,.T.);
#563=FACE_BOUND('',#521,.T.);
#564=FACE_BOUND('',#522,.T.);
#565=FACE_BOUND('',#523,.T.);
#566=FACE_BOUND('',#524,.T.);
#567=FACE_BOUND('',#525,.T.);
#568=PLANE('',#662);
#569=PLANE('',#663);
#570=PLANE('',#706);
#571=PLANE('',#709);
#572=PLANE('',#712);
#573=PLANE('',#715);
#574=PLANE('',#716);
#575=PLANE('',#719);
#576=PLANE('',#722);
#577=PLANE('',#725);
#578=PLANE('',#728);
#579=PLANE('',#729);
#580=PLANE('',#730);
#581=PLANE('',#731);
#582=PLANE('',#732);
#583=PLANE('',#733);
#584=ADVANCED_FACE('',(#526),#568,.F.);
#585=ADVANCED_FACE('',(#527),#569,.F.);
#586=ADVANCED_FACE('',(#528),#72,.T.);
#587=ADVANCED_FACE('',(#529),#24,.T.);
#588=ADVANCED_FACE('',(#530),#73,.T.);
#589=ADVANCED_FACE('',(#531),#25,.T.);
#590=ADVANCED_FACE('',(#532),#74,.T.);
#591=ADVANCED_FACE('',(#533),#26,.T.);
#592=ADVANCED_FACE('',(#534),#75,.T.);
#593=ADVANCED_FACE('',(#535),#27,.T.);
#594=ADVANCED_FACE('',(#536),#76,.T.);
#595=ADVANCED_FACE('',(#537),#28,.T.);
#596=ADVANCED_FACE('',(#538),#77,.T.);
#597=ADVANCED_FACE('',(#539),#29,.T.);
#598=ADVANCED_FACE('',(#540),#78,.T.);
#599=ADVANCED_FACE('',(#541),#30,.T.);
#600=ADVANCED_FACE('',(#542),#79,.T.);
#601=ADVANCED_FACE('',(#543),#31,.T.);
#602=ADVANCED_FACE('',(#544),#32,.T.);
#603=ADVANCED_FACE('',(#545),#570,.F.);
#604=ADVANCED_FACE('',(#546),#33,.T.);
#605=ADVANCED_FACE('',(#547),#571,.T.);
#606=ADVANCED_FACE('',(#548),#34,.T.);
#607=ADVANCED_FACE('',(#549),#572,.F.);
#608=ADVANCED_FACE('',(#550),#35,.T.);
#609=ADVANCED_FACE('',(#551),#573,.F.);
#610=ADVANCED_FACE('',(#552),#574,.T.);
#611=ADVANCED_FACE('',(#553),#36,.T.);
#612=ADVANCED_FACE('',(#554),#575,.F.);
#613=ADVANCED_FACE('',(#555),#37,.T.);
#614=ADVANCED_FACE('',(#556),#576,.T.);
#615=ADVANCED_FACE('',(#557),#38,.T.);
#616=ADVANCED_FACE('',(#558),#577,.F.);
#617=ADVANCED_FACE('',(#559),#39,.T.);
#618=ADVANCED_FACE('',(#560),#578,.F.);
#619=ADVANCED_FACE('',(#561),#579,.T.);
#620=ADVANCED_FACE('',(#562,#563),#580,.F.);
#621=ADVANCED_FACE('',(#564),#581,.T.);
#622=ADVANCED_FACE('',(#565,#566),#582,.F.);
#623=ADVANCED_FACE('',(#567),#583,.T.);
#624=CLOSED_SHELL('',(#584,#585,#586,#587,#588,#589,#590,#591,#592,#593,
#594,#595,#596,#597,#598,#599,#600,#601,#602,#603,#604,#605,#606,#607,#608,
#609,#610,#611,#612,#613,#614,#615,#616,#617,#618,#619,#620,#621,#622,#623));
#625=STYLED_ITEM('',(#626),#658);
#626=PRESENTATION_STYLE_ASSIGNMENT((#631));
#627=PRESENTATION_STYLE_ASSIGNMENT((#632));
#628=PRESENTATION_STYLE_ASSIGNMENT((#633));
#629=PRESENTATION_STYLE_ASSIGNMENT((#634));
#630=PRESENTATION_STYLE_ASSIGNMENT((#635));
#631=SURFACE_STYLE_USAGE(.BOTH.,#636);
#632=SURFACE_STYLE_USAGE(.BOTH.,#637);
#633=SURFACE_STYLE_USAGE(.BOTH.,#638);
#634=SURFACE_STYLE_USAGE(.BOTH.,#639);
#635=SURFACE_STYLE_USAGE(.BOTH.,#640);
#636=SURFACE_SIDE_STYLE('',(#641));
#637=SURFACE_SIDE_STYLE('',(#642));
#638=SURFACE_SIDE_STYLE('',(#643));
#639=SURFACE_SIDE_STYLE('',(#644));
#640=SURFACE_SIDE_STYLE('',(#645));
#641=SURFACE_STYLE_FILL_AREA(#646);
#642=SURFACE_STYLE_FILL_AREA(#647);
#643=SURFACE_STYLE_FILL_AREA(#648);
#644=SURFACE_STYLE_FILL_AREA(#649);
#645=SURFACE_STYLE_FILL_AREA(#650);
#646=FILL_AREA_STYLE('',(#651));
#647=FILL_AREA_STYLE('',(#652));
#648=FILL_AREA_STYLE('',(#653));
#649=FILL_AREA_STYLE('',(#654));
#650=FILL_AREA_STYLE('',(#655));
#651=FILL_AREA_STYLE_COLOUR('',#656);
#652=FILL_AREA_STYLE_COLOUR('',#657);
#653=FILL_AREA_STYLE_COLOUR('',#657);
#654=FILL_AREA_STYLE_COLOUR('',#657);
#655=FILL_AREA_STYLE_COLOUR('',#657);
#656=COLOUR_RGB('',0.811764705882353,0.843137254901961,0.909803921568627);
#657=COLOUR_RGB('',0.713725490196078,0.572549019607843,0.431372549019608);
#658=MANIFOLD_SOLID_BREP('r7',#624);
#659=SHAPE_DEFINITION_REPRESENTATION(#1111,#660);
#660=SHAPE_REPRESENTATION('r7',(#661),#1106);
#661=AXIS2_PLACEMENT_3D('',#932,#734,#735);
#662=AXIS2_PLACEMENT_3D('',#933,#736,#737);
#663=AXIS2_PLACEMENT_3D('',#942,#742,#743);
#664=AXIS2_PLACEMENT_3D('',#951,#748,#749);
#665=AXIS2_PLACEMENT_3D('',#952,#750,#751);
#666=AXIS2_PLACEMENT_3D('',#954,#752,#753);
#667=AXIS2_PLACEMENT_3D('',#956,#754,#755);
#668=AXIS2_PLACEMENT_3D('',#957,#756,#757);
#669=AXIS2_PLACEMENT_3D('',#960,#759,#760);
#670=AXIS2_PLACEMENT_3D('',#961,#761,#762);
#671=AXIS2_PLACEMENT_3D('',#962,#763,#764);
#672=AXIS2_PLACEMENT_3D('',#964,#765,#766);
#673=AXIS2_PLACEMENT_3D('',#965,#767,#768);
#674=AXIS2_PLACEMENT_3D('',#966,#769,#770);
#675=AXIS2_PLACEMENT_3D('',#969,#772,#773);
#676=AXIS2_PLACEMENT_3D('',#970,#774,#775);
#677=AXIS2_PLACEMENT_3D('',#972,#776,#777);
#678=AXIS2_PLACEMENT_3D('',#973,#778,#779);
#679=AXIS2_PLACEMENT_3D('',#974,#780,#781);
#680=AXIS2_PLACEMENT_3D('',#977,#783,#784);
#681=AXIS2_PLACEMENT_3D('',#978,#785,#786);
#682=AXIS2_PLACEMENT_3D('',#980,#787,#788);
#683=AXIS2_PLACEMENT_3D('',#981,#789,#790);
#684=AXIS2_PLACEMENT_3D('',#983,#792,#793);
#685=AXIS2_PLACEMENT_3D('',#984,#794,#795);
#686=AXIS2_PLACEMENT_3D('',#986,#796,#797);
#687=AXIS2_PLACEMENT_3D('',#988,#798,#799);
#688=AXIS2_PLACEMENT_3D('',#989,#800,#801);
#689=AXIS2_PLACEMENT_3D('',#992,#803,#804);
#690=AXIS2_PLACEMENT_3D('',#993,#805,#806);
#691=AXIS2_PLACEMENT_3D('',#994,#807,#808);
#692=AXIS2_PLACEMENT_3D('',#996,#809,#810);
#693=AXIS2_PLACEMENT_3D('',#997,#811,#812);
#694=AXIS2_PLACEMENT_3D('',#1000,#814,#815);
#695=AXIS2_PLACEMENT_3D('',#1001,#816,#817);
#696=AXIS2_PLACEMENT_3D('',#1002,#818,#819);
#697=AXIS2_PLACEMENT_3D('',#1004,#820,#821);
#698=AXIS2_PLACEMENT_3D('',#1005,#822,#823);
#699=AXIS2_PLACEMENT_3D('',#1006,#824,#825);
#700=AXIS2_PLACEMENT_3D('',#1009,#827,#828);
#701=AXIS2_PLACEMENT_3D('',#1010,#829,#830);
#702=AXIS2_PLACEMENT_3D('',#1012,#831,#832);
#703=AXIS2_PLACEMENT_3D('',#1013,#833,#834);
#704=AXIS2_PLACEMENT_3D('',#1015,#836,#837);
#705=AXIS2_PLACEMENT_3D('',#1018,#839,#840);
#706=AXIS2_PLACEMENT_3D('',#1021,#842,#843);
#707=AXIS2_PLACEMENT_3D('',#1025,#846,#847);
#708=AXIS2_PLACEMENT_3D('',#1026,#848,#849);
#709=AXIS2_PLACEMENT_3D('',#1029,#851,#852);
#710=AXIS2_PLACEMENT_3D('',#1033,#855,#856);
#711=AXIS2_PLACEMENT_3D('',#1034,#857,#858);
#712=AXIS2_PLACEMENT_3D('',#1037,#860,#861);
#713=AXIS2_PLACEMENT_3D('',#1041,#864,#865);
#714=AXIS2_PLACEMENT_3D('',#1042,#866,#867);
#715=AXIS2_PLACEMENT_3D('',#1045,#869,#870);
#716=AXIS2_PLACEMENT_3D('',#1047,#872,#873);
#717=AXIS2_PLACEMENT_3D('',#1056,#878,#879);
#718=AXIS2_PLACEMENT_3D('',#1059,#881,#882);
#719=AXIS2_PLACEMENT_3D('',#1062,#884,#885);
#720=AXIS2_PLACEMENT_3D('',#1066,#888,#889);
#721=AXIS2_PLACEMENT_3D('',#1067,#890,#891);
#722=AXIS2_PLACEMENT_3D('',#1070,#893,#894);
#723=AXIS2_PLACEMENT_3D('',#1074,#897,#898);
#724=AXIS2_PLACEMENT_3D('',#1075,#899,#900);
#725=AXIS2_PLACEMENT_3D('',#1078,#902,#903);
#726=AXIS2_PLACEMENT_3D('',#1082,#906,#907);
#727=AXIS2_PLACEMENT_3D('',#1083,#908,#909);
#728=AXIS2_PLACEMENT_3D('',#1086,#911,#912);
#729=AXIS2_PLACEMENT_3D('',#1088,#914,#915);
#730=AXIS2_PLACEMENT_3D('',#1094,#919,#920);
#731=AXIS2_PLACEMENT_3D('',#1098,#923,#924);
#732=AXIS2_PLACEMENT_3D('',#1102,#927,#928);
#733=AXIS2_PLACEMENT_3D('',#1104,#930,#931);
#734=DIRECTION('',(0.,0.,1.));
#735=DIRECTION('',(1.,0.,0.));
#736=DIRECTION('',(-1.,-8.74227765734797E-8,0.));
#737=DIRECTION('',(0.,0.,1.));
#738=DIRECTION('',(0.,0.,-1.));
#739=DIRECTION('',(-8.74227765734797E-8,1.,0.));
#740=DIRECTION('',(0.,0.,1.));
#741=DIRECTION('',(8.74227765734797E-8,-1.,0.));
#742=DIRECTION('',(1.,8.74227765734797E-8,0.));
#743=DIRECTION('',(0.,0.,-1.));
#744=DIRECTION('',(0.,0.,-1.));
#745=DIRECTION('',(8.74227765734797E-8,-1.,0.));
#746=DIRECTION('',(0.,0.,1.));
#747=DIRECTION('',(-8.74227765734797E-8,1.,0.));
#748=DIRECTION('',(1.,8.74223360355681E-8,1.0436096431308E-11));
#749=DIRECTION('',(-8.74223360355681E-8,1.,0.));
#750=DIRECTION('',(8.74227765734797E-8,-1.,0.));
#751=DIRECTION('',(0.,0.,-1.));
#752=DIRECTION('',(0.,0.,-1.));
#753=DIRECTION('',(-1.,-8.74245120740202E-8,0.));
#754=DIRECTION('',(-1.,-8.74227765734797E-8,0.));
#755=DIRECTION('',(0.,0.,-1.));
#756=DIRECTION('',(-8.74227765734797E-8,1.,0.));
#757=DIRECTION('',(0.,0.,1.));
#758=DIRECTION('',(8.74227765734797E-8,-1.,0.));
#759=DIRECTION('',(8.74227765734797E-8,-1.,6.7134042061338E-13));
#760=DIRECTION('',(-1.,-8.74227765734797E-8,1.08420217255424E-14));
#761=DIRECTION('',(1.,8.73654926157149E-8,1.90514271020435E-11));
#762=DIRECTION('',(-8.73654926157149E-8,1.,0.));
#763=DIRECTION('',(0.,0.,-1.));
#764=DIRECTION('',(1.,8.74217365164586E-8,0.));
#765=DIRECTION('',(-1.,-8.74227765734797E-8,0.));
#766=DIRECTION('',(0.,0.,1.));
#767=DIRECTION('',(0.,0.,-1.));
#768=DIRECTION('',(-1.,-8.74217365164586E-8,0.));
#769=DIRECTION('',(-5.3531011751643E-24,6.12323399573674E-17,-1.));
#770=DIRECTION('',(-1.,-8.74245120740202E-8,-1.06268759097652E-28));
#771=DIRECTION('',(0.,0.,1.));
#772=DIRECTION('',(-1.,-8.74251782080019E-8,0.));
#773=DIRECTION('',(0.,0.,-1.));
#774=DIRECTION('',(-1.,-8.74227765734797E-8,0.));
#775=DIRECTION('',(0.,0.,-1.));
#776=DIRECTION('',(-8.74227765734797E-8,1.,0.));
#777=DIRECTION('',(0.,0.,-1.));
#778=DIRECTION('',(-8.74227765734797E-8,1.,0.));
#779=DIRECTION('',(0.,0.,1.));
#780=DIRECTION('',(-8.74227765734797E-8,1.,0.));
#781=DIRECTION('',(-1.,-8.74227765734797E-8,0.));
#782=DIRECTION('',(-8.74227765734797E-8,1.,0.));
#783=DIRECTION('',(1.,8.74194938646251E-8,-1.35481903471601E-11));
#784=DIRECTION('',(-8.74194938646251E-8,1.,0.));
#785=DIRECTION('',(-1.,-8.74227765734797E-8,0.));
#786=DIRECTION('',(0.,0.,1.));
#787=DIRECTION('',(0.,0.,1.));
#788=DIRECTION('',(-1.,-8.74217365164586E-8,0.));
#789=DIRECTION('',(0.,0.,1.));
#790=DIRECTION('',(1.,8.74217365164586E-8,0.));
#791=DIRECTION('',(0.,0.,1.));
#792=DIRECTION('',(-1.,-8.73797034721682E-8,-9.20704484867674E-12));
#793=DIRECTION('',(-8.73797034721682E-8,1.,0.));
#794=DIRECTION('',(0.,0.,1.));
#795=DIRECTION('',(-1.,-8.74217365164586E-8,0.));
#796=DIRECTION('',(1.,8.74227765734797E-8,0.));
#797=DIRECTION('',(0.,0.,-1.));
#798=DIRECTION('',(8.74227765734797E-8,-1.,0.));
#799=DIRECTION('',(0.,0.,-1.));
#800=DIRECTION('',(-8.74227765734797E-8,1.,0.));
#801=DIRECTION('',(0.,0.,1.));
#802=DIRECTION('',(8.74227765734797E-8,-1.,0.));
#803=DIRECTION('',(8.74227765734797E-8,-1.,0.));
#804=DIRECTION('',(1.,8.74227765734797E-8,0.));
#805=DIRECTION('',(1.,8.74251782077534E-8,0.));
#806=DIRECTION('',(8.74251782077534E-8,-1.,-4.74377481739699E-12));
#807=DIRECTION('',(1.,8.74227765734797E-8,0.));
#808=DIRECTION('',(0.,0.,1.));
#809=DIRECTION('',(0.,0.,1.));
#810=DIRECTION('',(1.,8.74245120740202E-8,0.));
#811=DIRECTION('',(0.,0.,-1.));
#812=DIRECTION('',(-1.,-8.74217365164586E-8,0.));
#813=DIRECTION('',(0.,0.,-1.));
#814=DIRECTION('',(-1.60593035254929E-23,1.83697019872102E-16,1.));
#815=DIRECTION('',(1.,8.74245120740202E-8,-3.18806277273854E-28));
#816=DIRECTION('',(1.,8.74251782080019E-8,-4.74065231515371E-12));
#817=DIRECTION('',(5.68434188609045E-12,5.68434188609045E-12,1.));
#818=DIRECTION('',(-8.74227765734797E-8,1.,0.));
#819=DIRECTION('',(0.,0.,-1.));
#820=DIRECTION('',(1.,8.74227765734797E-8,0.));
#821=DIRECTION('',(0.,0.,-1.));
#822=DIRECTION('',(-8.74227765734797E-8,1.,0.));
#823=DIRECTION('',(0.,0.,1.));
#824=DIRECTION('',(-8.74227765734797E-8,1.,-6.71585349973209E-13));
#825=DIRECTION('',(1.,8.74227765734797E-8,1.08420217241457E-14));
#826=DIRECTION('',(-8.74227765734797E-8,1.,0.));
#827=DIRECTION('',(-1.,-8.73711769573525E-8,2.3769874956503E-11));
#828=DIRECTION('',(-8.73711769573525E-8,1.,0.));
#829=DIRECTION('',(0.,0.,-1.));
#830=DIRECTION('',(-1.,-8.74245120740202E-8,0.));
#831=DIRECTION('',(1.,8.74227765734797E-8,0.));
#832=DIRECTION('',(0.,0.,1.));
#833=DIRECTION('',(0.,0.,1.));
#834=DIRECTION('',(1.,8.74217365164586E-8,0.));
#835=DIRECTION('',(0.,0.,-1.));
#836=DIRECTION('',(-1.,-8.74227765734797E-8,0.));
#837=DIRECTION('',(0.,0.,1.));
#838=DIRECTION('',(-1.,-8.74227765734797E-8,0.));
#839=DIRECTION('',(1.,8.74227765734797E-8,0.));
#840=DIRECTION('',(0.,0.,-1.));
#841=DIRECTION('',(1.,8.74227765734797E-8,0.));
#842=DIRECTION('',(0.,0.,-1.));
#843=DIRECTION('',(-1.,-8.74227765734759E-8,0.));
#844=DIRECTION('',(8.74227765734797E-8,-1.,0.));
#845=DIRECTION('',(-1.,-8.74227765734797E-8,0.));
#846=DIRECTION('',(1.,8.74227765734797E-8,0.));
#847=DIRECTION('',(6.18172381445146E-8,-0.707106781177973,0.707106781195119));
#848=DIRECTION('',(1.,8.74227765734797E-8,0.));
#849=DIRECTION('',(0.,0.,1.));
#850=DIRECTION('',(-1.,-8.74227765734797E-8,0.));
#851=DIRECTION('',(8.74227765734797E-8,-1.,0.));
#852=DIRECTION('',(0.,0.,-1.));
#853=DIRECTION('',(0.,0.,-1.));
#854=DIRECTION('',(-1.,-8.74227765734797E-8,0.));
#855=DIRECTION('',(-1.,-8.74227765734797E-8,0.));
#856=DIRECTION('',(6.18172381445146E-8,-0.707106781177973,-0.707106781195119));
#857=DIRECTION('',(1.,8.74227765734797E-8,0.));
#858=DIRECTION('',(0.,0.,-1.));
#859=DIRECTION('',(1.,8.74227765734797E-8,0.));
#860=DIRECTION('',(0.,0.,1.));
#861=DIRECTION('',(1.,8.74227765734759E-8,0.));
#862=DIRECTION('',(-1.,-8.74227765734797E-8,0.));
#863=DIRECTION('',(-8.74227765734797E-8,1.,0.));
#864=DIRECTION('',(1.,8.74227765734797E-8,0.));
#865=DIRECTION('',(0.,0.,-1.));
#866=DIRECTION('',(1.,8.74227765734797E-8,0.));
#867=DIRECTION('',(0.,0.,1.));
#868=DIRECTION('',(1.,8.74227765734797E-8,0.));
#869=DIRECTION('',(8.74227765734797E-8,-1.,0.));
#870=DIRECTION('',(0.,0.,-1.));
#871=DIRECTION('',(0.,0.,1.));
#872=DIRECTION('',(-8.74227765734797E-8,1.,1.390002785238E-16));
#873=DIRECTION('',(1.94428644703861E-26,-1.39000278523801E-16,1.));
#874=DIRECTION('',(1.,8.74227765734797E-8,0.));
#875=DIRECTION('',(0.,0.,1.));
#876=DIRECTION('',(-1.,-8.74227765734797E-8,0.));
#877=DIRECTION('',(0.,0.,-1.));
#878=DIRECTION('',(-1.,-8.74227765734797E-8,0.));
#879=DIRECTION('',(0.,0.,1.));
#880=DIRECTION('',(1.,8.74227765734797E-8,0.));
#881=DIRECTION('',(-1.,-8.74227765734797E-8,0.));
#882=DIRECTION('',(0.,0.,-1.));
#883=DIRECTION('',(-1.,-8.74227765734797E-8,0.));
#884=DIRECTION('',(0.,0.,1.));
#885=DIRECTION('',(1.,8.74227765734759E-8,0.));
#886=DIRECTION('',(1.,8.74227765734797E-8,0.));
#887=DIRECTION('',(8.74227765734797E-8,-1.,0.));
#888=DIRECTION('',(1.,8.74227765734797E-8,0.));
#889=DIRECTION('',(0.,0.,-1.));
#890=DIRECTION('',(-1.,-8.74227765734797E-8,0.));
#891=DIRECTION('',(0.,0.,1.));
#892=DIRECTION('',(1.,8.74227765734797E-8,0.));
#893=DIRECTION('',(8.74227765734797E-8,-1.,0.));
#894=DIRECTION('',(0.,0.,-1.));
#895=DIRECTION('',(0.,0.,1.));
#896=DIRECTION('',(1.,8.74227765734797E-8,0.));
#897=DIRECTION('',(-1.,-8.74227765734797E-8,0.));
#898=DIRECTION('',(0.,0.,1.));
#899=DIRECTION('',(-1.,-8.74227765734797E-8,0.));
#900=DIRECTION('',(0.,0.,-1.));
#901=DIRECTION('',(-1.,-8.74227765734797E-8,0.));
#902=DIRECTION('',(0.,0.,-1.));
#903=DIRECTION('',(-1.,-8.74227765734759E-8,0.));
#904=DIRECTION('',(-8.74227765734797E-8,1.,0.));
#905=DIRECTION('',(1.,8.74227765734797E-8,0.));
#906=DIRECTION('',(1.,8.74227765734797E-8,0.));
#907=DIRECTION('',(0.,0.,-1.));
#908=DIRECTION('',(-1.,-8.74227765734797E-8,0.));
#909=DIRECTION('',(0.,0.,1.));
#910=DIRECTION('',(-1.,-8.74227765734797E-8,0.));
#911=DIRECTION('',(8.74227765734797E-8,-1.,0.));
#912=DIRECTION('',(0.,0.,-1.));
#913=DIRECTION('',(0.,0.,-1.));
#914=DIRECTION('',(0.,0.,-1.));
#915=DIRECTION('',(-1.,-8.74227765734759E-8,0.));
#916=DIRECTION('',(1.,8.74227765734797E-8,0.));
#917=DIRECTION('',(-8.74227765734797E-8,1.,0.));
#918=DIRECTION('',(8.74227765734797E-8,-1.,0.));
#919=DIRECTION('',(1.,8.74227765734797E-8,0.));
#920=DIRECTION('',(0.,0.,-1.));
#921=DIRECTION('',(-8.74227765734797E-8,1.,0.));
#922=DIRECTION('',(-1.21517902930376E-23,1.39000278523799E-16,1.));
#923=DIRECTION('',(0.,0.,1.));
#924=DIRECTION('',(1.,8.74227765734759E-8,0.));
#925=DIRECTION('',(8.74227765734797E-8,-1.,0.));
#926=DIRECTION('',(-1.,-8.74227765734797E-8,0.));
#927=DIRECTION('',(-1.,-8.74227765734797E-8,0.));
#928=DIRECTION('',(0.,0.,1.));
#929=DIRECTION('',(1.21517902930376E-23,-1.39000278523799E-16,-1.));
#930=DIRECTION('',(8.74227765734797E-8,-1.,1.390002785238E-16));
#931=DIRECTION('',(1.94428644703861E-26,-1.39000278523801E-16,-1.));
#932=CARTESIAN_POINT('',(0.,0.,0.));
#933=CARTESIAN_POINT('',(0.157724911533989,0.154599877999618,-9.77516000002371E-10));
#934=CARTESIAN_POINT('',(0.157724911464925,0.155389877999618,-9.77516000002371E-10));
#935=CARTESIAN_POINT('',(0.157724911464925,0.155389877999618,0.000789999022484));
#936=CARTESIAN_POINT('',(0.157724911464925,0.155389877999618,9.99902248399997E-6));
#937=CARTESIAN_POINT('',(0.157724911533989,0.154599877999618,0.000789999022484));
#938=CARTESIAN_POINT('',(0.157724911533115,0.154609877999618,0.000789999022484));
#939=CARTESIAN_POINT('',(0.157724911533115,0.154609877999618,0.000799999022484));
#940=CARTESIAN_POINT('',(0.157724911533115,0.154609877999618,9.99902248399997E-6));
#941=CARTESIAN_POINT('',(0.157724911533989,0.154599877999618,9.99902248399997E-6));
#942=CARTESIAN_POINT('',(0.156124911533989,0.154599877859742,-9.77516000002371E-10));
#943=CARTESIAN_POINT('',(0.156124911533115,0.154609877859742,0.000799999022484));
#944=CARTESIAN_POINT('',(0.156124911533115,0.154609877859742,0.000789999022484));
#945=CARTESIAN_POINT('',(0.156124911533115,0.154609877859742,9.99902248399992E-6));
#946=CARTESIAN_POINT('',(0.156124911533989,0.154599877859742,0.000789999022484));
#947=CARTESIAN_POINT('',(0.156124911464925,0.155389877859742,0.000789999022484));
#948=CARTESIAN_POINT('',(0.156124911464925,0.155389877859742,-9.77516000002371E-10));
#949=CARTESIAN_POINT('',(0.156124911464925,0.155389877859742,9.99902248399997E-6));
#950=CARTESIAN_POINT('',(0.156124911533989,0.154599877859742,9.99902248399997E-6));
#951=CARTESIAN_POINT('',(0.157714911464925,0.155389877998744,0.000789999022483869));
#952=CARTESIAN_POINT('',(0.157714911464925,0.155389877998744,0.000789999022484));
#953=CARTESIAN_POINT('',(0.157714911464925,0.155389877998744,0.000799999022484));
#954=CARTESIAN_POINT('',(0.157714911464925,0.155389877998744,0.000789999022484));
#955=CARTESIAN_POINT('',(0.157714911464051,0.155399877998744,0.000789999022484));
#956=CARTESIAN_POINT('',(0.157714911464925,0.155389877998744,0.000789999022484));
#957=CARTESIAN_POINT('',(0.157714911533989,0.154599877998744,0.000789999022484));
#958=CARTESIAN_POINT('',(0.157714911533989,0.154599877998744,0.000799999022484));
#959=CARTESIAN_POINT('',(0.157714911533115,0.154609877998744,0.000799999022484));
#960=CARTESIAN_POINT('',(0.157714911533115,0.154609877998744,0.000789999022484));
#961=CARTESIAN_POINT('',(0.157714911533115,0.154609877998744,0.000789999022483809));
#962=CARTESIAN_POINT('',(0.157714911533115,0.154609877998744,0.000789999022484));
#963=CARTESIAN_POINT('',(0.157714911533989,0.154599877998744,0.000789999022484));
#964=CARTESIAN_POINT('',(0.157714911533115,0.154609877998744,0.000789999022484));
#965=CARTESIAN_POINT('',(0.157714911533115,0.154609877998744,0.000799999022484));
#966=CARTESIAN_POINT('',(0.157714911533115,0.154609877998744,9.99902248399997E-6));
#967=CARTESIAN_POINT('',(0.157714911533989,0.154599877998744,9.99902248399997E-6));
#968=CARTESIAN_POINT('',(0.157714911533989,0.154599877998744,0.000799999022484));
#969=CARTESIAN_POINT('',(0.157714911533115,0.154609877998744,9.99902248399742E-6));
#970=CARTESIAN_POINT('',(0.157714911533115,0.154609877998744,9.99902248399997E-6));
#971=CARTESIAN_POINT('',(0.157714911533115,0.154609877998744,-9.77516000002371E-10));
#972=CARTESIAN_POINT('',(0.157714911533115,0.154609877998744,9.99902248399997E-6));
#973=CARTESIAN_POINT('',(0.157714911533989,0.154599877998744,9.99902248399997E-6));
#974=CARTESIAN_POINT('',(0.157714911464925,0.155389877998744,9.99902248399997E-6));
#975=CARTESIAN_POINT('',(0.157714911464925,0.155389877998744,-9.77516000056581E-10));
#976=CARTESIAN_POINT('',(0.157714911533989,0.154599877998744,-9.77516000002371E-10));
#977=CARTESIAN_POINT('',(0.157714911464925,0.155389877998744,9.9990224841329E-6));
#978=CARTESIAN_POINT('',(0.157714911464925,0.155389877998744,9.99902248399997E-6));
#979=CARTESIAN_POINT('',(0.157714911464051,0.155399877998744,9.99902248399992E-6));
#980=CARTESIAN_POINT('',(0.157714911464925,0.155389877998744,9.99902248399997E-6));
#981=CARTESIAN_POINT('',(0.157714911464925,0.155389877998744,-9.77516000002371E-10));
#982=CARTESIAN_POINT('',(0.157714911464051,0.155399877998744,0.000799999022484));
#983=CARTESIAN_POINT('',(0.156134911464925,0.155389877860616,9.99902248410575E-6));
#984=CARTESIAN_POINT('',(0.156134911464925,0.155389877860616,9.99902248399997E-6));
#985=CARTESIAN_POINT('',(0.156134911464051,0.155399877860616,9.99902248399992E-6));
#986=CARTESIAN_POINT('',(0.156134911464925,0.155389877860616,9.99902248399997E-6));
#987=CARTESIAN_POINT('',(0.156134911464925,0.155389877860616,-9.77516000002371E-10));
#988=CARTESIAN_POINT('',(0.156134911464925,0.155389877860616,9.99902248399997E-6));
#989=CARTESIAN_POINT('',(0.156134911533989,0.154599877860616,9.99902248399997E-6));
#990=CARTESIAN_POINT('',(0.156134911533989,0.154599877860616,-9.77516000002371E-10));
#991=CARTESIAN_POINT('',(0.156134911533115,0.154609877860616,-9.77516000056581E-10));
#992=CARTESIAN_POINT('',(0.156134911533115,0.154609877860616,9.99902248399997E-6));
#993=CARTESIAN_POINT('',(0.156134911533115,0.154609877860616,9.99902248403499E-6));
#994=CARTESIAN_POINT('',(0.156134911533115,0.154609877860616,9.99902248399997E-6));
#995=CARTESIAN_POINT('',(0.156134911533989,0.154599877860616,9.99902248399992E-6));
#996=CARTESIAN_POINT('',(0.156134911533115,0.154609877860616,9.99902248399992E-6));
#997=CARTESIAN_POINT('',(0.156134911533115,0.154609877860616,0.000799999022484));
#998=CARTESIAN_POINT('',(0.156134911533989,0.154599877860616,0.000799999022484));
#999=CARTESIAN_POINT('',(0.156134911533989,0.154599877860616,0.000789999022484));
#1000=CARTESIAN_POINT('',(0.156134911533115,0.154609877860616,0.000789999022484));
#1001=CARTESIAN_POINT('',(0.156134911533115,0.154609877860616,0.000789999022484044));
#1002=CARTESIAN_POINT('',(0.156134911533115,0.154609877860616,0.000789999022484));
#1003=CARTESIAN_POINT('',(0.156134911533115,0.154609877860616,0.000799999022484));
#1004=CARTESIAN_POINT('',(0.156134911533115,0.154609877860616,0.000789999022484));
#1005=CARTESIAN_POINT('',(0.156134911533989,0.154599877860616,0.000789999022484));
#1006=CARTESIAN_POINT('',(0.156134911464925,0.155389877860616,0.000789999022484));
#1007=CARTESIAN_POINT('',(0.156134911464925,0.155389877860616,0.000799999022484));
#1008=CARTESIAN_POINT('',(0.156134911533989,0.154599877860616,0.000799999022484));
#1009=CARTESIAN_POINT('',(0.156134911464925,0.155389877860616,0.000789999022483779));
#1010=CARTESIAN_POINT('',(0.156134911464925,0.155389877860616,0.000789999022484));
#1011=CARTESIAN_POINT('',(0.156134911464051,0.155399877860616,0.000789999022484));
#1012=CARTESIAN_POINT('',(0.156134911464925,0.155389877860616,0.000789999022484));
#1013=CARTESIAN_POINT('',(0.156134911464925,0.155389877860616,-9.77516000002371E-10));
#1014=CARTESIAN_POINT('',(0.156134911464051,0.155399877860616,0.000799999022484));
#1015=CARTESIAN_POINT('',(0.157724911464925,0.155389877999618,0.000789999022484));
#1016=CARTESIAN_POINT('',(0.157724911464051,0.155399877999618,0.000789999022484));
#1017=CARTESIAN_POINT('',(0.157374911464051,0.15539987796902,0.000789999022484));
#1018=CARTESIAN_POINT('',(0.157374911464925,0.15538987796902,0.000789999022484));
#1019=CARTESIAN_POINT('',(0.157374911464925,0.15538987796902,0.000799999022484));
#1020=CARTESIAN_POINT('',(0.157724911464925,0.155389877999618,0.000799999022484));
#1021=CARTESIAN_POINT('',(0.157724911533989,0.154599877999618,0.000799999022484));
#1022=CARTESIAN_POINT('',(0.157374911533989,0.15459987796902,0.000799999022484));
#1023=CARTESIAN_POINT('',(0.157374911533115,0.15460987796902,0.000799999022484));
#1024=CARTESIAN_POINT('',(0.157724911533115,0.154609877999618,0.000799999022484));
#1025=CARTESIAN_POINT('',(0.157724911533115,0.154609877999618,0.000789999022484));
#1026=CARTESIAN_POINT('',(0.157374911533115,0.15460987796902,0.000789999022484));
#1027=CARTESIAN_POINT('',(0.157374911533989,0.15459987796902,0.000789999022484));
#1028=CARTESIAN_POINT('',(0.157724911533989,0.154599877999618,0.000789999022484));
#1029=CARTESIAN_POINT('',(0.157724911533989,0.154599877999618,0.000799999022484));
#1030=CARTESIAN_POINT('',(0.157374911533989,0.15459987796902,-9.77516000002371E-10));
#1031=CARTESIAN_POINT('',(0.157374911533989,0.15459987796902,9.99902248399997E-6));
#1032=CARTESIAN_POINT('',(0.157724911533989,0.154599877999618,9.99902248399997E-6));
#1033=CARTESIAN_POINT('',(0.157724911533115,0.154609877999618,9.99902248399997E-6));
#1034=CARTESIAN_POINT('',(0.157374911533115,0.15460987796902,9.99902248399997E-6));
#1035=CARTESIAN_POINT('',(0.157374911533115,0.15460987796902,-9.77516000002371E-10));
#1036=CARTESIAN_POINT('',(0.157724911533115,0.154609877999618,-9.77516000002371E-10));
#1037=CARTESIAN_POINT('',(0.157724911533989,0.154599877999618,-9.77516000002371E-10));
#1038=CARTESIAN_POINT('',(0.157724911464925,0.155389877999618,-9.77516000056581E-10));
#1039=CARTESIAN_POINT('',(0.157374911464925,0.15538987796902,-9.77516000056581E-10));
#1040=CARTESIAN_POINT('',(0.157374911533989,0.15459987796902,-9.77516000002371E-10));
#1041=CARTESIAN_POINT('',(0.157724911464925,0.155389877999618,9.99902248399997E-6));
#1042=CARTESIAN_POINT('',(0.157374911464925,0.15538987796902,9.99902248399997E-6));
#1043=CARTESIAN_POINT('',(0.157374911464051,0.15539987796902,9.99902248399997E-6));
#1044=CARTESIAN_POINT('',(0.157724911464051,0.155399877999618,9.99902248399992E-6));
#1045=CARTESIAN_POINT('',(0.157724911464051,0.155399877999618,0.000799999022484));
#1046=CARTESIAN_POINT('',(0.157374911464051,0.15539987796902,-9.77516000002371E-10));
#1047=CARTESIAN_POINT('',(0.158477998043576,0.155389878065455,0.000789999022484));
#1048=CARTESIAN_POINT('',(0.158477998043576,0.155389878065455,9.99902248399997E-6));
#1049=CARTESIAN_POINT('',(0.156474911464925,0.15538987789034,9.99902248399997E-6));
#1050=CARTESIAN_POINT('',(0.157374911464925,0.15538987796902,9.99902248399997E-6));
#1051=CARTESIAN_POINT('',(0.156474911464925,0.15538987789034,-9.77516000002371E-10));
#1052=CARTESIAN_POINT('',(0.156474911464925,0.15538987789034,0.000789999022484));
#1053=CARTESIAN_POINT('',(0.158477998043576,0.155389878065455,0.000789999022484));
#1054=CARTESIAN_POINT('',(0.157374911464925,0.15538987796902,0.000789999022484));
#1055=CARTESIAN_POINT('',(0.157374911464925,0.15538987796902,-9.77516000002371E-10));
#1056=CARTESIAN_POINT('',(0.156124911464925,0.155389877859742,9.99902248399997E-6));
#1057=CARTESIAN_POINT('',(0.156124911464051,0.155399877859742,9.99902248399992E-6));
#1058=CARTESIAN_POINT('',(0.156474911464051,0.15539987789034,9.99902248399997E-6));
#1059=CARTESIAN_POINT('',(0.156474911464925,0.15538987789034,9.99902248399997E-6));
#1060=CARTESIAN_POINT('',(0.156474911464925,0.15538987789034,-9.77516000002371E-10));
#1061=CARTESIAN_POINT('',(0.156124911464925,0.155389877859742,-9.77516000002371E-10));
#1062=CARTESIAN_POINT('',(0.156124911533989,0.154599877859742,-9.77516000002371E-10));
#1063=CARTESIAN_POINT('',(0.156124911533115,0.154609877859742,-9.77516000056581E-10));
#1064=CARTESIAN_POINT('',(0.156474911533115,0.15460987789034,-9.77516000056581E-10));
#1065=CARTESIAN_POINT('',(0.156474911533989,0.15459987789034,-9.77516000002371E-10));
#1066=CARTESIAN_POINT('',(0.156124911533115,0.154609877859742,9.99902248399997E-6));
#1067=CARTESIAN_POINT('',(0.156474911533115,0.15460987789034,9.99902248399997E-6));
#1068=CARTESIAN_POINT('',(0.156474911533989,0.15459987789034,9.99902248399997E-6));
#1069=CARTESIAN_POINT('',(0.156124911533989,0.154599877859742,9.99902248399992E-6));
#1070=CARTESIAN_POINT('',(0.156124911533989,0.154599877859742,0.000799999022484));
#1071=CARTESIAN_POINT('',(0.156474911533989,0.15459987789034,-9.77516000002371E-10));
#1072=CARTESIAN_POINT('',(0.156474911533989,0.15459987789034,0.000789999022484));
#1073=CARTESIAN_POINT('',(0.156124911533989,0.154599877859742,0.000789999022484));
#1074=CARTESIAN_POINT('',(0.156124911533115,0.154609877859742,0.000789999022484));
#1075=CARTESIAN_POINT('',(0.156474911533115,0.15460987789034,0.000789999022484));
#1076=CARTESIAN_POINT('',(0.156474911533115,0.15460987789034,0.000799999022484));
#1077=CARTESIAN_POINT('',(0.156124911533115,0.154609877859742,0.000799999022484));
#1078=CARTESIAN_POINT('',(0.156124911533989,0.154599877859742,0.000799999022484));
#1079=CARTESIAN_POINT('',(0.156474911533989,0.15459987789034,0.000799999022484));
#1080=CARTESIAN_POINT('',(0.156474911464925,0.15538987789034,0.000799999022484));
#1081=CARTESIAN_POINT('',(0.156124911464925,0.155389877859742,0.000799999022484));
#1082=CARTESIAN_POINT('',(0.156124911464925,0.155389877859742,0.000789999022484));
#1083=CARTESIAN_POINT('',(0.156474911464925,0.15538987789034,0.000789999022484));
#1084=CARTESIAN_POINT('',(0.156474911464051,0.15539987789034,0.000789999022484));
#1085=CARTESIAN_POINT('',(0.156124911464051,0.155399877859742,0.000789999022484));
#1086=CARTESIAN_POINT('',(0.156124911464051,0.155399877859742,0.000799999022484));
#1087=CARTESIAN_POINT('',(0.156474911464051,0.15539987789034,-9.77516000002371E-10));
#1088=CARTESIAN_POINT('',(0.158477998111766,0.154609878065455,9.99902248399997E-6));
#1089=CARTESIAN_POINT('',(0.158477998111766,0.154609878065455,9.99902248399997E-6));
#1090=CARTESIAN_POINT('',(0.156474911533115,0.15460987789034,9.99902248399997E-6));
#1091=CARTESIAN_POINT('',(0.157374911533115,0.15460987796902,9.99902248399997E-6));
#1092=CARTESIAN_POINT('',(0.156474911533989,0.15459987789034,9.99902248399997E-6));
#1093=CARTESIAN_POINT('',(0.157374911533989,0.15459987796902,9.99902248399997E-6));
#1094=CARTESIAN_POINT('',(0.157374911533989,0.15459987796902,-9.77516000002371E-10));
#1095=CARTESIAN_POINT('',(0.157374911533115,0.15460987796902,0.000789999022484));
#1096=CARTESIAN_POINT('',(0.157374911533115,0.15460987796902,0.000789999022484));
#1097=CARTESIAN_POINT('',(0.157374911533115,0.15460987796902,0.000789999022484));
#1098=CARTESIAN_POINT('',(0.158477998111766,0.154609878065455,0.000789999022484));
#1099=CARTESIAN_POINT('',(0.156474911533989,0.15459987789034,0.000789999022484));
#1100=CARTESIAN_POINT('',(0.156474911533115,0.15460987789034,0.000789999022484));
#1101=CARTESIAN_POINT('',(0.158477998111766,0.154609878065455,0.000789999022484));
#1102=CARTESIAN_POINT('',(0.156474911533989,0.15459987789034,-9.77516000002371E-10));
#1103=CARTESIAN_POINT('',(0.156474911533115,0.15460987789034,0.000789999022484));
#1104=CARTESIAN_POINT('',(0.158477998111766,0.154609878065455,0.000789999022484));
#1105=MECHANICAL_DESIGN_GEOMETRIC_PRESENTATION_REPRESENTATION('',(#625,
#20,#21,#22,#23),#1106);
#1106=(
GEOMETRIC_REPRESENTATION_CONTEXT(3)
GLOBAL_UNCERTAINTY_ASSIGNED_CONTEXT((#1107))
GLOBAL_UNIT_ASSIGNED_CONTEXT((#1110,#1109,#1108))
REPRESENTATION_CONTEXT('r7','TOP_LEVEL_ASSEMBLY_PART')
);
#1107=UNCERTAINTY_MEASURE_WITH_UNIT(LENGTH_MEASURE(5.E-6),#1110,
'DISTANCE_ACCURACY_VALUE','Maximum Tolerance applied to model');
#1108=(
NAMED_UNIT(*)
SI_UNIT($,.STERADIAN.)
SOLID_ANGLE_UNIT()
);
#1109=(
NAMED_UNIT(*)
PLANE_ANGLE_UNIT()
SI_UNIT($,.RADIAN.)
);
#1110=(
LENGTH_UNIT()
NAMED_UNIT(*)
SI_UNIT($,.METRE.)
);
#1111=PRODUCT_DEFINITION_SHAPE('','',#1112);
#1112=PRODUCT_DEFINITION('','',#1114,#1113);
#1113=PRODUCT_DEFINITION_CONTEXT('',#1120,'design');
#1114=PRODUCT_DEFINITION_FORMATION_WITH_SPECIFIED_SOURCE('','',#1116,
 .NOT_KNOWN.);
#1115=PRODUCT_RELATED_PRODUCT_CATEGORY('','',(#1116));
#1116=PRODUCT('r7','r7','r7',(#1118));
#1117=PRODUCT_CATEGORY('','');
#1118=PRODUCT_CONTEXT('',#1120,'mechanical');
#1119=APPLICATION_PROTOCOL_DEFINITION('international standard',
'automotive_design',2010,#1120);
#1120=APPLICATION_CONTEXT(
'core data for automotive mechanical design processes');
ENDSEC;
END-ISO-10303-21;
