ISO-10303-21;
HEADER;
/* Generated by software containing ST-Developer
 * from STEP Tools, Inc. (www.steptools.com) 
 */
/* OPTION: using custom renumber hook */

FILE_DESCRIPTION(
/* description */ ('STEP AP214'),
/* implementation_level */ '2;1');

FILE_NAME(
/* name */ '654cf5a57f9aa566be17229c',
/* time_stamp */ '2023-11-09T15:07:18Z',
/* author */ (''),
/* organization */ (''),
/* preprocessor_version */ 'ST-DEVELOPER v19.4',
/* originating_system */ '  ',
/* authorisation */ '  ');

FILE_SCHEMA (('AUTOMOTIVE_DESIGN {1 0 10303 214 3 1 1}'));
ENDSEC;

DATA;
#10=PROPERTY_DEFINITION_REPRESENTATION(#14,#12);
#11=PROPERTY_DEFINITION_REPRESENTATION(#15,#13);
#12=REPRESENTATION('',(#16),#223);
#13=REPRESENTATION('',(#17),#223);
#14=PROPERTY_DEFINITION('pmi validation property','',#228);
#15=PROPERTY_DEFINITION('pmi validation property','',#228);
#16=VALUE_REPRESENTATION_ITEM('number of annotations',COUNT_MEASURE(0.));
#17=VALUE_REPRESENTATION_ITEM('number of views',COUNT_MEASURE(0.));
#18=SHAPE_REPRESENTATION_RELATIONSHIP('','',#139,#19);
#19=ADVANCED_BREP_SHAPE_REPRESENTATION('',(#137),#223);
#20=CYLINDRICAL_SURFACE('',#149,0.00125);
#21=CYLINDRICAL_SURFACE('',#151,0.0027);
#22=CYLINDRICAL_SURFACE('',#153,0.0027);
#23=LINE('',#197,#31);
#24=LINE('',#201,#32);
#25=LINE('',#208,#33);
#26=LINE('',#212,#34);
#27=LINE('',#215,#35);
#28=LINE('',#216,#36);
#29=LINE('',#218,#37);
#30=LINE('',#220,#38);
#31=VECTOR('',#162,1.);
#32=VECTOR('',#165,1.);
#33=VECTOR('',#172,1.);
#34=VECTOR('',#175,1.);
#35=VECTOR('',#180,1.);
#36=VECTOR('',#181,1.);
#37=VECTOR('',#184,1.);
#38=VECTOR('',#187,1.);
#39=ORIENTED_EDGE('',*,*,#67,.T.);
#40=ORIENTED_EDGE('',*,*,#68,.F.);
#41=ORIENTED_EDGE('',*,*,#69,.F.);
#42=ORIENTED_EDGE('',*,*,#70,.F.);
#43=ORIENTED_EDGE('',*,*,#71,.F.);
#44=ORIENTED_EDGE('',*,*,#72,.F.);
#45=ORIENTED_EDGE('',*,*,#73,.T.);
#46=ORIENTED_EDGE('',*,*,#74,.T.);
#47=ORIENTED_EDGE('',*,*,#75,.T.);
#48=ORIENTED_EDGE('',*,*,#76,.T.);
#49=ORIENTED_EDGE('',*,*,#67,.F.);
#50=ORIENTED_EDGE('',*,*,#72,.T.);
#51=ORIENTED_EDGE('',*,*,#69,.T.);
#52=ORIENTED_EDGE('',*,*,#77,.F.);
#53=ORIENTED_EDGE('',*,*,#76,.F.);
#54=ORIENTED_EDGE('',*,*,#78,.T.);
#55=ORIENTED_EDGE('',*,*,#70,.T.);
#56=ORIENTED_EDGE('',*,*,#78,.F.);
#57=ORIENTED_EDGE('',*,*,#75,.F.);
#58=ORIENTED_EDGE('',*,*,#79,.T.);
#59=ORIENTED_EDGE('',*,*,#71,.T.);
#60=ORIENTED_EDGE('',*,*,#79,.F.);
#61=ORIENTED_EDGE('',*,*,#74,.F.);
#62=ORIENTED_EDGE('',*,*,#80,.T.);
#63=ORIENTED_EDGE('',*,*,#68,.T.);
#64=ORIENTED_EDGE('',*,*,#80,.F.);
#65=ORIENTED_EDGE('',*,*,#73,.F.);
#66=ORIENTED_EDGE('',*,*,#77,.T.);
#67=EDGE_CURVE('',#81,#81,#91,.T.);
#68=EDGE_CURVE('',#82,#83,#92,.T.);
#69=EDGE_CURVE('',#84,#82,#23,.T.);
#70=EDGE_CURVE('',#85,#84,#93,.T.);
#71=EDGE_CURVE('',#83,#85,#24,.T.);
#72=EDGE_CURVE('',#86,#86,#94,.T.);
#73=EDGE_CURVE('',#87,#88,#95,.T.);
#74=EDGE_CURVE('',#88,#89,#25,.T.);
#75=EDGE_CURVE('',#89,#90,#96,.T.);
#76=EDGE_CURVE('',#90,#87,#26,.T.);
#77=EDGE_CURVE('',#87,#82,#27,.T.);
#78=EDGE_CURVE('',#90,#84,#28,.T.);
#79=EDGE_CURVE('',#89,#85,#29,.T.);
#80=EDGE_CURVE('',#88,#83,#30,.T.);
#81=VERTEX_POINT('',#193);
#82=VERTEX_POINT('',#195);
#83=VERTEX_POINT('',#196);
#84=VERTEX_POINT('',#198);
#85=VERTEX_POINT('',#200);
#86=VERTEX_POINT('',#204);
#87=VERTEX_POINT('',#206);
#88=VERTEX_POINT('',#207);
#89=VERTEX_POINT('',#209);
#90=VERTEX_POINT('',#211);
#91=CIRCLE('',#142,0.00125);
#92=CIRCLE('',#143,0.0027);
#93=CIRCLE('',#144,0.0027);
#94=CIRCLE('',#146,0.00125);
#95=CIRCLE('',#147,0.0027);
#96=CIRCLE('',#148,0.0027);
#97=EDGE_LOOP('',(#39));
#98=EDGE_LOOP('',(#40,#41,#42,#43));
#99=EDGE_LOOP('',(#44));
#100=EDGE_LOOP('',(#45,#46,#47,#48));
#101=EDGE_LOOP('',(#49));
#102=EDGE_LOOP('',(#50));
#103=EDGE_LOOP('',(#51,#52,#53,#54));
#104=EDGE_LOOP('',(#55,#56,#57,#58));
#105=EDGE_LOOP('',(#59,#60,#61,#62));
#106=EDGE_LOOP('',(#63,#64,#65,#66));
#107=FACE_BOUND('',#97,.T.);
#108=FACE_BOUND('',#98,.T.);
#109=FACE_BOUND('',#99,.T.);
#110=FACE_BOUND('',#100,.T.);
#111=FACE_BOUND('',#101,.T.);
#112=FACE_BOUND('',#102,.T.);
#113=FACE_BOUND('',#103,.T.);
#114=FACE_BOUND('',#104,.T.);
#115=FACE_BOUND('',#105,.T.);
#116=FACE_BOUND('',#106,.T.);
#117=PLANE('',#141);
#118=PLANE('',#145);
#119=PLANE('',#150);
#120=PLANE('',#152);
#121=ADVANCED_FACE('',(#107,#108),#117,.F.);
#122=ADVANCED_FACE('',(#109,#110),#118,.T.);
#123=ADVANCED_FACE('',(#111,#112),#20,.F.);
#124=ADVANCED_FACE('',(#113),#119,.F.);
#125=ADVANCED_FACE('',(#114),#21,.T.);
#126=ADVANCED_FACE('',(#115),#120,.F.);
#127=ADVANCED_FACE('',(#116),#22,.T.);
#128=CLOSED_SHELL('',(#121,#122,#123,#124,#125,#126,#127));
#129=STYLED_ITEM('',(#130),#137);
#130=PRESENTATION_STYLE_ASSIGNMENT((#131));
#131=SURFACE_STYLE_USAGE(.BOTH.,#132);
#132=SURFACE_SIDE_STYLE('',(#133));
#133=SURFACE_STYLE_FILL_AREA(#134);
#134=FILL_AREA_STYLE('',(#135));
#135=FILL_AREA_STYLE_COLOUR('',#136);
#136=COLOUR_RGB('',0.874509803921569,0.874509803921569,0.874509803921569);
#137=MANIFOLD_SOLID_BREP('right_motor',#128);
#138=SHAPE_DEFINITION_REPRESENTATION(#228,#139);
#139=SHAPE_REPRESENTATION('right_motor',(#140),#223);
#140=AXIS2_PLACEMENT_3D('',#190,#154,#155);
#141=AXIS2_PLACEMENT_3D('',#191,#156,#157);
#142=AXIS2_PLACEMENT_3D('',#192,#158,#159);
#143=AXIS2_PLACEMENT_3D('',#194,#160,#161);
#144=AXIS2_PLACEMENT_3D('',#199,#163,#164);
#145=AXIS2_PLACEMENT_3D('',#202,#166,#167);
#146=AXIS2_PLACEMENT_3D('',#203,#168,#169);
#147=AXIS2_PLACEMENT_3D('',#205,#170,#171);
#148=AXIS2_PLACEMENT_3D('',#210,#173,#174);
#149=AXIS2_PLACEMENT_3D('',#213,#176,#177);
#150=AXIS2_PLACEMENT_3D('',#214,#178,#179);
#151=AXIS2_PLACEMENT_3D('',#217,#182,#183);
#152=AXIS2_PLACEMENT_3D('',#219,#185,#186);
#153=AXIS2_PLACEMENT_3D('',#221,#188,#189);
#154=DIRECTION('',(0.,0.,1.));
#155=DIRECTION('',(1.,0.,0.));
#156=DIRECTION('',(1.,0.,0.));
#157=DIRECTION('',(0.,0.,-1.));
#158=DIRECTION('',(1.,0.,0.));
#159=DIRECTION('',(0.,-1.,1.83697019872103E-16));
#160=DIRECTION('',(1.,0.,0.));
#161=DIRECTION('',(0.,-1.,1.83697019872103E-16));
#162=DIRECTION('',(0.,-1.,1.37827259420168E-15));
#163=DIRECTION('',(1.,0.,0.));
#164=DIRECTION('',(0.,-1.,1.83697019872103E-16));
#165=DIRECTION('',(0.,1.,0.));
#166=DIRECTION('',(1.,0.,0.));
#167=DIRECTION('',(0.,0.,-1.));
#168=DIRECTION('',(1.,0.,0.));
#169=DIRECTION('',(0.,-1.,1.83697019872103E-16));
#170=DIRECTION('',(1.,0.,0.));
#171=DIRECTION('',(0.,-1.,1.83697019872103E-16));
#172=DIRECTION('',(0.,1.,0.));
#173=DIRECTION('',(1.,0.,0.));
#174=DIRECTION('',(0.,-1.,1.83697019872103E-16));
#175=DIRECTION('',(0.,-1.,1.37827259420168E-15));
#176=DIRECTION('',(-1.,0.,0.));
#177=DIRECTION('',(0.,0.,1.));
#178=DIRECTION('',(0.,-1.37827259420168E-15,-1.));
#179=DIRECTION('',(0.,1.,-1.37827259420168E-15));
#180=DIRECTION('',(-1.,0.,0.));
#181=DIRECTION('',(-1.,0.,0.));
#182=DIRECTION('',(-1.,0.,0.));
#183=DIRECTION('',(0.,0.,1.));
#184=DIRECTION('',(-1.,0.,0.));
#185=DIRECTION('',(0.,0.,1.));
#186=DIRECTION('',(1.,0.,0.));
#187=DIRECTION('',(-1.,0.,0.));
#188=DIRECTION('',(-1.,0.,0.));
#189=DIRECTION('',(0.,0.,1.));
#190=CARTESIAN_POINT('',(0.,0.,0.));
#191=CARTESIAN_POINT('',(0.0093,0.0116,1.73472347597681E-18));
#192=CARTESIAN_POINT('',(0.0093,0.0116,1.73472347597681E-18));
#193=CARTESIAN_POINT('',(0.0093,0.01035,1.96434475081694E-18));
#194=CARTESIAN_POINT('',(0.0093,0.0116,1.73472347597681E-18));
#195=CARTESIAN_POINT('',(0.0093,0.00963340395607029,0.00185));
#196=CARTESIAN_POINT('',(0.0093,0.00963340395607028,-0.00185));
#197=CARTESIAN_POINT('',(0.0093,0.0135665960439297,0.00185));
#198=CARTESIAN_POINT('',(0.0093,0.0135665960439297,0.00185));
#199=CARTESIAN_POINT('',(0.0093,0.0116,1.73472347597681E-18));
#200=CARTESIAN_POINT('',(0.0093,0.0135665960439297,-0.00185));
#201=CARTESIAN_POINT('',(0.0093,0.00963340395607028,-0.00185));
#202=CARTESIAN_POINT('',(0.0183,0.0116,1.73472347597681E-18));
#203=CARTESIAN_POINT('',(0.0183,0.0116,1.73472347597681E-18));
#204=CARTESIAN_POINT('',(0.0183,0.01035,1.96434475081694E-18));
#205=CARTESIAN_POINT('',(0.0183,0.0116,1.73472347597681E-18));
#206=CARTESIAN_POINT('',(0.0183,0.00963340395607029,0.00185));
#207=CARTESIAN_POINT('',(0.0183,0.00963340395607028,-0.00185));
#208=CARTESIAN_POINT('',(0.0183,0.00963340395607028,-0.00185));
#209=CARTESIAN_POINT('',(0.0183,0.0135665960439297,-0.00185));
#210=CARTESIAN_POINT('',(0.0183,0.0116,1.73472347597681E-18));
#211=CARTESIAN_POINT('',(0.0183,0.0135665960439297,0.00185));
#212=CARTESIAN_POINT('',(0.0183,0.0135665960439297,0.00185));
#213=CARTESIAN_POINT('',(0.0183,0.0116,1.73472347597681E-18));
#214=CARTESIAN_POINT('',(0.0183,0.0135665960439297,0.00185));
#215=CARTESIAN_POINT('',(0.0183,0.00963340395607029,0.00185));
#216=CARTESIAN_POINT('',(0.0183,0.0135665960439297,0.00185));
#217=CARTESIAN_POINT('',(0.0183,0.0116,1.73472347597681E-18));
#218=CARTESIAN_POINT('',(0.0183,0.0135665960439297,-0.00185));
#219=CARTESIAN_POINT('',(0.0183,0.00963340395607028,-0.00185));
#220=CARTESIAN_POINT('',(0.0183,0.00963340395607028,-0.00185));
#221=CARTESIAN_POINT('',(0.0183,0.0116,1.73472347597681E-18));
#222=MECHANICAL_DESIGN_GEOMETRIC_PRESENTATION_REPRESENTATION('',(#129),
#223);
#223=(
GEOMETRIC_REPRESENTATION_CONTEXT(3)
GLOBAL_UNCERTAINTY_ASSIGNED_CONTEXT((#224))
GLOBAL_UNIT_ASSIGNED_CONTEXT((#227,#226,#225))
REPRESENTATION_CONTEXT('right_motor','TOP_LEVEL_ASSEMBLY_PART')
);
#224=UNCERTAINTY_MEASURE_WITH_UNIT(LENGTH_MEASURE(5.E-6),#227,
'DISTANCE_ACCURACY_VALUE','Maximum Tolerance applied to model');
#225=(
NAMED_UNIT(*)
SI_UNIT($,.STERADIAN.)
SOLID_ANGLE_UNIT()
);
#226=(
NAMED_UNIT(*)
PLANE_ANGLE_UNIT()
SI_UNIT($,.RADIAN.)
);
#227=(
LENGTH_UNIT()
NAMED_UNIT(*)
SI_UNIT($,.METRE.)
);
#228=PRODUCT_DEFINITION_SHAPE('','',#229);
#229=PRODUCT_DEFINITION('','',#231,#230);
#230=PRODUCT_DEFINITION_CONTEXT('',#237,'design');
#231=PRODUCT_DEFINITION_FORMATION_WITH_SPECIFIED_SOURCE('','',#233,
 .NOT_KNOWN.);
#232=PRODUCT_RELATED_PRODUCT_CATEGORY('','',(#233));
#233=PRODUCT('right_motor','right_motor','right_motor',(#235));
#234=PRODUCT_CATEGORY('','');
#235=PRODUCT_CONTEXT('',#237,'mechanical');
#236=APPLICATION_PROTOCOL_DEFINITION('international standard',
'automotive_design',2010,#237);
#237=APPLICATION_CONTEXT(
'core data for automotive mechanical design processes');
ENDSEC;
END-ISO-10303-21;
