ISO-10303-21;
HEADER;
/* Generated by software containing ST-Developer
 * from STEP Tools, Inc. (www.steptools.com) 
 */
/* OPTION: using custom renumber hook */

FILE_DESCRIPTION(
/* description */ ('STEP AP214'),
/* implementation_level */ '2;1');

FILE_NAME(
/* name */ '654cf5917f9aa566be1721f9',
/* time_stamp */ '2023-11-09T15:06:58Z',
/* author */ (''),
/* organization */ (''),
/* preprocessor_version */ 'ST-DEVELOPER v19.4',
/* originating_system */ '  ',
/* authorisation */ '  ');

FILE_SCHEMA (('AUTOMOTIVE_DESIGN {1 0 10303 214 3 1 1}'));
ENDSEC;

DATA;
#10=PROPERTY_DEFINITION_REPRESENTATION(#14,#12);
#11=PROPERTY_DEFINITION_REPRESENTATION(#15,#13);
#12=REPRESENTATION('',(#16),#218);
#13=REPRESENTATION('',(#17),#218);
#14=PROPERTY_DEFINITION('pmi validation property','',#223);
#15=PROPERTY_DEFINITION('pmi validation property','',#223);
#16=VALUE_REPRESENTATION_ITEM('number of annotations',COUNT_MEASURE(0.));
#17=VALUE_REPRESENTATION_ITEM('number of views',COUNT_MEASURE(0.));
#18=SHAPE_REPRESENTATION_RELATIONSHIP('','',#144,#19);
#19=ADVANCED_BREP_SHAPE_REPRESENTATION('',(#142),#218);
#20=ORIENTED_EDGE('',*,*,#50,.F.);
#21=ORIENTED_EDGE('',*,*,#51,.F.);
#22=ORIENTED_EDGE('',*,*,#52,.F.);
#23=ORIENTED_EDGE('',*,*,#53,.F.);
#24=ORIENTED_EDGE('',*,*,#54,.F.);
#25=ORIENTED_EDGE('',*,*,#55,.T.);
#26=ORIENTED_EDGE('',*,*,#56,.T.);
#27=ORIENTED_EDGE('',*,*,#57,.T.);
#28=ORIENTED_EDGE('',*,*,#58,.T.);
#29=ORIENTED_EDGE('',*,*,#59,.T.);
#30=ORIENTED_EDGE('',*,*,#51,.T.);
#31=ORIENTED_EDGE('',*,*,#60,.F.);
#32=ORIENTED_EDGE('',*,*,#59,.F.);
#33=ORIENTED_EDGE('',*,*,#61,.T.);
#34=ORIENTED_EDGE('',*,*,#52,.T.);
#35=ORIENTED_EDGE('',*,*,#61,.F.);
#36=ORIENTED_EDGE('',*,*,#58,.F.);
#37=ORIENTED_EDGE('',*,*,#62,.T.);
#38=ORIENTED_EDGE('',*,*,#53,.T.);
#39=ORIENTED_EDGE('',*,*,#62,.F.);
#40=ORIENTED_EDGE('',*,*,#57,.F.);
#41=ORIENTED_EDGE('',*,*,#63,.T.);
#42=ORIENTED_EDGE('',*,*,#54,.T.);
#43=ORIENTED_EDGE('',*,*,#63,.F.);
#44=ORIENTED_EDGE('',*,*,#56,.F.);
#45=ORIENTED_EDGE('',*,*,#64,.T.);
#46=ORIENTED_EDGE('',*,*,#50,.T.);
#47=ORIENTED_EDGE('',*,*,#64,.F.);
#48=ORIENTED_EDGE('',*,*,#55,.F.);
#49=ORIENTED_EDGE('',*,*,#60,.T.);
#50=EDGE_CURVE('',#65,#66,#75,.T.);
#51=EDGE_CURVE('',#67,#65,#76,.T.);
#52=EDGE_CURVE('',#68,#67,#77,.T.);
#53=EDGE_CURVE('',#69,#68,#78,.T.);
#54=EDGE_CURVE('',#66,#69,#79,.T.);
#55=EDGE_CURVE('',#70,#71,#80,.T.);
#56=EDGE_CURVE('',#71,#72,#81,.T.);
#57=EDGE_CURVE('',#72,#73,#82,.T.);
#58=EDGE_CURVE('',#73,#74,#83,.T.);
#59=EDGE_CURVE('',#74,#70,#84,.T.);
#60=EDGE_CURVE('',#70,#65,#85,.T.);
#61=EDGE_CURVE('',#74,#67,#86,.T.);
#62=EDGE_CURVE('',#73,#68,#87,.T.);
#63=EDGE_CURVE('',#72,#69,#88,.T.);
#64=EDGE_CURVE('',#71,#66,#89,.T.);
#65=VERTEX_POINT('',#187);
#66=VERTEX_POINT('',#188);
#67=VERTEX_POINT('',#190);
#68=VERTEX_POINT('',#192);
#69=VERTEX_POINT('',#194);
#70=VERTEX_POINT('',#198);
#71=VERTEX_POINT('',#199);
#72=VERTEX_POINT('',#201);
#73=VERTEX_POINT('',#203);
#74=VERTEX_POINT('',#205);
#75=LINE('',#186,#90);
#76=LINE('',#189,#91);
#77=LINE('',#191,#92);
#78=LINE('',#193,#93);
#79=LINE('',#195,#94);
#80=LINE('',#197,#95);
#81=LINE('',#200,#96);
#82=LINE('',#202,#97);
#83=LINE('',#204,#98);
#84=LINE('',#206,#99);
#85=LINE('',#208,#100);
#86=LINE('',#209,#101);
#87=LINE('',#211,#102);
#88=LINE('',#213,#103);
#89=LINE('',#215,#104);
#90=VECTOR('',#157,1.);
#91=VECTOR('',#158,1.);
#92=VECTOR('',#159,1.);
#93=VECTOR('',#160,1.);
#94=VECTOR('',#161,1.);
#95=VECTOR('',#164,1.);
#96=VECTOR('',#165,1.);
#97=VECTOR('',#166,1.);
#98=VECTOR('',#167,1.);
#99=VECTOR('',#168,1.);
#100=VECTOR('',#171,1.);
#101=VECTOR('',#172,1.);
#102=VECTOR('',#175,1.);
#103=VECTOR('',#178,1.);
#104=VECTOR('',#181,1.);
#105=EDGE_LOOP('',(#20,#21,#22,#23,#24));
#106=EDGE_LOOP('',(#25,#26,#27,#28,#29));
#107=EDGE_LOOP('',(#30,#31,#32,#33));
#108=EDGE_LOOP('',(#34,#35,#36,#37));
#109=EDGE_LOOP('',(#38,#39,#40,#41));
#110=EDGE_LOOP('',(#42,#43,#44,#45));
#111=EDGE_LOOP('',(#46,#47,#48,#49));
#112=FACE_BOUND('',#105,.T.);
#113=FACE_BOUND('',#106,.T.);
#114=FACE_BOUND('',#107,.T.);
#115=FACE_BOUND('',#108,.T.);
#116=FACE_BOUND('',#109,.T.);
#117=FACE_BOUND('',#110,.T.);
#118=FACE_BOUND('',#111,.T.);
#119=PLANE('',#146);
#120=PLANE('',#147);
#121=PLANE('',#148);
#122=PLANE('',#149);
#123=PLANE('',#150);
#124=PLANE('',#151);
#125=PLANE('',#152);
#126=ADVANCED_FACE('',(#112),#119,.F.);
#127=ADVANCED_FACE('',(#113),#120,.T.);
#128=ADVANCED_FACE('',(#114),#121,.F.);
#129=ADVANCED_FACE('',(#115),#122,.F.);
#130=ADVANCED_FACE('',(#116),#123,.F.);
#131=ADVANCED_FACE('',(#117),#124,.F.);
#132=ADVANCED_FACE('',(#118),#125,.F.);
#133=CLOSED_SHELL('',(#126,#127,#128,#129,#130,#131,#132));
#134=STYLED_ITEM('',(#135),#142);
#135=PRESENTATION_STYLE_ASSIGNMENT((#136));
#136=SURFACE_STYLE_USAGE(.BOTH.,#137);
#137=SURFACE_SIDE_STYLE('',(#138));
#138=SURFACE_STYLE_FILL_AREA(#139);
#139=FILL_AREA_STYLE('',(#140));
#140=FILL_AREA_STYLE_COLOUR('',#141);
#141=COLOUR_RGB('',0.4,0.8,1.);
#142=MANIFOLD_SOLID_BREP('right_motor',#133);
#143=SHAPE_DEFINITION_REPRESENTATION(#223,#144);
#144=SHAPE_REPRESENTATION('right_motor',(#145),#218);
#145=AXIS2_PLACEMENT_3D('',#184,#153,#154);
#146=AXIS2_PLACEMENT_3D('',#185,#155,#156);
#147=AXIS2_PLACEMENT_3D('',#196,#162,#163);
#148=AXIS2_PLACEMENT_3D('',#207,#169,#170);
#149=AXIS2_PLACEMENT_3D('',#210,#173,#174);
#150=AXIS2_PLACEMENT_3D('',#212,#176,#177);
#151=AXIS2_PLACEMENT_3D('',#214,#179,#180);
#152=AXIS2_PLACEMENT_3D('',#216,#182,#183);
#153=DIRECTION('',(0.,0.,1.));
#154=DIRECTION('',(1.,0.,0.));
#155=DIRECTION('',(0.,0.,1.));
#156=DIRECTION('',(1.,0.,0.));
#157=DIRECTION('',(0.,-1.,0.));
#158=DIRECTION('',(-1.,0.,0.));
#159=DIRECTION('',(-0.707106781186547,-0.707106781186548,0.));
#160=DIRECTION('',(0.,1.,0.));
#161=DIRECTION('',(1.,0.,0.));
#162=DIRECTION('',(0.,0.,1.));
#163=DIRECTION('',(1.,0.,0.));
#164=DIRECTION('',(0.,-1.,0.));
#165=DIRECTION('',(1.,0.,0.));
#166=DIRECTION('',(0.,1.,0.));
#167=DIRECTION('',(-0.707106781186547,-0.707106781186548,0.));
#168=DIRECTION('',(-1.,0.,0.));
#169=DIRECTION('',(0.,-1.,0.));
#170=DIRECTION('',(0.,0.,-1.));
#171=DIRECTION('',(0.,0.,-1.));
#172=DIRECTION('',(0.,0.,-1.));
#173=DIRECTION('',(0.707106781186548,-0.707106781186547,0.));
#174=DIRECTION('',(0.707106781186547,0.707106781186548,0.));
#175=DIRECTION('',(0.,0.,-1.));
#176=DIRECTION('',(-1.,0.,0.));
#177=DIRECTION('',(0.,0.,1.));
#178=DIRECTION('',(0.,0.,-1.));
#179=DIRECTION('',(0.,1.,0.));
#180=DIRECTION('',(0.,0.,1.));
#181=DIRECTION('',(0.,0.,-1.));
#182=DIRECTION('',(1.,0.,0.));
#183=DIRECTION('',(0.,0.,-1.));
#184=CARTESIAN_POINT('',(0.,0.,0.));
#185=CARTESIAN_POINT('',(0.,0.,-0.0025));
#186=CARTESIAN_POINT('',(-0.0113,0.043,-0.0025));
#187=CARTESIAN_POINT('',(-0.0113,0.043,-0.0025));
#188=CARTESIAN_POINT('',(-0.0113,0.042,-0.0025));
#189=CARTESIAN_POINT('',(-0.0103,0.043,-0.0025));
#190=CARTESIAN_POINT('',(-0.0103,0.043,-0.0025));
#191=CARTESIAN_POINT('',(-0.0093,0.044,-0.0025));
#192=CARTESIAN_POINT('',(-0.0093,0.044,-0.0025));
#193=CARTESIAN_POINT('',(-0.0093,0.042,-0.0025));
#194=CARTESIAN_POINT('',(-0.0093,0.042,-0.0025));
#195=CARTESIAN_POINT('',(-0.0113,0.042,-0.0025));
#196=CARTESIAN_POINT('',(0.,0.,0.0025));
#197=CARTESIAN_POINT('',(-0.0113,0.043,0.0025));
#198=CARTESIAN_POINT('',(-0.0113,0.043,0.0025));
#199=CARTESIAN_POINT('',(-0.0113,0.042,0.0025));
#200=CARTESIAN_POINT('',(-0.0113,0.042,0.0025));
#201=CARTESIAN_POINT('',(-0.0093,0.042,0.0025));
#202=CARTESIAN_POINT('',(-0.0093,0.042,0.0025));
#203=CARTESIAN_POINT('',(-0.0093,0.044,0.0025));
#204=CARTESIAN_POINT('',(-0.0093,0.044,0.0025));
#205=CARTESIAN_POINT('',(-0.0103,0.043,0.0025));
#206=CARTESIAN_POINT('',(-0.0103,0.043,0.0025));
#207=CARTESIAN_POINT('',(-0.0103,0.043,0.0025));
#208=CARTESIAN_POINT('',(-0.0113,0.043,0.0025));
#209=CARTESIAN_POINT('',(-0.0103,0.043,0.0025));
#210=CARTESIAN_POINT('',(-0.0093,0.044,0.0025));
#211=CARTESIAN_POINT('',(-0.0093,0.044,0.0025));
#212=CARTESIAN_POINT('',(-0.0093,0.042,0.0025));
#213=CARTESIAN_POINT('',(-0.0093,0.042,0.0025));
#214=CARTESIAN_POINT('',(-0.0113,0.042,0.0025));
#215=CARTESIAN_POINT('',(-0.0113,0.042,0.0025));
#216=CARTESIAN_POINT('',(-0.0113,0.043,0.0025));
#217=MECHANICAL_DESIGN_GEOMETRIC_PRESENTATION_REPRESENTATION('',(#134),
#218);
#218=(
GEOMETRIC_REPRESENTATION_CONTEXT(3)
GLOBAL_UNCERTAINTY_ASSIGNED_CONTEXT((#219))
GLOBAL_UNIT_ASSIGNED_CONTEXT((#222,#221,#220))
REPRESENTATION_CONTEXT('right_motor','TOP_LEVEL_ASSEMBLY_PART')
);
#219=UNCERTAINTY_MEASURE_WITH_UNIT(LENGTH_MEASURE(5.E-6),#222,
'DISTANCE_ACCURACY_VALUE','Maximum Tolerance applied to model');
#220=(
NAMED_UNIT(*)
SI_UNIT($,.STERADIAN.)
SOLID_ANGLE_UNIT()
);
#221=(
NAMED_UNIT(*)
PLANE_ANGLE_UNIT()
SI_UNIT($,.RADIAN.)
);
#222=(
LENGTH_UNIT()
NAMED_UNIT(*)
SI_UNIT($,.METRE.)
);
#223=PRODUCT_DEFINITION_SHAPE('','',#224);
#224=PRODUCT_DEFINITION('','',#226,#225);
#225=PRODUCT_DEFINITION_CONTEXT('',#232,'design');
#226=PRODUCT_DEFINITION_FORMATION_WITH_SPECIFIED_SOURCE('','',#228,
 .NOT_KNOWN.);
#227=PRODUCT_RELATED_PRODUCT_CATEGORY('','',(#228));
#228=PRODUCT('right_motor','right_motor','right_motor',(#230));
#229=PRODUCT_CATEGORY('','');
#230=PRODUCT_CONTEXT('',#232,'mechanical');
#231=APPLICATION_PROTOCOL_DEFINITION('international standard',
'automotive_design',2010,#232);
#232=APPLICATION_CONTEXT(
'core data for automotive mechanical design processes');
ENDSEC;
END-ISO-10303-21;
