ISO-10303-21;
HEADER;
/* Generated by software containing ST-Developer
 * from STEP Tools, Inc. (www.steptools.com) 
 */
/* OPTION: using custom renumber hook */

FILE_DESCRIPTION(
/* description */ ('STEP AP214'),
/* implementation_level */ '2;1');

FILE_NAME(
/* name */ '654cf5967f9aa566be17220b',
/* time_stamp */ '2023-11-09T15:07:03Z',
/* author */ (''),
/* organization */ (''),
/* preprocessor_version */ 'ST-DEVELOPER v19.4',
/* originating_system */ '  ',
/* authorisation */ '  ');

FILE_SCHEMA (('AUTOMOTIVE_DESIGN {1 0 10303 214 3 1 1}'));
ENDSEC;

DATA;
#10=PROPERTY_DEFINITION_REPRESENTATION(#14,#12);
#11=PROPERTY_DEFINITION_REPRESENTATION(#15,#13);
#12=REPRESENTATION('',(#16),#289);
#13=REPRESENTATION('',(#17),#289);
#14=PROPERTY_DEFINITION('pmi validation property','',#294);
#15=PROPERTY_DEFINITION('pmi validation property','',#294);
#16=VALUE_REPRESENTATION_ITEM('number of annotations',COUNT_MEASURE(0.));
#17=VALUE_REPRESENTATION_ITEM('number of views',COUNT_MEASURE(0.));
#18=SHAPE_REPRESENTATION_RELATIONSHIP('','',#181,#19);
#19=ADVANCED_BREP_SHAPE_REPRESENTATION('',(#179),#289);
#20=PLANE('',#192);
#21=PLANE('',#193);
#22=PLANE('',#194);
#23=PLANE('',#195);
#24=PLANE('',#196);
#25=PLANE('',#197);
#26=LINE('',#249,#40);
#27=LINE('',#253,#41);
#28=LINE('',#258,#42);
#29=LINE('',#262,#43);
#30=LINE('',#269,#44);
#31=LINE('',#272,#45);
#32=LINE('',#274,#46);
#33=LINE('',#276,#47);
#34=LINE('',#278,#48);
#35=LINE('',#279,#49);
#36=LINE('',#281,#50);
#37=LINE('',#282,#51);
#38=LINE('',#284,#52);
#39=LINE('',#286,#53);
#40=VECTOR('',#204,1.);
#41=VECTOR('',#207,1.);
#42=VECTOR('',#212,1.);
#43=VECTOR('',#215,1.);
#44=VECTOR('',#224,1.);
#45=VECTOR('',#225,1.);
#46=VECTOR('',#226,1.);
#47=VECTOR('',#227,1.);
#48=VECTOR('',#230,1.);
#49=VECTOR('',#231,1.);
#50=VECTOR('',#234,1.);
#51=VECTOR('',#235,1.);
#52=VECTOR('',#238,1.);
#53=VECTOR('',#241,1.);
#54=ORIENTED_EDGE('',*,*,#94,.F.);
#55=ORIENTED_EDGE('',*,*,#95,.F.);
#56=ORIENTED_EDGE('',*,*,#96,.F.);
#57=ORIENTED_EDGE('',*,*,#97,.F.);
#58=ORIENTED_EDGE('',*,*,#98,.F.);
#59=ORIENTED_EDGE('',*,*,#99,.F.);
#60=ORIENTED_EDGE('',*,*,#100,.F.);
#61=ORIENTED_EDGE('',*,*,#101,.F.);
#62=ORIENTED_EDGE('',*,*,#102,.T.);
#63=ORIENTED_EDGE('',*,*,#103,.F.);
#64=ORIENTED_EDGE('',*,*,#104,.F.);
#65=ORIENTED_EDGE('',*,*,#105,.F.);
#66=ORIENTED_EDGE('',*,*,#106,.F.);
#67=ORIENTED_EDGE('',*,*,#107,.F.);
#68=ORIENTED_EDGE('',*,*,#108,.T.);
#69=ORIENTED_EDGE('',*,*,#101,.T.);
#70=ORIENTED_EDGE('',*,*,#109,.T.);
#71=ORIENTED_EDGE('',*,*,#97,.T.);
#72=ORIENTED_EDGE('',*,*,#110,.F.);
#73=ORIENTED_EDGE('',*,*,#95,.T.);
#74=ORIENTED_EDGE('',*,*,#111,.T.);
#75=ORIENTED_EDGE('',*,*,#105,.T.);
#76=ORIENTED_EDGE('',*,*,#103,.T.);
#77=ORIENTED_EDGE('',*,*,#109,.F.);
#78=ORIENTED_EDGE('',*,*,#100,.T.);
#79=ORIENTED_EDGE('',*,*,#112,.T.);
#80=ORIENTED_EDGE('',*,*,#106,.T.);
#81=ORIENTED_EDGE('',*,*,#111,.F.);
#82=ORIENTED_EDGE('',*,*,#94,.T.);
#83=ORIENTED_EDGE('',*,*,#112,.F.);
#84=ORIENTED_EDGE('',*,*,#99,.T.);
#85=ORIENTED_EDGE('',*,*,#113,.T.);
#86=ORIENTED_EDGE('',*,*,#107,.T.);
#87=ORIENTED_EDGE('',*,*,#102,.F.);
#88=ORIENTED_EDGE('',*,*,#113,.F.);
#89=ORIENTED_EDGE('',*,*,#98,.T.);
#90=ORIENTED_EDGE('',*,*,#108,.F.);
#91=ORIENTED_EDGE('',*,*,#96,.T.);
#92=ORIENTED_EDGE('',*,*,#110,.T.);
#93=ORIENTED_EDGE('',*,*,#104,.T.);
#94=EDGE_CURVE('',#114,#115,#128,.T.);
#95=EDGE_CURVE('',#116,#114,#26,.T.);
#96=EDGE_CURVE('',#117,#116,#129,.T.);
#97=EDGE_CURVE('',#115,#117,#27,.T.);
#98=EDGE_CURVE('',#118,#119,#130,.T.);
#99=EDGE_CURVE('',#120,#118,#28,.T.);
#100=EDGE_CURVE('',#121,#120,#131,.T.);
#101=EDGE_CURVE('',#119,#121,#29,.T.);
#102=EDGE_CURVE('',#122,#122,#132,.T.);
#103=EDGE_CURVE('',#123,#123,#133,.T.);
#104=EDGE_CURVE('',#124,#125,#30,.T.);
#105=EDGE_CURVE('',#126,#124,#31,.T.);
#106=EDGE_CURVE('',#127,#126,#32,.T.);
#107=EDGE_CURVE('',#125,#127,#33,.T.);
#108=EDGE_CURVE('',#117,#119,#34,.T.);
#109=EDGE_CURVE('',#121,#115,#35,.T.);
#110=EDGE_CURVE('',#116,#124,#36,.T.);
#111=EDGE_CURVE('',#114,#126,#37,.T.);
#112=EDGE_CURVE('',#120,#127,#38,.T.);
#113=EDGE_CURVE('',#118,#125,#39,.T.);
#114=VERTEX_POINT('',#247);
#115=VERTEX_POINT('',#248);
#116=VERTEX_POINT('',#250);
#117=VERTEX_POINT('',#252);
#118=VERTEX_POINT('',#256);
#119=VERTEX_POINT('',#257);
#120=VERTEX_POINT('',#259);
#121=VERTEX_POINT('',#261);
#122=VERTEX_POINT('',#265);
#123=VERTEX_POINT('',#267);
#124=VERTEX_POINT('',#270);
#125=VERTEX_POINT('',#271);
#126=VERTEX_POINT('',#273);
#127=VERTEX_POINT('',#275);
#128=CIRCLE('',#184,0.001);
#129=CIRCLE('',#185,0.001);
#130=CIRCLE('',#187,0.001);
#131=CIRCLE('',#188,0.001);
#132=CIRCLE('',#190,0.0015);
#133=CIRCLE('',#191,0.0015);
#134=EDGE_LOOP('',(#54,#55,#56,#57));
#135=EDGE_LOOP('',(#58,#59,#60,#61));
#136=EDGE_LOOP('',(#62));
#137=EDGE_LOOP('',(#63));
#138=EDGE_LOOP('',(#64,#65,#66,#67));
#139=EDGE_LOOP('',(#68,#69,#70,#71));
#140=EDGE_LOOP('',(#72,#73,#74,#75));
#141=EDGE_LOOP('',(#76));
#142=EDGE_LOOP('',(#77,#78,#79,#80,#81,#82));
#143=EDGE_LOOP('',(#83,#84,#85,#86));
#144=EDGE_LOOP('',(#87));
#145=EDGE_LOOP('',(#88,#89,#90,#91,#92,#93));
#146=FACE_BOUND('',#134,.T.);
#147=FACE_BOUND('',#135,.T.);
#148=FACE_BOUND('',#136,.T.);
#149=FACE_BOUND('',#137,.T.);
#150=FACE_BOUND('',#138,.T.);
#151=FACE_BOUND('',#139,.T.);
#152=FACE_BOUND('',#140,.T.);
#153=FACE_BOUND('',#141,.T.);
#154=FACE_BOUND('',#142,.T.);
#155=FACE_BOUND('',#143,.T.);
#156=FACE_BOUND('',#144,.T.);
#157=FACE_BOUND('',#145,.T.);
#158=CYLINDRICAL_SURFACE('',#183,0.001);
#159=CYLINDRICAL_SURFACE('',#186,0.001);
#160=CYLINDRICAL_SURFACE('',#189,0.0015);
#161=ADVANCED_FACE('',(#146),#158,.T.);
#162=ADVANCED_FACE('',(#147),#159,.T.);
#163=ADVANCED_FACE('',(#148,#149),#160,.F.);
#164=ADVANCED_FACE('',(#150),#20,.F.);
#165=ADVANCED_FACE('',(#151),#21,.T.);
#166=ADVANCED_FACE('',(#152),#22,.F.);
#167=ADVANCED_FACE('',(#153,#154),#23,.F.);
#168=ADVANCED_FACE('',(#155),#24,.F.);
#169=ADVANCED_FACE('',(#156,#157),#25,.F.);
#170=CLOSED_SHELL('',(#161,#162,#163,#164,#165,#166,#167,#168,#169));
#171=STYLED_ITEM('',(#172),#179);
#172=PRESENTATION_STYLE_ASSIGNMENT((#173));
#173=SURFACE_STYLE_USAGE(.BOTH.,#174);
#174=SURFACE_SIDE_STYLE('',(#175));
#175=SURFACE_STYLE_FILL_AREA(#176);
#176=FILL_AREA_STYLE('',(#177));
#177=FILL_AREA_STYLE_COLOUR('',#178);
#178=COLOUR_RGB('',0.4,0.8,1.);
#179=MANIFOLD_SOLID_BREP('right_motor',#170);
#180=SHAPE_DEFINITION_REPRESENTATION(#294,#181);
#181=SHAPE_REPRESENTATION('right_motor',(#182),#289);
#182=AXIS2_PLACEMENT_3D('',#244,#198,#199);
#183=AXIS2_PLACEMENT_3D('',#245,#200,#201);
#184=AXIS2_PLACEMENT_3D('',#246,#202,#203);
#185=AXIS2_PLACEMENT_3D('',#251,#205,#206);
#186=AXIS2_PLACEMENT_3D('',#254,#208,#209);
#187=AXIS2_PLACEMENT_3D('',#255,#210,#211);
#188=AXIS2_PLACEMENT_3D('',#260,#213,#214);
#189=AXIS2_PLACEMENT_3D('',#263,#216,#217);
#190=AXIS2_PLACEMENT_3D('',#264,#218,#219);
#191=AXIS2_PLACEMENT_3D('',#266,#220,#221);
#192=AXIS2_PLACEMENT_3D('',#268,#222,#223);
#193=AXIS2_PLACEMENT_3D('',#277,#228,#229);
#194=AXIS2_PLACEMENT_3D('',#280,#232,#233);
#195=AXIS2_PLACEMENT_3D('',#283,#236,#237);
#196=AXIS2_PLACEMENT_3D('',#285,#239,#240);
#197=AXIS2_PLACEMENT_3D('',#287,#242,#243);
#198=DIRECTION('',(0.,0.,1.));
#199=DIRECTION('',(1.,0.,0.));
#200=DIRECTION('',(1.,0.,0.));
#201=DIRECTION('',(0.,0.,-1.));
#202=DIRECTION('',(1.,0.,0.));
#203=DIRECTION('',(0.,0.,1.));
#204=DIRECTION('',(1.,0.,0.));
#205=DIRECTION('',(-1.,0.,0.));
#206=DIRECTION('',(0.,0.,-1.));
#207=DIRECTION('',(-1.,0.,0.));
#208=DIRECTION('',(-1.,0.,0.));
#209=DIRECTION('',(0.,0.,1.));
#210=DIRECTION('',(-1.,0.,0.));
#211=DIRECTION('',(0.,0.,-1.));
#212=DIRECTION('',(-1.,0.,0.));
#213=DIRECTION('',(1.,0.,0.));
#214=DIRECTION('',(0.,0.,1.));
#215=DIRECTION('',(1.,0.,0.));
#216=DIRECTION('',(-1.,0.,0.));
#217=DIRECTION('',(0.,0.,1.));
#218=DIRECTION('',(-1.,0.,0.));
#219=DIRECTION('',(0.,0.,-1.));
#220=DIRECTION('',(-1.,0.,0.));
#221=DIRECTION('',(0.,0.,1.));
#222=DIRECTION('',(0.,-1.,0.));
#223=DIRECTION('',(0.,0.,-1.));
#224=DIRECTION('',(0.,0.,-1.));
#225=DIRECTION('',(-1.,0.,0.));
#226=DIRECTION('',(0.,0.,1.));
#227=DIRECTION('',(1.,0.,0.));
#228=DIRECTION('',(0.,-1.,0.));
#229=DIRECTION('',(0.,0.,-1.));
#230=DIRECTION('',(0.,0.,-1.));
#231=DIRECTION('',(0.,0.,1.));
#232=DIRECTION('',(0.,0.,-1.));
#233=DIRECTION('',(-1.,0.,0.));
#234=DIRECTION('',(0.,1.,0.));
#235=DIRECTION('',(0.,1.,0.));
#236=DIRECTION('',(-1.,0.,0.));
#237=DIRECTION('',(0.,0.,1.));
#238=DIRECTION('',(0.,1.,0.));
#239=DIRECTION('',(0.,0.,1.));
#240=DIRECTION('',(1.,0.,0.));
#241=DIRECTION('',(0.,1.,0.));
#242=DIRECTION('',(1.,0.,0.));
#243=DIRECTION('',(0.,0.,-1.));
#244=CARTESIAN_POINT('',(0.,0.,0.));
#245=CARTESIAN_POINT('',(0.,-0.0038,0.0015));
#246=CARTESIAN_POINT('',(0.0014,-0.0038,0.0015));
#247=CARTESIAN_POINT('',(0.0014,-0.0038,0.0025));
#248=CARTESIAN_POINT('',(0.0014,-0.0048,0.0015));
#249=CARTESIAN_POINT('',(0.0014,-0.0038,0.0025));
#250=CARTESIAN_POINT('',(-0.0014,-0.0038,0.0025));
#251=CARTESIAN_POINT('',(-0.0014,-0.0038,0.0015));
#252=CARTESIAN_POINT('',(-0.0014,-0.0048,0.0015));
#253=CARTESIAN_POINT('',(-0.0014,-0.0048,0.0015));
#254=CARTESIAN_POINT('',(0.,-0.0038,-0.0015));
#255=CARTESIAN_POINT('',(-0.0014,-0.0038,-0.0015));
#256=CARTESIAN_POINT('',(-0.0014,-0.0038,-0.0025));
#257=CARTESIAN_POINT('',(-0.0014,-0.0048,-0.0015));
#258=CARTESIAN_POINT('',(-0.0014,-0.0038,-0.0025));
#259=CARTESIAN_POINT('',(0.0014,-0.0038,-0.0025));
#260=CARTESIAN_POINT('',(0.0014,-0.0038,-0.0015));
#261=CARTESIAN_POINT('',(0.0014,-0.0048,-0.0015));
#262=CARTESIAN_POINT('',(0.0014,-0.0048,-0.0015));
#263=CARTESIAN_POINT('',(0.0016,-0.0024,0.));
#264=CARTESIAN_POINT('',(-0.0014,-0.0024,0.));
#265=CARTESIAN_POINT('',(-0.0014,-0.0024,-0.0015));
#266=CARTESIAN_POINT('',(0.0014,-0.0024,0.));
#267=CARTESIAN_POINT('',(0.0014,-0.0024,0.0015));
#268=CARTESIAN_POINT('',(0.,-3.33066907387547E-19,0.));
#269=CARTESIAN_POINT('',(-0.0014,-3.33066907387547E-19,0.0025));
#270=CARTESIAN_POINT('',(-0.0014,-3.33066907387547E-19,0.0025));
#271=CARTESIAN_POINT('',(-0.0014,-3.33066907387547E-19,-0.0025));
#272=CARTESIAN_POINT('',(0.0014,-3.33066907387547E-19,0.0025));
#273=CARTESIAN_POINT('',(0.0014,-3.33066907387547E-19,0.0025));
#274=CARTESIAN_POINT('',(0.0014,-3.33066907387547E-19,-0.0025));
#275=CARTESIAN_POINT('',(0.0014,-3.33066907387547E-19,-0.0025));
#276=CARTESIAN_POINT('',(-0.0014,-3.33066907387547E-19,-0.0025));
#277=CARTESIAN_POINT('',(0.,-0.0048,0.));
#278=CARTESIAN_POINT('',(-0.0014,-0.0048,0.0025));
#279=CARTESIAN_POINT('',(0.0014,-0.0048,-0.0025));
#280=CARTESIAN_POINT('',(0.0014,-0.0048,0.0025));
#281=CARTESIAN_POINT('',(-0.0014,-0.0048,0.0025));
#282=CARTESIAN_POINT('',(0.0014,-0.0048,0.0025));
#283=CARTESIAN_POINT('',(0.0014,-0.0048,-0.0025));
#284=CARTESIAN_POINT('',(0.0014,-0.0048,-0.0025));
#285=CARTESIAN_POINT('',(-0.0014,-0.0048,-0.0025));
#286=CARTESIAN_POINT('',(-0.0014,-0.0048,-0.0025));
#287=CARTESIAN_POINT('',(-0.0014,-0.0048,0.0025));
#288=MECHANICAL_DESIGN_GEOMETRIC_PRESENTATION_REPRESENTATION('',(#171),
#289);
#289=(
GEOMETRIC_REPRESENTATION_CONTEXT(3)
GLOBAL_UNCERTAINTY_ASSIGNED_CONTEXT((#290))
GLOBAL_UNIT_ASSIGNED_CONTEXT((#293,#292,#291))
REPRESENTATION_CONTEXT('right_motor','TOP_LEVEL_ASSEMBLY_PART')
);
#290=UNCERTAINTY_MEASURE_WITH_UNIT(LENGTH_MEASURE(5.E-6),#293,
'DISTANCE_ACCURACY_VALUE','Maximum Tolerance applied to model');
#291=(
NAMED_UNIT(*)
SI_UNIT($,.STERADIAN.)
SOLID_ANGLE_UNIT()
);
#292=(
NAMED_UNIT(*)
PLANE_ANGLE_UNIT()
SI_UNIT($,.RADIAN.)
);
#293=(
LENGTH_UNIT()
NAMED_UNIT(*)
SI_UNIT($,.METRE.)
);
#294=PRODUCT_DEFINITION_SHAPE('','',#295);
#295=PRODUCT_DEFINITION('','',#297,#296);
#296=PRODUCT_DEFINITION_CONTEXT('',#303,'design');
#297=PRODUCT_DEFINITION_FORMATION_WITH_SPECIFIED_SOURCE('','',#299,
 .NOT_KNOWN.);
#298=PRODUCT_RELATED_PRODUCT_CATEGORY('','',(#299));
#299=PRODUCT('right_motor','right_motor','right_motor',(#301));
#300=PRODUCT_CATEGORY('','');
#301=PRODUCT_CONTEXT('',#303,'mechanical');
#302=APPLICATION_PROTOCOL_DEFINITION('international standard',
'automotive_design',2010,#303);
#303=APPLICATION_CONTEXT(
'core data for automotive mechanical design processes');
ENDSEC;
END-ISO-10303-21;
