ISO-10303-21;
HEADER;
/* Generated by software containing ST-Developer
 * from STEP Tools, Inc. (www.steptools.com) 
 */
/* OPTION: using custom renumber hook */

FILE_DESCRIPTION(
/* description */ ('STEP AP214'),
/* implementation_level */ '2;1');

FILE_NAME(
/* name */ '654cf59e7f9aa566be17223f',
/* time_stamp */ '2023-11-09T15:07:11Z',
/* author */ (''),
/* organization */ (''),
/* preprocessor_version */ 'ST-DEVELOPER v19.4',
/* originating_system */ '  ',
/* authorisation */ '  ');

FILE_SCHEMA (('AUTOMOTIVE_DESIGN {1 0 10303 214 3 1 1}'));
ENDSEC;

DATA;
#10=PROPERTY_DEFINITION_REPRESENTATION(#14,#12);
#11=PROPERTY_DEFINITION_REPRESENTATION(#15,#13);
#12=REPRESENTATION('',(#16),#923);
#13=REPRESENTATION('',(#17),#923);
#14=PROPERTY_DEFINITION('pmi validation property','',#928);
#15=PROPERTY_DEFINITION('pmi validation property','',#928);
#16=VALUE_REPRESENTATION_ITEM('number of annotations',COUNT_MEASURE(0.));
#17=VALUE_REPRESENTATION_ITEM('number of views',COUNT_MEASURE(0.));
#18=SHAPE_REPRESENTATION_RELATIONSHIP('','',#566,#19);
#19=ADVANCED_BREP_SHAPE_REPRESENTATION('',(#564),#923);
#20=SPHERICAL_SURFACE('',#623,0.004);
#21=CONICAL_SURFACE('',#615,0.00112325,0.288395891885402);
#22=CYLINDRICAL_SURFACE('',#612,0.00119);
#23=CYLINDRICAL_SURFACE('',#617,0.00112325);
#24=CYLINDRICAL_SURFACE('',#620,0.0025);
#25=OVER_RIDING_STYLED_ITEM('',(#516),#506,#514);
#26=OVER_RIDING_STYLED_ITEM('',(#517),#507,#514);
#27=OVER_RIDING_STYLED_ITEM('',(#518),#508,#514);
#28=OVER_RIDING_STYLED_ITEM('',(#519),#509,#514);
#29=OVER_RIDING_STYLED_ITEM('',(#520),#510,#514);
#30=OVER_RIDING_STYLED_ITEM('',(#521),#511,#514);
#31=OVER_RIDING_STYLED_ITEM('',(#522),#512,#514);
#32=DRAUGHTING_PRE_DEFINED_COLOUR('white');
#33=LINE('',#785,#73);
#34=LINE('',#788,#74);
#35=LINE('',#790,#75);
#36=LINE('',#792,#76);
#37=LINE('',#794,#77);
#38=LINE('',#796,#78);
#39=LINE('',#798,#79);
#40=LINE('',#800,#80);
#41=LINE('',#802,#81);
#42=LINE('',#804,#82);
#43=LINE('',#806,#83);
#44=LINE('',#808,#84);
#45=LINE('',#810,#85);
#46=LINE('',#812,#86);
#47=LINE('',#814,#87);
#48=LINE('',#816,#88);
#49=LINE('',#818,#89);
#50=LINE('',#820,#90);
#51=LINE('',#822,#91);
#52=LINE('',#824,#92);
#53=LINE('',#829,#93);
#54=LINE('',#830,#94);
#55=LINE('',#834,#95);
#56=LINE('',#838,#96);
#57=LINE('',#842,#97);
#58=LINE('',#846,#98);
#59=LINE('',#850,#99);
#60=LINE('',#854,#100);
#61=LINE('',#858,#101);
#62=LINE('',#862,#102);
#63=LINE('',#866,#103);
#64=LINE('',#870,#104);
#65=LINE('',#874,#105);
#66=LINE('',#878,#106);
#67=LINE('',#882,#107);
#68=LINE('',#886,#108);
#69=LINE('',#890,#109);
#70=LINE('',#894,#110);
#71=LINE('',#898,#111);
#72=LINE('',#902,#112);
#73=VECTOR('',#634,1.);
#74=VECTOR('',#635,1.);
#75=VECTOR('',#636,1.);
#76=VECTOR('',#637,1.);
#77=VECTOR('',#638,1.);
#78=VECTOR('',#639,1.);
#79=VECTOR('',#640,1.);
#80=VECTOR('',#641,1.);
#81=VECTOR('',#642,1.);
#82=VECTOR('',#643,1.);
#83=VECTOR('',#644,1.);
#84=VECTOR('',#645,1.);
#85=VECTOR('',#646,1.);
#86=VECTOR('',#647,1.);
#87=VECTOR('',#648,1.);
#88=VECTOR('',#649,1.);
#89=VECTOR('',#650,1.);
#90=VECTOR('',#651,1.);
#91=VECTOR('',#652,1.);
#92=VECTOR('',#653,1.);
#93=VECTOR('',#658,1.);
#94=VECTOR('',#659,1.);
#95=VECTOR('',#664,1.);
#96=VECTOR('',#669,1.);
#97=VECTOR('',#674,1.);
#98=VECTOR('',#679,1.);
#99=VECTOR('',#684,1.);
#100=VECTOR('',#689,1.);
#101=VECTOR('',#694,1.);
#102=VECTOR('',#699,1.);
#103=VECTOR('',#704,1.);
#104=VECTOR('',#709,1.);
#105=VECTOR('',#714,1.);
#106=VECTOR('',#719,1.);
#107=VECTOR('',#724,1.);
#108=VECTOR('',#729,1.);
#109=VECTOR('',#734,1.);
#110=VECTOR('',#739,1.);
#111=VECTOR('',#744,1.);
#112=VECTOR('',#749,1.);
#113=PLANE('',#571);
#114=PLANE('',#572);
#115=PLANE('',#574);
#116=PLANE('',#576);
#117=PLANE('',#578);
#118=PLANE('',#580);
#119=PLANE('',#582);
#120=PLANE('',#584);
#121=PLANE('',#586);
#122=PLANE('',#588);
#123=PLANE('',#590);
#124=PLANE('',#592);
#125=PLANE('',#594);
#126=PLANE('',#596);
#127=PLANE('',#598);
#128=PLANE('',#600);
#129=PLANE('',#602);
#130=PLANE('',#604);
#131=PLANE('',#606);
#132=PLANE('',#608);
#133=PLANE('',#610);
#134=PLANE('',#618);
#135=PLANE('',#622);
#136=ORIENTED_EDGE('',*,*,#270,.F.);
#137=ORIENTED_EDGE('',*,*,#271,.F.);
#138=ORIENTED_EDGE('',*,*,#272,.T.);
#139=ORIENTED_EDGE('',*,*,#273,.T.);
#140=ORIENTED_EDGE('',*,*,#274,.T.);
#141=ORIENTED_EDGE('',*,*,#275,.T.);
#142=ORIENTED_EDGE('',*,*,#276,.T.);
#143=ORIENTED_EDGE('',*,*,#277,.T.);
#144=ORIENTED_EDGE('',*,*,#278,.T.);
#145=ORIENTED_EDGE('',*,*,#279,.T.);
#146=ORIENTED_EDGE('',*,*,#280,.T.);
#147=ORIENTED_EDGE('',*,*,#281,.T.);
#148=ORIENTED_EDGE('',*,*,#282,.T.);
#149=ORIENTED_EDGE('',*,*,#283,.T.);
#150=ORIENTED_EDGE('',*,*,#284,.T.);
#151=ORIENTED_EDGE('',*,*,#285,.T.);
#152=ORIENTED_EDGE('',*,*,#286,.T.);
#153=ORIENTED_EDGE('',*,*,#287,.T.);
#154=ORIENTED_EDGE('',*,*,#288,.T.);
#155=ORIENTED_EDGE('',*,*,#289,.T.);
#156=ORIENTED_EDGE('',*,*,#290,.T.);
#157=ORIENTED_EDGE('',*,*,#291,.T.);
#158=ORIENTED_EDGE('',*,*,#292,.T.);
#159=ORIENTED_EDGE('',*,*,#293,.T.);
#160=ORIENTED_EDGE('',*,*,#273,.F.);
#161=ORIENTED_EDGE('',*,*,#294,.F.);
#162=ORIENTED_EDGE('',*,*,#295,.T.);
#163=ORIENTED_EDGE('',*,*,#294,.T.);
#164=ORIENTED_EDGE('',*,*,#272,.F.);
#165=ORIENTED_EDGE('',*,*,#296,.F.);
#166=ORIENTED_EDGE('',*,*,#297,.T.);
#167=ORIENTED_EDGE('',*,*,#298,.T.);
#168=ORIENTED_EDGE('',*,*,#274,.F.);
#169=ORIENTED_EDGE('',*,*,#293,.F.);
#170=ORIENTED_EDGE('',*,*,#299,.T.);
#171=ORIENTED_EDGE('',*,*,#300,.T.);
#172=ORIENTED_EDGE('',*,*,#275,.F.);
#173=ORIENTED_EDGE('',*,*,#298,.F.);
#174=ORIENTED_EDGE('',*,*,#301,.T.);
#175=ORIENTED_EDGE('',*,*,#302,.T.);
#176=ORIENTED_EDGE('',*,*,#276,.F.);
#177=ORIENTED_EDGE('',*,*,#300,.F.);
#178=ORIENTED_EDGE('',*,*,#303,.T.);
#179=ORIENTED_EDGE('',*,*,#304,.T.);
#180=ORIENTED_EDGE('',*,*,#277,.F.);
#181=ORIENTED_EDGE('',*,*,#302,.F.);
#182=ORIENTED_EDGE('',*,*,#305,.T.);
#183=ORIENTED_EDGE('',*,*,#306,.T.);
#184=ORIENTED_EDGE('',*,*,#278,.F.);
#185=ORIENTED_EDGE('',*,*,#304,.F.);
#186=ORIENTED_EDGE('',*,*,#307,.T.);
#187=ORIENTED_EDGE('',*,*,#308,.T.);
#188=ORIENTED_EDGE('',*,*,#279,.F.);
#189=ORIENTED_EDGE('',*,*,#306,.F.);
#190=ORIENTED_EDGE('',*,*,#309,.T.);
#191=ORIENTED_EDGE('',*,*,#310,.T.);
#192=ORIENTED_EDGE('',*,*,#280,.F.);
#193=ORIENTED_EDGE('',*,*,#308,.F.);
#194=ORIENTED_EDGE('',*,*,#311,.T.);
#195=ORIENTED_EDGE('',*,*,#312,.T.);
#196=ORIENTED_EDGE('',*,*,#281,.F.);
#197=ORIENTED_EDGE('',*,*,#310,.F.);
#198=ORIENTED_EDGE('',*,*,#313,.T.);
#199=ORIENTED_EDGE('',*,*,#314,.T.);
#200=ORIENTED_EDGE('',*,*,#282,.F.);
#201=ORIENTED_EDGE('',*,*,#312,.F.);
#202=ORIENTED_EDGE('',*,*,#315,.T.);
#203=ORIENTED_EDGE('',*,*,#316,.T.);
#204=ORIENTED_EDGE('',*,*,#283,.F.);
#205=ORIENTED_EDGE('',*,*,#314,.F.);
#206=ORIENTED_EDGE('',*,*,#317,.T.);
#207=ORIENTED_EDGE('',*,*,#318,.T.);
#208=ORIENTED_EDGE('',*,*,#284,.F.);
#209=ORIENTED_EDGE('',*,*,#316,.F.);
#210=ORIENTED_EDGE('',*,*,#319,.T.);
#211=ORIENTED_EDGE('',*,*,#320,.T.);
#212=ORIENTED_EDGE('',*,*,#285,.F.);
#213=ORIENTED_EDGE('',*,*,#318,.F.);
#214=ORIENTED_EDGE('',*,*,#321,.T.);
#215=ORIENTED_EDGE('',*,*,#322,.T.);
#216=ORIENTED_EDGE('',*,*,#286,.F.);
#217=ORIENTED_EDGE('',*,*,#320,.F.);
#218=ORIENTED_EDGE('',*,*,#323,.T.);
#219=ORIENTED_EDGE('',*,*,#324,.T.);
#220=ORIENTED_EDGE('',*,*,#287,.F.);
#221=ORIENTED_EDGE('',*,*,#322,.F.);
#222=ORIENTED_EDGE('',*,*,#325,.T.);
#223=ORIENTED_EDGE('',*,*,#326,.T.);
#224=ORIENTED_EDGE('',*,*,#288,.F.);
#225=ORIENTED_EDGE('',*,*,#324,.F.);
#226=ORIENTED_EDGE('',*,*,#327,.T.);
#227=ORIENTED_EDGE('',*,*,#328,.T.);
#228=ORIENTED_EDGE('',*,*,#289,.F.);
#229=ORIENTED_EDGE('',*,*,#326,.F.);
#230=ORIENTED_EDGE('',*,*,#329,.T.);
#231=ORIENTED_EDGE('',*,*,#330,.T.);
#232=ORIENTED_EDGE('',*,*,#290,.F.);
#233=ORIENTED_EDGE('',*,*,#328,.F.);
#234=ORIENTED_EDGE('',*,*,#331,.T.);
#235=ORIENTED_EDGE('',*,*,#296,.T.);
#236=ORIENTED_EDGE('',*,*,#291,.F.);
#237=ORIENTED_EDGE('',*,*,#330,.F.);
#238=ORIENTED_EDGE('',*,*,#332,.T.);
#239=ORIENTED_EDGE('',*,*,#333,.F.);
#240=ORIENTED_EDGE('',*,*,#334,.T.);
#241=ORIENTED_EDGE('',*,*,#332,.F.);
#242=ORIENTED_EDGE('',*,*,#270,.T.);
#243=ORIENTED_EDGE('',*,*,#334,.F.);
#244=ORIENTED_EDGE('',*,*,#271,.T.);
#245=ORIENTED_EDGE('',*,*,#335,.T.);
#246=ORIENTED_EDGE('',*,*,#336,.T.);
#247=ORIENTED_EDGE('',*,*,#335,.F.);
#248=ORIENTED_EDGE('',*,*,#333,.T.);
#249=ORIENTED_EDGE('',*,*,#325,.F.);
#250=ORIENTED_EDGE('',*,*,#323,.F.);
#251=ORIENTED_EDGE('',*,*,#321,.F.);
#252=ORIENTED_EDGE('',*,*,#319,.F.);
#253=ORIENTED_EDGE('',*,*,#317,.F.);
#254=ORIENTED_EDGE('',*,*,#315,.F.);
#255=ORIENTED_EDGE('',*,*,#313,.F.);
#256=ORIENTED_EDGE('',*,*,#311,.F.);
#257=ORIENTED_EDGE('',*,*,#309,.F.);
#258=ORIENTED_EDGE('',*,*,#307,.F.);
#259=ORIENTED_EDGE('',*,*,#305,.F.);
#260=ORIENTED_EDGE('',*,*,#303,.F.);
#261=ORIENTED_EDGE('',*,*,#301,.F.);
#262=ORIENTED_EDGE('',*,*,#299,.F.);
#263=ORIENTED_EDGE('',*,*,#297,.F.);
#264=ORIENTED_EDGE('',*,*,#292,.F.);
#265=ORIENTED_EDGE('',*,*,#295,.F.);
#266=ORIENTED_EDGE('',*,*,#331,.F.);
#267=ORIENTED_EDGE('',*,*,#329,.F.);
#268=ORIENTED_EDGE('',*,*,#327,.F.);
#269=ORIENTED_EDGE('',*,*,#336,.F.);
#270=EDGE_CURVE('',#337,#337,#384,.T.);
#271=EDGE_CURVE('',#338,#338,#385,.T.);
#272=EDGE_CURVE('',#339,#340,#33,.T.);
#273=EDGE_CURVE('',#340,#341,#34,.T.);
#274=EDGE_CURVE('',#341,#342,#35,.T.);
#275=EDGE_CURVE('',#342,#343,#36,.T.);
#276=EDGE_CURVE('',#343,#344,#37,.T.);
#277=EDGE_CURVE('',#344,#345,#38,.T.);
#278=EDGE_CURVE('',#345,#346,#39,.T.);
#279=EDGE_CURVE('',#346,#347,#40,.T.);
#280=EDGE_CURVE('',#347,#348,#41,.T.);
#281=EDGE_CURVE('',#348,#349,#42,.T.);
#282=EDGE_CURVE('',#349,#350,#43,.T.);
#283=EDGE_CURVE('',#350,#351,#44,.T.);
#284=EDGE_CURVE('',#351,#352,#45,.T.);
#285=EDGE_CURVE('',#352,#353,#46,.T.);
#286=EDGE_CURVE('',#353,#354,#47,.T.);
#287=EDGE_CURVE('',#354,#355,#48,.T.);
#288=EDGE_CURVE('',#355,#356,#49,.T.);
#289=EDGE_CURVE('',#356,#357,#50,.T.);
#290=EDGE_CURVE('',#357,#358,#51,.T.);
#291=EDGE_CURVE('',#358,#339,#52,.T.);
#292=EDGE_CURVE('',#359,#360,#386,.T.);
#293=EDGE_CURVE('',#360,#341,#53,.T.);
#294=EDGE_CURVE('',#359,#340,#54,.T.);
#295=EDGE_CURVE('',#361,#359,#387,.T.);
#296=EDGE_CURVE('',#361,#339,#55,.T.);
#297=EDGE_CURVE('',#360,#362,#388,.T.);
#298=EDGE_CURVE('',#362,#342,#56,.T.);
#299=EDGE_CURVE('',#362,#363,#389,.T.);
#300=EDGE_CURVE('',#363,#343,#57,.T.);
#301=EDGE_CURVE('',#363,#364,#390,.T.);
#302=EDGE_CURVE('',#364,#344,#58,.T.);
#303=EDGE_CURVE('',#364,#365,#391,.T.);
#304=EDGE_CURVE('',#365,#345,#59,.T.);
#305=EDGE_CURVE('',#365,#366,#392,.T.);
#306=EDGE_CURVE('',#366,#346,#60,.T.);
#307=EDGE_CURVE('',#366,#367,#393,.T.);
#308=EDGE_CURVE('',#367,#347,#61,.T.);
#309=EDGE_CURVE('',#367,#368,#394,.T.);
#310=EDGE_CURVE('',#368,#348,#62,.T.);
#311=EDGE_CURVE('',#368,#369,#395,.T.);
#312=EDGE_CURVE('',#369,#349,#63,.T.);
#313=EDGE_CURVE('',#369,#370,#396,.T.);
#314=EDGE_CURVE('',#370,#350,#64,.T.);
#315=EDGE_CURVE('',#370,#371,#397,.T.);
#316=EDGE_CURVE('',#371,#351,#65,.T.);
#317=EDGE_CURVE('',#371,#372,#398,.T.);
#318=EDGE_CURVE('',#372,#352,#66,.T.);
#319=EDGE_CURVE('',#372,#373,#399,.T.);
#320=EDGE_CURVE('',#373,#353,#67,.T.);
#321=EDGE_CURVE('',#373,#374,#400,.T.);
#322=EDGE_CURVE('',#374,#354,#68,.T.);
#323=EDGE_CURVE('',#374,#375,#401,.T.);
#324=EDGE_CURVE('',#375,#355,#69,.T.);
#325=EDGE_CURVE('',#375,#376,#402,.T.);
#326=EDGE_CURVE('',#376,#356,#70,.T.);
#327=EDGE_CURVE('',#376,#377,#403,.T.);
#328=EDGE_CURVE('',#377,#357,#71,.T.);
#329=EDGE_CURVE('',#377,#378,#404,.T.);
#330=EDGE_CURVE('',#378,#358,#72,.T.);
#331=EDGE_CURVE('',#378,#361,#405,.T.);
#332=EDGE_CURVE('',#379,#379,#406,.T.);
#333=EDGE_CURVE('',#380,#380,#407,.T.);
#334=EDGE_CURVE('',#381,#381,#408,.T.);
#335=EDGE_CURVE('',#382,#382,#409,.T.);
#336=EDGE_CURVE('',#383,#383,#410,.T.);
#337=VERTEX_POINT('',#781);
#338=VERTEX_POINT('',#783);
#339=VERTEX_POINT('',#786);
#340=VERTEX_POINT('',#787);
#341=VERTEX_POINT('',#789);
#342=VERTEX_POINT('',#791);
#343=VERTEX_POINT('',#793);
#344=VERTEX_POINT('',#795);
#345=VERTEX_POINT('',#797);
#346=VERTEX_POINT('',#799);
#347=VERTEX_POINT('',#801);
#348=VERTEX_POINT('',#803);
#349=VERTEX_POINT('',#805);
#350=VERTEX_POINT('',#807);
#351=VERTEX_POINT('',#809);
#352=VERTEX_POINT('',#811);
#353=VERTEX_POINT('',#813);
#354=VERTEX_POINT('',#815);
#355=VERTEX_POINT('',#817);
#356=VERTEX_POINT('',#819);
#357=VERTEX_POINT('',#821);
#358=VERTEX_POINT('',#823);
#359=VERTEX_POINT('',#827);
#360=VERTEX_POINT('',#828);
#361=VERTEX_POINT('',#833);
#362=VERTEX_POINT('',#837);
#363=VERTEX_POINT('',#841);
#364=VERTEX_POINT('',#845);
#365=VERTEX_POINT('',#849);
#366=VERTEX_POINT('',#853);
#367=VERTEX_POINT('',#857);
#368=VERTEX_POINT('',#861);
#369=VERTEX_POINT('',#865);
#370=VERTEX_POINT('',#869);
#371=VERTEX_POINT('',#873);
#372=VERTEX_POINT('',#877);
#373=VERTEX_POINT('',#881);
#374=VERTEX_POINT('',#885);
#375=VERTEX_POINT('',#889);
#376=VERTEX_POINT('',#893);
#377=VERTEX_POINT('',#897);
#378=VERTEX_POINT('',#901);
#379=VERTEX_POINT('',#907);
#380=VERTEX_POINT('',#909);
#381=VERTEX_POINT('',#912);
#382=VERTEX_POINT('',#916);
#383=VERTEX_POINT('',#919);
#384=CIRCLE('',#569,0.00112325);
#385=CIRCLE('',#570,0.00122325);
#386=CIRCLE('',#573,0.0039978143141226);
#387=CIRCLE('',#575,0.00386579464418985);
#388=CIRCLE('',#577,0.00397999132855911);
#389=CIRCLE('',#579,0.00397999132855911);
#390=CIRCLE('',#581,0.0039978143141226);
#391=CIRCLE('',#583,0.00386579464418985);
#392=CIRCLE('',#585,0.0039978143141226);
#393=CIRCLE('',#587,0.00397999132855911);
#394=CIRCLE('',#589,0.00397999132855911);
#395=CIRCLE('',#591,0.0039978143141226);
#396=CIRCLE('',#593,0.00386579464418985);
#397=CIRCLE('',#595,0.0039978143141226);
#398=CIRCLE('',#597,0.00397999132855911);
#399=CIRCLE('',#599,0.00397999132855911);
#400=CIRCLE('',#601,0.0039978143141226);
#401=CIRCLE('',#603,0.00386579464418985);
#402=CIRCLE('',#605,0.0039978143141226);
#403=CIRCLE('',#607,0.00397999132855911);
#404=CIRCLE('',#609,0.00397999132855911);
#405=CIRCLE('',#611,0.0039978143141226);
#406=CIRCLE('',#613,0.00119);
#407=CIRCLE('',#614,0.00119);
#408=CIRCLE('',#616,0.00112325);
#409=CIRCLE('',#619,0.0025);
#410=CIRCLE('',#621,0.0025);
#411=EDGE_LOOP('',(#136));
#412=EDGE_LOOP('',(#137));
#413=EDGE_LOOP('',(#138,#139,#140,#141,#142,#143,#144,#145,#146,#147,#148,
#149,#150,#151,#152,#153,#154,#155,#156,#157));
#414=EDGE_LOOP('',(#158,#159,#160,#161));
#415=EDGE_LOOP('',(#162,#163,#164,#165));
#416=EDGE_LOOP('',(#166,#167,#168,#169));
#417=EDGE_LOOP('',(#170,#171,#172,#173));
#418=EDGE_LOOP('',(#174,#175,#176,#177));
#419=EDGE_LOOP('',(#178,#179,#180,#181));
#420=EDGE_LOOP('',(#182,#183,#184,#185));
#421=EDGE_LOOP('',(#186,#187,#188,#189));
#422=EDGE_LOOP('',(#190,#191,#192,#193));
#423=EDGE_LOOP('',(#194,#195,#196,#197));
#424=EDGE_LOOP('',(#198,#199,#200,#201));
#425=EDGE_LOOP('',(#202,#203,#204,#205));
#426=EDGE_LOOP('',(#206,#207,#208,#209));
#427=EDGE_LOOP('',(#210,#211,#212,#213));
#428=EDGE_LOOP('',(#214,#215,#216,#217));
#429=EDGE_LOOP('',(#218,#219,#220,#221));
#430=EDGE_LOOP('',(#222,#223,#224,#225));
#431=EDGE_LOOP('',(#226,#227,#228,#229));
#432=EDGE_LOOP('',(#230,#231,#232,#233));
#433=EDGE_LOOP('',(#234,#235,#236,#237));
#434=EDGE_LOOP('',(#238));
#435=EDGE_LOOP('',(#239));
#436=EDGE_LOOP('',(#240));
#437=EDGE_LOOP('',(#241));
#438=EDGE_LOOP('',(#242));
#439=EDGE_LOOP('',(#243));
#440=EDGE_LOOP('',(#244));
#441=EDGE_LOOP('',(#245));
#442=EDGE_LOOP('',(#246));
#443=EDGE_LOOP('',(#247));
#444=EDGE_LOOP('',(#248));
#445=EDGE_LOOP('',(#249,#250,#251,#252,#253,#254,#255,#256,#257,#258,#259,
#260,#261,#262,#263,#264,#265,#266,#267,#268));
#446=EDGE_LOOP('',(#269));
#447=FACE_BOUND('',#411,.T.);
#448=FACE_BOUND('',#412,.T.);
#449=FACE_BOUND('',#413,.T.);
#450=FACE_BOUND('',#414,.T.);
#451=FACE_BOUND('',#415,.T.);
#452=FACE_BOUND('',#416,.T.);
#453=FACE_BOUND('',#417,.T.);
#454=FACE_BOUND('',#418,.T.);
#455=FACE_BOUND('',#419,.T.);
#456=FACE_BOUND('',#420,.T.);
#457=FACE_BOUND('',#421,.T.);
#458=FACE_BOUND('',#422,.T.);
#459=FACE_BOUND('',#423,.T.);
#460=FACE_BOUND('',#424,.T.);
#461=FACE_BOUND('',#425,.T.);
#462=FACE_BOUND('',#426,.T.);
#463=FACE_BOUND('',#427,.T.);
#464=FACE_BOUND('',#428,.T.);
#465=FACE_BOUND('',#429,.T.);
#466=FACE_BOUND('',#430,.T.);
#467=FACE_BOUND('',#431,.T.);
#468=FACE_BOUND('',#432,.T.);
#469=FACE_BOUND('',#433,.T.);
#470=FACE_BOUND('',#434,.T.);
#471=FACE_BOUND('',#435,.T.);
#472=FACE_BOUND('',#436,.T.);
#473=FACE_BOUND('',#437,.T.);
#474=FACE_BOUND('',#438,.T.);
#475=FACE_BOUND('',#439,.T.);
#476=FACE_BOUND('',#440,.T.);
#477=FACE_BOUND('',#441,.T.);
#478=FACE_BOUND('',#442,.T.);
#479=FACE_BOUND('',#443,.T.);
#480=FACE_BOUND('',#444,.T.);
#481=FACE_BOUND('',#445,.T.);
#482=FACE_BOUND('',#446,.T.);
#483=TOROIDAL_SURFACE('',#568,0.00122325,0.0001);
#484=ADVANCED_FACE('',(#447,#448),#483,.F.);
#485=ADVANCED_FACE('',(#449),#113,.T.);
#486=ADVANCED_FACE('',(#450),#114,.T.);
#487=ADVANCED_FACE('',(#451),#115,.T.);
#488=ADVANCED_FACE('',(#452),#116,.T.);
#489=ADVANCED_FACE('',(#453),#117,.T.);
#490=ADVANCED_FACE('',(#454),#118,.T.);
#491=ADVANCED_FACE('',(#455),#119,.T.);
#492=ADVANCED_FACE('',(#456),#120,.T.);
#493=ADVANCED_FACE('',(#457),#121,.T.);
#494=ADVANCED_FACE('',(#458),#122,.T.);
#495=ADVANCED_FACE('',(#459),#123,.T.);
#496=ADVANCED_FACE('',(#460),#124,.T.);
#497=ADVANCED_FACE('',(#461),#125,.T.);
#498=ADVANCED_FACE('',(#462),#126,.T.);
#499=ADVANCED_FACE('',(#463),#127,.T.);
#500=ADVANCED_FACE('',(#464),#128,.T.);
#501=ADVANCED_FACE('',(#465),#129,.T.);
#502=ADVANCED_FACE('',(#466),#130,.T.);
#503=ADVANCED_FACE('',(#467),#131,.T.);
#504=ADVANCED_FACE('',(#468),#132,.T.);
#505=ADVANCED_FACE('',(#469),#133,.T.);
#506=ADVANCED_FACE('',(#470,#471),#22,.T.);
#507=ADVANCED_FACE('',(#472,#473),#21,.T.);
#508=ADVANCED_FACE('',(#474,#475),#23,.T.);
#509=ADVANCED_FACE('',(#476,#477),#134,.F.);
#510=ADVANCED_FACE('',(#478,#479),#24,.T.);
#511=ADVANCED_FACE('',(#480),#135,.F.);
#512=ADVANCED_FACE('',(#481,#482),#20,.T.);
#513=CLOSED_SHELL('',(#484,#485,#486,#487,#488,#489,#490,#491,#492,#493,
#494,#495,#496,#497,#498,#499,#500,#501,#502,#503,#504,#505,#506,#507,#508,
#509,#510,#511,#512));
#514=STYLED_ITEM('',(#515),#564);
#515=PRESENTATION_STYLE_ASSIGNMENT((#523));
#516=PRESENTATION_STYLE_ASSIGNMENT((#524));
#517=PRESENTATION_STYLE_ASSIGNMENT((#525));
#518=PRESENTATION_STYLE_ASSIGNMENT((#526));
#519=PRESENTATION_STYLE_ASSIGNMENT((#527));
#520=PRESENTATION_STYLE_ASSIGNMENT((#528));
#521=PRESENTATION_STYLE_ASSIGNMENT((#529));
#522=PRESENTATION_STYLE_ASSIGNMENT((#530));
#523=SURFACE_STYLE_USAGE(.BOTH.,#531);
#524=SURFACE_STYLE_USAGE(.BOTH.,#532);
#525=SURFACE_STYLE_USAGE(.BOTH.,#533);
#526=SURFACE_STYLE_USAGE(.BOTH.,#534);
#527=SURFACE_STYLE_USAGE(.BOTH.,#535);
#528=SURFACE_STYLE_USAGE(.BOTH.,#536);
#529=SURFACE_STYLE_USAGE(.BOTH.,#537);
#530=SURFACE_STYLE_USAGE(.BOTH.,#538);
#531=SURFACE_SIDE_STYLE('',(#539));
#532=SURFACE_SIDE_STYLE('',(#540));
#533=SURFACE_SIDE_STYLE('',(#541));
#534=SURFACE_SIDE_STYLE('',(#542));
#535=SURFACE_SIDE_STYLE('',(#543));
#536=SURFACE_SIDE_STYLE('',(#544));
#537=SURFACE_SIDE_STYLE('',(#545));
#538=SURFACE_SIDE_STYLE('',(#546));
#539=SURFACE_STYLE_FILL_AREA(#547);
#540=SURFACE_STYLE_FILL_AREA(#548);
#541=SURFACE_STYLE_FILL_AREA(#549);
#542=SURFACE_STYLE_FILL_AREA(#550);
#543=SURFACE_STYLE_FILL_AREA(#551);
#544=SURFACE_STYLE_FILL_AREA(#552);
#545=SURFACE_STYLE_FILL_AREA(#553);
#546=SURFACE_STYLE_FILL_AREA(#554);
#547=FILL_AREA_STYLE('',(#555));
#548=FILL_AREA_STYLE('',(#556));
#549=FILL_AREA_STYLE('',(#557));
#550=FILL_AREA_STYLE('',(#558));
#551=FILL_AREA_STYLE('',(#559));
#552=FILL_AREA_STYLE('',(#560));
#553=FILL_AREA_STYLE('',(#561));
#554=FILL_AREA_STYLE('',(#562));
#555=FILL_AREA_STYLE_COLOUR('',#563);
#556=FILL_AREA_STYLE_COLOUR('',#32);
#557=FILL_AREA_STYLE_COLOUR('',#32);
#558=FILL_AREA_STYLE_COLOUR('',#32);
#559=FILL_AREA_STYLE_COLOUR('',#32);
#560=FILL_AREA_STYLE_COLOUR('',#32);
#561=FILL_AREA_STYLE_COLOUR('',#32);
#562=FILL_AREA_STYLE_COLOUR('',#32);
#563=COLOUR_RGB('',0.6,0.6,0.6);
#564=MANIFOLD_SOLID_BREP('screw_nylon_M2.5x10',#513);
#565=SHAPE_DEFINITION_REPRESENTATION(#928,#566);
#566=SHAPE_REPRESENTATION('screw_nylon_M2.5x10',(#567),#923);
#567=AXIS2_PLACEMENT_3D('',#778,#624,#625);
#568=AXIS2_PLACEMENT_3D('',#779,#626,#627);
#569=AXIS2_PLACEMENT_3D('',#780,#628,#629);
#570=AXIS2_PLACEMENT_3D('',#782,#630,#631);
#571=AXIS2_PLACEMENT_3D('',#784,#632,#633);
#572=AXIS2_PLACEMENT_3D('',#825,#654,#655);
#573=AXIS2_PLACEMENT_3D('',#826,#656,#657);
#574=AXIS2_PLACEMENT_3D('',#831,#660,#661);
#575=AXIS2_PLACEMENT_3D('',#832,#662,#663);
#576=AXIS2_PLACEMENT_3D('',#835,#665,#666);
#577=AXIS2_PLACEMENT_3D('',#836,#667,#668);
#578=AXIS2_PLACEMENT_3D('',#839,#670,#671);
#579=AXIS2_PLACEMENT_3D('',#840,#672,#673);
#580=AXIS2_PLACEMENT_3D('',#843,#675,#676);
#581=AXIS2_PLACEMENT_3D('',#844,#677,#678);
#582=AXIS2_PLACEMENT_3D('',#847,#680,#681);
#583=AXIS2_PLACEMENT_3D('',#848,#682,#683);
#584=AXIS2_PLACEMENT_3D('',#851,#685,#686);
#585=AXIS2_PLACEMENT_3D('',#852,#687,#688);
#586=AXIS2_PLACEMENT_3D('',#855,#690,#691);
#587=AXIS2_PLACEMENT_3D('',#856,#692,#693);
#588=AXIS2_PLACEMENT_3D('',#859,#695,#696);
#589=AXIS2_PLACEMENT_3D('',#860,#697,#698);
#590=AXIS2_PLACEMENT_3D('',#863,#700,#701);
#591=AXIS2_PLACEMENT_3D('',#864,#702,#703);
#592=AXIS2_PLACEMENT_3D('',#867,#705,#706);
#593=AXIS2_PLACEMENT_3D('',#868,#707,#708);
#594=AXIS2_PLACEMENT_3D('',#871,#710,#711);
#595=AXIS2_PLACEMENT_3D('',#872,#712,#713);
#596=AXIS2_PLACEMENT_3D('',#875,#715,#716);
#597=AXIS2_PLACEMENT_3D('',#876,#717,#718);
#598=AXIS2_PLACEMENT_3D('',#879,#720,#721);
#599=AXIS2_PLACEMENT_3D('',#880,#722,#723);
#600=AXIS2_PLACEMENT_3D('',#883,#725,#726);
#601=AXIS2_PLACEMENT_3D('',#884,#727,#728);
#602=AXIS2_PLACEMENT_3D('',#887,#730,#731);
#603=AXIS2_PLACEMENT_3D('',#888,#732,#733);
#604=AXIS2_PLACEMENT_3D('',#891,#735,#736);
#605=AXIS2_PLACEMENT_3D('',#892,#737,#738);
#606=AXIS2_PLACEMENT_3D('',#895,#740,#741);
#607=AXIS2_PLACEMENT_3D('',#896,#742,#743);
#608=AXIS2_PLACEMENT_3D('',#899,#745,#746);
#609=AXIS2_PLACEMENT_3D('',#900,#747,#748);
#610=AXIS2_PLACEMENT_3D('',#903,#750,#751);
#611=AXIS2_PLACEMENT_3D('',#904,#752,#753);
#612=AXIS2_PLACEMENT_3D('',#905,#754,#755);
#613=AXIS2_PLACEMENT_3D('',#906,#756,#757);
#614=AXIS2_PLACEMENT_3D('',#908,#758,#759);
#615=AXIS2_PLACEMENT_3D('',#910,#760,#761);
#616=AXIS2_PLACEMENT_3D('',#911,#762,#763);
#617=AXIS2_PLACEMENT_3D('',#913,#764,#765);
#618=AXIS2_PLACEMENT_3D('',#914,#766,#767);
#619=AXIS2_PLACEMENT_3D('',#915,#768,#769);
#620=AXIS2_PLACEMENT_3D('',#917,#770,#771);
#621=AXIS2_PLACEMENT_3D('',#918,#772,#773);
#622=AXIS2_PLACEMENT_3D('',#920,#774,#775);
#623=AXIS2_PLACEMENT_3D('',#921,#776,#777);
#624=DIRECTION('',(0.,0.,1.));
#625=DIRECTION('',(1.,0.,0.));
#626=DIRECTION('',(0.,0.,1.));
#627=DIRECTION('',(1.,0.,0.));
#628=DIRECTION('',(0.,0.,-1.));
#629=DIRECTION('',(1.,0.,0.));
#630=DIRECTION('',(0.,0.,1.));
#631=DIRECTION('',(1.,0.,0.));
#632=DIRECTION('',(0.,0.,1.));
#633=DIRECTION('',(1.,0.,0.));
#634=DIRECTION('',(1.28498035257541E-15,1.,0.));
#635=DIRECTION('',(-1.,-1.44077893353539E-15,-5.4886816515634E-16));
#636=DIRECTION('',(-0.923879532511286,0.382683432365091,5.4886816515634E-16));
#637=DIRECTION('',(-0.382683432365088,0.923879532511287,0.));
#638=DIRECTION('',(8.2330224773451E-16,1.,0.));
#639=DIRECTION('',(-1.,0.,0.));
#640=DIRECTION('',(8.2330224773451E-16,-1.,0.));
#641=DIRECTION('',(-0.382683432365088,-0.923879532511287,0.));
#642=DIRECTION('',(-0.923879532511286,-0.382683432365091,0.));
#643=DIRECTION('',(-1.,4.87120496576252E-15,0.));
#644=DIRECTION('',(2.56996070515079E-15,-1.,0.));
#645=DIRECTION('',(1.,-2.05825561933627E-16,0.));
#646=DIRECTION('',(0.923879532511286,-0.382683432365091,0.));
#647=DIRECTION('',(0.382683432365089,-0.923879532511287,0.));
#648=DIRECTION('',(-5.4886816515634E-16,-1.,0.));
#649=DIRECTION('',(1.,0.,0.));
#650=DIRECTION('',(-4.80259644511798E-16,1.,0.));
#651=DIRECTION('',(0.382683432365089,0.923879532511287,0.));
#652=DIRECTION('',(0.923879532511286,0.382683432365091,0.));
#653=DIRECTION('',(1.,-2.60712378449262E-15,0.));
#654=DIRECTION('',(-2.16766378244397E-16,-0.997174354034232,0.07512195189432));
#655=DIRECTION('',(0.,-0.07512195189432,-0.997174354034232));
#656=DIRECTION('',(-2.16766378244397E-16,-0.997174354034232,0.07512195189432));
#657=DIRECTION('',(0.,-0.07512195189432,-0.997174354034232));
#658=DIRECTION('',(-0.367932537528321,-0.069852333807241,-0.927225053204265));
#659=DIRECTION('',(-0.539675074022183,-0.0632431727369746,-0.839494559590062));
#660=DIRECTION('',(-0.841178475376553,-8.77741403995119E-16,0.540757591313499));
#661=DIRECTION('',(0.540757591313499,4.43734259186819E-31,0.841178475376553));
#662=DIRECTION('',(-0.841178475376553,-8.77741403995119E-16,0.540757591313499));
#663=DIRECTION('',(0.540757591313499,4.43734259186819E-31,0.841178475376553));
#664=DIRECTION('',(-0.539675074022183,0.0632431727369745,-0.839494559590062));
#665=DIRECTION('',(-0.37363137183297,-0.902025925207222,0.216214773399665));
#666=DIRECTION('',(0.923879532511287,-0.38268343236509,9.71445146547012E-17));
#667=DIRECTION('',(-0.37363137183297,-0.902025925207222,0.216214773399665));
#668=DIRECTION('',(0.923879532511287,-0.382683432365089,9.71445146547012E-17));
#669=DIRECTION('',(-0.164823930966078,-0.164823930966078,-0.972453671678903));
#670=DIRECTION('',(-0.902025925207222,-0.373631371832971,0.216214773399665));
#671=DIRECTION('',(0.38268343236509,-0.923879532511287,-9.71445146547011E-17));
#672=DIRECTION('',(-0.902025925207222,-0.373631371832971,0.216214773399665));
#673=DIRECTION('',(0.38268343236509,-0.923879532511287,-9.71445146547011E-17));
#674=DIRECTION('',(-0.0698523338072409,-0.367932537528321,-0.927225053204265));
#675=DIRECTION('',(-0.997174354034232,-6.50299134733193E-16,0.0751219518943201));
#676=DIRECTION('',(0.0751219518943201,0.,0.997174354034232));
#677=DIRECTION('',(-0.997174354034232,-6.50299134733193E-16,0.0751219518943201));
#678=DIRECTION('',(0.0751219518943201,0.,0.997174354034232));
#679=DIRECTION('',(-0.0632431727369744,-0.539675074022183,-0.839494559590062));
#680=DIRECTION('',(-8.77741403995119E-16,-0.841178475376553,0.540757591313499));
#681=DIRECTION('',(-4.43734259186819E-31,-0.540757591313499,-0.841178475376553));
#682=DIRECTION('',(-8.77741403995119E-16,-0.841178475376553,0.540757591313499));
#683=DIRECTION('',(-4.43734259186819E-31,-0.540757591313499,-0.841178475376553));
#684=DIRECTION('',(0.0632431727369744,-0.539675074022183,-0.839494559590062));
#685=DIRECTION('',(0.997174354034232,-6.50299134733193E-16,0.0751219518943201));
#686=DIRECTION('',(0.0751219518943201,0.,-0.997174354034232));
#687=DIRECTION('',(0.997174354034232,-6.50299134733193E-16,0.0751219518943201));
#688=DIRECTION('',(0.0751219518943201,0.,-0.997174354034232));
#689=DIRECTION('',(0.0698523338072409,-0.367932537528321,-0.927225053204265));
#690=DIRECTION('',(0.902025925207222,-0.373631371832971,0.216214773399665));
#691=DIRECTION('',(0.38268343236509,0.923879532511287,9.71445146547011E-17));
#692=DIRECTION('',(0.902025925207222,-0.373631371832971,0.216214773399665));
#693=DIRECTION('',(0.38268343236509,0.923879532511287,9.71445146547011E-17));
#694=DIRECTION('',(0.164823930966078,-0.164823930966078,-0.972453671678903));
#695=DIRECTION('',(0.37363137183297,-0.902025925207222,0.216214773399665));
#696=DIRECTION('',(0.923879532511287,0.38268343236509,9.71445146547012E-17));
#697=DIRECTION('',(0.37363137183297,-0.902025925207222,0.216214773399665));
#698=DIRECTION('',(0.923879532511287,0.38268343236509,9.71445146547012E-17));
#699=DIRECTION('',(0.367932537528321,-0.069852333807241,-0.927225053204265));
#700=DIRECTION('',(1.19221508034419E-15,-0.997174354034232,0.0751219518943205));
#701=DIRECTION('',(0.,-0.0751219518943205,-0.997174354034232));
#702=DIRECTION('',(1.19221508034419E-15,-0.997174354034232,0.0751219518943205));
#703=DIRECTION('',(0.,-0.0751219518943205,-0.997174354034232));
#704=DIRECTION('',(0.539675074022183,-0.0632431727369744,-0.839494559590062));
#705=DIRECTION('',(0.841178475376553,-8.77741403995122E-16,0.540757591313499));
#706=DIRECTION('',(0.540757591313499,-5.42341872339445E-31,-0.841178475376553));
#707=DIRECTION('',(0.841178475376553,-8.77741403995122E-16,0.540757591313499));
#708=DIRECTION('',(0.540757591313499,-5.42341872339445E-31,-0.841178475376553));
#709=DIRECTION('',(0.539675074022183,0.0632431727369746,-0.839494559590062));
#710=DIRECTION('',(3.61277297073996E-17,0.997174354034232,0.07512195189432));
#711=DIRECTION('',(-3.85185988877447E-34,-0.07512195189432,0.997174354034232));
#712=DIRECTION('',(3.61277297073996E-17,0.997174354034232,0.07512195189432));
#713=DIRECTION('',(-3.85185988877447E-34,-0.07512195189432,0.997174354034232));
#714=DIRECTION('',(0.367932537528321,0.069852333807241,-0.927225053204265));
#715=DIRECTION('',(0.37363137183297,0.902025925207222,0.216214773399665));
#716=DIRECTION('',(-0.923879532511287,0.38268343236509,-9.71445146547012E-17));
#717=DIRECTION('',(0.37363137183297,0.902025925207222,0.216214773399665));
#718=DIRECTION('',(-0.923879532511287,0.38268343236509,-9.71445146547012E-17));
#719=DIRECTION('',(0.164823930966078,0.164823930966078,-0.972453671678903));
#720=DIRECTION('',(0.902025925207221,0.373631371832971,0.216214773399665));
#721=DIRECTION('',(-0.382683432365091,0.923879532511286,-8.32667268468867E-17));
#722=DIRECTION('',(0.902025925207221,0.373631371832971,0.216214773399665));
#723=DIRECTION('',(-0.382683432365091,0.923879532511286,-8.32667268468868E-17));
#724=DIRECTION('',(0.0698523338072408,0.367932537528321,-0.927225053204265));
#725=DIRECTION('',(0.997174354034232,1.08383189122199E-16,0.0751219518943198));
#726=DIRECTION('',(0.0751219518943198,0.,-0.997174354034232));
#727=DIRECTION('',(0.997174354034232,1.08383189122199E-16,0.0751219518943198));
#728=DIRECTION('',(0.0751219518943198,0.,-0.997174354034232));
#729=DIRECTION('',(0.0632431727369744,0.539675074022183,-0.839494559590062));
#730=DIRECTION('',(8.77741403995122E-16,0.841178475376553,0.540757591313499));
#731=DIRECTION('',(-5.42341872339445E-31,-0.540757591313499,0.841178475376553));
#732=DIRECTION('',(8.77741403995122E-16,0.841178475376553,0.540757591313499));
#733=DIRECTION('',(-5.42341872339445E-31,-0.540757591313499,0.841178475376553));
#734=DIRECTION('',(-0.0632431727369744,0.539675074022183,-0.839494559590062));
#735=DIRECTION('',(-0.997174354034232,1.80638648536998E-16,0.0751219518943198));
#736=DIRECTION('',(0.0751219518943198,0.,0.997174354034232));
#737=DIRECTION('',(-0.997174354034232,1.80638648536998E-16,0.0751219518943198));
#738=DIRECTION('',(0.0751219518943198,0.,0.997174354034232));
#739=DIRECTION('',(-0.0698523338072408,0.367932537528321,-0.927225053204265));
#740=DIRECTION('',(-0.902025925207221,0.373631371832971,0.216214773399665));
#741=DIRECTION('',(-0.382683432365091,-0.923879532511286,8.32667268468867E-17));
#742=DIRECTION('',(-0.902025925207221,0.373631371832971,0.216214773399665));
#743=DIRECTION('',(-0.382683432365091,-0.923879532511286,8.32667268468868E-17));
#744=DIRECTION('',(-0.164823930966078,0.164823930966078,-0.972453671678903));
#745=DIRECTION('',(-0.37363137183297,0.902025925207222,0.216214773399665));
#746=DIRECTION('',(-0.923879532511287,-0.38268343236509,9.71445146547012E-17));
#747=DIRECTION('',(-0.37363137183297,0.902025925207222,0.216214773399665));
#748=DIRECTION('',(-0.923879532511287,-0.38268343236509,9.71445146547012E-17));
#749=DIRECTION('',(-0.367932537528321,0.069852333807241,-0.927225053204265));
#750=DIRECTION('',(-6.86426864440592E-16,0.997174354034232,0.0751219518943202));
#751=DIRECTION('',(0.,-0.0751219518943202,0.997174354034232));
#752=DIRECTION('',(-6.86426864440592E-16,0.997174354034232,0.0751219518943202));
#753=DIRECTION('',(0.,-0.0751219518943202,0.997174354034232));
#754=DIRECTION('',(0.,0.,-1.));
#755=DIRECTION('',(-1.,0.,0.));
#756=DIRECTION('',(0.,0.,-1.));
#757=DIRECTION('',(-1.,0.,0.));
#758=DIRECTION('',(0.,0.,-1.));
#759=DIRECTION('',(-1.,0.,0.));
#760=DIRECTION('',(0.,0.,-1.));
#761=DIRECTION('',(-1.,0.,0.));
#762=DIRECTION('',(0.,0.,-1.));
#763=DIRECTION('',(-1.,0.,0.));
#764=DIRECTION('',(0.,0.,-1.));
#765=DIRECTION('',(-1.,0.,0.));
#766=DIRECTION('',(0.,0.,1.));
#767=DIRECTION('',(1.,0.,0.));
#768=DIRECTION('',(0.,0.,-1.));
#769=DIRECTION('',(-1.,0.,0.));
#770=DIRECTION('',(0.,0.,-1.));
#771=DIRECTION('',(-1.,0.,0.));
#772=DIRECTION('',(0.,0.,-1.));
#773=DIRECTION('',(-1.,0.,0.));
#774=DIRECTION('',(0.,0.,1.));
#775=DIRECTION('',(1.,0.,0.));
#776=DIRECTION('',(0.,1.22464679914735E-16,-1.));
#777=DIRECTION('',(0.,1.,5.55111512312578E-17));
#778=CARTESIAN_POINT('',(0.,0.,0.));
#779=CARTESIAN_POINT('',(0.,0.,-0.0001));
#780=CARTESIAN_POINT('',(0.,0.,-0.0001));
#781=CARTESIAN_POINT('',(0.00112325,0.,-0.0001));
#782=CARTESIAN_POINT('',(0.,0.,0.));
#783=CARTESIAN_POINT('',(0.00122325,0.,0.));
#784=CARTESIAN_POINT('',(-3.17076618856691E-20,2.31380235381909E-20,0.00042));
#785=CARTESIAN_POINT('',(0.00027,2.109375E-5,0.00042));
#786=CARTESIAN_POINT('',(0.00027,-4.21875E-5,0.00042));
#787=CARTESIAN_POINT('',(0.00027,4.21875E-5,0.00042));
#788=CARTESIAN_POINT('',(0.000220616457588833,4.21875E-5,0.00042));
#789=CARTESIAN_POINT('',(0.000171232915177666,4.21875E-5,0.00042));
#790=CARTESIAN_POINT('',(0.000125608471101085,6.10857635122524E-5,0.00042));
#791=CARTESIAN_POINT('',(7.9984027024505E-5,7.99840270245049E-5,0.00042));
#792=CARTESIAN_POINT('',(6.10857635122527E-5,0.000125608471101085,0.00042));
#793=CARTESIAN_POINT('',(4.21875E-5,0.000171232915177666,0.00042));
#794=CARTESIAN_POINT('',(4.21875E-5,0.000220616457588833,0.00042));
#795=CARTESIAN_POINT('',(4.21875E-5,0.00027,0.00042));
#796=CARTESIAN_POINT('',(2.10937500000003E-5,0.00027,0.00042));
#797=CARTESIAN_POINT('',(-4.21875E-5,0.00027,0.00042));
#798=CARTESIAN_POINT('',(-4.21875E-5,0.000220616457588833,0.00042));
#799=CARTESIAN_POINT('',(-4.21875E-5,0.000171232915177666,0.00042));
#800=CARTESIAN_POINT('',(-6.10857635122527E-5,0.000125608471101085,0.00042));
#801=CARTESIAN_POINT('',(-7.9984027024505E-5,7.99840270245049E-5,0.00042));
#802=CARTESIAN_POINT('',(-0.000125608471101085,6.10857635122524E-5,0.00042));
#803=CARTESIAN_POINT('',(-0.000171232915177666,4.21875E-5,0.00042));
#804=CARTESIAN_POINT('',(-0.000220616457588833,4.21875E-5,0.00042));
#805=CARTESIAN_POINT('',(-0.00027,4.21875E-5,0.00042));
#806=CARTESIAN_POINT('',(-0.00027,2.109375E-5,0.00042));
#807=CARTESIAN_POINT('',(-0.00027,-4.21875E-5,0.00042));
#808=CARTESIAN_POINT('',(-0.000220616457588833,-4.21875E-5,0.00042));
#809=CARTESIAN_POINT('',(-0.000171232915177666,-4.21875E-5,0.00042));
#810=CARTESIAN_POINT('',(-0.000125608471101085,-6.10857635122524E-5,0.00042));
#811=CARTESIAN_POINT('',(-7.9984027024505E-5,-7.99840270245049E-5,0.00042));
#812=CARTESIAN_POINT('',(-6.10857635122526E-5,-0.000125608471101085,0.00042));
#813=CARTESIAN_POINT('',(-4.21875E-5,-0.000171232915177666,0.00042));
#814=CARTESIAN_POINT('',(-4.21875E-5,-0.000220616457588833,0.00042));
#815=CARTESIAN_POINT('',(-4.21875E-5,-0.00027,0.00042));
#816=CARTESIAN_POINT('',(-2.109375E-5,-0.00027,0.00042));
#817=CARTESIAN_POINT('',(4.21875E-5,-0.00027,0.00042));
#818=CARTESIAN_POINT('',(4.21875E-5,-0.000220616457588833,0.00042));
#819=CARTESIAN_POINT('',(4.21875E-5,-0.000171232915177666,0.00042));
#820=CARTESIAN_POINT('',(6.10857635122526E-5,-0.000125608471101085,0.00042));
#821=CARTESIAN_POINT('',(7.9984027024505E-5,-7.99840270245049E-5,0.00042));
#822=CARTESIAN_POINT('',(0.000125608471101085,-6.10857635122524E-5,0.00042));
#823=CARTESIAN_POINT('',(0.000171232915177666,-4.21875E-5,0.00042));
#824=CARTESIAN_POINT('',(0.000220616457588833,-4.21875E-5,0.00042));
#825=CARTESIAN_POINT('',(0.00081,0.00010546875,0.00126));
#826=CARTESIAN_POINT('',(-2.86596876522556E-20,-0.000131841043583056,-0.00189006777852471));
#827=CARTESIAN_POINT('',(0.00122453746428995,0.000154047359096479,0.00190483605556215));
#828=CARTESIAN_POINT('',(0.000804134681004261,0.000162344487774719,0.00201497275623923));
#829=CARTESIAN_POINT('',(0.000504553645086485,0.00010546875,0.00126));
#830=CARTESIAN_POINT('',(0.00081,0.00010546875,0.00126));
#831=CARTESIAN_POINT('',(0.00081,0.00010546875,0.00126));
#832=CARTESIAN_POINT('',(-0.000864259927797833,-9.01826122099005E-19,-0.00134440433212996));
#833=CARTESIAN_POINT('',(0.00122453746428995,-0.000154047359096479,0.00190483605556215));
#834=CARTESIAN_POINT('',(0.00081,-0.00010546875,0.00126));
#835=CARTESIAN_POINT('',(0.000504553645086485,0.00010546875,0.00126));
#836=CARTESIAN_POINT('',(-0.000149297890216676,-0.00036043699139479,-0.0018136035891636));
#837=CARTESIAN_POINT('',(0.000359241312613463,0.000359241312613462,0.00206760524228703));
#838=CARTESIAN_POINT('',(0.00022235800950171,0.000222358009501709,0.00126));
#839=CARTESIAN_POINT('',(0.00010546875,0.000504553645086485,0.00126));
#840=CARTESIAN_POINT('',(-0.000360436991394789,-0.000149297890216676,-0.0018136035891636));
#841=CARTESIAN_POINT('',(0.000162344487774719,0.000804134681004261,0.00201497275623923));
#842=CARTESIAN_POINT('',(0.00010546875,0.000504553645086485,0.00126));
#843=CARTESIAN_POINT('',(0.00010546875,0.00081,0.00126));
#844=CARTESIAN_POINT('',(-0.000131841043583056,-8.59790629567667E-20,-0.00189006777852471));
#845=CARTESIAN_POINT('',(0.000154047359096479,0.00122453746428995,0.00190483605556215));
#846=CARTESIAN_POINT('',(0.00010546875,0.00081,0.00126));
#847=CARTESIAN_POINT('',(0.00010546875,0.00081,0.00126));
#848=CARTESIAN_POINT('',(-9.01826122099005E-19,-0.000864259927797833,-0.00134440433212996));
#849=CARTESIAN_POINT('',(-0.000154047359096479,0.00122453746428995,0.00190483605556215));
#850=CARTESIAN_POINT('',(-0.00010546875,0.00081,0.00126));
#851=CARTESIAN_POINT('',(-0.00010546875,0.00081,0.00126));
#852=CARTESIAN_POINT('',(0.000131841043583056,-8.59790629567667E-20,-0.00189006777852471));
#853=CARTESIAN_POINT('',(-0.000162344487774719,0.000804134681004261,0.00201497275623923));
#854=CARTESIAN_POINT('',(-0.00010546875,0.000504553645086485,0.00126));
#855=CARTESIAN_POINT('',(-0.00010546875,0.000504553645086485,0.00126));
#856=CARTESIAN_POINT('',(0.000360436991394789,-0.000149297890216676,-0.0018136035891636));
#857=CARTESIAN_POINT('',(-0.000359241312613463,0.000359241312613463,0.00206760524228703));
#858=CARTESIAN_POINT('',(-0.00022235800950171,0.00022235800950171,0.00126));
#859=CARTESIAN_POINT('',(-0.000504553645086485,0.00010546875,0.00126));
#860=CARTESIAN_POINT('',(0.000149297890216676,-0.00036043699139479,-0.0018136035891636));
#861=CARTESIAN_POINT('',(-0.000804134681004261,0.000162344487774719,0.00201497275623923));
#862=CARTESIAN_POINT('',(-0.000504553645086485,0.00010546875,0.00126));
#863=CARTESIAN_POINT('',(-0.00081,0.00010546875,0.00126));
#864=CARTESIAN_POINT('',(1.57628282087406E-19,-0.000131841043583056,-0.00189006777852471));
#865=CARTESIAN_POINT('',(-0.00122453746428995,0.000154047359096479,0.00190483605556215));
#866=CARTESIAN_POINT('',(-0.00081,0.00010546875,0.00126));
#867=CARTESIAN_POINT('',(-0.00081,0.00010546875,0.00126));
#868=CARTESIAN_POINT('',(0.000864259927797833,-9.01826122099008E-19,-0.00134440433212996));
#869=CARTESIAN_POINT('',(-0.00122453746428995,-0.000154047359096479,0.00190483605556215));
#870=CARTESIAN_POINT('',(-0.00081,-0.00010546875,0.00126));
#871=CARTESIAN_POINT('',(-0.00081,-0.00010546875,0.00126));
#872=CARTESIAN_POINT('',(4.77661460870927E-21,0.000131841043583056,-0.00189006777852471));
#873=CARTESIAN_POINT('',(-0.000804134681004261,-0.000162344487774718,0.00201497275623923));
#874=CARTESIAN_POINT('',(-0.000504553645086485,-0.00010546875,0.00126));
#875=CARTESIAN_POINT('',(-0.000504553645086485,-0.00010546875,0.00126));
#876=CARTESIAN_POINT('',(0.000149297890216676,0.00036043699139479,-0.0018136035891636));
#877=CARTESIAN_POINT('',(-0.000359241312613463,-0.000359241312613463,0.00206760524228703));
#878=CARTESIAN_POINT('',(-0.00022235800950171,-0.00022235800950171,0.00126));
#879=CARTESIAN_POINT('',(-0.00010546875,-0.000504553645086485,0.00126));
#880=CARTESIAN_POINT('',(0.000360436991394789,0.000149297890216677,-0.0018136035891636));
#881=CARTESIAN_POINT('',(-0.000162344487774719,-0.000804134681004261,0.00201497275623923));
#882=CARTESIAN_POINT('',(-0.00010546875,-0.000504553645086485,0.00126));
#883=CARTESIAN_POINT('',(-0.00010546875,-0.00081,0.00126));
#884=CARTESIAN_POINT('',(0.000131841043583055,1.43298438261277E-20,-0.00189006777852471));
#885=CARTESIAN_POINT('',(-0.000154047359096479,-0.00122453746428995,0.00190483605556215));
#886=CARTESIAN_POINT('',(-0.00010546875,-0.00081,0.00126));
#887=CARTESIAN_POINT('',(-0.00010546875,-0.00081,0.00126));
#888=CARTESIAN_POINT('',(9.01826122099008E-19,0.000864259927797833,-0.00134440433212996));
#889=CARTESIAN_POINT('',(0.000154047359096479,-0.00122453746428995,0.00190483605556215));
#890=CARTESIAN_POINT('',(0.00010546875,-0.00081,0.00126));
#891=CARTESIAN_POINT('',(0.00010546875,-0.00081,0.00126));
#892=CARTESIAN_POINT('',(-0.000131841043583055,2.38830730435462E-20,-0.00189006777852471));
#893=CARTESIAN_POINT('',(0.000162344487774719,-0.000804134681004261,0.00201497275623923));
#894=CARTESIAN_POINT('',(0.00010546875,-0.000504553645086485,0.00126));
#895=CARTESIAN_POINT('',(0.00010546875,-0.000504553645086485,0.00126));
#896=CARTESIAN_POINT('',(-0.000360436991394789,0.000149297890216677,-0.0018136035891636));
#897=CARTESIAN_POINT('',(0.000359241312613463,-0.000359241312613463,0.00206760524228703));
#898=CARTESIAN_POINT('',(0.00022235800950171,-0.00022235800950171,0.00126));
#899=CARTESIAN_POINT('',(0.000504553645086485,-0.00010546875,0.00126));
#900=CARTESIAN_POINT('',(-0.000149297890216676,0.00036043699139479,-0.0018136035891636));
#901=CARTESIAN_POINT('',(0.000804134681004261,-0.000162344487774719,0.00201497275623923));
#902=CARTESIAN_POINT('',(0.000504553645086485,-0.00010546875,0.00126));
#903=CARTESIAN_POINT('',(0.00081,-0.00010546875,0.00126));
#904=CARTESIAN_POINT('',(-9.07556775654763E-20,0.000131841043583056,-0.00189006777852471));
#905=CARTESIAN_POINT('',(0.,0.,0.));
#906=CARTESIAN_POINT('',(0.,0.,-0.0009));
#907=CARTESIAN_POINT('',(-0.00119,0.,-0.0009));
#908=CARTESIAN_POINT('',(0.,0.,-0.01));
#909=CARTESIAN_POINT('',(-0.00119,0.,-0.01));
#910=CARTESIAN_POINT('',(0.,0.,-0.000675));
#911=CARTESIAN_POINT('',(0.,0.,-0.000675));
#912=CARTESIAN_POINT('',(-0.00112325,0.,-0.000675));
#913=CARTESIAN_POINT('',(0.,0.,0.));
#914=CARTESIAN_POINT('',(0.,0.0025,0.));
#915=CARTESIAN_POINT('',(0.,0.,0.));
#916=CARTESIAN_POINT('',(-0.0025,0.,0.));
#917=CARTESIAN_POINT('',(0.,0.,0.));
#918=CARTESIAN_POINT('',(0.,0.,0.0012224989991992));
#919=CARTESIAN_POINT('',(-0.0025,0.,0.0012224989991992));
#920=CARTESIAN_POINT('',(0.,0.00119,-0.01));
#921=CARTESIAN_POINT('',(0.,0.,-0.0019));
#922=MECHANICAL_DESIGN_GEOMETRIC_PRESENTATION_REPRESENTATION('',(#514,#25,
#26,#27,#28,#29,#30,#31),#923);
#923=(
GEOMETRIC_REPRESENTATION_CONTEXT(3)
GLOBAL_UNCERTAINTY_ASSIGNED_CONTEXT((#924))
GLOBAL_UNIT_ASSIGNED_CONTEXT((#927,#926,#925))
REPRESENTATION_CONTEXT('screw_nylon_M2.5x10','TOP_LEVEL_ASSEMBLY_PART')
);
#924=UNCERTAINTY_MEASURE_WITH_UNIT(LENGTH_MEASURE(5.E-6),#927,
'DISTANCE_ACCURACY_VALUE','Maximum Tolerance applied to model');
#925=(
NAMED_UNIT(*)
SI_UNIT($,.STERADIAN.)
SOLID_ANGLE_UNIT()
);
#926=(
NAMED_UNIT(*)
PLANE_ANGLE_UNIT()
SI_UNIT($,.RADIAN.)
);
#927=(
LENGTH_UNIT()
NAMED_UNIT(*)
SI_UNIT($,.METRE.)
);
#928=PRODUCT_DEFINITION_SHAPE('','',#929);
#929=PRODUCT_DEFINITION('','',#931,#930);
#930=PRODUCT_DEFINITION_CONTEXT('',#937,'design');
#931=PRODUCT_DEFINITION_FORMATION_WITH_SPECIFIED_SOURCE('','',#933,
 .NOT_KNOWN.);
#932=PRODUCT_RELATED_PRODUCT_CATEGORY('','',(#933));
#933=PRODUCT('screw_nylon_M2.5x10','screw_nylon_M2.5x10',
'screw_nylon_M2.5x10',(#935));
#934=PRODUCT_CATEGORY('','');
#935=PRODUCT_CONTEXT('',#937,'mechanical');
#936=APPLICATION_PROTOCOL_DEFINITION('international standard',
'automotive_design',2010,#937);
#937=APPLICATION_CONTEXT(
'core data for automotive mechanical design processes');
ENDSEC;
END-ISO-10303-21;
