ISO-10303-21;
HEADER;
/* Generated by software containing ST-Developer
 * from STEP Tools, Inc. (www.steptools.com) 
 */
/* OPTION: using custom renumber hook */

FILE_DESCRIPTION(
/* description */ ('STEP AP214'),
/* implementation_level */ '2;1');

FILE_NAME(
/* name */ '654cf5807f9aa566be172192',
/* time_stamp */ '2023-11-09T15:06:41Z',
/* author */ (''),
/* organization */ (''),
/* preprocessor_version */ 'ST-DEVELOPER v19.4',
/* originating_system */ '  ',
/* authorisation */ '  ');

FILE_SCHEMA (('AUTOMOTIVE_DESIGN {1 0 10303 214 3 1 1}'));
ENDSEC;

DATA;
#10=PROPERTY_DEFINITION_REPRESENTATION(#14,#12);
#11=PROPERTY_DEFINITION_REPRESENTATION(#15,#13);
#12=REPRESENTATION('',(#16),#873);
#13=REPRESENTATION('',(#17),#873);
#14=PROPERTY_DEFINITION('pmi validation property','',#878);
#15=PROPERTY_DEFINITION('pmi validation property','',#878);
#16=VALUE_REPRESENTATION_ITEM('number of annotations',COUNT_MEASURE(0.));
#17=VALUE_REPRESENTATION_ITEM('number of views',COUNT_MEASURE(0.));
#18=SHAPE_REPRESENTATION_RELATIONSHIP('','',#516,#19);
#19=ADVANCED_BREP_SHAPE_REPRESENTATION('',(#514),#873);
#20=SPHERICAL_SURFACE('',#573,0.005);
#21=CONICAL_SURFACE('',#565,0.00135975,0.299693086680254);
#22=CYLINDRICAL_SURFACE('',#562,0.001437);
#23=CYLINDRICAL_SURFACE('',#567,0.00135975);
#24=CYLINDRICAL_SURFACE('',#570,0.0028);
#25=LINE('',#735,#65);
#26=LINE('',#738,#66);
#27=LINE('',#740,#67);
#28=LINE('',#742,#68);
#29=LINE('',#744,#69);
#30=LINE('',#746,#70);
#31=LINE('',#748,#71);
#32=LINE('',#750,#72);
#33=LINE('',#752,#73);
#34=LINE('',#754,#74);
#35=LINE('',#756,#75);
#36=LINE('',#758,#76);
#37=LINE('',#760,#77);
#38=LINE('',#762,#78);
#39=LINE('',#764,#79);
#40=LINE('',#766,#80);
#41=LINE('',#768,#81);
#42=LINE('',#770,#82);
#43=LINE('',#772,#83);
#44=LINE('',#774,#84);
#45=LINE('',#779,#85);
#46=LINE('',#780,#86);
#47=LINE('',#784,#87);
#48=LINE('',#788,#88);
#49=LINE('',#792,#89);
#50=LINE('',#796,#90);
#51=LINE('',#800,#91);
#52=LINE('',#804,#92);
#53=LINE('',#808,#93);
#54=LINE('',#812,#94);
#55=LINE('',#816,#95);
#56=LINE('',#820,#96);
#57=LINE('',#824,#97);
#58=LINE('',#828,#98);
#59=LINE('',#832,#99);
#60=LINE('',#836,#100);
#61=LINE('',#840,#101);
#62=LINE('',#844,#102);
#63=LINE('',#848,#103);
#64=LINE('',#852,#104);
#65=VECTOR('',#584,1.);
#66=VECTOR('',#585,1.);
#67=VECTOR('',#586,1.);
#68=VECTOR('',#587,1.);
#69=VECTOR('',#588,1.);
#70=VECTOR('',#589,1.);
#71=VECTOR('',#590,1.);
#72=VECTOR('',#591,1.);
#73=VECTOR('',#592,1.);
#74=VECTOR('',#593,1.);
#75=VECTOR('',#594,1.);
#76=VECTOR('',#595,1.);
#77=VECTOR('',#596,1.);
#78=VECTOR('',#597,1.);
#79=VECTOR('',#598,1.);
#80=VECTOR('',#599,1.);
#81=VECTOR('',#600,1.);
#82=VECTOR('',#601,1.);
#83=VECTOR('',#602,1.);
#84=VECTOR('',#603,1.);
#85=VECTOR('',#608,1.);
#86=VECTOR('',#609,1.);
#87=VECTOR('',#614,1.);
#88=VECTOR('',#619,1.);
#89=VECTOR('',#624,1.);
#90=VECTOR('',#629,1.);
#91=VECTOR('',#634,1.);
#92=VECTOR('',#639,1.);
#93=VECTOR('',#644,1.);
#94=VECTOR('',#649,1.);
#95=VECTOR('',#654,1.);
#96=VECTOR('',#659,1.);
#97=VECTOR('',#664,1.);
#98=VECTOR('',#669,1.);
#99=VECTOR('',#674,1.);
#100=VECTOR('',#679,1.);
#101=VECTOR('',#684,1.);
#102=VECTOR('',#689,1.);
#103=VECTOR('',#694,1.);
#104=VECTOR('',#699,1.);
#105=PLANE('',#521);
#106=PLANE('',#522);
#107=PLANE('',#524);
#108=PLANE('',#526);
#109=PLANE('',#528);
#110=PLANE('',#530);
#111=PLANE('',#532);
#112=PLANE('',#534);
#113=PLANE('',#536);
#114=PLANE('',#538);
#115=PLANE('',#540);
#116=PLANE('',#542);
#117=PLANE('',#544);
#118=PLANE('',#546);
#119=PLANE('',#548);
#120=PLANE('',#550);
#121=PLANE('',#552);
#122=PLANE('',#554);
#123=PLANE('',#556);
#124=PLANE('',#558);
#125=PLANE('',#560);
#126=PLANE('',#568);
#127=PLANE('',#572);
#128=ORIENTED_EDGE('',*,*,#262,.F.);
#129=ORIENTED_EDGE('',*,*,#263,.F.);
#130=ORIENTED_EDGE('',*,*,#264,.T.);
#131=ORIENTED_EDGE('',*,*,#265,.T.);
#132=ORIENTED_EDGE('',*,*,#266,.T.);
#133=ORIENTED_EDGE('',*,*,#267,.T.);
#134=ORIENTED_EDGE('',*,*,#268,.T.);
#135=ORIENTED_EDGE('',*,*,#269,.T.);
#136=ORIENTED_EDGE('',*,*,#270,.T.);
#137=ORIENTED_EDGE('',*,*,#271,.T.);
#138=ORIENTED_EDGE('',*,*,#272,.T.);
#139=ORIENTED_EDGE('',*,*,#273,.T.);
#140=ORIENTED_EDGE('',*,*,#274,.T.);
#141=ORIENTED_EDGE('',*,*,#275,.T.);
#142=ORIENTED_EDGE('',*,*,#276,.T.);
#143=ORIENTED_EDGE('',*,*,#277,.T.);
#144=ORIENTED_EDGE('',*,*,#278,.T.);
#145=ORIENTED_EDGE('',*,*,#279,.T.);
#146=ORIENTED_EDGE('',*,*,#280,.T.);
#147=ORIENTED_EDGE('',*,*,#281,.T.);
#148=ORIENTED_EDGE('',*,*,#282,.T.);
#149=ORIENTED_EDGE('',*,*,#283,.T.);
#150=ORIENTED_EDGE('',*,*,#284,.T.);
#151=ORIENTED_EDGE('',*,*,#285,.T.);
#152=ORIENTED_EDGE('',*,*,#265,.F.);
#153=ORIENTED_EDGE('',*,*,#286,.F.);
#154=ORIENTED_EDGE('',*,*,#287,.T.);
#155=ORIENTED_EDGE('',*,*,#286,.T.);
#156=ORIENTED_EDGE('',*,*,#264,.F.);
#157=ORIENTED_EDGE('',*,*,#288,.F.);
#158=ORIENTED_EDGE('',*,*,#289,.T.);
#159=ORIENTED_EDGE('',*,*,#290,.T.);
#160=ORIENTED_EDGE('',*,*,#266,.F.);
#161=ORIENTED_EDGE('',*,*,#285,.F.);
#162=ORIENTED_EDGE('',*,*,#291,.T.);
#163=ORIENTED_EDGE('',*,*,#292,.T.);
#164=ORIENTED_EDGE('',*,*,#267,.F.);
#165=ORIENTED_EDGE('',*,*,#290,.F.);
#166=ORIENTED_EDGE('',*,*,#293,.T.);
#167=ORIENTED_EDGE('',*,*,#294,.T.);
#168=ORIENTED_EDGE('',*,*,#268,.F.);
#169=ORIENTED_EDGE('',*,*,#292,.F.);
#170=ORIENTED_EDGE('',*,*,#295,.T.);
#171=ORIENTED_EDGE('',*,*,#296,.T.);
#172=ORIENTED_EDGE('',*,*,#269,.F.);
#173=ORIENTED_EDGE('',*,*,#294,.F.);
#174=ORIENTED_EDGE('',*,*,#297,.T.);
#175=ORIENTED_EDGE('',*,*,#298,.T.);
#176=ORIENTED_EDGE('',*,*,#270,.F.);
#177=ORIENTED_EDGE('',*,*,#296,.F.);
#178=ORIENTED_EDGE('',*,*,#299,.T.);
#179=ORIENTED_EDGE('',*,*,#300,.T.);
#180=ORIENTED_EDGE('',*,*,#271,.F.);
#181=ORIENTED_EDGE('',*,*,#298,.F.);
#182=ORIENTED_EDGE('',*,*,#301,.T.);
#183=ORIENTED_EDGE('',*,*,#302,.T.);
#184=ORIENTED_EDGE('',*,*,#272,.F.);
#185=ORIENTED_EDGE('',*,*,#300,.F.);
#186=ORIENTED_EDGE('',*,*,#303,.T.);
#187=ORIENTED_EDGE('',*,*,#304,.T.);
#188=ORIENTED_EDGE('',*,*,#273,.F.);
#189=ORIENTED_EDGE('',*,*,#302,.F.);
#190=ORIENTED_EDGE('',*,*,#305,.T.);
#191=ORIENTED_EDGE('',*,*,#306,.T.);
#192=ORIENTED_EDGE('',*,*,#274,.F.);
#193=ORIENTED_EDGE('',*,*,#304,.F.);
#194=ORIENTED_EDGE('',*,*,#307,.T.);
#195=ORIENTED_EDGE('',*,*,#308,.T.);
#196=ORIENTED_EDGE('',*,*,#275,.F.);
#197=ORIENTED_EDGE('',*,*,#306,.F.);
#198=ORIENTED_EDGE('',*,*,#309,.T.);
#199=ORIENTED_EDGE('',*,*,#310,.T.);
#200=ORIENTED_EDGE('',*,*,#276,.F.);
#201=ORIENTED_EDGE('',*,*,#308,.F.);
#202=ORIENTED_EDGE('',*,*,#311,.T.);
#203=ORIENTED_EDGE('',*,*,#312,.T.);
#204=ORIENTED_EDGE('',*,*,#277,.F.);
#205=ORIENTED_EDGE('',*,*,#310,.F.);
#206=ORIENTED_EDGE('',*,*,#313,.T.);
#207=ORIENTED_EDGE('',*,*,#314,.T.);
#208=ORIENTED_EDGE('',*,*,#278,.F.);
#209=ORIENTED_EDGE('',*,*,#312,.F.);
#210=ORIENTED_EDGE('',*,*,#315,.T.);
#211=ORIENTED_EDGE('',*,*,#316,.T.);
#212=ORIENTED_EDGE('',*,*,#279,.F.);
#213=ORIENTED_EDGE('',*,*,#314,.F.);
#214=ORIENTED_EDGE('',*,*,#317,.T.);
#215=ORIENTED_EDGE('',*,*,#318,.T.);
#216=ORIENTED_EDGE('',*,*,#280,.F.);
#217=ORIENTED_EDGE('',*,*,#316,.F.);
#218=ORIENTED_EDGE('',*,*,#319,.T.);
#219=ORIENTED_EDGE('',*,*,#320,.T.);
#220=ORIENTED_EDGE('',*,*,#281,.F.);
#221=ORIENTED_EDGE('',*,*,#318,.F.);
#222=ORIENTED_EDGE('',*,*,#321,.T.);
#223=ORIENTED_EDGE('',*,*,#322,.T.);
#224=ORIENTED_EDGE('',*,*,#282,.F.);
#225=ORIENTED_EDGE('',*,*,#320,.F.);
#226=ORIENTED_EDGE('',*,*,#323,.T.);
#227=ORIENTED_EDGE('',*,*,#288,.T.);
#228=ORIENTED_EDGE('',*,*,#283,.F.);
#229=ORIENTED_EDGE('',*,*,#322,.F.);
#230=ORIENTED_EDGE('',*,*,#324,.T.);
#231=ORIENTED_EDGE('',*,*,#325,.F.);
#232=ORIENTED_EDGE('',*,*,#326,.T.);
#233=ORIENTED_EDGE('',*,*,#324,.F.);
#234=ORIENTED_EDGE('',*,*,#262,.T.);
#235=ORIENTED_EDGE('',*,*,#326,.F.);
#236=ORIENTED_EDGE('',*,*,#263,.T.);
#237=ORIENTED_EDGE('',*,*,#327,.T.);
#238=ORIENTED_EDGE('',*,*,#328,.T.);
#239=ORIENTED_EDGE('',*,*,#327,.F.);
#240=ORIENTED_EDGE('',*,*,#325,.T.);
#241=ORIENTED_EDGE('',*,*,#317,.F.);
#242=ORIENTED_EDGE('',*,*,#315,.F.);
#243=ORIENTED_EDGE('',*,*,#313,.F.);
#244=ORIENTED_EDGE('',*,*,#311,.F.);
#245=ORIENTED_EDGE('',*,*,#309,.F.);
#246=ORIENTED_EDGE('',*,*,#307,.F.);
#247=ORIENTED_EDGE('',*,*,#305,.F.);
#248=ORIENTED_EDGE('',*,*,#303,.F.);
#249=ORIENTED_EDGE('',*,*,#301,.F.);
#250=ORIENTED_EDGE('',*,*,#299,.F.);
#251=ORIENTED_EDGE('',*,*,#297,.F.);
#252=ORIENTED_EDGE('',*,*,#295,.F.);
#253=ORIENTED_EDGE('',*,*,#293,.F.);
#254=ORIENTED_EDGE('',*,*,#291,.F.);
#255=ORIENTED_EDGE('',*,*,#289,.F.);
#256=ORIENTED_EDGE('',*,*,#284,.F.);
#257=ORIENTED_EDGE('',*,*,#287,.F.);
#258=ORIENTED_EDGE('',*,*,#323,.F.);
#259=ORIENTED_EDGE('',*,*,#321,.F.);
#260=ORIENTED_EDGE('',*,*,#319,.F.);
#261=ORIENTED_EDGE('',*,*,#328,.F.);
#262=EDGE_CURVE('',#329,#329,#376,.T.);
#263=EDGE_CURVE('',#330,#330,#377,.T.);
#264=EDGE_CURVE('',#331,#332,#25,.T.);
#265=EDGE_CURVE('',#332,#333,#26,.T.);
#266=EDGE_CURVE('',#333,#334,#27,.T.);
#267=EDGE_CURVE('',#334,#335,#28,.T.);
#268=EDGE_CURVE('',#335,#336,#29,.T.);
#269=EDGE_CURVE('',#336,#337,#30,.T.);
#270=EDGE_CURVE('',#337,#338,#31,.T.);
#271=EDGE_CURVE('',#338,#339,#32,.T.);
#272=EDGE_CURVE('',#339,#340,#33,.T.);
#273=EDGE_CURVE('',#340,#341,#34,.T.);
#274=EDGE_CURVE('',#341,#342,#35,.T.);
#275=EDGE_CURVE('',#342,#343,#36,.T.);
#276=EDGE_CURVE('',#343,#344,#37,.T.);
#277=EDGE_CURVE('',#344,#345,#38,.T.);
#278=EDGE_CURVE('',#345,#346,#39,.T.);
#279=EDGE_CURVE('',#346,#347,#40,.T.);
#280=EDGE_CURVE('',#347,#348,#41,.T.);
#281=EDGE_CURVE('',#348,#349,#42,.T.);
#282=EDGE_CURVE('',#349,#350,#43,.T.);
#283=EDGE_CURVE('',#350,#331,#44,.T.);
#284=EDGE_CURVE('',#351,#352,#378,.T.);
#285=EDGE_CURVE('',#352,#333,#45,.T.);
#286=EDGE_CURVE('',#351,#332,#46,.T.);
#287=EDGE_CURVE('',#353,#351,#379,.T.);
#288=EDGE_CURVE('',#353,#331,#47,.T.);
#289=EDGE_CURVE('',#352,#354,#380,.T.);
#290=EDGE_CURVE('',#354,#334,#48,.T.);
#291=EDGE_CURVE('',#354,#355,#381,.T.);
#292=EDGE_CURVE('',#355,#335,#49,.T.);
#293=EDGE_CURVE('',#355,#356,#382,.T.);
#294=EDGE_CURVE('',#356,#336,#50,.T.);
#295=EDGE_CURVE('',#356,#357,#383,.T.);
#296=EDGE_CURVE('',#357,#337,#51,.T.);
#297=EDGE_CURVE('',#357,#358,#384,.T.);
#298=EDGE_CURVE('',#358,#338,#52,.T.);
#299=EDGE_CURVE('',#358,#359,#385,.T.);
#300=EDGE_CURVE('',#359,#339,#53,.T.);
#301=EDGE_CURVE('',#359,#360,#386,.T.);
#302=EDGE_CURVE('',#360,#340,#54,.T.);
#303=EDGE_CURVE('',#360,#361,#387,.T.);
#304=EDGE_CURVE('',#361,#341,#55,.T.);
#305=EDGE_CURVE('',#361,#362,#388,.T.);
#306=EDGE_CURVE('',#362,#342,#56,.T.);
#307=EDGE_CURVE('',#362,#363,#389,.T.);
#308=EDGE_CURVE('',#363,#343,#57,.T.);
#309=EDGE_CURVE('',#363,#364,#390,.T.);
#310=EDGE_CURVE('',#364,#344,#58,.T.);
#311=EDGE_CURVE('',#364,#365,#391,.T.);
#312=EDGE_CURVE('',#365,#345,#59,.T.);
#313=EDGE_CURVE('',#365,#366,#392,.T.);
#314=EDGE_CURVE('',#366,#346,#60,.T.);
#315=EDGE_CURVE('',#366,#367,#393,.T.);
#316=EDGE_CURVE('',#367,#347,#61,.T.);
#317=EDGE_CURVE('',#367,#368,#394,.T.);
#318=EDGE_CURVE('',#368,#348,#62,.T.);
#319=EDGE_CURVE('',#368,#369,#395,.T.);
#320=EDGE_CURVE('',#369,#349,#63,.T.);
#321=EDGE_CURVE('',#369,#370,#396,.T.);
#322=EDGE_CURVE('',#370,#350,#64,.T.);
#323=EDGE_CURVE('',#370,#353,#397,.T.);
#324=EDGE_CURVE('',#371,#371,#398,.T.);
#325=EDGE_CURVE('',#372,#372,#399,.T.);
#326=EDGE_CURVE('',#373,#373,#400,.T.);
#327=EDGE_CURVE('',#374,#374,#401,.T.);
#328=EDGE_CURVE('',#375,#375,#402,.T.);
#329=VERTEX_POINT('',#731);
#330=VERTEX_POINT('',#733);
#331=VERTEX_POINT('',#736);
#332=VERTEX_POINT('',#737);
#333=VERTEX_POINT('',#739);
#334=VERTEX_POINT('',#741);
#335=VERTEX_POINT('',#743);
#336=VERTEX_POINT('',#745);
#337=VERTEX_POINT('',#747);
#338=VERTEX_POINT('',#749);
#339=VERTEX_POINT('',#751);
#340=VERTEX_POINT('',#753);
#341=VERTEX_POINT('',#755);
#342=VERTEX_POINT('',#757);
#343=VERTEX_POINT('',#759);
#344=VERTEX_POINT('',#761);
#345=VERTEX_POINT('',#763);
#346=VERTEX_POINT('',#765);
#347=VERTEX_POINT('',#767);
#348=VERTEX_POINT('',#769);
#349=VERTEX_POINT('',#771);
#350=VERTEX_POINT('',#773);
#351=VERTEX_POINT('',#777);
#352=VERTEX_POINT('',#778);
#353=VERTEX_POINT('',#783);
#354=VERTEX_POINT('',#787);
#355=VERTEX_POINT('',#791);
#356=VERTEX_POINT('',#795);
#357=VERTEX_POINT('',#799);
#358=VERTEX_POINT('',#803);
#359=VERTEX_POINT('',#807);
#360=VERTEX_POINT('',#811);
#361=VERTEX_POINT('',#815);
#362=VERTEX_POINT('',#819);
#363=VERTEX_POINT('',#823);
#364=VERTEX_POINT('',#827);
#365=VERTEX_POINT('',#831);
#366=VERTEX_POINT('',#835);
#367=VERTEX_POINT('',#839);
#368=VERTEX_POINT('',#843);
#369=VERTEX_POINT('',#847);
#370=VERTEX_POINT('',#851);
#371=VERTEX_POINT('',#857);
#372=VERTEX_POINT('',#859);
#373=VERTEX_POINT('',#862);
#374=VERTEX_POINT('',#866);
#375=VERTEX_POINT('',#869);
#376=CIRCLE('',#519,0.00135975);
#377=CIRCLE('',#520,0.00145975);
#378=CIRCLE('',#523,0.00499682227153288);
#379=CIRCLE('',#525,0.00480636282395593);
#380=CIRCLE('',#527,0.00497132100830927);
#381=CIRCLE('',#529,0.00497132100830927);
#382=CIRCLE('',#531,0.00499682227153288);
#383=CIRCLE('',#533,0.00480636282395593);
#384=CIRCLE('',#535,0.00499682227153288);
#385=CIRCLE('',#537,0.00497132100830927);
#386=CIRCLE('',#539,0.00497132100830927);
#387=CIRCLE('',#541,0.00499682227153288);
#388=CIRCLE('',#543,0.00480636282395593);
#389=CIRCLE('',#545,0.00499682227153288);
#390=CIRCLE('',#547,0.00497132100830927);
#391=CIRCLE('',#549,0.00497132100830927);
#392=CIRCLE('',#551,0.00499682227153288);
#393=CIRCLE('',#553,0.00480636282395593);
#394=CIRCLE('',#555,0.00499682227153288);
#395=CIRCLE('',#557,0.00497132100830927);
#396=CIRCLE('',#559,0.00497132100830927);
#397=CIRCLE('',#561,0.00499682227153288);
#398=CIRCLE('',#563,0.001437);
#399=CIRCLE('',#564,0.001437);
#400=CIRCLE('',#566,0.00135975);
#401=CIRCLE('',#569,0.0028);
#402=CIRCLE('',#571,0.0028);
#403=EDGE_LOOP('',(#128));
#404=EDGE_LOOP('',(#129));
#405=EDGE_LOOP('',(#130,#131,#132,#133,#134,#135,#136,#137,#138,#139,#140,
#141,#142,#143,#144,#145,#146,#147,#148,#149));
#406=EDGE_LOOP('',(#150,#151,#152,#153));
#407=EDGE_LOOP('',(#154,#155,#156,#157));
#408=EDGE_LOOP('',(#158,#159,#160,#161));
#409=EDGE_LOOP('',(#162,#163,#164,#165));
#410=EDGE_LOOP('',(#166,#167,#168,#169));
#411=EDGE_LOOP('',(#170,#171,#172,#173));
#412=EDGE_LOOP('',(#174,#175,#176,#177));
#413=EDGE_LOOP('',(#178,#179,#180,#181));
#414=EDGE_LOOP('',(#182,#183,#184,#185));
#415=EDGE_LOOP('',(#186,#187,#188,#189));
#416=EDGE_LOOP('',(#190,#191,#192,#193));
#417=EDGE_LOOP('',(#194,#195,#196,#197));
#418=EDGE_LOOP('',(#198,#199,#200,#201));
#419=EDGE_LOOP('',(#202,#203,#204,#205));
#420=EDGE_LOOP('',(#206,#207,#208,#209));
#421=EDGE_LOOP('',(#210,#211,#212,#213));
#422=EDGE_LOOP('',(#214,#215,#216,#217));
#423=EDGE_LOOP('',(#218,#219,#220,#221));
#424=EDGE_LOOP('',(#222,#223,#224,#225));
#425=EDGE_LOOP('',(#226,#227,#228,#229));
#426=EDGE_LOOP('',(#230));
#427=EDGE_LOOP('',(#231));
#428=EDGE_LOOP('',(#232));
#429=EDGE_LOOP('',(#233));
#430=EDGE_LOOP('',(#234));
#431=EDGE_LOOP('',(#235));
#432=EDGE_LOOP('',(#236));
#433=EDGE_LOOP('',(#237));
#434=EDGE_LOOP('',(#238));
#435=EDGE_LOOP('',(#239));
#436=EDGE_LOOP('',(#240));
#437=EDGE_LOOP('',(#241,#242,#243,#244,#245,#246,#247,#248,#249,#250,#251,
#252,#253,#254,#255,#256,#257,#258,#259,#260));
#438=EDGE_LOOP('',(#261));
#439=FACE_BOUND('',#403,.T.);
#440=FACE_BOUND('',#404,.T.);
#441=FACE_BOUND('',#405,.T.);
#442=FACE_BOUND('',#406,.T.);
#443=FACE_BOUND('',#407,.T.);
#444=FACE_BOUND('',#408,.T.);
#445=FACE_BOUND('',#409,.T.);
#446=FACE_BOUND('',#410,.T.);
#447=FACE_BOUND('',#411,.T.);
#448=FACE_BOUND('',#412,.T.);
#449=FACE_BOUND('',#413,.T.);
#450=FACE_BOUND('',#414,.T.);
#451=FACE_BOUND('',#415,.T.);
#452=FACE_BOUND('',#416,.T.);
#453=FACE_BOUND('',#417,.T.);
#454=FACE_BOUND('',#418,.T.);
#455=FACE_BOUND('',#419,.T.);
#456=FACE_BOUND('',#420,.T.);
#457=FACE_BOUND('',#421,.T.);
#458=FACE_BOUND('',#422,.T.);
#459=FACE_BOUND('',#423,.T.);
#460=FACE_BOUND('',#424,.T.);
#461=FACE_BOUND('',#425,.T.);
#462=FACE_BOUND('',#426,.T.);
#463=FACE_BOUND('',#427,.T.);
#464=FACE_BOUND('',#428,.T.);
#465=FACE_BOUND('',#429,.T.);
#466=FACE_BOUND('',#430,.T.);
#467=FACE_BOUND('',#431,.T.);
#468=FACE_BOUND('',#432,.T.);
#469=FACE_BOUND('',#433,.T.);
#470=FACE_BOUND('',#434,.T.);
#471=FACE_BOUND('',#435,.T.);
#472=FACE_BOUND('',#436,.T.);
#473=FACE_BOUND('',#437,.T.);
#474=FACE_BOUND('',#438,.T.);
#475=TOROIDAL_SURFACE('',#518,0.00145975,0.0001);
#476=ADVANCED_FACE('',(#439,#440),#475,.F.);
#477=ADVANCED_FACE('',(#441),#105,.F.);
#478=ADVANCED_FACE('',(#442),#106,.T.);
#479=ADVANCED_FACE('',(#443),#107,.T.);
#480=ADVANCED_FACE('',(#444),#108,.T.);
#481=ADVANCED_FACE('',(#445),#109,.T.);
#482=ADVANCED_FACE('',(#446),#110,.T.);
#483=ADVANCED_FACE('',(#447),#111,.T.);
#484=ADVANCED_FACE('',(#448),#112,.T.);
#485=ADVANCED_FACE('',(#449),#113,.T.);
#486=ADVANCED_FACE('',(#450),#114,.T.);
#487=ADVANCED_FACE('',(#451),#115,.T.);
#488=ADVANCED_FACE('',(#452),#116,.T.);
#489=ADVANCED_FACE('',(#453),#117,.T.);
#490=ADVANCED_FACE('',(#454),#118,.T.);
#491=ADVANCED_FACE('',(#455),#119,.T.);
#492=ADVANCED_FACE('',(#456),#120,.T.);
#493=ADVANCED_FACE('',(#457),#121,.T.);
#494=ADVANCED_FACE('',(#458),#122,.T.);
#495=ADVANCED_FACE('',(#459),#123,.T.);
#496=ADVANCED_FACE('',(#460),#124,.T.);
#497=ADVANCED_FACE('',(#461),#125,.T.);
#498=ADVANCED_FACE('',(#462,#463),#22,.T.);
#499=ADVANCED_FACE('',(#464,#465),#21,.T.);
#500=ADVANCED_FACE('',(#466,#467),#23,.T.);
#501=ADVANCED_FACE('',(#468,#469),#126,.F.);
#502=ADVANCED_FACE('',(#470,#471),#24,.T.);
#503=ADVANCED_FACE('',(#472),#127,.F.);
#504=ADVANCED_FACE('',(#473,#474),#20,.T.);
#505=CLOSED_SHELL('',(#476,#477,#478,#479,#480,#481,#482,#483,#484,#485,
#486,#487,#488,#489,#490,#491,#492,#493,#494,#495,#496,#497,#498,#499,#500,
#501,#502,#503,#504));
#506=STYLED_ITEM('',(#507),#514);
#507=PRESENTATION_STYLE_ASSIGNMENT((#508));
#508=SURFACE_STYLE_USAGE(.BOTH.,#509);
#509=SURFACE_SIDE_STYLE('',(#510));
#510=SURFACE_STYLE_FILL_AREA(#511);
#511=FILL_AREA_STYLE('',(#512));
#512=FILL_AREA_STYLE_COLOUR('',#513);
#513=DRAUGHTING_PRE_DEFINED_COLOUR('white');
#514=MANIFOLD_SOLID_BREP('screw_chassis_M3x10_nylon',#505);
#515=SHAPE_DEFINITION_REPRESENTATION(#878,#516);
#516=SHAPE_REPRESENTATION('screw_chassis_M3x10_nylon',(#517),#873);
#517=AXIS2_PLACEMENT_3D('',#728,#574,#575);
#518=AXIS2_PLACEMENT_3D('',#729,#576,#577);
#519=AXIS2_PLACEMENT_3D('',#730,#578,#579);
#520=AXIS2_PLACEMENT_3D('',#732,#580,#581);
#521=AXIS2_PLACEMENT_3D('',#734,#582,#583);
#522=AXIS2_PLACEMENT_3D('',#775,#604,#605);
#523=AXIS2_PLACEMENT_3D('',#776,#606,#607);
#524=AXIS2_PLACEMENT_3D('',#781,#610,#611);
#525=AXIS2_PLACEMENT_3D('',#782,#612,#613);
#526=AXIS2_PLACEMENT_3D('',#785,#615,#616);
#527=AXIS2_PLACEMENT_3D('',#786,#617,#618);
#528=AXIS2_PLACEMENT_3D('',#789,#620,#621);
#529=AXIS2_PLACEMENT_3D('',#790,#622,#623);
#530=AXIS2_PLACEMENT_3D('',#793,#625,#626);
#531=AXIS2_PLACEMENT_3D('',#794,#627,#628);
#532=AXIS2_PLACEMENT_3D('',#797,#630,#631);
#533=AXIS2_PLACEMENT_3D('',#798,#632,#633);
#534=AXIS2_PLACEMENT_3D('',#801,#635,#636);
#535=AXIS2_PLACEMENT_3D('',#802,#637,#638);
#536=AXIS2_PLACEMENT_3D('',#805,#640,#641);
#537=AXIS2_PLACEMENT_3D('',#806,#642,#643);
#538=AXIS2_PLACEMENT_3D('',#809,#645,#646);
#539=AXIS2_PLACEMENT_3D('',#810,#647,#648);
#540=AXIS2_PLACEMENT_3D('',#813,#650,#651);
#541=AXIS2_PLACEMENT_3D('',#814,#652,#653);
#542=AXIS2_PLACEMENT_3D('',#817,#655,#656);
#543=AXIS2_PLACEMENT_3D('',#818,#657,#658);
#544=AXIS2_PLACEMENT_3D('',#821,#660,#661);
#545=AXIS2_PLACEMENT_3D('',#822,#662,#663);
#546=AXIS2_PLACEMENT_3D('',#825,#665,#666);
#547=AXIS2_PLACEMENT_3D('',#826,#667,#668);
#548=AXIS2_PLACEMENT_3D('',#829,#670,#671);
#549=AXIS2_PLACEMENT_3D('',#830,#672,#673);
#550=AXIS2_PLACEMENT_3D('',#833,#675,#676);
#551=AXIS2_PLACEMENT_3D('',#834,#677,#678);
#552=AXIS2_PLACEMENT_3D('',#837,#680,#681);
#553=AXIS2_PLACEMENT_3D('',#838,#682,#683);
#554=AXIS2_PLACEMENT_3D('',#841,#685,#686);
#555=AXIS2_PLACEMENT_3D('',#842,#687,#688);
#556=AXIS2_PLACEMENT_3D('',#845,#690,#691);
#557=AXIS2_PLACEMENT_3D('',#846,#692,#693);
#558=AXIS2_PLACEMENT_3D('',#849,#695,#696);
#559=AXIS2_PLACEMENT_3D('',#850,#697,#698);
#560=AXIS2_PLACEMENT_3D('',#853,#700,#701);
#561=AXIS2_PLACEMENT_3D('',#854,#702,#703);
#562=AXIS2_PLACEMENT_3D('',#855,#704,#705);
#563=AXIS2_PLACEMENT_3D('',#856,#706,#707);
#564=AXIS2_PLACEMENT_3D('',#858,#708,#709);
#565=AXIS2_PLACEMENT_3D('',#860,#710,#711);
#566=AXIS2_PLACEMENT_3D('',#861,#712,#713);
#567=AXIS2_PLACEMENT_3D('',#863,#714,#715);
#568=AXIS2_PLACEMENT_3D('',#864,#716,#717);
#569=AXIS2_PLACEMENT_3D('',#865,#718,#719);
#570=AXIS2_PLACEMENT_3D('',#867,#720,#721);
#571=AXIS2_PLACEMENT_3D('',#868,#722,#723);
#572=AXIS2_PLACEMENT_3D('',#870,#724,#725);
#573=AXIS2_PLACEMENT_3D('',#871,#726,#727);
#574=DIRECTION('',(0.,0.,1.));
#575=DIRECTION('',(1.,0.,0.));
#576=DIRECTION('',(0.,0.,1.));
#577=DIRECTION('',(1.,0.,0.));
#578=DIRECTION('',(0.,0.,-1.));
#579=DIRECTION('',(1.,0.,0.));
#580=DIRECTION('',(0.,0.,1.));
#581=DIRECTION('',(1.,0.,0.));
#582=DIRECTION('',(0.,0.,-1.));
#583=DIRECTION('',(-1.,0.,0.));
#584=DIRECTION('',(1.15648231731786E-15,1.,0.));
#585=DIRECTION('',(-1.,-1.66718705166238E-15,0.));
#586=DIRECTION('',(-0.923879532511286,0.382683432365091,0.));
#587=DIRECTION('',(-0.382683432365088,0.923879532511288,0.));
#588=DIRECTION('',(8.02719691541147E-16,1.,0.));
#589=DIRECTION('',(-1.,0.,0.));
#590=DIRECTION('',(8.02719691541147E-16,-1.,4.93981348640706E-16));
#591=DIRECTION('',(-0.382683432365088,-0.923879532511288,4.93981348640706E-16));
#592=DIRECTION('',(-0.923879532511286,-0.382683432365091,0.));
#593=DIRECTION('',(-1.,5.43379483504776E-15,0.));
#594=DIRECTION('',(2.31296463463571E-15,-1.,0.));
#595=DIRECTION('',(1.,3.08738342900441E-16,0.));
#596=DIRECTION('',(0.923879532511286,-0.382683432365091,0.));
#597=DIRECTION('',(0.382683432365088,-0.923879532511288,0.));
#598=DIRECTION('',(-4.93981348640706E-16,-1.,0.));
#599=DIRECTION('',(1.,0.,0.));
#600=DIRECTION('',(-4.93981348640706E-16,1.,0.));
#601=DIRECTION('',(0.382683432365089,0.923879532511287,0.));
#602=DIRECTION('',(0.923879532511286,0.382683432365091,0.));
#603=DIRECTION('',(1.,-2.6551497489438E-15,0.));
#604=DIRECTION('',(-4.40663967204479E-16,-0.997328534337083,0.0730465235110171));
#605=DIRECTION('',(-6.16297582203916E-33,-0.0730465235110171,-0.997328534337083));
#606=DIRECTION('',(-4.40663967204479E-16,-0.997328534337083,0.0730465235110171));
#607=DIRECTION('',(-6.16297582203916E-33,-0.0730465235110171,-0.997328534337083));
#608=DIRECTION('',(-0.359094427819397,-0.0681744104744474,-0.930807951011121));
#609=DIRECTION('',(-0.528979636974056,-0.0619898012078971,-0.846367419158489));
#610=DIRECTION('',(-0.847998304005088,-1.79097690747833E-15,0.52999894000318));
#611=DIRECTION('',(0.52999894000318,0.,0.847998304005088));
#612=DIRECTION('',(-0.847998304005088,-1.79097690747833E-15,0.52999894000318));
#613=DIRECTION('',(0.52999894000318,0.,0.847998304005088));
#614=DIRECTION('',(-0.528979636974056,0.0619898012078971,-0.846367419158489));
#615=DIRECTION('',(-0.374110743758012,-0.903183231410078,0.210478506989376));
#616=DIRECTION('',(0.923879532511287,-0.38268343236509,0.));
#617=DIRECTION('',(-0.374110743758012,-0.903183231410078,0.210478506989376));
#618=DIRECTION('',(0.923879532511287,-0.38268343236509,0.));
#619=DIRECTION('',(-0.160484517424184,-0.160484517424184,-0.973904224928845));
#620=DIRECTION('',(-0.903183231410078,-0.374110743758012,0.210478506989376));
#621=DIRECTION('',(0.38268343236509,-0.923879532511287,0.));
#622=DIRECTION('',(-0.903183231410078,-0.374110743758012,0.210478506989376));
#623=DIRECTION('',(0.38268343236509,-0.923879532511287,0.));
#624=DIRECTION('',(-0.0681744104744472,-0.359094427819397,-0.930807951011121));
#625=DIRECTION('',(-0.997328534337083,-4.77385964471519E-16,0.0730465235110169));
#626=DIRECTION('',(0.0730465235110169,0.,0.997328534337083));
#627=DIRECTION('',(-0.997328534337083,-4.77385964471519E-16,0.0730465235110169));
#628=DIRECTION('',(0.0730465235110169,0.,0.997328534337083));
#629=DIRECTION('',(-0.061989801207897,-0.528979636974056,-0.846367419158489));
#630=DIRECTION('',(0.,-0.847998304005088,0.52999894000318));
#631=DIRECTION('',(0.,-0.52999894000318,-0.847998304005088));
#632=DIRECTION('',(0.,-0.847998304005088,0.52999894000318));
#633=DIRECTION('',(0.,-0.52999894000318,-0.847998304005088));
#634=DIRECTION('',(0.061989801207897,-0.528979636974056,-0.846367419158489));
#635=DIRECTION('',(0.997328534337083,-4.77385964471519E-16,0.0730465235110169));
#636=DIRECTION('',(0.0730465235110169,0.,-0.997328534337083));
#637=DIRECTION('',(0.997328534337083,-4.77385964471519E-16,0.0730465235110169));
#638=DIRECTION('',(0.0730465235110169,0.,-0.997328534337083));
#639=DIRECTION('',(0.0681744104744472,-0.359094427819397,-0.930807951011121));
#640=DIRECTION('',(0.903183231410078,-0.374110743758012,0.210478506989376));
#641=DIRECTION('',(0.38268343236509,0.923879532511287,0.));
#642=DIRECTION('',(0.903183231410078,-0.374110743758012,0.210478506989376));
#643=DIRECTION('',(0.38268343236509,0.923879532511287,0.));
#644=DIRECTION('',(0.160484517424184,-0.160484517424184,-0.973904224928845));
#645=DIRECTION('',(0.374110743758012,-0.903183231410078,0.210478506989376));
#646=DIRECTION('',(0.923879532511287,0.38268343236509,0.));
#647=DIRECTION('',(0.374110743758012,-0.903183231410078,0.210478506989376));
#648=DIRECTION('',(0.923879532511287,0.38268343236509,0.));
#649=DIRECTION('',(0.359094427819397,-0.0681744104744474,-0.930807951011121));
#650=DIRECTION('',(1.2852699043464E-15,-0.997328534337083,0.0730465235110174));
#651=DIRECTION('',(1.23259516440783E-32,-0.0730465235110174,-0.997328534337083));
#652=DIRECTION('',(1.2852699043464E-15,-0.997328534337083,0.0730465235110174));
#653=DIRECTION('',(1.23259516440783E-32,-0.0730465235110174,-0.997328534337083));
#654=DIRECTION('',(0.528979636974056,-0.061989801207897,-0.846367419158489));
#655=DIRECTION('',(0.847998304005088,-1.79097690747833E-15,0.52999894000318));
#656=DIRECTION('',(0.52999894000318,0.,-0.847998304005088));
#657=DIRECTION('',(0.847998304005088,-1.79097690747833E-15,0.52999894000318));
#658=DIRECTION('',(0.52999894000318,0.,-0.847998304005088));
#659=DIRECTION('',(0.528979636974056,0.0619898012078972,-0.846367419158489));
#660=DIRECTION('',(7.34439945340799E-17,0.997328534337083,0.0730465235110169));
#661=DIRECTION('',(0.,-0.0730465235110169,0.997328534337083));
#662=DIRECTION('',(7.34439945340799E-17,0.997328534337083,0.0730465235110169));
#663=DIRECTION('',(0.,-0.0730465235110169,0.997328534337083));
#664=DIRECTION('',(0.359094427819397,0.0681744104744474,-0.930807951011121));
#665=DIRECTION('',(0.374110743758012,0.903183231410078,0.210478506989376));
#666=DIRECTION('',(-0.923879532511287,0.38268343236509,0.));
#667=DIRECTION('',(0.374110743758012,0.903183231410078,0.210478506989376));
#668=DIRECTION('',(-0.923879532511287,0.38268343236509,0.));
#669=DIRECTION('',(0.160484517424184,0.160484517424184,-0.973904224928845));
#670=DIRECTION('',(0.903183231410078,0.374110743758012,0.210478506989376));
#671=DIRECTION('',(-0.38268343236509,0.923879532511287,0.));
#672=DIRECTION('',(0.903183231410078,0.374110743758012,0.210478506989376));
#673=DIRECTION('',(-0.38268343236509,0.923879532511287,0.));
#674=DIRECTION('',(0.0681744104744472,0.359094427819397,-0.930807951011121));
#675=DIRECTION('',(0.997328534337083,1.4688798906816E-16,0.0730465235110167));
#676=DIRECTION('',(0.0730465235110167,0.,-0.997328534337083));
#677=DIRECTION('',(0.997328534337083,1.4688798906816E-16,0.0730465235110167));
#678=DIRECTION('',(0.0730465235110167,-1.54074395550979E-32,-0.997328534337083));
#679=DIRECTION('',(0.061989801207897,0.528979636974056,-0.846367419158489));
#680=DIRECTION('',(0.,0.847998304005088,0.52999894000318));
#681=DIRECTION('',(0.,-0.52999894000318,0.847998304005088));
#682=DIRECTION('',(0.,0.847998304005088,0.52999894000318));
#683=DIRECTION('',(0.,-0.52999894000318,0.847998304005088));
#684=DIRECTION('',(-0.061989801207897,0.528979636974056,-0.846367419158489));
#685=DIRECTION('',(-0.997328534337083,1.4688798906816E-16,0.0730465235110167));
#686=DIRECTION('',(0.0730465235110167,0.,0.997328534337083));
#687=DIRECTION('',(-0.997328534337083,1.4688798906816E-16,0.0730465235110167));
#688=DIRECTION('',(0.0730465235110167,0.,0.997328534337083));
#689=DIRECTION('',(-0.0681744104744472,0.359094427819397,-0.930807951011121));
#690=DIRECTION('',(-0.903183231410078,0.374110743758012,0.210478506989376));
#691=DIRECTION('',(-0.38268343236509,-0.923879532511287,0.));
#692=DIRECTION('',(-0.903183231410078,0.374110743758012,0.210478506989376));
#693=DIRECTION('',(-0.38268343236509,-0.923879532511287,0.));
#694=DIRECTION('',(-0.160484517424184,0.160484517424184,-0.973904224928845));
#695=DIRECTION('',(-0.374110743758012,0.903183231410078,0.210478506989376));
#696=DIRECTION('',(-0.923879532511287,-0.38268343236509,0.));
#697=DIRECTION('',(-0.374110743758012,0.903183231410078,0.210478506989376));
#698=DIRECTION('',(-0.923879532511287,-0.38268343236509,0.));
#699=DIRECTION('',(-0.359094427819397,0.0681744104744474,-0.930807951011121));
#700=DIRECTION('',(-5.87551956272638E-16,0.997328534337083,0.0730465235110171));
#701=DIRECTION('',(6.16297582203916E-33,-0.0730465235110171,0.997328534337083));
#702=DIRECTION('',(-5.87551956272638E-16,0.997328534337083,0.0730465235110171));
#703=DIRECTION('',(6.16297582203916E-33,-0.0730465235110171,0.997328534337083));
#704=DIRECTION('',(0.,0.,-1.));
#705=DIRECTION('',(-1.,0.,0.));
#706=DIRECTION('',(0.,0.,-1.));
#707=DIRECTION('',(-1.,0.,0.));
#708=DIRECTION('',(0.,0.,-1.));
#709=DIRECTION('',(-1.,0.,0.));
#710=DIRECTION('',(0.,0.,-1.));
#711=DIRECTION('',(-1.,0.,0.));
#712=DIRECTION('',(0.,0.,-1.));
#713=DIRECTION('',(-1.,0.,0.));
#714=DIRECTION('',(0.,0.,-1.));
#715=DIRECTION('',(-1.,0.,0.));
#716=DIRECTION('',(0.,0.,1.));
#717=DIRECTION('',(1.,0.,0.));
#718=DIRECTION('',(0.,0.,-1.));
#719=DIRECTION('',(-1.,0.,0.));
#720=DIRECTION('',(0.,0.,-1.));
#721=DIRECTION('',(-1.,0.,0.));
#722=DIRECTION('',(0.,0.,-1.));
#723=DIRECTION('',(-1.,0.,0.));
#724=DIRECTION('',(0.,0.,1.));
#725=DIRECTION('',(1.,0.,0.));
#726=DIRECTION('',(0.,1.22464679914735E-16,-1.));
#727=DIRECTION('',(0.,1.,8.88178419700125E-17));
#728=CARTESIAN_POINT('',(0.,0.,0.));
#729=CARTESIAN_POINT('',(0.,0.,-0.0001));
#730=CARTESIAN_POINT('',(0.,0.,-0.0001));
#731=CARTESIAN_POINT('',(0.00135975,0.,-0.0001));
#732=CARTESIAN_POINT('',(0.,0.,0.));
#733=CARTESIAN_POINT('',(0.00145975,0.,0.));
#734=CARTESIAN_POINT('',(-5.484568542386E-20,-8.56963834747812E-21,0.00048));
#735=CARTESIAN_POINT('',(0.0003,2.34375E-5,0.00048));
#736=CARTESIAN_POINT('',(0.0003,-4.6875E-5,0.00048));
#737=CARTESIAN_POINT('',(0.0003,4.6875E-5,0.00048));
#738=CARTESIAN_POINT('',(0.000245129397320925,4.6875E-5,0.00048));
#739=CARTESIAN_POINT('',(0.000190258794641851,4.6875E-5,0.00048));
#740=CARTESIAN_POINT('',(0.000139564967890095,6.78730705691693E-5,0.00048));
#741=CARTESIAN_POINT('',(8.88711411383389E-5,8.88711411383388E-5,0.00048));
#742=CARTESIAN_POINT('',(6.78730705691696E-5,0.000139564967890095,0.00048));
#743=CARTESIAN_POINT('',(4.6875E-5,0.000190258794641851,0.00048));
#744=CARTESIAN_POINT('',(4.6875E-5,0.000245129397320925,0.00048));
#745=CARTESIAN_POINT('',(4.6875E-5,0.0003,0.00048));
#746=CARTESIAN_POINT('',(2.34375000000003E-5,0.0003,0.00048));
#747=CARTESIAN_POINT('',(-4.6875E-5,0.0003,0.00048));
#748=CARTESIAN_POINT('',(-4.6875E-5,0.000245129397320925,0.00048));
#749=CARTESIAN_POINT('',(-4.6875E-5,0.000190258794641851,0.00048));
#750=CARTESIAN_POINT('',(-6.78730705691696E-5,0.000139564967890095,0.00048));
#751=CARTESIAN_POINT('',(-8.88711411383389E-5,8.88711411383388E-5,0.00048));
#752=CARTESIAN_POINT('',(-0.000139564967890095,6.78730705691693E-5,0.00048));
#753=CARTESIAN_POINT('',(-0.000190258794641851,4.6875E-5,0.00048));
#754=CARTESIAN_POINT('',(-0.000245129397320925,4.6875E-5,0.00048));
#755=CARTESIAN_POINT('',(-0.0003,4.6875E-5,0.00048));
#756=CARTESIAN_POINT('',(-0.0003,2.34375E-5,0.00048));
#757=CARTESIAN_POINT('',(-0.0003,-4.6875E-5,0.00048));
#758=CARTESIAN_POINT('',(-0.000245129397320925,-4.6875E-5,0.00048));
#759=CARTESIAN_POINT('',(-0.000190258794641851,-4.6875E-5,0.00048));
#760=CARTESIAN_POINT('',(-0.000139564967890095,-6.78730705691694E-5,0.00048));
#761=CARTESIAN_POINT('',(-8.88711411383389E-5,-8.88711411383388E-5,0.00048));
#762=CARTESIAN_POINT('',(-6.78730705691696E-5,-0.000139564967890095,0.00048));
#763=CARTESIAN_POINT('',(-4.6875E-5,-0.000190258794641851,0.00048));
#764=CARTESIAN_POINT('',(-4.6875E-5,-0.000245129397320925,0.00048));
#765=CARTESIAN_POINT('',(-4.6875E-5,-0.0003,0.00048));
#766=CARTESIAN_POINT('',(-2.34375E-5,-0.0003,0.00048));
#767=CARTESIAN_POINT('',(4.6875E-5,-0.0003,0.00048));
#768=CARTESIAN_POINT('',(4.6875E-5,-0.000245129397320925,0.00048));
#769=CARTESIAN_POINT('',(4.6875E-5,-0.000190258794641851,0.00048));
#770=CARTESIAN_POINT('',(6.78730705691696E-5,-0.000139564967890095,0.00048));
#771=CARTESIAN_POINT('',(8.88711411383389E-5,-8.88711411383388E-5,0.00048));
#772=CARTESIAN_POINT('',(0.000139564967890095,-6.78730705691694E-5,0.00048));
#773=CARTESIAN_POINT('',(0.000190258794641851,-4.6875E-5,0.00048));
#774=CARTESIAN_POINT('',(0.000245129397320925,-4.6875E-5,0.00048));
#775=CARTESIAN_POINT('',(0.0009,0.0001171875,0.00144));
#776=CARTESIAN_POINT('',(-7.85410888516986E-20,-0.000177757372645255,-0.00258698066118321));
#777=CARTESIAN_POINT('',(0.00137717516886251,0.000173106465101076,0.00220348027018002));
#778=CARTESIAN_POINT('',(0.000898296138673795,0.000181296547046528,0.0023153021890086));
#779=CARTESIAN_POINT('',(0.000560615161207205,0.0001171875,0.00144));
#780=CARTESIAN_POINT('',(0.0009,0.0001171875,0.00144));
#781=CARTESIAN_POINT('',(0.0009,0.0001171875,0.00144));
#782=CARTESIAN_POINT('',(-0.0011685393258427,-2.46796124258759E-18,-0.00186966292134832));
#783=CARTESIAN_POINT('',(0.00137717516886251,-0.000173106465101076,0.00220348027018002));
#784=CARTESIAN_POINT('',(0.0009,-0.0001171875,0.00144));
#785=CARTESIAN_POINT('',(0.000560615161207205,0.0001171875,0.00144));
#786=CARTESIAN_POINT('',(-0.00020005917266256,-0.000482985567919092,-0.00248744467601074));
#787=CARTESIAN_POINT('',(0.000399968511137703,0.000399968511137702,0.00236790200992296));
#788=CARTESIAN_POINT('',(0.0002470644550019,0.000247064455001899,0.00144));
#789=CARTESIAN_POINT('',(0.0001171875,0.000560615161207205,0.00144));
#790=CARTESIAN_POINT('',(-0.000482985567919092,-0.00020005917266256,-0.00248744467601074));
#791=CARTESIAN_POINT('',(0.000181296547046529,0.000898296138673795,0.0023153021890086));
#792=CARTESIAN_POINT('',(0.0001171875,0.000560615161207205,0.00144));
#793=CARTESIAN_POINT('',(0.0001171875,0.0009,0.00144));
#794=CARTESIAN_POINT('',(-0.000177757372645254,-8.50861795893396E-20,-0.00258698066118321));
#795=CARTESIAN_POINT('',(0.000173106465101076,0.00137717516886251,0.00220348027018002));
#796=CARTESIAN_POINT('',(0.0001171875,0.0009,0.00144));
#797=CARTESIAN_POINT('',(0.0001171875,0.0009,0.00144));
#798=CARTESIAN_POINT('',(0.,-0.0011685393258427,-0.00186966292134832));
#799=CARTESIAN_POINT('',(-0.000173106465101076,0.00137717516886251,0.00220348027018002));
#800=CARTESIAN_POINT('',(-0.0001171875,0.0009,0.00144));
#801=CARTESIAN_POINT('',(-0.0001171875,0.0009,0.00144));
#802=CARTESIAN_POINT('',(0.000177757372645254,-8.50861795893396E-20,-0.00258698066118321));
#803=CARTESIAN_POINT('',(-0.000181296547046529,0.000898296138673795,0.0023153021890086));
#804=CARTESIAN_POINT('',(-0.0001171875,0.000560615161207205,0.00144));
#805=CARTESIAN_POINT('',(-0.0001171875,0.000560615161207205,0.00144));
#806=CARTESIAN_POINT('',(0.000482985567919092,-0.00020005917266256,-0.00248744467601074));
#807=CARTESIAN_POINT('',(-0.000399968511137703,0.000399968511137703,0.00236790200992296));
#808=CARTESIAN_POINT('',(-0.0002470644550019,0.0002470644550019,0.00144));
#809=CARTESIAN_POINT('',(-0.000560615161207205,0.0001171875,0.00144));
#810=CARTESIAN_POINT('',(0.00020005917266256,-0.000482985567919092,-0.00248744467601074));
#811=CARTESIAN_POINT('',(-0.000898296138673795,0.000181296547046528,0.0023153021890086));
#812=CARTESIAN_POINT('',(-0.000560615161207205,0.0001171875,0.00144));
#813=CARTESIAN_POINT('',(-0.0009,0.0001171875,0.00144));
#814=CARTESIAN_POINT('',(2.29078175817455E-19,-0.000177757372645256,-0.00258698066118321));
#815=CARTESIAN_POINT('',(-0.00137717516886251,0.000173106465101076,0.00220348027018002));
#816=CARTESIAN_POINT('',(-0.0009,0.0001171875,0.00144));
#817=CARTESIAN_POINT('',(-0.0009,0.0001171875,0.00144));
#818=CARTESIAN_POINT('',(0.0011685393258427,-2.46796124258759E-18,-0.00186966292134832));
#819=CARTESIAN_POINT('',(-0.00137717516886251,-0.000173106465101076,0.00220348027018002));
#820=CARTESIAN_POINT('',(-0.0009,-0.0001171875,0.00144));
#821=CARTESIAN_POINT('',(-0.0009,-0.0001171875,0.00144));
#822=CARTESIAN_POINT('',(1.30901814752831E-20,0.000177757372645255,-0.00258698066118321));
#823=CARTESIAN_POINT('',(-0.000898296138673795,-0.000181296547046528,0.0023153021890086));
#824=CARTESIAN_POINT('',(-0.000560615161207205,-0.0001171875,0.00144));
#825=CARTESIAN_POINT('',(-0.000560615161207205,-0.0001171875,0.00144));
#826=CARTESIAN_POINT('',(0.00020005917266256,0.000482985567919092,-0.00248744467601074));
#827=CARTESIAN_POINT('',(-0.000399968511137703,-0.000399968511137702,0.00236790200992296));
#828=CARTESIAN_POINT('',(-0.0002470644550019,-0.0002470644550019,0.00144));
#829=CARTESIAN_POINT('',(-0.0001171875,-0.000560615161207205,0.00144));
#830=CARTESIAN_POINT('',(0.000482985567919092,0.00020005917266256,-0.00248744467601074));
#831=CARTESIAN_POINT('',(-0.000181296547046528,-0.000898296138673795,0.0023153021890086));
#832=CARTESIAN_POINT('',(-0.0001171875,-0.000560615161207205,0.00144));
#833=CARTESIAN_POINT('',(-0.0001171875,-0.0009,0.00144));
#834=CARTESIAN_POINT('',(0.000177757372645254,2.6180362950566E-20,-0.00258698066118321));
#835=CARTESIAN_POINT('',(-0.000173106465101076,-0.00137717516886251,0.00220348027018002));
#836=CARTESIAN_POINT('',(-0.0001171875,-0.0009,0.00144));
#837=CARTESIAN_POINT('',(-0.0001171875,-0.0009,0.00144));
#838=CARTESIAN_POINT('',(0.,0.0011685393258427,-0.00186966292134832));
#839=CARTESIAN_POINT('',(0.000173106465101076,-0.00137717516886251,0.00220348027018002));
#840=CARTESIAN_POINT('',(0.0001171875,-0.0009,0.00144));
#841=CARTESIAN_POINT('',(0.0001171875,-0.0009,0.00144));
#842=CARTESIAN_POINT('',(-0.000177757372645254,2.6180362950566E-20,-0.00258698066118321));
#843=CARTESIAN_POINT('',(0.000181296547046528,-0.000898296138673795,0.0023153021890086));
#844=CARTESIAN_POINT('',(0.0001171875,-0.000560615161207205,0.00144));
#845=CARTESIAN_POINT('',(0.0001171875,-0.000560615161207205,0.00144));
#846=CARTESIAN_POINT('',(-0.000482985567919092,0.00020005917266256,-0.00248744467601074));
#847=CARTESIAN_POINT('',(0.000399968511137703,-0.000399968511137703,0.00236790200992296));
#848=CARTESIAN_POINT('',(0.0002470644550019,-0.0002470644550019,0.00144));
#849=CARTESIAN_POINT('',(0.000560615161207205,-0.0001171875,0.00144));
#850=CARTESIAN_POINT('',(-0.00020005917266256,0.000482985567919092,-0.00248744467601074));
#851=CARTESIAN_POINT('',(0.000898296138673795,-0.000181296547046528,0.0023153021890086));
#852=CARTESIAN_POINT('',(0.000560615161207205,-0.0001171875,0.00144));
#853=CARTESIAN_POINT('',(0.0009,-0.0001171875,0.00144));
#854=CARTESIAN_POINT('',(-1.04721451802265E-19,0.000177757372645255,-0.00258698066118321));
#855=CARTESIAN_POINT('',(0.,0.,0.));
#856=CARTESIAN_POINT('',(0.,0.,-0.001));
#857=CARTESIAN_POINT('',(-0.001437,0.,-0.001));
#858=CARTESIAN_POINT('',(0.,0.,-0.01));
#859=CARTESIAN_POINT('',(-0.001437,0.,-0.01));
#860=CARTESIAN_POINT('',(0.,0.,-0.00075));
#861=CARTESIAN_POINT('',(0.,0.,-0.00075));
#862=CARTESIAN_POINT('',(-0.00135975,0.,-0.00075));
#863=CARTESIAN_POINT('',(0.,0.,0.));
#864=CARTESIAN_POINT('',(0.,0.0028,0.));
#865=CARTESIAN_POINT('',(0.,0.,0.));
#866=CARTESIAN_POINT('',(-0.0028,0.,0.));
#867=CARTESIAN_POINT('',(0.,0.,0.));
#868=CARTESIAN_POINT('',(0.,0.,0.00154246303544159));
#869=CARTESIAN_POINT('',(-0.0028,0.,0.00154246303544159));
#870=CARTESIAN_POINT('',(0.,0.001437,-0.01));
#871=CARTESIAN_POINT('',(0.,0.,-0.0026));
#872=MECHANICAL_DESIGN_GEOMETRIC_PRESENTATION_REPRESENTATION('',(#506),
#873);
#873=(
GEOMETRIC_REPRESENTATION_CONTEXT(3)
GLOBAL_UNCERTAINTY_ASSIGNED_CONTEXT((#874))
GLOBAL_UNIT_ASSIGNED_CONTEXT((#877,#876,#875))
REPRESENTATION_CONTEXT('screw_chassis_M3x10_nylon',
'TOP_LEVEL_ASSEMBLY_PART')
);
#874=UNCERTAINTY_MEASURE_WITH_UNIT(LENGTH_MEASURE(5.E-6),#877,
'DISTANCE_ACCURACY_VALUE','Maximum Tolerance applied to model');
#875=(
NAMED_UNIT(*)
SI_UNIT($,.STERADIAN.)
SOLID_ANGLE_UNIT()
);
#876=(
NAMED_UNIT(*)
PLANE_ANGLE_UNIT()
SI_UNIT($,.RADIAN.)
);
#877=(
LENGTH_UNIT()
NAMED_UNIT(*)
SI_UNIT($,.METRE.)
);
#878=PRODUCT_DEFINITION_SHAPE('','',#879);
#879=PRODUCT_DEFINITION('','',#881,#880);
#880=PRODUCT_DEFINITION_CONTEXT('',#887,'design');
#881=PRODUCT_DEFINITION_FORMATION_WITH_SPECIFIED_SOURCE('','',#883,
 .NOT_KNOWN.);
#882=PRODUCT_RELATED_PRODUCT_CATEGORY('','',(#883));
#883=PRODUCT('screw_chassis_M3x10_nylon','screw_chassis_M3x10_nylon',
'screw_chassis_M3x10_nylon',(#885));
#884=PRODUCT_CATEGORY('','');
#885=PRODUCT_CONTEXT('',#887,'mechanical');
#886=APPLICATION_PROTOCOL_DEFINITION('international standard',
'automotive_design',2010,#887);
#887=APPLICATION_CONTEXT(
'core data for automotive mechanical design processes');
ENDSEC;
END-ISO-10303-21;
