ISO-10303-21;
HEADER;
/* Generated by software containing ST-Developer
 * from STEP Tools, Inc. (www.steptools.com) 
 */
/* OPTION: using custom renumber hook */

FILE_DESCRIPTION(
/* description */ ('STEP AP214'),
/* implementation_level */ '2;1');

FILE_NAME(
/* name */ '654cf5897f9aa566be1721c5',
/* time_stamp */ '2023-11-09T15:06:50Z',
/* author */ (''),
/* organization */ (''),
/* preprocessor_version */ 'ST-DEVELOPER v19.4',
/* originating_system */ '  ',
/* authorisation */ '  ');

FILE_SCHEMA (('AUTOMOTIVE_DESIGN {1 0 10303 214 3 1 1}'));
ENDSEC;

DATA;
#10=PROPERTY_DEFINITION_REPRESENTATION(#14,#12);
#11=PROPERTY_DEFINITION_REPRESENTATION(#15,#13);
#12=REPRESENTATION('',(#16),#893);
#13=REPRESENTATION('',(#17),#893);
#14=PROPERTY_DEFINITION('pmi validation property','',#898);
#15=PROPERTY_DEFINITION('pmi validation property','',#898);
#16=VALUE_REPRESENTATION_ITEM('number of annotations',COUNT_MEASURE(0.));
#17=VALUE_REPRESENTATION_ITEM('number of views',COUNT_MEASURE(0.));
#18=SHAPE_REPRESENTATION_RELATIONSHIP('','',#527,#19);
#19=ADVANCED_BREP_SHAPE_REPRESENTATION('',(#525),#893);
#20=SPHERICAL_SURFACE('',#586,0.005);
#21=CYLINDRICAL_SURFACE('',#576,0.001437);
#22=CYLINDRICAL_SURFACE('',#580,0.00135975);
#23=CYLINDRICAL_SURFACE('',#583,0.0028);
#24=LINE('',#757,#64);
#25=LINE('',#760,#65);
#26=LINE('',#762,#66);
#27=LINE('',#764,#67);
#28=LINE('',#766,#68);
#29=LINE('',#768,#69);
#30=LINE('',#770,#70);
#31=LINE('',#772,#71);
#32=LINE('',#774,#72);
#33=LINE('',#776,#73);
#34=LINE('',#778,#74);
#35=LINE('',#780,#75);
#36=LINE('',#782,#76);
#37=LINE('',#784,#77);
#38=LINE('',#786,#78);
#39=LINE('',#788,#79);
#40=LINE('',#790,#80);
#41=LINE('',#792,#81);
#42=LINE('',#794,#82);
#43=LINE('',#796,#83);
#44=LINE('',#801,#84);
#45=LINE('',#802,#85);
#46=LINE('',#806,#86);
#47=LINE('',#810,#87);
#48=LINE('',#814,#88);
#49=LINE('',#818,#89);
#50=LINE('',#822,#90);
#51=LINE('',#826,#91);
#52=LINE('',#830,#92);
#53=LINE('',#834,#93);
#54=LINE('',#838,#94);
#55=LINE('',#842,#95);
#56=LINE('',#846,#96);
#57=LINE('',#850,#97);
#58=LINE('',#854,#98);
#59=LINE('',#858,#99);
#60=LINE('',#862,#100);
#61=LINE('',#866,#101);
#62=LINE('',#870,#102);
#63=LINE('',#874,#103);
#64=VECTOR('',#603,1.);
#65=VECTOR('',#604,1.);
#66=VECTOR('',#605,1.);
#67=VECTOR('',#606,1.);
#68=VECTOR('',#607,1.);
#69=VECTOR('',#608,1.);
#70=VECTOR('',#609,1.);
#71=VECTOR('',#610,1.);
#72=VECTOR('',#611,1.);
#73=VECTOR('',#612,1.);
#74=VECTOR('',#613,1.);
#75=VECTOR('',#614,1.);
#76=VECTOR('',#615,1.);
#77=VECTOR('',#616,1.);
#78=VECTOR('',#617,1.);
#79=VECTOR('',#618,1.);
#80=VECTOR('',#619,1.);
#81=VECTOR('',#620,1.);
#82=VECTOR('',#621,1.);
#83=VECTOR('',#622,1.);
#84=VECTOR('',#627,1.);
#85=VECTOR('',#628,1.);
#86=VECTOR('',#633,1.);
#87=VECTOR('',#638,1.);
#88=VECTOR('',#643,1.);
#89=VECTOR('',#648,1.);
#90=VECTOR('',#653,1.);
#91=VECTOR('',#658,1.);
#92=VECTOR('',#663,1.);
#93=VECTOR('',#668,1.);
#94=VECTOR('',#673,1.);
#95=VECTOR('',#678,1.);
#96=VECTOR('',#683,1.);
#97=VECTOR('',#688,1.);
#98=VECTOR('',#693,1.);
#99=VECTOR('',#698,1.);
#100=VECTOR('',#703,1.);
#101=VECTOR('',#708,1.);
#102=VECTOR('',#713,1.);
#103=VECTOR('',#718,1.);
#104=PLANE('',#535);
#105=PLANE('',#536);
#106=PLANE('',#538);
#107=PLANE('',#540);
#108=PLANE('',#542);
#109=PLANE('',#544);
#110=PLANE('',#546);
#111=PLANE('',#548);
#112=PLANE('',#550);
#113=PLANE('',#552);
#114=PLANE('',#554);
#115=PLANE('',#556);
#116=PLANE('',#558);
#117=PLANE('',#560);
#118=PLANE('',#562);
#119=PLANE('',#564);
#120=PLANE('',#566);
#121=PLANE('',#568);
#122=PLANE('',#570);
#123=PLANE('',#572);
#124=PLANE('',#574);
#125=PLANE('',#581);
#126=PLANE('',#585);
#127=TOROIDAL_SURFACE('',#532,0.00145975,0.0001);
#128=ORIENTED_EDGE('',*,*,#264,.F.);
#129=ORIENTED_EDGE('',*,*,#265,.F.);
#130=ORIENTED_EDGE('',*,*,#266,.F.);
#131=ORIENTED_EDGE('',*,*,#267,.F.);
#132=ORIENTED_EDGE('',*,*,#268,.T.);
#133=ORIENTED_EDGE('',*,*,#269,.T.);
#134=ORIENTED_EDGE('',*,*,#270,.T.);
#135=ORIENTED_EDGE('',*,*,#271,.T.);
#136=ORIENTED_EDGE('',*,*,#272,.T.);
#137=ORIENTED_EDGE('',*,*,#273,.T.);
#138=ORIENTED_EDGE('',*,*,#274,.T.);
#139=ORIENTED_EDGE('',*,*,#275,.T.);
#140=ORIENTED_EDGE('',*,*,#276,.T.);
#141=ORIENTED_EDGE('',*,*,#277,.T.);
#142=ORIENTED_EDGE('',*,*,#278,.T.);
#143=ORIENTED_EDGE('',*,*,#279,.T.);
#144=ORIENTED_EDGE('',*,*,#280,.T.);
#145=ORIENTED_EDGE('',*,*,#281,.T.);
#146=ORIENTED_EDGE('',*,*,#282,.T.);
#147=ORIENTED_EDGE('',*,*,#283,.T.);
#148=ORIENTED_EDGE('',*,*,#284,.T.);
#149=ORIENTED_EDGE('',*,*,#285,.T.);
#150=ORIENTED_EDGE('',*,*,#286,.T.);
#151=ORIENTED_EDGE('',*,*,#287,.T.);
#152=ORIENTED_EDGE('',*,*,#288,.T.);
#153=ORIENTED_EDGE('',*,*,#289,.T.);
#154=ORIENTED_EDGE('',*,*,#269,.F.);
#155=ORIENTED_EDGE('',*,*,#290,.F.);
#156=ORIENTED_EDGE('',*,*,#291,.T.);
#157=ORIENTED_EDGE('',*,*,#290,.T.);
#158=ORIENTED_EDGE('',*,*,#268,.F.);
#159=ORIENTED_EDGE('',*,*,#292,.F.);
#160=ORIENTED_EDGE('',*,*,#293,.T.);
#161=ORIENTED_EDGE('',*,*,#294,.T.);
#162=ORIENTED_EDGE('',*,*,#270,.F.);
#163=ORIENTED_EDGE('',*,*,#289,.F.);
#164=ORIENTED_EDGE('',*,*,#295,.T.);
#165=ORIENTED_EDGE('',*,*,#296,.T.);
#166=ORIENTED_EDGE('',*,*,#271,.F.);
#167=ORIENTED_EDGE('',*,*,#294,.F.);
#168=ORIENTED_EDGE('',*,*,#297,.T.);
#169=ORIENTED_EDGE('',*,*,#298,.T.);
#170=ORIENTED_EDGE('',*,*,#272,.F.);
#171=ORIENTED_EDGE('',*,*,#296,.F.);
#172=ORIENTED_EDGE('',*,*,#299,.T.);
#173=ORIENTED_EDGE('',*,*,#300,.T.);
#174=ORIENTED_EDGE('',*,*,#273,.F.);
#175=ORIENTED_EDGE('',*,*,#298,.F.);
#176=ORIENTED_EDGE('',*,*,#301,.T.);
#177=ORIENTED_EDGE('',*,*,#302,.T.);
#178=ORIENTED_EDGE('',*,*,#274,.F.);
#179=ORIENTED_EDGE('',*,*,#300,.F.);
#180=ORIENTED_EDGE('',*,*,#303,.T.);
#181=ORIENTED_EDGE('',*,*,#304,.T.);
#182=ORIENTED_EDGE('',*,*,#275,.F.);
#183=ORIENTED_EDGE('',*,*,#302,.F.);
#184=ORIENTED_EDGE('',*,*,#305,.T.);
#185=ORIENTED_EDGE('',*,*,#306,.T.);
#186=ORIENTED_EDGE('',*,*,#276,.F.);
#187=ORIENTED_EDGE('',*,*,#304,.F.);
#188=ORIENTED_EDGE('',*,*,#307,.T.);
#189=ORIENTED_EDGE('',*,*,#308,.T.);
#190=ORIENTED_EDGE('',*,*,#277,.F.);
#191=ORIENTED_EDGE('',*,*,#306,.F.);
#192=ORIENTED_EDGE('',*,*,#309,.T.);
#193=ORIENTED_EDGE('',*,*,#310,.T.);
#194=ORIENTED_EDGE('',*,*,#278,.F.);
#195=ORIENTED_EDGE('',*,*,#308,.F.);
#196=ORIENTED_EDGE('',*,*,#311,.T.);
#197=ORIENTED_EDGE('',*,*,#312,.T.);
#198=ORIENTED_EDGE('',*,*,#279,.F.);
#199=ORIENTED_EDGE('',*,*,#310,.F.);
#200=ORIENTED_EDGE('',*,*,#313,.T.);
#201=ORIENTED_EDGE('',*,*,#314,.T.);
#202=ORIENTED_EDGE('',*,*,#280,.F.);
#203=ORIENTED_EDGE('',*,*,#312,.F.);
#204=ORIENTED_EDGE('',*,*,#315,.T.);
#205=ORIENTED_EDGE('',*,*,#316,.T.);
#206=ORIENTED_EDGE('',*,*,#281,.F.);
#207=ORIENTED_EDGE('',*,*,#314,.F.);
#208=ORIENTED_EDGE('',*,*,#317,.T.);
#209=ORIENTED_EDGE('',*,*,#318,.T.);
#210=ORIENTED_EDGE('',*,*,#282,.F.);
#211=ORIENTED_EDGE('',*,*,#316,.F.);
#212=ORIENTED_EDGE('',*,*,#319,.T.);
#213=ORIENTED_EDGE('',*,*,#320,.T.);
#214=ORIENTED_EDGE('',*,*,#283,.F.);
#215=ORIENTED_EDGE('',*,*,#318,.F.);
#216=ORIENTED_EDGE('',*,*,#321,.T.);
#217=ORIENTED_EDGE('',*,*,#322,.T.);
#218=ORIENTED_EDGE('',*,*,#284,.F.);
#219=ORIENTED_EDGE('',*,*,#320,.F.);
#220=ORIENTED_EDGE('',*,*,#323,.T.);
#221=ORIENTED_EDGE('',*,*,#324,.T.);
#222=ORIENTED_EDGE('',*,*,#285,.F.);
#223=ORIENTED_EDGE('',*,*,#322,.F.);
#224=ORIENTED_EDGE('',*,*,#325,.T.);
#225=ORIENTED_EDGE('',*,*,#326,.T.);
#226=ORIENTED_EDGE('',*,*,#286,.F.);
#227=ORIENTED_EDGE('',*,*,#324,.F.);
#228=ORIENTED_EDGE('',*,*,#327,.T.);
#229=ORIENTED_EDGE('',*,*,#292,.T.);
#230=ORIENTED_EDGE('',*,*,#287,.F.);
#231=ORIENTED_EDGE('',*,*,#326,.F.);
#232=ORIENTED_EDGE('',*,*,#328,.T.);
#233=ORIENTED_EDGE('',*,*,#265,.T.);
#234=ORIENTED_EDGE('',*,*,#329,.T.);
#235=ORIENTED_EDGE('',*,*,#328,.F.);
#236=ORIENTED_EDGE('',*,*,#266,.T.);
#237=ORIENTED_EDGE('',*,*,#329,.F.);
#238=ORIENTED_EDGE('',*,*,#267,.T.);
#239=ORIENTED_EDGE('',*,*,#330,.T.);
#240=ORIENTED_EDGE('',*,*,#331,.T.);
#241=ORIENTED_EDGE('',*,*,#330,.F.);
#242=ORIENTED_EDGE('',*,*,#264,.T.);
#243=ORIENTED_EDGE('',*,*,#321,.F.);
#244=ORIENTED_EDGE('',*,*,#319,.F.);
#245=ORIENTED_EDGE('',*,*,#317,.F.);
#246=ORIENTED_EDGE('',*,*,#315,.F.);
#247=ORIENTED_EDGE('',*,*,#313,.F.);
#248=ORIENTED_EDGE('',*,*,#311,.F.);
#249=ORIENTED_EDGE('',*,*,#309,.F.);
#250=ORIENTED_EDGE('',*,*,#307,.F.);
#251=ORIENTED_EDGE('',*,*,#305,.F.);
#252=ORIENTED_EDGE('',*,*,#303,.F.);
#253=ORIENTED_EDGE('',*,*,#301,.F.);
#254=ORIENTED_EDGE('',*,*,#299,.F.);
#255=ORIENTED_EDGE('',*,*,#297,.F.);
#256=ORIENTED_EDGE('',*,*,#295,.F.);
#257=ORIENTED_EDGE('',*,*,#293,.F.);
#258=ORIENTED_EDGE('',*,*,#288,.F.);
#259=ORIENTED_EDGE('',*,*,#291,.F.);
#260=ORIENTED_EDGE('',*,*,#327,.F.);
#261=ORIENTED_EDGE('',*,*,#325,.F.);
#262=ORIENTED_EDGE('',*,*,#323,.F.);
#263=ORIENTED_EDGE('',*,*,#331,.F.);
#264=EDGE_CURVE('',#332,#332,#380,.T.);
#265=EDGE_CURVE('',#333,#333,#381,.T.);
#266=EDGE_CURVE('',#334,#334,#382,.T.);
#267=EDGE_CURVE('',#335,#335,#383,.T.);
#268=EDGE_CURVE('',#336,#337,#24,.T.);
#269=EDGE_CURVE('',#337,#338,#25,.T.);
#270=EDGE_CURVE('',#338,#339,#26,.T.);
#271=EDGE_CURVE('',#339,#340,#27,.T.);
#272=EDGE_CURVE('',#340,#341,#28,.T.);
#273=EDGE_CURVE('',#341,#342,#29,.T.);
#274=EDGE_CURVE('',#342,#343,#30,.T.);
#275=EDGE_CURVE('',#343,#344,#31,.T.);
#276=EDGE_CURVE('',#344,#345,#32,.T.);
#277=EDGE_CURVE('',#345,#346,#33,.T.);
#278=EDGE_CURVE('',#346,#347,#34,.T.);
#279=EDGE_CURVE('',#347,#348,#35,.T.);
#280=EDGE_CURVE('',#348,#349,#36,.T.);
#281=EDGE_CURVE('',#349,#350,#37,.T.);
#282=EDGE_CURVE('',#350,#351,#38,.T.);
#283=EDGE_CURVE('',#351,#352,#39,.T.);
#284=EDGE_CURVE('',#352,#353,#40,.T.);
#285=EDGE_CURVE('',#353,#354,#41,.T.);
#286=EDGE_CURVE('',#354,#355,#42,.T.);
#287=EDGE_CURVE('',#355,#336,#43,.T.);
#288=EDGE_CURVE('',#356,#357,#384,.T.);
#289=EDGE_CURVE('',#357,#338,#44,.T.);
#290=EDGE_CURVE('',#356,#337,#45,.T.);
#291=EDGE_CURVE('',#358,#356,#385,.T.);
#292=EDGE_CURVE('',#358,#336,#46,.T.);
#293=EDGE_CURVE('',#357,#359,#386,.T.);
#294=EDGE_CURVE('',#359,#339,#47,.T.);
#295=EDGE_CURVE('',#359,#360,#387,.T.);
#296=EDGE_CURVE('',#360,#340,#48,.T.);
#297=EDGE_CURVE('',#360,#361,#388,.T.);
#298=EDGE_CURVE('',#361,#341,#49,.T.);
#299=EDGE_CURVE('',#361,#362,#389,.T.);
#300=EDGE_CURVE('',#362,#342,#50,.T.);
#301=EDGE_CURVE('',#362,#363,#390,.T.);
#302=EDGE_CURVE('',#363,#343,#51,.T.);
#303=EDGE_CURVE('',#363,#364,#391,.T.);
#304=EDGE_CURVE('',#364,#344,#52,.T.);
#305=EDGE_CURVE('',#364,#365,#392,.T.);
#306=EDGE_CURVE('',#365,#345,#53,.T.);
#307=EDGE_CURVE('',#365,#366,#393,.T.);
#308=EDGE_CURVE('',#366,#346,#54,.T.);
#309=EDGE_CURVE('',#366,#367,#394,.T.);
#310=EDGE_CURVE('',#367,#347,#55,.T.);
#311=EDGE_CURVE('',#367,#368,#395,.T.);
#312=EDGE_CURVE('',#368,#348,#56,.T.);
#313=EDGE_CURVE('',#368,#369,#396,.T.);
#314=EDGE_CURVE('',#369,#349,#57,.T.);
#315=EDGE_CURVE('',#369,#370,#397,.T.);
#316=EDGE_CURVE('',#370,#350,#58,.T.);
#317=EDGE_CURVE('',#370,#371,#398,.T.);
#318=EDGE_CURVE('',#371,#351,#59,.T.);
#319=EDGE_CURVE('',#371,#372,#399,.T.);
#320=EDGE_CURVE('',#372,#352,#60,.T.);
#321=EDGE_CURVE('',#372,#373,#400,.T.);
#322=EDGE_CURVE('',#373,#353,#61,.T.);
#323=EDGE_CURVE('',#373,#374,#401,.T.);
#324=EDGE_CURVE('',#374,#354,#62,.T.);
#325=EDGE_CURVE('',#374,#375,#402,.T.);
#326=EDGE_CURVE('',#375,#355,#63,.T.);
#327=EDGE_CURVE('',#375,#358,#403,.T.);
#328=EDGE_CURVE('',#376,#376,#404,.T.);
#329=EDGE_CURVE('',#377,#377,#405,.T.);
#330=EDGE_CURVE('',#378,#378,#406,.T.);
#331=EDGE_CURVE('',#379,#379,#407,.T.);
#332=VERTEX_POINT('',#748);
#333=VERTEX_POINT('',#750);
#334=VERTEX_POINT('',#753);
#335=VERTEX_POINT('',#755);
#336=VERTEX_POINT('',#758);
#337=VERTEX_POINT('',#759);
#338=VERTEX_POINT('',#761);
#339=VERTEX_POINT('',#763);
#340=VERTEX_POINT('',#765);
#341=VERTEX_POINT('',#767);
#342=VERTEX_POINT('',#769);
#343=VERTEX_POINT('',#771);
#344=VERTEX_POINT('',#773);
#345=VERTEX_POINT('',#775);
#346=VERTEX_POINT('',#777);
#347=VERTEX_POINT('',#779);
#348=VERTEX_POINT('',#781);
#349=VERTEX_POINT('',#783);
#350=VERTEX_POINT('',#785);
#351=VERTEX_POINT('',#787);
#352=VERTEX_POINT('',#789);
#353=VERTEX_POINT('',#791);
#354=VERTEX_POINT('',#793);
#355=VERTEX_POINT('',#795);
#356=VERTEX_POINT('',#799);
#357=VERTEX_POINT('',#800);
#358=VERTEX_POINT('',#805);
#359=VERTEX_POINT('',#809);
#360=VERTEX_POINT('',#813);
#361=VERTEX_POINT('',#817);
#362=VERTEX_POINT('',#821);
#363=VERTEX_POINT('',#825);
#364=VERTEX_POINT('',#829);
#365=VERTEX_POINT('',#833);
#366=VERTEX_POINT('',#837);
#367=VERTEX_POINT('',#841);
#368=VERTEX_POINT('',#845);
#369=VERTEX_POINT('',#849);
#370=VERTEX_POINT('',#853);
#371=VERTEX_POINT('',#857);
#372=VERTEX_POINT('',#861);
#373=VERTEX_POINT('',#865);
#374=VERTEX_POINT('',#869);
#375=VERTEX_POINT('',#873);
#376=VERTEX_POINT('',#879);
#377=VERTEX_POINT('',#882);
#378=VERTEX_POINT('',#886);
#379=VERTEX_POINT('',#889);
#380=CIRCLE('',#530,0.001237);
#381=CIRCLE('',#531,0.001437);
#382=CIRCLE('',#533,0.00135975);
#383=CIRCLE('',#534,0.00145975);
#384=CIRCLE('',#537,0.00499682227153288);
#385=CIRCLE('',#539,0.00480636282395593);
#386=CIRCLE('',#541,0.00497132100830927);
#387=CIRCLE('',#543,0.00497132100830927);
#388=CIRCLE('',#545,0.00499682227153288);
#389=CIRCLE('',#547,0.00480636282395593);
#390=CIRCLE('',#549,0.00499682227153288);
#391=CIRCLE('',#551,0.00497132100830927);
#392=CIRCLE('',#553,0.00497132100830927);
#393=CIRCLE('',#555,0.00499682227153288);
#394=CIRCLE('',#557,0.00480636282395593);
#395=CIRCLE('',#559,0.00499682227153288);
#396=CIRCLE('',#561,0.00497132100830927);
#397=CIRCLE('',#563,0.00497132100830927);
#398=CIRCLE('',#565,0.00499682227153288);
#399=CIRCLE('',#567,0.00480636282395593);
#400=CIRCLE('',#569,0.00499682227153288);
#401=CIRCLE('',#571,0.00497132100830927);
#402=CIRCLE('',#573,0.00497132100830927);
#403=CIRCLE('',#575,0.00499682227153288);
#404=CIRCLE('',#577,0.001437);
#405=CIRCLE('',#579,0.00135975);
#406=CIRCLE('',#582,0.0028);
#407=CIRCLE('',#584,0.0028);
#408=EDGE_LOOP('',(#128));
#409=EDGE_LOOP('',(#129));
#410=EDGE_LOOP('',(#130));
#411=EDGE_LOOP('',(#131));
#412=EDGE_LOOP('',(#132,#133,#134,#135,#136,#137,#138,#139,#140,#141,#142,
#143,#144,#145,#146,#147,#148,#149,#150,#151));
#413=EDGE_LOOP('',(#152,#153,#154,#155));
#414=EDGE_LOOP('',(#156,#157,#158,#159));
#415=EDGE_LOOP('',(#160,#161,#162,#163));
#416=EDGE_LOOP('',(#164,#165,#166,#167));
#417=EDGE_LOOP('',(#168,#169,#170,#171));
#418=EDGE_LOOP('',(#172,#173,#174,#175));
#419=EDGE_LOOP('',(#176,#177,#178,#179));
#420=EDGE_LOOP('',(#180,#181,#182,#183));
#421=EDGE_LOOP('',(#184,#185,#186,#187));
#422=EDGE_LOOP('',(#188,#189,#190,#191));
#423=EDGE_LOOP('',(#192,#193,#194,#195));
#424=EDGE_LOOP('',(#196,#197,#198,#199));
#425=EDGE_LOOP('',(#200,#201,#202,#203));
#426=EDGE_LOOP('',(#204,#205,#206,#207));
#427=EDGE_LOOP('',(#208,#209,#210,#211));
#428=EDGE_LOOP('',(#212,#213,#214,#215));
#429=EDGE_LOOP('',(#216,#217,#218,#219));
#430=EDGE_LOOP('',(#220,#221,#222,#223));
#431=EDGE_LOOP('',(#224,#225,#226,#227));
#432=EDGE_LOOP('',(#228,#229,#230,#231));
#433=EDGE_LOOP('',(#232));
#434=EDGE_LOOP('',(#233));
#435=EDGE_LOOP('',(#234));
#436=EDGE_LOOP('',(#235));
#437=EDGE_LOOP('',(#236));
#438=EDGE_LOOP('',(#237));
#439=EDGE_LOOP('',(#238));
#440=EDGE_LOOP('',(#239));
#441=EDGE_LOOP('',(#240));
#442=EDGE_LOOP('',(#241));
#443=EDGE_LOOP('',(#242));
#444=EDGE_LOOP('',(#243,#244,#245,#246,#247,#248,#249,#250,#251,#252,#253,
#254,#255,#256,#257,#258,#259,#260,#261,#262));
#445=EDGE_LOOP('',(#263));
#446=FACE_BOUND('',#408,.T.);
#447=FACE_BOUND('',#409,.T.);
#448=FACE_BOUND('',#410,.T.);
#449=FACE_BOUND('',#411,.T.);
#450=FACE_BOUND('',#412,.T.);
#451=FACE_BOUND('',#413,.T.);
#452=FACE_BOUND('',#414,.T.);
#453=FACE_BOUND('',#415,.T.);
#454=FACE_BOUND('',#416,.T.);
#455=FACE_BOUND('',#417,.T.);
#456=FACE_BOUND('',#418,.T.);
#457=FACE_BOUND('',#419,.T.);
#458=FACE_BOUND('',#420,.T.);
#459=FACE_BOUND('',#421,.T.);
#460=FACE_BOUND('',#422,.T.);
#461=FACE_BOUND('',#423,.T.);
#462=FACE_BOUND('',#424,.T.);
#463=FACE_BOUND('',#425,.T.);
#464=FACE_BOUND('',#426,.T.);
#465=FACE_BOUND('',#427,.T.);
#466=FACE_BOUND('',#428,.T.);
#467=FACE_BOUND('',#429,.T.);
#468=FACE_BOUND('',#430,.T.);
#469=FACE_BOUND('',#431,.T.);
#470=FACE_BOUND('',#432,.T.);
#471=FACE_BOUND('',#433,.T.);
#472=FACE_BOUND('',#434,.T.);
#473=FACE_BOUND('',#435,.T.);
#474=FACE_BOUND('',#436,.T.);
#475=FACE_BOUND('',#437,.T.);
#476=FACE_BOUND('',#438,.T.);
#477=FACE_BOUND('',#439,.T.);
#478=FACE_BOUND('',#440,.T.);
#479=FACE_BOUND('',#441,.T.);
#480=FACE_BOUND('',#442,.T.);
#481=FACE_BOUND('',#443,.T.);
#482=FACE_BOUND('',#444,.T.);
#483=FACE_BOUND('',#445,.T.);
#484=CONICAL_SURFACE('',#529,0.001237,0.78539816339745);
#485=CONICAL_SURFACE('',#578,0.00135975,0.299693086680254);
#486=ADVANCED_FACE('',(#446,#447),#484,.T.);
#487=ADVANCED_FACE('',(#448,#449),#127,.F.);
#488=ADVANCED_FACE('',(#450),#104,.F.);
#489=ADVANCED_FACE('',(#451),#105,.T.);
#490=ADVANCED_FACE('',(#452),#106,.T.);
#491=ADVANCED_FACE('',(#453),#107,.T.);
#492=ADVANCED_FACE('',(#454),#108,.T.);
#493=ADVANCED_FACE('',(#455),#109,.T.);
#494=ADVANCED_FACE('',(#456),#110,.T.);
#495=ADVANCED_FACE('',(#457),#111,.T.);
#496=ADVANCED_FACE('',(#458),#112,.T.);
#497=ADVANCED_FACE('',(#459),#113,.T.);
#498=ADVANCED_FACE('',(#460),#114,.T.);
#499=ADVANCED_FACE('',(#461),#115,.T.);
#500=ADVANCED_FACE('',(#462),#116,.T.);
#501=ADVANCED_FACE('',(#463),#117,.T.);
#502=ADVANCED_FACE('',(#464),#118,.T.);
#503=ADVANCED_FACE('',(#465),#119,.T.);
#504=ADVANCED_FACE('',(#466),#120,.T.);
#505=ADVANCED_FACE('',(#467),#121,.T.);
#506=ADVANCED_FACE('',(#468),#122,.T.);
#507=ADVANCED_FACE('',(#469),#123,.T.);
#508=ADVANCED_FACE('',(#470),#124,.T.);
#509=ADVANCED_FACE('',(#471,#472),#21,.T.);
#510=ADVANCED_FACE('',(#473,#474),#485,.T.);
#511=ADVANCED_FACE('',(#475,#476),#22,.T.);
#512=ADVANCED_FACE('',(#477,#478),#125,.F.);
#513=ADVANCED_FACE('',(#479,#480),#23,.T.);
#514=ADVANCED_FACE('',(#481),#126,.F.);
#515=ADVANCED_FACE('',(#482,#483),#20,.T.);
#516=CLOSED_SHELL('',(#486,#487,#488,#489,#490,#491,#492,#493,#494,#495,
#496,#497,#498,#499,#500,#501,#502,#503,#504,#505,#506,#507,#508,#509,#510,
#511,#512,#513,#514,#515));
#517=STYLED_ITEM('',(#518),#525);
#518=PRESENTATION_STYLE_ASSIGNMENT((#519));
#519=SURFACE_STYLE_USAGE(.BOTH.,#520);
#520=SURFACE_SIDE_STYLE('',(#521));
#521=SURFACE_STYLE_FILL_AREA(#522);
#522=FILL_AREA_STYLE('',(#523));
#523=FILL_AREA_STYLE_COLOUR('',#524);
#524=COLOUR_RGB('',0.6,0.6,0.6);
#525=MANIFOLD_SOLID_BREP('screw_metal_M3x8',#516);
#526=SHAPE_DEFINITION_REPRESENTATION(#898,#527);
#527=SHAPE_REPRESENTATION('screw_metal_M3x8',(#528),#893);
#528=AXIS2_PLACEMENT_3D('',#745,#587,#588);
#529=AXIS2_PLACEMENT_3D('',#746,#589,#590);
#530=AXIS2_PLACEMENT_3D('',#747,#591,#592);
#531=AXIS2_PLACEMENT_3D('',#749,#593,#594);
#532=AXIS2_PLACEMENT_3D('',#751,#595,#596);
#533=AXIS2_PLACEMENT_3D('',#752,#597,#598);
#534=AXIS2_PLACEMENT_3D('',#754,#599,#600);
#535=AXIS2_PLACEMENT_3D('',#756,#601,#602);
#536=AXIS2_PLACEMENT_3D('',#797,#623,#624);
#537=AXIS2_PLACEMENT_3D('',#798,#625,#626);
#538=AXIS2_PLACEMENT_3D('',#803,#629,#630);
#539=AXIS2_PLACEMENT_3D('',#804,#631,#632);
#540=AXIS2_PLACEMENT_3D('',#807,#634,#635);
#541=AXIS2_PLACEMENT_3D('',#808,#636,#637);
#542=AXIS2_PLACEMENT_3D('',#811,#639,#640);
#543=AXIS2_PLACEMENT_3D('',#812,#641,#642);
#544=AXIS2_PLACEMENT_3D('',#815,#644,#645);
#545=AXIS2_PLACEMENT_3D('',#816,#646,#647);
#546=AXIS2_PLACEMENT_3D('',#819,#649,#650);
#547=AXIS2_PLACEMENT_3D('',#820,#651,#652);
#548=AXIS2_PLACEMENT_3D('',#823,#654,#655);
#549=AXIS2_PLACEMENT_3D('',#824,#656,#657);
#550=AXIS2_PLACEMENT_3D('',#827,#659,#660);
#551=AXIS2_PLACEMENT_3D('',#828,#661,#662);
#552=AXIS2_PLACEMENT_3D('',#831,#664,#665);
#553=AXIS2_PLACEMENT_3D('',#832,#666,#667);
#554=AXIS2_PLACEMENT_3D('',#835,#669,#670);
#555=AXIS2_PLACEMENT_3D('',#836,#671,#672);
#556=AXIS2_PLACEMENT_3D('',#839,#674,#675);
#557=AXIS2_PLACEMENT_3D('',#840,#676,#677);
#558=AXIS2_PLACEMENT_3D('',#843,#679,#680);
#559=AXIS2_PLACEMENT_3D('',#844,#681,#682);
#560=AXIS2_PLACEMENT_3D('',#847,#684,#685);
#561=AXIS2_PLACEMENT_3D('',#848,#686,#687);
#562=AXIS2_PLACEMENT_3D('',#851,#689,#690);
#563=AXIS2_PLACEMENT_3D('',#852,#691,#692);
#564=AXIS2_PLACEMENT_3D('',#855,#694,#695);
#565=AXIS2_PLACEMENT_3D('',#856,#696,#697);
#566=AXIS2_PLACEMENT_3D('',#859,#699,#700);
#567=AXIS2_PLACEMENT_3D('',#860,#701,#702);
#568=AXIS2_PLACEMENT_3D('',#863,#704,#705);
#569=AXIS2_PLACEMENT_3D('',#864,#706,#707);
#570=AXIS2_PLACEMENT_3D('',#867,#709,#710);
#571=AXIS2_PLACEMENT_3D('',#868,#711,#712);
#572=AXIS2_PLACEMENT_3D('',#871,#714,#715);
#573=AXIS2_PLACEMENT_3D('',#872,#716,#717);
#574=AXIS2_PLACEMENT_3D('',#875,#719,#720);
#575=AXIS2_PLACEMENT_3D('',#876,#721,#722);
#576=AXIS2_PLACEMENT_3D('',#877,#723,#724);
#577=AXIS2_PLACEMENT_3D('',#878,#725,#726);
#578=AXIS2_PLACEMENT_3D('',#880,#727,#728);
#579=AXIS2_PLACEMENT_3D('',#881,#729,#730);
#580=AXIS2_PLACEMENT_3D('',#883,#731,#732);
#581=AXIS2_PLACEMENT_3D('',#884,#733,#734);
#582=AXIS2_PLACEMENT_3D('',#885,#735,#736);
#583=AXIS2_PLACEMENT_3D('',#887,#737,#738);
#584=AXIS2_PLACEMENT_3D('',#888,#739,#740);
#585=AXIS2_PLACEMENT_3D('',#890,#741,#742);
#586=AXIS2_PLACEMENT_3D('',#891,#743,#744);
#587=DIRECTION('',(0.,0.,1.));
#588=DIRECTION('',(1.,0.,0.));
#589=DIRECTION('',(0.,0.,1.));
#590=DIRECTION('',(1.,0.,0.));
#591=DIRECTION('',(0.,0.,-1.));
#592=DIRECTION('',(1.,0.,0.));
#593=DIRECTION('',(0.,0.,1.));
#594=DIRECTION('',(1.,0.,0.));
#595=DIRECTION('',(0.,0.,1.));
#596=DIRECTION('',(1.,0.,0.));
#597=DIRECTION('',(0.,0.,-1.));
#598=DIRECTION('',(1.,0.,0.));
#599=DIRECTION('',(0.,0.,1.));
#600=DIRECTION('',(1.,0.,0.));
#601=DIRECTION('',(0.,0.,-1.));
#602=DIRECTION('',(-1.,0.,0.));
#603=DIRECTION('',(1.15648231731786E-15,1.,0.));
#604=DIRECTION('',(-1.,-1.66718705166238E-15,0.));
#605=DIRECTION('',(-0.923879532511286,0.382683432365091,0.));
#606=DIRECTION('',(-0.382683432365088,0.923879532511288,0.));
#607=DIRECTION('',(8.02719691541147E-16,1.,0.));
#608=DIRECTION('',(-1.,0.,0.));
#609=DIRECTION('',(8.02719691541147E-16,-1.,4.93981348640706E-16));
#610=DIRECTION('',(-0.382683432365088,-0.923879532511288,4.93981348640706E-16));
#611=DIRECTION('',(-0.923879532511286,-0.382683432365091,0.));
#612=DIRECTION('',(-1.,5.43379483504776E-15,0.));
#613=DIRECTION('',(2.31296463463571E-15,-1.,0.));
#614=DIRECTION('',(1.,3.08738342900441E-16,0.));
#615=DIRECTION('',(0.923879532511286,-0.382683432365091,0.));
#616=DIRECTION('',(0.382683432365088,-0.923879532511288,0.));
#617=DIRECTION('',(-4.93981348640706E-16,-1.,0.));
#618=DIRECTION('',(1.,0.,0.));
#619=DIRECTION('',(-4.93981348640706E-16,1.,0.));
#620=DIRECTION('',(0.382683432365089,0.923879532511287,0.));
#621=DIRECTION('',(0.923879532511286,0.382683432365091,0.));
#622=DIRECTION('',(1.,-2.6551497489438E-15,0.));
#623=DIRECTION('',(-4.40663967204479E-16,-0.997328534337083,0.0730465235110171));
#624=DIRECTION('',(-6.16297582203916E-33,-0.0730465235110171,-0.997328534337083));
#625=DIRECTION('',(-4.40663967204479E-16,-0.997328534337083,0.0730465235110171));
#626=DIRECTION('',(-6.16297582203916E-33,-0.0730465235110171,-0.997328534337083));
#627=DIRECTION('',(-0.359094427819397,-0.0681744104744474,-0.930807951011121));
#628=DIRECTION('',(-0.528979636974056,-0.0619898012078971,-0.846367419158489));
#629=DIRECTION('',(-0.847998304005088,0.,0.52999894000318));
#630=DIRECTION('',(0.52999894000318,0.,0.847998304005088));
#631=DIRECTION('',(-0.847998304005088,0.,0.52999894000318));
#632=DIRECTION('',(0.52999894000318,0.,0.847998304005088));
#633=DIRECTION('',(-0.528979636974056,0.0619898012078971,-0.846367419158489));
#634=DIRECTION('',(-0.374110743758011,-0.903183231410078,0.210478506989376));
#635=DIRECTION('',(0.923879532511287,-0.382683432365089,0.));
#636=DIRECTION('',(-0.374110743758011,-0.903183231410078,0.210478506989376));
#637=DIRECTION('',(0.923879532511287,-0.382683432365089,0.));
#638=DIRECTION('',(-0.160484517424184,-0.160484517424184,-0.973904224928845));
#639=DIRECTION('',(-0.903183231410078,-0.374110743758012,0.210478506989376));
#640=DIRECTION('',(0.38268343236509,-0.923879532511287,0.));
#641=DIRECTION('',(-0.903183231410078,-0.374110743758012,0.210478506989376));
#642=DIRECTION('',(0.38268343236509,-0.923879532511287,0.));
#643=DIRECTION('',(-0.0681744104744472,-0.359094427819397,-0.930807951011121));
#644=DIRECTION('',(-0.997328534337083,-3.67219972670399E-16,0.0730465235110168));
#645=DIRECTION('',(0.0730465235110168,0.,0.997328534337083));
#646=DIRECTION('',(-0.997328534337083,-3.67219972670399E-16,0.0730465235110168));
#647=DIRECTION('',(0.0730465235110168,0.,0.997328534337083));
#648=DIRECTION('',(-0.061989801207897,-0.528979636974056,-0.846367419158489));
#649=DIRECTION('',(0.,-0.847998304005088,0.52999894000318));
#650=DIRECTION('',(0.,-0.52999894000318,-0.847998304005088));
#651=DIRECTION('',(0.,-0.847998304005088,0.52999894000318));
#652=DIRECTION('',(0.,-0.52999894000318,-0.847998304005088));
#653=DIRECTION('',(0.061989801207897,-0.528979636974056,-0.846367419158489));
#654=DIRECTION('',(0.997328534337083,-3.67219972670399E-16,0.0730465235110168));
#655=DIRECTION('',(0.0730465235110168,0.,-0.997328534337083));
#656=DIRECTION('',(0.997328534337083,-3.67219972670399E-16,0.0730465235110168));
#657=DIRECTION('',(0.0730465235110168,0.,-0.997328534337083));
#658=DIRECTION('',(0.0681744104744472,-0.359094427819397,-0.930807951011121));
#659=DIRECTION('',(0.903183231410078,-0.374110743758012,0.210478506989376));
#660=DIRECTION('',(0.38268343236509,0.923879532511287,0.));
#661=DIRECTION('',(0.903183231410078,-0.374110743758012,0.210478506989376));
#662=DIRECTION('',(0.38268343236509,0.923879532511287,0.));
#663=DIRECTION('',(0.160484517424184,-0.160484517424184,-0.973904224928845));
#664=DIRECTION('',(0.374110743758012,-0.903183231410078,0.210478506989376));
#665=DIRECTION('',(0.923879532511287,0.38268343236509,0.));
#666=DIRECTION('',(0.374110743758012,-0.903183231410078,0.210478506989376));
#667=DIRECTION('',(0.923879532511287,0.38268343236509,0.));
#668=DIRECTION('',(0.359094427819397,-0.0681744104744474,-0.930807951011121));
#669=DIRECTION('',(1.2852699043464E-15,-0.997328534337083,0.0730465235110174));
#670=DIRECTION('',(1.23259516440783E-32,-0.0730465235110174,-0.997328534337083));
#671=DIRECTION('',(1.2852699043464E-15,-0.997328534337083,0.0730465235110174));
#672=DIRECTION('',(1.23259516440783E-32,-0.0730465235110174,-0.997328534337083));
#673=DIRECTION('',(0.528979636974056,-0.0619898012078969,-0.846367419158489));
#674=DIRECTION('',(0.847998304005088,0.,0.52999894000318));
#675=DIRECTION('',(0.52999894000318,0.,-0.847998304005088));
#676=DIRECTION('',(0.847998304005088,0.,0.52999894000318));
#677=DIRECTION('',(0.52999894000318,0.,-0.847998304005088));
#678=DIRECTION('',(0.528979636974056,0.0619898012078972,-0.846367419158489));
#679=DIRECTION('',(7.34439945340798E-17,0.997328534337083,0.0730465235110169));
#680=DIRECTION('',(-7.70371977754895E-34,-0.0730465235110169,0.997328534337083));
#681=DIRECTION('',(7.34439945340798E-17,0.997328534337083,0.0730465235110169));
#682=DIRECTION('',(-7.70371977754895E-34,-0.0730465235110169,0.997328534337083));
#683=DIRECTION('',(0.359094427819397,0.0681744104744474,-0.930807951011121));
#684=DIRECTION('',(0.374110743758012,0.903183231410078,0.210478506989376));
#685=DIRECTION('',(-0.923879532511287,0.38268343236509,0.));
#686=DIRECTION('',(0.374110743758012,0.903183231410078,0.210478506989376));
#687=DIRECTION('',(-0.923879532511287,0.38268343236509,0.));
#688=DIRECTION('',(0.160484517424184,0.160484517424184,-0.973904224928845));
#689=DIRECTION('',(0.903183231410078,0.374110743758012,0.210478506989376));
#690=DIRECTION('',(-0.38268343236509,0.923879532511287,0.));
#691=DIRECTION('',(0.903183231410078,0.374110743758012,0.210478506989376));
#692=DIRECTION('',(-0.38268343236509,0.923879532511287,0.));
#693=DIRECTION('',(0.0681744104744472,0.359094427819397,-0.930807951011121));
#694=DIRECTION('',(0.997328534337083,1.1016599180112E-16,0.0730465235110167));
#695=DIRECTION('',(0.0730465235110167,0.,-0.997328534337083));
#696=DIRECTION('',(0.997328534337083,1.1016599180112E-16,0.0730465235110167));
#697=DIRECTION('',(0.0730465235110167,0.,-0.997328534337083));
#698=DIRECTION('',(0.061989801207897,0.528979636974056,-0.846367419158489));
#699=DIRECTION('',(-2.6864653612175E-15,0.847998304005088,0.52999894000318));
#700=DIRECTION('',(0.,-0.52999894000318,0.847998304005088));
#701=DIRECTION('',(-2.6864653612175E-15,0.847998304005088,0.52999894000318));
#702=DIRECTION('',(0.,-0.52999894000318,0.847998304005088));
#703=DIRECTION('',(-0.061989801207897,0.528979636974056,-0.846367419158489));
#704=DIRECTION('',(-0.997328534337083,1.1016599180112E-16,0.0730465235110167));
#705=DIRECTION('',(0.0730465235110167,0.,0.997328534337083));
#706=DIRECTION('',(-0.997328534337083,1.1016599180112E-16,0.0730465235110167));
#707=DIRECTION('',(0.0730465235110167,0.,0.997328534337083));
#708=DIRECTION('',(-0.0681744104744472,0.359094427819397,-0.930807951011121));
#709=DIRECTION('',(-0.903183231410078,0.374110743758012,0.210478506989376));
#710=DIRECTION('',(-0.38268343236509,-0.923879532511287,0.));
#711=DIRECTION('',(-0.903183231410078,0.374110743758012,0.210478506989376));
#712=DIRECTION('',(-0.38268343236509,-0.923879532511287,0.));
#713=DIRECTION('',(-0.160484517424184,0.160484517424184,-0.973904224928845));
#714=DIRECTION('',(-0.374110743758012,0.903183231410078,0.210478506989376));
#715=DIRECTION('',(-0.923879532511287,-0.38268343236509,0.));
#716=DIRECTION('',(-0.374110743758012,0.903183231410078,0.210478506989376));
#717=DIRECTION('',(-0.923879532511287,-0.38268343236509,0.));
#718=DIRECTION('',(-0.359094427819397,0.0681744104744474,-0.930807951011121));
#719=DIRECTION('',(-5.87551956272639E-16,0.997328534337083,0.0730465235110171));
#720=DIRECTION('',(6.16297582203916E-33,-0.0730465235110171,0.997328534337083));
#721=DIRECTION('',(-5.87551956272639E-16,0.997328534337083,0.0730465235110171));
#722=DIRECTION('',(6.16297582203916E-33,-0.0730465235110171,0.997328534337083));
#723=DIRECTION('',(0.,0.,-1.));
#724=DIRECTION('',(-1.,0.,0.));
#725=DIRECTION('',(0.,0.,-1.));
#726=DIRECTION('',(-1.,0.,0.));
#727=DIRECTION('',(0.,0.,-1.));
#728=DIRECTION('',(-1.,0.,0.));
#729=DIRECTION('',(0.,0.,-1.));
#730=DIRECTION('',(-1.,0.,0.));
#731=DIRECTION('',(0.,0.,-1.));
#732=DIRECTION('',(-1.,0.,0.));
#733=DIRECTION('',(0.,0.,1.));
#734=DIRECTION('',(1.,0.,0.));
#735=DIRECTION('',(0.,0.,-1.));
#736=DIRECTION('',(-1.,0.,0.));
#737=DIRECTION('',(0.,0.,-1.));
#738=DIRECTION('',(-1.,0.,0.));
#739=DIRECTION('',(0.,0.,-1.));
#740=DIRECTION('',(-1.,0.,0.));
#741=DIRECTION('',(0.,0.,1.));
#742=DIRECTION('',(1.,0.,0.));
#743=DIRECTION('',(0.,1.22464679914735E-16,-1.));
#744=DIRECTION('',(0.,1.,8.88178419700125E-17));
#745=CARTESIAN_POINT('',(0.,0.,0.));
#746=CARTESIAN_POINT('',(0.,0.,-0.008));
#747=CARTESIAN_POINT('',(0.,0.,-0.008));
#748=CARTESIAN_POINT('',(0.001237,0.,-0.008));
#749=CARTESIAN_POINT('',(0.,0.,-0.0078));
#750=CARTESIAN_POINT('',(0.001437,0.,-0.0078));
#751=CARTESIAN_POINT('',(0.,0.,-0.0001));
#752=CARTESIAN_POINT('',(0.,0.,-0.0001));
#753=CARTESIAN_POINT('',(0.00135975,0.,-0.0001));
#754=CARTESIAN_POINT('',(0.,0.,0.));
#755=CARTESIAN_POINT('',(0.00145975,0.,0.));
#756=CARTESIAN_POINT('',(-5.484568542386E-20,-8.56963834747812E-21,0.00048));
#757=CARTESIAN_POINT('',(0.0003,2.34375E-5,0.00048));
#758=CARTESIAN_POINT('',(0.0003,-4.6875E-5,0.00048));
#759=CARTESIAN_POINT('',(0.0003,4.6875E-5,0.00048));
#760=CARTESIAN_POINT('',(0.000245129397320925,4.6875E-5,0.00048));
#761=CARTESIAN_POINT('',(0.000190258794641851,4.6875E-5,0.00048));
#762=CARTESIAN_POINT('',(0.000139564967890095,6.78730705691693E-5,0.00048));
#763=CARTESIAN_POINT('',(8.88711411383389E-5,8.88711411383388E-5,0.00048));
#764=CARTESIAN_POINT('',(6.78730705691696E-5,0.000139564967890095,0.00048));
#765=CARTESIAN_POINT('',(4.6875E-5,0.000190258794641851,0.00048));
#766=CARTESIAN_POINT('',(4.6875E-5,0.000245129397320925,0.00048));
#767=CARTESIAN_POINT('',(4.6875E-5,0.0003,0.00048));
#768=CARTESIAN_POINT('',(2.34375000000003E-5,0.0003,0.00048));
#769=CARTESIAN_POINT('',(-4.6875E-5,0.0003,0.00048));
#770=CARTESIAN_POINT('',(-4.6875E-5,0.000245129397320925,0.00048));
#771=CARTESIAN_POINT('',(-4.6875E-5,0.000190258794641851,0.00048));
#772=CARTESIAN_POINT('',(-6.78730705691696E-5,0.000139564967890095,0.00048));
#773=CARTESIAN_POINT('',(-8.88711411383389E-5,8.88711411383388E-5,0.00048));
#774=CARTESIAN_POINT('',(-0.000139564967890095,6.78730705691693E-5,0.00048));
#775=CARTESIAN_POINT('',(-0.000190258794641851,4.6875E-5,0.00048));
#776=CARTESIAN_POINT('',(-0.000245129397320925,4.6875E-5,0.00048));
#777=CARTESIAN_POINT('',(-0.0003,4.6875E-5,0.00048));
#778=CARTESIAN_POINT('',(-0.0003,2.34375E-5,0.00048));
#779=CARTESIAN_POINT('',(-0.0003,-4.6875E-5,0.00048));
#780=CARTESIAN_POINT('',(-0.000245129397320925,-4.6875E-5,0.00048));
#781=CARTESIAN_POINT('',(-0.000190258794641851,-4.6875E-5,0.00048));
#782=CARTESIAN_POINT('',(-0.000139564967890095,-6.78730705691694E-5,0.00048));
#783=CARTESIAN_POINT('',(-8.88711411383389E-5,-8.88711411383388E-5,0.00048));
#784=CARTESIAN_POINT('',(-6.78730705691696E-5,-0.000139564967890095,0.00048));
#785=CARTESIAN_POINT('',(-4.6875E-5,-0.000190258794641851,0.00048));
#786=CARTESIAN_POINT('',(-4.6875E-5,-0.000245129397320925,0.00048));
#787=CARTESIAN_POINT('',(-4.6875E-5,-0.0003,0.00048));
#788=CARTESIAN_POINT('',(-2.34375E-5,-0.0003,0.00048));
#789=CARTESIAN_POINT('',(4.6875E-5,-0.0003,0.00048));
#790=CARTESIAN_POINT('',(4.6875E-5,-0.000245129397320925,0.00048));
#791=CARTESIAN_POINT('',(4.6875E-5,-0.000190258794641851,0.00048));
#792=CARTESIAN_POINT('',(6.78730705691696E-5,-0.000139564967890095,0.00048));
#793=CARTESIAN_POINT('',(8.88711411383389E-5,-8.88711411383388E-5,0.00048));
#794=CARTESIAN_POINT('',(0.000139564967890095,-6.78730705691694E-5,0.00048));
#795=CARTESIAN_POINT('',(0.000190258794641851,-4.6875E-5,0.00048));
#796=CARTESIAN_POINT('',(0.000245129397320925,-4.6875E-5,0.00048));
#797=CARTESIAN_POINT('',(0.0009,0.0001171875,0.00144));
#798=CARTESIAN_POINT('',(-7.85410888516985E-20,-0.000177757372645255,-0.00258698066118321));
#799=CARTESIAN_POINT('',(0.00137717516886251,0.000173106465101076,0.00220348027018002));
#800=CARTESIAN_POINT('',(0.000898296138673795,0.000181296547046528,0.0023153021890086));
#801=CARTESIAN_POINT('',(0.000560615161207205,0.0001171875,0.00144));
#802=CARTESIAN_POINT('',(0.0009,0.0001171875,0.00144));
#803=CARTESIAN_POINT('',(0.0009,0.0001171875,0.00144));
#804=CARTESIAN_POINT('',(-0.0011685393258427,0.,-0.00186966292134832));
#805=CARTESIAN_POINT('',(0.00137717516886251,-0.000173106465101075,0.00220348027018002));
#806=CARTESIAN_POINT('',(0.0009,-0.0001171875,0.00144));
#807=CARTESIAN_POINT('',(0.000560615161207205,0.0001171875,0.00144));
#808=CARTESIAN_POINT('',(-0.000200059172662559,-0.000482985567919092,-0.00248744467601074));
#809=CARTESIAN_POINT('',(0.000399968511137703,0.000399968511137702,0.00236790200992296));
#810=CARTESIAN_POINT('',(0.0002470644550019,0.000247064455001899,0.00144));
#811=CARTESIAN_POINT('',(0.0001171875,0.000560615161207205,0.00144));
#812=CARTESIAN_POINT('',(-0.000482985567919092,-0.00020005917266256,-0.00248744467601074));
#813=CARTESIAN_POINT('',(0.000181296547046528,0.000898296138673795,0.0023153021890086));
#814=CARTESIAN_POINT('',(0.0001171875,0.000560615161207205,0.00144));
#815=CARTESIAN_POINT('',(0.0001171875,0.0009,0.00144));
#816=CARTESIAN_POINT('',(-0.000177757372645254,-6.54509073764149E-20,-0.00258698066118321));
#817=CARTESIAN_POINT('',(0.000173106465101076,0.00137717516886251,0.00220348027018002));
#818=CARTESIAN_POINT('',(0.0001171875,0.0009,0.00144));
#819=CARTESIAN_POINT('',(0.0001171875,0.0009,0.00144));
#820=CARTESIAN_POINT('',(0.,-0.0011685393258427,-0.00186966292134832));
#821=CARTESIAN_POINT('',(-0.000173106465101076,0.00137717516886251,0.00220348027018002));
#822=CARTESIAN_POINT('',(-0.0001171875,0.0009,0.00144));
#823=CARTESIAN_POINT('',(-0.0001171875,0.0009,0.00144));
#824=CARTESIAN_POINT('',(0.000177757372645254,-6.54509073764149E-20,-0.00258698066118321));
#825=CARTESIAN_POINT('',(-0.000181296547046529,0.000898296138673794,0.0023153021890086));
#826=CARTESIAN_POINT('',(-0.0001171875,0.000560615161207205,0.00144));
#827=CARTESIAN_POINT('',(-0.0001171875,0.000560615161207205,0.00144));
#828=CARTESIAN_POINT('',(0.000482985567919092,-0.00020005917266256,-0.00248744467601074));
#829=CARTESIAN_POINT('',(-0.000399968511137703,0.000399968511137703,0.00236790200992296));
#830=CARTESIAN_POINT('',(-0.0002470644550019,0.000247064455001899,0.00144));
#831=CARTESIAN_POINT('',(-0.000560615161207205,0.0001171875,0.00144));
#832=CARTESIAN_POINT('',(0.000200059172662559,-0.000482985567919092,-0.00248744467601074));
#833=CARTESIAN_POINT('',(-0.000898296138673795,0.000181296547046528,0.0023153021890086));
#834=CARTESIAN_POINT('',(-0.000560615161207205,0.0001171875,0.00144));
#835=CARTESIAN_POINT('',(-0.0009,0.0001171875,0.00144));
#836=CARTESIAN_POINT('',(2.29078175817455E-19,-0.000177757372645256,-0.00258698066118321));
#837=CARTESIAN_POINT('',(-0.00137717516886251,0.000173106465101075,0.00220348027018002));
#838=CARTESIAN_POINT('',(-0.0009,0.0001171875,0.00144));
#839=CARTESIAN_POINT('',(-0.0009,0.0001171875,0.00144));
#840=CARTESIAN_POINT('',(0.0011685393258427,0.,-0.00186966292134832));
#841=CARTESIAN_POINT('',(-0.00137717516886251,-0.000173106465101076,0.00220348027018002));
#842=CARTESIAN_POINT('',(-0.0009,-0.0001171875,0.00144));
#843=CARTESIAN_POINT('',(-0.0009,-0.0001171875,0.00144));
#844=CARTESIAN_POINT('',(1.30901814752831E-20,0.000177757372645255,-0.00258698066118321));
#845=CARTESIAN_POINT('',(-0.000898296138673795,-0.000181296547046528,0.0023153021890086));
#846=CARTESIAN_POINT('',(-0.000560615161207205,-0.0001171875,0.00144));
#847=CARTESIAN_POINT('',(-0.000560615161207205,-0.0001171875,0.00144));
#848=CARTESIAN_POINT('',(0.000200059172662559,0.000482985567919092,-0.00248744467601074));
#849=CARTESIAN_POINT('',(-0.000399968511137703,-0.000399968511137702,0.00236790200992296));
#850=CARTESIAN_POINT('',(-0.0002470644550019,-0.000247064455001899,0.00144));
#851=CARTESIAN_POINT('',(-0.0001171875,-0.000560615161207205,0.00144));
#852=CARTESIAN_POINT('',(0.000482985567919092,0.00020005917266256,-0.00248744467601074));
#853=CARTESIAN_POINT('',(-0.000181296547046528,-0.000898296138673795,0.0023153021890086));
#854=CARTESIAN_POINT('',(-0.0001171875,-0.000560615161207205,0.00144));
#855=CARTESIAN_POINT('',(-0.0001171875,-0.0009,0.00144));
#856=CARTESIAN_POINT('',(0.000177757372645254,1.96352722129245E-20,-0.00258698066118321));
#857=CARTESIAN_POINT('',(-0.000173106465101076,-0.00137717516886251,0.00220348027018002));
#858=CARTESIAN_POINT('',(-0.0001171875,-0.0009,0.00144));
#859=CARTESIAN_POINT('',(-0.0001171875,-0.0009,0.00144));
#860=CARTESIAN_POINT('',(-3.70194186388139E-18,0.0011685393258427,-0.00186966292134832));
#861=CARTESIAN_POINT('',(0.000173106465101076,-0.00137717516886251,0.00220348027018002));
#862=CARTESIAN_POINT('',(0.0001171875,-0.0009,0.00144));
#863=CARTESIAN_POINT('',(0.0001171875,-0.0009,0.00144));
#864=CARTESIAN_POINT('',(-0.000177757372645254,1.96352722129245E-20,-0.00258698066118321));
#865=CARTESIAN_POINT('',(0.000181296547046528,-0.000898296138673795,0.0023153021890086));
#866=CARTESIAN_POINT('',(0.0001171875,-0.000560615161207205,0.00144));
#867=CARTESIAN_POINT('',(0.0001171875,-0.000560615161207205,0.00144));
#868=CARTESIAN_POINT('',(-0.000482985567919092,0.00020005917266256,-0.00248744467601074));
#869=CARTESIAN_POINT('',(0.000399968511137703,-0.000399968511137703,0.00236790200992296));
#870=CARTESIAN_POINT('',(0.0002470644550019,-0.000247064455001899,0.00144));
#871=CARTESIAN_POINT('',(0.000560615161207205,-0.0001171875,0.00144));
#872=CARTESIAN_POINT('',(-0.000200059172662559,0.000482985567919092,-0.00248744467601074));
#873=CARTESIAN_POINT('',(0.000898296138673795,-0.000181296547046528,0.0023153021890086));
#874=CARTESIAN_POINT('',(0.000560615161207205,-0.0001171875,0.00144));
#875=CARTESIAN_POINT('',(0.0009,-0.0001171875,0.00144));
#876=CARTESIAN_POINT('',(-1.04721451802265E-19,0.000177757372645255,-0.00258698066118321));
#877=CARTESIAN_POINT('',(0.,0.,0.));
#878=CARTESIAN_POINT('',(0.,0.,-0.001));
#879=CARTESIAN_POINT('',(-0.001437,0.,-0.001));
#880=CARTESIAN_POINT('',(0.,0.,-0.00075));
#881=CARTESIAN_POINT('',(0.,0.,-0.00075));
#882=CARTESIAN_POINT('',(-0.00135975,0.,-0.00075));
#883=CARTESIAN_POINT('',(0.,0.,0.));
#884=CARTESIAN_POINT('',(0.,0.0028,0.));
#885=CARTESIAN_POINT('',(0.,0.,0.));
#886=CARTESIAN_POINT('',(-0.0028,0.,0.));
#887=CARTESIAN_POINT('',(0.,0.,0.));
#888=CARTESIAN_POINT('',(0.,0.,0.00154246303544159));
#889=CARTESIAN_POINT('',(-0.0028,0.,0.00154246303544159));
#890=CARTESIAN_POINT('',(0.,0.001437,-0.008));
#891=CARTESIAN_POINT('',(0.,0.,-0.0026));
#892=MECHANICAL_DESIGN_GEOMETRIC_PRESENTATION_REPRESENTATION('',(#517),
#893);
#893=(
GEOMETRIC_REPRESENTATION_CONTEXT(3)
GLOBAL_UNCERTAINTY_ASSIGNED_CONTEXT((#894))
GLOBAL_UNIT_ASSIGNED_CONTEXT((#897,#896,#895))
REPRESENTATION_CONTEXT('screw_metal_M3x8','TOP_LEVEL_ASSEMBLY_PART')
);
#894=UNCERTAINTY_MEASURE_WITH_UNIT(LENGTH_MEASURE(5.E-6),#897,
'DISTANCE_ACCURACY_VALUE','Maximum Tolerance applied to model');
#895=(
NAMED_UNIT(*)
SI_UNIT($,.STERADIAN.)
SOLID_ANGLE_UNIT()
);
#896=(
NAMED_UNIT(*)
PLANE_ANGLE_UNIT()
SI_UNIT($,.RADIAN.)
);
#897=(
LENGTH_UNIT()
NAMED_UNIT(*)
SI_UNIT($,.METRE.)
);
#898=PRODUCT_DEFINITION_SHAPE('','',#899);
#899=PRODUCT_DEFINITION('','',#901,#900);
#900=PRODUCT_DEFINITION_CONTEXT('',#907,'design');
#901=PRODUCT_DEFINITION_FORMATION_WITH_SPECIFIED_SOURCE('','',#903,
 .NOT_KNOWN.);
#902=PRODUCT_RELATED_PRODUCT_CATEGORY('','',(#903));
#903=PRODUCT('screw_metal_M3x8','screw_metal_M3x8','screw_metal_M3x8',(#905));
#904=PRODUCT_CATEGORY('','');
#905=PRODUCT_CONTEXT('',#907,'mechanical');
#906=APPLICATION_PROTOCOL_DEFINITION('international standard',
'automotive_design',2010,#907);
#907=APPLICATION_CONTEXT(
'core data for automotive mechanical design processes');
ENDSEC;
END-ISO-10303-21;
