ISO-10303-21;
HEADER;
/* Generated by software containing ST-Developer
 * from STEP Tools, Inc. (www.steptools.com) 
 */
/* OPTION: using custom renumber hook */

FILE_DESCRIPTION(
/* description */ ('STEP AP214'),
/* implementation_level */ '2;1');

FILE_NAME(
/* name */ '654cf5797f9aa566be172170',
/* time_stamp */ '2023-11-09T15:06:34Z',
/* author */ (''),
/* organization */ (''),
/* preprocessor_version */ 'ST-DEVELOPER v19.4',
/* originating_system */ '  ',
/* authorisation */ '  ');

FILE_SCHEMA (('AUTOMOTIVE_DESIGN {1 0 10303 214 3 1 1}'));
ENDSEC;

DATA;
#10=PROPERTY_DEFINITION_REPRESENTATION(#14,#12);
#11=PROPERTY_DEFINITION_REPRESENTATION(#15,#13);
#12=REPRESENTATION('',(#16),#573);
#13=REPRESENTATION('',(#17),#573);
#14=PROPERTY_DEFINITION('pmi validation property','',#578);
#15=PROPERTY_DEFINITION('pmi validation property','',#578);
#16=VALUE_REPRESENTATION_ITEM('number of annotations',COUNT_MEASURE(0.));
#17=VALUE_REPRESENTATION_ITEM('number of views',COUNT_MEASURE(0.));
#18=SHAPE_REPRESENTATION_RELATIONSHIP('','',#365,#19);
#19=ADVANCED_BREP_SHAPE_REPRESENTATION('',(#363),#573);
#20=CYLINDRICAL_SURFACE('',#383,0.0015);
#21=CIRCLE('',#380,0.0015);
#22=CIRCLE('',#382,0.0015);
#23=ORIENTED_EDGE('',*,*,#111,.T.);
#24=ORIENTED_EDGE('',*,*,#112,.F.);
#25=ORIENTED_EDGE('',*,*,#113,.T.);
#26=ORIENTED_EDGE('',*,*,#114,.F.);
#27=ORIENTED_EDGE('',*,*,#115,.T.);
#28=ORIENTED_EDGE('',*,*,#116,.F.);
#29=ORIENTED_EDGE('',*,*,#113,.F.);
#30=ORIENTED_EDGE('',*,*,#117,.F.);
#31=ORIENTED_EDGE('',*,*,#118,.T.);
#32=ORIENTED_EDGE('',*,*,#119,.F.);
#33=ORIENTED_EDGE('',*,*,#111,.F.);
#34=ORIENTED_EDGE('',*,*,#120,.F.);
#35=ORIENTED_EDGE('',*,*,#121,.T.);
#36=ORIENTED_EDGE('',*,*,#122,.F.);
#37=ORIENTED_EDGE('',*,*,#115,.F.);
#38=ORIENTED_EDGE('',*,*,#123,.F.);
#39=ORIENTED_EDGE('',*,*,#124,.T.);
#40=ORIENTED_EDGE('',*,*,#125,.F.);
#41=ORIENTED_EDGE('',*,*,#118,.F.);
#42=ORIENTED_EDGE('',*,*,#126,.F.);
#43=ORIENTED_EDGE('',*,*,#121,.F.);
#44=ORIENTED_EDGE('',*,*,#127,.F.);
#45=ORIENTED_EDGE('',*,*,#124,.F.);
#46=ORIENTED_EDGE('',*,*,#128,.F.);
#47=ORIENTED_EDGE('',*,*,#129,.T.);
#48=ORIENTED_EDGE('',*,*,#130,.F.);
#49=ORIENTED_EDGE('',*,*,#131,.T.);
#50=ORIENTED_EDGE('',*,*,#132,.F.);
#51=ORIENTED_EDGE('',*,*,#133,.T.);
#52=ORIENTED_EDGE('',*,*,#134,.F.);
#53=ORIENTED_EDGE('',*,*,#131,.F.);
#54=ORIENTED_EDGE('',*,*,#135,.F.);
#55=ORIENTED_EDGE('',*,*,#136,.T.);
#56=ORIENTED_EDGE('',*,*,#137,.F.);
#57=ORIENTED_EDGE('',*,*,#129,.F.);
#58=ORIENTED_EDGE('',*,*,#138,.F.);
#59=ORIENTED_EDGE('',*,*,#139,.T.);
#60=ORIENTED_EDGE('',*,*,#140,.F.);
#61=ORIENTED_EDGE('',*,*,#133,.F.);
#62=ORIENTED_EDGE('',*,*,#141,.F.);
#63=ORIENTED_EDGE('',*,*,#142,.T.);
#64=ORIENTED_EDGE('',*,*,#143,.F.);
#65=ORIENTED_EDGE('',*,*,#136,.F.);
#66=ORIENTED_EDGE('',*,*,#144,.F.);
#67=ORIENTED_EDGE('',*,*,#139,.F.);
#68=ORIENTED_EDGE('',*,*,#145,.F.);
#69=ORIENTED_EDGE('',*,*,#142,.F.);
#70=ORIENTED_EDGE('',*,*,#146,.F.);
#71=ORIENTED_EDGE('',*,*,#147,.T.);
#72=ORIENTED_EDGE('',*,*,#117,.T.);
#73=ORIENTED_EDGE('',*,*,#112,.T.);
#74=ORIENTED_EDGE('',*,*,#119,.T.);
#75=ORIENTED_EDGE('',*,*,#125,.T.);
#76=ORIENTED_EDGE('',*,*,#127,.T.);
#77=ORIENTED_EDGE('',*,*,#123,.T.);
#78=ORIENTED_EDGE('',*,*,#148,.F.);
#79=ORIENTED_EDGE('',*,*,#138,.T.);
#80=ORIENTED_EDGE('',*,*,#132,.T.);
#81=ORIENTED_EDGE('',*,*,#134,.T.);
#82=ORIENTED_EDGE('',*,*,#140,.T.);
#83=ORIENTED_EDGE('',*,*,#146,.T.);
#84=ORIENTED_EDGE('',*,*,#144,.T.);
#85=ORIENTED_EDGE('',*,*,#147,.F.);
#86=ORIENTED_EDGE('',*,*,#148,.T.);
#87=ORIENTED_EDGE('',*,*,#149,.F.);
#88=ORIENTED_EDGE('',*,*,#135,.T.);
#89=ORIENTED_EDGE('',*,*,#150,.T.);
#90=ORIENTED_EDGE('',*,*,#122,.T.);
#91=ORIENTED_EDGE('',*,*,#150,.F.);
#92=ORIENTED_EDGE('',*,*,#130,.T.);
#93=ORIENTED_EDGE('',*,*,#151,.T.);
#94=ORIENTED_EDGE('',*,*,#116,.T.);
#95=ORIENTED_EDGE('',*,*,#151,.F.);
#96=ORIENTED_EDGE('',*,*,#137,.T.);
#97=ORIENTED_EDGE('',*,*,#152,.T.);
#98=ORIENTED_EDGE('',*,*,#114,.T.);
#99=ORIENTED_EDGE('',*,*,#152,.F.);
#100=ORIENTED_EDGE('',*,*,#143,.T.);
#101=ORIENTED_EDGE('',*,*,#153,.T.);
#102=ORIENTED_EDGE('',*,*,#120,.T.);
#103=ORIENTED_EDGE('',*,*,#153,.F.);
#104=ORIENTED_EDGE('',*,*,#145,.T.);
#105=ORIENTED_EDGE('',*,*,#154,.T.);
#106=ORIENTED_EDGE('',*,*,#126,.T.);
#107=ORIENTED_EDGE('',*,*,#154,.F.);
#108=ORIENTED_EDGE('',*,*,#141,.T.);
#109=ORIENTED_EDGE('',*,*,#149,.T.);
#110=ORIENTED_EDGE('',*,*,#128,.T.);
#111=EDGE_CURVE('',#155,#156,#181,.T.);
#112=EDGE_CURVE('',#157,#156,#182,.T.);
#113=EDGE_CURVE('',#157,#158,#183,.T.);
#114=EDGE_CURVE('',#155,#158,#184,.T.);
#115=EDGE_CURVE('',#159,#160,#185,.T.);
#116=EDGE_CURVE('',#158,#160,#186,.T.);
#117=EDGE_CURVE('',#159,#157,#187,.T.);
#118=EDGE_CURVE('',#161,#162,#188,.T.);
#119=EDGE_CURVE('',#156,#162,#189,.T.);
#120=EDGE_CURVE('',#161,#155,#190,.T.);
#121=EDGE_CURVE('',#163,#164,#191,.T.);
#122=EDGE_CURVE('',#160,#164,#192,.T.);
#123=EDGE_CURVE('',#163,#159,#193,.T.);
#124=EDGE_CURVE('',#165,#166,#194,.T.);
#125=EDGE_CURVE('',#162,#166,#195,.T.);
#126=EDGE_CURVE('',#165,#161,#196,.T.);
#127=EDGE_CURVE('',#166,#163,#197,.T.);
#128=EDGE_CURVE('',#164,#165,#198,.T.);
#129=EDGE_CURVE('',#167,#168,#199,.T.);
#130=EDGE_CURVE('',#169,#168,#200,.T.);
#131=EDGE_CURVE('',#169,#170,#201,.T.);
#132=EDGE_CURVE('',#167,#170,#202,.T.);
#133=EDGE_CURVE('',#171,#172,#203,.T.);
#134=EDGE_CURVE('',#170,#172,#204,.T.);
#135=EDGE_CURVE('',#171,#169,#205,.T.);
#136=EDGE_CURVE('',#173,#174,#206,.T.);
#137=EDGE_CURVE('',#168,#174,#207,.T.);
#138=EDGE_CURVE('',#173,#167,#208,.T.);
#139=EDGE_CURVE('',#175,#176,#209,.T.);
#140=EDGE_CURVE('',#172,#176,#210,.T.);
#141=EDGE_CURVE('',#175,#171,#211,.T.);
#142=EDGE_CURVE('',#177,#178,#212,.T.);
#143=EDGE_CURVE('',#174,#178,#213,.T.);
#144=EDGE_CURVE('',#177,#173,#214,.T.);
#145=EDGE_CURVE('',#178,#175,#215,.T.);
#146=EDGE_CURVE('',#176,#177,#216,.T.);
#147=EDGE_CURVE('',#179,#179,#21,.T.);
#148=EDGE_CURVE('',#180,#180,#22,.T.);
#149=EDGE_CURVE('',#171,#164,#217,.T.);
#150=EDGE_CURVE('',#169,#160,#218,.T.);
#151=EDGE_CURVE('',#168,#158,#219,.T.);
#152=EDGE_CURVE('',#174,#155,#220,.T.);
#153=EDGE_CURVE('',#178,#161,#221,.T.);
#154=EDGE_CURVE('',#175,#165,#222,.T.);
#155=VERTEX_POINT('',#483);
#156=VERTEX_POINT('',#484);
#157=VERTEX_POINT('',#486);
#158=VERTEX_POINT('',#488);
#159=VERTEX_POINT('',#492);
#160=VERTEX_POINT('',#493);
#161=VERTEX_POINT('',#498);
#162=VERTEX_POINT('',#499);
#163=VERTEX_POINT('',#504);
#164=VERTEX_POINT('',#505);
#165=VERTEX_POINT('',#510);
#166=VERTEX_POINT('',#511);
#167=VERTEX_POINT('',#519);
#168=VERTEX_POINT('',#520);
#169=VERTEX_POINT('',#522);
#170=VERTEX_POINT('',#524);
#171=VERTEX_POINT('',#528);
#172=VERTEX_POINT('',#529);
#173=VERTEX_POINT('',#534);
#174=VERTEX_POINT('',#535);
#175=VERTEX_POINT('',#540);
#176=VERTEX_POINT('',#541);
#177=VERTEX_POINT('',#546);
#178=VERTEX_POINT('',#547);
#179=VERTEX_POINT('',#555);
#180=VERTEX_POINT('',#558);
#181=LINE('',#482,#223);
#182=LINE('',#485,#224);
#183=LINE('',#487,#225);
#184=LINE('',#489,#226);
#185=LINE('',#491,#227);
#186=LINE('',#494,#228);
#187=LINE('',#495,#229);
#188=LINE('',#497,#230);
#189=LINE('',#500,#231);
#190=LINE('',#501,#232);
#191=LINE('',#503,#233);
#192=LINE('',#506,#234);
#193=LINE('',#507,#235);
#194=LINE('',#509,#236);
#195=LINE('',#512,#237);
#196=LINE('',#513,#238);
#197=LINE('',#515,#239);
#198=LINE('',#516,#240);
#199=LINE('',#518,#241);
#200=LINE('',#521,#242);
#201=LINE('',#523,#243);
#202=LINE('',#525,#244);
#203=LINE('',#527,#245);
#204=LINE('',#530,#246);
#205=LINE('',#531,#247);
#206=LINE('',#533,#248);
#207=LINE('',#536,#249);
#208=LINE('',#537,#250);
#209=LINE('',#539,#251);
#210=LINE('',#542,#252);
#211=LINE('',#543,#253);
#212=LINE('',#545,#254);
#213=LINE('',#548,#255);
#214=LINE('',#549,#256);
#215=LINE('',#551,#257);
#216=LINE('',#552,#258);
#217=LINE('',#561,#259);
#218=LINE('',#562,#260);
#219=LINE('',#564,#261);
#220=LINE('',#566,#262);
#221=LINE('',#568,#263);
#222=LINE('',#570,#264);
#223=VECTOR('',#394,1.);
#224=VECTOR('',#395,1.);
#225=VECTOR('',#396,1.);
#226=VECTOR('',#397,1.);
#227=VECTOR('',#400,1.);
#228=VECTOR('',#401,1.);
#229=VECTOR('',#402,1.);
#230=VECTOR('',#405,1.);
#231=VECTOR('',#406,1.);
#232=VECTOR('',#407,1.);
#233=VECTOR('',#410,1.);
#234=VECTOR('',#411,1.);
#235=VECTOR('',#412,1.);
#236=VECTOR('',#415,1.);
#237=VECTOR('',#416,1.);
#238=VECTOR('',#417,1.);
#239=VECTOR('',#420,1.);
#240=VECTOR('',#421,1.);
#241=VECTOR('',#424,1.);
#242=VECTOR('',#425,1.);
#243=VECTOR('',#426,1.);
#244=VECTOR('',#427,1.);
#245=VECTOR('',#430,1.);
#246=VECTOR('',#431,1.);
#247=VECTOR('',#432,1.);
#248=VECTOR('',#435,1.);
#249=VECTOR('',#436,1.);
#250=VECTOR('',#437,1.);
#251=VECTOR('',#440,1.);
#252=VECTOR('',#441,1.);
#253=VECTOR('',#442,1.);
#254=VECTOR('',#445,1.);
#255=VECTOR('',#446,1.);
#256=VECTOR('',#447,1.);
#257=VECTOR('',#450,1.);
#258=VECTOR('',#451,1.);
#259=VECTOR('',#464,1.);
#260=VECTOR('',#465,1.);
#261=VECTOR('',#468,1.);
#262=VECTOR('',#471,1.);
#263=VECTOR('',#474,1.);
#264=VECTOR('',#477,1.);
#265=EDGE_LOOP('',(#23,#24,#25,#26));
#266=EDGE_LOOP('',(#27,#28,#29,#30));
#267=EDGE_LOOP('',(#31,#32,#33,#34));
#268=EDGE_LOOP('',(#35,#36,#37,#38));
#269=EDGE_LOOP('',(#39,#40,#41,#42));
#270=EDGE_LOOP('',(#43,#44,#45,#46));
#271=EDGE_LOOP('',(#47,#48,#49,#50));
#272=EDGE_LOOP('',(#51,#52,#53,#54));
#273=EDGE_LOOP('',(#55,#56,#57,#58));
#274=EDGE_LOOP('',(#59,#60,#61,#62));
#275=EDGE_LOOP('',(#63,#64,#65,#66));
#276=EDGE_LOOP('',(#67,#68,#69,#70));
#277=EDGE_LOOP('',(#71));
#278=EDGE_LOOP('',(#72,#73,#74,#75,#76,#77));
#279=EDGE_LOOP('',(#78));
#280=EDGE_LOOP('',(#79,#80,#81,#82,#83,#84));
#281=EDGE_LOOP('',(#85));
#282=EDGE_LOOP('',(#86));
#283=EDGE_LOOP('',(#87,#88,#89,#90));
#284=EDGE_LOOP('',(#91,#92,#93,#94));
#285=EDGE_LOOP('',(#95,#96,#97,#98));
#286=EDGE_LOOP('',(#99,#100,#101,#102));
#287=EDGE_LOOP('',(#103,#104,#105,#106));
#288=EDGE_LOOP('',(#107,#108,#109,#110));
#289=FACE_BOUND('',#265,.T.);
#290=FACE_BOUND('',#266,.T.);
#291=FACE_BOUND('',#267,.T.);
#292=FACE_BOUND('',#268,.T.);
#293=FACE_BOUND('',#269,.T.);
#294=FACE_BOUND('',#270,.T.);
#295=FACE_BOUND('',#271,.T.);
#296=FACE_BOUND('',#272,.T.);
#297=FACE_BOUND('',#273,.T.);
#298=FACE_BOUND('',#274,.T.);
#299=FACE_BOUND('',#275,.T.);
#300=FACE_BOUND('',#276,.T.);
#301=FACE_BOUND('',#277,.T.);
#302=FACE_BOUND('',#278,.T.);
#303=FACE_BOUND('',#279,.T.);
#304=FACE_BOUND('',#280,.T.);
#305=FACE_BOUND('',#281,.T.);
#306=FACE_BOUND('',#282,.T.);
#307=FACE_BOUND('',#283,.T.);
#308=FACE_BOUND('',#284,.T.);
#309=FACE_BOUND('',#285,.T.);
#310=FACE_BOUND('',#286,.T.);
#311=FACE_BOUND('',#287,.T.);
#312=FACE_BOUND('',#288,.T.);
#313=PLANE('',#367);
#314=PLANE('',#368);
#315=PLANE('',#369);
#316=PLANE('',#370);
#317=PLANE('',#371);
#318=PLANE('',#372);
#319=PLANE('',#373);
#320=PLANE('',#374);
#321=PLANE('',#375);
#322=PLANE('',#376);
#323=PLANE('',#377);
#324=PLANE('',#378);
#325=PLANE('',#379);
#326=PLANE('',#381);
#327=PLANE('',#384);
#328=PLANE('',#385);
#329=PLANE('',#386);
#330=PLANE('',#387);
#331=PLANE('',#388);
#332=PLANE('',#389);
#333=ADVANCED_FACE('',(#289),#313,.F.);
#334=ADVANCED_FACE('',(#290),#314,.F.);
#335=ADVANCED_FACE('',(#291),#315,.F.);
#336=ADVANCED_FACE('',(#292),#316,.F.);
#337=ADVANCED_FACE('',(#293),#317,.F.);
#338=ADVANCED_FACE('',(#294),#318,.F.);
#339=ADVANCED_FACE('',(#295),#319,.T.);
#340=ADVANCED_FACE('',(#296),#320,.T.);
#341=ADVANCED_FACE('',(#297),#321,.T.);
#342=ADVANCED_FACE('',(#298),#322,.T.);
#343=ADVANCED_FACE('',(#299),#323,.T.);
#344=ADVANCED_FACE('',(#300),#324,.T.);
#345=ADVANCED_FACE('',(#301,#302),#325,.F.);
#346=ADVANCED_FACE('',(#303,#304),#326,.T.);
#347=ADVANCED_FACE('',(#305,#306),#20,.F.);
#348=ADVANCED_FACE('',(#307),#327,.F.);
#349=ADVANCED_FACE('',(#308),#328,.F.);
#350=ADVANCED_FACE('',(#309),#329,.F.);
#351=ADVANCED_FACE('',(#310),#330,.F.);
#352=ADVANCED_FACE('',(#311),#331,.F.);
#353=ADVANCED_FACE('',(#312),#332,.F.);
#354=CLOSED_SHELL('',(#333,#334,#335,#336,#337,#338,#339,#340,#341,#342,
#343,#344,#345,#346,#347,#348,#349,#350,#351,#352,#353));
#355=STYLED_ITEM('',(#356),#363);
#356=PRESENTATION_STYLE_ASSIGNMENT((#357));
#357=SURFACE_STYLE_USAGE(.BOTH.,#358);
#358=SURFACE_SIDE_STYLE('',(#359));
#359=SURFACE_STYLE_FILL_AREA(#360);
#360=FILL_AREA_STYLE('',(#361));
#361=FILL_AREA_STYLE_COLOUR('',#362);
#362=COLOUR_RGB('',1.,0.752941176470588,0.298039215686275);
#363=MANIFOLD_SOLID_BREP('stand_off_30mm',#354);
#364=SHAPE_DEFINITION_REPRESENTATION(#578,#365);
#365=SHAPE_REPRESENTATION('stand_off_30mm',(#366),#573);
#366=AXIS2_PLACEMENT_3D('',#480,#390,#391);
#367=AXIS2_PLACEMENT_3D('',#481,#392,#393);
#368=AXIS2_PLACEMENT_3D('',#490,#398,#399);
#369=AXIS2_PLACEMENT_3D('',#496,#403,#404);
#370=AXIS2_PLACEMENT_3D('',#502,#408,#409);
#371=AXIS2_PLACEMENT_3D('',#508,#413,#414);
#372=AXIS2_PLACEMENT_3D('',#514,#418,#419);
#373=AXIS2_PLACEMENT_3D('',#517,#422,#423);
#374=AXIS2_PLACEMENT_3D('',#526,#428,#429);
#375=AXIS2_PLACEMENT_3D('',#532,#433,#434);
#376=AXIS2_PLACEMENT_3D('',#538,#438,#439);
#377=AXIS2_PLACEMENT_3D('',#544,#443,#444);
#378=AXIS2_PLACEMENT_3D('',#550,#448,#449);
#379=AXIS2_PLACEMENT_3D('',#553,#452,#453);
#380=AXIS2_PLACEMENT_3D('',#554,#454,#455);
#381=AXIS2_PLACEMENT_3D('',#556,#456,#457);
#382=AXIS2_PLACEMENT_3D('',#557,#458,#459);
#383=AXIS2_PLACEMENT_3D('',#559,#460,#461);
#384=AXIS2_PLACEMENT_3D('',#560,#462,#463);
#385=AXIS2_PLACEMENT_3D('',#563,#466,#467);
#386=AXIS2_PLACEMENT_3D('',#565,#469,#470);
#387=AXIS2_PLACEMENT_3D('',#567,#472,#473);
#388=AXIS2_PLACEMENT_3D('',#569,#475,#476);
#389=AXIS2_PLACEMENT_3D('',#571,#478,#479);
#390=DIRECTION('',(0.,0.,1.));
#391=DIRECTION('',(1.,0.,0.));
#392=DIRECTION('',(-0.612372435695797,-0.353553390593274,0.707106781186545));
#393=DIRECTION('',(-0.5,0.866025403784439,-6.38378239159465E-16));
#394=DIRECTION('',(-0.755928946018453,6.41727818244142E-16,-0.654653670707979));
#395=DIRECTION('',(0.5,-0.866025403784439,0.));
#396=DIRECTION('',(0.377964473009227,0.654653670707975,0.654653670707979));
#397=DIRECTION('',(-0.5,0.866025403784439,0.));
#398=DIRECTION('',(-6.13317366673352E-16,-0.70710678118655,0.707106781186546));
#399=DIRECTION('',(-1.,8.67361737988404E-16,9.86076131526265E-32));
#400=DIRECTION('',(-0.377964473009226,0.654653670707976,0.654653670707979));
#401=DIRECTION('',(-1.,8.67361737988404E-16,0.));
#402=DIRECTION('',(1.,-8.67361737988404E-16,0.));
#403=DIRECTION('',(-0.612372435695796,0.353553390593275,0.707106781186546));
#404=DIRECTION('',(0.5,0.866025403784439,-3.33066907387547E-16));
#405=DIRECTION('',(-0.377964473009227,0.654653670707975,-0.654653670707979));
#406=DIRECTION('',(-0.5,-0.866025403784439,0.));
#407=DIRECTION('',(0.5,0.866025403784439,0.));
#408=DIRECTION('',(0.612372435695796,-0.353553390593275,0.707106781186545));
#409=DIRECTION('',(-0.5,-0.866025403784439,-3.60822483003176E-16));
#410=DIRECTION('',(-0.755928946018453,7.55324748765281E-16,0.654653670707979));
#411=DIRECTION('',(-0.5,-0.866025403784439,0.));
#412=DIRECTION('',(0.5,0.866025403784439,0.));
#413=DIRECTION('',(0.,0.70710678118655,0.707106781186546));
#414=DIRECTION('',(1.,0.,0.));
#415=DIRECTION('',(0.377964473009226,0.654653670707976,-0.65465367070798));
#416=DIRECTION('',(-1.,0.,0.));
#417=DIRECTION('',(1.,0.,0.));
#418=DIRECTION('',(0.612372435695797,0.353553390593275,0.707106781186545));
#419=DIRECTION('',(0.5,-0.866025403784439,0.));
#420=DIRECTION('',(-0.5,0.866025403784439,0.));
#421=DIRECTION('',(0.5,-0.866025403784439,0.));
#422=DIRECTION('',(6.13317366673352E-16,0.70710678118655,0.707106781186546));
#423=DIRECTION('',(1.,-8.67361737988404E-16,9.86076131526265E-32));
#424=DIRECTION('',(0.377964473009227,0.654653670707975,-0.654653670707979));
#425=DIRECTION('',(1.,-8.67361737988404E-16,0.));
#426=DIRECTION('',(0.377964473009226,-0.654653670707976,0.654653670707979));
#427=DIRECTION('',(-1.,8.67361737988404E-16,0.));
#428=DIRECTION('',(-0.612372435695796,0.353553390593275,0.707106781186545));
#429=DIRECTION('',(0.5,0.866025403784439,-3.60822483003176E-16));
#430=DIRECTION('',(0.755928946018453,-7.55324748765281E-16,0.654653670707979));
#431=DIRECTION('',(-0.5,-0.866025403784439,0.));
#432=DIRECTION('',(0.5,0.866025403784439,0.));
#433=DIRECTION('',(0.612372435695797,0.353553390593274,0.707106781186545));
#434=DIRECTION('',(0.5,-0.866025403784439,-6.38378239159465E-16));
#435=DIRECTION('',(0.755928946018453,-6.12055859808034E-16,-0.654653670707979));
#436=DIRECTION('',(0.5,-0.866025403784439,0.));
#437=DIRECTION('',(-0.5,0.866025403784439,0.));
#438=DIRECTION('',(-0.612372435695797,-0.353553390593275,0.707106781186545));
#439=DIRECTION('',(-0.5,0.866025403784439,0.));
#440=DIRECTION('',(0.377964473009226,0.654653670707976,0.65465367070798));
#441=DIRECTION('',(0.5,-0.866025403784439,0.));
#442=DIRECTION('',(-0.5,0.866025403784439,0.));
#443=DIRECTION('',(0.612372435695796,-0.353553390593275,0.707106781186546));
#444=DIRECTION('',(-0.5,-0.866025403784439,-3.33066907387547E-16));
#445=DIRECTION('',(0.377964473009227,-0.654653670707975,-0.654653670707979));
#446=DIRECTION('',(-0.5,-0.866025403784439,0.));
#447=DIRECTION('',(0.5,0.866025403784439,0.));
#448=DIRECTION('',(0.,-0.70710678118655,0.707106781186546));
#449=DIRECTION('',(-1.,0.,0.));
#450=DIRECTION('',(-1.,0.,0.));
#451=DIRECTION('',(1.,0.,0.));
#452=DIRECTION('',(0.,0.,1.));
#453=DIRECTION('',(1.,0.,0.));
#454=DIRECTION('',(0.,0.,1.));
#455=DIRECTION('',(1.,0.,0.));
#456=DIRECTION('',(0.,0.,1.));
#457=DIRECTION('',(1.,0.,0.));
#458=DIRECTION('',(0.,0.,1.));
#459=DIRECTION('',(1.,0.,0.));
#460=DIRECTION('',(0.,0.,-1.));
#461=DIRECTION('',(-1.,0.,0.));
#462=DIRECTION('',(0.866025403784439,-0.5,0.));
#463=DIRECTION('',(0.5,0.866025403784439,0.));
#464=DIRECTION('',(0.,0.,-1.));
#465=DIRECTION('',(0.,0.,-1.));
#466=DIRECTION('',(-8.67361737988404E-16,-1.,0.));
#467=DIRECTION('',(1.,-8.67361737988404E-16,0.));
#468=DIRECTION('',(0.,0.,-1.));
#469=DIRECTION('',(-0.866025403784439,-0.5,0.));
#470=DIRECTION('',(0.5,-0.866025403784439,0.));
#471=DIRECTION('',(0.,0.,-1.));
#472=DIRECTION('',(-0.866025403784439,0.5,0.));
#473=DIRECTION('',(-0.5,-0.866025403784439,0.));
#474=DIRECTION('',(0.,0.,-1.));
#475=DIRECTION('',(0.,1.,0.));
#476=DIRECTION('',(0.,0.,1.));
#477=DIRECTION('',(0.,0.,-1.));
#478=DIRECTION('',(0.866025403784439,0.5,0.));
#479=DIRECTION('',(-0.5,0.866025403784439,0.));
#480=CARTESIAN_POINT('',(0.,0.,0.));
#481=CARTESIAN_POINT('',(0.0025,-4.44089209850063E-19,0.0003));
#482=CARTESIAN_POINT('',(0.00178571428571429,0.,-0.00031858957413174));
#483=CARTESIAN_POINT('',(0.0025,-4.33680868994202E-19,0.0003));
#484=CARTESIAN_POINT('',(0.00215358983848623,-1.05243504883168E-19,0.));
#485=CARTESIAN_POINT('',(0.00161519237886467,0.000932531754730548,0.));
#486=CARTESIAN_POINT('',(0.00107679491924311,0.0018650635094611,0.));
#487=CARTESIAN_POINT('',(0.00125,0.0021650635094611,0.0003));
#488=CARTESIAN_POINT('',(0.00125,0.0021650635094611,0.0003));
#489=CARTESIAN_POINT('',(0.0025,-4.44089209850063E-19,0.0003));
#490=CARTESIAN_POINT('',(0.00125,0.0021650635094611,0.0003));
#491=CARTESIAN_POINT('',(-0.000892857142857143,0.00154647393532936,-0.000318589574131741));
#492=CARTESIAN_POINT('',(-0.00107679491924311,0.0018650635094611,0.));
#493=CARTESIAN_POINT('',(-0.00125,0.0021650635094611,0.0003));
#494=CARTESIAN_POINT('',(0.00125,0.0021650635094611,0.0003));
#495=CARTESIAN_POINT('',(1.61768472702493E-18,0.0018650635094611,0.));
#496=CARTESIAN_POINT('',(0.00125,-0.0021650635094611,0.0003));
#497=CARTESIAN_POINT('',(0.000892857142857145,-0.00154647393532936,-0.000318589574131741));
#498=CARTESIAN_POINT('',(0.00125,-0.0021650635094611,0.0003));
#499=CARTESIAN_POINT('',(0.00107679491924311,-0.0018650635094611,0.));
#500=CARTESIAN_POINT('',(0.00161519237886467,-0.000932531754730548,0.));
#501=CARTESIAN_POINT('',(0.00125,-0.0021650635094611,0.0003));
#502=CARTESIAN_POINT('',(-0.00125,0.0021650635094611,0.0003));
#503=CARTESIAN_POINT('',(-0.00178571428571429,-4.33680868994202E-19,-0.000318589574131741));
#504=CARTESIAN_POINT('',(-0.00215358983848622,-2.87172629426236E-19,0.));
#505=CARTESIAN_POINT('',(-0.0025,4.44089209850063E-19,0.0003));
#506=CARTESIAN_POINT('',(-0.00125,0.0021650635094611,0.0003));
#507=CARTESIAN_POINT('',(-0.00161519237886467,0.000932531754730549,0.));
#508=CARTESIAN_POINT('',(-0.00125,-0.0021650635094611,0.0003));
#509=CARTESIAN_POINT('',(-0.000892857142857144,-0.00154647393532936,-0.000318589574131742));
#510=CARTESIAN_POINT('',(-0.00125,-0.0021650635094611,0.0003));
#511=CARTESIAN_POINT('',(-0.00107679491924311,-0.0018650635094611,0.));
#512=CARTESIAN_POINT('',(0.,-0.0018650635094611,0.));
#513=CARTESIAN_POINT('',(-0.00125,-0.0021650635094611,0.0003));
#514=CARTESIAN_POINT('',(-0.0025,4.44089209850063E-19,0.0003));
#515=CARTESIAN_POINT('',(-0.00161519237886467,-0.000932531754730548,0.));
#516=CARTESIAN_POINT('',(-0.0025,4.44089209850063E-19,0.0003));
#517=CARTESIAN_POINT('',(1.61768472702493E-18,0.0018650635094611,0.03));
#518=CARTESIAN_POINT('',(0.000922967073636956,0.00159862586525237,0.0302664376442087));
#519=CARTESIAN_POINT('',(0.00107679491924311,0.0018650635094611,0.03));
#520=CARTESIAN_POINT('',(0.00125,0.0021650635094611,0.0297));
#521=CARTESIAN_POINT('',(0.00125,0.0021650635094611,0.0297));
#522=CARTESIAN_POINT('',(-0.00125,0.0021650635094611,0.0297));
#523=CARTESIAN_POINT('',(-0.000922967073636952,0.00159862586525237,0.0302664376442087));
#524=CARTESIAN_POINT('',(-0.00107679491924311,0.0018650635094611,0.03));
#525=CARTESIAN_POINT('',(-0.00125,0.0018650635094611,0.03));
#526=CARTESIAN_POINT('',(-0.00161519237886467,0.000932531754730549,0.03));
#527=CARTESIAN_POINT('',(-0.00184593414727391,-6.50521303491303E-19,0.0302664376442087));
#528=CARTESIAN_POINT('',(-0.0025,4.44089209850063E-19,0.0297));
#529=CARTESIAN_POINT('',(-0.00215358983848622,-2.80396365848201E-19,0.03));
#530=CARTESIAN_POINT('',(-0.00224019237886467,-0.00015,0.03));
#531=CARTESIAN_POINT('',(-0.00125,0.0021650635094611,0.0297));
#532=CARTESIAN_POINT('',(0.00161519237886467,0.000932531754730548,0.03));
#533=CARTESIAN_POINT('',(0.00184593414727391,0.,0.0302664376442087));
#534=CARTESIAN_POINT('',(0.00215358983848623,-2.67873830755994E-19,0.03));
#535=CARTESIAN_POINT('',(0.0025,-4.33680868994202E-19,0.0297));
#536=CARTESIAN_POINT('',(0.0025,-4.1613473787944E-19,0.0297));
#537=CARTESIAN_POINT('',(0.00099019237886467,0.0020150635094611,0.03));
#538=CARTESIAN_POINT('',(-0.00161519237886467,-0.000932531754730548,0.03));
#539=CARTESIAN_POINT('',(-0.000922967073636955,-0.00159862586525237,0.0302664376442087));
#540=CARTESIAN_POINT('',(-0.00125,-0.0021650635094611,0.0297));
#541=CARTESIAN_POINT('',(-0.00107679491924311,-0.0018650635094611,0.03));
#542=CARTESIAN_POINT('',(-0.000990192378864668,-0.0020150635094611,0.03));
#543=CARTESIAN_POINT('',(-0.0025,4.38234518118641E-19,0.0297));
#544=CARTESIAN_POINT('',(0.00161519237886467,-0.000932531754730548,0.03));
#545=CARTESIAN_POINT('',(0.000922967073636955,-0.00159862586525237,0.0302664376442087));
#546=CARTESIAN_POINT('',(0.00107679491924311,-0.0018650635094611,0.03));
#547=CARTESIAN_POINT('',(0.00125,-0.0021650635094611,0.0297));
#548=CARTESIAN_POINT('',(0.00125,-0.0021650635094611,0.0297));
#549=CARTESIAN_POINT('',(0.00224019237886467,0.00015,0.03));
#550=CARTESIAN_POINT('',(0.,-0.0018650635094611,0.03));
#551=CARTESIAN_POINT('',(-0.00125,-0.0021650635094611,0.0297));
#552=CARTESIAN_POINT('',(0.00125,-0.0018650635094611,0.03));
#553=CARTESIAN_POINT('',(0.,0.,0.));
#554=CARTESIAN_POINT('',(0.,0.,0.));
#555=CARTESIAN_POINT('',(0.0015,0.,0.));
#556=CARTESIAN_POINT('',(0.,0.,0.03));
#557=CARTESIAN_POINT('',(0.,0.,0.03));
#558=CARTESIAN_POINT('',(0.0015,0.,0.03));
#559=CARTESIAN_POINT('',(0.,0.,0.03));
#560=CARTESIAN_POINT('',(-0.00125,0.0021650635094611,0.03));
#561=CARTESIAN_POINT('',(-0.0025,4.44089209850063E-19,0.03));
#562=CARTESIAN_POINT('',(-0.00125,0.0021650635094611,0.03));
#563=CARTESIAN_POINT('',(0.00125,0.0021650635094611,0.03));
#564=CARTESIAN_POINT('',(0.00125,0.0021650635094611,0.03));
#565=CARTESIAN_POINT('',(0.0025,-4.44089209850063E-19,0.03));
#566=CARTESIAN_POINT('',(0.0025,-4.33680868994202E-19,0.03));
#567=CARTESIAN_POINT('',(0.00125,-0.0021650635094611,0.03));
#568=CARTESIAN_POINT('',(0.00125,-0.0021650635094611,0.03));
#569=CARTESIAN_POINT('',(-0.00125,-0.0021650635094611,0.03));
#570=CARTESIAN_POINT('',(-0.00125,-0.0021650635094611,0.03));
#571=CARTESIAN_POINT('',(-0.0025,4.44089209850063E-19,0.03));
#572=MECHANICAL_DESIGN_GEOMETRIC_PRESENTATION_REPRESENTATION('',(#355),
#573);
#573=(
GEOMETRIC_REPRESENTATION_CONTEXT(3)
GLOBAL_UNCERTAINTY_ASSIGNED_CONTEXT((#574))
GLOBAL_UNIT_ASSIGNED_CONTEXT((#577,#576,#575))
REPRESENTATION_CONTEXT('stand_off_30mm','TOP_LEVEL_ASSEMBLY_PART')
);
#574=UNCERTAINTY_MEASURE_WITH_UNIT(LENGTH_MEASURE(5.E-6),#577,
'DISTANCE_ACCURACY_VALUE','Maximum Tolerance applied to model');
#575=(
NAMED_UNIT(*)
SI_UNIT($,.STERADIAN.)
SOLID_ANGLE_UNIT()
);
#576=(
NAMED_UNIT(*)
PLANE_ANGLE_UNIT()
SI_UNIT($,.RADIAN.)
);
#577=(
LENGTH_UNIT()
NAMED_UNIT(*)
SI_UNIT($,.METRE.)
);
#578=PRODUCT_DEFINITION_SHAPE('','',#579);
#579=PRODUCT_DEFINITION('','',#581,#580);
#580=PRODUCT_DEFINITION_CONTEXT('',#587,'design');
#581=PRODUCT_DEFINITION_FORMATION_WITH_SPECIFIED_SOURCE('','',#583,
 .NOT_KNOWN.);
#582=PRODUCT_RELATED_PRODUCT_CATEGORY('','',(#583));
#583=PRODUCT('stand_off_30mm','stand_off_30mm','stand_off_30mm',(#585));
#584=PRODUCT_CATEGORY('','');
#585=PRODUCT_CONTEXT('',#587,'mechanical');
#586=APPLICATION_PROTOCOL_DEFINITION('international standard',
'automotive_design',2010,#587);
#587=APPLICATION_CONTEXT(
'core data for automotive mechanical design processes');
ENDSEC;
END-ISO-10303-21;
